M48
;DRILL file {KiCad 4.0.7} date 2018 March 17, Saturday 18:56:28
;FORMAT={2:4/ absolute / inch / suppress leading zeros}
FMAT,2
INCH,TZ
T1C0.016
T2C0.028
T3C0.030
T4C0.031
T5C0.032
T6C0.039
T7C0.043
T8C0.071
T9C0.087
T10C0.020
T11C0.047
T12C0.126
%
G90
G05
M72
T1
X1200Y21800
X2300Y14900
X3100Y19500
X3200Y23700
X3200Y1600
X3600Y19800
X3600Y19200
X3908Y26608
X4000Y28900
X4200Y14200
X4300Y11000
X4996Y23523
X5000Y23200
X5000Y2400
X5600Y25500
X5600Y19600
X6000Y19200
X6000Y14000
X6100Y7700
X6700Y27400
X6772Y23702
X6839Y24270
X6900Y23300
X7000Y1600
X7300Y17500
X7500Y21600
X8000Y27400
X8000Y14500
X8025Y21163
X8100Y26100
X8400Y21500
X8500Y22700
X8700Y24961
X8700Y16300
X8700Y14600
X8764Y21451
X8800Y2400
X9154Y16400
X9161Y23700
X9400Y25500
X9500Y22300
X10000Y29300
X10046Y20409
X10300Y24300
X10300Y22900
X10700Y16800
X10800Y1600
X11000Y29600
X11177Y20231
X11354Y22174
X11600Y28600
X11600Y15900
X12600Y2400
X13500Y28100
X14000Y21900
X14100Y20900
X14506Y20594
X14600Y1600
X14700Y21600
X15100Y31750
X15200Y21300
X15600Y28150
X15600Y21500
X15688Y21061
X16200Y10800
X16200Y8100
X16400Y2400
X16500Y12500
X16600Y11700
X16700Y10100
X16800Y21350
X17300Y10800
X17400Y25450
X17800Y27250
X17900Y12800
X17941Y18808
X18400Y1600
X18600Y21750
X18600Y18600
X18700Y20250
X19400Y18600
X19400Y13100
X19400Y12600
X19600Y23250
X19740Y21650
X19800Y21045
X19873Y26946
X19900Y18846
X20100Y19750
X20200Y2400
X20400Y6800
X20500Y21750
X20600Y25650
X20600Y19750
X20700Y11950
X20800Y14550
X21100Y17950
X21300Y19850
X21400Y23250
X21500Y20550
X22000Y17200
X22083Y20989
X22100Y24150
X22100Y20550
X22100Y19750
X22200Y27150
X22200Y1600
X22400Y23150
X22400Y19050
X23200Y15950
X23300Y10600
X23300Y8700
X23350Y14350
X23394Y20692
X23400Y21050
X23400Y20350
X24000Y2400
X24100Y17800
X24200Y16250
X24300Y27050
X24300Y23250
X24300Y8100
X24400Y12100
X24430Y23950
X24700Y20450
X24700Y19750
X24700Y7700
X24900Y16850
X24900Y16300
X25100Y9500
X25400Y9700
X25600Y9000
X25651Y23955
X25700Y11000
X25900Y23717
X25950Y20450
X25970Y21400
X26000Y18500
X26000Y9100
X26000Y1600
X26200Y16800
X26800Y11600
X27000Y14400
X27200Y16550
X27200Y10700
X27207Y12006
X27800Y2400
X27848Y25108
X28000Y23350
X28120Y19222
X28200Y25200
X28309Y15563
X28335Y18583
X28339Y18231
X28386Y17550
X28407Y16608
X28558Y23887
X28726Y18972
X28891Y19841
X29009Y12766
X29029Y13553
X29067Y16937
X29085Y15490
X29332Y14817
X29353Y18913
X29391Y25923
X29500Y24150
X29521Y16700
X29578Y15501
X29800Y8600
X29800Y1600
X29900Y19950
X29950Y18199
X29994Y18593
X30000Y25200
X30300Y27050
X30500Y23496
X30504Y24165
X30546Y15003
X30700Y25431
X30924Y11556
X31100Y8600
X31200Y21600
X31495Y20004
X31597Y17766
X31600Y2400
X31685Y20496
X31800Y17250
X31925Y19629
X31946Y19050
X31950Y22650
X32101Y16951
X32163Y16637
X32229Y16303
X32486Y18671
X32600Y21500
X32700Y29150
X32750Y27850
X32950Y22350
X34214Y21199
T3
X4600Y27900
X5600Y27900
X6600Y27900
X7600Y27900
X8600Y27900
X9600Y27900
X10600Y27900
T4
X1200Y29500
X1200Y28500
X1200Y27500
X1200Y26500
X1200Y25500
X4000Y8100
X16000Y18500
X16000Y17500
X21300Y6700
X27900Y8000
X32700Y9200
X33624Y14148
X33624Y13164
X33624Y12180
X33624Y11196
X33624Y10211
X33624Y9227
T5
X15200Y10000
X15200Y8031
X20121Y10000
X20121Y8031
T6
X1600Y14500
X1600Y13500
X1600Y12500
X1600Y11500
X1600Y10500
X1600Y9500
X3300Y4800
X4300Y4800
X5300Y4800
X6716Y13753
X6716Y8044
X7100Y4800
X7700Y13753
X8100Y4800
X8684Y13753
X8684Y8044
X9100Y4800
X10900Y4800
X11800Y31500
X11800Y30500
X11900Y4800
X12300Y7000
X12800Y31500
X12800Y30500
X12900Y4800
X13300Y7000
X13800Y31500
X13800Y30500
X14700Y4800
X15700Y4800
X16700Y4800
X18500Y4800
X19500Y4800
X20500Y4800
X22300Y4800
X23300Y4800
X24300Y4800
X25200Y14200
X25200Y13200
X25200Y12200
X26100Y4800
X26200Y14200
X26200Y13200
X26200Y12200
X27100Y4800
X28100Y13800
X28100Y12800
X28100Y4800
X29900Y4800
X30900Y4800
X31900Y4800
X33624Y20707
X33624Y19707
X33624Y18707
X33624Y17707
X33624Y16707
X33624Y15707
T7
X29141Y10100
X29141Y8328
X31700Y10100
X31700Y8328
T9
X4300Y1600
X8100Y1600
X11900Y1600
X15700Y1600
X19500Y1600
X23300Y1600
X27100Y1600
X30900Y1600
T10
X2814Y5600
X3109Y5600
X3405Y5600
X3700Y5600
X3995Y5600
X4291Y5600
X4586Y5600
X4881Y5600
X5176Y5600
X5472Y5600
X5767Y5600
X6633Y5600
X6928Y5600
X7224Y5600
X7519Y5600
X7814Y5600
X8109Y5600
X8405Y5600
X8700Y5600
X8995Y5600
X9291Y5600
X9586Y5600
X10433Y5600
X10728Y5600
X11024Y5600
X11319Y5600
X11614Y5600
X11909Y5600
X12205Y5600
X12500Y5600
X12795Y5600
X13091Y5600
X13386Y5600
X14233Y5600
X14528Y5600
X14824Y5600
X15119Y5600
X15414Y5600
X15709Y5600
X16005Y5600
X16300Y5600
X16595Y5600
X16891Y5600
X17186Y5600
X18033Y5600
X18328Y5600
X18624Y5600
X18919Y5600
X19214Y5600
X19509Y5600
X19805Y5600
X20100Y5600
X20395Y5600
X20691Y5600
X20986Y5600
X21833Y5600
X22128Y5600
X22424Y5600
X22719Y5600
X23014Y5600
X23309Y5600
X23605Y5600
X23900Y5600
X24195Y5600
X24491Y5600
X24786Y5600
X25633Y5600
X25928Y5600
X26224Y5600
X26519Y5600
X26814Y5600
X27109Y5600
X27405Y5600
X27700Y5600
X27995Y5600
X28291Y5600
X28586Y5600
X29433Y5600
X29728Y5600
X30024Y5600
X30319Y5600
X30614Y5600
X30909Y5600
X31205Y5600
X31500Y5600
X31795Y5600
X32091Y5600
X32386Y5600
T11
X4700Y31100
X8800Y31100
X20931Y32203
X20931Y31219
X22900Y29250
X24869Y32203
X24869Y31219
T12
X1650Y16475
X1700Y31500
X1700Y7200
X13650Y16500
X33500Y31500
X33500Y7200
T2
X3972Y30273G85X3972Y29958
G05
X4543Y32045G85X4857Y32045
G05
X4543Y29328G85X4857Y29328
G05
X5428Y30273G85X5428Y29958
G05
X8072Y30273G85X8072Y29958
G05
X8643Y32045G85X8957Y32045
G05
X8643Y29328G85X8957Y29328
G05
X9528Y30273G85X9528Y29958
G05
T4
X20931Y29388G85X20931Y29112
G05
X21916Y29388G85X21916Y29112
G05
X22762Y31219G85X23038Y31219
G05
X23884Y29388G85X23884Y29112
G05
X24869Y29388G85X24869Y29112
G05
T8
X5456Y10643G85X5456Y10957
G05
X9944Y10643G85X9944Y10957
G05
T0
M30
