%TF.GenerationSoftware,KiCad,Pcbnew,4.0.7*%
%TF.CreationDate,2018-03-16T18:48:40+01:00*%
%TF.ProjectId,Synkino,53796E6B696E6F2E6B696361645F7063,rev?*%
%TF.FileFunction,Legend,Top*%
%FSLAX46Y46*%
G04 Gerber Fmt 4.6, Leading zero omitted, Abs format (unit mm)*
G04 Created by KiCad (PCBNEW 4.0.7) date 2018 March 16, Friday 18:48:40*
%MOMM*%
%LPD*%
G01*
G04 APERTURE LIST*
%ADD10C,0.100000*%
%ADD11C,0.300000*%
%ADD12C,0.200000*%
%ADD13C,0.150000*%
%ADD14C,0.120000*%
%ADD15C,0.127000*%
G04 APERTURE END LIST*
D10*
D11*
X110530001Y-95190571D02*
X110244287Y-95190571D01*
X110101430Y-95262000D01*
X110030001Y-95333429D01*
X109887144Y-95547714D01*
X109815715Y-95833429D01*
X109815715Y-96404857D01*
X109887144Y-96547714D01*
X109958572Y-96619143D01*
X110101430Y-96690571D01*
X110387144Y-96690571D01*
X110530001Y-96619143D01*
X110601430Y-96547714D01*
X110672858Y-96404857D01*
X110672858Y-96047714D01*
X110601430Y-95904857D01*
X110530001Y-95833429D01*
X110387144Y-95762000D01*
X110101430Y-95762000D01*
X109958572Y-95833429D01*
X109887144Y-95904857D01*
X109815715Y-96047714D01*
X111315715Y-96547714D02*
X111387143Y-96619143D01*
X111315715Y-96690571D01*
X111244286Y-96619143D01*
X111315715Y-96547714D01*
X111315715Y-96690571D01*
X112030001Y-96547714D02*
X112101429Y-96619143D01*
X112030001Y-96690571D01*
X111958572Y-96619143D01*
X112030001Y-96547714D01*
X112030001Y-96690571D01*
X113530001Y-96690571D02*
X112672858Y-96690571D01*
X113101430Y-96690571D02*
X113101430Y-95190571D01*
X112958573Y-95404857D01*
X112815715Y-95547714D01*
X112672858Y-95619143D01*
X114030001Y-95190571D02*
X114958572Y-95190571D01*
X114458572Y-95762000D01*
X114672858Y-95762000D01*
X114815715Y-95833429D01*
X114887144Y-95904857D01*
X114958572Y-96047714D01*
X114958572Y-96404857D01*
X114887144Y-96547714D01*
X114815715Y-96619143D01*
X114672858Y-96690571D01*
X114244286Y-96690571D01*
X114101429Y-96619143D01*
X114030001Y-96547714D01*
X115387143Y-95190571D02*
X115887143Y-96690571D01*
X116387143Y-95190571D01*
X110704572Y-98405143D02*
X111847429Y-98405143D01*
X113704572Y-98405143D02*
X114847429Y-98405143D01*
X114276000Y-98976571D02*
X114276000Y-97833714D01*
X101564572Y-86276571D02*
X101064572Y-85562286D01*
X100707429Y-86276571D02*
X100707429Y-84776571D01*
X101278857Y-84776571D01*
X101421715Y-84848000D01*
X101493143Y-84919429D01*
X101564572Y-85062286D01*
X101564572Y-85276571D01*
X101493143Y-85419429D01*
X101421715Y-85490857D01*
X101278857Y-85562286D01*
X100707429Y-85562286D01*
X102778857Y-86205143D02*
X102636000Y-86276571D01*
X102350286Y-86276571D01*
X102207429Y-86205143D01*
X102136000Y-86062286D01*
X102136000Y-85490857D01*
X102207429Y-85348000D01*
X102350286Y-85276571D01*
X102636000Y-85276571D01*
X102778857Y-85348000D01*
X102850286Y-85490857D01*
X102850286Y-85633714D01*
X102136000Y-85776571D01*
X103350286Y-85276571D02*
X103707429Y-86276571D01*
X104064571Y-85276571D01*
X104636000Y-86133714D02*
X104707428Y-86205143D01*
X104636000Y-86276571D01*
X104564571Y-86205143D01*
X104636000Y-86133714D01*
X104636000Y-86276571D01*
X106421714Y-85848000D02*
X107136000Y-85848000D01*
X106278857Y-86276571D02*
X106778857Y-84776571D01*
X107278857Y-86276571D01*
D12*
X101862191Y-39727143D02*
X101814572Y-39774762D01*
X101671715Y-39822381D01*
X101576477Y-39822381D01*
X101433619Y-39774762D01*
X101338381Y-39679524D01*
X101290762Y-39584286D01*
X101243143Y-39393810D01*
X101243143Y-39250952D01*
X101290762Y-39060476D01*
X101338381Y-38965238D01*
X101433619Y-38870000D01*
X101576477Y-38822381D01*
X101671715Y-38822381D01*
X101814572Y-38870000D01*
X101862191Y-38917619D01*
X102290762Y-39441429D02*
X103052667Y-39441429D01*
X103528857Y-39822381D02*
X103528857Y-38822381D01*
X104576476Y-39727143D02*
X104528857Y-39774762D01*
X104386000Y-39822381D01*
X104290762Y-39822381D01*
X104147904Y-39774762D01*
X104052666Y-39679524D01*
X104005047Y-39584286D01*
X103957428Y-39393810D01*
X103957428Y-39250952D01*
X104005047Y-39060476D01*
X104052666Y-38965238D01*
X104147904Y-38870000D01*
X104290762Y-38822381D01*
X104386000Y-38822381D01*
X104528857Y-38870000D01*
X104576476Y-38917619D01*
X104957428Y-39774762D02*
X105100285Y-39822381D01*
X105338381Y-39822381D01*
X105433619Y-39774762D01*
X105481238Y-39727143D01*
X105528857Y-39631905D01*
X105528857Y-39536667D01*
X105481238Y-39441429D01*
X105433619Y-39393810D01*
X105338381Y-39346190D01*
X105147904Y-39298571D01*
X105052666Y-39250952D01*
X105005047Y-39203333D01*
X104957428Y-39108095D01*
X104957428Y-39012857D01*
X105005047Y-38917619D01*
X105052666Y-38870000D01*
X105147904Y-38822381D01*
X105386000Y-38822381D01*
X105528857Y-38870000D01*
X105957428Y-39822381D02*
X105957428Y-38822381D01*
X106338381Y-38822381D01*
X106433619Y-38870000D01*
X106481238Y-38917619D01*
X106528857Y-39012857D01*
X106528857Y-39155714D01*
X106481238Y-39250952D01*
X106433619Y-39298571D01*
X106338381Y-39346190D01*
X105957428Y-39346190D01*
X136850381Y-46648381D02*
X136850381Y-47124572D01*
X135850381Y-47124572D01*
X136850381Y-46315048D02*
X136183714Y-46315048D01*
X135850381Y-46315048D02*
X135898000Y-46362667D01*
X135945619Y-46315048D01*
X135898000Y-46267429D01*
X135850381Y-46315048D01*
X135945619Y-46315048D01*
X136183714Y-45838858D02*
X136850381Y-45838858D01*
X136278952Y-45838858D02*
X136231333Y-45791239D01*
X136183714Y-45696001D01*
X136183714Y-45553143D01*
X136231333Y-45457905D01*
X136326571Y-45410286D01*
X136850381Y-45410286D01*
X136802762Y-44553143D02*
X136850381Y-44648381D01*
X136850381Y-44838858D01*
X136802762Y-44934096D01*
X136707524Y-44981715D01*
X136326571Y-44981715D01*
X136231333Y-44934096D01*
X136183714Y-44838858D01*
X136183714Y-44648381D01*
X136231333Y-44553143D01*
X136326571Y-44505524D01*
X136421810Y-44505524D01*
X136517048Y-44981715D01*
X135850381Y-43124572D02*
X135850381Y-42934095D01*
X135898000Y-42838857D01*
X135993238Y-42743619D01*
X136183714Y-42696000D01*
X136517048Y-42696000D01*
X136707524Y-42743619D01*
X136802762Y-42838857D01*
X136850381Y-42934095D01*
X136850381Y-43124572D01*
X136802762Y-43219810D01*
X136707524Y-43315048D01*
X136517048Y-43362667D01*
X136183714Y-43362667D01*
X135993238Y-43315048D01*
X135898000Y-43219810D01*
X135850381Y-43124572D01*
X136183714Y-41838857D02*
X136850381Y-41838857D01*
X136183714Y-42267429D02*
X136707524Y-42267429D01*
X136802762Y-42219810D01*
X136850381Y-42124572D01*
X136850381Y-41981714D01*
X136802762Y-41886476D01*
X136755143Y-41838857D01*
X136183714Y-41505524D02*
X136183714Y-41124572D01*
X135850381Y-41362667D02*
X136707524Y-41362667D01*
X136802762Y-41315048D01*
X136850381Y-41219810D01*
X136850381Y-41124572D01*
D11*
X80293428Y-105509143D02*
X80507714Y-105580571D01*
X80864857Y-105580571D01*
X81007714Y-105509143D01*
X81079143Y-105437714D01*
X81150571Y-105294857D01*
X81150571Y-105152000D01*
X81079143Y-105009143D01*
X81007714Y-104937714D01*
X80864857Y-104866286D01*
X80579143Y-104794857D01*
X80436285Y-104723429D01*
X80364857Y-104652000D01*
X80293428Y-104509143D01*
X80293428Y-104366286D01*
X80364857Y-104223429D01*
X80436285Y-104152000D01*
X80579143Y-104080571D01*
X80936285Y-104080571D01*
X81150571Y-104152000D01*
X81650571Y-104580571D02*
X82007714Y-105580571D01*
X82364856Y-104580571D02*
X82007714Y-105580571D01*
X81864856Y-105937714D01*
X81793428Y-106009143D01*
X81650571Y-106080571D01*
X82936285Y-104580571D02*
X82936285Y-105580571D01*
X82936285Y-104723429D02*
X83007713Y-104652000D01*
X83150571Y-104580571D01*
X83364856Y-104580571D01*
X83507713Y-104652000D01*
X83579142Y-104794857D01*
X83579142Y-105580571D01*
X84293428Y-105580571D02*
X84293428Y-104080571D01*
X84436285Y-105009143D02*
X84864856Y-105580571D01*
X84864856Y-104580571D02*
X84293428Y-105152000D01*
X85507714Y-105580571D02*
X85507714Y-104580571D01*
X85507714Y-104080571D02*
X85436285Y-104152000D01*
X85507714Y-104223429D01*
X85579142Y-104152000D01*
X85507714Y-104080571D01*
X85507714Y-104223429D01*
X86222000Y-104580571D02*
X86222000Y-105580571D01*
X86222000Y-104723429D02*
X86293428Y-104652000D01*
X86436286Y-104580571D01*
X86650571Y-104580571D01*
X86793428Y-104652000D01*
X86864857Y-104794857D01*
X86864857Y-105580571D01*
X87793429Y-105580571D02*
X87650571Y-105509143D01*
X87579143Y-105437714D01*
X87507714Y-105294857D01*
X87507714Y-104866286D01*
X87579143Y-104723429D01*
X87650571Y-104652000D01*
X87793429Y-104580571D01*
X88007714Y-104580571D01*
X88150571Y-104652000D01*
X88222000Y-104723429D01*
X88293429Y-104866286D01*
X88293429Y-105294857D01*
X88222000Y-105437714D01*
X88150571Y-105509143D01*
X88007714Y-105580571D01*
X87793429Y-105580571D01*
X90079143Y-105580571D02*
X90079143Y-104080571D01*
X90079143Y-104652000D02*
X90222000Y-104580571D01*
X90507714Y-104580571D01*
X90650571Y-104652000D01*
X90722000Y-104723429D01*
X90793429Y-104866286D01*
X90793429Y-105294857D01*
X90722000Y-105437714D01*
X90650571Y-105509143D01*
X90507714Y-105580571D01*
X90222000Y-105580571D01*
X90079143Y-105509143D01*
X91293429Y-104580571D02*
X91650572Y-105580571D01*
X92007714Y-104580571D02*
X91650572Y-105580571D01*
X91507714Y-105937714D01*
X91436286Y-106009143D01*
X91293429Y-106080571D01*
X93507714Y-104580571D02*
X94079143Y-104580571D01*
X93722000Y-105580571D02*
X93722000Y-104294857D01*
X93793428Y-104152000D01*
X93936286Y-104080571D01*
X94079143Y-104080571D01*
X94579143Y-105580571D02*
X94579143Y-104580571D01*
X94579143Y-104080571D02*
X94507714Y-104152000D01*
X94579143Y-104223429D01*
X94650571Y-104152000D01*
X94579143Y-104080571D01*
X94579143Y-104223429D01*
X95507715Y-105580571D02*
X95364857Y-105509143D01*
X95293429Y-105366286D01*
X95293429Y-104080571D01*
X96079143Y-105580571D02*
X96079143Y-104580571D01*
X96079143Y-104723429D02*
X96150571Y-104652000D01*
X96293429Y-104580571D01*
X96507714Y-104580571D01*
X96650571Y-104652000D01*
X96722000Y-104794857D01*
X96722000Y-105580571D01*
X96722000Y-104794857D02*
X96793429Y-104652000D01*
X96936286Y-104580571D01*
X97150571Y-104580571D01*
X97293429Y-104652000D01*
X97364857Y-104794857D01*
X97364857Y-105580571D01*
X98079143Y-105580571D02*
X98079143Y-104080571D01*
X98222000Y-105009143D02*
X98650571Y-105580571D01*
X98650571Y-104580571D02*
X98079143Y-105152000D01*
X99507715Y-105580571D02*
X99364857Y-105509143D01*
X99293429Y-105437714D01*
X99222000Y-105294857D01*
X99222000Y-104866286D01*
X99293429Y-104723429D01*
X99364857Y-104652000D01*
X99507715Y-104580571D01*
X99722000Y-104580571D01*
X99864857Y-104652000D01*
X99936286Y-104723429D01*
X100007715Y-104866286D01*
X100007715Y-105294857D01*
X99936286Y-105437714D01*
X99864857Y-105509143D01*
X99722000Y-105580571D01*
X99507715Y-105580571D01*
X100650572Y-105580571D02*
X100650572Y-104580571D01*
X100650572Y-104866286D02*
X100722000Y-104723429D01*
X100793429Y-104652000D01*
X100936286Y-104580571D01*
X101079143Y-104580571D01*
X101579143Y-104580571D02*
X101579143Y-105580571D01*
X101579143Y-104723429D02*
X101650571Y-104652000D01*
X101793429Y-104580571D01*
X102007714Y-104580571D01*
X102150571Y-104652000D01*
X102222000Y-104794857D01*
X102222000Y-105580571D01*
X102936286Y-105437714D02*
X103007714Y-105509143D01*
X102936286Y-105580571D01*
X102864857Y-105509143D01*
X102936286Y-105437714D01*
X102936286Y-105580571D01*
X103864858Y-105580571D02*
X103722000Y-105509143D01*
X103650572Y-105437714D01*
X103579143Y-105294857D01*
X103579143Y-104866286D01*
X103650572Y-104723429D01*
X103722000Y-104652000D01*
X103864858Y-104580571D01*
X104079143Y-104580571D01*
X104222000Y-104652000D01*
X104293429Y-104723429D01*
X104364858Y-104866286D01*
X104364858Y-105294857D01*
X104293429Y-105437714D01*
X104222000Y-105509143D01*
X104079143Y-105580571D01*
X103864858Y-105580571D01*
X105007715Y-105580571D02*
X105007715Y-104580571D01*
X105007715Y-104866286D02*
X105079143Y-104723429D01*
X105150572Y-104652000D01*
X105293429Y-104580571D01*
X105436286Y-104580571D01*
X106579143Y-104580571D02*
X106579143Y-105794857D01*
X106507714Y-105937714D01*
X106436286Y-106009143D01*
X106293429Y-106080571D01*
X106079143Y-106080571D01*
X105936286Y-106009143D01*
X106579143Y-105509143D02*
X106436286Y-105580571D01*
X106150572Y-105580571D01*
X106007714Y-105509143D01*
X105936286Y-105437714D01*
X105864857Y-105294857D01*
X105864857Y-104866286D01*
X105936286Y-104723429D01*
X106007714Y-104652000D01*
X106150572Y-104580571D01*
X106436286Y-104580571D01*
X106579143Y-104652000D01*
D12*
X73144000Y-84836096D02*
X73191619Y-84740858D01*
X73191619Y-84598001D01*
X73144000Y-84455143D01*
X73048762Y-84359905D01*
X72953524Y-84312286D01*
X72763048Y-84264667D01*
X72620190Y-84264667D01*
X72429714Y-84312286D01*
X72334476Y-84359905D01*
X72239238Y-84455143D01*
X72191619Y-84598001D01*
X72191619Y-84693239D01*
X72239238Y-84836096D01*
X72286857Y-84883715D01*
X72620190Y-84883715D01*
X72620190Y-84693239D01*
X72191619Y-85312286D02*
X73191619Y-85312286D01*
X72191619Y-85883715D01*
X73191619Y-85883715D01*
X72191619Y-86359905D02*
X73191619Y-86359905D01*
X73191619Y-86598000D01*
X73144000Y-86740858D01*
X73048762Y-86836096D01*
X72953524Y-86883715D01*
X72763048Y-86931334D01*
X72620190Y-86931334D01*
X72429714Y-86883715D01*
X72334476Y-86836096D01*
X72239238Y-86740858D01*
X72191619Y-86598000D01*
X72191619Y-86359905D01*
X72286857Y-89908571D02*
X72239238Y-89860952D01*
X72191619Y-89718095D01*
X72191619Y-89622857D01*
X72239238Y-89479999D01*
X72334476Y-89384761D01*
X72429714Y-89337142D01*
X72620190Y-89289523D01*
X72763048Y-89289523D01*
X72953524Y-89337142D01*
X73048762Y-89384761D01*
X73144000Y-89479999D01*
X73191619Y-89622857D01*
X73191619Y-89718095D01*
X73144000Y-89860952D01*
X73096381Y-89908571D01*
X72191619Y-90479999D02*
X72239238Y-90384761D01*
X72286857Y-90337142D01*
X72382095Y-90289523D01*
X72667810Y-90289523D01*
X72763048Y-90337142D01*
X72810667Y-90384761D01*
X72858286Y-90479999D01*
X72858286Y-90622857D01*
X72810667Y-90718095D01*
X72763048Y-90765714D01*
X72667810Y-90813333D01*
X72382095Y-90813333D01*
X72286857Y-90765714D01*
X72239238Y-90718095D01*
X72191619Y-90622857D01*
X72191619Y-90479999D01*
X72858286Y-91241904D02*
X72191619Y-91241904D01*
X72763048Y-91241904D02*
X72810667Y-91289523D01*
X72858286Y-91384761D01*
X72858286Y-91527619D01*
X72810667Y-91622857D01*
X72715429Y-91670476D01*
X72191619Y-91670476D01*
X72858286Y-92003809D02*
X72858286Y-92384761D01*
X73191619Y-92146666D02*
X72334476Y-92146666D01*
X72239238Y-92194285D01*
X72191619Y-92289523D01*
X72191619Y-92384761D01*
X72191619Y-92718095D02*
X72858286Y-92718095D01*
X72667810Y-92718095D02*
X72763048Y-92765714D01*
X72810667Y-92813333D01*
X72858286Y-92908571D01*
X72858286Y-93003810D01*
X72191619Y-93480000D02*
X72239238Y-93384762D01*
X72286857Y-93337143D01*
X72382095Y-93289524D01*
X72667810Y-93289524D01*
X72763048Y-93337143D01*
X72810667Y-93384762D01*
X72858286Y-93480000D01*
X72858286Y-93622858D01*
X72810667Y-93718096D01*
X72763048Y-93765715D01*
X72667810Y-93813334D01*
X72382095Y-93813334D01*
X72286857Y-93765715D01*
X72239238Y-93718096D01*
X72191619Y-93622858D01*
X72191619Y-93480000D01*
X72191619Y-94384762D02*
X72239238Y-94289524D01*
X72334476Y-94241905D01*
X73191619Y-94241905D01*
X72572571Y-94765715D02*
X72572571Y-95527620D01*
X72715429Y-96337144D02*
X72715429Y-96003810D01*
X72191619Y-96003810D02*
X73191619Y-96003810D01*
X73191619Y-96480001D01*
X73191619Y-96718096D02*
X73191619Y-97289525D01*
X72191619Y-97003810D02*
X73191619Y-97003810D01*
X72191619Y-97622858D02*
X73191619Y-97622858D01*
X73191619Y-97860953D01*
X73144000Y-98003811D01*
X73048762Y-98099049D01*
X72953524Y-98146668D01*
X72763048Y-98194287D01*
X72620190Y-98194287D01*
X72429714Y-98146668D01*
X72334476Y-98099049D01*
X72239238Y-98003811D01*
X72191619Y-97860953D01*
X72191619Y-97622858D01*
X72191619Y-98622858D02*
X73191619Y-98622858D01*
X132746763Y-85066190D02*
X132746763Y-85256667D01*
X132794382Y-85256667D02*
X132794382Y-85066190D01*
X132842001Y-85018571D02*
X132842001Y-85304286D01*
X132889620Y-85256667D02*
X132889620Y-85066190D01*
X132937239Y-85066190D02*
X132937239Y-85256667D01*
X132746763Y-85209048D02*
X132842001Y-85304286D01*
X132937239Y-85209048D01*
X132746763Y-85113810D02*
X132842001Y-85018571D01*
X132937239Y-85113810D01*
X132746763Y-85066190D02*
X132842001Y-85018571D01*
X132937239Y-85066190D01*
X132984858Y-85161429D01*
X132937239Y-85256667D01*
X132842001Y-85304286D01*
X132746763Y-85256667D01*
X132699143Y-85161429D01*
X132746763Y-85066190D01*
X133826572Y-93638667D02*
X134302763Y-93638667D01*
X133731334Y-93924381D02*
X134064667Y-92924381D01*
X134398001Y-93924381D01*
X134731334Y-93543429D02*
X135493239Y-93543429D01*
X135969429Y-93924381D02*
X135969429Y-92924381D01*
X137017048Y-93829143D02*
X136969429Y-93876762D01*
X136826572Y-93924381D01*
X136731334Y-93924381D01*
X136588476Y-93876762D01*
X136493238Y-93781524D01*
X136445619Y-93686286D01*
X136398000Y-93495810D01*
X136398000Y-93352952D01*
X136445619Y-93162476D01*
X136493238Y-93067238D01*
X136588476Y-92972000D01*
X136731334Y-92924381D01*
X136826572Y-92924381D01*
X136969429Y-92972000D01*
X137017048Y-93019619D01*
X137398000Y-93876762D02*
X137540857Y-93924381D01*
X137778953Y-93924381D01*
X137874191Y-93876762D01*
X137921810Y-93829143D01*
X137969429Y-93733905D01*
X137969429Y-93638667D01*
X137921810Y-93543429D01*
X137874191Y-93495810D01*
X137778953Y-93448190D01*
X137588476Y-93400571D01*
X137493238Y-93352952D01*
X137445619Y-93305333D01*
X137398000Y-93210095D01*
X137398000Y-93114857D01*
X137445619Y-93019619D01*
X137493238Y-92972000D01*
X137588476Y-92924381D01*
X137826572Y-92924381D01*
X137969429Y-92972000D01*
X138398000Y-93924381D02*
X138398000Y-92924381D01*
X138778953Y-92924381D01*
X138874191Y-92972000D01*
X138921810Y-93019619D01*
X138969429Y-93114857D01*
X138969429Y-93257714D01*
X138921810Y-93352952D01*
X138874191Y-93400571D01*
X138778953Y-93448190D01*
X138398000Y-93448190D01*
X140922572Y-92654381D02*
X140922572Y-91654381D01*
X141255906Y-92368667D01*
X141589239Y-91654381D01*
X141589239Y-92654381D01*
X142065429Y-92654381D02*
X142065429Y-91654381D01*
X142494000Y-92606762D02*
X142636857Y-92654381D01*
X142874953Y-92654381D01*
X142970191Y-92606762D01*
X143017810Y-92559143D01*
X143065429Y-92463905D01*
X143065429Y-92368667D01*
X143017810Y-92273429D01*
X142970191Y-92225810D01*
X142874953Y-92178190D01*
X142684476Y-92130571D01*
X142589238Y-92082952D01*
X142541619Y-92035333D01*
X142494000Y-91940095D01*
X142494000Y-91844857D01*
X142541619Y-91749619D01*
X142589238Y-91702000D01*
X142684476Y-91654381D01*
X142922572Y-91654381D01*
X143065429Y-91702000D01*
X143684476Y-91654381D02*
X143874953Y-91654381D01*
X143970191Y-91702000D01*
X144065429Y-91797238D01*
X144113048Y-91987714D01*
X144113048Y-92321048D01*
X144065429Y-92511524D01*
X143970191Y-92606762D01*
X143874953Y-92654381D01*
X143684476Y-92654381D01*
X143589238Y-92606762D01*
X143494000Y-92511524D01*
X143446381Y-92321048D01*
X143446381Y-91987714D01*
X143494000Y-91797238D01*
X143589238Y-91702000D01*
X143684476Y-91654381D01*
X90114381Y-45846667D02*
X89114381Y-45846667D01*
X90114381Y-45370477D02*
X89447714Y-45370477D01*
X89542952Y-45370477D02*
X89495333Y-45322858D01*
X89447714Y-45227620D01*
X89447714Y-45084762D01*
X89495333Y-44989524D01*
X89590571Y-44941905D01*
X90114381Y-44941905D01*
X89590571Y-44941905D02*
X89495333Y-44894286D01*
X89447714Y-44799048D01*
X89447714Y-44656191D01*
X89495333Y-44560953D01*
X89590571Y-44513334D01*
X90114381Y-44513334D01*
X89447714Y-44037144D02*
X90447714Y-44037144D01*
X89495333Y-44037144D02*
X89447714Y-43941906D01*
X89447714Y-43751429D01*
X89495333Y-43656191D01*
X89542952Y-43608572D01*
X89638190Y-43560953D01*
X89923905Y-43560953D01*
X90019143Y-43608572D01*
X90066762Y-43656191D01*
X90114381Y-43751429D01*
X90114381Y-43941906D01*
X90066762Y-44037144D01*
X89447714Y-42703810D02*
X90114381Y-42703810D01*
X89447714Y-43132382D02*
X89971524Y-43132382D01*
X90066762Y-43084763D01*
X90114381Y-42989525D01*
X90114381Y-42846667D01*
X90066762Y-42751429D01*
X90019143Y-42703810D01*
X90114381Y-42084763D02*
X90066762Y-42180001D01*
X89971524Y-42227620D01*
X89114381Y-42227620D01*
X90066762Y-41751429D02*
X90114381Y-41656191D01*
X90114381Y-41465715D01*
X90066762Y-41370476D01*
X89971524Y-41322857D01*
X89923905Y-41322857D01*
X89828667Y-41370476D01*
X89781048Y-41465715D01*
X89781048Y-41608572D01*
X89733429Y-41703810D01*
X89638190Y-41751429D01*
X89590571Y-41751429D01*
X89495333Y-41703810D01*
X89447714Y-41608572D01*
X89447714Y-41465715D01*
X89495333Y-41370476D01*
X90066762Y-40513333D02*
X90114381Y-40608571D01*
X90114381Y-40799048D01*
X90066762Y-40894286D01*
X89971524Y-40941905D01*
X89590571Y-40941905D01*
X89495333Y-40894286D01*
X89447714Y-40799048D01*
X89447714Y-40608571D01*
X89495333Y-40513333D01*
X89590571Y-40465714D01*
X89685810Y-40465714D01*
X89781048Y-40941905D01*
X79652762Y-46632382D02*
X79700381Y-46489525D01*
X79700381Y-46251429D01*
X79652762Y-46156191D01*
X79605143Y-46108572D01*
X79509905Y-46060953D01*
X79414667Y-46060953D01*
X79319429Y-46108572D01*
X79271810Y-46156191D01*
X79224190Y-46251429D01*
X79176571Y-46441906D01*
X79128952Y-46537144D01*
X79081333Y-46584763D01*
X78986095Y-46632382D01*
X78890857Y-46632382D01*
X78795619Y-46584763D01*
X78748000Y-46537144D01*
X78700381Y-46441906D01*
X78700381Y-46203810D01*
X78748000Y-46060953D01*
X79033714Y-45775239D02*
X79033714Y-45394287D01*
X78700381Y-45632382D02*
X79557524Y-45632382D01*
X79652762Y-45584763D01*
X79700381Y-45489525D01*
X79700381Y-45394287D01*
X79700381Y-44632381D02*
X79176571Y-44632381D01*
X79081333Y-44680000D01*
X79033714Y-44775238D01*
X79033714Y-44965715D01*
X79081333Y-45060953D01*
X79652762Y-44632381D02*
X79700381Y-44727619D01*
X79700381Y-44965715D01*
X79652762Y-45060953D01*
X79557524Y-45108572D01*
X79462286Y-45108572D01*
X79367048Y-45060953D01*
X79319429Y-44965715D01*
X79319429Y-44727619D01*
X79271810Y-44632381D01*
X79700381Y-44156191D02*
X79033714Y-44156191D01*
X79224190Y-44156191D02*
X79128952Y-44108572D01*
X79081333Y-44060953D01*
X79033714Y-43965715D01*
X79033714Y-43870476D01*
X79033714Y-43680000D02*
X79033714Y-43299048D01*
X78700381Y-43537143D02*
X79557524Y-43537143D01*
X79652762Y-43489524D01*
X79700381Y-43394286D01*
X79700381Y-43299048D01*
X79700381Y-42965714D02*
X79033714Y-42965714D01*
X79128952Y-42965714D02*
X79081333Y-42918095D01*
X79033714Y-42822857D01*
X79033714Y-42679999D01*
X79081333Y-42584761D01*
X79176571Y-42537142D01*
X79700381Y-42537142D01*
X79176571Y-42537142D02*
X79081333Y-42489523D01*
X79033714Y-42394285D01*
X79033714Y-42251428D01*
X79081333Y-42156190D01*
X79176571Y-42108571D01*
X79700381Y-42108571D01*
X79700381Y-41203809D02*
X79176571Y-41203809D01*
X79081333Y-41251428D01*
X79033714Y-41346666D01*
X79033714Y-41537143D01*
X79081333Y-41632381D01*
X79652762Y-41203809D02*
X79700381Y-41299047D01*
X79700381Y-41537143D01*
X79652762Y-41632381D01*
X79557524Y-41680000D01*
X79462286Y-41680000D01*
X79367048Y-41632381D01*
X79319429Y-41537143D01*
X79319429Y-41299047D01*
X79271810Y-41203809D01*
X79700381Y-40727619D02*
X79033714Y-40727619D01*
X79224190Y-40727619D02*
X79128952Y-40680000D01*
X79081333Y-40632381D01*
X79033714Y-40537143D01*
X79033714Y-40441904D01*
X79700381Y-40108571D02*
X78700381Y-40108571D01*
X79319429Y-40013333D02*
X79700381Y-39727618D01*
X79033714Y-39727618D02*
X79414667Y-40108571D01*
X158504000Y-72897904D02*
X158456381Y-72993142D01*
X158456381Y-73135999D01*
X158504000Y-73278857D01*
X158599238Y-73374095D01*
X158694476Y-73421714D01*
X158884952Y-73469333D01*
X159027810Y-73469333D01*
X159218286Y-73421714D01*
X159313524Y-73374095D01*
X159408762Y-73278857D01*
X159456381Y-73135999D01*
X159456381Y-73040761D01*
X159408762Y-72897904D01*
X159361143Y-72850285D01*
X159027810Y-72850285D01*
X159027810Y-73040761D01*
X159456381Y-72421714D02*
X158456381Y-72421714D01*
X159456381Y-71850285D01*
X158456381Y-71850285D01*
X159456381Y-71374095D02*
X158456381Y-71374095D01*
X158456381Y-71136000D01*
X158504000Y-70993142D01*
X158599238Y-70897904D01*
X158694476Y-70850285D01*
X158884952Y-70802666D01*
X159027810Y-70802666D01*
X159218286Y-70850285D01*
X159313524Y-70897904D01*
X159408762Y-70993142D01*
X159456381Y-71136000D01*
X159456381Y-71374095D01*
X159170667Y-82994000D02*
X159170667Y-82517809D01*
X159456381Y-83089238D02*
X158456381Y-82755905D01*
X159456381Y-82422571D01*
X158789714Y-81660666D02*
X159456381Y-81660666D01*
X158789714Y-82089238D02*
X159313524Y-82089238D01*
X159408762Y-82041619D01*
X159456381Y-81946381D01*
X159456381Y-81803523D01*
X159408762Y-81708285D01*
X159361143Y-81660666D01*
X159456381Y-80755904D02*
X158456381Y-80755904D01*
X159408762Y-80755904D02*
X159456381Y-80851142D01*
X159456381Y-81041619D01*
X159408762Y-81136857D01*
X159361143Y-81184476D01*
X159265905Y-81232095D01*
X158980190Y-81232095D01*
X158884952Y-81184476D01*
X158837333Y-81136857D01*
X158789714Y-81041619D01*
X158789714Y-80851142D01*
X158837333Y-80755904D01*
X159456381Y-80279714D02*
X158789714Y-80279714D01*
X158456381Y-80279714D02*
X158504000Y-80327333D01*
X158551619Y-80279714D01*
X158504000Y-80232095D01*
X158456381Y-80279714D01*
X158551619Y-80279714D01*
X159456381Y-79660667D02*
X159408762Y-79755905D01*
X159361143Y-79803524D01*
X159265905Y-79851143D01*
X158980190Y-79851143D01*
X158884952Y-79803524D01*
X158837333Y-79755905D01*
X158789714Y-79660667D01*
X158789714Y-79517809D01*
X158837333Y-79422571D01*
X158884952Y-79374952D01*
X158980190Y-79327333D01*
X159265905Y-79327333D01*
X159361143Y-79374952D01*
X159408762Y-79422571D01*
X159456381Y-79517809D01*
X159456381Y-79660667D01*
X159075429Y-78898762D02*
X159075429Y-78136857D01*
X158932571Y-77327333D02*
X158932571Y-77660667D01*
X159456381Y-77660667D02*
X158456381Y-77660667D01*
X158456381Y-77184476D01*
X158456381Y-76946381D02*
X158456381Y-76374952D01*
X159456381Y-76660667D02*
X158456381Y-76660667D01*
X159456381Y-76041619D02*
X158456381Y-76041619D01*
X158456381Y-75803524D01*
X158504000Y-75660666D01*
X158599238Y-75565428D01*
X158694476Y-75517809D01*
X158884952Y-75470190D01*
X159027810Y-75470190D01*
X159218286Y-75517809D01*
X159313524Y-75565428D01*
X159408762Y-75660666D01*
X159456381Y-75803524D01*
X159456381Y-76041619D01*
X159456381Y-75041619D02*
X158456381Y-75041619D01*
D11*
X119209715Y-105580571D02*
X119209715Y-104080571D01*
X119781143Y-104080571D01*
X119924001Y-104152000D01*
X119995429Y-104223429D01*
X120066858Y-104366286D01*
X120066858Y-104580571D01*
X119995429Y-104723429D01*
X119924001Y-104794857D01*
X119781143Y-104866286D01*
X119209715Y-104866286D01*
X120924001Y-105580571D02*
X120781143Y-105509143D01*
X120709715Y-105437714D01*
X120638286Y-105294857D01*
X120638286Y-104866286D01*
X120709715Y-104723429D01*
X120781143Y-104652000D01*
X120924001Y-104580571D01*
X121138286Y-104580571D01*
X121281143Y-104652000D01*
X121352572Y-104723429D01*
X121424001Y-104866286D01*
X121424001Y-105294857D01*
X121352572Y-105437714D01*
X121281143Y-105509143D01*
X121138286Y-105580571D01*
X120924001Y-105580571D01*
X121924001Y-104580571D02*
X122209715Y-105580571D01*
X122495429Y-104866286D01*
X122781144Y-105580571D01*
X123066858Y-104580571D01*
X124209715Y-105509143D02*
X124066858Y-105580571D01*
X123781144Y-105580571D01*
X123638287Y-105509143D01*
X123566858Y-105366286D01*
X123566858Y-104794857D01*
X123638287Y-104652000D01*
X123781144Y-104580571D01*
X124066858Y-104580571D01*
X124209715Y-104652000D01*
X124281144Y-104794857D01*
X124281144Y-104937714D01*
X123566858Y-105080571D01*
X124924001Y-105580571D02*
X124924001Y-104580571D01*
X124924001Y-104866286D02*
X124995429Y-104723429D01*
X125066858Y-104652000D01*
X125209715Y-104580571D01*
X125352572Y-104580571D01*
X146478858Y-105580571D02*
X145978858Y-104866286D01*
X145621715Y-105580571D02*
X145621715Y-104080571D01*
X146193143Y-104080571D01*
X146336001Y-104152000D01*
X146407429Y-104223429D01*
X146478858Y-104366286D01*
X146478858Y-104580571D01*
X146407429Y-104723429D01*
X146336001Y-104794857D01*
X146193143Y-104866286D01*
X145621715Y-104866286D01*
X147693143Y-105509143D02*
X147550286Y-105580571D01*
X147264572Y-105580571D01*
X147121715Y-105509143D01*
X147050286Y-105366286D01*
X147050286Y-104794857D01*
X147121715Y-104652000D01*
X147264572Y-104580571D01*
X147550286Y-104580571D01*
X147693143Y-104652000D01*
X147764572Y-104794857D01*
X147764572Y-104937714D01*
X147050286Y-105080571D01*
X148336000Y-105509143D02*
X148478857Y-105580571D01*
X148764572Y-105580571D01*
X148907429Y-105509143D01*
X148978857Y-105366286D01*
X148978857Y-105294857D01*
X148907429Y-105152000D01*
X148764572Y-105080571D01*
X148550286Y-105080571D01*
X148407429Y-105009143D01*
X148336000Y-104866286D01*
X148336000Y-104794857D01*
X148407429Y-104652000D01*
X148550286Y-104580571D01*
X148764572Y-104580571D01*
X148907429Y-104652000D01*
X150193143Y-105509143D02*
X150050286Y-105580571D01*
X149764572Y-105580571D01*
X149621715Y-105509143D01*
X149550286Y-105366286D01*
X149550286Y-104794857D01*
X149621715Y-104652000D01*
X149764572Y-104580571D01*
X150050286Y-104580571D01*
X150193143Y-104652000D01*
X150264572Y-104794857D01*
X150264572Y-104937714D01*
X149550286Y-105080571D01*
X150693143Y-104580571D02*
X151264572Y-104580571D01*
X150907429Y-104080571D02*
X150907429Y-105366286D01*
X150978857Y-105509143D01*
X151121715Y-105580571D01*
X151264572Y-105580571D01*
D13*
X150638000Y-95266000D02*
X146138000Y-95266000D01*
X151888000Y-99266000D02*
X151888000Y-97766000D01*
X146138000Y-101766000D02*
X150638000Y-101766000D01*
X144888000Y-97766000D02*
X144888000Y-99266000D01*
X81542000Y-61810000D02*
X82542000Y-61810000D01*
X82542000Y-60110000D02*
X81542000Y-60110000D01*
X130940000Y-100611000D02*
X129940000Y-100611000D01*
X129940000Y-102311000D02*
X130940000Y-102311000D01*
X136366000Y-103471000D02*
X135366000Y-103471000D01*
X135366000Y-105171000D02*
X136366000Y-105171000D01*
X107784000Y-49522000D02*
X107784000Y-48522000D01*
X106084000Y-48522000D02*
X106084000Y-49522000D01*
X104651000Y-98588000D02*
X105651000Y-98588000D01*
X105651000Y-96888000D02*
X104651000Y-96888000D01*
X140576000Y-105171000D02*
X141576000Y-105171000D01*
X141576000Y-103471000D02*
X140576000Y-103471000D01*
X104910000Y-60794000D02*
X105910000Y-60794000D01*
X105910000Y-59094000D02*
X104910000Y-59094000D01*
X104890000Y-56984000D02*
X105890000Y-56984000D01*
X105890000Y-55284000D02*
X104890000Y-55284000D01*
X130946000Y-103461000D02*
X129946000Y-103461000D01*
X129946000Y-105161000D02*
X130946000Y-105161000D01*
X123024000Y-90777000D02*
X123024000Y-89777000D01*
X121324000Y-89777000D02*
X121324000Y-90777000D01*
X126326000Y-90765000D02*
X126326000Y-89765000D01*
X124626000Y-89765000D02*
X124626000Y-90765000D01*
X126326000Y-84447000D02*
X126326000Y-83447000D01*
X124626000Y-83447000D02*
X124626000Y-84447000D01*
D14*
X157476000Y-54487000D02*
X157076000Y-54487000D01*
X158246000Y-49907000D02*
X157076000Y-49907000D01*
X153666000Y-49907000D02*
X154836000Y-49907000D01*
X154436000Y-54487000D02*
X154836000Y-54487000D01*
X158246000Y-53717000D02*
X158246000Y-49907000D01*
X158246000Y-53717000D02*
X157476000Y-54487000D01*
X153666000Y-53717000D02*
X153666000Y-49907000D01*
X153666000Y-53717000D02*
X154436000Y-54487000D01*
D13*
X119976000Y-84447000D02*
X119976000Y-83447000D01*
X118276000Y-83447000D02*
X118276000Y-84447000D01*
X154266000Y-64889000D02*
X154266000Y-63889000D01*
X152566000Y-63889000D02*
X152566000Y-64889000D01*
X130136000Y-86098000D02*
X130136000Y-85098000D01*
X128436000Y-85098000D02*
X128436000Y-86098000D01*
X126834000Y-54221000D02*
X126834000Y-53221000D01*
X125134000Y-53221000D02*
X125134000Y-54221000D01*
X123024000Y-84467000D02*
X123024000Y-83467000D01*
X121324000Y-83467000D02*
X121324000Y-84467000D01*
X129628000Y-54221000D02*
X129628000Y-53221000D01*
X127928000Y-53221000D02*
X127928000Y-54221000D01*
X155456000Y-47459000D02*
X156456000Y-47459000D01*
X156456000Y-45759000D02*
X155456000Y-45759000D01*
X121246000Y-54221000D02*
X121246000Y-53221000D01*
X119546000Y-53221000D02*
X119546000Y-54221000D01*
X114212000Y-76208000D02*
X114212000Y-77208000D01*
X115912000Y-77208000D02*
X115912000Y-76208000D01*
D14*
X114804000Y-62361000D02*
X114404000Y-62361000D01*
X115574000Y-57781000D02*
X114404000Y-57781000D01*
X110994000Y-57781000D02*
X112164000Y-57781000D01*
X111764000Y-62361000D02*
X112164000Y-62361000D01*
X115574000Y-61591000D02*
X115574000Y-57781000D01*
X115574000Y-61591000D02*
X114804000Y-62361000D01*
X110994000Y-61591000D02*
X110994000Y-57781000D01*
X110994000Y-61591000D02*
X111764000Y-62361000D01*
D13*
X116752000Y-53221000D02*
X116752000Y-54221000D01*
X118452000Y-54221000D02*
X118452000Y-53221000D01*
X130722000Y-53221000D02*
X130722000Y-54221000D01*
X132422000Y-54221000D02*
X132422000Y-53221000D01*
X126834000Y-60317000D02*
X126834000Y-59317000D01*
X125134000Y-59317000D02*
X125134000Y-60317000D01*
X133088000Y-63539000D02*
X132088000Y-63539000D01*
X132088000Y-65239000D02*
X133088000Y-65239000D01*
X86368000Y-77304000D02*
X87368000Y-77304000D01*
X87368000Y-75604000D02*
X86368000Y-75604000D01*
X135216000Y-60317000D02*
X135216000Y-59317000D01*
X133516000Y-59317000D02*
X133516000Y-60317000D01*
X75700000Y-68668000D02*
X76700000Y-68668000D01*
X76700000Y-66968000D02*
X75700000Y-66968000D01*
D14*
X113788000Y-71505000D02*
X113388000Y-71505000D01*
X114558000Y-66925000D02*
X113388000Y-66925000D01*
X109978000Y-66925000D02*
X111148000Y-66925000D01*
X110748000Y-71505000D02*
X111148000Y-71505000D01*
X114558000Y-70735000D02*
X114558000Y-66925000D01*
X114558000Y-70735000D02*
X113788000Y-71505000D01*
X109978000Y-70735000D02*
X109978000Y-66925000D01*
X109978000Y-70735000D02*
X110748000Y-71505000D01*
D13*
X115482000Y-65921000D02*
X115482000Y-66921000D01*
X117182000Y-66921000D02*
X117182000Y-65921000D01*
X127516000Y-77431000D02*
X128516000Y-77431000D01*
X128516000Y-75731000D02*
X127516000Y-75731000D01*
X131484000Y-68207000D02*
X131484000Y-69207000D01*
X133184000Y-69207000D02*
X133184000Y-68207000D01*
D14*
X116836000Y-43557000D02*
X116836000Y-43157000D01*
X121416000Y-44327000D02*
X121416000Y-43157000D01*
X121416000Y-39747000D02*
X121416000Y-40917000D01*
X116836000Y-40517000D02*
X116836000Y-40917000D01*
X117606000Y-44327000D02*
X121416000Y-44327000D01*
X117606000Y-44327000D02*
X116836000Y-43557000D01*
X117606000Y-39747000D02*
X121416000Y-39747000D01*
X117606000Y-39747000D02*
X116836000Y-40517000D01*
X116836000Y-49145000D02*
X116836000Y-48745000D01*
X121416000Y-49915000D02*
X121416000Y-48745000D01*
X121416000Y-45335000D02*
X121416000Y-46505000D01*
X116836000Y-46105000D02*
X116836000Y-46505000D01*
X117606000Y-49915000D02*
X121416000Y-49915000D01*
X117606000Y-49915000D02*
X116836000Y-49145000D01*
X117606000Y-45335000D02*
X121416000Y-45335000D01*
X117606000Y-45335000D02*
X116836000Y-46105000D01*
D13*
X115482000Y-71001000D02*
X115482000Y-72001000D01*
X117182000Y-72001000D02*
X117182000Y-71001000D01*
X122340000Y-59317000D02*
X122340000Y-60317000D01*
X124040000Y-60317000D02*
X124040000Y-59317000D01*
X142674000Y-70345000D02*
X143674000Y-70345000D01*
X143674000Y-68645000D02*
X142674000Y-68645000D01*
D14*
X113504000Y-81335000D02*
X113904000Y-81335000D01*
X112734000Y-85915000D02*
X113904000Y-85915000D01*
X117314000Y-85915000D02*
X116144000Y-85915000D01*
X116544000Y-81335000D02*
X116144000Y-81335000D01*
X112734000Y-82105000D02*
X112734000Y-85915000D01*
X112734000Y-82105000D02*
X113504000Y-81335000D01*
X117314000Y-82105000D02*
X117314000Y-85915000D01*
X117314000Y-82105000D02*
X116544000Y-81335000D01*
D13*
X146530000Y-90905000D02*
X146530000Y-91905000D01*
X148230000Y-91905000D02*
X148230000Y-90905000D01*
X151102000Y-90925000D02*
X151102000Y-91925000D01*
X152802000Y-91925000D02*
X152802000Y-90925000D01*
X142328000Y-96766000D02*
X142328000Y-95766000D01*
X140628000Y-95766000D02*
X140628000Y-96766000D01*
D14*
X111250000Y-91750000D02*
X111250000Y-90820000D01*
X111250000Y-88590000D02*
X111250000Y-89520000D01*
X111250000Y-88590000D02*
X109090000Y-88590000D01*
X111250000Y-91750000D02*
X109790000Y-91750000D01*
X96786000Y-43926000D02*
X96786000Y-40726000D01*
X98286000Y-40726000D02*
X98286000Y-43926000D01*
X98286000Y-40726000D02*
X96786000Y-40726000D01*
D13*
X115670000Y-105890000D02*
X115670000Y-99890000D01*
X115670000Y-99890000D02*
X110390000Y-99890000D01*
X110390000Y-99890000D02*
X110390000Y-105890000D01*
X110390000Y-105890000D02*
X115670000Y-105890000D01*
X114300000Y-99890000D02*
X114300000Y-100890000D01*
X114300000Y-100890000D02*
X111760000Y-100890000D01*
X111760000Y-100890000D02*
X111760000Y-99890000D01*
X114300000Y-100890000D02*
X114050000Y-101320000D01*
X114050000Y-101320000D02*
X112010000Y-101320000D01*
X112010000Y-101320000D02*
X111760000Y-100890000D01*
X114050000Y-99890000D02*
X114050000Y-100890000D01*
X112010000Y-99890000D02*
X112010000Y-100890000D01*
X115100000Y-105890000D02*
X115100000Y-105270000D01*
X115100000Y-105270000D02*
X113500000Y-105270000D01*
X113500000Y-105270000D02*
X113500000Y-105890000D01*
X112560000Y-105890000D02*
X112560000Y-105270000D01*
X112560000Y-105270000D02*
X110960000Y-105270000D01*
X110960000Y-105270000D02*
X110960000Y-105890000D01*
X123286000Y-50125000D02*
X123286000Y-39125000D01*
X135286000Y-50125000D02*
X123286000Y-50125000D01*
X135286000Y-39125000D02*
X135286000Y-50125000D01*
X131286000Y-39325000D02*
X131286000Y-39025000D01*
X127286000Y-39325000D02*
X127286000Y-39025000D01*
X131286000Y-39325000D02*
X127286000Y-39325000D01*
X127286000Y-38125000D02*
X124886000Y-38125000D01*
X127286000Y-39125000D02*
X127286000Y-38125000D01*
X131286000Y-38125000D02*
X133786000Y-38125000D01*
X131286000Y-39125000D02*
X131286000Y-38125000D01*
X124786000Y-39125000D02*
X123286000Y-39125000D01*
X124786000Y-38125000D02*
X124786000Y-39125000D01*
X133786000Y-39125000D02*
X135286000Y-39125000D01*
X133786000Y-38125000D02*
X133786000Y-39125000D01*
D15*
X140246000Y-38569000D02*
X140246000Y-38069000D01*
X140246000Y-38069000D02*
X140746000Y-38069000D01*
X140746000Y-38069000D02*
X150746000Y-38069000D01*
X150746000Y-38069000D02*
X151246000Y-38069000D01*
X151246000Y-38069000D02*
X151246000Y-38569000D01*
X140246000Y-37769000D02*
X140246000Y-37269000D01*
X140246000Y-37269000D02*
X140746000Y-37269000D01*
X140746000Y-37269000D02*
X150746000Y-37269000D01*
X150746000Y-37269000D02*
X151246000Y-37269000D01*
X151246000Y-37269000D02*
X151246000Y-37769000D01*
X151246000Y-38869000D02*
X140246000Y-38869000D01*
X140746000Y-33269000D02*
X150746000Y-33269000D01*
X140246000Y-38869000D02*
X140246000Y-38569000D01*
X140246000Y-38569000D02*
G75*
G02X140746000Y-38069000I500000J0D01*
G01*
X140246000Y-38069000D02*
X140246000Y-37769000D01*
X140246000Y-37769000D02*
G75*
G02X140746000Y-37269000I500000J0D01*
G01*
X140246000Y-37269000D02*
X140246000Y-33769000D01*
X140246000Y-33769000D02*
G75*
G02X140746000Y-33269000I500000J0D01*
G01*
X151246000Y-38869000D02*
X151246000Y-38569000D01*
X151246000Y-38569000D02*
G75*
G03X150746000Y-38069000I-500000J0D01*
G01*
X151246000Y-38069000D02*
X151246000Y-37769000D01*
X151246000Y-37769000D02*
G75*
G03X150746000Y-37269000I-500000J0D01*
G01*
X151246000Y-37269000D02*
X151246000Y-33769000D01*
X151246000Y-33769000D02*
G75*
G03X150746000Y-33269000I-500000J0D01*
G01*
X151796000Y-54819000D02*
X152246000Y-54819000D01*
X152246000Y-54819000D02*
X152246000Y-54269000D01*
X140246000Y-54819000D02*
X138396000Y-54819000D01*
X138396000Y-54819000D02*
X138396000Y-40669000D01*
D13*
X134077000Y-100373000D02*
X134127000Y-100373000D01*
X134077000Y-96223000D02*
X134222000Y-96223000D01*
X139227000Y-96223000D02*
X139082000Y-96223000D01*
X139227000Y-100373000D02*
X139082000Y-100373000D01*
X134077000Y-100373000D02*
X134077000Y-96223000D01*
X139227000Y-100373000D02*
X139227000Y-96223000D01*
X134127000Y-100373000D02*
X134127000Y-101773000D01*
D14*
X76960000Y-65842000D02*
X76960000Y-64912000D01*
X76960000Y-62682000D02*
X76960000Y-63612000D01*
X76960000Y-62682000D02*
X73800000Y-62682000D01*
X76960000Y-65842000D02*
X75500000Y-65842000D01*
D13*
X157085000Y-58455000D02*
X157085000Y-59655000D01*
X155335000Y-59655000D02*
X155335000Y-58455000D01*
X104576000Y-93613000D02*
X105776000Y-93613000D01*
X105776000Y-95363000D02*
X104576000Y-95363000D01*
X157085000Y-63789000D02*
X157085000Y-64989000D01*
X155335000Y-64989000D02*
X155335000Y-63789000D01*
X137809000Y-69053000D02*
X137809000Y-67853000D01*
X139559000Y-67853000D02*
X139559000Y-69053000D01*
X137047000Y-59020000D02*
X137047000Y-57820000D01*
X138797000Y-57820000D02*
X138797000Y-59020000D01*
X104451000Y-100713000D02*
X105651000Y-100713000D01*
X105651000Y-102463000D02*
X104451000Y-102463000D01*
X128389000Y-91575000D02*
X128389000Y-90375000D01*
X130139000Y-90375000D02*
X130139000Y-91575000D01*
X82458000Y-79897000D02*
X83658000Y-79897000D01*
X83658000Y-81647000D02*
X82458000Y-81647000D01*
X114187000Y-90770000D02*
X114187000Y-89570000D01*
X115937000Y-89570000D02*
X115937000Y-90770000D01*
X117997000Y-90897000D02*
X117997000Y-89697000D01*
X119747000Y-89697000D02*
X119747000Y-90897000D01*
X98136000Y-81647000D02*
X96936000Y-81647000D01*
X96936000Y-79897000D02*
X98136000Y-79897000D01*
X102729000Y-49946000D02*
X102729000Y-51146000D01*
X100979000Y-51146000D02*
X100979000Y-49946000D01*
X152541000Y-59655000D02*
X152541000Y-58455000D01*
X154291000Y-58455000D02*
X154291000Y-59655000D01*
X122315000Y-54321000D02*
X122315000Y-53121000D01*
X124065000Y-53121000D02*
X124065000Y-54321000D01*
X120050000Y-79008000D02*
X121250000Y-79008000D01*
X121250000Y-80758000D02*
X120050000Y-80758000D01*
X127903000Y-60417000D02*
X127903000Y-59217000D01*
X129653000Y-59217000D02*
X129653000Y-60417000D01*
X119521000Y-60417000D02*
X119521000Y-59217000D01*
X121271000Y-59217000D02*
X121271000Y-60417000D01*
X76800000Y-61327000D02*
X75600000Y-61327000D01*
X75600000Y-59577000D02*
X76800000Y-59577000D01*
X131459000Y-74387000D02*
X131459000Y-73187000D01*
X133209000Y-73187000D02*
X133209000Y-74387000D01*
X118477000Y-59217000D02*
X118477000Y-60417000D01*
X116727000Y-60417000D02*
X116727000Y-59217000D01*
X132447000Y-59217000D02*
X132447000Y-60417000D01*
X130697000Y-60417000D02*
X130697000Y-59217000D01*
X81442000Y-63387000D02*
X82642000Y-63387000D01*
X82642000Y-65137000D02*
X81442000Y-65137000D01*
X113933000Y-54321000D02*
X113933000Y-53121000D01*
X115683000Y-53121000D02*
X115683000Y-54321000D01*
X111139000Y-54321000D02*
X111139000Y-53121000D01*
X112889000Y-53121000D02*
X112889000Y-54321000D01*
X81442000Y-66943000D02*
X82642000Y-66943000D01*
X82642000Y-68693000D02*
X81442000Y-68693000D01*
X133491000Y-54321000D02*
X133491000Y-53121000D01*
X135241000Y-53121000D02*
X135241000Y-54321000D01*
X134507000Y-69133000D02*
X134507000Y-67933000D01*
X136257000Y-67933000D02*
X136257000Y-69133000D01*
X114667000Y-41437000D02*
X114667000Y-42637000D01*
X112917000Y-42637000D02*
X112917000Y-41437000D01*
X111873000Y-41437000D02*
X111873000Y-42637000D01*
X110123000Y-42637000D02*
X110123000Y-41437000D01*
X98644000Y-73011000D02*
X97444000Y-73011000D01*
X97444000Y-71261000D02*
X98644000Y-71261000D01*
X79869000Y-117256000D02*
X79869000Y-118456000D01*
X78119000Y-118456000D02*
X78119000Y-117256000D01*
X89521000Y-117256000D02*
X89521000Y-118456000D01*
X87771000Y-118456000D02*
X87771000Y-117256000D01*
X99173000Y-117256000D02*
X99173000Y-118456000D01*
X97423000Y-118456000D02*
X97423000Y-117256000D01*
X103519000Y-118456000D02*
X103519000Y-117256000D01*
X105269000Y-117256000D02*
X105269000Y-118456000D01*
X137680000Y-75424000D02*
X136480000Y-75424000D01*
X136480000Y-73674000D02*
X137680000Y-73674000D01*
X137760000Y-78472000D02*
X136560000Y-78472000D01*
X136560000Y-76722000D02*
X137760000Y-76722000D01*
X137760000Y-81774000D02*
X136560000Y-81774000D01*
X136560000Y-80024000D02*
X137760000Y-80024000D01*
X120126000Y-101766000D02*
X124626000Y-101766000D01*
X118876000Y-97766000D02*
X118876000Y-99266000D01*
X124626000Y-95266000D02*
X120126000Y-95266000D01*
X125876000Y-99266000D02*
X125876000Y-97766000D01*
X84678000Y-88088000D02*
X87478000Y-88088000D01*
X96678000Y-88088000D02*
X93878000Y-88088000D01*
X92078000Y-100888000D02*
X89278000Y-100888000D01*
X84678000Y-100888000D02*
X87078000Y-100888000D01*
X96678000Y-100888000D02*
X94278000Y-100888000D01*
X84678000Y-88088000D02*
X84678000Y-92488000D01*
X84678000Y-100888000D02*
X84678000Y-96488000D01*
X96678000Y-88088000D02*
X96678000Y-92488000D01*
X96678000Y-100888000D02*
X96678000Y-96488000D01*
D10*
X93678000Y-94488000D02*
G75*
G03X93678000Y-94488000I-3000000J0D01*
G01*
X92928000Y-94488000D02*
G75*
G03X92928000Y-94488000I-2250000J0D01*
G01*
D14*
X129796000Y-94533000D02*
X129796000Y-95463000D01*
X129796000Y-97693000D02*
X129796000Y-96763000D01*
X129796000Y-97693000D02*
X131956000Y-97693000D01*
X129796000Y-94533000D02*
X131256000Y-94533000D01*
D13*
X95065000Y-65093000D02*
X95065000Y-64868000D01*
X87815000Y-65093000D02*
X87815000Y-64768000D01*
X87815000Y-57843000D02*
X87815000Y-58168000D01*
X95065000Y-57843000D02*
X95065000Y-58168000D01*
X95065000Y-65093000D02*
X94740000Y-65093000D01*
X95065000Y-57843000D02*
X94740000Y-57843000D01*
X87815000Y-57843000D02*
X88140000Y-57843000D01*
X87815000Y-65093000D02*
X88140000Y-65093000D01*
X95065000Y-64868000D02*
X96490000Y-64868000D01*
X150617000Y-60028000D02*
X150592000Y-60028000D01*
X150617000Y-64178000D02*
X150512000Y-64178000D01*
X140467000Y-64178000D02*
X140572000Y-64178000D01*
X140467000Y-60028000D02*
X140572000Y-60028000D01*
X150617000Y-60028000D02*
X150617000Y-64178000D01*
X140467000Y-60028000D02*
X140467000Y-64178000D01*
X150592000Y-60028000D02*
X150592000Y-58653000D01*
X130878000Y-82211000D02*
X129278000Y-82211000D01*
X130878000Y-79111000D02*
X130878000Y-82211000D01*
X129278000Y-79111000D02*
X130878000Y-79111000D01*
X129278000Y-82211000D02*
X129278000Y-79111000D01*
X83444000Y-71077000D02*
X83419000Y-71077000D01*
X83444000Y-75227000D02*
X83329000Y-75227000D01*
X74544000Y-75227000D02*
X74659000Y-75227000D01*
X74544000Y-71077000D02*
X74659000Y-71077000D01*
X83444000Y-71077000D02*
X83444000Y-75227000D01*
X74544000Y-71077000D02*
X74544000Y-75227000D01*
X83419000Y-71077000D02*
X83419000Y-69702000D01*
X120835000Y-65082000D02*
X120835000Y-65532000D01*
X128085000Y-65082000D02*
X128085000Y-65607000D01*
X128085000Y-72332000D02*
X128085000Y-71807000D01*
X120835000Y-72332000D02*
X120835000Y-71807000D01*
X120835000Y-65082000D02*
X121360000Y-65082000D01*
X120835000Y-72332000D02*
X121360000Y-72332000D01*
X128085000Y-72332000D02*
X127560000Y-72332000D01*
X128085000Y-65082000D02*
X127560000Y-65082000D01*
X120835000Y-65532000D02*
X119460000Y-65532000D01*
D14*
X111368000Y-49743000D02*
X113168000Y-49743000D01*
X113168000Y-46523000D02*
X110218000Y-46523000D01*
D13*
X81042000Y-113284000D02*
X83042000Y-113284000D01*
X80542000Y-114784000D02*
X80542000Y-111284000D01*
X81042000Y-115284000D02*
X80542000Y-114784000D01*
X83492000Y-115284000D02*
X81042000Y-115284000D01*
X83542000Y-111284000D02*
X83492000Y-115284000D01*
X80542000Y-111284000D02*
X83542000Y-111284000D01*
X142425000Y-80714000D02*
X142650000Y-80714000D01*
X142425000Y-73464000D02*
X142750000Y-73464000D01*
X149675000Y-73464000D02*
X149350000Y-73464000D01*
X149675000Y-80714000D02*
X149350000Y-80714000D01*
X142425000Y-80714000D02*
X142425000Y-80389000D01*
X149675000Y-80714000D02*
X149675000Y-80389000D01*
X149675000Y-73464000D02*
X149675000Y-73789000D01*
X142425000Y-73464000D02*
X142425000Y-73789000D01*
X142650000Y-80714000D02*
X142650000Y-82139000D01*
X100314000Y-113268000D02*
X102314000Y-113268000D01*
X99814000Y-114768000D02*
X99814000Y-111268000D01*
X100314000Y-115268000D02*
X99814000Y-114768000D01*
X102764000Y-115268000D02*
X100314000Y-115268000D01*
X102814000Y-111268000D02*
X102764000Y-115268000D01*
X99814000Y-111268000D02*
X102814000Y-111268000D01*
D14*
X73854000Y-99120000D02*
X76514000Y-99120000D01*
X73854000Y-86360000D02*
X73854000Y-99120000D01*
X76514000Y-86360000D02*
X76514000Y-99120000D01*
X73854000Y-86360000D02*
X76514000Y-86360000D01*
X73854000Y-85090000D02*
X73854000Y-83760000D01*
X73854000Y-83760000D02*
X75184000Y-83760000D01*
X107502000Y-45780000D02*
X107502000Y-40580000D01*
X102362000Y-45780000D02*
X107502000Y-45780000D01*
X99762000Y-40580000D02*
X107502000Y-40580000D01*
X102362000Y-45780000D02*
X102362000Y-43180000D01*
X102362000Y-43180000D02*
X99762000Y-43180000D01*
X99762000Y-43180000D02*
X99762000Y-40580000D01*
X101092000Y-45780000D02*
X99762000Y-45780000D01*
X99762000Y-45780000D02*
X99762000Y-44450000D01*
X155194000Y-83355000D02*
X157854000Y-83355000D01*
X155194000Y-70595000D02*
X155194000Y-83355000D01*
X157854000Y-70595000D02*
X157854000Y-83355000D01*
X155194000Y-70595000D02*
X157854000Y-70595000D01*
X155194000Y-69325000D02*
X155194000Y-67995000D01*
X155194000Y-67995000D02*
X156524000Y-67995000D01*
D13*
X101676000Y-60616000D02*
X98476000Y-60616000D01*
X101676000Y-55616000D02*
X101676000Y-60616000D01*
X98476000Y-55616000D02*
X101676000Y-55616000D01*
X98476000Y-60616000D02*
X98476000Y-55616000D01*
X123100000Y-75235000D02*
X123100000Y-78435000D01*
X118100000Y-75235000D02*
X123100000Y-75235000D01*
X118100000Y-78435000D02*
X118100000Y-75235000D01*
X123100000Y-78435000D02*
X118100000Y-78435000D01*
X147192000Y-88341000D02*
X147192000Y-85141000D01*
X152192000Y-88341000D02*
X147192000Y-88341000D01*
X152192000Y-85141000D02*
X152192000Y-88341000D01*
X147192000Y-85141000D02*
X152192000Y-85141000D01*
D14*
X141164000Y-90738000D02*
X143824000Y-90738000D01*
X141164000Y-88138000D02*
X141164000Y-90738000D01*
X143824000Y-88138000D02*
X143824000Y-90738000D01*
X141164000Y-88138000D02*
X143824000Y-88138000D01*
X141164000Y-86868000D02*
X141164000Y-85538000D01*
X141164000Y-85538000D02*
X142494000Y-85538000D01*
X133798000Y-92262000D02*
X138998000Y-92262000D01*
X133798000Y-87122000D02*
X133798000Y-92262000D01*
X138998000Y-84522000D02*
X138998000Y-92262000D01*
X133798000Y-87122000D02*
X136398000Y-87122000D01*
X136398000Y-87122000D02*
X136398000Y-84522000D01*
X136398000Y-84522000D02*
X138998000Y-84522000D01*
X133798000Y-85852000D02*
X133798000Y-84522000D01*
X133798000Y-84522000D02*
X135128000Y-84522000D01*
D13*
X107274000Y-51564000D02*
G75*
G03X107274000Y-51564000I-1500000J0D01*
G01*
X97274000Y-78564000D02*
X97274000Y-82514000D01*
X83774000Y-78564000D02*
X97274000Y-78564000D01*
X83774000Y-82564000D02*
X83774000Y-78564000D01*
X72774000Y-82564000D02*
X83774000Y-82564000D01*
X72774000Y-79514000D02*
X72774000Y-82564000D01*
X108274000Y-79564000D02*
X108274000Y-82564000D01*
X108274000Y-49064000D02*
X105774000Y-49064000D01*
X108284000Y-79544000D02*
X108284000Y-71924000D01*
X72764000Y-71924000D02*
X72764000Y-79544000D01*
X72764000Y-71924000D02*
X72764000Y-49064000D01*
X108284000Y-70654000D02*
X108284000Y-71924000D01*
X108284000Y-49064000D02*
X108284000Y-70654000D01*
X72764000Y-49064000D02*
X105784000Y-49064000D01*
X97274000Y-82564000D02*
X108274000Y-82564000D01*
X76774000Y-51564000D02*
G75*
G03X76774000Y-51564000I-1500000J0D01*
G01*
X76774000Y-80064000D02*
G75*
G03X76774000Y-80064000I-1500000J0D01*
G01*
X107274000Y-80064000D02*
G75*
G03X107274000Y-80064000I-1500000J0D01*
G01*
D14*
X85912000Y-111058000D02*
X85912000Y-108398000D01*
X80772000Y-111058000D02*
X85912000Y-111058000D01*
X80772000Y-108398000D02*
X85912000Y-108398000D01*
X80772000Y-111058000D02*
X80772000Y-108398000D01*
X79502000Y-111058000D02*
X78172000Y-111058000D01*
X78172000Y-111058000D02*
X78172000Y-109728000D01*
X95564000Y-111058000D02*
X95564000Y-108398000D01*
X90424000Y-111058000D02*
X95564000Y-111058000D01*
X90424000Y-108398000D02*
X95564000Y-108398000D01*
X90424000Y-111058000D02*
X90424000Y-108398000D01*
X89154000Y-111058000D02*
X87824000Y-111058000D01*
X87824000Y-111058000D02*
X87824000Y-109728000D01*
X105216000Y-111058000D02*
X105216000Y-108398000D01*
X100076000Y-111058000D02*
X105216000Y-111058000D01*
X100076000Y-108398000D02*
X105216000Y-108398000D01*
X100076000Y-111058000D02*
X100076000Y-108398000D01*
X98806000Y-111058000D02*
X97476000Y-111058000D01*
X97476000Y-111058000D02*
X97476000Y-109728000D01*
X114868000Y-111058000D02*
X114868000Y-108398000D01*
X109728000Y-111058000D02*
X114868000Y-111058000D01*
X109728000Y-108398000D02*
X114868000Y-108398000D01*
X109728000Y-111058000D02*
X109728000Y-108398000D01*
X108458000Y-111058000D02*
X107128000Y-111058000D01*
X107128000Y-111058000D02*
X107128000Y-109728000D01*
X124520000Y-111058000D02*
X124520000Y-108398000D01*
X119380000Y-111058000D02*
X124520000Y-111058000D01*
X119380000Y-108398000D02*
X124520000Y-108398000D01*
X119380000Y-111058000D02*
X119380000Y-108398000D01*
X118110000Y-111058000D02*
X116780000Y-111058000D01*
X116780000Y-111058000D02*
X116780000Y-109728000D01*
X134172000Y-111058000D02*
X134172000Y-108398000D01*
X129032000Y-111058000D02*
X134172000Y-111058000D01*
X129032000Y-108398000D02*
X134172000Y-108398000D01*
X129032000Y-111058000D02*
X129032000Y-108398000D01*
X127762000Y-111058000D02*
X126432000Y-111058000D01*
X126432000Y-111058000D02*
X126432000Y-109728000D01*
X143824000Y-111058000D02*
X143824000Y-108398000D01*
X138684000Y-111058000D02*
X143824000Y-111058000D01*
X138684000Y-108398000D02*
X143824000Y-108398000D01*
X138684000Y-111058000D02*
X138684000Y-108398000D01*
X137414000Y-111058000D02*
X136084000Y-111058000D01*
X136084000Y-111058000D02*
X136084000Y-109728000D01*
X153476000Y-111058000D02*
X153476000Y-108398000D01*
X148336000Y-111058000D02*
X153476000Y-111058000D01*
X148336000Y-108398000D02*
X153476000Y-108398000D01*
X148336000Y-111058000D02*
X148336000Y-108398000D01*
X147066000Y-111058000D02*
X145736000Y-111058000D01*
X145736000Y-111058000D02*
X145736000Y-109728000D01*
X84210000Y-118456000D02*
X84210000Y-117256000D01*
X85970000Y-117256000D02*
X85970000Y-118456000D01*
X93862000Y-118456000D02*
X93862000Y-117256000D01*
X95622000Y-117256000D02*
X95622000Y-118456000D01*
X108830000Y-117256000D02*
X108830000Y-118456000D01*
X107070000Y-118456000D02*
X107070000Y-117256000D01*
X113166000Y-118456000D02*
X113166000Y-117256000D01*
X114926000Y-117256000D02*
X114926000Y-118456000D01*
X118482000Y-117256000D02*
X118482000Y-118456000D01*
X116722000Y-118456000D02*
X116722000Y-117256000D01*
X128134000Y-117256000D02*
X128134000Y-118456000D01*
X126374000Y-118456000D02*
X126374000Y-117256000D01*
X122818000Y-118456000D02*
X122818000Y-117256000D01*
X124578000Y-117256000D02*
X124578000Y-118456000D01*
X132470000Y-118456000D02*
X132470000Y-117256000D01*
X134230000Y-117256000D02*
X134230000Y-118456000D01*
X137786000Y-117256000D02*
X137786000Y-118456000D01*
X136026000Y-118456000D02*
X136026000Y-117256000D01*
X142122000Y-118456000D02*
X142122000Y-117256000D01*
X143882000Y-117256000D02*
X143882000Y-118456000D01*
X147438000Y-117256000D02*
X147438000Y-118456000D01*
X145678000Y-118456000D02*
X145678000Y-117256000D01*
X151774000Y-118376000D02*
X151774000Y-117176000D01*
X153534000Y-117176000D02*
X153534000Y-118376000D01*
D13*
X90662000Y-113268000D02*
X92662000Y-113268000D01*
X90162000Y-114768000D02*
X90162000Y-111268000D01*
X90662000Y-115268000D02*
X90162000Y-114768000D01*
X93112000Y-115268000D02*
X90662000Y-115268000D01*
X93162000Y-111268000D02*
X93112000Y-115268000D01*
X90162000Y-111268000D02*
X93162000Y-111268000D01*
X109966000Y-113268000D02*
X111966000Y-113268000D01*
X109466000Y-114768000D02*
X109466000Y-111268000D01*
X109966000Y-115268000D02*
X109466000Y-114768000D01*
X112416000Y-115268000D02*
X109966000Y-115268000D01*
X112466000Y-111268000D02*
X112416000Y-115268000D01*
X109466000Y-111268000D02*
X112466000Y-111268000D01*
X119618000Y-113268000D02*
X121618000Y-113268000D01*
X119118000Y-114768000D02*
X119118000Y-111268000D01*
X119618000Y-115268000D02*
X119118000Y-114768000D01*
X122068000Y-115268000D02*
X119618000Y-115268000D01*
X122118000Y-111268000D02*
X122068000Y-115268000D01*
X119118000Y-111268000D02*
X122118000Y-111268000D01*
X129302000Y-113268000D02*
X131302000Y-113268000D01*
X128802000Y-114768000D02*
X128802000Y-111268000D01*
X129302000Y-115268000D02*
X128802000Y-114768000D01*
X131752000Y-115268000D02*
X129302000Y-115268000D01*
X131802000Y-111268000D02*
X131752000Y-115268000D01*
X128802000Y-111268000D02*
X131802000Y-111268000D01*
X138922000Y-113268000D02*
X140922000Y-113268000D01*
X138422000Y-114768000D02*
X138422000Y-111268000D01*
X138922000Y-115268000D02*
X138422000Y-114768000D01*
X141372000Y-115268000D02*
X138922000Y-115268000D01*
X141422000Y-111268000D02*
X141372000Y-115268000D01*
X138422000Y-111268000D02*
X141422000Y-111268000D01*
X148574000Y-113268000D02*
X150574000Y-113268000D01*
X148074000Y-114768000D02*
X148074000Y-111268000D01*
X148574000Y-115268000D02*
X148074000Y-114768000D01*
X151024000Y-115268000D02*
X148574000Y-115268000D01*
X151074000Y-111268000D02*
X151024000Y-115268000D01*
X148074000Y-111268000D02*
X151074000Y-111268000D01*
D14*
X86372000Y-43926000D02*
X86372000Y-40726000D01*
X87872000Y-40726000D02*
X87872000Y-43926000D01*
X87872000Y-40726000D02*
X86372000Y-40726000D01*
D13*
X91472000Y-36276000D02*
X91472000Y-39276000D01*
X95472000Y-36276000D02*
X91472000Y-36276000D01*
X95472000Y-39276000D02*
X95472000Y-36276000D01*
X95972000Y-47076000D02*
X95972000Y-39276000D01*
X90972000Y-47076000D02*
X95972000Y-47076000D01*
X90972000Y-39276000D02*
X90972000Y-47076000D01*
X93472000Y-39276000D02*
X90972000Y-39276000D01*
X93472000Y-39276000D02*
X95972000Y-39276000D01*
D14*
X88230000Y-71238000D02*
X87030000Y-71238000D01*
X87030000Y-69478000D02*
X88230000Y-69478000D01*
D13*
X81058000Y-36276000D02*
X81058000Y-39276000D01*
X85058000Y-36276000D02*
X81058000Y-36276000D01*
X85058000Y-39276000D02*
X85058000Y-36276000D01*
X85558000Y-47076000D02*
X85558000Y-39276000D01*
X80558000Y-47076000D02*
X85558000Y-47076000D01*
X80558000Y-39276000D02*
X80558000Y-47076000D01*
X83058000Y-39276000D02*
X80558000Y-39276000D01*
X83058000Y-39276000D02*
X85558000Y-39276000D01*
X153416096Y-96274000D02*
X153320858Y-96226381D01*
X153178001Y-96226381D01*
X153035143Y-96274000D01*
X152939905Y-96369238D01*
X152892286Y-96464476D01*
X152844667Y-96654952D01*
X152844667Y-96797810D01*
X152892286Y-96988286D01*
X152939905Y-97083524D01*
X153035143Y-97178762D01*
X153178001Y-97226381D01*
X153273239Y-97226381D01*
X153416096Y-97178762D01*
X153463715Y-97131143D01*
X153463715Y-96797810D01*
X153273239Y-96797810D01*
X153892286Y-97226381D02*
X153892286Y-96226381D01*
X154463715Y-97226381D01*
X154463715Y-96226381D01*
X154939905Y-97226381D02*
X154939905Y-96226381D01*
X155178000Y-96226381D01*
X155320858Y-96274000D01*
X155416096Y-96369238D01*
X155463715Y-96464476D01*
X155511334Y-96654952D01*
X155511334Y-96797810D01*
X155463715Y-96988286D01*
X155416096Y-97083524D01*
X155320858Y-97178762D01*
X155178000Y-97226381D01*
X154939905Y-97226381D01*
X103378096Y-88908000D02*
X103282858Y-88860381D01*
X103140001Y-88860381D01*
X102997143Y-88908000D01*
X102901905Y-89003238D01*
X102854286Y-89098476D01*
X102806667Y-89288952D01*
X102806667Y-89431810D01*
X102854286Y-89622286D01*
X102901905Y-89717524D01*
X102997143Y-89812762D01*
X103140001Y-89860381D01*
X103235239Y-89860381D01*
X103378096Y-89812762D01*
X103425715Y-89765143D01*
X103425715Y-89431810D01*
X103235239Y-89431810D01*
X103854286Y-89860381D02*
X103854286Y-88860381D01*
X104425715Y-89860381D01*
X104425715Y-88860381D01*
X104901905Y-89860381D02*
X104901905Y-88860381D01*
X105140000Y-88860381D01*
X105282858Y-88908000D01*
X105378096Y-89003238D01*
X105425715Y-89098476D01*
X105473334Y-89288952D01*
X105473334Y-89431810D01*
X105425715Y-89622286D01*
X105378096Y-89717524D01*
X105282858Y-89812762D01*
X105140000Y-89860381D01*
X104901905Y-89860381D01*
X141224096Y-99322000D02*
X141128858Y-99274381D01*
X140986001Y-99274381D01*
X140843143Y-99322000D01*
X140747905Y-99417238D01*
X140700286Y-99512476D01*
X140652667Y-99702952D01*
X140652667Y-99845810D01*
X140700286Y-100036286D01*
X140747905Y-100131524D01*
X140843143Y-100226762D01*
X140986001Y-100274381D01*
X141081239Y-100274381D01*
X141224096Y-100226762D01*
X141271715Y-100179143D01*
X141271715Y-99845810D01*
X141081239Y-99845810D01*
X141700286Y-100274381D02*
X141700286Y-99274381D01*
X142271715Y-100274381D01*
X142271715Y-99274381D01*
X142747905Y-100274381D02*
X142747905Y-99274381D01*
X142986000Y-99274381D01*
X143128858Y-99322000D01*
X143224096Y-99417238D01*
X143271715Y-99512476D01*
X143319334Y-99702952D01*
X143319334Y-99845810D01*
X143271715Y-100036286D01*
X143224096Y-100131524D01*
X143128858Y-100226762D01*
X142986000Y-100274381D01*
X142747905Y-100274381D01*
X146946067Y-99756362D02*
X147088924Y-99803981D01*
X147327020Y-99803981D01*
X147422258Y-99756362D01*
X147469877Y-99708743D01*
X147517496Y-99613505D01*
X147517496Y-99518267D01*
X147469877Y-99423029D01*
X147422258Y-99375410D01*
X147327020Y-99327790D01*
X147136543Y-99280171D01*
X147041305Y-99232552D01*
X146993686Y-99184933D01*
X146946067Y-99089695D01*
X146946067Y-98994457D01*
X146993686Y-98899219D01*
X147041305Y-98851600D01*
X147136543Y-98803981D01*
X147374639Y-98803981D01*
X147517496Y-98851600D01*
X147850829Y-98803981D02*
X148088924Y-99803981D01*
X148279401Y-99089695D01*
X148469877Y-99803981D01*
X148707972Y-98803981D01*
X148993686Y-98803981D02*
X149612734Y-98803981D01*
X149279400Y-99184933D01*
X149422258Y-99184933D01*
X149517496Y-99232552D01*
X149565115Y-99280171D01*
X149612734Y-99375410D01*
X149612734Y-99613505D01*
X149565115Y-99708743D01*
X149517496Y-99756362D01*
X149422258Y-99803981D01*
X149136543Y-99803981D01*
X149041305Y-99756362D01*
X148993686Y-99708743D01*
X81875334Y-59793143D02*
X81827715Y-59840762D01*
X81684858Y-59888381D01*
X81589620Y-59888381D01*
X81446762Y-59840762D01*
X81351524Y-59745524D01*
X81303905Y-59650286D01*
X81256286Y-59459810D01*
X81256286Y-59316952D01*
X81303905Y-59126476D01*
X81351524Y-59031238D01*
X81446762Y-58936000D01*
X81589620Y-58888381D01*
X81684858Y-58888381D01*
X81827715Y-58936000D01*
X81875334Y-58983619D01*
X82827715Y-59888381D02*
X82256286Y-59888381D01*
X82542000Y-59888381D02*
X82542000Y-58888381D01*
X82446762Y-59031238D01*
X82351524Y-59126476D01*
X82256286Y-59174095D01*
X130273334Y-100138143D02*
X130225715Y-100185762D01*
X130082858Y-100233381D01*
X129987620Y-100233381D01*
X129844762Y-100185762D01*
X129749524Y-100090524D01*
X129701905Y-99995286D01*
X129654286Y-99804810D01*
X129654286Y-99661952D01*
X129701905Y-99471476D01*
X129749524Y-99376238D01*
X129844762Y-99281000D01*
X129987620Y-99233381D01*
X130082858Y-99233381D01*
X130225715Y-99281000D01*
X130273334Y-99328619D01*
X130654286Y-99328619D02*
X130701905Y-99281000D01*
X130797143Y-99233381D01*
X131035239Y-99233381D01*
X131130477Y-99281000D01*
X131178096Y-99328619D01*
X131225715Y-99423857D01*
X131225715Y-99519095D01*
X131178096Y-99661952D01*
X130606667Y-100233381D01*
X131225715Y-100233381D01*
X135719334Y-106468143D02*
X135671715Y-106515762D01*
X135528858Y-106563381D01*
X135433620Y-106563381D01*
X135290762Y-106515762D01*
X135195524Y-106420524D01*
X135147905Y-106325286D01*
X135100286Y-106134810D01*
X135100286Y-105991952D01*
X135147905Y-105801476D01*
X135195524Y-105706238D01*
X135290762Y-105611000D01*
X135433620Y-105563381D01*
X135528858Y-105563381D01*
X135671715Y-105611000D01*
X135719334Y-105658619D01*
X136052667Y-105563381D02*
X136671715Y-105563381D01*
X136338381Y-105944333D01*
X136481239Y-105944333D01*
X136576477Y-105991952D01*
X136624096Y-106039571D01*
X136671715Y-106134810D01*
X136671715Y-106372905D01*
X136624096Y-106468143D01*
X136576477Y-106515762D01*
X136481239Y-106563381D01*
X136195524Y-106563381D01*
X136100286Y-106515762D01*
X136052667Y-106468143D01*
X105767143Y-48426666D02*
X105814762Y-48474285D01*
X105862381Y-48617142D01*
X105862381Y-48712380D01*
X105814762Y-48855238D01*
X105719524Y-48950476D01*
X105624286Y-48998095D01*
X105433810Y-49045714D01*
X105290952Y-49045714D01*
X105100476Y-48998095D01*
X105005238Y-48950476D01*
X104910000Y-48855238D01*
X104862381Y-48712380D01*
X104862381Y-48617142D01*
X104910000Y-48474285D01*
X104957619Y-48426666D01*
X105195714Y-47569523D02*
X105862381Y-47569523D01*
X104814762Y-47807619D02*
X105529048Y-48045714D01*
X105529048Y-47426666D01*
X101433334Y-98147143D02*
X101385715Y-98194762D01*
X101242858Y-98242381D01*
X101147620Y-98242381D01*
X101004762Y-98194762D01*
X100909524Y-98099524D01*
X100861905Y-98004286D01*
X100814286Y-97813810D01*
X100814286Y-97670952D01*
X100861905Y-97480476D01*
X100909524Y-97385238D01*
X101004762Y-97290000D01*
X101147620Y-97242381D01*
X101242858Y-97242381D01*
X101385715Y-97290000D01*
X101433334Y-97337619D01*
X102338096Y-97242381D02*
X101861905Y-97242381D01*
X101814286Y-97718571D01*
X101861905Y-97670952D01*
X101957143Y-97623333D01*
X102195239Y-97623333D01*
X102290477Y-97670952D01*
X102338096Y-97718571D01*
X102385715Y-97813810D01*
X102385715Y-98051905D01*
X102338096Y-98147143D01*
X102290477Y-98194762D01*
X102195239Y-98242381D01*
X101957143Y-98242381D01*
X101861905Y-98194762D01*
X101814286Y-98147143D01*
X141057334Y-106529143D02*
X141009715Y-106576762D01*
X140866858Y-106624381D01*
X140771620Y-106624381D01*
X140628762Y-106576762D01*
X140533524Y-106481524D01*
X140485905Y-106386286D01*
X140438286Y-106195810D01*
X140438286Y-106052952D01*
X140485905Y-105862476D01*
X140533524Y-105767238D01*
X140628762Y-105672000D01*
X140771620Y-105624381D01*
X140866858Y-105624381D01*
X141009715Y-105672000D01*
X141057334Y-105719619D01*
X141914477Y-105624381D02*
X141724000Y-105624381D01*
X141628762Y-105672000D01*
X141581143Y-105719619D01*
X141485905Y-105862476D01*
X141438286Y-106052952D01*
X141438286Y-106433905D01*
X141485905Y-106529143D01*
X141533524Y-106576762D01*
X141628762Y-106624381D01*
X141819239Y-106624381D01*
X141914477Y-106576762D01*
X141962096Y-106529143D01*
X142009715Y-106433905D01*
X142009715Y-106195810D01*
X141962096Y-106100571D01*
X141914477Y-106052952D01*
X141819239Y-106005333D01*
X141628762Y-106005333D01*
X141533524Y-106052952D01*
X141485905Y-106100571D01*
X141438286Y-106195810D01*
X105243334Y-62079143D02*
X105195715Y-62126762D01*
X105052858Y-62174381D01*
X104957620Y-62174381D01*
X104814762Y-62126762D01*
X104719524Y-62031524D01*
X104671905Y-61936286D01*
X104624286Y-61745810D01*
X104624286Y-61602952D01*
X104671905Y-61412476D01*
X104719524Y-61317238D01*
X104814762Y-61222000D01*
X104957620Y-61174381D01*
X105052858Y-61174381D01*
X105195715Y-61222000D01*
X105243334Y-61269619D01*
X105576667Y-61174381D02*
X106243334Y-61174381D01*
X105814762Y-62174381D01*
X105223334Y-58269143D02*
X105175715Y-58316762D01*
X105032858Y-58364381D01*
X104937620Y-58364381D01*
X104794762Y-58316762D01*
X104699524Y-58221524D01*
X104651905Y-58126286D01*
X104604286Y-57935810D01*
X104604286Y-57792952D01*
X104651905Y-57602476D01*
X104699524Y-57507238D01*
X104794762Y-57412000D01*
X104937620Y-57364381D01*
X105032858Y-57364381D01*
X105175715Y-57412000D01*
X105223334Y-57459619D01*
X105794762Y-57792952D02*
X105699524Y-57745333D01*
X105651905Y-57697714D01*
X105604286Y-57602476D01*
X105604286Y-57554857D01*
X105651905Y-57459619D01*
X105699524Y-57412000D01*
X105794762Y-57364381D01*
X105985239Y-57364381D01*
X106080477Y-57412000D01*
X106128096Y-57459619D01*
X106175715Y-57554857D01*
X106175715Y-57602476D01*
X106128096Y-57697714D01*
X106080477Y-57745333D01*
X105985239Y-57792952D01*
X105794762Y-57792952D01*
X105699524Y-57840571D01*
X105651905Y-57888190D01*
X105604286Y-57983429D01*
X105604286Y-58173905D01*
X105651905Y-58269143D01*
X105699524Y-58316762D01*
X105794762Y-58364381D01*
X105985239Y-58364381D01*
X106080477Y-58316762D01*
X106128096Y-58269143D01*
X106175715Y-58173905D01*
X106175715Y-57983429D01*
X106128096Y-57888190D01*
X106080477Y-57840571D01*
X105985239Y-57792952D01*
X130269334Y-106468143D02*
X130221715Y-106515762D01*
X130078858Y-106563381D01*
X129983620Y-106563381D01*
X129840762Y-106515762D01*
X129745524Y-106420524D01*
X129697905Y-106325286D01*
X129650286Y-106134810D01*
X129650286Y-105991952D01*
X129697905Y-105801476D01*
X129745524Y-105706238D01*
X129840762Y-105611000D01*
X129983620Y-105563381D01*
X130078858Y-105563381D01*
X130221715Y-105611000D01*
X130269334Y-105658619D01*
X130745524Y-106563381D02*
X130936000Y-106563381D01*
X131031239Y-106515762D01*
X131078858Y-106468143D01*
X131174096Y-106325286D01*
X131221715Y-106134810D01*
X131221715Y-105753857D01*
X131174096Y-105658619D01*
X131126477Y-105611000D01*
X131031239Y-105563381D01*
X130840762Y-105563381D01*
X130745524Y-105611000D01*
X130697905Y-105658619D01*
X130650286Y-105753857D01*
X130650286Y-105991952D01*
X130697905Y-106087190D01*
X130745524Y-106134810D01*
X130840762Y-106182429D01*
X131031239Y-106182429D01*
X131126477Y-106134810D01*
X131174096Y-106087190D01*
X131221715Y-105991952D01*
X124181143Y-90967857D02*
X124228762Y-91015476D01*
X124276381Y-91158333D01*
X124276381Y-91253571D01*
X124228762Y-91396429D01*
X124133524Y-91491667D01*
X124038286Y-91539286D01*
X123847810Y-91586905D01*
X123704952Y-91586905D01*
X123514476Y-91539286D01*
X123419238Y-91491667D01*
X123324000Y-91396429D01*
X123276381Y-91253571D01*
X123276381Y-91158333D01*
X123324000Y-91015476D01*
X123371619Y-90967857D01*
X124276381Y-90015476D02*
X124276381Y-90586905D01*
X124276381Y-90301191D02*
X123276381Y-90301191D01*
X123419238Y-90396429D01*
X123514476Y-90491667D01*
X123562095Y-90586905D01*
X123276381Y-89396429D02*
X123276381Y-89301190D01*
X123324000Y-89205952D01*
X123371619Y-89158333D01*
X123466857Y-89110714D01*
X123657333Y-89063095D01*
X123895429Y-89063095D01*
X124085905Y-89110714D01*
X124181143Y-89158333D01*
X124228762Y-89205952D01*
X124276381Y-89301190D01*
X124276381Y-89396429D01*
X124228762Y-89491667D01*
X124181143Y-89539286D01*
X124085905Y-89586905D01*
X123895429Y-89634524D01*
X123657333Y-89634524D01*
X123466857Y-89586905D01*
X123371619Y-89539286D01*
X123324000Y-89491667D01*
X123276381Y-89396429D01*
X127543143Y-90907857D02*
X127590762Y-90955476D01*
X127638381Y-91098333D01*
X127638381Y-91193571D01*
X127590762Y-91336429D01*
X127495524Y-91431667D01*
X127400286Y-91479286D01*
X127209810Y-91526905D01*
X127066952Y-91526905D01*
X126876476Y-91479286D01*
X126781238Y-91431667D01*
X126686000Y-91336429D01*
X126638381Y-91193571D01*
X126638381Y-91098333D01*
X126686000Y-90955476D01*
X126733619Y-90907857D01*
X127638381Y-89955476D02*
X127638381Y-90526905D01*
X127638381Y-90241191D02*
X126638381Y-90241191D01*
X126781238Y-90336429D01*
X126876476Y-90431667D01*
X126924095Y-90526905D01*
X127638381Y-89003095D02*
X127638381Y-89574524D01*
X127638381Y-89288810D02*
X126638381Y-89288810D01*
X126781238Y-89384048D01*
X126876476Y-89479286D01*
X126924095Y-89574524D01*
X127611143Y-84589857D02*
X127658762Y-84637476D01*
X127706381Y-84780333D01*
X127706381Y-84875571D01*
X127658762Y-85018429D01*
X127563524Y-85113667D01*
X127468286Y-85161286D01*
X127277810Y-85208905D01*
X127134952Y-85208905D01*
X126944476Y-85161286D01*
X126849238Y-85113667D01*
X126754000Y-85018429D01*
X126706381Y-84875571D01*
X126706381Y-84780333D01*
X126754000Y-84637476D01*
X126801619Y-84589857D01*
X127706381Y-83637476D02*
X127706381Y-84208905D01*
X127706381Y-83923191D02*
X126706381Y-83923191D01*
X126849238Y-84018429D01*
X126944476Y-84113667D01*
X126992095Y-84208905D01*
X126801619Y-83256524D02*
X126754000Y-83208905D01*
X126706381Y-83113667D01*
X126706381Y-82875571D01*
X126754000Y-82780333D01*
X126801619Y-82732714D01*
X126896857Y-82685095D01*
X126992095Y-82685095D01*
X127134952Y-82732714D01*
X127706381Y-83304143D01*
X127706381Y-82685095D01*
X159361143Y-52966857D02*
X159408762Y-53014476D01*
X159456381Y-53157333D01*
X159456381Y-53252571D01*
X159408762Y-53395429D01*
X159313524Y-53490667D01*
X159218286Y-53538286D01*
X159027810Y-53585905D01*
X158884952Y-53585905D01*
X158694476Y-53538286D01*
X158599238Y-53490667D01*
X158504000Y-53395429D01*
X158456381Y-53252571D01*
X158456381Y-53157333D01*
X158504000Y-53014476D01*
X158551619Y-52966857D01*
X159456381Y-52014476D02*
X159456381Y-52585905D01*
X159456381Y-52300191D02*
X158456381Y-52300191D01*
X158599238Y-52395429D01*
X158694476Y-52490667D01*
X158742095Y-52585905D01*
X158456381Y-51681143D02*
X158456381Y-51062095D01*
X158837333Y-51395429D01*
X158837333Y-51252571D01*
X158884952Y-51157333D01*
X158932571Y-51109714D01*
X159027810Y-51062095D01*
X159265905Y-51062095D01*
X159361143Y-51109714D01*
X159408762Y-51157333D01*
X159456381Y-51252571D01*
X159456381Y-51538286D01*
X159408762Y-51633524D01*
X159361143Y-51681143D01*
X158037429Y-55357952D02*
X158037429Y-54596047D01*
X158418381Y-54976999D02*
X157656476Y-54976999D01*
X120881143Y-83967857D02*
X120928762Y-84015476D01*
X120976381Y-84158333D01*
X120976381Y-84253571D01*
X120928762Y-84396429D01*
X120833524Y-84491667D01*
X120738286Y-84539286D01*
X120547810Y-84586905D01*
X120404952Y-84586905D01*
X120214476Y-84539286D01*
X120119238Y-84491667D01*
X120024000Y-84396429D01*
X119976381Y-84253571D01*
X119976381Y-84158333D01*
X120024000Y-84015476D01*
X120071619Y-83967857D01*
X120976381Y-83015476D02*
X120976381Y-83586905D01*
X120976381Y-83301191D02*
X119976381Y-83301191D01*
X120119238Y-83396429D01*
X120214476Y-83491667D01*
X120262095Y-83586905D01*
X120309714Y-82158333D02*
X120976381Y-82158333D01*
X119928762Y-82396429D02*
X120643048Y-82634524D01*
X120643048Y-82015476D01*
X152131143Y-64967857D02*
X152178762Y-65015476D01*
X152226381Y-65158333D01*
X152226381Y-65253571D01*
X152178762Y-65396429D01*
X152083524Y-65491667D01*
X151988286Y-65539286D01*
X151797810Y-65586905D01*
X151654952Y-65586905D01*
X151464476Y-65539286D01*
X151369238Y-65491667D01*
X151274000Y-65396429D01*
X151226381Y-65253571D01*
X151226381Y-65158333D01*
X151274000Y-65015476D01*
X151321619Y-64967857D01*
X152226381Y-64015476D02*
X152226381Y-64586905D01*
X152226381Y-64301191D02*
X151226381Y-64301191D01*
X151369238Y-64396429D01*
X151464476Y-64491667D01*
X151512095Y-64586905D01*
X151226381Y-63110714D02*
X151226381Y-63586905D01*
X151702571Y-63634524D01*
X151654952Y-63586905D01*
X151607333Y-63491667D01*
X151607333Y-63253571D01*
X151654952Y-63158333D01*
X151702571Y-63110714D01*
X151797810Y-63063095D01*
X152035905Y-63063095D01*
X152131143Y-63110714D01*
X152178762Y-63158333D01*
X152226381Y-63253571D01*
X152226381Y-63491667D01*
X152178762Y-63586905D01*
X152131143Y-63634524D01*
X131381143Y-86467857D02*
X131428762Y-86515476D01*
X131476381Y-86658333D01*
X131476381Y-86753571D01*
X131428762Y-86896429D01*
X131333524Y-86991667D01*
X131238286Y-87039286D01*
X131047810Y-87086905D01*
X130904952Y-87086905D01*
X130714476Y-87039286D01*
X130619238Y-86991667D01*
X130524000Y-86896429D01*
X130476381Y-86753571D01*
X130476381Y-86658333D01*
X130524000Y-86515476D01*
X130571619Y-86467857D01*
X131476381Y-85515476D02*
X131476381Y-86086905D01*
X131476381Y-85801191D02*
X130476381Y-85801191D01*
X130619238Y-85896429D01*
X130714476Y-85991667D01*
X130762095Y-86086905D01*
X130476381Y-84658333D02*
X130476381Y-84848810D01*
X130524000Y-84944048D01*
X130571619Y-84991667D01*
X130714476Y-85086905D01*
X130904952Y-85134524D01*
X131285905Y-85134524D01*
X131381143Y-85086905D01*
X131428762Y-85039286D01*
X131476381Y-84944048D01*
X131476381Y-84753571D01*
X131428762Y-84658333D01*
X131381143Y-84610714D01*
X131285905Y-84563095D01*
X131047810Y-84563095D01*
X130952571Y-84610714D01*
X130904952Y-84658333D01*
X130857333Y-84753571D01*
X130857333Y-84944048D01*
X130904952Y-85039286D01*
X130952571Y-85086905D01*
X131047810Y-85134524D01*
X125341143Y-57126143D02*
X125293524Y-57173762D01*
X125150667Y-57221381D01*
X125055429Y-57221381D01*
X124912571Y-57173762D01*
X124817333Y-57078524D01*
X124769714Y-56983286D01*
X124722095Y-56792810D01*
X124722095Y-56649952D01*
X124769714Y-56459476D01*
X124817333Y-56364238D01*
X124912571Y-56269000D01*
X125055429Y-56221381D01*
X125150667Y-56221381D01*
X125293524Y-56269000D01*
X125341143Y-56316619D01*
X126293524Y-57221381D02*
X125722095Y-57221381D01*
X126007809Y-57221381D02*
X126007809Y-56221381D01*
X125912571Y-56364238D01*
X125817333Y-56459476D01*
X125722095Y-56507095D01*
X126626857Y-56221381D02*
X127293524Y-56221381D01*
X126864952Y-57221381D01*
X124131143Y-83717857D02*
X124178762Y-83765476D01*
X124226381Y-83908333D01*
X124226381Y-84003571D01*
X124178762Y-84146429D01*
X124083524Y-84241667D01*
X123988286Y-84289286D01*
X123797810Y-84336905D01*
X123654952Y-84336905D01*
X123464476Y-84289286D01*
X123369238Y-84241667D01*
X123274000Y-84146429D01*
X123226381Y-84003571D01*
X123226381Y-83908333D01*
X123274000Y-83765476D01*
X123321619Y-83717857D01*
X124226381Y-82765476D02*
X124226381Y-83336905D01*
X124226381Y-83051191D02*
X123226381Y-83051191D01*
X123369238Y-83146429D01*
X123464476Y-83241667D01*
X123512095Y-83336905D01*
X123654952Y-82194048D02*
X123607333Y-82289286D01*
X123559714Y-82336905D01*
X123464476Y-82384524D01*
X123416857Y-82384524D01*
X123321619Y-82336905D01*
X123274000Y-82289286D01*
X123226381Y-82194048D01*
X123226381Y-82003571D01*
X123274000Y-81908333D01*
X123321619Y-81860714D01*
X123416857Y-81813095D01*
X123464476Y-81813095D01*
X123559714Y-81860714D01*
X123607333Y-81908333D01*
X123654952Y-82003571D01*
X123654952Y-82194048D01*
X123702571Y-82289286D01*
X123750190Y-82336905D01*
X123845429Y-82384524D01*
X124035905Y-82384524D01*
X124131143Y-82336905D01*
X124178762Y-82289286D01*
X124226381Y-82194048D01*
X124226381Y-82003571D01*
X124178762Y-81908333D01*
X124131143Y-81860714D01*
X124035905Y-81813095D01*
X123845429Y-81813095D01*
X123750190Y-81860714D01*
X123702571Y-81908333D01*
X123654952Y-82003571D01*
X128135143Y-57126143D02*
X128087524Y-57173762D01*
X127944667Y-57221381D01*
X127849429Y-57221381D01*
X127706571Y-57173762D01*
X127611333Y-57078524D01*
X127563714Y-56983286D01*
X127516095Y-56792810D01*
X127516095Y-56649952D01*
X127563714Y-56459476D01*
X127611333Y-56364238D01*
X127706571Y-56269000D01*
X127849429Y-56221381D01*
X127944667Y-56221381D01*
X128087524Y-56269000D01*
X128135143Y-56316619D01*
X129087524Y-57221381D02*
X128516095Y-57221381D01*
X128801809Y-57221381D02*
X128801809Y-56221381D01*
X128706571Y-56364238D01*
X128611333Y-56459476D01*
X128516095Y-56507095D01*
X129563714Y-57221381D02*
X129754190Y-57221381D01*
X129849429Y-57173762D01*
X129897048Y-57126143D01*
X129992286Y-56983286D01*
X130039905Y-56792810D01*
X130039905Y-56411857D01*
X129992286Y-56316619D01*
X129944667Y-56269000D01*
X129849429Y-56221381D01*
X129658952Y-56221381D01*
X129563714Y-56269000D01*
X129516095Y-56316619D01*
X129468476Y-56411857D01*
X129468476Y-56649952D01*
X129516095Y-56745190D01*
X129563714Y-56792810D01*
X129658952Y-56840429D01*
X129849429Y-56840429D01*
X129944667Y-56792810D01*
X129992286Y-56745190D01*
X130039905Y-56649952D01*
X155313143Y-48617143D02*
X155265524Y-48664762D01*
X155122667Y-48712381D01*
X155027429Y-48712381D01*
X154884571Y-48664762D01*
X154789333Y-48569524D01*
X154741714Y-48474286D01*
X154694095Y-48283810D01*
X154694095Y-48140952D01*
X154741714Y-47950476D01*
X154789333Y-47855238D01*
X154884571Y-47760000D01*
X155027429Y-47712381D01*
X155122667Y-47712381D01*
X155265524Y-47760000D01*
X155313143Y-47807619D01*
X155694095Y-47807619D02*
X155741714Y-47760000D01*
X155836952Y-47712381D01*
X156075048Y-47712381D01*
X156170286Y-47760000D01*
X156217905Y-47807619D01*
X156265524Y-47902857D01*
X156265524Y-47998095D01*
X156217905Y-48140952D01*
X155646476Y-48712381D01*
X156265524Y-48712381D01*
X156884571Y-47712381D02*
X156979810Y-47712381D01*
X157075048Y-47760000D01*
X157122667Y-47807619D01*
X157170286Y-47902857D01*
X157217905Y-48093333D01*
X157217905Y-48331429D01*
X157170286Y-48521905D01*
X157122667Y-48617143D01*
X157075048Y-48664762D01*
X156979810Y-48712381D01*
X156884571Y-48712381D01*
X156789333Y-48664762D01*
X156741714Y-48617143D01*
X156694095Y-48521905D01*
X156646476Y-48331429D01*
X156646476Y-48093333D01*
X156694095Y-47902857D01*
X156741714Y-47807619D01*
X156789333Y-47760000D01*
X156884571Y-47712381D01*
X119753143Y-57126143D02*
X119705524Y-57173762D01*
X119562667Y-57221381D01*
X119467429Y-57221381D01*
X119324571Y-57173762D01*
X119229333Y-57078524D01*
X119181714Y-56983286D01*
X119134095Y-56792810D01*
X119134095Y-56649952D01*
X119181714Y-56459476D01*
X119229333Y-56364238D01*
X119324571Y-56269000D01*
X119467429Y-56221381D01*
X119562667Y-56221381D01*
X119705524Y-56269000D01*
X119753143Y-56316619D01*
X120134095Y-56316619D02*
X120181714Y-56269000D01*
X120276952Y-56221381D01*
X120515048Y-56221381D01*
X120610286Y-56269000D01*
X120657905Y-56316619D01*
X120705524Y-56411857D01*
X120705524Y-56507095D01*
X120657905Y-56649952D01*
X120086476Y-57221381D01*
X120705524Y-57221381D01*
X121657905Y-57221381D02*
X121086476Y-57221381D01*
X121372190Y-57221381D02*
X121372190Y-56221381D01*
X121276952Y-56364238D01*
X121181714Y-56459476D01*
X121086476Y-56507095D01*
X113895143Y-77350857D02*
X113942762Y-77398476D01*
X113990381Y-77541333D01*
X113990381Y-77636571D01*
X113942762Y-77779429D01*
X113847524Y-77874667D01*
X113752286Y-77922286D01*
X113561810Y-77969905D01*
X113418952Y-77969905D01*
X113228476Y-77922286D01*
X113133238Y-77874667D01*
X113038000Y-77779429D01*
X112990381Y-77636571D01*
X112990381Y-77541333D01*
X113038000Y-77398476D01*
X113085619Y-77350857D01*
X113085619Y-76969905D02*
X113038000Y-76922286D01*
X112990381Y-76827048D01*
X112990381Y-76588952D01*
X113038000Y-76493714D01*
X113085619Y-76446095D01*
X113180857Y-76398476D01*
X113276095Y-76398476D01*
X113418952Y-76446095D01*
X113990381Y-77017524D01*
X113990381Y-76398476D01*
X113085619Y-76017524D02*
X113038000Y-75969905D01*
X112990381Y-75874667D01*
X112990381Y-75636571D01*
X113038000Y-75541333D01*
X113085619Y-75493714D01*
X113180857Y-75446095D01*
X113276095Y-75446095D01*
X113418952Y-75493714D01*
X113990381Y-76065143D01*
X113990381Y-75446095D01*
X116689143Y-60713857D02*
X116736762Y-60761476D01*
X116784381Y-60904333D01*
X116784381Y-60999571D01*
X116736762Y-61142429D01*
X116641524Y-61237667D01*
X116546286Y-61285286D01*
X116355810Y-61332905D01*
X116212952Y-61332905D01*
X116022476Y-61285286D01*
X115927238Y-61237667D01*
X115832000Y-61142429D01*
X115784381Y-60999571D01*
X115784381Y-60904333D01*
X115832000Y-60761476D01*
X115879619Y-60713857D01*
X115879619Y-60332905D02*
X115832000Y-60285286D01*
X115784381Y-60190048D01*
X115784381Y-59951952D01*
X115832000Y-59856714D01*
X115879619Y-59809095D01*
X115974857Y-59761476D01*
X116070095Y-59761476D01*
X116212952Y-59809095D01*
X116784381Y-60380524D01*
X116784381Y-59761476D01*
X115784381Y-59428143D02*
X115784381Y-58809095D01*
X116165333Y-59142429D01*
X116165333Y-58999571D01*
X116212952Y-58904333D01*
X116260571Y-58856714D01*
X116355810Y-58809095D01*
X116593905Y-58809095D01*
X116689143Y-58856714D01*
X116736762Y-58904333D01*
X116784381Y-58999571D01*
X116784381Y-59285286D01*
X116736762Y-59380524D01*
X116689143Y-59428143D01*
X115365429Y-63231952D02*
X115365429Y-62470047D01*
X115746381Y-62850999D02*
X114984476Y-62850999D01*
X116959143Y-57126143D02*
X116911524Y-57173762D01*
X116768667Y-57221381D01*
X116673429Y-57221381D01*
X116530571Y-57173762D01*
X116435333Y-57078524D01*
X116387714Y-56983286D01*
X116340095Y-56792810D01*
X116340095Y-56649952D01*
X116387714Y-56459476D01*
X116435333Y-56364238D01*
X116530571Y-56269000D01*
X116673429Y-56221381D01*
X116768667Y-56221381D01*
X116911524Y-56269000D01*
X116959143Y-56316619D01*
X117340095Y-56316619D02*
X117387714Y-56269000D01*
X117482952Y-56221381D01*
X117721048Y-56221381D01*
X117816286Y-56269000D01*
X117863905Y-56316619D01*
X117911524Y-56411857D01*
X117911524Y-56507095D01*
X117863905Y-56649952D01*
X117292476Y-57221381D01*
X117911524Y-57221381D01*
X118768667Y-56554714D02*
X118768667Y-57221381D01*
X118530571Y-56173762D02*
X118292476Y-56888048D01*
X118911524Y-56888048D01*
X130929143Y-57126143D02*
X130881524Y-57173762D01*
X130738667Y-57221381D01*
X130643429Y-57221381D01*
X130500571Y-57173762D01*
X130405333Y-57078524D01*
X130357714Y-56983286D01*
X130310095Y-56792810D01*
X130310095Y-56649952D01*
X130357714Y-56459476D01*
X130405333Y-56364238D01*
X130500571Y-56269000D01*
X130643429Y-56221381D01*
X130738667Y-56221381D01*
X130881524Y-56269000D01*
X130929143Y-56316619D01*
X131310095Y-56316619D02*
X131357714Y-56269000D01*
X131452952Y-56221381D01*
X131691048Y-56221381D01*
X131786286Y-56269000D01*
X131833905Y-56316619D01*
X131881524Y-56411857D01*
X131881524Y-56507095D01*
X131833905Y-56649952D01*
X131262476Y-57221381D01*
X131881524Y-57221381D01*
X132786286Y-56221381D02*
X132310095Y-56221381D01*
X132262476Y-56697571D01*
X132310095Y-56649952D01*
X132405333Y-56602333D01*
X132643429Y-56602333D01*
X132738667Y-56649952D01*
X132786286Y-56697571D01*
X132833905Y-56792810D01*
X132833905Y-57030905D01*
X132786286Y-57126143D01*
X132738667Y-57173762D01*
X132643429Y-57221381D01*
X132405333Y-57221381D01*
X132310095Y-57173762D01*
X132262476Y-57126143D01*
X125341143Y-63222143D02*
X125293524Y-63269762D01*
X125150667Y-63317381D01*
X125055429Y-63317381D01*
X124912571Y-63269762D01*
X124817333Y-63174524D01*
X124769714Y-63079286D01*
X124722095Y-62888810D01*
X124722095Y-62745952D01*
X124769714Y-62555476D01*
X124817333Y-62460238D01*
X124912571Y-62365000D01*
X125055429Y-62317381D01*
X125150667Y-62317381D01*
X125293524Y-62365000D01*
X125341143Y-62412619D01*
X125722095Y-62412619D02*
X125769714Y-62365000D01*
X125864952Y-62317381D01*
X126103048Y-62317381D01*
X126198286Y-62365000D01*
X126245905Y-62412619D01*
X126293524Y-62507857D01*
X126293524Y-62603095D01*
X126245905Y-62745952D01*
X125674476Y-63317381D01*
X126293524Y-63317381D01*
X127150667Y-62317381D02*
X126960190Y-62317381D01*
X126864952Y-62365000D01*
X126817333Y-62412619D01*
X126722095Y-62555476D01*
X126674476Y-62745952D01*
X126674476Y-63126905D01*
X126722095Y-63222143D01*
X126769714Y-63269762D01*
X126864952Y-63317381D01*
X127055429Y-63317381D01*
X127150667Y-63269762D01*
X127198286Y-63222143D01*
X127245905Y-63126905D01*
X127245905Y-62888810D01*
X127198286Y-62793571D01*
X127150667Y-62745952D01*
X127055429Y-62698333D01*
X126864952Y-62698333D01*
X126769714Y-62745952D01*
X126722095Y-62793571D01*
X126674476Y-62888810D01*
X134215143Y-69349857D02*
X134262762Y-69397476D01*
X134310381Y-69540333D01*
X134310381Y-69635571D01*
X134262762Y-69778429D01*
X134167524Y-69873667D01*
X134072286Y-69921286D01*
X133881810Y-69968905D01*
X133738952Y-69968905D01*
X133548476Y-69921286D01*
X133453238Y-69873667D01*
X133358000Y-69778429D01*
X133310381Y-69635571D01*
X133310381Y-69540333D01*
X133358000Y-69397476D01*
X133405619Y-69349857D01*
X133405619Y-68968905D02*
X133358000Y-68921286D01*
X133310381Y-68826048D01*
X133310381Y-68587952D01*
X133358000Y-68492714D01*
X133405619Y-68445095D01*
X133500857Y-68397476D01*
X133596095Y-68397476D01*
X133738952Y-68445095D01*
X134310381Y-69016524D01*
X134310381Y-68397476D01*
X133310381Y-68064143D02*
X133310381Y-67397476D01*
X134310381Y-67826048D01*
X86733143Y-75033143D02*
X86685524Y-75080762D01*
X86542667Y-75128381D01*
X86447429Y-75128381D01*
X86304571Y-75080762D01*
X86209333Y-74985524D01*
X86161714Y-74890286D01*
X86114095Y-74699810D01*
X86114095Y-74556952D01*
X86161714Y-74366476D01*
X86209333Y-74271238D01*
X86304571Y-74176000D01*
X86447429Y-74128381D01*
X86542667Y-74128381D01*
X86685524Y-74176000D01*
X86733143Y-74223619D01*
X87114095Y-74223619D02*
X87161714Y-74176000D01*
X87256952Y-74128381D01*
X87495048Y-74128381D01*
X87590286Y-74176000D01*
X87637905Y-74223619D01*
X87685524Y-74318857D01*
X87685524Y-74414095D01*
X87637905Y-74556952D01*
X87066476Y-75128381D01*
X87685524Y-75128381D01*
X88256952Y-74556952D02*
X88161714Y-74509333D01*
X88114095Y-74461714D01*
X88066476Y-74366476D01*
X88066476Y-74318857D01*
X88114095Y-74223619D01*
X88161714Y-74176000D01*
X88256952Y-74128381D01*
X88447429Y-74128381D01*
X88542667Y-74176000D01*
X88590286Y-74223619D01*
X88637905Y-74318857D01*
X88637905Y-74366476D01*
X88590286Y-74461714D01*
X88542667Y-74509333D01*
X88447429Y-74556952D01*
X88256952Y-74556952D01*
X88161714Y-74604571D01*
X88114095Y-74652190D01*
X88066476Y-74747429D01*
X88066476Y-74937905D01*
X88114095Y-75033143D01*
X88161714Y-75080762D01*
X88256952Y-75128381D01*
X88447429Y-75128381D01*
X88542667Y-75080762D01*
X88590286Y-75033143D01*
X88637905Y-74937905D01*
X88637905Y-74747429D01*
X88590286Y-74652190D01*
X88542667Y-74604571D01*
X88447429Y-74556952D01*
X133723143Y-63222143D02*
X133675524Y-63269762D01*
X133532667Y-63317381D01*
X133437429Y-63317381D01*
X133294571Y-63269762D01*
X133199333Y-63174524D01*
X133151714Y-63079286D01*
X133104095Y-62888810D01*
X133104095Y-62745952D01*
X133151714Y-62555476D01*
X133199333Y-62460238D01*
X133294571Y-62365000D01*
X133437429Y-62317381D01*
X133532667Y-62317381D01*
X133675524Y-62365000D01*
X133723143Y-62412619D01*
X134104095Y-62412619D02*
X134151714Y-62365000D01*
X134246952Y-62317381D01*
X134485048Y-62317381D01*
X134580286Y-62365000D01*
X134627905Y-62412619D01*
X134675524Y-62507857D01*
X134675524Y-62603095D01*
X134627905Y-62745952D01*
X134056476Y-63317381D01*
X134675524Y-63317381D01*
X135151714Y-63317381D02*
X135342190Y-63317381D01*
X135437429Y-63269762D01*
X135485048Y-63222143D01*
X135580286Y-63079286D01*
X135627905Y-62888810D01*
X135627905Y-62507857D01*
X135580286Y-62412619D01*
X135532667Y-62365000D01*
X135437429Y-62317381D01*
X135246952Y-62317381D01*
X135151714Y-62365000D01*
X135104095Y-62412619D01*
X135056476Y-62507857D01*
X135056476Y-62745952D01*
X135104095Y-62841190D01*
X135151714Y-62888810D01*
X135246952Y-62936429D01*
X135437429Y-62936429D01*
X135532667Y-62888810D01*
X135580286Y-62841190D01*
X135627905Y-62745952D01*
X77843143Y-66651143D02*
X77795524Y-66698762D01*
X77652667Y-66746381D01*
X77557429Y-66746381D01*
X77414571Y-66698762D01*
X77319333Y-66603524D01*
X77271714Y-66508286D01*
X77224095Y-66317810D01*
X77224095Y-66174952D01*
X77271714Y-65984476D01*
X77319333Y-65889238D01*
X77414571Y-65794000D01*
X77557429Y-65746381D01*
X77652667Y-65746381D01*
X77795524Y-65794000D01*
X77843143Y-65841619D01*
X78176476Y-65746381D02*
X78795524Y-65746381D01*
X78462190Y-66127333D01*
X78605048Y-66127333D01*
X78700286Y-66174952D01*
X78747905Y-66222571D01*
X78795524Y-66317810D01*
X78795524Y-66555905D01*
X78747905Y-66651143D01*
X78700286Y-66698762D01*
X78605048Y-66746381D01*
X78319333Y-66746381D01*
X78224095Y-66698762D01*
X78176476Y-66651143D01*
X79414571Y-65746381D02*
X79509810Y-65746381D01*
X79605048Y-65794000D01*
X79652667Y-65841619D01*
X79700286Y-65936857D01*
X79747905Y-66127333D01*
X79747905Y-66365429D01*
X79700286Y-66555905D01*
X79652667Y-66651143D01*
X79605048Y-66698762D01*
X79509810Y-66746381D01*
X79414571Y-66746381D01*
X79319333Y-66698762D01*
X79271714Y-66651143D01*
X79224095Y-66555905D01*
X79176476Y-66365429D01*
X79176476Y-66127333D01*
X79224095Y-65936857D01*
X79271714Y-65841619D01*
X79319333Y-65794000D01*
X79414571Y-65746381D01*
X116165143Y-69857857D02*
X116212762Y-69905476D01*
X116260381Y-70048333D01*
X116260381Y-70143571D01*
X116212762Y-70286429D01*
X116117524Y-70381667D01*
X116022286Y-70429286D01*
X115831810Y-70476905D01*
X115688952Y-70476905D01*
X115498476Y-70429286D01*
X115403238Y-70381667D01*
X115308000Y-70286429D01*
X115260381Y-70143571D01*
X115260381Y-70048333D01*
X115308000Y-69905476D01*
X115355619Y-69857857D01*
X115260381Y-69524524D02*
X115260381Y-68905476D01*
X115641333Y-69238810D01*
X115641333Y-69095952D01*
X115688952Y-69000714D01*
X115736571Y-68953095D01*
X115831810Y-68905476D01*
X116069905Y-68905476D01*
X116165143Y-68953095D01*
X116212762Y-69000714D01*
X116260381Y-69095952D01*
X116260381Y-69381667D01*
X116212762Y-69476905D01*
X116165143Y-69524524D01*
X116260381Y-67953095D02*
X116260381Y-68524524D01*
X116260381Y-68238810D02*
X115260381Y-68238810D01*
X115403238Y-68334048D01*
X115498476Y-68429286D01*
X115546095Y-68524524D01*
X114349429Y-72375952D02*
X114349429Y-71614047D01*
X114730381Y-71994999D02*
X113968476Y-71994999D01*
X118467143Y-67063857D02*
X118514762Y-67111476D01*
X118562381Y-67254333D01*
X118562381Y-67349571D01*
X118514762Y-67492429D01*
X118419524Y-67587667D01*
X118324286Y-67635286D01*
X118133810Y-67682905D01*
X117990952Y-67682905D01*
X117800476Y-67635286D01*
X117705238Y-67587667D01*
X117610000Y-67492429D01*
X117562381Y-67349571D01*
X117562381Y-67254333D01*
X117610000Y-67111476D01*
X117657619Y-67063857D01*
X117562381Y-66730524D02*
X117562381Y-66111476D01*
X117943333Y-66444810D01*
X117943333Y-66301952D01*
X117990952Y-66206714D01*
X118038571Y-66159095D01*
X118133810Y-66111476D01*
X118371905Y-66111476D01*
X118467143Y-66159095D01*
X118514762Y-66206714D01*
X118562381Y-66301952D01*
X118562381Y-66587667D01*
X118514762Y-66682905D01*
X118467143Y-66730524D01*
X117657619Y-65730524D02*
X117610000Y-65682905D01*
X117562381Y-65587667D01*
X117562381Y-65349571D01*
X117610000Y-65254333D01*
X117657619Y-65206714D01*
X117752857Y-65159095D01*
X117848095Y-65159095D01*
X117990952Y-65206714D01*
X118562381Y-65778143D01*
X118562381Y-65159095D01*
X127119143Y-75160143D02*
X127071524Y-75207762D01*
X126928667Y-75255381D01*
X126833429Y-75255381D01*
X126690571Y-75207762D01*
X126595333Y-75112524D01*
X126547714Y-75017286D01*
X126500095Y-74826810D01*
X126500095Y-74683952D01*
X126547714Y-74493476D01*
X126595333Y-74398238D01*
X126690571Y-74303000D01*
X126833429Y-74255381D01*
X126928667Y-74255381D01*
X127071524Y-74303000D01*
X127119143Y-74350619D01*
X127452476Y-74255381D02*
X128071524Y-74255381D01*
X127738190Y-74636333D01*
X127881048Y-74636333D01*
X127976286Y-74683952D01*
X128023905Y-74731571D01*
X128071524Y-74826810D01*
X128071524Y-75064905D01*
X128023905Y-75160143D01*
X127976286Y-75207762D01*
X127881048Y-75255381D01*
X127595333Y-75255381D01*
X127500095Y-75207762D01*
X127452476Y-75160143D01*
X128404857Y-74255381D02*
X129023905Y-74255381D01*
X128690571Y-74636333D01*
X128833429Y-74636333D01*
X128928667Y-74683952D01*
X128976286Y-74731571D01*
X129023905Y-74826810D01*
X129023905Y-75064905D01*
X128976286Y-75160143D01*
X128928667Y-75207762D01*
X128833429Y-75255381D01*
X128547714Y-75255381D01*
X128452476Y-75207762D01*
X128404857Y-75160143D01*
X131167143Y-69603857D02*
X131214762Y-69651476D01*
X131262381Y-69794333D01*
X131262381Y-69889571D01*
X131214762Y-70032429D01*
X131119524Y-70127667D01*
X131024286Y-70175286D01*
X130833810Y-70222905D01*
X130690952Y-70222905D01*
X130500476Y-70175286D01*
X130405238Y-70127667D01*
X130310000Y-70032429D01*
X130262381Y-69889571D01*
X130262381Y-69794333D01*
X130310000Y-69651476D01*
X130357619Y-69603857D01*
X130262381Y-69270524D02*
X130262381Y-68651476D01*
X130643333Y-68984810D01*
X130643333Y-68841952D01*
X130690952Y-68746714D01*
X130738571Y-68699095D01*
X130833810Y-68651476D01*
X131071905Y-68651476D01*
X131167143Y-68699095D01*
X131214762Y-68746714D01*
X131262381Y-68841952D01*
X131262381Y-69127667D01*
X131214762Y-69222905D01*
X131167143Y-69270524D01*
X130595714Y-67794333D02*
X131262381Y-67794333D01*
X130214762Y-68032429D02*
X130929048Y-68270524D01*
X130929048Y-67651476D01*
X118229143Y-39473143D02*
X118181524Y-39520762D01*
X118038667Y-39568381D01*
X117943429Y-39568381D01*
X117800571Y-39520762D01*
X117705333Y-39425524D01*
X117657714Y-39330286D01*
X117610095Y-39139810D01*
X117610095Y-38996952D01*
X117657714Y-38806476D01*
X117705333Y-38711238D01*
X117800571Y-38616000D01*
X117943429Y-38568381D01*
X118038667Y-38568381D01*
X118181524Y-38616000D01*
X118229143Y-38663619D01*
X118562476Y-38568381D02*
X119181524Y-38568381D01*
X118848190Y-38949333D01*
X118991048Y-38949333D01*
X119086286Y-38996952D01*
X119133905Y-39044571D01*
X119181524Y-39139810D01*
X119181524Y-39377905D01*
X119133905Y-39473143D01*
X119086286Y-39520762D01*
X118991048Y-39568381D01*
X118705333Y-39568381D01*
X118610095Y-39520762D01*
X118562476Y-39473143D01*
X120086286Y-38568381D02*
X119610095Y-38568381D01*
X119562476Y-39044571D01*
X119610095Y-38996952D01*
X119705333Y-38949333D01*
X119943429Y-38949333D01*
X120038667Y-38996952D01*
X120086286Y-39044571D01*
X120133905Y-39139810D01*
X120133905Y-39377905D01*
X120086286Y-39473143D01*
X120038667Y-39520762D01*
X119943429Y-39568381D01*
X119705333Y-39568381D01*
X119610095Y-39520762D01*
X119562476Y-39473143D01*
X115965048Y-44118429D02*
X116726953Y-44118429D01*
X116346001Y-44499381D02*
X116346001Y-43737476D01*
X118483143Y-51030143D02*
X118435524Y-51077762D01*
X118292667Y-51125381D01*
X118197429Y-51125381D01*
X118054571Y-51077762D01*
X117959333Y-50982524D01*
X117911714Y-50887286D01*
X117864095Y-50696810D01*
X117864095Y-50553952D01*
X117911714Y-50363476D01*
X117959333Y-50268238D01*
X118054571Y-50173000D01*
X118197429Y-50125381D01*
X118292667Y-50125381D01*
X118435524Y-50173000D01*
X118483143Y-50220619D01*
X118816476Y-50125381D02*
X119435524Y-50125381D01*
X119102190Y-50506333D01*
X119245048Y-50506333D01*
X119340286Y-50553952D01*
X119387905Y-50601571D01*
X119435524Y-50696810D01*
X119435524Y-50934905D01*
X119387905Y-51030143D01*
X119340286Y-51077762D01*
X119245048Y-51125381D01*
X118959333Y-51125381D01*
X118864095Y-51077762D01*
X118816476Y-51030143D01*
X120292667Y-50125381D02*
X120102190Y-50125381D01*
X120006952Y-50173000D01*
X119959333Y-50220619D01*
X119864095Y-50363476D01*
X119816476Y-50553952D01*
X119816476Y-50934905D01*
X119864095Y-51030143D01*
X119911714Y-51077762D01*
X120006952Y-51125381D01*
X120197429Y-51125381D01*
X120292667Y-51077762D01*
X120340286Y-51030143D01*
X120387905Y-50934905D01*
X120387905Y-50696810D01*
X120340286Y-50601571D01*
X120292667Y-50553952D01*
X120197429Y-50506333D01*
X120006952Y-50506333D01*
X119911714Y-50553952D01*
X119864095Y-50601571D01*
X119816476Y-50696810D01*
X115965048Y-49706429D02*
X116726953Y-49706429D01*
X116346001Y-50087381D02*
X116346001Y-49325476D01*
X118467143Y-72143857D02*
X118514762Y-72191476D01*
X118562381Y-72334333D01*
X118562381Y-72429571D01*
X118514762Y-72572429D01*
X118419524Y-72667667D01*
X118324286Y-72715286D01*
X118133810Y-72762905D01*
X117990952Y-72762905D01*
X117800476Y-72715286D01*
X117705238Y-72667667D01*
X117610000Y-72572429D01*
X117562381Y-72429571D01*
X117562381Y-72334333D01*
X117610000Y-72191476D01*
X117657619Y-72143857D01*
X117562381Y-71810524D02*
X117562381Y-71191476D01*
X117943333Y-71524810D01*
X117943333Y-71381952D01*
X117990952Y-71286714D01*
X118038571Y-71239095D01*
X118133810Y-71191476D01*
X118371905Y-71191476D01*
X118467143Y-71239095D01*
X118514762Y-71286714D01*
X118562381Y-71381952D01*
X118562381Y-71667667D01*
X118514762Y-71762905D01*
X118467143Y-71810524D01*
X117562381Y-70858143D02*
X117562381Y-70191476D01*
X118562381Y-70620048D01*
X122547143Y-63222143D02*
X122499524Y-63269762D01*
X122356667Y-63317381D01*
X122261429Y-63317381D01*
X122118571Y-63269762D01*
X122023333Y-63174524D01*
X121975714Y-63079286D01*
X121928095Y-62888810D01*
X121928095Y-62745952D01*
X121975714Y-62555476D01*
X122023333Y-62460238D01*
X122118571Y-62365000D01*
X122261429Y-62317381D01*
X122356667Y-62317381D01*
X122499524Y-62365000D01*
X122547143Y-62412619D01*
X122880476Y-62317381D02*
X123499524Y-62317381D01*
X123166190Y-62698333D01*
X123309048Y-62698333D01*
X123404286Y-62745952D01*
X123451905Y-62793571D01*
X123499524Y-62888810D01*
X123499524Y-63126905D01*
X123451905Y-63222143D01*
X123404286Y-63269762D01*
X123309048Y-63317381D01*
X123023333Y-63317381D01*
X122928095Y-63269762D01*
X122880476Y-63222143D01*
X124070952Y-62745952D02*
X123975714Y-62698333D01*
X123928095Y-62650714D01*
X123880476Y-62555476D01*
X123880476Y-62507857D01*
X123928095Y-62412619D01*
X123975714Y-62365000D01*
X124070952Y-62317381D01*
X124261429Y-62317381D01*
X124356667Y-62365000D01*
X124404286Y-62412619D01*
X124451905Y-62507857D01*
X124451905Y-62555476D01*
X124404286Y-62650714D01*
X124356667Y-62698333D01*
X124261429Y-62745952D01*
X124070952Y-62745952D01*
X123975714Y-62793571D01*
X123928095Y-62841190D01*
X123880476Y-62936429D01*
X123880476Y-63126905D01*
X123928095Y-63222143D01*
X123975714Y-63269762D01*
X124070952Y-63317381D01*
X124261429Y-63317381D01*
X124356667Y-63269762D01*
X124404286Y-63222143D01*
X124451905Y-63126905D01*
X124451905Y-62936429D01*
X124404286Y-62841190D01*
X124356667Y-62793571D01*
X124261429Y-62745952D01*
X142531143Y-71952143D02*
X142483524Y-71999762D01*
X142340667Y-72047381D01*
X142245429Y-72047381D01*
X142102571Y-71999762D01*
X142007333Y-71904524D01*
X141959714Y-71809286D01*
X141912095Y-71618810D01*
X141912095Y-71475952D01*
X141959714Y-71285476D01*
X142007333Y-71190238D01*
X142102571Y-71095000D01*
X142245429Y-71047381D01*
X142340667Y-71047381D01*
X142483524Y-71095000D01*
X142531143Y-71142619D01*
X142864476Y-71047381D02*
X143483524Y-71047381D01*
X143150190Y-71428333D01*
X143293048Y-71428333D01*
X143388286Y-71475952D01*
X143435905Y-71523571D01*
X143483524Y-71618810D01*
X143483524Y-71856905D01*
X143435905Y-71952143D01*
X143388286Y-71999762D01*
X143293048Y-72047381D01*
X143007333Y-72047381D01*
X142912095Y-71999762D01*
X142864476Y-71952143D01*
X143959714Y-72047381D02*
X144150190Y-72047381D01*
X144245429Y-71999762D01*
X144293048Y-71952143D01*
X144388286Y-71809286D01*
X144435905Y-71618810D01*
X144435905Y-71237857D01*
X144388286Y-71142619D01*
X144340667Y-71095000D01*
X144245429Y-71047381D01*
X144054952Y-71047381D01*
X143959714Y-71095000D01*
X143912095Y-71142619D01*
X143864476Y-71237857D01*
X143864476Y-71475952D01*
X143912095Y-71571190D01*
X143959714Y-71618810D01*
X144054952Y-71666429D01*
X144245429Y-71666429D01*
X144340667Y-71618810D01*
X144388286Y-71571190D01*
X144435905Y-71475952D01*
X113881143Y-84467857D02*
X113928762Y-84515476D01*
X113976381Y-84658333D01*
X113976381Y-84753571D01*
X113928762Y-84896429D01*
X113833524Y-84991667D01*
X113738286Y-85039286D01*
X113547810Y-85086905D01*
X113404952Y-85086905D01*
X113214476Y-85039286D01*
X113119238Y-84991667D01*
X113024000Y-84896429D01*
X112976381Y-84753571D01*
X112976381Y-84658333D01*
X113024000Y-84515476D01*
X113071619Y-84467857D01*
X113309714Y-83610714D02*
X113976381Y-83610714D01*
X112928762Y-83848810D02*
X113643048Y-84086905D01*
X113643048Y-83467857D01*
X112976381Y-82896429D02*
X112976381Y-82801190D01*
X113024000Y-82705952D01*
X113071619Y-82658333D01*
X113166857Y-82610714D01*
X113357333Y-82563095D01*
X113595429Y-82563095D01*
X113785905Y-82610714D01*
X113881143Y-82658333D01*
X113928762Y-82705952D01*
X113976381Y-82801190D01*
X113976381Y-82896429D01*
X113928762Y-82991667D01*
X113881143Y-83039286D01*
X113785905Y-83086905D01*
X113595429Y-83134524D01*
X113357333Y-83134524D01*
X113166857Y-83086905D01*
X113071619Y-83039286D01*
X113024000Y-82991667D01*
X112976381Y-82896429D01*
X113085429Y-81225952D02*
X113085429Y-80464047D01*
X113466381Y-80844999D02*
X112704476Y-80844999D01*
X145637143Y-92047857D02*
X145684762Y-92095476D01*
X145732381Y-92238333D01*
X145732381Y-92333571D01*
X145684762Y-92476429D01*
X145589524Y-92571667D01*
X145494286Y-92619286D01*
X145303810Y-92666905D01*
X145160952Y-92666905D01*
X144970476Y-92619286D01*
X144875238Y-92571667D01*
X144780000Y-92476429D01*
X144732381Y-92333571D01*
X144732381Y-92238333D01*
X144780000Y-92095476D01*
X144827619Y-92047857D01*
X145065714Y-91190714D02*
X145732381Y-91190714D01*
X144684762Y-91428810D02*
X145399048Y-91666905D01*
X145399048Y-91047857D01*
X145732381Y-90143095D02*
X145732381Y-90714524D01*
X145732381Y-90428810D02*
X144732381Y-90428810D01*
X144875238Y-90524048D01*
X144970476Y-90619286D01*
X145018095Y-90714524D01*
X150691143Y-92067857D02*
X150738762Y-92115476D01*
X150786381Y-92258333D01*
X150786381Y-92353571D01*
X150738762Y-92496429D01*
X150643524Y-92591667D01*
X150548286Y-92639286D01*
X150357810Y-92686905D01*
X150214952Y-92686905D01*
X150024476Y-92639286D01*
X149929238Y-92591667D01*
X149834000Y-92496429D01*
X149786381Y-92353571D01*
X149786381Y-92258333D01*
X149834000Y-92115476D01*
X149881619Y-92067857D01*
X150119714Y-91210714D02*
X150786381Y-91210714D01*
X149738762Y-91448810D02*
X150453048Y-91686905D01*
X150453048Y-91067857D01*
X149881619Y-90734524D02*
X149834000Y-90686905D01*
X149786381Y-90591667D01*
X149786381Y-90353571D01*
X149834000Y-90258333D01*
X149881619Y-90210714D01*
X149976857Y-90163095D01*
X150072095Y-90163095D01*
X150214952Y-90210714D01*
X150786381Y-90782143D01*
X150786381Y-90163095D01*
X143486143Y-96781857D02*
X143533762Y-96829476D01*
X143581381Y-96972333D01*
X143581381Y-97067571D01*
X143533762Y-97210429D01*
X143438524Y-97305667D01*
X143343286Y-97353286D01*
X143152810Y-97400905D01*
X143009952Y-97400905D01*
X142819476Y-97353286D01*
X142724238Y-97305667D01*
X142629000Y-97210429D01*
X142581381Y-97067571D01*
X142581381Y-96972333D01*
X142629000Y-96829476D01*
X142676619Y-96781857D01*
X142914714Y-95924714D02*
X143581381Y-95924714D01*
X142533762Y-96162810D02*
X143248048Y-96400905D01*
X143248048Y-95781857D01*
X142581381Y-95496143D02*
X142581381Y-94877095D01*
X142962333Y-95210429D01*
X142962333Y-95067571D01*
X143009952Y-94972333D01*
X143057571Y-94924714D01*
X143152810Y-94877095D01*
X143390905Y-94877095D01*
X143486143Y-94924714D01*
X143533762Y-94972333D01*
X143581381Y-95067571D01*
X143581381Y-95353286D01*
X143533762Y-95448524D01*
X143486143Y-95496143D01*
X106957905Y-89860381D02*
X106957905Y-88860381D01*
X107196000Y-88860381D01*
X107338858Y-88908000D01*
X107434096Y-89003238D01*
X107481715Y-89098476D01*
X107529334Y-89288952D01*
X107529334Y-89431810D01*
X107481715Y-89622286D01*
X107434096Y-89717524D01*
X107338858Y-89812762D01*
X107196000Y-89860381D01*
X106957905Y-89860381D01*
X108481715Y-89860381D02*
X107910286Y-89860381D01*
X108196000Y-89860381D02*
X108196000Y-88860381D01*
X108100762Y-89003238D01*
X108005524Y-89098476D01*
X107910286Y-89146095D01*
X98242381Y-46966095D02*
X97242381Y-46966095D01*
X97242381Y-46728000D01*
X97290000Y-46585142D01*
X97385238Y-46489904D01*
X97480476Y-46442285D01*
X97670952Y-46394666D01*
X97813810Y-46394666D01*
X98004286Y-46442285D01*
X98099524Y-46489904D01*
X98194762Y-46585142D01*
X98242381Y-46728000D01*
X98242381Y-46966095D01*
X97337619Y-46013714D02*
X97290000Y-45966095D01*
X97242381Y-45870857D01*
X97242381Y-45632761D01*
X97290000Y-45537523D01*
X97337619Y-45489904D01*
X97432857Y-45442285D01*
X97528095Y-45442285D01*
X97670952Y-45489904D01*
X98242381Y-46061333D01*
X98242381Y-45442285D01*
X108886667Y-100290381D02*
X108886667Y-101004667D01*
X108839047Y-101147524D01*
X108743809Y-101242762D01*
X108600952Y-101290381D01*
X108505714Y-101290381D01*
X109886667Y-101290381D02*
X109315238Y-101290381D01*
X109600952Y-101290381D02*
X109600952Y-100290381D01*
X109505714Y-100433238D01*
X109410476Y-100528476D01*
X109315238Y-100576095D01*
X131746667Y-43601381D02*
X131746667Y-44315667D01*
X131699047Y-44458524D01*
X131603809Y-44553762D01*
X131460952Y-44601381D01*
X131365714Y-44601381D01*
X132127619Y-43601381D02*
X132746667Y-43601381D01*
X132413333Y-43982333D01*
X132556191Y-43982333D01*
X132651429Y-44029952D01*
X132699048Y-44077571D01*
X132746667Y-44172810D01*
X132746667Y-44410905D01*
X132699048Y-44506143D01*
X132651429Y-44553762D01*
X132556191Y-44601381D01*
X132270476Y-44601381D01*
X132175238Y-44553762D01*
X132127619Y-44506143D01*
X137856762Y-98195619D02*
X137761524Y-98148000D01*
X137666286Y-98052762D01*
X137523429Y-97909905D01*
X137428190Y-97862286D01*
X137332952Y-97862286D01*
X137380571Y-98100381D02*
X137285333Y-98052762D01*
X137190095Y-97957524D01*
X137142476Y-97767048D01*
X137142476Y-97433714D01*
X137190095Y-97243238D01*
X137285333Y-97148000D01*
X137380571Y-97100381D01*
X137571048Y-97100381D01*
X137666286Y-97148000D01*
X137761524Y-97243238D01*
X137809143Y-97433714D01*
X137809143Y-97767048D01*
X137761524Y-97957524D01*
X137666286Y-98052762D01*
X137571048Y-98100381D01*
X137380571Y-98100381D01*
X138761524Y-98100381D02*
X138190095Y-98100381D01*
X138475809Y-98100381D02*
X138475809Y-97100381D01*
X138380571Y-97243238D01*
X138285333Y-97338476D01*
X138190095Y-97386095D01*
X77882762Y-63285619D02*
X77787524Y-63238000D01*
X77692286Y-63142762D01*
X77549429Y-62999905D01*
X77454190Y-62952286D01*
X77358952Y-62952286D01*
X77406571Y-63190381D02*
X77311333Y-63142762D01*
X77216095Y-63047524D01*
X77168476Y-62857048D01*
X77168476Y-62523714D01*
X77216095Y-62333238D01*
X77311333Y-62238000D01*
X77406571Y-62190381D01*
X77597048Y-62190381D01*
X77692286Y-62238000D01*
X77787524Y-62333238D01*
X77835143Y-62523714D01*
X77835143Y-62857048D01*
X77787524Y-63047524D01*
X77692286Y-63142762D01*
X77597048Y-63190381D01*
X77406571Y-63190381D01*
X78216095Y-62285619D02*
X78263714Y-62238000D01*
X78358952Y-62190381D01*
X78597048Y-62190381D01*
X78692286Y-62238000D01*
X78739905Y-62285619D01*
X78787524Y-62380857D01*
X78787524Y-62476095D01*
X78739905Y-62618952D01*
X78168476Y-63190381D01*
X78787524Y-63190381D01*
X152226381Y-58991666D02*
X151750190Y-59325000D01*
X152226381Y-59563095D02*
X151226381Y-59563095D01*
X151226381Y-59182142D01*
X151274000Y-59086904D01*
X151321619Y-59039285D01*
X151416857Y-58991666D01*
X151559714Y-58991666D01*
X151654952Y-59039285D01*
X151702571Y-59086904D01*
X151750190Y-59182142D01*
X151750190Y-59563095D01*
X152226381Y-58039285D02*
X152226381Y-58610714D01*
X152226381Y-58325000D02*
X151226381Y-58325000D01*
X151369238Y-58420238D01*
X151464476Y-58515476D01*
X151512095Y-58610714D01*
X101433334Y-94940381D02*
X101100000Y-94464190D01*
X100861905Y-94940381D02*
X100861905Y-93940381D01*
X101242858Y-93940381D01*
X101338096Y-93988000D01*
X101385715Y-94035619D01*
X101433334Y-94130857D01*
X101433334Y-94273714D01*
X101385715Y-94368952D01*
X101338096Y-94416571D01*
X101242858Y-94464190D01*
X100861905Y-94464190D01*
X101814286Y-94035619D02*
X101861905Y-93988000D01*
X101957143Y-93940381D01*
X102195239Y-93940381D01*
X102290477Y-93988000D01*
X102338096Y-94035619D01*
X102385715Y-94130857D01*
X102385715Y-94226095D01*
X102338096Y-94368952D01*
X101766667Y-94940381D01*
X102385715Y-94940381D01*
X158440381Y-64241666D02*
X157964190Y-64575000D01*
X158440381Y-64813095D02*
X157440381Y-64813095D01*
X157440381Y-64432142D01*
X157488000Y-64336904D01*
X157535619Y-64289285D01*
X157630857Y-64241666D01*
X157773714Y-64241666D01*
X157868952Y-64289285D01*
X157916571Y-64336904D01*
X157964190Y-64432142D01*
X157964190Y-64813095D01*
X157440381Y-63908333D02*
X157440381Y-63289285D01*
X157821333Y-63622619D01*
X157821333Y-63479761D01*
X157868952Y-63384523D01*
X157916571Y-63336904D01*
X158011810Y-63289285D01*
X158249905Y-63289285D01*
X158345143Y-63336904D01*
X158392762Y-63384523D01*
X158440381Y-63479761D01*
X158440381Y-63765476D01*
X158392762Y-63860714D01*
X158345143Y-63908333D01*
X141236381Y-68619666D02*
X140760190Y-68953000D01*
X141236381Y-69191095D02*
X140236381Y-69191095D01*
X140236381Y-68810142D01*
X140284000Y-68714904D01*
X140331619Y-68667285D01*
X140426857Y-68619666D01*
X140569714Y-68619666D01*
X140664952Y-68667285D01*
X140712571Y-68714904D01*
X140760190Y-68810142D01*
X140760190Y-69191095D01*
X140569714Y-67762523D02*
X141236381Y-67762523D01*
X140188762Y-68000619D02*
X140903048Y-68238714D01*
X140903048Y-67619666D01*
X140474381Y-58586666D02*
X139998190Y-58920000D01*
X140474381Y-59158095D02*
X139474381Y-59158095D01*
X139474381Y-58777142D01*
X139522000Y-58681904D01*
X139569619Y-58634285D01*
X139664857Y-58586666D01*
X139807714Y-58586666D01*
X139902952Y-58634285D01*
X139950571Y-58681904D01*
X139998190Y-58777142D01*
X139998190Y-59158095D01*
X139474381Y-57681904D02*
X139474381Y-58158095D01*
X139950571Y-58205714D01*
X139902952Y-58158095D01*
X139855333Y-58062857D01*
X139855333Y-57824761D01*
X139902952Y-57729523D01*
X139950571Y-57681904D01*
X140045810Y-57634285D01*
X140283905Y-57634285D01*
X140379143Y-57681904D01*
X140426762Y-57729523D01*
X140474381Y-57824761D01*
X140474381Y-58062857D01*
X140426762Y-58158095D01*
X140379143Y-58205714D01*
X101179334Y-102052381D02*
X100846000Y-101576190D01*
X100607905Y-102052381D02*
X100607905Y-101052381D01*
X100988858Y-101052381D01*
X101084096Y-101100000D01*
X101131715Y-101147619D01*
X101179334Y-101242857D01*
X101179334Y-101385714D01*
X101131715Y-101480952D01*
X101084096Y-101528571D01*
X100988858Y-101576190D01*
X100607905Y-101576190D01*
X102036477Y-101052381D02*
X101846000Y-101052381D01*
X101750762Y-101100000D01*
X101703143Y-101147619D01*
X101607905Y-101290476D01*
X101560286Y-101480952D01*
X101560286Y-101861905D01*
X101607905Y-101957143D01*
X101655524Y-102004762D01*
X101750762Y-102052381D01*
X101941239Y-102052381D01*
X102036477Y-102004762D01*
X102084096Y-101957143D01*
X102131715Y-101861905D01*
X102131715Y-101623810D01*
X102084096Y-101528571D01*
X102036477Y-101480952D01*
X101941239Y-101433333D01*
X101750762Y-101433333D01*
X101655524Y-101480952D01*
X101607905Y-101528571D01*
X101560286Y-101623810D01*
X131516381Y-91141666D02*
X131040190Y-91475000D01*
X131516381Y-91713095D02*
X130516381Y-91713095D01*
X130516381Y-91332142D01*
X130564000Y-91236904D01*
X130611619Y-91189285D01*
X130706857Y-91141666D01*
X130849714Y-91141666D01*
X130944952Y-91189285D01*
X130992571Y-91236904D01*
X131040190Y-91332142D01*
X131040190Y-91713095D01*
X130516381Y-90808333D02*
X130516381Y-90141666D01*
X131516381Y-90570238D01*
X81367334Y-79446381D02*
X81034000Y-78970190D01*
X80795905Y-79446381D02*
X80795905Y-78446381D01*
X81176858Y-78446381D01*
X81272096Y-78494000D01*
X81319715Y-78541619D01*
X81367334Y-78636857D01*
X81367334Y-78779714D01*
X81319715Y-78874952D01*
X81272096Y-78922571D01*
X81176858Y-78970190D01*
X80795905Y-78970190D01*
X81938762Y-78874952D02*
X81843524Y-78827333D01*
X81795905Y-78779714D01*
X81748286Y-78684476D01*
X81748286Y-78636857D01*
X81795905Y-78541619D01*
X81843524Y-78494000D01*
X81938762Y-78446381D01*
X82129239Y-78446381D01*
X82224477Y-78494000D01*
X82272096Y-78541619D01*
X82319715Y-78636857D01*
X82319715Y-78684476D01*
X82272096Y-78779714D01*
X82224477Y-78827333D01*
X82129239Y-78874952D01*
X81938762Y-78874952D01*
X81843524Y-78922571D01*
X81795905Y-78970190D01*
X81748286Y-79065429D01*
X81748286Y-79255905D01*
X81795905Y-79351143D01*
X81843524Y-79398762D01*
X81938762Y-79446381D01*
X82129239Y-79446381D01*
X82224477Y-79398762D01*
X82272096Y-79351143D01*
X82319715Y-79255905D01*
X82319715Y-79065429D01*
X82272096Y-78970190D01*
X82224477Y-78922571D01*
X82129239Y-78874952D01*
X113736381Y-90336666D02*
X113260190Y-90670000D01*
X113736381Y-90908095D02*
X112736381Y-90908095D01*
X112736381Y-90527142D01*
X112784000Y-90431904D01*
X112831619Y-90384285D01*
X112926857Y-90336666D01*
X113069714Y-90336666D01*
X113164952Y-90384285D01*
X113212571Y-90431904D01*
X113260190Y-90527142D01*
X113260190Y-90908095D01*
X113736381Y-89860476D02*
X113736381Y-89670000D01*
X113688762Y-89574761D01*
X113641143Y-89527142D01*
X113498286Y-89431904D01*
X113307810Y-89384285D01*
X112926857Y-89384285D01*
X112831619Y-89431904D01*
X112784000Y-89479523D01*
X112736381Y-89574761D01*
X112736381Y-89765238D01*
X112784000Y-89860476D01*
X112831619Y-89908095D01*
X112926857Y-89955714D01*
X113164952Y-89955714D01*
X113260190Y-89908095D01*
X113307810Y-89860476D01*
X113355429Y-89765238D01*
X113355429Y-89574761D01*
X113307810Y-89479523D01*
X113260190Y-89431904D01*
X113164952Y-89384285D01*
X121102381Y-90939857D02*
X120626190Y-91273191D01*
X121102381Y-91511286D02*
X120102381Y-91511286D01*
X120102381Y-91130333D01*
X120150000Y-91035095D01*
X120197619Y-90987476D01*
X120292857Y-90939857D01*
X120435714Y-90939857D01*
X120530952Y-90987476D01*
X120578571Y-91035095D01*
X120626190Y-91130333D01*
X120626190Y-91511286D01*
X121102381Y-89987476D02*
X121102381Y-90558905D01*
X121102381Y-90273191D02*
X120102381Y-90273191D01*
X120245238Y-90368429D01*
X120340476Y-90463667D01*
X120388095Y-90558905D01*
X120102381Y-89368429D02*
X120102381Y-89273190D01*
X120150000Y-89177952D01*
X120197619Y-89130333D01*
X120292857Y-89082714D01*
X120483333Y-89035095D01*
X120721429Y-89035095D01*
X120911905Y-89082714D01*
X121007143Y-89130333D01*
X121054762Y-89177952D01*
X121102381Y-89273190D01*
X121102381Y-89368429D01*
X121054762Y-89463667D01*
X121007143Y-89511286D01*
X120911905Y-89558905D01*
X120721429Y-89606524D01*
X120483333Y-89606524D01*
X120292857Y-89558905D01*
X120197619Y-89511286D01*
X120150000Y-89463667D01*
X120102381Y-89368429D01*
X95877143Y-79700381D02*
X95543809Y-79224190D01*
X95305714Y-79700381D02*
X95305714Y-78700381D01*
X95686667Y-78700381D01*
X95781905Y-78748000D01*
X95829524Y-78795619D01*
X95877143Y-78890857D01*
X95877143Y-79033714D01*
X95829524Y-79128952D01*
X95781905Y-79176571D01*
X95686667Y-79224190D01*
X95305714Y-79224190D01*
X96829524Y-79700381D02*
X96258095Y-79700381D01*
X96543809Y-79700381D02*
X96543809Y-78700381D01*
X96448571Y-78843238D01*
X96353333Y-78938476D01*
X96258095Y-78986095D01*
X97781905Y-79700381D02*
X97210476Y-79700381D01*
X97496190Y-79700381D02*
X97496190Y-78700381D01*
X97400952Y-78843238D01*
X97305714Y-78938476D01*
X97210476Y-78986095D01*
X100782381Y-51696857D02*
X100306190Y-52030191D01*
X100782381Y-52268286D02*
X99782381Y-52268286D01*
X99782381Y-51887333D01*
X99830000Y-51792095D01*
X99877619Y-51744476D01*
X99972857Y-51696857D01*
X100115714Y-51696857D01*
X100210952Y-51744476D01*
X100258571Y-51792095D01*
X100306190Y-51887333D01*
X100306190Y-52268286D01*
X100782381Y-50744476D02*
X100782381Y-51315905D01*
X100782381Y-51030191D02*
X99782381Y-51030191D01*
X99925238Y-51125429D01*
X100020476Y-51220667D01*
X100068095Y-51315905D01*
X99877619Y-50363524D02*
X99830000Y-50315905D01*
X99782381Y-50220667D01*
X99782381Y-49982571D01*
X99830000Y-49887333D01*
X99877619Y-49839714D01*
X99972857Y-49792095D01*
X100068095Y-49792095D01*
X100210952Y-49839714D01*
X100782381Y-50411143D01*
X100782381Y-49792095D01*
X158440381Y-59697857D02*
X157964190Y-60031191D01*
X158440381Y-60269286D02*
X157440381Y-60269286D01*
X157440381Y-59888333D01*
X157488000Y-59793095D01*
X157535619Y-59745476D01*
X157630857Y-59697857D01*
X157773714Y-59697857D01*
X157868952Y-59745476D01*
X157916571Y-59793095D01*
X157964190Y-59888333D01*
X157964190Y-60269286D01*
X158440381Y-58745476D02*
X158440381Y-59316905D01*
X158440381Y-59031191D02*
X157440381Y-59031191D01*
X157583238Y-59126429D01*
X157678476Y-59221667D01*
X157726095Y-59316905D01*
X157440381Y-58412143D02*
X157440381Y-57793095D01*
X157821333Y-58126429D01*
X157821333Y-57983571D01*
X157868952Y-57888333D01*
X157916571Y-57840714D01*
X158011810Y-57793095D01*
X158249905Y-57793095D01*
X158345143Y-57840714D01*
X158392762Y-57888333D01*
X158440381Y-57983571D01*
X158440381Y-58269286D01*
X158392762Y-58364524D01*
X158345143Y-58412143D01*
X122547143Y-57221381D02*
X122213809Y-56745190D01*
X121975714Y-57221381D02*
X121975714Y-56221381D01*
X122356667Y-56221381D01*
X122451905Y-56269000D01*
X122499524Y-56316619D01*
X122547143Y-56411857D01*
X122547143Y-56554714D01*
X122499524Y-56649952D01*
X122451905Y-56697571D01*
X122356667Y-56745190D01*
X121975714Y-56745190D01*
X123499524Y-57221381D02*
X122928095Y-57221381D01*
X123213809Y-57221381D02*
X123213809Y-56221381D01*
X123118571Y-56364238D01*
X123023333Y-56459476D01*
X122928095Y-56507095D01*
X124356667Y-56554714D02*
X124356667Y-57221381D01*
X124118571Y-56173762D02*
X123880476Y-56888048D01*
X124499524Y-56888048D01*
X116197143Y-80335381D02*
X115863809Y-79859190D01*
X115625714Y-80335381D02*
X115625714Y-79335381D01*
X116006667Y-79335381D01*
X116101905Y-79383000D01*
X116149524Y-79430619D01*
X116197143Y-79525857D01*
X116197143Y-79668714D01*
X116149524Y-79763952D01*
X116101905Y-79811571D01*
X116006667Y-79859190D01*
X115625714Y-79859190D01*
X117149524Y-80335381D02*
X116578095Y-80335381D01*
X116863809Y-80335381D02*
X116863809Y-79335381D01*
X116768571Y-79478238D01*
X116673333Y-79573476D01*
X116578095Y-79621095D01*
X118054286Y-79335381D02*
X117578095Y-79335381D01*
X117530476Y-79811571D01*
X117578095Y-79763952D01*
X117673333Y-79716333D01*
X117911429Y-79716333D01*
X118006667Y-79763952D01*
X118054286Y-79811571D01*
X118101905Y-79906810D01*
X118101905Y-80144905D01*
X118054286Y-80240143D01*
X118006667Y-80287762D01*
X117911429Y-80335381D01*
X117673333Y-80335381D01*
X117578095Y-80287762D01*
X117530476Y-80240143D01*
X128135143Y-63317381D02*
X127801809Y-62841190D01*
X127563714Y-63317381D02*
X127563714Y-62317381D01*
X127944667Y-62317381D01*
X128039905Y-62365000D01*
X128087524Y-62412619D01*
X128135143Y-62507857D01*
X128135143Y-62650714D01*
X128087524Y-62745952D01*
X128039905Y-62793571D01*
X127944667Y-62841190D01*
X127563714Y-62841190D01*
X129087524Y-63317381D02*
X128516095Y-63317381D01*
X128801809Y-63317381D02*
X128801809Y-62317381D01*
X128706571Y-62460238D01*
X128611333Y-62555476D01*
X128516095Y-62603095D01*
X129944667Y-62317381D02*
X129754190Y-62317381D01*
X129658952Y-62365000D01*
X129611333Y-62412619D01*
X129516095Y-62555476D01*
X129468476Y-62745952D01*
X129468476Y-63126905D01*
X129516095Y-63222143D01*
X129563714Y-63269762D01*
X129658952Y-63317381D01*
X129849429Y-63317381D01*
X129944667Y-63269762D01*
X129992286Y-63222143D01*
X130039905Y-63126905D01*
X130039905Y-62888810D01*
X129992286Y-62793571D01*
X129944667Y-62745952D01*
X129849429Y-62698333D01*
X129658952Y-62698333D01*
X129563714Y-62745952D01*
X129516095Y-62793571D01*
X129468476Y-62888810D01*
X119753143Y-63317381D02*
X119419809Y-62841190D01*
X119181714Y-63317381D02*
X119181714Y-62317381D01*
X119562667Y-62317381D01*
X119657905Y-62365000D01*
X119705524Y-62412619D01*
X119753143Y-62507857D01*
X119753143Y-62650714D01*
X119705524Y-62745952D01*
X119657905Y-62793571D01*
X119562667Y-62841190D01*
X119181714Y-62841190D01*
X120705524Y-63317381D02*
X120134095Y-63317381D01*
X120419809Y-63317381D02*
X120419809Y-62317381D01*
X120324571Y-62460238D01*
X120229333Y-62555476D01*
X120134095Y-62603095D01*
X121038857Y-62317381D02*
X121705524Y-62317381D01*
X121276952Y-63317381D01*
X76573143Y-59380381D02*
X76239809Y-58904190D01*
X76001714Y-59380381D02*
X76001714Y-58380381D01*
X76382667Y-58380381D01*
X76477905Y-58428000D01*
X76525524Y-58475619D01*
X76573143Y-58570857D01*
X76573143Y-58713714D01*
X76525524Y-58808952D01*
X76477905Y-58856571D01*
X76382667Y-58904190D01*
X76001714Y-58904190D01*
X77525524Y-59380381D02*
X76954095Y-59380381D01*
X77239809Y-59380381D02*
X77239809Y-58380381D01*
X77144571Y-58523238D01*
X77049333Y-58618476D01*
X76954095Y-58666095D01*
X78096952Y-58808952D02*
X78001714Y-58761333D01*
X77954095Y-58713714D01*
X77906476Y-58618476D01*
X77906476Y-58570857D01*
X77954095Y-58475619D01*
X78001714Y-58428000D01*
X78096952Y-58380381D01*
X78287429Y-58380381D01*
X78382667Y-58428000D01*
X78430286Y-58475619D01*
X78477905Y-58570857D01*
X78477905Y-58618476D01*
X78430286Y-58713714D01*
X78382667Y-58761333D01*
X78287429Y-58808952D01*
X78096952Y-58808952D01*
X78001714Y-58856571D01*
X77954095Y-58904190D01*
X77906476Y-58999429D01*
X77906476Y-59189905D01*
X77954095Y-59285143D01*
X78001714Y-59332762D01*
X78096952Y-59380381D01*
X78287429Y-59380381D01*
X78382667Y-59332762D01*
X78430286Y-59285143D01*
X78477905Y-59189905D01*
X78477905Y-58999429D01*
X78430286Y-58904190D01*
X78382667Y-58856571D01*
X78287429Y-58808952D01*
X134310381Y-74429857D02*
X133834190Y-74763191D01*
X134310381Y-75001286D02*
X133310381Y-75001286D01*
X133310381Y-74620333D01*
X133358000Y-74525095D01*
X133405619Y-74477476D01*
X133500857Y-74429857D01*
X133643714Y-74429857D01*
X133738952Y-74477476D01*
X133786571Y-74525095D01*
X133834190Y-74620333D01*
X133834190Y-75001286D01*
X134310381Y-73477476D02*
X134310381Y-74048905D01*
X134310381Y-73763191D02*
X133310381Y-73763191D01*
X133453238Y-73858429D01*
X133548476Y-73953667D01*
X133596095Y-74048905D01*
X134310381Y-73001286D02*
X134310381Y-72810810D01*
X134262762Y-72715571D01*
X134215143Y-72667952D01*
X134072286Y-72572714D01*
X133881810Y-72525095D01*
X133500857Y-72525095D01*
X133405619Y-72572714D01*
X133358000Y-72620333D01*
X133310381Y-72715571D01*
X133310381Y-72906048D01*
X133358000Y-73001286D01*
X133405619Y-73048905D01*
X133500857Y-73096524D01*
X133738952Y-73096524D01*
X133834190Y-73048905D01*
X133881810Y-73001286D01*
X133929429Y-72906048D01*
X133929429Y-72715571D01*
X133881810Y-72620333D01*
X133834190Y-72572714D01*
X133738952Y-72525095D01*
X116959143Y-63317381D02*
X116625809Y-62841190D01*
X116387714Y-63317381D02*
X116387714Y-62317381D01*
X116768667Y-62317381D01*
X116863905Y-62365000D01*
X116911524Y-62412619D01*
X116959143Y-62507857D01*
X116959143Y-62650714D01*
X116911524Y-62745952D01*
X116863905Y-62793571D01*
X116768667Y-62841190D01*
X116387714Y-62841190D01*
X117340095Y-62412619D02*
X117387714Y-62365000D01*
X117482952Y-62317381D01*
X117721048Y-62317381D01*
X117816286Y-62365000D01*
X117863905Y-62412619D01*
X117911524Y-62507857D01*
X117911524Y-62603095D01*
X117863905Y-62745952D01*
X117292476Y-63317381D01*
X117911524Y-63317381D01*
X118530571Y-62317381D02*
X118625810Y-62317381D01*
X118721048Y-62365000D01*
X118768667Y-62412619D01*
X118816286Y-62507857D01*
X118863905Y-62698333D01*
X118863905Y-62936429D01*
X118816286Y-63126905D01*
X118768667Y-63222143D01*
X118721048Y-63269762D01*
X118625810Y-63317381D01*
X118530571Y-63317381D01*
X118435333Y-63269762D01*
X118387714Y-63222143D01*
X118340095Y-63126905D01*
X118292476Y-62936429D01*
X118292476Y-62698333D01*
X118340095Y-62507857D01*
X118387714Y-62412619D01*
X118435333Y-62365000D01*
X118530571Y-62317381D01*
X130929143Y-63317381D02*
X130595809Y-62841190D01*
X130357714Y-63317381D02*
X130357714Y-62317381D01*
X130738667Y-62317381D01*
X130833905Y-62365000D01*
X130881524Y-62412619D01*
X130929143Y-62507857D01*
X130929143Y-62650714D01*
X130881524Y-62745952D01*
X130833905Y-62793571D01*
X130738667Y-62841190D01*
X130357714Y-62841190D01*
X131310095Y-62412619D02*
X131357714Y-62365000D01*
X131452952Y-62317381D01*
X131691048Y-62317381D01*
X131786286Y-62365000D01*
X131833905Y-62412619D01*
X131881524Y-62507857D01*
X131881524Y-62603095D01*
X131833905Y-62745952D01*
X131262476Y-63317381D01*
X131881524Y-63317381D01*
X132833905Y-63317381D02*
X132262476Y-63317381D01*
X132548190Y-63317381D02*
X132548190Y-62317381D01*
X132452952Y-62460238D01*
X132357714Y-62555476D01*
X132262476Y-62603095D01*
X81399143Y-63190381D02*
X81065809Y-62714190D01*
X80827714Y-63190381D02*
X80827714Y-62190381D01*
X81208667Y-62190381D01*
X81303905Y-62238000D01*
X81351524Y-62285619D01*
X81399143Y-62380857D01*
X81399143Y-62523714D01*
X81351524Y-62618952D01*
X81303905Y-62666571D01*
X81208667Y-62714190D01*
X80827714Y-62714190D01*
X81780095Y-62285619D02*
X81827714Y-62238000D01*
X81922952Y-62190381D01*
X82161048Y-62190381D01*
X82256286Y-62238000D01*
X82303905Y-62285619D01*
X82351524Y-62380857D01*
X82351524Y-62476095D01*
X82303905Y-62618952D01*
X81732476Y-63190381D01*
X82351524Y-63190381D01*
X82732476Y-62285619D02*
X82780095Y-62238000D01*
X82875333Y-62190381D01*
X83113429Y-62190381D01*
X83208667Y-62238000D01*
X83256286Y-62285619D01*
X83303905Y-62380857D01*
X83303905Y-62476095D01*
X83256286Y-62618952D01*
X82684857Y-63190381D01*
X83303905Y-63190381D01*
X114165143Y-51125381D02*
X113831809Y-50649190D01*
X113593714Y-51125381D02*
X113593714Y-50125381D01*
X113974667Y-50125381D01*
X114069905Y-50173000D01*
X114117524Y-50220619D01*
X114165143Y-50315857D01*
X114165143Y-50458714D01*
X114117524Y-50553952D01*
X114069905Y-50601571D01*
X113974667Y-50649190D01*
X113593714Y-50649190D01*
X114546095Y-50220619D02*
X114593714Y-50173000D01*
X114688952Y-50125381D01*
X114927048Y-50125381D01*
X115022286Y-50173000D01*
X115069905Y-50220619D01*
X115117524Y-50315857D01*
X115117524Y-50411095D01*
X115069905Y-50553952D01*
X114498476Y-51125381D01*
X115117524Y-51125381D01*
X115450857Y-50125381D02*
X116069905Y-50125381D01*
X115736571Y-50506333D01*
X115879429Y-50506333D01*
X115974667Y-50553952D01*
X116022286Y-50601571D01*
X116069905Y-50696810D01*
X116069905Y-50934905D01*
X116022286Y-51030143D01*
X115974667Y-51077762D01*
X115879429Y-51125381D01*
X115593714Y-51125381D01*
X115498476Y-51077762D01*
X115450857Y-51030143D01*
X110942381Y-54109857D02*
X110466190Y-54443191D01*
X110942381Y-54681286D02*
X109942381Y-54681286D01*
X109942381Y-54300333D01*
X109990000Y-54205095D01*
X110037619Y-54157476D01*
X110132857Y-54109857D01*
X110275714Y-54109857D01*
X110370952Y-54157476D01*
X110418571Y-54205095D01*
X110466190Y-54300333D01*
X110466190Y-54681286D01*
X110037619Y-53728905D02*
X109990000Y-53681286D01*
X109942381Y-53586048D01*
X109942381Y-53347952D01*
X109990000Y-53252714D01*
X110037619Y-53205095D01*
X110132857Y-53157476D01*
X110228095Y-53157476D01*
X110370952Y-53205095D01*
X110942381Y-53776524D01*
X110942381Y-53157476D01*
X110275714Y-52300333D02*
X110942381Y-52300333D01*
X109894762Y-52538429D02*
X110609048Y-52776524D01*
X110609048Y-52157476D01*
X81653143Y-66746381D02*
X81319809Y-66270190D01*
X81081714Y-66746381D02*
X81081714Y-65746381D01*
X81462667Y-65746381D01*
X81557905Y-65794000D01*
X81605524Y-65841619D01*
X81653143Y-65936857D01*
X81653143Y-66079714D01*
X81605524Y-66174952D01*
X81557905Y-66222571D01*
X81462667Y-66270190D01*
X81081714Y-66270190D01*
X82034095Y-65841619D02*
X82081714Y-65794000D01*
X82176952Y-65746381D01*
X82415048Y-65746381D01*
X82510286Y-65794000D01*
X82557905Y-65841619D01*
X82605524Y-65936857D01*
X82605524Y-66032095D01*
X82557905Y-66174952D01*
X81986476Y-66746381D01*
X82605524Y-66746381D01*
X83510286Y-65746381D02*
X83034095Y-65746381D01*
X82986476Y-66222571D01*
X83034095Y-66174952D01*
X83129333Y-66127333D01*
X83367429Y-66127333D01*
X83462667Y-66174952D01*
X83510286Y-66222571D01*
X83557905Y-66317810D01*
X83557905Y-66555905D01*
X83510286Y-66651143D01*
X83462667Y-66698762D01*
X83367429Y-66746381D01*
X83129333Y-66746381D01*
X83034095Y-66698762D01*
X82986476Y-66651143D01*
X133723143Y-57221381D02*
X133389809Y-56745190D01*
X133151714Y-57221381D02*
X133151714Y-56221381D01*
X133532667Y-56221381D01*
X133627905Y-56269000D01*
X133675524Y-56316619D01*
X133723143Y-56411857D01*
X133723143Y-56554714D01*
X133675524Y-56649952D01*
X133627905Y-56697571D01*
X133532667Y-56745190D01*
X133151714Y-56745190D01*
X134104095Y-56316619D02*
X134151714Y-56269000D01*
X134246952Y-56221381D01*
X134485048Y-56221381D01*
X134580286Y-56269000D01*
X134627905Y-56316619D01*
X134675524Y-56411857D01*
X134675524Y-56507095D01*
X134627905Y-56649952D01*
X134056476Y-57221381D01*
X134675524Y-57221381D01*
X135532667Y-56221381D02*
X135342190Y-56221381D01*
X135246952Y-56269000D01*
X135199333Y-56316619D01*
X135104095Y-56459476D01*
X135056476Y-56649952D01*
X135056476Y-57030905D01*
X135104095Y-57126143D01*
X135151714Y-57173762D01*
X135246952Y-57221381D01*
X135437429Y-57221381D01*
X135532667Y-57173762D01*
X135580286Y-57126143D01*
X135627905Y-57030905D01*
X135627905Y-56792810D01*
X135580286Y-56697571D01*
X135532667Y-56649952D01*
X135437429Y-56602333D01*
X135246952Y-56602333D01*
X135151714Y-56649952D01*
X135104095Y-56697571D01*
X135056476Y-56792810D01*
X137612381Y-68841857D02*
X137136190Y-69175191D01*
X137612381Y-69413286D02*
X136612381Y-69413286D01*
X136612381Y-69032333D01*
X136660000Y-68937095D01*
X136707619Y-68889476D01*
X136802857Y-68841857D01*
X136945714Y-68841857D01*
X137040952Y-68889476D01*
X137088571Y-68937095D01*
X137136190Y-69032333D01*
X137136190Y-69413286D01*
X136707619Y-68460905D02*
X136660000Y-68413286D01*
X136612381Y-68318048D01*
X136612381Y-68079952D01*
X136660000Y-67984714D01*
X136707619Y-67937095D01*
X136802857Y-67889476D01*
X136898095Y-67889476D01*
X137040952Y-67937095D01*
X137612381Y-68508524D01*
X137612381Y-67889476D01*
X136612381Y-67556143D02*
X136612381Y-66889476D01*
X137612381Y-67318048D01*
X113149143Y-45537381D02*
X112815809Y-45061190D01*
X112577714Y-45537381D02*
X112577714Y-44537381D01*
X112958667Y-44537381D01*
X113053905Y-44585000D01*
X113101524Y-44632619D01*
X113149143Y-44727857D01*
X113149143Y-44870714D01*
X113101524Y-44965952D01*
X113053905Y-45013571D01*
X112958667Y-45061190D01*
X112577714Y-45061190D01*
X113530095Y-44632619D02*
X113577714Y-44585000D01*
X113672952Y-44537381D01*
X113911048Y-44537381D01*
X114006286Y-44585000D01*
X114053905Y-44632619D01*
X114101524Y-44727857D01*
X114101524Y-44823095D01*
X114053905Y-44965952D01*
X113482476Y-45537381D01*
X114101524Y-45537381D01*
X114672952Y-44965952D02*
X114577714Y-44918333D01*
X114530095Y-44870714D01*
X114482476Y-44775476D01*
X114482476Y-44727857D01*
X114530095Y-44632619D01*
X114577714Y-44585000D01*
X114672952Y-44537381D01*
X114863429Y-44537381D01*
X114958667Y-44585000D01*
X115006286Y-44632619D01*
X115053905Y-44727857D01*
X115053905Y-44775476D01*
X115006286Y-44870714D01*
X114958667Y-44918333D01*
X114863429Y-44965952D01*
X114672952Y-44965952D01*
X114577714Y-45013571D01*
X114530095Y-45061190D01*
X114482476Y-45156429D01*
X114482476Y-45346905D01*
X114530095Y-45442143D01*
X114577714Y-45489762D01*
X114672952Y-45537381D01*
X114863429Y-45537381D01*
X114958667Y-45489762D01*
X115006286Y-45442143D01*
X115053905Y-45346905D01*
X115053905Y-45156429D01*
X115006286Y-45061190D01*
X114958667Y-45013571D01*
X114863429Y-44965952D01*
X110355143Y-45537381D02*
X110021809Y-45061190D01*
X109783714Y-45537381D02*
X109783714Y-44537381D01*
X110164667Y-44537381D01*
X110259905Y-44585000D01*
X110307524Y-44632619D01*
X110355143Y-44727857D01*
X110355143Y-44870714D01*
X110307524Y-44965952D01*
X110259905Y-45013571D01*
X110164667Y-45061190D01*
X109783714Y-45061190D01*
X110736095Y-44632619D02*
X110783714Y-44585000D01*
X110878952Y-44537381D01*
X111117048Y-44537381D01*
X111212286Y-44585000D01*
X111259905Y-44632619D01*
X111307524Y-44727857D01*
X111307524Y-44823095D01*
X111259905Y-44965952D01*
X110688476Y-45537381D01*
X111307524Y-45537381D01*
X111783714Y-45537381D02*
X111974190Y-45537381D01*
X112069429Y-45489762D01*
X112117048Y-45442143D01*
X112212286Y-45299286D01*
X112259905Y-45108810D01*
X112259905Y-44727857D01*
X112212286Y-44632619D01*
X112164667Y-44585000D01*
X112069429Y-44537381D01*
X111878952Y-44537381D01*
X111783714Y-44585000D01*
X111736095Y-44632619D01*
X111688476Y-44727857D01*
X111688476Y-44965952D01*
X111736095Y-45061190D01*
X111783714Y-45108810D01*
X111878952Y-45156429D01*
X112069429Y-45156429D01*
X112164667Y-45108810D01*
X112212286Y-45061190D01*
X112259905Y-44965952D01*
X97401143Y-74366381D02*
X97067809Y-73890190D01*
X96829714Y-74366381D02*
X96829714Y-73366381D01*
X97210667Y-73366381D01*
X97305905Y-73414000D01*
X97353524Y-73461619D01*
X97401143Y-73556857D01*
X97401143Y-73699714D01*
X97353524Y-73794952D01*
X97305905Y-73842571D01*
X97210667Y-73890190D01*
X96829714Y-73890190D01*
X97734476Y-73366381D02*
X98353524Y-73366381D01*
X98020190Y-73747333D01*
X98163048Y-73747333D01*
X98258286Y-73794952D01*
X98305905Y-73842571D01*
X98353524Y-73937810D01*
X98353524Y-74175905D01*
X98305905Y-74271143D01*
X98258286Y-74318762D01*
X98163048Y-74366381D01*
X97877333Y-74366381D01*
X97782095Y-74318762D01*
X97734476Y-74271143D01*
X98972571Y-73366381D02*
X99067810Y-73366381D01*
X99163048Y-73414000D01*
X99210667Y-73461619D01*
X99258286Y-73556857D01*
X99305905Y-73747333D01*
X99305905Y-73985429D01*
X99258286Y-74175905D01*
X99210667Y-74271143D01*
X99163048Y-74318762D01*
X99067810Y-74366381D01*
X98972571Y-74366381D01*
X98877333Y-74318762D01*
X98829714Y-74271143D01*
X98782095Y-74175905D01*
X98734476Y-73985429D01*
X98734476Y-73747333D01*
X98782095Y-73556857D01*
X98829714Y-73461619D01*
X98877333Y-73414000D01*
X98972571Y-73366381D01*
X78938381Y-114434857D02*
X78462190Y-114768191D01*
X78938381Y-115006286D02*
X77938381Y-115006286D01*
X77938381Y-114625333D01*
X77986000Y-114530095D01*
X78033619Y-114482476D01*
X78128857Y-114434857D01*
X78271714Y-114434857D01*
X78366952Y-114482476D01*
X78414571Y-114530095D01*
X78462190Y-114625333D01*
X78462190Y-115006286D01*
X77938381Y-114101524D02*
X77938381Y-113482476D01*
X78319333Y-113815810D01*
X78319333Y-113672952D01*
X78366952Y-113577714D01*
X78414571Y-113530095D01*
X78509810Y-113482476D01*
X78747905Y-113482476D01*
X78843143Y-113530095D01*
X78890762Y-113577714D01*
X78938381Y-113672952D01*
X78938381Y-113958667D01*
X78890762Y-114053905D01*
X78843143Y-114101524D01*
X78938381Y-112530095D02*
X78938381Y-113101524D01*
X78938381Y-112815810D02*
X77938381Y-112815810D01*
X78081238Y-112911048D01*
X78176476Y-113006286D01*
X78224095Y-113101524D01*
X88590381Y-114434857D02*
X88114190Y-114768191D01*
X88590381Y-115006286D02*
X87590381Y-115006286D01*
X87590381Y-114625333D01*
X87638000Y-114530095D01*
X87685619Y-114482476D01*
X87780857Y-114434857D01*
X87923714Y-114434857D01*
X88018952Y-114482476D01*
X88066571Y-114530095D01*
X88114190Y-114625333D01*
X88114190Y-115006286D01*
X87590381Y-114101524D02*
X87590381Y-113482476D01*
X87971333Y-113815810D01*
X87971333Y-113672952D01*
X88018952Y-113577714D01*
X88066571Y-113530095D01*
X88161810Y-113482476D01*
X88399905Y-113482476D01*
X88495143Y-113530095D01*
X88542762Y-113577714D01*
X88590381Y-113672952D01*
X88590381Y-113958667D01*
X88542762Y-114053905D01*
X88495143Y-114101524D01*
X87685619Y-113101524D02*
X87638000Y-113053905D01*
X87590381Y-112958667D01*
X87590381Y-112720571D01*
X87638000Y-112625333D01*
X87685619Y-112577714D01*
X87780857Y-112530095D01*
X87876095Y-112530095D01*
X88018952Y-112577714D01*
X88590381Y-113149143D01*
X88590381Y-112530095D01*
X98242381Y-114434857D02*
X97766190Y-114768191D01*
X98242381Y-115006286D02*
X97242381Y-115006286D01*
X97242381Y-114625333D01*
X97290000Y-114530095D01*
X97337619Y-114482476D01*
X97432857Y-114434857D01*
X97575714Y-114434857D01*
X97670952Y-114482476D01*
X97718571Y-114530095D01*
X97766190Y-114625333D01*
X97766190Y-115006286D01*
X97242381Y-114101524D02*
X97242381Y-113482476D01*
X97623333Y-113815810D01*
X97623333Y-113672952D01*
X97670952Y-113577714D01*
X97718571Y-113530095D01*
X97813810Y-113482476D01*
X98051905Y-113482476D01*
X98147143Y-113530095D01*
X98194762Y-113577714D01*
X98242381Y-113672952D01*
X98242381Y-113958667D01*
X98194762Y-114053905D01*
X98147143Y-114101524D01*
X97242381Y-113149143D02*
X97242381Y-112530095D01*
X97623333Y-112863429D01*
X97623333Y-112720571D01*
X97670952Y-112625333D01*
X97718571Y-112577714D01*
X97813810Y-112530095D01*
X98051905Y-112530095D01*
X98147143Y-112577714D01*
X98194762Y-112625333D01*
X98242381Y-112720571D01*
X98242381Y-113006286D01*
X98194762Y-113101524D01*
X98147143Y-113149143D01*
X105608381Y-114073857D02*
X105132190Y-114407191D01*
X105608381Y-114645286D02*
X104608381Y-114645286D01*
X104608381Y-114264333D01*
X104656000Y-114169095D01*
X104703619Y-114121476D01*
X104798857Y-114073857D01*
X104941714Y-114073857D01*
X105036952Y-114121476D01*
X105084571Y-114169095D01*
X105132190Y-114264333D01*
X105132190Y-114645286D01*
X104608381Y-113740524D02*
X104608381Y-113121476D01*
X104989333Y-113454810D01*
X104989333Y-113311952D01*
X105036952Y-113216714D01*
X105084571Y-113169095D01*
X105179810Y-113121476D01*
X105417905Y-113121476D01*
X105513143Y-113169095D01*
X105560762Y-113216714D01*
X105608381Y-113311952D01*
X105608381Y-113597667D01*
X105560762Y-113692905D01*
X105513143Y-113740524D01*
X104941714Y-112264333D02*
X105608381Y-112264333D01*
X104560762Y-112502429D02*
X105275048Y-112740524D01*
X105275048Y-112121476D01*
X136517143Y-73477381D02*
X136183809Y-73001190D01*
X135945714Y-73477381D02*
X135945714Y-72477381D01*
X136326667Y-72477381D01*
X136421905Y-72525000D01*
X136469524Y-72572619D01*
X136517143Y-72667857D01*
X136517143Y-72810714D01*
X136469524Y-72905952D01*
X136421905Y-72953571D01*
X136326667Y-73001190D01*
X135945714Y-73001190D01*
X136850476Y-72477381D02*
X137469524Y-72477381D01*
X137136190Y-72858333D01*
X137279048Y-72858333D01*
X137374286Y-72905952D01*
X137421905Y-72953571D01*
X137469524Y-73048810D01*
X137469524Y-73286905D01*
X137421905Y-73382143D01*
X137374286Y-73429762D01*
X137279048Y-73477381D01*
X136993333Y-73477381D01*
X136898095Y-73429762D01*
X136850476Y-73382143D01*
X138374286Y-72477381D02*
X137898095Y-72477381D01*
X137850476Y-72953571D01*
X137898095Y-72905952D01*
X137993333Y-72858333D01*
X138231429Y-72858333D01*
X138326667Y-72905952D01*
X138374286Y-72953571D01*
X138421905Y-73048810D01*
X138421905Y-73286905D01*
X138374286Y-73382143D01*
X138326667Y-73429762D01*
X138231429Y-73477381D01*
X137993333Y-73477381D01*
X137898095Y-73429762D01*
X137850476Y-73382143D01*
X136517143Y-76525381D02*
X136183809Y-76049190D01*
X135945714Y-76525381D02*
X135945714Y-75525381D01*
X136326667Y-75525381D01*
X136421905Y-75573000D01*
X136469524Y-75620619D01*
X136517143Y-75715857D01*
X136517143Y-75858714D01*
X136469524Y-75953952D01*
X136421905Y-76001571D01*
X136326667Y-76049190D01*
X135945714Y-76049190D01*
X136850476Y-75525381D02*
X137469524Y-75525381D01*
X137136190Y-75906333D01*
X137279048Y-75906333D01*
X137374286Y-75953952D01*
X137421905Y-76001571D01*
X137469524Y-76096810D01*
X137469524Y-76334905D01*
X137421905Y-76430143D01*
X137374286Y-76477762D01*
X137279048Y-76525381D01*
X136993333Y-76525381D01*
X136898095Y-76477762D01*
X136850476Y-76430143D01*
X138326667Y-75525381D02*
X138136190Y-75525381D01*
X138040952Y-75573000D01*
X137993333Y-75620619D01*
X137898095Y-75763476D01*
X137850476Y-75953952D01*
X137850476Y-76334905D01*
X137898095Y-76430143D01*
X137945714Y-76477762D01*
X138040952Y-76525381D01*
X138231429Y-76525381D01*
X138326667Y-76477762D01*
X138374286Y-76430143D01*
X138421905Y-76334905D01*
X138421905Y-76096810D01*
X138374286Y-76001571D01*
X138326667Y-75953952D01*
X138231429Y-75906333D01*
X138040952Y-75906333D01*
X137945714Y-75953952D01*
X137898095Y-76001571D01*
X137850476Y-76096810D01*
X136517143Y-79827381D02*
X136183809Y-79351190D01*
X135945714Y-79827381D02*
X135945714Y-78827381D01*
X136326667Y-78827381D01*
X136421905Y-78875000D01*
X136469524Y-78922619D01*
X136517143Y-79017857D01*
X136517143Y-79160714D01*
X136469524Y-79255952D01*
X136421905Y-79303571D01*
X136326667Y-79351190D01*
X135945714Y-79351190D01*
X136850476Y-78827381D02*
X137469524Y-78827381D01*
X137136190Y-79208333D01*
X137279048Y-79208333D01*
X137374286Y-79255952D01*
X137421905Y-79303571D01*
X137469524Y-79398810D01*
X137469524Y-79636905D01*
X137421905Y-79732143D01*
X137374286Y-79779762D01*
X137279048Y-79827381D01*
X136993333Y-79827381D01*
X136898095Y-79779762D01*
X136850476Y-79732143D01*
X137802857Y-78827381D02*
X138469524Y-78827381D01*
X138040952Y-79827381D01*
X121042667Y-97432762D02*
X121185524Y-97480381D01*
X121423620Y-97480381D01*
X121518858Y-97432762D01*
X121566477Y-97385143D01*
X121614096Y-97289905D01*
X121614096Y-97194667D01*
X121566477Y-97099429D01*
X121518858Y-97051810D01*
X121423620Y-97004190D01*
X121233143Y-96956571D01*
X121137905Y-96908952D01*
X121090286Y-96861333D01*
X121042667Y-96766095D01*
X121042667Y-96670857D01*
X121090286Y-96575619D01*
X121137905Y-96528000D01*
X121233143Y-96480381D01*
X121471239Y-96480381D01*
X121614096Y-96528000D01*
X121947429Y-96480381D02*
X122185524Y-97480381D01*
X122376001Y-96766095D01*
X122566477Y-97480381D01*
X122804572Y-96480381D01*
X123709334Y-97480381D02*
X123137905Y-97480381D01*
X123423619Y-97480381D02*
X123423619Y-96480381D01*
X123328381Y-96623238D01*
X123233143Y-96718476D01*
X123137905Y-96766095D01*
X128270095Y-97242381D02*
X128270095Y-98051905D01*
X128317714Y-98147143D01*
X128365333Y-98194762D01*
X128460571Y-98242381D01*
X128651048Y-98242381D01*
X128746286Y-98194762D01*
X128793905Y-98147143D01*
X128841524Y-98051905D01*
X128841524Y-97242381D01*
X129841524Y-98242381D02*
X129270095Y-98242381D01*
X129555809Y-98242381D02*
X129555809Y-97242381D01*
X129460571Y-97385238D01*
X129365333Y-97480476D01*
X129270095Y-97528095D01*
X90678095Y-66970381D02*
X90678095Y-67779905D01*
X90725714Y-67875143D01*
X90773333Y-67922762D01*
X90868571Y-67970381D01*
X91059048Y-67970381D01*
X91154286Y-67922762D01*
X91201905Y-67875143D01*
X91249524Y-67779905D01*
X91249524Y-66970381D01*
X91678095Y-67065619D02*
X91725714Y-67018000D01*
X91820952Y-66970381D01*
X92059048Y-66970381D01*
X92154286Y-67018000D01*
X92201905Y-67065619D01*
X92249524Y-67160857D01*
X92249524Y-67256095D01*
X92201905Y-67398952D01*
X91630476Y-67970381D01*
X92249524Y-67970381D01*
X138976381Y-62586905D02*
X139785905Y-62586905D01*
X139881143Y-62539286D01*
X139928762Y-62491667D01*
X139976381Y-62396429D01*
X139976381Y-62205952D01*
X139928762Y-62110714D01*
X139881143Y-62063095D01*
X139785905Y-62015476D01*
X138976381Y-62015476D01*
X138976381Y-61634524D02*
X138976381Y-61015476D01*
X139357333Y-61348810D01*
X139357333Y-61205952D01*
X139404952Y-61110714D01*
X139452571Y-61063095D01*
X139547810Y-61015476D01*
X139785905Y-61015476D01*
X139881143Y-61063095D01*
X139928762Y-61110714D01*
X139976381Y-61205952D01*
X139976381Y-61491667D01*
X139928762Y-61586905D01*
X139881143Y-61634524D01*
X132130381Y-81272905D02*
X132939905Y-81272905D01*
X133035143Y-81225286D01*
X133082762Y-81177667D01*
X133130381Y-81082429D01*
X133130381Y-80891952D01*
X133082762Y-80796714D01*
X133035143Y-80749095D01*
X132939905Y-80701476D01*
X132130381Y-80701476D01*
X132130381Y-79749095D02*
X132130381Y-80225286D01*
X132606571Y-80272905D01*
X132558952Y-80225286D01*
X132511333Y-80130048D01*
X132511333Y-79891952D01*
X132558952Y-79796714D01*
X132606571Y-79749095D01*
X132701810Y-79701476D01*
X132939905Y-79701476D01*
X133035143Y-79749095D01*
X133082762Y-79796714D01*
X133130381Y-79891952D01*
X133130381Y-80130048D01*
X133082762Y-80225286D01*
X133035143Y-80272905D01*
X83780381Y-74929905D02*
X84589905Y-74929905D01*
X84685143Y-74882286D01*
X84732762Y-74834667D01*
X84780381Y-74739429D01*
X84780381Y-74548952D01*
X84732762Y-74453714D01*
X84685143Y-74406095D01*
X84589905Y-74358476D01*
X83780381Y-74358476D01*
X83780381Y-73453714D02*
X83780381Y-73644191D01*
X83828000Y-73739429D01*
X83875619Y-73787048D01*
X84018476Y-73882286D01*
X84208952Y-73929905D01*
X84589905Y-73929905D01*
X84685143Y-73882286D01*
X84732762Y-73834667D01*
X84780381Y-73739429D01*
X84780381Y-73548952D01*
X84732762Y-73453714D01*
X84685143Y-73406095D01*
X84589905Y-73358476D01*
X84351810Y-73358476D01*
X84256571Y-73406095D01*
X84208952Y-73453714D01*
X84161333Y-73548952D01*
X84161333Y-73739429D01*
X84208952Y-73834667D01*
X84256571Y-73882286D01*
X84351810Y-73929905D01*
X128270095Y-63841381D02*
X128270095Y-64650905D01*
X128317714Y-64746143D01*
X128365333Y-64793762D01*
X128460571Y-64841381D01*
X128651048Y-64841381D01*
X128746286Y-64793762D01*
X128793905Y-64746143D01*
X128841524Y-64650905D01*
X128841524Y-63841381D01*
X129222476Y-63841381D02*
X129889143Y-63841381D01*
X129460571Y-64841381D01*
X111506095Y-50125381D02*
X111506095Y-50934905D01*
X111553714Y-51030143D01*
X111601333Y-51077762D01*
X111696571Y-51125381D01*
X111887048Y-51125381D01*
X111982286Y-51077762D01*
X112029905Y-51030143D01*
X112077524Y-50934905D01*
X112077524Y-50125381D01*
X112696571Y-50553952D02*
X112601333Y-50506333D01*
X112553714Y-50458714D01*
X112506095Y-50363476D01*
X112506095Y-50315857D01*
X112553714Y-50220619D01*
X112601333Y-50173000D01*
X112696571Y-50125381D01*
X112887048Y-50125381D01*
X112982286Y-50173000D01*
X113029905Y-50220619D01*
X113077524Y-50315857D01*
X113077524Y-50363476D01*
X113029905Y-50458714D01*
X112982286Y-50506333D01*
X112887048Y-50553952D01*
X112696571Y-50553952D01*
X112601333Y-50601571D01*
X112553714Y-50649190D01*
X112506095Y-50744429D01*
X112506095Y-50934905D01*
X112553714Y-51030143D01*
X112601333Y-51077762D01*
X112696571Y-51125381D01*
X112887048Y-51125381D01*
X112982286Y-51077762D01*
X113029905Y-51030143D01*
X113077524Y-50934905D01*
X113077524Y-50744429D01*
X113029905Y-50649190D01*
X112982286Y-50601571D01*
X112887048Y-50553952D01*
X139452381Y-78327095D02*
X140261905Y-78327095D01*
X140357143Y-78279476D01*
X140404762Y-78231857D01*
X140452381Y-78136619D01*
X140452381Y-77946142D01*
X140404762Y-77850904D01*
X140357143Y-77803285D01*
X140261905Y-77755666D01*
X139452381Y-77755666D01*
X140452381Y-76755666D02*
X140452381Y-77327095D01*
X140452381Y-77041381D02*
X139452381Y-77041381D01*
X139595238Y-77136619D01*
X139690476Y-77231857D01*
X139738095Y-77327095D01*
X139452381Y-76136619D02*
X139452381Y-76041380D01*
X139500000Y-75946142D01*
X139547619Y-75898523D01*
X139642857Y-75850904D01*
X139833333Y-75803285D01*
X140071429Y-75803285D01*
X140261905Y-75850904D01*
X140357143Y-75898523D01*
X140404762Y-75946142D01*
X140452381Y-76041380D01*
X140452381Y-76136619D01*
X140404762Y-76231857D01*
X140357143Y-76279476D01*
X140261905Y-76327095D01*
X140071429Y-76374714D01*
X139833333Y-76374714D01*
X139642857Y-76327095D01*
X139547619Y-76279476D01*
X139500000Y-76231857D01*
X139452381Y-76136619D01*
X77168476Y-84034381D02*
X77835143Y-85034381D01*
X77835143Y-84034381D02*
X77168476Y-85034381D01*
X78739905Y-85034381D02*
X78168476Y-85034381D01*
X78454190Y-85034381D02*
X78454190Y-84034381D01*
X78358952Y-84177238D01*
X78263714Y-84272476D01*
X78168476Y-84320095D01*
X153476381Y-77384524D02*
X154476381Y-76717857D01*
X153476381Y-76717857D02*
X154476381Y-77384524D01*
X153476381Y-76432143D02*
X153476381Y-75813095D01*
X153857333Y-76146429D01*
X153857333Y-76003571D01*
X153904952Y-75908333D01*
X153952571Y-75860714D01*
X154047810Y-75813095D01*
X154285905Y-75813095D01*
X154381143Y-75860714D01*
X154428762Y-75908333D01*
X154476381Y-76003571D01*
X154476381Y-76289286D01*
X154428762Y-76384524D01*
X154381143Y-76432143D01*
X102552190Y-58642191D02*
X103028381Y-58642191D01*
X102028381Y-58975524D02*
X102552190Y-58642191D01*
X102028381Y-58308857D01*
X103028381Y-57451714D02*
X103028381Y-58023143D01*
X103028381Y-57737429D02*
X102028381Y-57737429D01*
X102171238Y-57832667D01*
X102266476Y-57927905D01*
X102314095Y-58023143D01*
X120173809Y-74311190D02*
X120173809Y-74787381D01*
X119840476Y-73787381D02*
X120173809Y-74311190D01*
X120507143Y-73787381D01*
X120792857Y-73882619D02*
X120840476Y-73835000D01*
X120935714Y-73787381D01*
X121173810Y-73787381D01*
X121269048Y-73835000D01*
X121316667Y-73882619D01*
X121364286Y-73977857D01*
X121364286Y-74073095D01*
X121316667Y-74215952D01*
X120745238Y-74787381D01*
X121364286Y-74787381D01*
X149165809Y-89217190D02*
X149165809Y-89693381D01*
X148832476Y-88693381D02*
X149165809Y-89217190D01*
X149499143Y-88693381D01*
X149737238Y-88693381D02*
X150356286Y-88693381D01*
X150022952Y-89074333D01*
X150165810Y-89074333D01*
X150261048Y-89121952D01*
X150308667Y-89169571D01*
X150356286Y-89264810D01*
X150356286Y-89502905D01*
X150308667Y-89598143D01*
X150261048Y-89645762D01*
X150165810Y-89693381D01*
X149880095Y-89693381D01*
X149784857Y-89645762D01*
X149737238Y-89598143D01*
X158662667Y-86566286D02*
X158662667Y-86090095D01*
X158948381Y-86661524D02*
X157948381Y-86328191D01*
X158948381Y-85994857D01*
X157948381Y-85471048D02*
X157948381Y-85375809D01*
X157996000Y-85280571D01*
X158043619Y-85232952D01*
X158138857Y-85185333D01*
X158329333Y-85137714D01*
X158567429Y-85137714D01*
X158757905Y-85185333D01*
X158853143Y-85232952D01*
X158900762Y-85280571D01*
X158948381Y-85375809D01*
X158948381Y-85471048D01*
X158900762Y-85566286D01*
X158853143Y-85613905D01*
X158757905Y-85661524D01*
X158567429Y-85709143D01*
X158329333Y-85709143D01*
X158138857Y-85661524D01*
X158043619Y-85613905D01*
X157996000Y-85566286D01*
X157948381Y-85471048D01*
X158662667Y-89106286D02*
X158662667Y-88630095D01*
X158948381Y-89201524D02*
X157948381Y-88868191D01*
X158948381Y-88534857D01*
X158948381Y-87677714D02*
X158948381Y-88249143D01*
X158948381Y-87963429D02*
X157948381Y-87963429D01*
X158091238Y-88058667D01*
X158186476Y-88153905D01*
X158234095Y-88249143D01*
X158662667Y-91646286D02*
X158662667Y-91170095D01*
X158948381Y-91741524D02*
X157948381Y-91408191D01*
X158948381Y-91074857D01*
X158043619Y-90789143D02*
X157996000Y-90741524D01*
X157948381Y-90646286D01*
X157948381Y-90408190D01*
X157996000Y-90312952D01*
X158043619Y-90265333D01*
X158138857Y-90217714D01*
X158234095Y-90217714D01*
X158376952Y-90265333D01*
X158948381Y-90836762D01*
X158948381Y-90217714D01*
X158662667Y-94186286D02*
X158662667Y-93710095D01*
X158948381Y-94281524D02*
X157948381Y-93948191D01*
X158948381Y-93614857D01*
X157948381Y-93376762D02*
X157948381Y-92757714D01*
X158329333Y-93091048D01*
X158329333Y-92948190D01*
X158376952Y-92852952D01*
X158424571Y-92805333D01*
X158519810Y-92757714D01*
X158757905Y-92757714D01*
X158853143Y-92805333D01*
X158900762Y-92852952D01*
X158948381Y-92948190D01*
X158948381Y-93233905D01*
X158900762Y-93329143D01*
X158853143Y-93376762D01*
X158948381Y-96496095D02*
X157948381Y-96496095D01*
X157948381Y-96258000D01*
X157996000Y-96115142D01*
X158091238Y-96019904D01*
X158186476Y-95972285D01*
X158376952Y-95924666D01*
X158519810Y-95924666D01*
X158710286Y-95972285D01*
X158805524Y-96019904D01*
X158900762Y-96115142D01*
X158948381Y-96258000D01*
X158948381Y-96496095D01*
X158281714Y-95067523D02*
X158948381Y-95067523D01*
X157900762Y-95305619D02*
X158615048Y-95543714D01*
X158615048Y-94924666D01*
X158948381Y-100020286D02*
X157948381Y-100020286D01*
X157948381Y-99782191D01*
X157996000Y-99639333D01*
X158091238Y-99544095D01*
X158186476Y-99496476D01*
X158376952Y-99448857D01*
X158519810Y-99448857D01*
X158710286Y-99496476D01*
X158805524Y-99544095D01*
X158900762Y-99639333D01*
X158948381Y-99782191D01*
X158948381Y-100020286D01*
X158948381Y-98496476D02*
X158948381Y-99067905D01*
X158948381Y-98782191D02*
X157948381Y-98782191D01*
X158091238Y-98877429D01*
X158186476Y-98972667D01*
X158234095Y-99067905D01*
X157948381Y-97877429D02*
X157948381Y-97782190D01*
X157996000Y-97686952D01*
X158043619Y-97639333D01*
X158138857Y-97591714D01*
X158329333Y-97544095D01*
X158567429Y-97544095D01*
X158757905Y-97591714D01*
X158853143Y-97639333D01*
X158900762Y-97686952D01*
X158948381Y-97782190D01*
X158948381Y-97877429D01*
X158900762Y-97972667D01*
X158853143Y-98020286D01*
X158757905Y-98067905D01*
X158567429Y-98115524D01*
X158329333Y-98115524D01*
X158138857Y-98067905D01*
X158043619Y-98020286D01*
X157996000Y-97972667D01*
X157948381Y-97877429D01*
X75231714Y-49188667D02*
X75707905Y-49188667D01*
X75136476Y-49474381D02*
X75469809Y-48474381D01*
X75803143Y-49474381D01*
X76326952Y-48474381D02*
X76422191Y-48474381D01*
X76517429Y-48522000D01*
X76565048Y-48569619D01*
X76612667Y-48664857D01*
X76660286Y-48855333D01*
X76660286Y-49093429D01*
X76612667Y-49283905D01*
X76565048Y-49379143D01*
X76517429Y-49426762D01*
X76422191Y-49474381D01*
X76326952Y-49474381D01*
X76231714Y-49426762D01*
X76184095Y-49379143D01*
X76136476Y-49283905D01*
X76088857Y-49093429D01*
X76088857Y-48855333D01*
X76136476Y-48664857D01*
X76184095Y-48569619D01*
X76231714Y-48522000D01*
X76326952Y-48474381D01*
X75231714Y-51728667D02*
X75707905Y-51728667D01*
X75136476Y-52014381D02*
X75469809Y-51014381D01*
X75803143Y-52014381D01*
X76660286Y-52014381D02*
X76088857Y-52014381D01*
X76374571Y-52014381D02*
X76374571Y-51014381D01*
X76279333Y-51157238D01*
X76184095Y-51252476D01*
X76088857Y-51300095D01*
X75231714Y-54268667D02*
X75707905Y-54268667D01*
X75136476Y-54554381D02*
X75469809Y-53554381D01*
X75803143Y-54554381D01*
X76088857Y-53649619D02*
X76136476Y-53602000D01*
X76231714Y-53554381D01*
X76469810Y-53554381D01*
X76565048Y-53602000D01*
X76612667Y-53649619D01*
X76660286Y-53744857D01*
X76660286Y-53840095D01*
X76612667Y-53982952D01*
X76041238Y-54554381D01*
X76660286Y-54554381D01*
X75231714Y-56808667D02*
X75707905Y-56808667D01*
X75136476Y-57094381D02*
X75469809Y-56094381D01*
X75803143Y-57094381D01*
X76041238Y-56094381D02*
X76660286Y-56094381D01*
X76326952Y-56475333D01*
X76469810Y-56475333D01*
X76565048Y-56522952D01*
X76612667Y-56570571D01*
X76660286Y-56665810D01*
X76660286Y-56903905D01*
X76612667Y-56999143D01*
X76565048Y-57046762D01*
X76469810Y-57094381D01*
X76184095Y-57094381D01*
X76088857Y-57046762D01*
X76041238Y-56999143D01*
X75207905Y-46934381D02*
X75207905Y-45934381D01*
X75446000Y-45934381D01*
X75588858Y-45982000D01*
X75684096Y-46077238D01*
X75731715Y-46172476D01*
X75779334Y-46362952D01*
X75779334Y-46505810D01*
X75731715Y-46696286D01*
X75684096Y-46791524D01*
X75588858Y-46886762D01*
X75446000Y-46934381D01*
X75207905Y-46934381D01*
X76684096Y-45934381D02*
X76207905Y-45934381D01*
X76160286Y-46410571D01*
X76207905Y-46362952D01*
X76303143Y-46315333D01*
X76541239Y-46315333D01*
X76636477Y-46362952D01*
X76684096Y-46410571D01*
X76731715Y-46505810D01*
X76731715Y-46743905D01*
X76684096Y-46839143D01*
X76636477Y-46886762D01*
X76541239Y-46934381D01*
X76303143Y-46934381D01*
X76207905Y-46886762D01*
X76160286Y-46839143D01*
X141660667Y-83990381D02*
X141660667Y-84704667D01*
X141613047Y-84847524D01*
X141517809Y-84942762D01*
X141374952Y-84990381D01*
X141279714Y-84990381D01*
X142136857Y-84990381D02*
X142136857Y-83990381D01*
X142517810Y-83990381D01*
X142613048Y-84038000D01*
X142660667Y-84085619D01*
X142708286Y-84180857D01*
X142708286Y-84323714D01*
X142660667Y-84418952D01*
X142613048Y-84466571D01*
X142517810Y-84514190D01*
X142136857Y-84514190D01*
X143660667Y-84990381D02*
X143089238Y-84990381D01*
X143374952Y-84990381D02*
X143374952Y-83990381D01*
X143279714Y-84133238D01*
X143184476Y-84228476D01*
X143089238Y-84276095D01*
X135588476Y-82974381D02*
X136255143Y-83974381D01*
X136255143Y-82974381D02*
X135588476Y-83974381D01*
X137064667Y-83307714D02*
X137064667Y-83974381D01*
X136826571Y-82926762D02*
X136588476Y-83641048D01*
X137207524Y-83641048D01*
X86050381Y-114434857D02*
X85574190Y-114768191D01*
X86050381Y-115006286D02*
X85050381Y-115006286D01*
X85050381Y-114625333D01*
X85098000Y-114530095D01*
X85145619Y-114482476D01*
X85240857Y-114434857D01*
X85383714Y-114434857D01*
X85478952Y-114482476D01*
X85526571Y-114530095D01*
X85574190Y-114625333D01*
X85574190Y-115006286D01*
X85050381Y-114101524D02*
X85050381Y-113482476D01*
X85431333Y-113815810D01*
X85431333Y-113672952D01*
X85478952Y-113577714D01*
X85526571Y-113530095D01*
X85621810Y-113482476D01*
X85859905Y-113482476D01*
X85955143Y-113530095D01*
X86002762Y-113577714D01*
X86050381Y-113672952D01*
X86050381Y-113958667D01*
X86002762Y-114053905D01*
X85955143Y-114101524D01*
X85478952Y-112911048D02*
X85431333Y-113006286D01*
X85383714Y-113053905D01*
X85288476Y-113101524D01*
X85240857Y-113101524D01*
X85145619Y-113053905D01*
X85098000Y-113006286D01*
X85050381Y-112911048D01*
X85050381Y-112720571D01*
X85098000Y-112625333D01*
X85145619Y-112577714D01*
X85240857Y-112530095D01*
X85288476Y-112530095D01*
X85383714Y-112577714D01*
X85431333Y-112625333D01*
X85478952Y-112720571D01*
X85478952Y-112911048D01*
X85526571Y-113006286D01*
X85574190Y-113053905D01*
X85669429Y-113101524D01*
X85859905Y-113101524D01*
X85955143Y-113053905D01*
X86002762Y-113006286D01*
X86050381Y-112911048D01*
X86050381Y-112720571D01*
X86002762Y-112625333D01*
X85955143Y-112577714D01*
X85859905Y-112530095D01*
X85669429Y-112530095D01*
X85574190Y-112577714D01*
X85526571Y-112625333D01*
X85478952Y-112720571D01*
X95702381Y-114434857D02*
X95226190Y-114768191D01*
X95702381Y-115006286D02*
X94702381Y-115006286D01*
X94702381Y-114625333D01*
X94750000Y-114530095D01*
X94797619Y-114482476D01*
X94892857Y-114434857D01*
X95035714Y-114434857D01*
X95130952Y-114482476D01*
X95178571Y-114530095D01*
X95226190Y-114625333D01*
X95226190Y-115006286D01*
X94702381Y-114101524D02*
X94702381Y-113482476D01*
X95083333Y-113815810D01*
X95083333Y-113672952D01*
X95130952Y-113577714D01*
X95178571Y-113530095D01*
X95273810Y-113482476D01*
X95511905Y-113482476D01*
X95607143Y-113530095D01*
X95654762Y-113577714D01*
X95702381Y-113672952D01*
X95702381Y-113958667D01*
X95654762Y-114053905D01*
X95607143Y-114101524D01*
X95702381Y-113006286D02*
X95702381Y-112815810D01*
X95654762Y-112720571D01*
X95607143Y-112672952D01*
X95464286Y-112577714D01*
X95273810Y-112530095D01*
X94892857Y-112530095D01*
X94797619Y-112577714D01*
X94750000Y-112625333D01*
X94702381Y-112720571D01*
X94702381Y-112911048D01*
X94750000Y-113006286D01*
X94797619Y-113053905D01*
X94892857Y-113101524D01*
X95130952Y-113101524D01*
X95226190Y-113053905D01*
X95273810Y-113006286D01*
X95321429Y-112911048D01*
X95321429Y-112720571D01*
X95273810Y-112625333D01*
X95226190Y-112577714D01*
X95130952Y-112530095D01*
X107894381Y-114434857D02*
X107418190Y-114768191D01*
X107894381Y-115006286D02*
X106894381Y-115006286D01*
X106894381Y-114625333D01*
X106942000Y-114530095D01*
X106989619Y-114482476D01*
X107084857Y-114434857D01*
X107227714Y-114434857D01*
X107322952Y-114482476D01*
X107370571Y-114530095D01*
X107418190Y-114625333D01*
X107418190Y-115006286D01*
X107227714Y-113577714D02*
X107894381Y-113577714D01*
X106846762Y-113815810D02*
X107561048Y-114053905D01*
X107561048Y-113434857D01*
X106894381Y-112863429D02*
X106894381Y-112768190D01*
X106942000Y-112672952D01*
X106989619Y-112625333D01*
X107084857Y-112577714D01*
X107275333Y-112530095D01*
X107513429Y-112530095D01*
X107703905Y-112577714D01*
X107799143Y-112625333D01*
X107846762Y-112672952D01*
X107894381Y-112768190D01*
X107894381Y-112863429D01*
X107846762Y-112958667D01*
X107799143Y-113006286D01*
X107703905Y-113053905D01*
X107513429Y-113101524D01*
X107275333Y-113101524D01*
X107084857Y-113053905D01*
X106989619Y-113006286D01*
X106942000Y-112958667D01*
X106894381Y-112863429D01*
X115006381Y-114434857D02*
X114530190Y-114768191D01*
X115006381Y-115006286D02*
X114006381Y-115006286D01*
X114006381Y-114625333D01*
X114054000Y-114530095D01*
X114101619Y-114482476D01*
X114196857Y-114434857D01*
X114339714Y-114434857D01*
X114434952Y-114482476D01*
X114482571Y-114530095D01*
X114530190Y-114625333D01*
X114530190Y-115006286D01*
X114339714Y-113577714D02*
X115006381Y-113577714D01*
X113958762Y-113815810D02*
X114673048Y-114053905D01*
X114673048Y-113434857D01*
X115006381Y-112530095D02*
X115006381Y-113101524D01*
X115006381Y-112815810D02*
X114006381Y-112815810D01*
X114149238Y-112911048D01*
X114244476Y-113006286D01*
X114292095Y-113101524D01*
X117546381Y-114434857D02*
X117070190Y-114768191D01*
X117546381Y-115006286D02*
X116546381Y-115006286D01*
X116546381Y-114625333D01*
X116594000Y-114530095D01*
X116641619Y-114482476D01*
X116736857Y-114434857D01*
X116879714Y-114434857D01*
X116974952Y-114482476D01*
X117022571Y-114530095D01*
X117070190Y-114625333D01*
X117070190Y-115006286D01*
X116879714Y-113577714D02*
X117546381Y-113577714D01*
X116498762Y-113815810D02*
X117213048Y-114053905D01*
X117213048Y-113434857D01*
X116641619Y-113101524D02*
X116594000Y-113053905D01*
X116546381Y-112958667D01*
X116546381Y-112720571D01*
X116594000Y-112625333D01*
X116641619Y-112577714D01*
X116736857Y-112530095D01*
X116832095Y-112530095D01*
X116974952Y-112577714D01*
X117546381Y-113149143D01*
X117546381Y-112530095D01*
X127198381Y-114434857D02*
X126722190Y-114768191D01*
X127198381Y-115006286D02*
X126198381Y-115006286D01*
X126198381Y-114625333D01*
X126246000Y-114530095D01*
X126293619Y-114482476D01*
X126388857Y-114434857D01*
X126531714Y-114434857D01*
X126626952Y-114482476D01*
X126674571Y-114530095D01*
X126722190Y-114625333D01*
X126722190Y-115006286D01*
X126531714Y-113577714D02*
X127198381Y-113577714D01*
X126150762Y-113815810D02*
X126865048Y-114053905D01*
X126865048Y-113434857D01*
X126198381Y-113149143D02*
X126198381Y-112530095D01*
X126579333Y-112863429D01*
X126579333Y-112720571D01*
X126626952Y-112625333D01*
X126674571Y-112577714D01*
X126769810Y-112530095D01*
X127007905Y-112530095D01*
X127103143Y-112577714D01*
X127150762Y-112625333D01*
X127198381Y-112720571D01*
X127198381Y-113006286D01*
X127150762Y-113101524D01*
X127103143Y-113149143D01*
X124658381Y-114434857D02*
X124182190Y-114768191D01*
X124658381Y-115006286D02*
X123658381Y-115006286D01*
X123658381Y-114625333D01*
X123706000Y-114530095D01*
X123753619Y-114482476D01*
X123848857Y-114434857D01*
X123991714Y-114434857D01*
X124086952Y-114482476D01*
X124134571Y-114530095D01*
X124182190Y-114625333D01*
X124182190Y-115006286D01*
X123991714Y-113577714D02*
X124658381Y-113577714D01*
X123610762Y-113815810D02*
X124325048Y-114053905D01*
X124325048Y-113434857D01*
X123991714Y-112625333D02*
X124658381Y-112625333D01*
X123610762Y-112863429D02*
X124325048Y-113101524D01*
X124325048Y-112482476D01*
X134310381Y-114434857D02*
X133834190Y-114768191D01*
X134310381Y-115006286D02*
X133310381Y-115006286D01*
X133310381Y-114625333D01*
X133358000Y-114530095D01*
X133405619Y-114482476D01*
X133500857Y-114434857D01*
X133643714Y-114434857D01*
X133738952Y-114482476D01*
X133786571Y-114530095D01*
X133834190Y-114625333D01*
X133834190Y-115006286D01*
X133643714Y-113577714D02*
X134310381Y-113577714D01*
X133262762Y-113815810D02*
X133977048Y-114053905D01*
X133977048Y-113434857D01*
X133310381Y-112577714D02*
X133310381Y-113053905D01*
X133786571Y-113101524D01*
X133738952Y-113053905D01*
X133691333Y-112958667D01*
X133691333Y-112720571D01*
X133738952Y-112625333D01*
X133786571Y-112577714D01*
X133881810Y-112530095D01*
X134119905Y-112530095D01*
X134215143Y-112577714D01*
X134262762Y-112625333D01*
X134310381Y-112720571D01*
X134310381Y-112958667D01*
X134262762Y-113053905D01*
X134215143Y-113101524D01*
X136850381Y-114434857D02*
X136374190Y-114768191D01*
X136850381Y-115006286D02*
X135850381Y-115006286D01*
X135850381Y-114625333D01*
X135898000Y-114530095D01*
X135945619Y-114482476D01*
X136040857Y-114434857D01*
X136183714Y-114434857D01*
X136278952Y-114482476D01*
X136326571Y-114530095D01*
X136374190Y-114625333D01*
X136374190Y-115006286D01*
X136183714Y-113577714D02*
X136850381Y-113577714D01*
X135802762Y-113815810D02*
X136517048Y-114053905D01*
X136517048Y-113434857D01*
X135850381Y-112625333D02*
X135850381Y-112815810D01*
X135898000Y-112911048D01*
X135945619Y-112958667D01*
X136088476Y-113053905D01*
X136278952Y-113101524D01*
X136659905Y-113101524D01*
X136755143Y-113053905D01*
X136802762Y-113006286D01*
X136850381Y-112911048D01*
X136850381Y-112720571D01*
X136802762Y-112625333D01*
X136755143Y-112577714D01*
X136659905Y-112530095D01*
X136421810Y-112530095D01*
X136326571Y-112577714D01*
X136278952Y-112625333D01*
X136231333Y-112720571D01*
X136231333Y-112911048D01*
X136278952Y-113006286D01*
X136326571Y-113053905D01*
X136421810Y-113101524D01*
X143962381Y-114434857D02*
X143486190Y-114768191D01*
X143962381Y-115006286D02*
X142962381Y-115006286D01*
X142962381Y-114625333D01*
X143010000Y-114530095D01*
X143057619Y-114482476D01*
X143152857Y-114434857D01*
X143295714Y-114434857D01*
X143390952Y-114482476D01*
X143438571Y-114530095D01*
X143486190Y-114625333D01*
X143486190Y-115006286D01*
X143295714Y-113577714D02*
X143962381Y-113577714D01*
X142914762Y-113815810D02*
X143629048Y-114053905D01*
X143629048Y-113434857D01*
X143390952Y-112911048D02*
X143343333Y-113006286D01*
X143295714Y-113053905D01*
X143200476Y-113101524D01*
X143152857Y-113101524D01*
X143057619Y-113053905D01*
X143010000Y-113006286D01*
X142962381Y-112911048D01*
X142962381Y-112720571D01*
X143010000Y-112625333D01*
X143057619Y-112577714D01*
X143152857Y-112530095D01*
X143200476Y-112530095D01*
X143295714Y-112577714D01*
X143343333Y-112625333D01*
X143390952Y-112720571D01*
X143390952Y-112911048D01*
X143438571Y-113006286D01*
X143486190Y-113053905D01*
X143581429Y-113101524D01*
X143771905Y-113101524D01*
X143867143Y-113053905D01*
X143914762Y-113006286D01*
X143962381Y-112911048D01*
X143962381Y-112720571D01*
X143914762Y-112625333D01*
X143867143Y-112577714D01*
X143771905Y-112530095D01*
X143581429Y-112530095D01*
X143486190Y-112577714D01*
X143438571Y-112625333D01*
X143390952Y-112720571D01*
X146502381Y-114434857D02*
X146026190Y-114768191D01*
X146502381Y-115006286D02*
X145502381Y-115006286D01*
X145502381Y-114625333D01*
X145550000Y-114530095D01*
X145597619Y-114482476D01*
X145692857Y-114434857D01*
X145835714Y-114434857D01*
X145930952Y-114482476D01*
X145978571Y-114530095D01*
X146026190Y-114625333D01*
X146026190Y-115006286D01*
X145502381Y-113530095D02*
X145502381Y-114006286D01*
X145978571Y-114053905D01*
X145930952Y-114006286D01*
X145883333Y-113911048D01*
X145883333Y-113672952D01*
X145930952Y-113577714D01*
X145978571Y-113530095D01*
X146073810Y-113482476D01*
X146311905Y-113482476D01*
X146407143Y-113530095D01*
X146454762Y-113577714D01*
X146502381Y-113672952D01*
X146502381Y-113911048D01*
X146454762Y-114006286D01*
X146407143Y-114053905D01*
X145502381Y-112863429D02*
X145502381Y-112768190D01*
X145550000Y-112672952D01*
X145597619Y-112625333D01*
X145692857Y-112577714D01*
X145883333Y-112530095D01*
X146121429Y-112530095D01*
X146311905Y-112577714D01*
X146407143Y-112625333D01*
X146454762Y-112672952D01*
X146502381Y-112768190D01*
X146502381Y-112863429D01*
X146454762Y-112958667D01*
X146407143Y-113006286D01*
X146311905Y-113053905D01*
X146121429Y-113101524D01*
X145883333Y-113101524D01*
X145692857Y-113053905D01*
X145597619Y-113006286D01*
X145550000Y-112958667D01*
X145502381Y-112863429D01*
X153614381Y-114434857D02*
X153138190Y-114768191D01*
X153614381Y-115006286D02*
X152614381Y-115006286D01*
X152614381Y-114625333D01*
X152662000Y-114530095D01*
X152709619Y-114482476D01*
X152804857Y-114434857D01*
X152947714Y-114434857D01*
X153042952Y-114482476D01*
X153090571Y-114530095D01*
X153138190Y-114625333D01*
X153138190Y-115006286D01*
X152614381Y-113530095D02*
X152614381Y-114006286D01*
X153090571Y-114053905D01*
X153042952Y-114006286D01*
X152995333Y-113911048D01*
X152995333Y-113672952D01*
X153042952Y-113577714D01*
X153090571Y-113530095D01*
X153185810Y-113482476D01*
X153423905Y-113482476D01*
X153519143Y-113530095D01*
X153566762Y-113577714D01*
X153614381Y-113672952D01*
X153614381Y-113911048D01*
X153566762Y-114006286D01*
X153519143Y-114053905D01*
X152709619Y-113101524D02*
X152662000Y-113053905D01*
X152614381Y-112958667D01*
X152614381Y-112720571D01*
X152662000Y-112625333D01*
X152709619Y-112577714D01*
X152804857Y-112530095D01*
X152900095Y-112530095D01*
X153042952Y-112577714D01*
X153614381Y-113149143D01*
X153614381Y-112530095D01*
X87828381Y-46966095D02*
X86828381Y-46966095D01*
X86828381Y-46728000D01*
X86876000Y-46585142D01*
X86971238Y-46489904D01*
X87066476Y-46442285D01*
X87256952Y-46394666D01*
X87399810Y-46394666D01*
X87590286Y-46442285D01*
X87685524Y-46489904D01*
X87780762Y-46585142D01*
X87828381Y-46728000D01*
X87828381Y-46966095D01*
X86828381Y-46061333D02*
X86828381Y-45442285D01*
X87209333Y-45775619D01*
X87209333Y-45632761D01*
X87256952Y-45537523D01*
X87304571Y-45489904D01*
X87399810Y-45442285D01*
X87637905Y-45442285D01*
X87733143Y-45489904D01*
X87780762Y-45537523D01*
X87828381Y-45632761D01*
X87828381Y-45918476D01*
X87780762Y-46013714D01*
X87733143Y-46061333D01*
X91174381Y-43227523D02*
X91888667Y-43227523D01*
X92031524Y-43275143D01*
X92126762Y-43370381D01*
X92174381Y-43513238D01*
X92174381Y-43608476D01*
X92174381Y-42227523D02*
X92174381Y-42798952D01*
X92174381Y-42513238D02*
X91174381Y-42513238D01*
X91317238Y-42608476D01*
X91412476Y-42703714D01*
X91460095Y-42798952D01*
X91269619Y-41846571D02*
X91222000Y-41798952D01*
X91174381Y-41703714D01*
X91174381Y-41465618D01*
X91222000Y-41370380D01*
X91269619Y-41322761D01*
X91364857Y-41275142D01*
X91460095Y-41275142D01*
X91602952Y-41322761D01*
X92174381Y-41894190D01*
X92174381Y-41275142D01*
X86987143Y-69110381D02*
X86653809Y-68634190D01*
X86415714Y-69110381D02*
X86415714Y-68110381D01*
X86796667Y-68110381D01*
X86891905Y-68158000D01*
X86939524Y-68205619D01*
X86987143Y-68300857D01*
X86987143Y-68443714D01*
X86939524Y-68538952D01*
X86891905Y-68586571D01*
X86796667Y-68634190D01*
X86415714Y-68634190D01*
X87844286Y-68443714D02*
X87844286Y-69110381D01*
X87606190Y-68062762D02*
X87368095Y-68777048D01*
X87987143Y-68777048D01*
X88272857Y-68110381D02*
X88939524Y-68110381D01*
X88510952Y-69110381D01*
X80732381Y-43005333D02*
X81446667Y-43005333D01*
X81589524Y-43052953D01*
X81684762Y-43148191D01*
X81732381Y-43291048D01*
X81732381Y-43386286D01*
X80827619Y-42576762D02*
X80780000Y-42529143D01*
X80732381Y-42433905D01*
X80732381Y-42195809D01*
X80780000Y-42100571D01*
X80827619Y-42052952D01*
X80922857Y-42005333D01*
X81018095Y-42005333D01*
X81160952Y-42052952D01*
X81732381Y-42624381D01*
X81732381Y-42005333D01*
X80518096Y-99068000D02*
X80422858Y-99020381D01*
X80280001Y-99020381D01*
X80137143Y-99068000D01*
X80041905Y-99163238D01*
X79994286Y-99258476D01*
X79946667Y-99448952D01*
X79946667Y-99591810D01*
X79994286Y-99782286D01*
X80041905Y-99877524D01*
X80137143Y-99972762D01*
X80280001Y-100020381D01*
X80375239Y-100020381D01*
X80518096Y-99972762D01*
X80565715Y-99925143D01*
X80565715Y-99591810D01*
X80375239Y-99591810D01*
X80994286Y-100020381D02*
X80994286Y-99020381D01*
X81565715Y-100020381D01*
X81565715Y-99020381D01*
X82041905Y-100020381D02*
X82041905Y-99020381D01*
X82280000Y-99020381D01*
X82422858Y-99068000D01*
X82518096Y-99163238D01*
X82565715Y-99258476D01*
X82613334Y-99448952D01*
X82613334Y-99591810D01*
X82565715Y-99782286D01*
X82518096Y-99877524D01*
X82422858Y-99972762D01*
X82280000Y-100020381D01*
X82041905Y-100020381D01*
X110386762Y-79168476D02*
X110434381Y-79025619D01*
X110434381Y-78787523D01*
X110386762Y-78692285D01*
X110339143Y-78644666D01*
X110243905Y-78597047D01*
X110148667Y-78597047D01*
X110053429Y-78644666D01*
X110005810Y-78692285D01*
X109958190Y-78787523D01*
X109910571Y-78978000D01*
X109862952Y-79073238D01*
X109815333Y-79120857D01*
X109720095Y-79168476D01*
X109624857Y-79168476D01*
X109529619Y-79120857D01*
X109482000Y-79073238D01*
X109434381Y-78978000D01*
X109434381Y-78739904D01*
X109482000Y-78597047D01*
X110339143Y-77597047D02*
X110386762Y-77644666D01*
X110434381Y-77787523D01*
X110434381Y-77882761D01*
X110386762Y-78025619D01*
X110291524Y-78120857D01*
X110196286Y-78168476D01*
X110005810Y-78216095D01*
X109862952Y-78216095D01*
X109672476Y-78168476D01*
X109577238Y-78120857D01*
X109482000Y-78025619D01*
X109434381Y-77882761D01*
X109434381Y-77787523D01*
X109482000Y-77644666D01*
X109529619Y-77597047D01*
X110434381Y-76692285D02*
X110434381Y-77168476D01*
X109434381Y-77168476D01*
X110386762Y-75636286D02*
X110434381Y-75493429D01*
X110434381Y-75255333D01*
X110386762Y-75160095D01*
X110339143Y-75112476D01*
X110243905Y-75064857D01*
X110148667Y-75064857D01*
X110053429Y-75112476D01*
X110005810Y-75160095D01*
X109958190Y-75255333D01*
X109910571Y-75445810D01*
X109862952Y-75541048D01*
X109815333Y-75588667D01*
X109720095Y-75636286D01*
X109624857Y-75636286D01*
X109529619Y-75588667D01*
X109482000Y-75541048D01*
X109434381Y-75445810D01*
X109434381Y-75207714D01*
X109482000Y-75064857D01*
X110434381Y-74636286D02*
X109434381Y-74636286D01*
X109434381Y-74398191D01*
X109482000Y-74255333D01*
X109577238Y-74160095D01*
X109672476Y-74112476D01*
X109862952Y-74064857D01*
X110005810Y-74064857D01*
X110196286Y-74112476D01*
X110291524Y-74160095D01*
X110386762Y-74255333D01*
X110434381Y-74398191D01*
X110434381Y-74636286D01*
X110148667Y-73683905D02*
X110148667Y-73207714D01*
X110434381Y-73779143D02*
X109434381Y-73445810D01*
X110434381Y-73112476D01*
M02*
