%TF.GenerationSoftware,KiCad,Pcbnew,4.0.7*%
%TF.CreationDate,2018-03-16T18:08:22+01:00*%
%TF.ProjectId,Synkino,53796E6B696E6F2E6B696361645F7063,rev?*%
%TF.FileFunction,Legend,Bot*%
%FSLAX46Y46*%
G04 Gerber Fmt 4.6, Leading zero omitted, Abs format (unit mm)*
G04 Created by KiCad (PCBNEW 4.0.7) date 2018 March 16, Friday 18:08:22*
%MOMM*%
%LPD*%
G01*
G04 APERTURE LIST*
%ADD10C,0.100000*%
%ADD11C,0.300000*%
%ADD12C,0.150000*%
G04 APERTURE END LIST*
D10*
D11*
X110704572Y-99929143D02*
X111847429Y-99929143D01*
X113704572Y-99929143D02*
X114847429Y-99929143D01*
X114276000Y-100500571D02*
X114276000Y-99357714D01*
X106650572Y-105509143D02*
X106436286Y-105580571D01*
X106079143Y-105580571D01*
X105936286Y-105509143D01*
X105864857Y-105437714D01*
X105793429Y-105294857D01*
X105793429Y-105152000D01*
X105864857Y-105009143D01*
X105936286Y-104937714D01*
X106079143Y-104866286D01*
X106364857Y-104794857D01*
X106507715Y-104723429D01*
X106579143Y-104652000D01*
X106650572Y-104509143D01*
X106650572Y-104366286D01*
X106579143Y-104223429D01*
X106507715Y-104152000D01*
X106364857Y-104080571D01*
X106007715Y-104080571D01*
X105793429Y-104152000D01*
X105293429Y-104580571D02*
X104936286Y-105580571D01*
X104579144Y-104580571D02*
X104936286Y-105580571D01*
X105079144Y-105937714D01*
X105150572Y-106009143D01*
X105293429Y-106080571D01*
X104007715Y-104580571D02*
X104007715Y-105580571D01*
X104007715Y-104723429D02*
X103936287Y-104652000D01*
X103793429Y-104580571D01*
X103579144Y-104580571D01*
X103436287Y-104652000D01*
X103364858Y-104794857D01*
X103364858Y-105580571D01*
X102650572Y-105580571D02*
X102650572Y-104080571D01*
X102507715Y-105009143D02*
X102079144Y-105580571D01*
X102079144Y-104580571D02*
X102650572Y-105152000D01*
X101436286Y-105580571D02*
X101436286Y-104580571D01*
X101436286Y-104080571D02*
X101507715Y-104152000D01*
X101436286Y-104223429D01*
X101364858Y-104152000D01*
X101436286Y-104080571D01*
X101436286Y-104223429D01*
X100722000Y-104580571D02*
X100722000Y-105580571D01*
X100722000Y-104723429D02*
X100650572Y-104652000D01*
X100507714Y-104580571D01*
X100293429Y-104580571D01*
X100150572Y-104652000D01*
X100079143Y-104794857D01*
X100079143Y-105580571D01*
X99150571Y-105580571D02*
X99293429Y-105509143D01*
X99364857Y-105437714D01*
X99436286Y-105294857D01*
X99436286Y-104866286D01*
X99364857Y-104723429D01*
X99293429Y-104652000D01*
X99150571Y-104580571D01*
X98936286Y-104580571D01*
X98793429Y-104652000D01*
X98722000Y-104723429D01*
X98650571Y-104866286D01*
X98650571Y-105294857D01*
X98722000Y-105437714D01*
X98793429Y-105509143D01*
X98936286Y-105580571D01*
X99150571Y-105580571D01*
X96864857Y-105580571D02*
X96864857Y-104080571D01*
X96864857Y-104652000D02*
X96722000Y-104580571D01*
X96436286Y-104580571D01*
X96293429Y-104652000D01*
X96222000Y-104723429D01*
X96150571Y-104866286D01*
X96150571Y-105294857D01*
X96222000Y-105437714D01*
X96293429Y-105509143D01*
X96436286Y-105580571D01*
X96722000Y-105580571D01*
X96864857Y-105509143D01*
X95650571Y-104580571D02*
X95293428Y-105580571D01*
X94936286Y-104580571D02*
X95293428Y-105580571D01*
X95436286Y-105937714D01*
X95507714Y-106009143D01*
X95650571Y-106080571D01*
X93436286Y-104580571D02*
X92864857Y-104580571D01*
X93222000Y-105580571D02*
X93222000Y-104294857D01*
X93150572Y-104152000D01*
X93007714Y-104080571D01*
X92864857Y-104080571D01*
X92364857Y-105580571D02*
X92364857Y-104580571D01*
X92364857Y-104080571D02*
X92436286Y-104152000D01*
X92364857Y-104223429D01*
X92293429Y-104152000D01*
X92364857Y-104080571D01*
X92364857Y-104223429D01*
X91436285Y-105580571D02*
X91579143Y-105509143D01*
X91650571Y-105366286D01*
X91650571Y-104080571D01*
X90864857Y-105580571D02*
X90864857Y-104580571D01*
X90864857Y-104723429D02*
X90793429Y-104652000D01*
X90650571Y-104580571D01*
X90436286Y-104580571D01*
X90293429Y-104652000D01*
X90222000Y-104794857D01*
X90222000Y-105580571D01*
X90222000Y-104794857D02*
X90150571Y-104652000D01*
X90007714Y-104580571D01*
X89793429Y-104580571D01*
X89650571Y-104652000D01*
X89579143Y-104794857D01*
X89579143Y-105580571D01*
X88864857Y-105580571D02*
X88864857Y-104080571D01*
X88722000Y-105009143D02*
X88293429Y-105580571D01*
X88293429Y-104580571D02*
X88864857Y-105152000D01*
X87436285Y-105580571D02*
X87579143Y-105509143D01*
X87650571Y-105437714D01*
X87722000Y-105294857D01*
X87722000Y-104866286D01*
X87650571Y-104723429D01*
X87579143Y-104652000D01*
X87436285Y-104580571D01*
X87222000Y-104580571D01*
X87079143Y-104652000D01*
X87007714Y-104723429D01*
X86936285Y-104866286D01*
X86936285Y-105294857D01*
X87007714Y-105437714D01*
X87079143Y-105509143D01*
X87222000Y-105580571D01*
X87436285Y-105580571D01*
X86293428Y-105580571D02*
X86293428Y-104580571D01*
X86293428Y-104866286D02*
X86222000Y-104723429D01*
X86150571Y-104652000D01*
X86007714Y-104580571D01*
X85864857Y-104580571D01*
X85364857Y-104580571D02*
X85364857Y-105580571D01*
X85364857Y-104723429D02*
X85293429Y-104652000D01*
X85150571Y-104580571D01*
X84936286Y-104580571D01*
X84793429Y-104652000D01*
X84722000Y-104794857D01*
X84722000Y-105580571D01*
X84007714Y-105437714D02*
X83936286Y-105509143D01*
X84007714Y-105580571D01*
X84079143Y-105509143D01*
X84007714Y-105437714D01*
X84007714Y-105580571D01*
X83079142Y-105580571D02*
X83222000Y-105509143D01*
X83293428Y-105437714D01*
X83364857Y-105294857D01*
X83364857Y-104866286D01*
X83293428Y-104723429D01*
X83222000Y-104652000D01*
X83079142Y-104580571D01*
X82864857Y-104580571D01*
X82722000Y-104652000D01*
X82650571Y-104723429D01*
X82579142Y-104866286D01*
X82579142Y-105294857D01*
X82650571Y-105437714D01*
X82722000Y-105509143D01*
X82864857Y-105580571D01*
X83079142Y-105580571D01*
X81936285Y-105580571D02*
X81936285Y-104580571D01*
X81936285Y-104866286D02*
X81864857Y-104723429D01*
X81793428Y-104652000D01*
X81650571Y-104580571D01*
X81507714Y-104580571D01*
X80364857Y-104580571D02*
X80364857Y-105794857D01*
X80436286Y-105937714D01*
X80507714Y-106009143D01*
X80650571Y-106080571D01*
X80864857Y-106080571D01*
X81007714Y-106009143D01*
X80364857Y-105509143D02*
X80507714Y-105580571D01*
X80793428Y-105580571D01*
X80936286Y-105509143D01*
X81007714Y-105437714D01*
X81079143Y-105294857D01*
X81079143Y-104866286D01*
X81007714Y-104723429D01*
X80936286Y-104652000D01*
X80793428Y-104580571D01*
X80507714Y-104580571D01*
X80364857Y-104652000D01*
D12*
X109981904Y-53094000D02*
X110077142Y-53046381D01*
X110219999Y-53046381D01*
X110362857Y-53094000D01*
X110458095Y-53189238D01*
X110505714Y-53284476D01*
X110553333Y-53474952D01*
X110553333Y-53617810D01*
X110505714Y-53808286D01*
X110458095Y-53903524D01*
X110362857Y-53998762D01*
X110219999Y-54046381D01*
X110124761Y-54046381D01*
X109981904Y-53998762D01*
X109934285Y-53951143D01*
X109934285Y-53617810D01*
X110124761Y-53617810D01*
X109505714Y-54046381D02*
X109505714Y-53046381D01*
X108934285Y-54046381D01*
X108934285Y-53046381D01*
X108458095Y-54046381D02*
X108458095Y-53046381D01*
X108220000Y-53046381D01*
X108077142Y-53094000D01*
X107981904Y-53189238D01*
X107934285Y-53284476D01*
X107886666Y-53474952D01*
X107886666Y-53617810D01*
X107934285Y-53808286D01*
X107981904Y-53903524D01*
X108077142Y-53998762D01*
X108220000Y-54046381D01*
X108458095Y-54046381D01*
M02*
