G04 #@! TF.GenerationSoftware,KiCad,Pcbnew,7.0.9-43-g6331a0ab7a*
G04 #@! TF.CreationDate,2023-11-28T23:48:02+01:00*
G04 #@! TF.ProjectId,Synkino,53796e6b-696e-46f2-9e6b-696361645f70,rev?*
G04 #@! TF.SameCoordinates,Original*
G04 #@! TF.FileFunction,Soldermask,Bot*
G04 #@! TF.FilePolarity,Negative*
%FSLAX46Y46*%
G04 Gerber Fmt 4.6, Leading zero omitted, Abs format (unit mm)*
G04 Created by KiCad (PCBNEW 7.0.9-43-g6331a0ab7a) date 2023-11-28 23:48:02*
%MOMM*%
%LPD*%
G01*
G04 APERTURE LIST*
G04 Aperture macros list*
%AMFreePoly0*
4,1,19,0.500000,-0.750000,0.000000,-0.750000,0.000000,-0.744911,-0.071157,-0.744911,-0.207708,-0.704816,-0.327430,-0.627875,-0.420627,-0.520320,-0.479746,-0.390866,-0.500000,-0.250000,-0.500000,0.250000,-0.479746,0.390866,-0.420627,0.520320,-0.327430,0.627875,-0.207708,0.704816,-0.071157,0.744911,0.000000,0.744911,0.000000,0.750000,0.500000,0.750000,0.500000,-0.750000,0.500000,-0.750000,
$1*%
%AMFreePoly1*
4,1,19,0.000000,0.744911,0.071157,0.744911,0.207708,0.704816,0.327430,0.627875,0.420627,0.520320,0.479746,0.390866,0.500000,0.250000,0.500000,-0.250000,0.479746,-0.390866,0.420627,-0.520320,0.327430,-0.627875,0.207708,-0.704816,0.071157,-0.744911,0.000000,-0.744911,0.000000,-0.750000,-0.500000,-0.750000,-0.500000,0.750000,0.000000,0.750000,0.000000,0.744911,0.000000,0.744911,
$1*%
G04 Aperture macros list end*
%ADD10C,0.120000*%
%ADD11O,3.000000X2.000000*%
%ADD12O,1.700000X3.000000*%
%ADD13C,1.800000*%
%ADD14C,2.000000*%
%ADD15R,2.700000X3.700000*%
%ADD16C,1.524000*%
%ADD17R,1.700000X1.700000*%
%ADD18O,1.700000X1.700000*%
%ADD19R,1.500000X1.500000*%
%ADD20C,1.500000*%
%ADD21O,1.500000X2.500000*%
%ADD22O,2.500000X1.700000*%
%ADD23C,2.200000*%
%ADD24C,3.200000*%
%ADD25FreePoly0,90.000000*%
%ADD26FreePoly1,90.000000*%
G04 APERTURE END LIST*
D10*
X166260873Y-53131488D02*
G75*
G03*
X164846000Y-55245000I871127J-2113512D01*
G01*
X169515772Y-54367943D02*
G75*
G03*
X167132000Y-52705000I-2383772J-877057D01*
G01*
X164883829Y-56121525D02*
G75*
G03*
X167132000Y-57658000I2248171J876525D01*
G01*
X167882459Y-56995953D02*
G75*
G03*
X169037000Y-55245000I-750459J1750953D01*
G01*
X177935906Y-58417822D02*
G75*
G03*
X176276000Y-57277000I-1659906J-637178D01*
G01*
X166377381Y-53358317D02*
G75*
G03*
X165100000Y-55245000I754619J-1886683D01*
G01*
X168656220Y-54610528D02*
G75*
G03*
X167132000Y-53594000I-1524220J-634472D01*
G01*
X166381541Y-53494047D02*
G75*
G03*
X165227000Y-55245000I750459J-1750953D01*
G01*
X174525047Y-59805459D02*
G75*
G03*
X176276000Y-60960000I1750953J750459D01*
G01*
X167769178Y-56904906D02*
G75*
G03*
X168910000Y-55245000I-637178J1659906D01*
G01*
X178026953Y-58304541D02*
G75*
G03*
X176276000Y-57150000I-1750953J-750459D01*
G01*
X174734659Y-59646665D02*
G75*
G03*
X176276000Y-60706000I1541341J591665D01*
G01*
X167891626Y-57265953D02*
G75*
G03*
X169291000Y-55245000I-759626J2020953D01*
G01*
X165018488Y-56116127D02*
G75*
G03*
X167132000Y-57531000I2113512J871127D01*
G01*
X169245512Y-54373873D02*
G75*
G03*
X167132000Y-52959000I-2113512J-871127D01*
G01*
X169380171Y-54368475D02*
G75*
G03*
X167132000Y-52832000I-2248171J-876525D01*
G01*
X165607780Y-55879472D02*
G75*
G03*
X167132000Y-56896000I1524220J634472D01*
G01*
X168003127Y-57358512D02*
G75*
G03*
X169418000Y-55245000I-871127J2113512D01*
G01*
X166132924Y-52772201D02*
G75*
G03*
X164465000Y-55245000I999076J-2472799D01*
G01*
X165111047Y-56004626D02*
G75*
G03*
X167132000Y-57404000I2020953J759626D01*
G01*
X166255475Y-52996829D02*
G75*
G03*
X164719000Y-55245000I876525J-2248171D01*
G01*
X165245317Y-55999619D02*
G75*
G03*
X167132000Y-57277000I1886683J754619D01*
G01*
X169152953Y-54485374D02*
G75*
G03*
X167132000Y-53086000I-2020953J-759626D01*
G01*
X166494822Y-53585094D02*
G75*
G03*
X165354000Y-55245000I637178J-1659906D01*
G01*
X164659201Y-56244076D02*
G75*
G03*
X167132000Y-57912000I2472799J999076D01*
G01*
X175638822Y-57395094D02*
G75*
G03*
X174498000Y-59055000I637178J-1659906D01*
G01*
X175525541Y-57304047D02*
G75*
G03*
X174371000Y-59055000I750459J-1750953D01*
G01*
X165472094Y-55882178D02*
G75*
G03*
X167132000Y-57023000I1659906J637178D01*
G01*
X167766472Y-56769220D02*
G75*
G03*
X168783000Y-55245000I-634472J1524220D01*
G01*
X177817341Y-58463335D02*
G75*
G03*
X176276000Y-57404000I-1541341J-591665D01*
G01*
X175684335Y-57513659D02*
G75*
G03*
X174625000Y-59055000I591665J-1541341D01*
G01*
X168008525Y-57493171D02*
G75*
G03*
X169545000Y-55245000I-876525J2248171D01*
G01*
X166497528Y-53720780D02*
G75*
G03*
X165481000Y-55245000I634472J-1524220D01*
G01*
X166254943Y-52861228D02*
G75*
G03*
X164592000Y-55245000I877057J-2383772D01*
G01*
X174616094Y-59692178D02*
G75*
G03*
X176276000Y-60833000I1659906J637178D01*
G01*
X169604799Y-54245924D02*
G75*
G03*
X167132000Y-52578000I-2472799J-999076D01*
G01*
X164748228Y-56122057D02*
G75*
G03*
X167132000Y-57785000I2383772J877057D01*
G01*
X169018683Y-54490381D02*
G75*
G03*
X167132000Y-53213000I-1886683J-754619D01*
G01*
X168009057Y-57628772D02*
G75*
G03*
X169672000Y-55245000I-877057J2383772D01*
G01*
X167886619Y-57131683D02*
G75*
G03*
X169164000Y-55245000I-754619J1886683D01*
G01*
X177026459Y-60805953D02*
G75*
G03*
X178181000Y-59055000I-750459J1750953D01*
G01*
X168882953Y-54494541D02*
G75*
G03*
X167132000Y-53340000I-1750953J-750459D01*
G01*
X176913178Y-60714906D02*
G75*
G03*
X178054000Y-59055000I-637178J1659906D01*
G01*
X168131076Y-57717799D02*
G75*
G03*
X169799000Y-55245000I-999076J2472799D01*
G01*
X165381047Y-55995459D02*
G75*
G03*
X167132000Y-57150000I1750953J750459D01*
G01*
X176867665Y-60596341D02*
G75*
G03*
X177927000Y-59055000I-591665J1541341D01*
G01*
X168791906Y-54607822D02*
G75*
G03*
X167132000Y-53467000I-1659906J-637178D01*
G01*
X166372374Y-53224047D02*
G75*
G03*
X164973000Y-55245000I759626J-2020953D01*
G01*
D11*
X129286000Y-42625000D03*
D12*
X124286000Y-47625000D03*
X134286000Y-47625000D03*
D13*
X133858000Y-98988000D03*
X133858000Y-89988000D03*
D14*
X140108000Y-97028000D03*
X127608000Y-97028000D03*
X140108000Y-91948000D03*
X127608000Y-91948000D03*
X93178000Y-101488000D03*
X88178000Y-101488000D03*
X93178000Y-86988000D03*
X88178000Y-86988000D03*
X90678000Y-86988000D03*
D15*
X96378000Y-94488000D03*
X84978000Y-94488000D03*
D16*
X82804000Y-51054000D03*
X85344000Y-51054000D03*
X87884000Y-51054000D03*
X90424000Y-51054000D03*
X92964000Y-51054000D03*
X95504000Y-51054000D03*
X98044000Y-51054000D03*
D17*
X70358000Y-97790000D03*
D18*
X70358000Y-95250000D03*
X70358000Y-92710000D03*
X70358000Y-90170000D03*
X70358000Y-87630000D03*
X70358000Y-85090000D03*
D17*
X101092000Y-44450000D03*
D18*
X101092000Y-41910000D03*
X103632000Y-44450000D03*
X103632000Y-41910000D03*
X106172000Y-44450000D03*
X106172000Y-41910000D03*
D17*
X156524000Y-69325000D03*
D18*
X156524000Y-71865000D03*
X156524000Y-74405000D03*
X156524000Y-76945000D03*
X156524000Y-79485000D03*
X156524000Y-82025000D03*
D19*
X156524000Y-85983000D03*
X156524000Y-88483000D03*
X156524000Y-90983000D03*
X156524000Y-93483000D03*
X156524000Y-95983000D03*
X156524000Y-98483000D03*
D20*
X70358000Y-49530000D03*
X70358000Y-52070000D03*
X70358000Y-54610000D03*
X70358000Y-57150000D03*
D17*
X110744000Y-93218000D03*
D18*
X110744000Y-90678000D03*
X113284000Y-93218000D03*
X113284000Y-90678000D03*
X115824000Y-93218000D03*
X115824000Y-90678000D03*
D17*
X76708000Y-109728000D03*
D18*
X79248000Y-109728000D03*
X81788000Y-109728000D03*
D17*
X86360000Y-109728000D03*
D18*
X88900000Y-109728000D03*
X91440000Y-109728000D03*
D17*
X96012000Y-109728000D03*
D18*
X98552000Y-109728000D03*
X101092000Y-109728000D03*
D17*
X105664000Y-109728000D03*
D18*
X108204000Y-109728000D03*
X110744000Y-109728000D03*
D17*
X115316000Y-109728000D03*
D18*
X117856000Y-109728000D03*
X120396000Y-109728000D03*
D17*
X124968000Y-109728000D03*
D18*
X127508000Y-109728000D03*
X130048000Y-109728000D03*
D17*
X134620000Y-109728000D03*
D18*
X137160000Y-109728000D03*
X139700000Y-109728000D03*
D17*
X144272000Y-109728000D03*
D18*
X146812000Y-109728000D03*
X149352000Y-109728000D03*
D11*
X91440000Y-40526000D03*
D21*
X93290000Y-45426000D03*
X89590000Y-45426000D03*
D22*
X91440000Y-47426000D03*
D11*
X81026000Y-40526000D03*
D21*
X82876000Y-45426000D03*
X79176000Y-45426000D03*
D22*
X81026000Y-47426000D03*
D19*
X70358000Y-46990000D03*
X111760000Y-77470000D03*
X111760000Y-74930000D03*
X153924000Y-98552000D03*
X86106000Y-41656000D03*
X86233000Y-46101000D03*
D23*
X146812000Y-117856000D03*
X137160000Y-117856000D03*
X108204000Y-117856000D03*
D24*
X156210000Y-103632000D03*
D23*
X127508000Y-117856000D03*
D24*
X156210000Y-41910000D03*
X105791000Y-81010000D03*
X75311000Y-81073500D03*
X110998000Y-103632000D03*
D23*
X98552000Y-117856000D03*
D24*
X70485000Y-103632000D03*
D23*
X117856000Y-117856000D03*
X88900000Y-117856000D03*
D24*
X70485000Y-41910000D03*
D23*
X79248000Y-117856000D03*
D17*
X102357000Y-104140000D03*
D18*
X104897000Y-104140000D03*
D25*
X124714000Y-68468000D03*
D26*
X124714000Y-67168000D03*
M02*
