%TF.GenerationSoftware,KiCad,Pcbnew,4.0.7*%
%TF.CreationDate,2018-04-13T14:57:56+02:00*%
%TF.ProjectId,Synkino,53796E6B696E6F2E6B696361645F7063,rev?*%
%TF.FileFunction,Soldermask,Bot*%
%FSLAX46Y46*%
G04 Gerber Fmt 4.6, Leading zero omitted, Abs format (unit mm)*
G04 Created by KiCad (PCBNEW 4.0.7) date 2018 April 13, Friday 14:57:56*
%MOMM*%
%LPD*%
G01*
G04 APERTURE LIST*
%ADD10C,0.100000*%
%ADD11O,3.448000X2.127200*%
%ADD12C,1.900000*%
%ADD13C,3.600000*%
%ADD14C,4.200000*%
%ADD15C,2.400000*%
%ADD16O,2.100000X3.400000*%
%ADD17O,3.400000X2.400000*%
%ADD18R,3.100000X4.100000*%
%ADD19R,2.100000X2.100000*%
%ADD20O,2.100000X2.100000*%
%ADD21C,1.924000*%
%ADD22O,1.900000X2.900000*%
%ADD23O,2.900000X2.100000*%
%ADD24R,1.900000X1.900000*%
G04 APERTURE END LIST*
D10*
D11*
X122174000Y-92028000D03*
X122174000Y-97028000D03*
X109674000Y-92028000D03*
X109674000Y-97028000D03*
D12*
X154178000Y-98552000D03*
X141986000Y-101600000D03*
D13*
X75311000Y-80073500D03*
D14*
X146812000Y-117856000D03*
X137160000Y-117856000D03*
X127508000Y-117856000D03*
X117856000Y-117856000D03*
X108204000Y-117856000D03*
X98552000Y-117856000D03*
X88900000Y-117856000D03*
D13*
X105791000Y-80010000D03*
D15*
X151638000Y-96266000D03*
X151638000Y-100766000D03*
X145138000Y-96266000D03*
X145138000Y-100766000D03*
D13*
X156210000Y-103632000D03*
X70485000Y-103632000D03*
X70485000Y-41910000D03*
D16*
X131786000Y-47625000D03*
X134286000Y-47625000D03*
X126786000Y-47625000D03*
X124286000Y-47625000D03*
D17*
X129286000Y-42625000D03*
D15*
X93178000Y-101488000D03*
X93178000Y-86988000D03*
X90678000Y-86988000D03*
X88178000Y-86988000D03*
D18*
X96378000Y-94488000D03*
X84978000Y-94488000D03*
D15*
X88178000Y-101488000D03*
D19*
X70358000Y-85090000D03*
D20*
X70358000Y-87630000D03*
X70358000Y-90170000D03*
X70358000Y-92710000D03*
X70358000Y-95250000D03*
X70358000Y-97790000D03*
D19*
X101092000Y-44450000D03*
D20*
X101092000Y-41910000D03*
X103632000Y-44450000D03*
X103632000Y-41910000D03*
X106172000Y-44450000D03*
X106172000Y-41910000D03*
D19*
X156524000Y-69325000D03*
D20*
X156524000Y-71865000D03*
X156524000Y-74405000D03*
X156524000Y-76945000D03*
X156524000Y-79485000D03*
X156524000Y-82025000D03*
D12*
X156524000Y-85983000D03*
X156524000Y-88483000D03*
X156524000Y-90983000D03*
X156524000Y-93483000D03*
X156524000Y-95983000D03*
X156524000Y-98483000D03*
X70358000Y-49530000D03*
X70358000Y-52070000D03*
X70358000Y-54610000D03*
X70358000Y-57150000D03*
X70358000Y-46990000D03*
D13*
X156210000Y-41910000D03*
D19*
X135382000Y-88646000D03*
D20*
X135382000Y-86106000D03*
X137922000Y-88646000D03*
X137922000Y-86106000D03*
X140462000Y-88646000D03*
X140462000Y-86106000D03*
D21*
X82804000Y-51054000D03*
X85344000Y-51054000D03*
X87884000Y-51054000D03*
X90424000Y-51054000D03*
X92964000Y-51054000D03*
X95504000Y-51054000D03*
X98044000Y-51054000D03*
D19*
X76708000Y-109728000D03*
D20*
X79248000Y-109728000D03*
X81788000Y-109728000D03*
D19*
X86360000Y-109728000D03*
D20*
X88900000Y-109728000D03*
X91440000Y-109728000D03*
D19*
X96012000Y-109728000D03*
D20*
X98552000Y-109728000D03*
X101092000Y-109728000D03*
D19*
X105664000Y-109728000D03*
D20*
X108204000Y-109728000D03*
X110744000Y-109728000D03*
D19*
X115316000Y-109728000D03*
D20*
X117856000Y-109728000D03*
X120396000Y-109728000D03*
D19*
X124968000Y-109728000D03*
D20*
X127508000Y-109728000D03*
X130048000Y-109728000D03*
D19*
X134620000Y-109728000D03*
D20*
X137160000Y-109728000D03*
X139700000Y-109728000D03*
D19*
X144272000Y-109728000D03*
D20*
X146812000Y-109728000D03*
X149352000Y-109728000D03*
D22*
X95322000Y-45426000D03*
X91622000Y-45426000D03*
D23*
X93472000Y-47426000D03*
D17*
X93472000Y-40526000D03*
D22*
X81098000Y-45426000D03*
X77398000Y-45426000D03*
D23*
X79248000Y-47426000D03*
D17*
X79248000Y-40526000D03*
D14*
X79248000Y-117856000D03*
D12*
X74930000Y-101473000D03*
X111760000Y-77470000D03*
X111760000Y-74930000D03*
D24*
X124968000Y-67056000D03*
X124968000Y-65278000D03*
D19*
X104902000Y-104140000D03*
D20*
X102362000Y-104140000D03*
M02*
