M48
INCH,TZ
T1C0.016
T2C0.028
T3C0.030
T4C0.031
T5C0.032
T6C0.039
T7C0.043
T8C0.071
T9C0.087
T10C0.020
T11C0.047
T12C0.126
%
G90
G05
T1
X29200Y-26200
X30300Y-33100
X31100Y-28500
X31200Y-24300
X31200Y-46400
X31600Y-28200
X31600Y-28800
X31908Y-21392
X32000Y-19100
X32200Y-33800
X32300Y-24700
X32300Y-37000
X32996Y-24477
X33000Y-24800
X33000Y-45600
X33400Y-26300
X33600Y-21400
X33600Y-22500
X33600Y-28400
X34000Y-28800
X34000Y-34000
X34100Y-40300
X34600Y-21400
X34700Y-20600
X34772Y-24298
X34839Y-23730
X34900Y-24700
X35000Y-46400
X35300Y-30500
X35500Y-26400
X35700Y-21200
X35800Y-23200
X36000Y-20600
X36000Y-33500
X36025Y-26837
X36100Y-21900
X36300Y-24100
X36400Y-26500
X36500Y-25300
X36700Y-23039
X36700Y-31700
X36700Y-33400
X36764Y-26549
X36800Y-45600
X37154Y-31600
X37161Y-24300
X37400Y-22500
X37500Y-25700
X38000Y-18700
X38046Y-27591
X38300Y-23700
X38300Y-25100
X38700Y-31200
X38800Y-46400
X39000Y-18400
X39177Y-27769
X39354Y-25826
X39600Y-19400
X39600Y-32100
X40600Y-45600
X40700Y-19000
X41500Y-19900
X42000Y-26100
X42100Y-27100
X42506Y-27406
X42600Y-46400
X42700Y-26400
X43100Y-16250
X43200Y-26700
X43506Y-19597
X43600Y-26500
X43688Y-26939
X44200Y-37200
X44200Y-39900
X44400Y-45600
X44500Y-35500
X44523Y-20608
X44600Y-36300
X44700Y-37900
X44800Y-26650
X45300Y-37200
X45400Y-22550
X45800Y-20750
X45900Y-35200
X45941Y-29192
X46400Y-46400
X46600Y-26250
X46600Y-29400
X46700Y-27750
X47400Y-29400
X47400Y-34900
X47400Y-35400
X47600Y-24750
X47740Y-26350
X47800Y-26955
X47873Y-21054
X47900Y-29154
X48100Y-28250
X48200Y-45600
X48400Y-41200
X48500Y-26250
X48600Y-22350
X48600Y-28250
X48700Y-36050
X48800Y-33450
X49100Y-30050
X49300Y-28150
X49400Y-24750
X49500Y-27450
X50000Y-30800
X50083Y-27011
X50100Y-23850
X50100Y-27450
X50100Y-28250
X50200Y-20850
X50200Y-46400
X50400Y-24850
X50400Y-28950
X51200Y-32050
X51300Y-37400
X51300Y-39300
X51350Y-33650
X51362Y-26164
X51394Y-27308
X51400Y-26950
X51400Y-27650
X52000Y-45600
X52100Y-30200
X52200Y-31750
X52300Y-20950
X52300Y-24750
X52300Y-39900
X52400Y-35900
X52430Y-24050
X52700Y-27550
X52700Y-28250
X52700Y-40300
X52900Y-31150
X52900Y-31700
X53100Y-38500
X53400Y-38300
X53600Y-39000
X53651Y-24045
X53700Y-37000
X53900Y-24283
X53950Y-27550
X53970Y-26600
X54000Y-29500
X54000Y-38900
X54000Y-46400
X54200Y-31200
X54800Y-36400
X55000Y-33600
X55200Y-31450
X55200Y-37300
X55207Y-35994
X55800Y-45600
X55848Y-22892
X56000Y-24650
X56120Y-28778
X56200Y-22800
X56309Y-32437
X56335Y-29417
X56339Y-29769
X56386Y-30450
X56407Y-31392
X56558Y-24113
X56726Y-29028
X56891Y-28159
X57009Y-35234
X57029Y-34447
X57067Y-31063
X57085Y-32510
X57332Y-33183
X57353Y-29087
X57391Y-22077
X57500Y-23850
X57521Y-31300
X57578Y-32499
X57800Y-39400
X57800Y-46400
X57900Y-28050
X57950Y-29801
X57994Y-29407
X58000Y-22800
X58300Y-20950
X58500Y-24504
X58504Y-23835
X58546Y-32997
X58700Y-22569
X58924Y-36444
X59100Y-39400
X59200Y-26400
X59495Y-27996
X59597Y-30234
X59600Y-45600
X59685Y-27504
X59800Y-30750
X59925Y-28371
X59946Y-28950
X59950Y-25350
X60101Y-31049
X60163Y-31363
X60229Y-31697
X60486Y-29329
X60600Y-26500
X60700Y-18850
X60750Y-20150
X60950Y-25650
X62214Y-26801
T3
X32600Y-20100
X33600Y-20100
X34600Y-20100
X35600Y-20100
X36600Y-20100
X37600Y-20100
X38600Y-20100
T4
X29200Y-18500
X29200Y-19500
X29200Y-20500
X29200Y-21500
X29200Y-22500
X32000Y-39900
X44000Y-29500
X44000Y-30500
X49300Y-41300
X55900Y-40000
X60700Y-38800
X61624Y-33852
X61624Y-34836
X61624Y-35820
X61624Y-36804
X61624Y-37789
X61624Y-38773
T5
X43200Y-38000
X43200Y-39969
X48121Y-38000
X48121Y-39969
T6
X29600Y-33500
X29600Y-34500
X29600Y-35500
X29600Y-36500
X29600Y-37500
X29600Y-38500
X31300Y-43200
X32300Y-43200
X33300Y-43200
X34716Y-34247
X34716Y-39956
X35100Y-43200
X35700Y-34247
X36100Y-43200
X36684Y-34247
X36684Y-39956
X37100Y-43200
X38900Y-43200
X39800Y-16500
X39800Y-17500
X39900Y-43200
X40300Y-41000
X40800Y-16500
X40800Y-17500
X40900Y-43200
X41300Y-41000
X41800Y-16500
X41800Y-17500
X42700Y-43200
X43700Y-43200
X44700Y-43200
X46500Y-43200
X47500Y-43200
X48500Y-43200
X50300Y-43200
X51300Y-43200
X52300Y-43200
X53200Y-33800
X53200Y-34800
X53200Y-35800
X54100Y-43200
X54200Y-33800
X54200Y-34800
X54200Y-35800
X55100Y-43200
X56100Y-34200
X56100Y-35200
X56100Y-43200
X57900Y-43200
X58900Y-43200
X59900Y-43200
X61624Y-27293
X61624Y-28293
X61624Y-29293
X61624Y-30293
X61624Y-31293
X61624Y-32293
T7
X57141Y-37900
X57141Y-39672
X59700Y-37900
X59700Y-39672
T9
X32300Y-46400
X36100Y-46400
X39900Y-46400
X43700Y-46400
X47500Y-46400
X51300Y-46400
X55100Y-46400
X58900Y-46400
T10
X30814Y-42400
X31109Y-42400
X31405Y-42400
X31700Y-42400
X31995Y-42400
X32291Y-42400
X32586Y-42400
X32881Y-42400
X33176Y-42400
X33472Y-42400
X33767Y-42400
X34633Y-42400
X34928Y-42400
X35224Y-42400
X35519Y-42400
X35814Y-42400
X36109Y-42400
X36405Y-42400
X36700Y-42400
X36995Y-42400
X37291Y-42400
X37586Y-42400
X38433Y-42400
X38728Y-42400
X39024Y-42400
X39319Y-42400
X39614Y-42400
X39909Y-42400
X40205Y-42400
X40500Y-42400
X40795Y-42400
X41091Y-42400
X41386Y-42400
X42233Y-42400
X42528Y-42400
X42824Y-42400
X43119Y-42400
X43414Y-42400
X43709Y-42400
X44005Y-42400
X44300Y-42400
X44595Y-42400
X44891Y-42400
X45186Y-42400
X46033Y-42400
X46328Y-42400
X46624Y-42400
X46919Y-42400
X47214Y-42400
X47509Y-42400
X47805Y-42400
X48100Y-42400
X48395Y-42400
X48691Y-42400
X48986Y-42400
X49833Y-42400
X50128Y-42400
X50424Y-42400
X50719Y-42400
X51014Y-42400
X51309Y-42400
X51605Y-42400
X51900Y-42400
X52195Y-42400
X52491Y-42400
X52786Y-42400
X53633Y-42400
X53928Y-42400
X54224Y-42400
X54519Y-42400
X54814Y-42400
X55109Y-42400
X55405Y-42400
X55700Y-42400
X55995Y-42400
X56291Y-42400
X56586Y-42400
X57433Y-42400
X57728Y-42400
X58024Y-42400
X58319Y-42400
X58614Y-42400
X58909Y-42400
X59205Y-42400
X59500Y-42400
X59795Y-42400
X60091Y-42400
X60386Y-42400
T11
X32700Y-16900
X36800Y-16900
X48931Y-15797
X48931Y-16781
X50900Y-18750
X52869Y-15797
X52869Y-16781
T12
X29650Y-31525
X29700Y-16500
X29700Y-40800
X41650Y-31500
X61500Y-16500
X61500Y-40800
T2
X31972Y-17727G85X31972Y-18042
G05
X32543Y-15955G85X32857Y-15955
G05
X32543Y-18672G85X32857Y-18672
G05
X33428Y-17727G85X33428Y-18042
G05
X36072Y-17727G85X36072Y-18042
G05
X36643Y-15955G85X36957Y-15955
G05
X36643Y-18672G85X36957Y-18672
G05
X37528Y-17727G85X37528Y-18042
G05
T4
X48931Y-18612G85X48931Y-18888
G05
X49916Y-18612G85X49916Y-18888
G05
X50762Y-16781G85X51038Y-16781
G05
X51884Y-18612G85X51884Y-18888
G05
X52869Y-18612G85X52869Y-18888
G05
T8
X33456Y-37357G85X33456Y-37043
G05
X37944Y-37357G85X37944Y-37043
G05
T0
M30
