M48
; DRILL file {KiCad 7.0.9-39-g1740aeca5e} date 
; FORMAT={-:-/ absolute / inch / decimal}
; #@! TF.CreationDate,2023-11-27T00:53:53+01:00
; #@! TF.GenerationSoftware,Kicad,Pcbnew,7.0.9-39-g1740aeca5e
; #@! TF.FileFunction,Plated,1,2,PTH
FMAT,2
INCH
; #@! TA.AperFunction,Plated,PTH,ViaDrill
T1C0.0157
; #@! TA.AperFunction,Plated,PTH,ComponentDrill
T2C0.0276
; #@! TA.AperFunction,Plated,PTH,ComponentDrill
T3C0.0300
; #@! TA.AperFunction,Plated,PTH,ComponentDrill
T4C0.0315
; #@! TA.AperFunction,Plated,PTH,ComponentDrill
T5C0.0394
; #@! TA.AperFunction,Plated,PTH,ComponentDrill
T6C0.0551
; #@! TA.AperFunction,Plated,PTH,ComponentDrill
T7C0.0709
%
G90
G05
T1
X3.02Y-4.55
X3.09Y-3.84
X3.1046Y-3.1506
X3.11Y-2.85
X3.13Y-2.91
X3.16Y-2.82
X3.19Y-3.17
X3.215Y-2.1305
X3.22Y-4.55
X3.2281Y-2.39
X3.2996Y-2.4477
X3.3Y-2.48
X3.35Y-2.23
X3.35Y-3.42
X3.36Y-2.97
X3.37Y-2.29
X3.3989Y-4.5478
X3.4Y-3.42
X3.41Y-4.03
X3.4461Y-2.77
X3.45Y-2.06
X3.45Y-2.8646
X3.4839Y-2.373
X3.5Y-2.43
X3.5468Y-2.6368
X3.56Y-3.11
X3.57Y-2.33
X3.5864Y-2.6684
X3.59Y-2.76
X3.6Y-2.06
X3.6Y-4.55
X3.61Y-2.1654
X3.63Y-2.72
X3.634Y-2.6478
X3.65Y-2.53
X3.6636Y-2.6585
X3.67Y-2.3039
X3.7Y-2.33
X3.7Y-3.2
X3.71Y-2.19
X3.7154Y-3.16
X3.75Y-2.57
X3.78Y-1.85
X3.78Y-4.55
X3.8046Y-2.7591
X3.81Y-2.925
X3.83Y-2.37
X3.83Y-2.51
X3.87Y-1.84
X3.8768Y-3.12
X3.9177Y-2.7769
X3.95Y-2.9
X3.96Y-3.21
X3.9683Y-1.9984
X3.98Y-4.55
X4.0Y-3.245
X4.01Y-1.9939
X4.0334Y-3.2766
X4.08Y-2.06
X4.0847Y-2.7993
X4.09Y-2.44
X4.1Y-1.98
X4.16Y-4.55
X4.17Y-1.85
X4.185Y-2.905
X4.2Y-2.61
X4.2Y-3.435
X4.2246Y-2.71
X4.225Y-3.525
X4.24Y-2.67
X4.26Y-2.11
X4.26Y-2.26
X4.2604Y-2.7455
X4.27Y-3.76
X4.2846Y-2.6654
X4.31Y-1.625
X4.3193Y-2.7246
X4.33Y-3.2871
X4.35Y-3.36
X4.3506Y-1.9597
X4.36Y-3.15
X4.36Y-4.55
X4.38Y-2.04
X4.41Y-3.22
X4.41Y-3.28
X4.45Y-3.37
X4.4773Y-3.34
X4.5Y-3.4518
X4.51Y-2.26
X4.51Y-3.73
X4.5258Y-3.1506
X4.54Y-4.55
X4.5751Y-3.5178
X4.5797Y-3.381
X4.58Y-2.075
X4.58Y-3.22
X4.58Y-3.3
X4.63Y-2.9581
X4.63Y-3.82
X4.6309Y-3.37
X4.6315Y-3.4254
X4.64Y-2.58
X4.64Y-3.26
X4.64Y-3.33
X4.66Y-2.64
X4.67Y-2.83
X4.67Y-3.16
X4.67Y-3.51
X4.673Y-2.93
X4.71Y-3.39
X4.735Y-3.595
X4.74Y-2.93
X4.74Y-4.55
X4.75Y-3.67
X4.76Y-2.475
X4.77Y-3.4233
X4.78Y-2.92
X4.7873Y-2.1054
X4.79Y-2.62
X4.79Y-2.6955
X4.81Y-2.82
X4.8245Y-3.6733
X4.85Y-2.26
X4.85Y-2.6104
X4.8536Y-2.825
X4.86Y-3.26
X4.86Y-3.5854
X4.8649Y-3.3136
X4.8719Y-4.076
X4.9Y-3.3083
X4.91Y-3.07
X4.92Y-4.55
X4.93Y-2.815
X4.94Y-2.475
X4.98Y-2.62
X4.98Y-2.81
X4.9876Y-2.7276
X4.99Y-3.4546
X4.9958Y-2.679
X5.0Y-3.08
X5.01Y-2.385
X5.02Y-2.085
X5.04Y-2.485
X5.04Y-2.91
X5.05Y-2.83
X5.12Y-3.1402
X5.12Y-3.205
X5.12Y-4.55
X5.1362Y-2.6164
X5.1394Y-2.7308
X5.14Y-2.695
X5.14Y-2.765
X5.15Y-3.4546
X5.21Y-3.0346
X5.23Y-2.095
X5.23Y-2.475
X5.243Y-2.405
X5.26Y-3.3
X5.26Y-3.36
X5.27Y-2.755
X5.27Y-2.825
X5.29Y-3.115
X5.3Y-3.24
X5.3Y-3.3
X5.3Y-4.55
X5.35Y-3.26
X5.3651Y-2.4045
X5.38Y-2.75
X5.38Y-3.12
X5.39Y-2.4283
X5.397Y-2.63
X5.4Y-2.97
X5.42Y-3.12
X5.4693Y-3.1195
X5.47Y-3.37
X5.5Y-4.55
X5.5051Y-2.4801
X5.5195Y-3.3227
X5.5276Y-3.2176
X5.54Y-2.79
X5.5504Y-2.29
X5.5579Y-3.2869
X5.5938Y-2.4096
X5.612Y-2.8778
X5.625Y-2.46
X5.6335Y-2.9417
X5.6339Y-2.9769
X5.6386Y-3.045
X5.6407Y-3.1392
X5.6726Y-2.9028
X5.68Y-3.32
X5.68Y-4.55
X5.6891Y-2.8159
X5.6935Y-2.41
X5.7029Y-3.4447
X5.7067Y-3.1063
X5.7085Y-3.251
X5.73Y-2.315
X5.7332Y-3.3183
X5.7391Y-2.2077
X5.75Y-2.51
X5.7521Y-3.13
X5.7565Y-2.405
X5.7578Y-3.2499
X5.7903Y-2.8165
X5.795Y-2.705
X5.795Y-2.9801
X5.7994Y-2.9407
X5.815Y-2.49
X5.8546Y-3.2997
X5.8589Y-2.5611
X5.87Y-2.21
X5.88Y-4.55
X5.9597Y-3.0234
X5.98Y-3.075
X5.9925Y-2.8371
X5.9946Y-2.895
X6.0101Y-3.1049
X6.0163Y-3.1363
X6.0229Y-3.1697
X6.0486Y-2.9329
X6.06Y-3.95
X6.0783Y-2.84
X6.0892Y-2.905
T2
X2.77Y-1.85
X2.77Y-1.95
X2.77Y-2.05
X2.77Y-2.15
X2.77Y-2.25
X3.39Y-1.64
X3.395Y-1.815
X4.4Y-2.95
X4.4Y-3.05
X6.06Y-3.88
X6.1624Y-3.3852
X6.1624Y-3.4836
X6.1624Y-3.582
X6.1624Y-3.6804
X6.1624Y-3.7789
X6.1624Y-3.8773
T3
X3.26Y-2.01
X3.36Y-2.01
X3.46Y-2.01
X3.56Y-2.01
X3.66Y-2.01
X3.76Y-2.01
X3.86Y-2.01
T5
X2.77Y-3.35
X2.77Y-3.45
X2.77Y-3.55
X2.77Y-3.65
X2.77Y-3.75
X2.77Y-3.85
X3.02Y-4.32
X3.12Y-4.32
X3.22Y-4.32
X3.4Y-4.32
X3.4716Y-3.4247
X3.4716Y-3.9956
X3.5Y-4.32
X3.57Y-3.4247
X3.6Y-4.32
X3.6684Y-3.4247
X3.6684Y-3.9956
X3.78Y-4.32
X3.88Y-4.32
X3.98Y-1.65
X3.98Y-1.75
X3.98Y-4.32
X4.0298Y-4.1
X4.08Y-1.65
X4.08Y-1.75
X4.1298Y-4.1
X4.16Y-4.32
X4.18Y-1.65
X4.18Y-1.75
X4.26Y-4.32
X4.36Y-3.57
X4.36Y-3.67
X4.36Y-4.32
X4.46Y-3.57
X4.46Y-3.67
X4.54Y-4.32
X4.56Y-3.57
X4.56Y-3.67
X4.64Y-4.32
X4.74Y-4.32
X4.92Y-4.32
X5.02Y-4.32
X5.12Y-4.32
X5.3Y-4.32
X5.4Y-4.32
X5.5Y-4.32
X5.68Y-4.32
X5.78Y-4.32
X5.88Y-4.32
X6.1624Y-2.7293
X6.1624Y-2.8293
X6.1624Y-2.9293
X6.1624Y-3.0293
X6.1624Y-3.1293
X6.1624Y-3.2293
T6
X5.0239Y-3.62
X5.0239Y-3.82
X5.5161Y-3.62
X5.5161Y-3.82
T2
G00X3.1172Y-1.7727
M15
G01X3.1172Y-1.8042
M16
G05
G00X3.1743Y-1.5955
M15
G01X3.2057Y-1.5955
M16
G05
G00X3.1743Y-1.8672
M15
G01X3.2057Y-1.8672
M16
G05
G00X3.2628Y-1.7727
M15
G01X3.2628Y-1.8042
M16
G05
G00X3.5272Y-1.7727
M15
G01X3.5272Y-1.8042
M16
G05
G00X3.5843Y-1.5955
M15
G01X3.6157Y-1.5955
M16
G05
G00X3.5843Y-1.8672
M15
G01X3.6157Y-1.8672
M16
G05
G00X3.6728Y-1.7727
M15
G01X3.6728Y-1.8042
M16
G05
T4
G00X4.8931Y-1.8612
M15
G01X4.8931Y-1.8888
M16
G05
G00X5.0762Y-1.6781
M15
G01X5.1038Y-1.6781
M16
G05
G00X5.2869Y-1.8612
M15
G01X5.2869Y-1.8888
M16
G05
T7
G00X3.3456Y-3.7357
M15
G01X3.3456Y-3.7043
M16
G05
G00X3.7944Y-3.7357
M15
G01X3.7944Y-3.7043
M16
G05
T0
M30
