%TF.GenerationSoftware,KiCad,Pcbnew,7.0.9-43-g6331a0ab7a*%
%TF.CreationDate,2023-11-28T23:48:05+01:00*%
%TF.ProjectId,Synkino,53796e6b-696e-46f2-9e6b-696361645f70,rev?*%
%TF.SameCoordinates,Original*%
%TF.FileFunction,Drillmap*%
%TF.FilePolarity,Positive*%
%FSLAX45Y45*%
G04 Gerber Fmt 4.5, Leading zero omitted, Abs format (unit mm)*
G04 Created by KiCad (PCBNEW 7.0.9-43-g6331a0ab7a) date 2023-11-28 23:48:05*
%MOMM*%
%LPD*%
G01*
G04 APERTURE LIST*
%ADD10C,0.150000*%
%ADD11C,0.200000*%
%ADD12C,0.100000*%
%ADD13C,0.140004*%
%ADD14C,0.180000*%
G04 APERTURE END LIST*
D10*
X16002000Y-4165600D02*
G75*
G03*
X15646400Y-3810000I-355600J0D01*
G01*
X7023100Y-3810000D02*
G75*
G03*
X6667500Y-4165600I0J-355600D01*
G01*
X6667500Y-10388600D02*
G75*
G03*
X7023100Y-10744200I355600J0D01*
G01*
X8458200Y-11988800D02*
G75*
G03*
X8509000Y-12039600I50800J0D01*
G01*
X9423400Y-11988800D02*
G75*
G03*
X9474200Y-12039600I50800J0D01*
G01*
X10388600Y-11988800D02*
G75*
G03*
X10439400Y-12039600I50800J0D01*
G01*
X11353800Y-11988800D02*
G75*
G03*
X11404600Y-12039600I50800J0D01*
G01*
X12319000Y-11988800D02*
G75*
G03*
X12369800Y-12039600I50800J0D01*
G01*
X13284200Y-11988800D02*
G75*
G03*
X13335000Y-12039600I50800J0D01*
G01*
X14249400Y-11988800D02*
G75*
G03*
X14300200Y-12039600I50800J0D01*
G01*
X15062200Y-12039600D02*
G75*
G03*
X15113000Y-11988800I0J50800D01*
G01*
X14097000Y-12039600D02*
G75*
G03*
X14147800Y-11988800I0J50800D01*
G01*
X13131800Y-12039600D02*
G75*
G03*
X13182600Y-11988800I0J50800D01*
G01*
X12166600Y-12039600D02*
G75*
G03*
X12217400Y-11988800I0J50800D01*
G01*
X11201400Y-12039600D02*
G75*
G03*
X11252200Y-11988800I0J50800D01*
G01*
X10236200Y-12039600D02*
G75*
G03*
X10287000Y-11988800I0J50800D01*
G01*
X9271000Y-12039600D02*
G75*
G03*
X9321800Y-11988800I0J50800D01*
G01*
X8305800Y-12039600D02*
G75*
G03*
X8356600Y-11988800I0J50800D01*
G01*
X12725400Y-3810000D02*
X7518400Y-3810000D01*
X9423400Y-10744200D02*
X9423400Y-11988800D01*
X14300200Y-12039600D02*
X15062200Y-12039600D01*
X11404600Y-12039600D02*
X12166600Y-12039600D01*
X9321800Y-10744200D02*
X9423400Y-10744200D01*
X14147800Y-11988800D02*
X14147800Y-10744200D01*
X14147800Y-10744200D02*
X14249400Y-10744200D01*
X8458200Y-10744200D02*
X8458200Y-11988800D01*
X10388600Y-10744200D02*
X10388600Y-11988800D01*
X15113000Y-11988800D02*
X15113000Y-10744200D01*
X7277100Y-10744200D02*
X7493000Y-10744200D01*
X10287000Y-10744200D02*
X10388600Y-10744200D01*
X13131800Y-3810000D02*
X15646400Y-3810000D01*
X12217400Y-10744200D02*
X12319000Y-10744200D01*
X13284200Y-10744200D02*
X13284200Y-11988800D01*
X11353800Y-10744200D02*
X11353800Y-11988800D01*
X7543800Y-12039600D02*
X8305800Y-12039600D01*
X8509000Y-12039600D02*
X9271000Y-12039600D01*
X13131800Y-3937000D02*
X13131800Y-3810000D01*
X9474200Y-12039600D02*
X10236200Y-12039600D01*
X13182600Y-11988800D02*
X13182600Y-10744200D01*
X7493000Y-10744200D02*
X7493000Y-11988800D01*
X9321800Y-11988800D02*
X9321800Y-10744200D01*
X12725400Y-3810000D02*
X12725400Y-3937000D01*
X15392400Y-10744200D02*
X15646400Y-10744200D01*
X6667500Y-4165600D02*
X6667500Y-10388600D01*
X8356600Y-11988800D02*
X8356600Y-10744200D01*
X16002000Y-4165600D02*
X16002000Y-10388600D01*
X7023100Y-10744200D02*
X7277100Y-10744200D01*
X7023100Y-3810000D02*
X7518400Y-3810000D01*
X15113000Y-10744200D02*
X15392400Y-10744200D01*
X12217400Y-11988800D02*
X12217400Y-10744200D01*
X13335000Y-12039600D02*
X14097000Y-12039600D01*
X15646400Y-10744200D02*
G75*
G03*
X16002000Y-10388600I0J355600D01*
G01*
X14249400Y-10744200D02*
X14249400Y-11988800D01*
X7493000Y-11988800D02*
G75*
G03*
X7543800Y-12039600I50800J0D01*
G01*
X13182600Y-10744200D02*
X13284200Y-10744200D01*
X10439400Y-12039600D02*
X11201400Y-12039600D01*
X12725400Y-3937000D02*
X13131800Y-3937000D01*
X11252200Y-11988800D02*
X11252200Y-10744200D01*
X10287000Y-11988800D02*
X10287000Y-10744200D01*
X11252200Y-10744200D02*
X11353800Y-10744200D01*
X12319000Y-10744200D02*
X12319000Y-11988800D01*
X12369800Y-12039600D02*
X13131800Y-12039600D01*
X8356600Y-10744200D02*
X8458200Y-10744200D01*
D11*
D12*
X7650800Y-11537000D02*
X7690800Y-11577000D01*
X7690800Y-11537000D02*
X7650800Y-11577000D01*
X7828600Y-9733600D02*
X7868600Y-9773600D01*
X7868600Y-9733600D02*
X7828600Y-9773600D01*
X7865669Y-7982542D02*
X7905669Y-8022542D01*
X7905669Y-7982542D02*
X7865669Y-8022542D01*
X7879400Y-7219000D02*
X7919400Y-7259000D01*
X7919400Y-7219000D02*
X7879400Y-7259000D01*
X7930200Y-7371400D02*
X7970200Y-7411400D01*
X7970200Y-7371400D02*
X7930200Y-7411400D01*
X8006400Y-7142800D02*
X8046400Y-7182800D01*
X8046400Y-7142800D02*
X8006400Y-7182800D01*
X8082600Y-8031800D02*
X8122600Y-8071800D01*
X8122600Y-8031800D02*
X8082600Y-8071800D01*
X8146075Y-5391527D02*
X8186075Y-5431527D01*
X8186075Y-5391527D02*
X8146075Y-5431527D01*
X8158800Y-11537000D02*
X8198800Y-11577000D01*
X8198800Y-11537000D02*
X8158800Y-11577000D01*
X8179250Y-6050600D02*
X8219250Y-6090600D01*
X8219250Y-6050600D02*
X8179250Y-6090600D01*
X8361038Y-6197131D02*
X8401038Y-6237131D01*
X8401038Y-6197131D02*
X8361038Y-6237131D01*
X8362000Y-6279200D02*
X8402000Y-6319200D01*
X8402000Y-6279200D02*
X8362000Y-6319200D01*
X8489000Y-5644200D02*
X8529000Y-5684200D01*
X8529000Y-5644200D02*
X8489000Y-5684200D01*
X8489000Y-8666800D02*
X8529000Y-8706800D01*
X8529000Y-8666800D02*
X8489000Y-8706800D01*
X8514400Y-7523800D02*
X8554400Y-7563800D01*
X8554400Y-7523800D02*
X8514400Y-7563800D01*
X8539800Y-5796600D02*
X8579800Y-5836600D01*
X8579800Y-5796600D02*
X8539800Y-5836600D01*
X8613217Y-11531491D02*
X8653217Y-11571491D01*
X8653217Y-11531491D02*
X8613217Y-11571491D01*
X8616000Y-8666800D02*
X8656000Y-8706800D01*
X8656000Y-8666800D02*
X8616000Y-8706800D01*
X8641400Y-10216200D02*
X8681400Y-10256200D01*
X8681400Y-10216200D02*
X8641400Y-10256200D01*
X8733050Y-7015800D02*
X8773050Y-7055800D01*
X8773050Y-7015800D02*
X8733050Y-7055800D01*
X8743000Y-5212400D02*
X8783000Y-5252400D01*
X8783000Y-5212400D02*
X8743000Y-5252400D01*
X8743000Y-7256050D02*
X8783000Y-7296050D01*
X8783000Y-7256050D02*
X8743000Y-7296050D01*
X8829000Y-6007500D02*
X8869000Y-6047500D01*
X8869000Y-6007500D02*
X8829000Y-6047500D01*
X8870000Y-6152200D02*
X8910000Y-6192200D01*
X8910000Y-6152200D02*
X8870000Y-6192200D01*
X8988875Y-6677475D02*
X9028875Y-6717475D01*
X9028875Y-6677475D02*
X8988875Y-6717475D01*
X9022400Y-7879400D02*
X9062400Y-7919400D01*
X9062400Y-7879400D02*
X9022400Y-7919400D01*
X9047800Y-5898200D02*
X9087800Y-5938200D01*
X9087800Y-5898200D02*
X9047800Y-5938200D01*
X9089388Y-6757853D02*
X9129388Y-6797853D01*
X9129388Y-6757853D02*
X9089388Y-6797853D01*
X9098600Y-6990400D02*
X9138600Y-7030400D01*
X9138600Y-6990400D02*
X9098600Y-7030400D01*
X9124000Y-5212400D02*
X9164000Y-5252400D01*
X9164000Y-5212400D02*
X9124000Y-5252400D01*
X9124000Y-11537000D02*
X9164000Y-11577000D01*
X9164000Y-11537000D02*
X9124000Y-11577000D01*
X9149400Y-5480099D02*
X9189400Y-5520099D01*
X9189400Y-5480099D02*
X9149400Y-5520099D01*
X9200200Y-6888800D02*
X9240200Y-6928800D01*
X9240200Y-6888800D02*
X9200200Y-6928800D01*
X9210240Y-6705462D02*
X9250240Y-6745462D01*
X9250240Y-6705462D02*
X9210240Y-6745462D01*
X9251000Y-6406200D02*
X9291000Y-6446200D01*
X9291000Y-6406200D02*
X9251000Y-6446200D01*
X9285499Y-6732597D02*
X9325499Y-6772597D01*
X9325499Y-6732597D02*
X9285499Y-6772597D01*
X9301800Y-5831800D02*
X9341800Y-5871800D01*
X9341800Y-5831800D02*
X9301800Y-5871800D01*
X9378000Y-5898200D02*
X9418000Y-5938200D01*
X9418000Y-5898200D02*
X9378000Y-5938200D01*
X9378000Y-8108000D02*
X9418000Y-8148000D01*
X9418000Y-8108000D02*
X9378000Y-8148000D01*
X9403400Y-5542600D02*
X9443400Y-5582600D01*
X9443400Y-5542600D02*
X9403400Y-5582600D01*
X9417099Y-8006400D02*
X9457099Y-8046400D01*
X9457099Y-8006400D02*
X9417099Y-8046400D01*
X9505000Y-6507800D02*
X9545000Y-6547800D01*
X9545000Y-6507800D02*
X9505000Y-6547800D01*
X9581200Y-4679000D02*
X9621200Y-4719000D01*
X9621200Y-4679000D02*
X9581200Y-4719000D01*
X9581200Y-11537000D02*
X9621200Y-11577000D01*
X9621200Y-11537000D02*
X9581200Y-11577000D01*
X9643701Y-6988074D02*
X9683701Y-7028074D01*
X9683701Y-6988074D02*
X9643701Y-7028074D01*
X9657400Y-7409500D02*
X9697400Y-7449500D01*
X9697400Y-7409500D02*
X9657400Y-7449500D01*
X9708200Y-5999800D02*
X9748200Y-6039800D01*
X9748200Y-5999800D02*
X9708200Y-6039800D01*
X9708200Y-6355400D02*
X9748200Y-6395400D01*
X9748200Y-6355400D02*
X9708200Y-6395400D01*
X9809800Y-4653600D02*
X9849800Y-4693600D01*
X9849800Y-4653600D02*
X9809800Y-4693600D01*
X9827053Y-7904874D02*
X9867053Y-7944874D01*
X9867053Y-7904874D02*
X9827053Y-7944874D01*
X9930898Y-7033274D02*
X9970898Y-7073274D01*
X9970898Y-7033274D02*
X9930898Y-7073274D01*
X10013000Y-7346000D02*
X10053000Y-7386000D01*
X10053000Y-7346000D02*
X10013000Y-7386000D01*
X10038400Y-8133400D02*
X10078400Y-8173400D01*
X10078400Y-8133400D02*
X10038400Y-8173400D01*
X10059434Y-5055936D02*
X10099434Y-5095936D01*
X10099434Y-5055936D02*
X10059434Y-5095936D01*
X10089200Y-11537000D02*
X10129200Y-11577000D01*
X10129200Y-11537000D02*
X10089200Y-11577000D01*
X10140000Y-8222300D02*
X10180000Y-8262300D01*
X10180000Y-8222300D02*
X10140000Y-8262300D01*
X10165400Y-5044550D02*
X10205400Y-5084550D01*
X10205400Y-5044550D02*
X10165400Y-5084550D01*
X10224790Y-8302610D02*
X10264790Y-8342610D01*
X10264790Y-8302610D02*
X10224790Y-8342610D01*
X10343200Y-5212400D02*
X10383200Y-5252400D01*
X10383200Y-5212400D02*
X10343200Y-5252400D01*
X10355150Y-7090275D02*
X10395150Y-7130275D01*
X10395150Y-7090275D02*
X10355150Y-7130275D01*
X10368600Y-6177600D02*
X10408600Y-6217600D01*
X10408600Y-6177600D02*
X10368600Y-6217600D01*
X10394000Y-5009200D02*
X10434000Y-5049200D01*
X10434000Y-5009200D02*
X10394000Y-5049200D01*
X10521000Y-4602800D02*
X10561000Y-4642800D01*
X10561000Y-4602800D02*
X10521000Y-4642800D01*
X10546400Y-11537000D02*
X10586400Y-11577000D01*
X10586400Y-11537000D02*
X10546400Y-11577000D01*
X10609900Y-7358700D02*
X10649900Y-7398700D01*
X10649900Y-7358700D02*
X10609900Y-7398700D01*
X10648000Y-6609400D02*
X10688000Y-6649400D01*
X10688000Y-6609400D02*
X10648000Y-6649400D01*
X10648000Y-8704900D02*
X10688000Y-8744900D01*
X10688000Y-8704900D02*
X10648000Y-8744900D01*
X10710501Y-6863400D02*
X10750501Y-6903400D01*
X10750501Y-6863400D02*
X10710501Y-6903400D01*
X10711500Y-8933500D02*
X10751500Y-8973500D01*
X10751500Y-8933500D02*
X10711500Y-8973500D01*
X10749600Y-6761731D02*
X10789600Y-6801731D01*
X10789600Y-6761731D02*
X10749600Y-6801731D01*
X10800400Y-5339400D02*
X10840400Y-5379400D01*
X10840400Y-5339400D02*
X10800400Y-5379400D01*
X10800400Y-5720400D02*
X10840400Y-5760400D01*
X10840400Y-5720400D02*
X10800400Y-5760400D01*
X10801305Y-6953487D02*
X10841305Y-6993487D01*
X10841305Y-6953487D02*
X10801305Y-6993487D01*
X10825800Y-9530400D02*
X10865800Y-9570400D01*
X10865800Y-9530400D02*
X10825800Y-9570400D01*
X10863008Y-6749992D02*
X10903008Y-6789992D01*
X10903008Y-6749992D02*
X10863008Y-6789992D01*
X10927400Y-4107500D02*
X10967400Y-4147500D01*
X10967400Y-4107500D02*
X10927400Y-4147500D01*
X10951125Y-6900407D02*
X10991125Y-6940407D01*
X10991125Y-6900407D02*
X10951125Y-6940407D01*
X10978200Y-8329150D02*
X11018200Y-8369150D01*
X11018200Y-8329150D02*
X10978200Y-8369150D01*
X11029000Y-8514400D02*
X11069000Y-8554400D01*
X11069000Y-8514400D02*
X11029000Y-8554400D01*
X11030581Y-4957596D02*
X11070581Y-4997596D01*
X11070581Y-4957596D02*
X11030581Y-4997596D01*
X11054400Y-7981000D02*
X11094400Y-8021000D01*
X11094400Y-7981000D02*
X11054400Y-8021000D01*
X11054400Y-11537000D02*
X11094400Y-11577000D01*
X11094400Y-11537000D02*
X11054400Y-11577000D01*
X11105200Y-5161600D02*
X11145200Y-5201600D01*
X11145200Y-5161600D02*
X11105200Y-5201600D01*
X11181400Y-8158800D02*
X11221400Y-8198800D01*
X11221400Y-8158800D02*
X11181400Y-8198800D01*
X11181400Y-8311200D02*
X11221400Y-8351200D01*
X11221400Y-8311200D02*
X11181400Y-8351200D01*
X11283000Y-8539800D02*
X11323000Y-8579800D01*
X11323000Y-8539800D02*
X11283000Y-8579800D01*
X11352450Y-8463600D02*
X11392450Y-8503600D01*
X11392450Y-8463600D02*
X11352450Y-8503600D01*
X11410000Y-8747502D02*
X11450000Y-8787502D01*
X11450000Y-8747502D02*
X11410000Y-8787502D01*
X11435400Y-5720400D02*
X11475400Y-5760400D01*
X11475400Y-5720400D02*
X11435400Y-5760400D01*
X11435400Y-9454200D02*
X11475400Y-9494200D01*
X11475400Y-9454200D02*
X11435400Y-9494200D01*
X11475510Y-7982499D02*
X11515510Y-8022499D01*
X11515510Y-7982499D02*
X11475510Y-8022499D01*
X11511600Y-11537000D02*
X11551600Y-11577000D01*
X11551600Y-11537000D02*
X11511600Y-11577000D01*
X11600744Y-8915250D02*
X11640744Y-8955250D01*
X11640744Y-8915250D02*
X11600744Y-8955250D01*
X11612400Y-8567660D02*
X11652400Y-8607660D01*
X11652400Y-8567660D02*
X11612400Y-8607660D01*
X11613200Y-5250500D02*
X11653200Y-5290500D01*
X11653200Y-5250500D02*
X11613200Y-5290500D01*
X11613200Y-8158800D02*
X11653200Y-8198800D01*
X11653200Y-8158800D02*
X11613200Y-8198800D01*
X11613200Y-8362000D02*
X11653200Y-8402000D01*
X11653200Y-8362000D02*
X11613200Y-8402000D01*
X11740200Y-7493500D02*
X11780200Y-7533500D01*
X11780200Y-7493500D02*
X11740200Y-7533500D01*
X11740200Y-9682800D02*
X11780200Y-9722800D01*
X11780200Y-9682800D02*
X11740200Y-9722800D01*
X11742401Y-8539800D02*
X11782401Y-8579800D01*
X11782401Y-8539800D02*
X11742401Y-8579800D01*
X11744092Y-8680499D02*
X11784092Y-8720499D01*
X11784092Y-8680499D02*
X11744092Y-8720499D01*
X11765600Y-6533200D02*
X11805600Y-6573200D01*
X11805600Y-6533200D02*
X11765600Y-6573200D01*
X11765600Y-8260400D02*
X11805600Y-8300400D01*
X11805600Y-8260400D02*
X11765600Y-8300400D01*
X11765600Y-8438200D02*
X11805600Y-8478200D01*
X11805600Y-8438200D02*
X11765600Y-8478200D01*
X11791000Y-4552000D02*
X11831000Y-4592000D01*
X11831000Y-4552000D02*
X11791000Y-4592000D01*
X11816400Y-6685600D02*
X11856400Y-6725600D01*
X11856400Y-6685600D02*
X11816400Y-6725600D01*
X11841800Y-7168200D02*
X11881800Y-7208200D01*
X11881800Y-7168200D02*
X11841800Y-7208200D01*
X11841800Y-8006400D02*
X11881800Y-8046400D01*
X11881800Y-8006400D02*
X11841800Y-8046400D01*
X11841800Y-8895400D02*
X11881800Y-8935400D01*
X11881800Y-8895400D02*
X11841800Y-8935400D01*
X11849518Y-7422094D02*
X11889518Y-7462094D01*
X11889518Y-7422094D02*
X11849518Y-7462094D01*
X11943400Y-8590600D02*
X11983400Y-8630600D01*
X11983400Y-8590600D02*
X11943400Y-8630600D01*
X12006900Y-9111300D02*
X12046900Y-9151300D01*
X12046900Y-9111300D02*
X12006900Y-9151300D01*
X12019600Y-7422097D02*
X12059600Y-7462097D01*
X12059600Y-7422097D02*
X12019600Y-7462097D01*
X12019600Y-11537000D02*
X12059600Y-11577000D01*
X12059600Y-11537000D02*
X12019600Y-11577000D01*
X12045000Y-9301800D02*
X12085000Y-9341800D01*
X12085000Y-9301800D02*
X12045000Y-9341800D01*
X12070400Y-6266500D02*
X12110400Y-6306500D01*
X12110400Y-6266500D02*
X12070400Y-6306500D01*
X12095800Y-8675270D02*
X12135800Y-8715270D01*
X12135800Y-8675270D02*
X12095800Y-8715270D01*
X12121200Y-7396800D02*
X12161200Y-7436800D01*
X12161200Y-7396800D02*
X12121200Y-7436800D01*
X12139752Y-5327773D02*
X12179752Y-5367773D01*
X12179752Y-5327773D02*
X12139752Y-5367773D01*
X12146600Y-6634800D02*
X12186600Y-6674800D01*
X12186600Y-6634800D02*
X12146600Y-6674800D01*
X12146600Y-6826602D02*
X12186600Y-6866602D01*
X12186600Y-6826602D02*
X12146600Y-6866602D01*
X12197400Y-7142800D02*
X12237400Y-7182800D01*
X12237400Y-7142800D02*
X12197400Y-7182800D01*
X12234109Y-9310077D02*
X12274109Y-9350077D01*
X12274109Y-9310077D02*
X12234109Y-9350077D01*
X12299000Y-5720400D02*
X12339000Y-5760400D01*
X12339000Y-5720400D02*
X12299000Y-5760400D01*
X12299000Y-6610399D02*
X12339000Y-6650399D01*
X12339000Y-6610399D02*
X12299000Y-6650399D01*
X12308040Y-7155450D02*
X12348040Y-7195450D01*
X12348040Y-7155450D02*
X12308040Y-7195450D01*
X12324400Y-8260400D02*
X12364400Y-8300400D01*
X12364400Y-8260400D02*
X12324400Y-8300400D01*
X12324400Y-9086950D02*
X12364400Y-9126950D01*
X12364400Y-9086950D02*
X12324400Y-9126950D01*
X12336842Y-8396647D02*
X12376842Y-8436647D01*
X12376842Y-8396647D02*
X12336842Y-8436647D01*
X12354750Y-10333027D02*
X12394750Y-10373027D01*
X12394750Y-10333027D02*
X12354750Y-10373027D01*
X12426000Y-8383187D02*
X12466000Y-8423187D01*
X12466000Y-8383187D02*
X12426000Y-8423187D01*
X12451400Y-7777800D02*
X12491400Y-7817800D01*
X12491400Y-7777800D02*
X12451400Y-7817800D01*
X12476800Y-11537000D02*
X12516800Y-11577000D01*
X12516800Y-11537000D02*
X12476800Y-11577000D01*
X12502200Y-7130100D02*
X12542200Y-7170100D01*
X12542200Y-7130100D02*
X12502200Y-7170100D01*
X12527600Y-6266500D02*
X12567600Y-6306500D01*
X12567600Y-6266500D02*
X12527600Y-6306500D01*
X12629200Y-6634800D02*
X12669200Y-6674800D01*
X12669200Y-6634800D02*
X12629200Y-6674800D01*
X12629200Y-7117400D02*
X12669200Y-7157400D01*
X12669200Y-7117400D02*
X12629200Y-7157400D01*
X12648550Y-6908150D02*
X12688550Y-6948150D01*
X12688550Y-6908150D02*
X12648550Y-6948150D01*
X12654600Y-8754701D02*
X12694600Y-8794701D01*
X12694600Y-8754701D02*
X12654600Y-8794701D01*
X12669238Y-6784680D02*
X12709238Y-6824680D01*
X12709238Y-6784680D02*
X12669238Y-6824680D01*
X12686600Y-7752400D02*
X12726600Y-7792400D01*
X12726600Y-7752400D02*
X12686600Y-7792400D01*
X12705400Y-6037900D02*
X12745400Y-6077900D01*
X12745400Y-6037900D02*
X12705400Y-6077900D01*
X12730800Y-5275900D02*
X12770800Y-5315900D01*
X12770800Y-5275900D02*
X12730800Y-5315900D01*
X12781600Y-6291900D02*
X12821600Y-6331900D01*
X12821600Y-6291900D02*
X12781600Y-6331900D01*
X12781600Y-7371400D02*
X12821600Y-7411400D01*
X12821600Y-7371400D02*
X12781600Y-7411400D01*
X12807000Y-7168250D02*
X12847000Y-7208250D01*
X12847000Y-7168250D02*
X12807000Y-7208250D01*
X12984800Y-7956100D02*
X13024800Y-7996100D01*
X13024800Y-7956100D02*
X12984800Y-7996100D01*
X12984800Y-8120700D02*
X13024800Y-8160700D01*
X13024800Y-8120700D02*
X12984800Y-8160700D01*
X12984800Y-11537000D02*
X13024800Y-11577000D01*
X13024800Y-11537000D02*
X12984800Y-11577000D01*
X13025900Y-6625700D02*
X13065900Y-6665700D01*
X13065900Y-6625700D02*
X13025900Y-6665700D01*
X13033954Y-6916356D02*
X13073954Y-6956356D01*
X13073954Y-6916356D02*
X13033954Y-6956356D01*
X13035600Y-6825300D02*
X13075600Y-6865300D01*
X13075600Y-6825300D02*
X13035600Y-6865300D01*
X13035600Y-7003100D02*
X13075600Y-7043100D01*
X13075600Y-7003100D02*
X13035600Y-7043100D01*
X13061000Y-8754701D02*
X13101000Y-8794701D01*
X13101000Y-8754701D02*
X13061000Y-8794701D01*
X13213400Y-7687901D02*
X13253400Y-7727901D01*
X13253400Y-7687901D02*
X13213400Y-7727901D01*
X13264200Y-6266500D02*
X13304200Y-6306500D01*
X13304200Y-6266500D02*
X13264200Y-6306500D01*
X13297201Y-6088700D02*
X13337201Y-6128700D01*
X13337201Y-6088700D02*
X13297201Y-6128700D01*
X13340400Y-8362000D02*
X13380400Y-8402000D01*
X13380400Y-8362000D02*
X13340400Y-8402000D01*
X13340400Y-8514400D02*
X13380400Y-8554400D01*
X13380400Y-8514400D02*
X13340400Y-8554400D01*
X13365800Y-6977700D02*
X13405800Y-7017700D01*
X13405800Y-6977700D02*
X13365800Y-7017700D01*
X13365800Y-7155500D02*
X13405800Y-7195500D01*
X13405800Y-7155500D02*
X13365800Y-7195500D01*
X13416600Y-7892100D02*
X13456600Y-7932100D01*
X13456600Y-7892100D02*
X13416600Y-7932100D01*
X13442000Y-8209600D02*
X13482000Y-8249600D01*
X13482000Y-8209600D02*
X13442000Y-8249600D01*
X13442000Y-8362000D02*
X13482000Y-8402000D01*
X13482000Y-8362000D02*
X13442000Y-8402000D01*
X13442000Y-11537000D02*
X13482000Y-11577000D01*
X13482000Y-11537000D02*
X13442000Y-11577000D01*
X13569000Y-8260400D02*
X13609000Y-8300400D01*
X13609000Y-8260400D02*
X13569000Y-8300400D01*
X13607400Y-6087500D02*
X13647400Y-6127500D01*
X13647400Y-6087500D02*
X13607400Y-6127500D01*
X13645200Y-6965000D02*
X13685200Y-7005000D01*
X13685200Y-6965000D02*
X13645200Y-7005000D01*
X13645200Y-7904800D02*
X13685200Y-7944800D01*
X13685200Y-7904800D02*
X13645200Y-7944800D01*
X13670600Y-6147874D02*
X13710600Y-6187874D01*
X13710600Y-6147874D02*
X13670600Y-6187874D01*
X13688399Y-6660200D02*
X13728399Y-6700200D01*
X13728399Y-6660200D02*
X13688399Y-6700200D01*
X13696000Y-7523800D02*
X13736000Y-7563800D01*
X13736000Y-7523800D02*
X13696000Y-7563800D01*
X13746800Y-7904800D02*
X13786800Y-7944800D01*
X13786800Y-7904800D02*
X13746800Y-7944800D01*
X13872131Y-7903482D02*
X13912131Y-7943482D01*
X13912131Y-7903482D02*
X13872131Y-7943482D01*
X13873800Y-8539800D02*
X13913800Y-8579800D01*
X13913800Y-8539800D02*
X13873800Y-8579800D01*
X13950000Y-11537000D02*
X13990000Y-11577000D01*
X13990000Y-11537000D02*
X13950000Y-11577000D01*
X13962991Y-6279491D02*
X14002991Y-6319491D01*
X14002991Y-6279491D02*
X13962991Y-6319491D01*
X13999497Y-8419638D02*
X14039497Y-8459638D01*
X14039497Y-8419638D02*
X13999497Y-8459638D01*
X14020105Y-8152705D02*
X14060105Y-8192705D01*
X14060105Y-8152705D02*
X14020105Y-8192705D01*
X14051600Y-7066600D02*
X14091600Y-7106600D01*
X14091600Y-7066600D02*
X14051600Y-7106600D01*
X14078050Y-5796600D02*
X14118050Y-5836600D01*
X14118050Y-5796600D02*
X14078050Y-5836600D01*
X14097079Y-8328710D02*
X14137079Y-8368710D01*
X14137079Y-8328710D02*
X14097079Y-8368710D01*
X14188242Y-6100350D02*
X14228242Y-6140350D01*
X14228242Y-6100350D02*
X14188242Y-6140350D01*
X14234400Y-7289500D02*
X14274400Y-7329500D01*
X14274400Y-7289500D02*
X14234400Y-7329500D01*
X14267500Y-6228400D02*
X14307500Y-6268400D01*
X14307500Y-6228400D02*
X14267500Y-6268400D01*
X14289111Y-7452015D02*
X14329111Y-7492015D01*
X14329111Y-7452015D02*
X14289111Y-7492015D01*
X14290000Y-7541293D02*
X14330000Y-7581293D01*
X14330000Y-7541293D02*
X14290000Y-7581293D01*
X14301975Y-7714347D02*
X14341975Y-7754347D01*
X14341975Y-7714347D02*
X14301975Y-7754347D01*
X14307375Y-7953639D02*
X14347375Y-7993639D01*
X14347375Y-7953639D02*
X14307375Y-7993639D01*
X14388376Y-7353219D02*
X14428376Y-7393219D01*
X14428376Y-7353219D02*
X14388376Y-7393219D01*
X14407200Y-8412800D02*
X14447200Y-8452800D01*
X14447200Y-8412800D02*
X14407200Y-8452800D01*
X14407200Y-11537000D02*
X14447200Y-11577000D01*
X14447200Y-11537000D02*
X14407200Y-11577000D01*
X14430205Y-7132495D02*
X14470205Y-7172495D01*
X14470205Y-7132495D02*
X14430205Y-7172495D01*
X14441550Y-6101400D02*
X14481550Y-6141400D01*
X14481550Y-6101400D02*
X14441550Y-6141400D01*
X14465400Y-8729500D02*
X14505400Y-8769500D01*
X14505400Y-8729500D02*
X14465400Y-8769500D01*
X14475012Y-7870056D02*
X14515012Y-7910056D01*
X14515012Y-7870056D02*
X14475012Y-7910056D01*
X14479704Y-8237499D02*
X14519704Y-8277499D01*
X14519704Y-8237499D02*
X14479704Y-8277499D01*
X14542205Y-8408500D02*
X14582205Y-8448500D01*
X14582205Y-8408500D02*
X14542205Y-8448500D01*
X14559600Y-5587500D02*
X14599600Y-5627500D01*
X14599600Y-5587500D02*
X14559600Y-5627500D01*
X14559600Y-5898200D02*
X14599600Y-5938200D01*
X14599600Y-5898200D02*
X14559600Y-5938200D01*
X14585000Y-6355400D02*
X14625000Y-6395400D01*
X14625000Y-6355400D02*
X14585000Y-6395400D01*
X14590414Y-7930097D02*
X14630414Y-7970097D01*
X14630414Y-7930097D02*
X14590414Y-7970097D01*
X14601450Y-6088700D02*
X14641450Y-6128700D01*
X14641450Y-6088700D02*
X14601450Y-6128700D01*
X14604705Y-8234805D02*
X14644705Y-8274805D01*
X14644705Y-8234805D02*
X14604705Y-8274805D01*
X14687450Y-7133950D02*
X14727450Y-7173950D01*
X14727450Y-7133950D02*
X14687450Y-7173950D01*
X14699300Y-6850700D02*
X14739300Y-6890700D01*
X14739300Y-6850700D02*
X14699300Y-6890700D01*
X14699400Y-7549500D02*
X14739400Y-7589500D01*
X14739400Y-7549500D02*
X14699400Y-7589500D01*
X14710400Y-7449500D02*
X14750400Y-7489500D01*
X14750400Y-7449500D02*
X14710400Y-7489500D01*
X14750100Y-6304600D02*
X14790100Y-6344600D01*
X14790100Y-6304600D02*
X14750100Y-6344600D01*
X14850700Y-8361212D02*
X14890700Y-8401213D01*
X14890700Y-8361212D02*
X14850700Y-8401213D01*
X14861516Y-6485284D02*
X14901516Y-6525284D01*
X14901516Y-6485284D02*
X14861516Y-6525284D01*
X14889800Y-5593400D02*
X14929800Y-5633400D01*
X14929800Y-5593400D02*
X14889800Y-5633400D01*
X14915200Y-11537000D02*
X14955200Y-11577000D01*
X14955200Y-11537000D02*
X14915200Y-11577000D01*
X15117717Y-7659447D02*
X15157717Y-7699447D01*
X15157717Y-7659447D02*
X15117717Y-7699447D01*
X15169200Y-7790500D02*
X15209200Y-7830500D01*
X15209200Y-7790500D02*
X15169200Y-7830500D01*
X15200871Y-7186151D02*
X15240871Y-7226151D01*
X15240871Y-7186151D02*
X15200871Y-7226151D01*
X15206301Y-7333300D02*
X15246301Y-7373300D01*
X15246301Y-7333300D02*
X15206301Y-7373300D01*
X15245568Y-7866532D02*
X15285568Y-7906532D01*
X15285568Y-7866532D02*
X15245568Y-7906532D01*
X15261478Y-7946082D02*
X15301478Y-7986082D01*
X15301478Y-7946082D02*
X15261478Y-7986082D01*
X15278194Y-8031063D02*
X15318194Y-8071063D01*
X15318194Y-8031063D02*
X15278194Y-8071063D01*
X15343400Y-7429500D02*
X15383400Y-7469500D01*
X15383400Y-7429500D02*
X15343400Y-7469500D01*
X15372400Y-10013000D02*
X15412400Y-10053000D01*
X15412400Y-10013000D02*
X15372400Y-10053000D01*
X15418981Y-7193600D02*
X15458981Y-7233600D01*
X15458981Y-7193600D02*
X15418981Y-7233600D01*
X15446534Y-7358700D02*
X15486534Y-7398700D01*
X15486534Y-7358700D02*
X15446534Y-7398700D01*
X7070800Y-4699000D02*
G75*
G03*
X7070800Y-4699000I-35000J0D01*
G01*
X7070800Y-4953000D02*
G75*
G03*
X7070800Y-4953000I-35000J0D01*
G01*
X7070800Y-5207000D02*
G75*
G03*
X7070800Y-5207000I-35000J0D01*
G01*
X7070800Y-5461000D02*
G75*
G03*
X7070800Y-5461000I-35000J0D01*
G01*
X7070800Y-5715000D02*
G75*
G03*
X7070800Y-5715000I-35000J0D01*
G01*
X7952600Y-4542600D02*
G75*
G03*
X7952600Y-4542600I-35000J0D01*
G01*
X7882600Y-4502600D02*
X7882600Y-4582600D01*
X7882600Y-4582600D02*
G75*
G03*
X7952600Y-4582600I35000J0D01*
G01*
X7952600Y-4582600D02*
X7952600Y-4502600D01*
X7952600Y-4502600D02*
G75*
G03*
X7882600Y-4502600I-35000J0D01*
G01*
X8137600Y-4052600D02*
G75*
G03*
X8137600Y-4052600I-35000J0D01*
G01*
X8062600Y-4087600D02*
X8142600Y-4087600D01*
X8142600Y-4087600D02*
G75*
G03*
X8142600Y-4017600I0J35000D01*
G01*
X8142600Y-4017600D02*
X8062600Y-4017600D01*
X8062600Y-4017600D02*
G75*
G03*
X8062600Y-4087600I0J-35000D01*
G01*
X8137600Y-4742600D02*
G75*
G03*
X8137600Y-4742600I-35000J0D01*
G01*
X8062600Y-4777600D02*
X8142600Y-4777600D01*
X8142600Y-4777600D02*
G75*
G03*
X8142600Y-4707600I0J35000D01*
G01*
X8142600Y-4707600D02*
X8062600Y-4707600D01*
X8062600Y-4707600D02*
G75*
G03*
X8062600Y-4777600I0J-35000D01*
G01*
X8322600Y-4542600D02*
G75*
G03*
X8322600Y-4542600I-35000J0D01*
G01*
X8252600Y-4502600D02*
X8252600Y-4582600D01*
X8252600Y-4582600D02*
G75*
G03*
X8322600Y-4582600I35000J0D01*
G01*
X8322600Y-4582600D02*
X8322600Y-4502600D01*
X8322600Y-4502600D02*
G75*
G03*
X8252600Y-4502600I-35000J0D01*
G01*
X8645600Y-4165600D02*
G75*
G03*
X8645600Y-4165600I-35000J0D01*
G01*
X8658300Y-4610100D02*
G75*
G03*
X8658300Y-4610100I-35000J0D01*
G01*
X8994000Y-4542600D02*
G75*
G03*
X8994000Y-4542600I-35000J0D01*
G01*
X8924000Y-4502600D02*
X8924000Y-4582600D01*
X8924000Y-4582600D02*
G75*
G03*
X8994000Y-4582600I35000J0D01*
G01*
X8994000Y-4582600D02*
X8994000Y-4502600D01*
X8994000Y-4502600D02*
G75*
G03*
X8924000Y-4502600I-35000J0D01*
G01*
X9179000Y-4052600D02*
G75*
G03*
X9179000Y-4052600I-35000J0D01*
G01*
X9104000Y-4087600D02*
X9184000Y-4087600D01*
X9184000Y-4087600D02*
G75*
G03*
X9184000Y-4017600I0J35000D01*
G01*
X9184000Y-4017600D02*
X9104000Y-4017600D01*
X9104000Y-4017600D02*
G75*
G03*
X9104000Y-4087600I0J-35000D01*
G01*
X9179000Y-4742600D02*
G75*
G03*
X9179000Y-4742600I-35000J0D01*
G01*
X9104000Y-4777600D02*
X9184000Y-4777600D01*
X9184000Y-4777600D02*
G75*
G03*
X9184000Y-4707600I0J35000D01*
G01*
X9184000Y-4707600D02*
X9104000Y-4707600D01*
X9104000Y-4707600D02*
G75*
G03*
X9104000Y-4777600I0J-35000D01*
G01*
X9364000Y-4542600D02*
G75*
G03*
X9364000Y-4542600I-35000J0D01*
G01*
X9294000Y-4502600D02*
X9294000Y-4582600D01*
X9294000Y-4582600D02*
G75*
G03*
X9364000Y-4582600I35000J0D01*
G01*
X9364000Y-4582600D02*
X9364000Y-4502600D01*
X9364000Y-4502600D02*
G75*
G03*
X9294000Y-4502600I-35000J0D01*
G01*
X11211000Y-7493000D02*
G75*
G03*
X11211000Y-7493000I-35000J0D01*
G01*
X11211000Y-7747000D02*
G75*
G03*
X11211000Y-7747000I-35000J0D01*
G01*
X15427400Y-9855200D02*
G75*
G03*
X15427400Y-9855200I-35000J0D01*
G01*
X15687400Y-8598300D02*
G75*
G03*
X15687400Y-8598300I-35000J0D01*
G01*
X15687400Y-8848300D02*
G75*
G03*
X15687400Y-8848300I-35000J0D01*
G01*
X15687400Y-9098300D02*
G75*
G03*
X15687400Y-9098300I-35000J0D01*
G01*
X15687400Y-9348300D02*
G75*
G03*
X15687400Y-9348300I-35000J0D01*
G01*
X15687400Y-9598300D02*
G75*
G03*
X15687400Y-9598300I-35000J0D01*
G01*
X15687400Y-9848300D02*
G75*
G03*
X15687400Y-9848300I-35000J0D01*
G01*
X8280400Y-5067300D02*
X8280400Y-5143500D01*
X8242300Y-5105400D02*
X8318500Y-5105400D01*
X8534400Y-5067300D02*
X8534400Y-5143500D01*
X8496300Y-5105400D02*
X8572500Y-5105400D01*
X8788400Y-5067300D02*
X8788400Y-5143500D01*
X8750300Y-5105400D02*
X8826500Y-5105400D01*
X9042400Y-5067300D02*
X9042400Y-5143500D01*
X9004300Y-5105400D02*
X9080500Y-5105400D01*
X9296400Y-5067300D02*
X9296400Y-5143500D01*
X9258300Y-5105400D02*
X9334500Y-5105400D01*
X9550400Y-5067300D02*
X9550400Y-5143500D01*
X9512300Y-5105400D02*
X9588500Y-5105400D01*
X9804400Y-5067300D02*
X9804400Y-5143500D01*
X9766300Y-5105400D02*
X9842500Y-5105400D01*
X12456884Y-4790785D02*
X12456884Y-4734216D01*
X12400315Y-4734216D01*
X12400315Y-4790785D01*
X12456884Y-4790785D01*
X12388600Y-4727500D02*
X12388600Y-4797500D01*
X12388600Y-4797500D02*
G75*
G03*
X12468600Y-4797500I40000J0D01*
G01*
X12468600Y-4797500D02*
X12468600Y-4727500D01*
X12468600Y-4727500D02*
G75*
G03*
X12388600Y-4727500I-40000J0D01*
G01*
X12956884Y-4290785D02*
X12956884Y-4234216D01*
X12900315Y-4234216D01*
X12900315Y-4290785D01*
X12956884Y-4290785D01*
X12893600Y-4302500D02*
X12963600Y-4302500D01*
X12963600Y-4302500D02*
G75*
G03*
X12963600Y-4222500I0J40000D01*
G01*
X12963600Y-4222500D02*
X12893600Y-4222500D01*
X12893600Y-4222500D02*
G75*
G03*
X12893600Y-4302500I0J-40000D01*
G01*
X13456884Y-4790785D02*
X13456884Y-4734216D01*
X13400315Y-4734216D01*
X13400315Y-4790785D01*
X13456884Y-4790785D01*
X13388600Y-4727500D02*
X13388600Y-4797500D01*
X13388600Y-4797500D02*
G75*
G03*
X13468600Y-4797500I40000J0D01*
G01*
X13468600Y-4797500D02*
X13468600Y-4727500D01*
X13468600Y-4727500D02*
G75*
G03*
X13388600Y-4727500I-40000J0D01*
G01*
X7035800Y-8559000D02*
X7085800Y-8509000D01*
X7035800Y-8459000D01*
X6985800Y-8509000D01*
X7035800Y-8559000D01*
X7035800Y-8813000D02*
X7085800Y-8763000D01*
X7035800Y-8713000D01*
X6985800Y-8763000D01*
X7035800Y-8813000D01*
X7035800Y-9067000D02*
X7085800Y-9017000D01*
X7035800Y-8967000D01*
X6985800Y-9017000D01*
X7035800Y-9067000D01*
X7035800Y-9321000D02*
X7085800Y-9271000D01*
X7035800Y-9221000D01*
X6985800Y-9271000D01*
X7035800Y-9321000D01*
X7035800Y-9575000D02*
X7085800Y-9525000D01*
X7035800Y-9475000D01*
X6985800Y-9525000D01*
X7035800Y-9575000D01*
X7035800Y-9829000D02*
X7085800Y-9779000D01*
X7035800Y-9729000D01*
X6985800Y-9779000D01*
X7035800Y-9829000D01*
X7670800Y-11022800D02*
X7720800Y-10972800D01*
X7670800Y-10922800D01*
X7620800Y-10972800D01*
X7670800Y-11022800D01*
X7924800Y-11022800D02*
X7974800Y-10972800D01*
X7924800Y-10922800D01*
X7874800Y-10972800D01*
X7924800Y-11022800D01*
X8178800Y-11022800D02*
X8228800Y-10972800D01*
X8178800Y-10922800D01*
X8128800Y-10972800D01*
X8178800Y-11022800D01*
X8636000Y-11022800D02*
X8686000Y-10972800D01*
X8636000Y-10922800D01*
X8586000Y-10972800D01*
X8636000Y-11022800D01*
X8817800Y-8748800D02*
X8867800Y-8698800D01*
X8817800Y-8648800D01*
X8767800Y-8698800D01*
X8817800Y-8748800D01*
X8817800Y-10198800D02*
X8867800Y-10148800D01*
X8817800Y-10098800D01*
X8767800Y-10148800D01*
X8817800Y-10198800D01*
X8890000Y-11022800D02*
X8940000Y-10972800D01*
X8890000Y-10922800D01*
X8840000Y-10972800D01*
X8890000Y-11022800D01*
X9067800Y-8748800D02*
X9117800Y-8698800D01*
X9067800Y-8648800D01*
X9017800Y-8698800D01*
X9067800Y-8748800D01*
X9144000Y-11022800D02*
X9194000Y-10972800D01*
X9144000Y-10922800D01*
X9094000Y-10972800D01*
X9144000Y-11022800D01*
X9317800Y-8748800D02*
X9367800Y-8698800D01*
X9317800Y-8648800D01*
X9267800Y-8698800D01*
X9317800Y-8748800D01*
X9317800Y-10198800D02*
X9367800Y-10148800D01*
X9317800Y-10098800D01*
X9267800Y-10148800D01*
X9317800Y-10198800D01*
X9601200Y-11022800D02*
X9651200Y-10972800D01*
X9601200Y-10922800D01*
X9551200Y-10972800D01*
X9601200Y-11022800D01*
X9855200Y-11022800D02*
X9905200Y-10972800D01*
X9855200Y-10922800D01*
X9805200Y-10972800D01*
X9855200Y-11022800D01*
X10109200Y-4241000D02*
X10159200Y-4191000D01*
X10109200Y-4141000D01*
X10059200Y-4191000D01*
X10109200Y-4241000D01*
X10109200Y-4495000D02*
X10159200Y-4445000D01*
X10109200Y-4395000D01*
X10059200Y-4445000D01*
X10109200Y-4495000D01*
X10109200Y-11022800D02*
X10159200Y-10972800D01*
X10109200Y-10922800D01*
X10059200Y-10972800D01*
X10109200Y-11022800D01*
X10235700Y-10464000D02*
X10285700Y-10414000D01*
X10235700Y-10364000D01*
X10185700Y-10414000D01*
X10235700Y-10464000D01*
X10363200Y-4241000D02*
X10413200Y-4191000D01*
X10363200Y-4141000D01*
X10313200Y-4191000D01*
X10363200Y-4241000D01*
X10363200Y-4495000D02*
X10413200Y-4445000D01*
X10363200Y-4395000D01*
X10313200Y-4445000D01*
X10363200Y-4495000D01*
X10489700Y-10464000D02*
X10539700Y-10414000D01*
X10489700Y-10364000D01*
X10439700Y-10414000D01*
X10489700Y-10464000D01*
X10566400Y-11022800D02*
X10616400Y-10972800D01*
X10566400Y-10922800D01*
X10516400Y-10972800D01*
X10566400Y-11022800D01*
X10617200Y-4241000D02*
X10667200Y-4191000D01*
X10617200Y-4141000D01*
X10567200Y-4191000D01*
X10617200Y-4241000D01*
X10617200Y-4495000D02*
X10667200Y-4445000D01*
X10617200Y-4395000D01*
X10567200Y-4445000D01*
X10617200Y-4495000D01*
X10820400Y-11022800D02*
X10870400Y-10972800D01*
X10820400Y-10922800D01*
X10770400Y-10972800D01*
X10820400Y-11022800D01*
X11074400Y-9117800D02*
X11124400Y-9067800D01*
X11074400Y-9017800D01*
X11024400Y-9067800D01*
X11074400Y-9117800D01*
X11074400Y-9371800D02*
X11124400Y-9321800D01*
X11074400Y-9271800D01*
X11024400Y-9321800D01*
X11074400Y-9371800D01*
X11074400Y-11022800D02*
X11124400Y-10972800D01*
X11074400Y-10922800D01*
X11024400Y-10972800D01*
X11074400Y-11022800D01*
X11328400Y-9117800D02*
X11378400Y-9067800D01*
X11328400Y-9017800D01*
X11278400Y-9067800D01*
X11328400Y-9117800D01*
X11328400Y-9371800D02*
X11378400Y-9321800D01*
X11328400Y-9271800D01*
X11278400Y-9321800D01*
X11328400Y-9371800D01*
X11531600Y-11022800D02*
X11581600Y-10972800D01*
X11531600Y-10922800D01*
X11481600Y-10972800D01*
X11531600Y-11022800D01*
X11582400Y-9117800D02*
X11632400Y-9067800D01*
X11582400Y-9017800D01*
X11532400Y-9067800D01*
X11582400Y-9117800D01*
X11582400Y-9371800D02*
X11632400Y-9321800D01*
X11582400Y-9271800D01*
X11532400Y-9321800D01*
X11582400Y-9371800D01*
X11785600Y-11022800D02*
X11835600Y-10972800D01*
X11785600Y-10922800D01*
X11735600Y-10972800D01*
X11785600Y-11022800D01*
X12039600Y-11022800D02*
X12089600Y-10972800D01*
X12039600Y-10922800D01*
X11989600Y-10972800D01*
X12039600Y-11022800D01*
X12496800Y-11022800D02*
X12546800Y-10972800D01*
X12496800Y-10922800D01*
X12446800Y-10972800D01*
X12496800Y-11022800D01*
X12750800Y-11022800D02*
X12800800Y-10972800D01*
X12750800Y-10922800D01*
X12700800Y-10972800D01*
X12750800Y-11022800D01*
X13004800Y-11022800D02*
X13054800Y-10972800D01*
X13004800Y-10922800D01*
X12954800Y-10972800D01*
X13004800Y-11022800D01*
X13462000Y-11022800D02*
X13512000Y-10972800D01*
X13462000Y-10922800D01*
X13412000Y-10972800D01*
X13462000Y-11022800D01*
X13716000Y-11022800D02*
X13766000Y-10972800D01*
X13716000Y-10922800D01*
X13666000Y-10972800D01*
X13716000Y-11022800D01*
X13970000Y-11022800D02*
X14020000Y-10972800D01*
X13970000Y-10922800D01*
X13920000Y-10972800D01*
X13970000Y-11022800D01*
X14427200Y-11022800D02*
X14477200Y-10972800D01*
X14427200Y-10922800D01*
X14377200Y-10972800D01*
X14427200Y-11022800D01*
X14681200Y-11022800D02*
X14731200Y-10972800D01*
X14681200Y-10922800D01*
X14631200Y-10972800D01*
X14681200Y-11022800D01*
X14935200Y-11022800D02*
X14985200Y-10972800D01*
X14935200Y-10922800D01*
X14885200Y-10972800D01*
X14935200Y-11022800D01*
X15652400Y-6982500D02*
X15702400Y-6932500D01*
X15652400Y-6882500D01*
X15602400Y-6932500D01*
X15652400Y-6982500D01*
X15652400Y-7236500D02*
X15702400Y-7186500D01*
X15652400Y-7136500D01*
X15602400Y-7186500D01*
X15652400Y-7236500D01*
X15652400Y-7490500D02*
X15702400Y-7440500D01*
X15652400Y-7390500D01*
X15602400Y-7440500D01*
X15652400Y-7490500D01*
X15652400Y-7744500D02*
X15702400Y-7694500D01*
X15652400Y-7644500D01*
X15602400Y-7694500D01*
X15652400Y-7744500D01*
X15652400Y-7998500D02*
X15702400Y-7948500D01*
X15652400Y-7898500D01*
X15602400Y-7948500D01*
X15652400Y-7998500D01*
X15652400Y-8252500D02*
X15702400Y-8202500D01*
X15652400Y-8152500D01*
X15602400Y-8202500D01*
X15652400Y-8252500D01*
D13*
X12690798Y-9124798D02*
X12830802Y-9264802D01*
X12830802Y-9124798D02*
X12690798Y-9264802D01*
X12830802Y-9194800D02*
G75*
G03*
X12830802Y-9194800I-70002J0D01*
G01*
X12690798Y-9632798D02*
X12830802Y-9772802D01*
X12830802Y-9632798D02*
X12690798Y-9772802D01*
X12830802Y-9702800D02*
G75*
G03*
X12830802Y-9702800I-70002J0D01*
G01*
X13940798Y-9124798D02*
X14080802Y-9264802D01*
X14080802Y-9124798D02*
X13940798Y-9264802D01*
X14080802Y-9194800D02*
G75*
G03*
X14080802Y-9194800I-70002J0D01*
G01*
X13940798Y-9632798D02*
X14080802Y-9772802D01*
X14080802Y-9632798D02*
X13940798Y-9772802D01*
X14080802Y-9702800D02*
G75*
G03*
X14080802Y-9702800I-70002J0D01*
G01*
D14*
X8407800Y-9358800D02*
X8587800Y-9538800D01*
X8587800Y-9358800D02*
X8407800Y-9538800D01*
X8497800Y-9358800D02*
X8497800Y-9538800D01*
X8407800Y-9448800D02*
X8587800Y-9448800D01*
D12*
X8587800Y-9488800D02*
X8587800Y-9408800D01*
X8587800Y-9408800D02*
G75*
G03*
X8407800Y-9408800I-90000J0D01*
G01*
X8407800Y-9408800D02*
X8407800Y-9488800D01*
X8407800Y-9488800D02*
G75*
G03*
X8587800Y-9488800I90000J0D01*
G01*
D14*
X9547800Y-9358800D02*
X9727800Y-9538800D01*
X9727800Y-9358800D02*
X9547800Y-9538800D01*
X9637800Y-9358800D02*
X9637800Y-9538800D01*
X9547800Y-9448800D02*
X9727800Y-9448800D01*
D12*
X9727800Y-9488800D02*
X9727800Y-9408800D01*
X9727800Y-9408800D02*
G75*
G03*
X9547800Y-9408800I-90000J0D01*
G01*
X9547800Y-9408800D02*
X9547800Y-9488800D01*
X9547800Y-9488800D02*
G75*
G03*
X9727800Y-9488800I90000J0D01*
G01*
D11*
X6920777Y-12358584D02*
X6920777Y-12158584D01*
X6920777Y-12158584D02*
X6968396Y-12158584D01*
X6968396Y-12158584D02*
X6996967Y-12168108D01*
X6996967Y-12168108D02*
X7016015Y-12187155D01*
X7016015Y-12187155D02*
X7025539Y-12206203D01*
X7025539Y-12206203D02*
X7035062Y-12244298D01*
X7035062Y-12244298D02*
X7035062Y-12272869D01*
X7035062Y-12272869D02*
X7025539Y-12310965D01*
X7025539Y-12310965D02*
X7016015Y-12330012D01*
X7016015Y-12330012D02*
X6996967Y-12349060D01*
X6996967Y-12349060D02*
X6968396Y-12358584D01*
X6968396Y-12358584D02*
X6920777Y-12358584D01*
X7120777Y-12358584D02*
X7120777Y-12225250D01*
X7120777Y-12263346D02*
X7130301Y-12244298D01*
X7130301Y-12244298D02*
X7139824Y-12234774D01*
X7139824Y-12234774D02*
X7158872Y-12225250D01*
X7158872Y-12225250D02*
X7177920Y-12225250D01*
X7244586Y-12358584D02*
X7244586Y-12225250D01*
X7244586Y-12158584D02*
X7235062Y-12168108D01*
X7235062Y-12168108D02*
X7244586Y-12177631D01*
X7244586Y-12177631D02*
X7254110Y-12168108D01*
X7254110Y-12168108D02*
X7244586Y-12158584D01*
X7244586Y-12158584D02*
X7244586Y-12177631D01*
X7368396Y-12358584D02*
X7349348Y-12349060D01*
X7349348Y-12349060D02*
X7339824Y-12330012D01*
X7339824Y-12330012D02*
X7339824Y-12158584D01*
X7473158Y-12358584D02*
X7454110Y-12349060D01*
X7454110Y-12349060D02*
X7444586Y-12330012D01*
X7444586Y-12330012D02*
X7444586Y-12158584D01*
X7701729Y-12358584D02*
X7701729Y-12158584D01*
X7701729Y-12158584D02*
X7768396Y-12301441D01*
X7768396Y-12301441D02*
X7835062Y-12158584D01*
X7835062Y-12158584D02*
X7835062Y-12358584D01*
X8016015Y-12358584D02*
X8016015Y-12253822D01*
X8016015Y-12253822D02*
X8006491Y-12234774D01*
X8006491Y-12234774D02*
X7987443Y-12225250D01*
X7987443Y-12225250D02*
X7949348Y-12225250D01*
X7949348Y-12225250D02*
X7930301Y-12234774D01*
X8016015Y-12349060D02*
X7996967Y-12358584D01*
X7996967Y-12358584D02*
X7949348Y-12358584D01*
X7949348Y-12358584D02*
X7930301Y-12349060D01*
X7930301Y-12349060D02*
X7920777Y-12330012D01*
X7920777Y-12330012D02*
X7920777Y-12310965D01*
X7920777Y-12310965D02*
X7930301Y-12291917D01*
X7930301Y-12291917D02*
X7949348Y-12282393D01*
X7949348Y-12282393D02*
X7996967Y-12282393D01*
X7996967Y-12282393D02*
X8016015Y-12272869D01*
X8111253Y-12225250D02*
X8111253Y-12425250D01*
X8111253Y-12234774D02*
X8130301Y-12225250D01*
X8130301Y-12225250D02*
X8168396Y-12225250D01*
X8168396Y-12225250D02*
X8187443Y-12234774D01*
X8187443Y-12234774D02*
X8196967Y-12244298D01*
X8196967Y-12244298D02*
X8206491Y-12263346D01*
X8206491Y-12263346D02*
X8206491Y-12320488D01*
X8206491Y-12320488D02*
X8196967Y-12339536D01*
X8196967Y-12339536D02*
X8187443Y-12349060D01*
X8187443Y-12349060D02*
X8168396Y-12358584D01*
X8168396Y-12358584D02*
X8130301Y-12358584D01*
X8130301Y-12358584D02*
X8111253Y-12349060D01*
X8292205Y-12339536D02*
X8301729Y-12349060D01*
X8301729Y-12349060D02*
X8292205Y-12358584D01*
X8292205Y-12358584D02*
X8282682Y-12349060D01*
X8282682Y-12349060D02*
X8292205Y-12339536D01*
X8292205Y-12339536D02*
X8292205Y-12358584D01*
X8292205Y-12234774D02*
X8301729Y-12244298D01*
X8301729Y-12244298D02*
X8292205Y-12253822D01*
X8292205Y-12253822D02*
X8282682Y-12244298D01*
X8282682Y-12244298D02*
X8292205Y-12234774D01*
X8292205Y-12234774D02*
X8292205Y-12253822D01*
D12*
X6620000Y-12667100D02*
X6660000Y-12707100D01*
X6660000Y-12667100D02*
X6620000Y-12707100D01*
D11*
X6958872Y-12578584D02*
X6977920Y-12578584D01*
X6977920Y-12578584D02*
X6996967Y-12588108D01*
X6996967Y-12588108D02*
X7006491Y-12597631D01*
X7006491Y-12597631D02*
X7016015Y-12616679D01*
X7016015Y-12616679D02*
X7025539Y-12654774D01*
X7025539Y-12654774D02*
X7025539Y-12702393D01*
X7025539Y-12702393D02*
X7016015Y-12740488D01*
X7016015Y-12740488D02*
X7006491Y-12759536D01*
X7006491Y-12759536D02*
X6996967Y-12769060D01*
X6996967Y-12769060D02*
X6977920Y-12778584D01*
X6977920Y-12778584D02*
X6958872Y-12778584D01*
X6958872Y-12778584D02*
X6939824Y-12769060D01*
X6939824Y-12769060D02*
X6930301Y-12759536D01*
X6930301Y-12759536D02*
X6920777Y-12740488D01*
X6920777Y-12740488D02*
X6911253Y-12702393D01*
X6911253Y-12702393D02*
X6911253Y-12654774D01*
X6911253Y-12654774D02*
X6920777Y-12616679D01*
X6920777Y-12616679D02*
X6930301Y-12597631D01*
X6930301Y-12597631D02*
X6939824Y-12588108D01*
X6939824Y-12588108D02*
X6958872Y-12578584D01*
X7111253Y-12759536D02*
X7120777Y-12769060D01*
X7120777Y-12769060D02*
X7111253Y-12778584D01*
X7111253Y-12778584D02*
X7101729Y-12769060D01*
X7101729Y-12769060D02*
X7111253Y-12759536D01*
X7111253Y-12759536D02*
X7111253Y-12778584D01*
X7292205Y-12645250D02*
X7292205Y-12778584D01*
X7244586Y-12569060D02*
X7196967Y-12711917D01*
X7196967Y-12711917D02*
X7320777Y-12711917D01*
X7435062Y-12578584D02*
X7454110Y-12578584D01*
X7454110Y-12578584D02*
X7473158Y-12588108D01*
X7473158Y-12588108D02*
X7482682Y-12597631D01*
X7482682Y-12597631D02*
X7492205Y-12616679D01*
X7492205Y-12616679D02*
X7501729Y-12654774D01*
X7501729Y-12654774D02*
X7501729Y-12702393D01*
X7501729Y-12702393D02*
X7492205Y-12740488D01*
X7492205Y-12740488D02*
X7482682Y-12759536D01*
X7482682Y-12759536D02*
X7473158Y-12769060D01*
X7473158Y-12769060D02*
X7454110Y-12778584D01*
X7454110Y-12778584D02*
X7435062Y-12778584D01*
X7435062Y-12778584D02*
X7416015Y-12769060D01*
X7416015Y-12769060D02*
X7406491Y-12759536D01*
X7406491Y-12759536D02*
X7396967Y-12740488D01*
X7396967Y-12740488D02*
X7387443Y-12702393D01*
X7387443Y-12702393D02*
X7387443Y-12654774D01*
X7387443Y-12654774D02*
X7396967Y-12616679D01*
X7396967Y-12616679D02*
X7406491Y-12597631D01*
X7406491Y-12597631D02*
X7416015Y-12588108D01*
X7416015Y-12588108D02*
X7435062Y-12578584D01*
X7625539Y-12578584D02*
X7644586Y-12578584D01*
X7644586Y-12578584D02*
X7663634Y-12588108D01*
X7663634Y-12588108D02*
X7673158Y-12597631D01*
X7673158Y-12597631D02*
X7682682Y-12616679D01*
X7682682Y-12616679D02*
X7692205Y-12654774D01*
X7692205Y-12654774D02*
X7692205Y-12702393D01*
X7692205Y-12702393D02*
X7682682Y-12740488D01*
X7682682Y-12740488D02*
X7673158Y-12759536D01*
X7673158Y-12759536D02*
X7663634Y-12769060D01*
X7663634Y-12769060D02*
X7644586Y-12778584D01*
X7644586Y-12778584D02*
X7625539Y-12778584D01*
X7625539Y-12778584D02*
X7606491Y-12769060D01*
X7606491Y-12769060D02*
X7596967Y-12759536D01*
X7596967Y-12759536D02*
X7587443Y-12740488D01*
X7587443Y-12740488D02*
X7577920Y-12702393D01*
X7577920Y-12702393D02*
X7577920Y-12654774D01*
X7577920Y-12654774D02*
X7587443Y-12616679D01*
X7587443Y-12616679D02*
X7596967Y-12597631D01*
X7596967Y-12597631D02*
X7606491Y-12588108D01*
X7606491Y-12588108D02*
X7625539Y-12578584D01*
X7777920Y-12778584D02*
X7777920Y-12645250D01*
X7777920Y-12664298D02*
X7787443Y-12654774D01*
X7787443Y-12654774D02*
X7806491Y-12645250D01*
X7806491Y-12645250D02*
X7835063Y-12645250D01*
X7835063Y-12645250D02*
X7854110Y-12654774D01*
X7854110Y-12654774D02*
X7863634Y-12673822D01*
X7863634Y-12673822D02*
X7863634Y-12778584D01*
X7863634Y-12673822D02*
X7873158Y-12654774D01*
X7873158Y-12654774D02*
X7892205Y-12645250D01*
X7892205Y-12645250D02*
X7920777Y-12645250D01*
X7920777Y-12645250D02*
X7939824Y-12654774D01*
X7939824Y-12654774D02*
X7949348Y-12673822D01*
X7949348Y-12673822D02*
X7949348Y-12778584D01*
X8044586Y-12778584D02*
X8044586Y-12645250D01*
X8044586Y-12664298D02*
X8054110Y-12654774D01*
X8054110Y-12654774D02*
X8073158Y-12645250D01*
X8073158Y-12645250D02*
X8101729Y-12645250D01*
X8101729Y-12645250D02*
X8120777Y-12654774D01*
X8120777Y-12654774D02*
X8130301Y-12673822D01*
X8130301Y-12673822D02*
X8130301Y-12778584D01*
X8130301Y-12673822D02*
X8139824Y-12654774D01*
X8139824Y-12654774D02*
X8158872Y-12645250D01*
X8158872Y-12645250D02*
X8187443Y-12645250D01*
X8187443Y-12645250D02*
X8206491Y-12654774D01*
X8206491Y-12654774D02*
X8216015Y-12673822D01*
X8216015Y-12673822D02*
X8216015Y-12778584D01*
X8606491Y-12569060D02*
X8435063Y-12826203D01*
X8863634Y-12578584D02*
X8882682Y-12578584D01*
X8882682Y-12578584D02*
X8901729Y-12588108D01*
X8901729Y-12588108D02*
X8911253Y-12597631D01*
X8911253Y-12597631D02*
X8920777Y-12616679D01*
X8920777Y-12616679D02*
X8930301Y-12654774D01*
X8930301Y-12654774D02*
X8930301Y-12702393D01*
X8930301Y-12702393D02*
X8920777Y-12740488D01*
X8920777Y-12740488D02*
X8911253Y-12759536D01*
X8911253Y-12759536D02*
X8901729Y-12769060D01*
X8901729Y-12769060D02*
X8882682Y-12778584D01*
X8882682Y-12778584D02*
X8863634Y-12778584D01*
X8863634Y-12778584D02*
X8844587Y-12769060D01*
X8844587Y-12769060D02*
X8835063Y-12759536D01*
X8835063Y-12759536D02*
X8825539Y-12740488D01*
X8825539Y-12740488D02*
X8816015Y-12702393D01*
X8816015Y-12702393D02*
X8816015Y-12654774D01*
X8816015Y-12654774D02*
X8825539Y-12616679D01*
X8825539Y-12616679D02*
X8835063Y-12597631D01*
X8835063Y-12597631D02*
X8844587Y-12588108D01*
X8844587Y-12588108D02*
X8863634Y-12578584D01*
X9016015Y-12759536D02*
X9025539Y-12769060D01*
X9025539Y-12769060D02*
X9016015Y-12778584D01*
X9016015Y-12778584D02*
X9006491Y-12769060D01*
X9006491Y-12769060D02*
X9016015Y-12759536D01*
X9016015Y-12759536D02*
X9016015Y-12778584D01*
X9149348Y-12578584D02*
X9168396Y-12578584D01*
X9168396Y-12578584D02*
X9187444Y-12588108D01*
X9187444Y-12588108D02*
X9196968Y-12597631D01*
X9196968Y-12597631D02*
X9206491Y-12616679D01*
X9206491Y-12616679D02*
X9216015Y-12654774D01*
X9216015Y-12654774D02*
X9216015Y-12702393D01*
X9216015Y-12702393D02*
X9206491Y-12740488D01*
X9206491Y-12740488D02*
X9196968Y-12759536D01*
X9196968Y-12759536D02*
X9187444Y-12769060D01*
X9187444Y-12769060D02*
X9168396Y-12778584D01*
X9168396Y-12778584D02*
X9149348Y-12778584D01*
X9149348Y-12778584D02*
X9130301Y-12769060D01*
X9130301Y-12769060D02*
X9120777Y-12759536D01*
X9120777Y-12759536D02*
X9111253Y-12740488D01*
X9111253Y-12740488D02*
X9101729Y-12702393D01*
X9101729Y-12702393D02*
X9101729Y-12654774D01*
X9101729Y-12654774D02*
X9111253Y-12616679D01*
X9111253Y-12616679D02*
X9120777Y-12597631D01*
X9120777Y-12597631D02*
X9130301Y-12588108D01*
X9130301Y-12588108D02*
X9149348Y-12578584D01*
X9406491Y-12778584D02*
X9292206Y-12778584D01*
X9349348Y-12778584D02*
X9349348Y-12578584D01*
X9349348Y-12578584D02*
X9330301Y-12607155D01*
X9330301Y-12607155D02*
X9311253Y-12626203D01*
X9311253Y-12626203D02*
X9292206Y-12635727D01*
X9587444Y-12578584D02*
X9492206Y-12578584D01*
X9492206Y-12578584D02*
X9482682Y-12673822D01*
X9482682Y-12673822D02*
X9492206Y-12664298D01*
X9492206Y-12664298D02*
X9511253Y-12654774D01*
X9511253Y-12654774D02*
X9558872Y-12654774D01*
X9558872Y-12654774D02*
X9577920Y-12664298D01*
X9577920Y-12664298D02*
X9587444Y-12673822D01*
X9587444Y-12673822D02*
X9596968Y-12692869D01*
X9596968Y-12692869D02*
X9596968Y-12740488D01*
X9596968Y-12740488D02*
X9587444Y-12759536D01*
X9587444Y-12759536D02*
X9577920Y-12769060D01*
X9577920Y-12769060D02*
X9558872Y-12778584D01*
X9558872Y-12778584D02*
X9511253Y-12778584D01*
X9511253Y-12778584D02*
X9492206Y-12769060D01*
X9492206Y-12769060D02*
X9482682Y-12759536D01*
X9663634Y-12578584D02*
X9796968Y-12578584D01*
X9796968Y-12578584D02*
X9711253Y-12778584D01*
X9863634Y-12578584D02*
X9863634Y-12616679D01*
X9939825Y-12578584D02*
X9939825Y-12616679D01*
X10235063Y-12854774D02*
X10225539Y-12845250D01*
X10225539Y-12845250D02*
X10206491Y-12816679D01*
X10206491Y-12816679D02*
X10196968Y-12797631D01*
X10196968Y-12797631D02*
X10187444Y-12769060D01*
X10187444Y-12769060D02*
X10177920Y-12721441D01*
X10177920Y-12721441D02*
X10177920Y-12683346D01*
X10177920Y-12683346D02*
X10187444Y-12635727D01*
X10187444Y-12635727D02*
X10196968Y-12607155D01*
X10196968Y-12607155D02*
X10206491Y-12588108D01*
X10206491Y-12588108D02*
X10225539Y-12559536D01*
X10225539Y-12559536D02*
X10235063Y-12550012D01*
X10301730Y-12597631D02*
X10311253Y-12588108D01*
X10311253Y-12588108D02*
X10330301Y-12578584D01*
X10330301Y-12578584D02*
X10377920Y-12578584D01*
X10377920Y-12578584D02*
X10396968Y-12588108D01*
X10396968Y-12588108D02*
X10406491Y-12597631D01*
X10406491Y-12597631D02*
X10416015Y-12616679D01*
X10416015Y-12616679D02*
X10416015Y-12635727D01*
X10416015Y-12635727D02*
X10406491Y-12664298D01*
X10406491Y-12664298D02*
X10292206Y-12778584D01*
X10292206Y-12778584D02*
X10416015Y-12778584D01*
X10492206Y-12597631D02*
X10501730Y-12588108D01*
X10501730Y-12588108D02*
X10520777Y-12578584D01*
X10520777Y-12578584D02*
X10568396Y-12578584D01*
X10568396Y-12578584D02*
X10587444Y-12588108D01*
X10587444Y-12588108D02*
X10596968Y-12597631D01*
X10596968Y-12597631D02*
X10606491Y-12616679D01*
X10606491Y-12616679D02*
X10606491Y-12635727D01*
X10606491Y-12635727D02*
X10596968Y-12664298D01*
X10596968Y-12664298D02*
X10482682Y-12778584D01*
X10482682Y-12778584D02*
X10606491Y-12778584D01*
X10777920Y-12645250D02*
X10777920Y-12778584D01*
X10730301Y-12569060D02*
X10682682Y-12711917D01*
X10682682Y-12711917D02*
X10806491Y-12711917D01*
X11035063Y-12778584D02*
X11035063Y-12578584D01*
X11120777Y-12778584D02*
X11120777Y-12673822D01*
X11120777Y-12673822D02*
X11111253Y-12654774D01*
X11111253Y-12654774D02*
X11092206Y-12645250D01*
X11092206Y-12645250D02*
X11063634Y-12645250D01*
X11063634Y-12645250D02*
X11044587Y-12654774D01*
X11044587Y-12654774D02*
X11035063Y-12664298D01*
X11244587Y-12778584D02*
X11225539Y-12769060D01*
X11225539Y-12769060D02*
X11216015Y-12759536D01*
X11216015Y-12759536D02*
X11206491Y-12740488D01*
X11206491Y-12740488D02*
X11206491Y-12683346D01*
X11206491Y-12683346D02*
X11216015Y-12664298D01*
X11216015Y-12664298D02*
X11225539Y-12654774D01*
X11225539Y-12654774D02*
X11244587Y-12645250D01*
X11244587Y-12645250D02*
X11273158Y-12645250D01*
X11273158Y-12645250D02*
X11292206Y-12654774D01*
X11292206Y-12654774D02*
X11301730Y-12664298D01*
X11301730Y-12664298D02*
X11311253Y-12683346D01*
X11311253Y-12683346D02*
X11311253Y-12740488D01*
X11311253Y-12740488D02*
X11301730Y-12759536D01*
X11301730Y-12759536D02*
X11292206Y-12769060D01*
X11292206Y-12769060D02*
X11273158Y-12778584D01*
X11273158Y-12778584D02*
X11244587Y-12778584D01*
X11425539Y-12778584D02*
X11406491Y-12769060D01*
X11406491Y-12769060D02*
X11396968Y-12750012D01*
X11396968Y-12750012D02*
X11396968Y-12578584D01*
X11577920Y-12769060D02*
X11558872Y-12778584D01*
X11558872Y-12778584D02*
X11520777Y-12778584D01*
X11520777Y-12778584D02*
X11501730Y-12769060D01*
X11501730Y-12769060D02*
X11492206Y-12750012D01*
X11492206Y-12750012D02*
X11492206Y-12673822D01*
X11492206Y-12673822D02*
X11501730Y-12654774D01*
X11501730Y-12654774D02*
X11520777Y-12645250D01*
X11520777Y-12645250D02*
X11558872Y-12645250D01*
X11558872Y-12645250D02*
X11577920Y-12654774D01*
X11577920Y-12654774D02*
X11587444Y-12673822D01*
X11587444Y-12673822D02*
X11587444Y-12692869D01*
X11587444Y-12692869D02*
X11492206Y-12711917D01*
X11663634Y-12769060D02*
X11682682Y-12778584D01*
X11682682Y-12778584D02*
X11720777Y-12778584D01*
X11720777Y-12778584D02*
X11739825Y-12769060D01*
X11739825Y-12769060D02*
X11749349Y-12750012D01*
X11749349Y-12750012D02*
X11749349Y-12740488D01*
X11749349Y-12740488D02*
X11739825Y-12721441D01*
X11739825Y-12721441D02*
X11720777Y-12711917D01*
X11720777Y-12711917D02*
X11692206Y-12711917D01*
X11692206Y-12711917D02*
X11673158Y-12702393D01*
X11673158Y-12702393D02*
X11663634Y-12683346D01*
X11663634Y-12683346D02*
X11663634Y-12673822D01*
X11663634Y-12673822D02*
X11673158Y-12654774D01*
X11673158Y-12654774D02*
X11692206Y-12645250D01*
X11692206Y-12645250D02*
X11720777Y-12645250D01*
X11720777Y-12645250D02*
X11739825Y-12654774D01*
X11816015Y-12854774D02*
X11825539Y-12845250D01*
X11825539Y-12845250D02*
X11844587Y-12816679D01*
X11844587Y-12816679D02*
X11854111Y-12797631D01*
X11854111Y-12797631D02*
X11863634Y-12769060D01*
X11863634Y-12769060D02*
X11873158Y-12721441D01*
X11873158Y-12721441D02*
X11873158Y-12683346D01*
X11873158Y-12683346D02*
X11863634Y-12635727D01*
X11863634Y-12635727D02*
X11854111Y-12607155D01*
X11854111Y-12607155D02*
X11844587Y-12588108D01*
X11844587Y-12588108D02*
X11825539Y-12559536D01*
X11825539Y-12559536D02*
X11816015Y-12550012D01*
D12*
X6660000Y-12951100D02*
G75*
G03*
X6660000Y-12951100I-35000J0D01*
G01*
D11*
X6958872Y-12842584D02*
X6977920Y-12842584D01*
X6977920Y-12842584D02*
X6996967Y-12852108D01*
X6996967Y-12852108D02*
X7006491Y-12861631D01*
X7006491Y-12861631D02*
X7016015Y-12880679D01*
X7016015Y-12880679D02*
X7025539Y-12918774D01*
X7025539Y-12918774D02*
X7025539Y-12966393D01*
X7025539Y-12966393D02*
X7016015Y-13004488D01*
X7016015Y-13004488D02*
X7006491Y-13023536D01*
X7006491Y-13023536D02*
X6996967Y-13033060D01*
X6996967Y-13033060D02*
X6977920Y-13042584D01*
X6977920Y-13042584D02*
X6958872Y-13042584D01*
X6958872Y-13042584D02*
X6939824Y-13033060D01*
X6939824Y-13033060D02*
X6930301Y-13023536D01*
X6930301Y-13023536D02*
X6920777Y-13004488D01*
X6920777Y-13004488D02*
X6911253Y-12966393D01*
X6911253Y-12966393D02*
X6911253Y-12918774D01*
X6911253Y-12918774D02*
X6920777Y-12880679D01*
X6920777Y-12880679D02*
X6930301Y-12861631D01*
X6930301Y-12861631D02*
X6939824Y-12852108D01*
X6939824Y-12852108D02*
X6958872Y-12842584D01*
X7111253Y-13023536D02*
X7120777Y-13033060D01*
X7120777Y-13033060D02*
X7111253Y-13042584D01*
X7111253Y-13042584D02*
X7101729Y-13033060D01*
X7101729Y-13033060D02*
X7111253Y-13023536D01*
X7111253Y-13023536D02*
X7111253Y-13042584D01*
X7187443Y-12842584D02*
X7320777Y-12842584D01*
X7320777Y-12842584D02*
X7235062Y-13042584D01*
X7435062Y-12842584D02*
X7454110Y-12842584D01*
X7454110Y-12842584D02*
X7473158Y-12852108D01*
X7473158Y-12852108D02*
X7482682Y-12861631D01*
X7482682Y-12861631D02*
X7492205Y-12880679D01*
X7492205Y-12880679D02*
X7501729Y-12918774D01*
X7501729Y-12918774D02*
X7501729Y-12966393D01*
X7501729Y-12966393D02*
X7492205Y-13004488D01*
X7492205Y-13004488D02*
X7482682Y-13023536D01*
X7482682Y-13023536D02*
X7473158Y-13033060D01*
X7473158Y-13033060D02*
X7454110Y-13042584D01*
X7454110Y-13042584D02*
X7435062Y-13042584D01*
X7435062Y-13042584D02*
X7416015Y-13033060D01*
X7416015Y-13033060D02*
X7406491Y-13023536D01*
X7406491Y-13023536D02*
X7396967Y-13004488D01*
X7396967Y-13004488D02*
X7387443Y-12966393D01*
X7387443Y-12966393D02*
X7387443Y-12918774D01*
X7387443Y-12918774D02*
X7396967Y-12880679D01*
X7396967Y-12880679D02*
X7406491Y-12861631D01*
X7406491Y-12861631D02*
X7416015Y-12852108D01*
X7416015Y-12852108D02*
X7435062Y-12842584D01*
X7625539Y-12842584D02*
X7644586Y-12842584D01*
X7644586Y-12842584D02*
X7663634Y-12852108D01*
X7663634Y-12852108D02*
X7673158Y-12861631D01*
X7673158Y-12861631D02*
X7682682Y-12880679D01*
X7682682Y-12880679D02*
X7692205Y-12918774D01*
X7692205Y-12918774D02*
X7692205Y-12966393D01*
X7692205Y-12966393D02*
X7682682Y-13004488D01*
X7682682Y-13004488D02*
X7673158Y-13023536D01*
X7673158Y-13023536D02*
X7663634Y-13033060D01*
X7663634Y-13033060D02*
X7644586Y-13042584D01*
X7644586Y-13042584D02*
X7625539Y-13042584D01*
X7625539Y-13042584D02*
X7606491Y-13033060D01*
X7606491Y-13033060D02*
X7596967Y-13023536D01*
X7596967Y-13023536D02*
X7587443Y-13004488D01*
X7587443Y-13004488D02*
X7577920Y-12966393D01*
X7577920Y-12966393D02*
X7577920Y-12918774D01*
X7577920Y-12918774D02*
X7587443Y-12880679D01*
X7587443Y-12880679D02*
X7596967Y-12861631D01*
X7596967Y-12861631D02*
X7606491Y-12852108D01*
X7606491Y-12852108D02*
X7625539Y-12842584D01*
X7777920Y-13042584D02*
X7777920Y-12909250D01*
X7777920Y-12928298D02*
X7787443Y-12918774D01*
X7787443Y-12918774D02*
X7806491Y-12909250D01*
X7806491Y-12909250D02*
X7835063Y-12909250D01*
X7835063Y-12909250D02*
X7854110Y-12918774D01*
X7854110Y-12918774D02*
X7863634Y-12937822D01*
X7863634Y-12937822D02*
X7863634Y-13042584D01*
X7863634Y-12937822D02*
X7873158Y-12918774D01*
X7873158Y-12918774D02*
X7892205Y-12909250D01*
X7892205Y-12909250D02*
X7920777Y-12909250D01*
X7920777Y-12909250D02*
X7939824Y-12918774D01*
X7939824Y-12918774D02*
X7949348Y-12937822D01*
X7949348Y-12937822D02*
X7949348Y-13042584D01*
X8044586Y-13042584D02*
X8044586Y-12909250D01*
X8044586Y-12928298D02*
X8054110Y-12918774D01*
X8054110Y-12918774D02*
X8073158Y-12909250D01*
X8073158Y-12909250D02*
X8101729Y-12909250D01*
X8101729Y-12909250D02*
X8120777Y-12918774D01*
X8120777Y-12918774D02*
X8130301Y-12937822D01*
X8130301Y-12937822D02*
X8130301Y-13042584D01*
X8130301Y-12937822D02*
X8139824Y-12918774D01*
X8139824Y-12918774D02*
X8158872Y-12909250D01*
X8158872Y-12909250D02*
X8187443Y-12909250D01*
X8187443Y-12909250D02*
X8206491Y-12918774D01*
X8206491Y-12918774D02*
X8216015Y-12937822D01*
X8216015Y-12937822D02*
X8216015Y-13042584D01*
X8606491Y-12833060D02*
X8435063Y-13090203D01*
X8863634Y-12842584D02*
X8882682Y-12842584D01*
X8882682Y-12842584D02*
X8901729Y-12852108D01*
X8901729Y-12852108D02*
X8911253Y-12861631D01*
X8911253Y-12861631D02*
X8920777Y-12880679D01*
X8920777Y-12880679D02*
X8930301Y-12918774D01*
X8930301Y-12918774D02*
X8930301Y-12966393D01*
X8930301Y-12966393D02*
X8920777Y-13004488D01*
X8920777Y-13004488D02*
X8911253Y-13023536D01*
X8911253Y-13023536D02*
X8901729Y-13033060D01*
X8901729Y-13033060D02*
X8882682Y-13042584D01*
X8882682Y-13042584D02*
X8863634Y-13042584D01*
X8863634Y-13042584D02*
X8844587Y-13033060D01*
X8844587Y-13033060D02*
X8835063Y-13023536D01*
X8835063Y-13023536D02*
X8825539Y-13004488D01*
X8825539Y-13004488D02*
X8816015Y-12966393D01*
X8816015Y-12966393D02*
X8816015Y-12918774D01*
X8816015Y-12918774D02*
X8825539Y-12880679D01*
X8825539Y-12880679D02*
X8835063Y-12861631D01*
X8835063Y-12861631D02*
X8844587Y-12852108D01*
X8844587Y-12852108D02*
X8863634Y-12842584D01*
X9016015Y-13023536D02*
X9025539Y-13033060D01*
X9025539Y-13033060D02*
X9016015Y-13042584D01*
X9016015Y-13042584D02*
X9006491Y-13033060D01*
X9006491Y-13033060D02*
X9016015Y-13023536D01*
X9016015Y-13023536D02*
X9016015Y-13042584D01*
X9149348Y-12842584D02*
X9168396Y-12842584D01*
X9168396Y-12842584D02*
X9187444Y-12852108D01*
X9187444Y-12852108D02*
X9196968Y-12861631D01*
X9196968Y-12861631D02*
X9206491Y-12880679D01*
X9206491Y-12880679D02*
X9216015Y-12918774D01*
X9216015Y-12918774D02*
X9216015Y-12966393D01*
X9216015Y-12966393D02*
X9206491Y-13004488D01*
X9206491Y-13004488D02*
X9196968Y-13023536D01*
X9196968Y-13023536D02*
X9187444Y-13033060D01*
X9187444Y-13033060D02*
X9168396Y-13042584D01*
X9168396Y-13042584D02*
X9149348Y-13042584D01*
X9149348Y-13042584D02*
X9130301Y-13033060D01*
X9130301Y-13033060D02*
X9120777Y-13023536D01*
X9120777Y-13023536D02*
X9111253Y-13004488D01*
X9111253Y-13004488D02*
X9101729Y-12966393D01*
X9101729Y-12966393D02*
X9101729Y-12918774D01*
X9101729Y-12918774D02*
X9111253Y-12880679D01*
X9111253Y-12880679D02*
X9120777Y-12861631D01*
X9120777Y-12861631D02*
X9130301Y-12852108D01*
X9130301Y-12852108D02*
X9149348Y-12842584D01*
X9292206Y-12861631D02*
X9301729Y-12852108D01*
X9301729Y-12852108D02*
X9320777Y-12842584D01*
X9320777Y-12842584D02*
X9368396Y-12842584D01*
X9368396Y-12842584D02*
X9387444Y-12852108D01*
X9387444Y-12852108D02*
X9396968Y-12861631D01*
X9396968Y-12861631D02*
X9406491Y-12880679D01*
X9406491Y-12880679D02*
X9406491Y-12899727D01*
X9406491Y-12899727D02*
X9396968Y-12928298D01*
X9396968Y-12928298D02*
X9282682Y-13042584D01*
X9282682Y-13042584D02*
X9406491Y-13042584D01*
X9473158Y-12842584D02*
X9606491Y-12842584D01*
X9606491Y-12842584D02*
X9520777Y-13042584D01*
X9768396Y-12842584D02*
X9730301Y-12842584D01*
X9730301Y-12842584D02*
X9711253Y-12852108D01*
X9711253Y-12852108D02*
X9701729Y-12861631D01*
X9701729Y-12861631D02*
X9682682Y-12890203D01*
X9682682Y-12890203D02*
X9673158Y-12928298D01*
X9673158Y-12928298D02*
X9673158Y-13004488D01*
X9673158Y-13004488D02*
X9682682Y-13023536D01*
X9682682Y-13023536D02*
X9692206Y-13033060D01*
X9692206Y-13033060D02*
X9711253Y-13042584D01*
X9711253Y-13042584D02*
X9749349Y-13042584D01*
X9749349Y-13042584D02*
X9768396Y-13033060D01*
X9768396Y-13033060D02*
X9777920Y-13023536D01*
X9777920Y-13023536D02*
X9787444Y-13004488D01*
X9787444Y-13004488D02*
X9787444Y-12956869D01*
X9787444Y-12956869D02*
X9777920Y-12937822D01*
X9777920Y-12937822D02*
X9768396Y-12928298D01*
X9768396Y-12928298D02*
X9749349Y-12918774D01*
X9749349Y-12918774D02*
X9711253Y-12918774D01*
X9711253Y-12918774D02*
X9692206Y-12928298D01*
X9692206Y-12928298D02*
X9682682Y-12937822D01*
X9682682Y-12937822D02*
X9673158Y-12956869D01*
X9863634Y-12842584D02*
X9863634Y-12880679D01*
X9939825Y-12842584D02*
X9939825Y-12880679D01*
X10235063Y-13118774D02*
X10225539Y-13109250D01*
X10225539Y-13109250D02*
X10206491Y-13080679D01*
X10206491Y-13080679D02*
X10196968Y-13061631D01*
X10196968Y-13061631D02*
X10187444Y-13033060D01*
X10187444Y-13033060D02*
X10177920Y-12985441D01*
X10177920Y-12985441D02*
X10177920Y-12947346D01*
X10177920Y-12947346D02*
X10187444Y-12899727D01*
X10187444Y-12899727D02*
X10196968Y-12871155D01*
X10196968Y-12871155D02*
X10206491Y-12852108D01*
X10206491Y-12852108D02*
X10225539Y-12823536D01*
X10225539Y-12823536D02*
X10235063Y-12814012D01*
X10416015Y-13042584D02*
X10301730Y-13042584D01*
X10358872Y-13042584D02*
X10358872Y-12842584D01*
X10358872Y-12842584D02*
X10339825Y-12871155D01*
X10339825Y-12871155D02*
X10320777Y-12890203D01*
X10320777Y-12890203D02*
X10301730Y-12899727D01*
X10587444Y-12842584D02*
X10549349Y-12842584D01*
X10549349Y-12842584D02*
X10530301Y-12852108D01*
X10530301Y-12852108D02*
X10520777Y-12861631D01*
X10520777Y-12861631D02*
X10501730Y-12890203D01*
X10501730Y-12890203D02*
X10492206Y-12928298D01*
X10492206Y-12928298D02*
X10492206Y-13004488D01*
X10492206Y-13004488D02*
X10501730Y-13023536D01*
X10501730Y-13023536D02*
X10511253Y-13033060D01*
X10511253Y-13033060D02*
X10530301Y-13042584D01*
X10530301Y-13042584D02*
X10568396Y-13042584D01*
X10568396Y-13042584D02*
X10587444Y-13033060D01*
X10587444Y-13033060D02*
X10596968Y-13023536D01*
X10596968Y-13023536D02*
X10606491Y-13004488D01*
X10606491Y-13004488D02*
X10606491Y-12956869D01*
X10606491Y-12956869D02*
X10596968Y-12937822D01*
X10596968Y-12937822D02*
X10587444Y-12928298D01*
X10587444Y-12928298D02*
X10568396Y-12918774D01*
X10568396Y-12918774D02*
X10530301Y-12918774D01*
X10530301Y-12918774D02*
X10511253Y-12928298D01*
X10511253Y-12928298D02*
X10501730Y-12937822D01*
X10501730Y-12937822D02*
X10492206Y-12956869D01*
X10844587Y-13042584D02*
X10844587Y-12842584D01*
X10930301Y-13042584D02*
X10930301Y-12937822D01*
X10930301Y-12937822D02*
X10920777Y-12918774D01*
X10920777Y-12918774D02*
X10901730Y-12909250D01*
X10901730Y-12909250D02*
X10873158Y-12909250D01*
X10873158Y-12909250D02*
X10854111Y-12918774D01*
X10854111Y-12918774D02*
X10844587Y-12928298D01*
X11054111Y-13042584D02*
X11035063Y-13033060D01*
X11035063Y-13033060D02*
X11025539Y-13023536D01*
X11025539Y-13023536D02*
X11016015Y-13004488D01*
X11016015Y-13004488D02*
X11016015Y-12947346D01*
X11016015Y-12947346D02*
X11025539Y-12928298D01*
X11025539Y-12928298D02*
X11035063Y-12918774D01*
X11035063Y-12918774D02*
X11054111Y-12909250D01*
X11054111Y-12909250D02*
X11082682Y-12909250D01*
X11082682Y-12909250D02*
X11101730Y-12918774D01*
X11101730Y-12918774D02*
X11111253Y-12928298D01*
X11111253Y-12928298D02*
X11120777Y-12947346D01*
X11120777Y-12947346D02*
X11120777Y-13004488D01*
X11120777Y-13004488D02*
X11111253Y-13023536D01*
X11111253Y-13023536D02*
X11101730Y-13033060D01*
X11101730Y-13033060D02*
X11082682Y-13042584D01*
X11082682Y-13042584D02*
X11054111Y-13042584D01*
X11235063Y-13042584D02*
X11216015Y-13033060D01*
X11216015Y-13033060D02*
X11206491Y-13014012D01*
X11206491Y-13014012D02*
X11206491Y-12842584D01*
X11387444Y-13033060D02*
X11368396Y-13042584D01*
X11368396Y-13042584D02*
X11330301Y-13042584D01*
X11330301Y-13042584D02*
X11311253Y-13033060D01*
X11311253Y-13033060D02*
X11301730Y-13014012D01*
X11301730Y-13014012D02*
X11301730Y-12937822D01*
X11301730Y-12937822D02*
X11311253Y-12918774D01*
X11311253Y-12918774D02*
X11330301Y-12909250D01*
X11330301Y-12909250D02*
X11368396Y-12909250D01*
X11368396Y-12909250D02*
X11387444Y-12918774D01*
X11387444Y-12918774D02*
X11396968Y-12937822D01*
X11396968Y-12937822D02*
X11396968Y-12956869D01*
X11396968Y-12956869D02*
X11301730Y-12975917D01*
X11473158Y-13033060D02*
X11492206Y-13042584D01*
X11492206Y-13042584D02*
X11530301Y-13042584D01*
X11530301Y-13042584D02*
X11549349Y-13033060D01*
X11549349Y-13033060D02*
X11558872Y-13014012D01*
X11558872Y-13014012D02*
X11558872Y-13004488D01*
X11558872Y-13004488D02*
X11549349Y-12985441D01*
X11549349Y-12985441D02*
X11530301Y-12975917D01*
X11530301Y-12975917D02*
X11501730Y-12975917D01*
X11501730Y-12975917D02*
X11482682Y-12966393D01*
X11482682Y-12966393D02*
X11473158Y-12947346D01*
X11473158Y-12947346D02*
X11473158Y-12937822D01*
X11473158Y-12937822D02*
X11482682Y-12918774D01*
X11482682Y-12918774D02*
X11501730Y-12909250D01*
X11501730Y-12909250D02*
X11530301Y-12909250D01*
X11530301Y-12909250D02*
X11549349Y-12918774D01*
X11796968Y-12966393D02*
X11949349Y-12966393D01*
X11873158Y-13042584D02*
X11873158Y-12890203D01*
X12225539Y-12928298D02*
X12206492Y-12918774D01*
X12206492Y-12918774D02*
X12196968Y-12909250D01*
X12196968Y-12909250D02*
X12187444Y-12890203D01*
X12187444Y-12890203D02*
X12187444Y-12880679D01*
X12187444Y-12880679D02*
X12196968Y-12861631D01*
X12196968Y-12861631D02*
X12206492Y-12852108D01*
X12206492Y-12852108D02*
X12225539Y-12842584D01*
X12225539Y-12842584D02*
X12263634Y-12842584D01*
X12263634Y-12842584D02*
X12282682Y-12852108D01*
X12282682Y-12852108D02*
X12292206Y-12861631D01*
X12292206Y-12861631D02*
X12301730Y-12880679D01*
X12301730Y-12880679D02*
X12301730Y-12890203D01*
X12301730Y-12890203D02*
X12292206Y-12909250D01*
X12292206Y-12909250D02*
X12282682Y-12918774D01*
X12282682Y-12918774D02*
X12263634Y-12928298D01*
X12263634Y-12928298D02*
X12225539Y-12928298D01*
X12225539Y-12928298D02*
X12206492Y-12937822D01*
X12206492Y-12937822D02*
X12196968Y-12947346D01*
X12196968Y-12947346D02*
X12187444Y-12966393D01*
X12187444Y-12966393D02*
X12187444Y-13004488D01*
X12187444Y-13004488D02*
X12196968Y-13023536D01*
X12196968Y-13023536D02*
X12206492Y-13033060D01*
X12206492Y-13033060D02*
X12225539Y-13042584D01*
X12225539Y-13042584D02*
X12263634Y-13042584D01*
X12263634Y-13042584D02*
X12282682Y-13033060D01*
X12282682Y-13033060D02*
X12292206Y-13023536D01*
X12292206Y-13023536D02*
X12301730Y-13004488D01*
X12301730Y-13004488D02*
X12301730Y-12966393D01*
X12301730Y-12966393D02*
X12292206Y-12947346D01*
X12292206Y-12947346D02*
X12282682Y-12937822D01*
X12282682Y-12937822D02*
X12263634Y-12928298D01*
X12530301Y-13033060D02*
X12549349Y-13042584D01*
X12549349Y-13042584D02*
X12587444Y-13042584D01*
X12587444Y-13042584D02*
X12606492Y-13033060D01*
X12606492Y-13033060D02*
X12616015Y-13014012D01*
X12616015Y-13014012D02*
X12616015Y-13004488D01*
X12616015Y-13004488D02*
X12606492Y-12985441D01*
X12606492Y-12985441D02*
X12587444Y-12975917D01*
X12587444Y-12975917D02*
X12558873Y-12975917D01*
X12558873Y-12975917D02*
X12539825Y-12966393D01*
X12539825Y-12966393D02*
X12530301Y-12947346D01*
X12530301Y-12947346D02*
X12530301Y-12937822D01*
X12530301Y-12937822D02*
X12539825Y-12918774D01*
X12539825Y-12918774D02*
X12558873Y-12909250D01*
X12558873Y-12909250D02*
X12587444Y-12909250D01*
X12587444Y-12909250D02*
X12606492Y-12918774D01*
X12730301Y-13042584D02*
X12711254Y-13033060D01*
X12711254Y-13033060D02*
X12701730Y-13014012D01*
X12701730Y-13014012D02*
X12701730Y-12842584D01*
X12835063Y-13042584D02*
X12816015Y-13033060D01*
X12816015Y-13033060D02*
X12806492Y-13023536D01*
X12806492Y-13023536D02*
X12796968Y-13004488D01*
X12796968Y-13004488D02*
X12796968Y-12947346D01*
X12796968Y-12947346D02*
X12806492Y-12928298D01*
X12806492Y-12928298D02*
X12816015Y-12918774D01*
X12816015Y-12918774D02*
X12835063Y-12909250D01*
X12835063Y-12909250D02*
X12863635Y-12909250D01*
X12863635Y-12909250D02*
X12882682Y-12918774D01*
X12882682Y-12918774D02*
X12892206Y-12928298D01*
X12892206Y-12928298D02*
X12901730Y-12947346D01*
X12901730Y-12947346D02*
X12901730Y-13004488D01*
X12901730Y-13004488D02*
X12892206Y-13023536D01*
X12892206Y-13023536D02*
X12882682Y-13033060D01*
X12882682Y-13033060D02*
X12863635Y-13042584D01*
X12863635Y-13042584D02*
X12835063Y-13042584D01*
X12958873Y-12909250D02*
X13035063Y-12909250D01*
X12987444Y-12842584D02*
X12987444Y-13014012D01*
X12987444Y-13014012D02*
X12996968Y-13033060D01*
X12996968Y-13033060D02*
X13016015Y-13042584D01*
X13016015Y-13042584D02*
X13035063Y-13042584D01*
X13092206Y-13033060D02*
X13111254Y-13042584D01*
X13111254Y-13042584D02*
X13149349Y-13042584D01*
X13149349Y-13042584D02*
X13168396Y-13033060D01*
X13168396Y-13033060D02*
X13177920Y-13014012D01*
X13177920Y-13014012D02*
X13177920Y-13004488D01*
X13177920Y-13004488D02*
X13168396Y-12985441D01*
X13168396Y-12985441D02*
X13149349Y-12975917D01*
X13149349Y-12975917D02*
X13120777Y-12975917D01*
X13120777Y-12975917D02*
X13101730Y-12966393D01*
X13101730Y-12966393D02*
X13092206Y-12947346D01*
X13092206Y-12947346D02*
X13092206Y-12937822D01*
X13092206Y-12937822D02*
X13101730Y-12918774D01*
X13101730Y-12918774D02*
X13120777Y-12909250D01*
X13120777Y-12909250D02*
X13149349Y-12909250D01*
X13149349Y-12909250D02*
X13168396Y-12918774D01*
X13244587Y-13118774D02*
X13254111Y-13109250D01*
X13254111Y-13109250D02*
X13273158Y-13080679D01*
X13273158Y-13080679D02*
X13282682Y-13061631D01*
X13282682Y-13061631D02*
X13292206Y-13033060D01*
X13292206Y-13033060D02*
X13301730Y-12985441D01*
X13301730Y-12985441D02*
X13301730Y-12947346D01*
X13301730Y-12947346D02*
X13292206Y-12899727D01*
X13292206Y-12899727D02*
X13282682Y-12871155D01*
X13282682Y-12871155D02*
X13273158Y-12852108D01*
X13273158Y-12852108D02*
X13254111Y-12823536D01*
X13254111Y-12823536D02*
X13244587Y-12814012D01*
D12*
X6621900Y-13177000D02*
X6621900Y-13253200D01*
X6583800Y-13215100D02*
X6660000Y-13215100D01*
D11*
X6958872Y-13106584D02*
X6977920Y-13106584D01*
X6977920Y-13106584D02*
X6996967Y-13116108D01*
X6996967Y-13116108D02*
X7006491Y-13125631D01*
X7006491Y-13125631D02*
X7016015Y-13144679D01*
X7016015Y-13144679D02*
X7025539Y-13182774D01*
X7025539Y-13182774D02*
X7025539Y-13230393D01*
X7025539Y-13230393D02*
X7016015Y-13268488D01*
X7016015Y-13268488D02*
X7006491Y-13287536D01*
X7006491Y-13287536D02*
X6996967Y-13297060D01*
X6996967Y-13297060D02*
X6977920Y-13306584D01*
X6977920Y-13306584D02*
X6958872Y-13306584D01*
X6958872Y-13306584D02*
X6939824Y-13297060D01*
X6939824Y-13297060D02*
X6930301Y-13287536D01*
X6930301Y-13287536D02*
X6920777Y-13268488D01*
X6920777Y-13268488D02*
X6911253Y-13230393D01*
X6911253Y-13230393D02*
X6911253Y-13182774D01*
X6911253Y-13182774D02*
X6920777Y-13144679D01*
X6920777Y-13144679D02*
X6930301Y-13125631D01*
X6930301Y-13125631D02*
X6939824Y-13116108D01*
X6939824Y-13116108D02*
X6958872Y-13106584D01*
X7111253Y-13287536D02*
X7120777Y-13297060D01*
X7120777Y-13297060D02*
X7111253Y-13306584D01*
X7111253Y-13306584D02*
X7101729Y-13297060D01*
X7101729Y-13297060D02*
X7111253Y-13287536D01*
X7111253Y-13287536D02*
X7111253Y-13306584D01*
X7187443Y-13106584D02*
X7320777Y-13106584D01*
X7320777Y-13106584D02*
X7235062Y-13306584D01*
X7482682Y-13106584D02*
X7444586Y-13106584D01*
X7444586Y-13106584D02*
X7425539Y-13116108D01*
X7425539Y-13116108D02*
X7416015Y-13125631D01*
X7416015Y-13125631D02*
X7396967Y-13154203D01*
X7396967Y-13154203D02*
X7387443Y-13192298D01*
X7387443Y-13192298D02*
X7387443Y-13268488D01*
X7387443Y-13268488D02*
X7396967Y-13287536D01*
X7396967Y-13287536D02*
X7406491Y-13297060D01*
X7406491Y-13297060D02*
X7425539Y-13306584D01*
X7425539Y-13306584D02*
X7463634Y-13306584D01*
X7463634Y-13306584D02*
X7482682Y-13297060D01*
X7482682Y-13297060D02*
X7492205Y-13287536D01*
X7492205Y-13287536D02*
X7501729Y-13268488D01*
X7501729Y-13268488D02*
X7501729Y-13220869D01*
X7501729Y-13220869D02*
X7492205Y-13201822D01*
X7492205Y-13201822D02*
X7482682Y-13192298D01*
X7482682Y-13192298D02*
X7463634Y-13182774D01*
X7463634Y-13182774D02*
X7425539Y-13182774D01*
X7425539Y-13182774D02*
X7406491Y-13192298D01*
X7406491Y-13192298D02*
X7396967Y-13201822D01*
X7396967Y-13201822D02*
X7387443Y-13220869D01*
X7577920Y-13125631D02*
X7587443Y-13116108D01*
X7587443Y-13116108D02*
X7606491Y-13106584D01*
X7606491Y-13106584D02*
X7654110Y-13106584D01*
X7654110Y-13106584D02*
X7673158Y-13116108D01*
X7673158Y-13116108D02*
X7682682Y-13125631D01*
X7682682Y-13125631D02*
X7692205Y-13144679D01*
X7692205Y-13144679D02*
X7692205Y-13163727D01*
X7692205Y-13163727D02*
X7682682Y-13192298D01*
X7682682Y-13192298D02*
X7568396Y-13306584D01*
X7568396Y-13306584D02*
X7692205Y-13306584D01*
X7777920Y-13306584D02*
X7777920Y-13173250D01*
X7777920Y-13192298D02*
X7787443Y-13182774D01*
X7787443Y-13182774D02*
X7806491Y-13173250D01*
X7806491Y-13173250D02*
X7835063Y-13173250D01*
X7835063Y-13173250D02*
X7854110Y-13182774D01*
X7854110Y-13182774D02*
X7863634Y-13201822D01*
X7863634Y-13201822D02*
X7863634Y-13306584D01*
X7863634Y-13201822D02*
X7873158Y-13182774D01*
X7873158Y-13182774D02*
X7892205Y-13173250D01*
X7892205Y-13173250D02*
X7920777Y-13173250D01*
X7920777Y-13173250D02*
X7939824Y-13182774D01*
X7939824Y-13182774D02*
X7949348Y-13201822D01*
X7949348Y-13201822D02*
X7949348Y-13306584D01*
X8044586Y-13306584D02*
X8044586Y-13173250D01*
X8044586Y-13192298D02*
X8054110Y-13182774D01*
X8054110Y-13182774D02*
X8073158Y-13173250D01*
X8073158Y-13173250D02*
X8101729Y-13173250D01*
X8101729Y-13173250D02*
X8120777Y-13182774D01*
X8120777Y-13182774D02*
X8130301Y-13201822D01*
X8130301Y-13201822D02*
X8130301Y-13306584D01*
X8130301Y-13201822D02*
X8139824Y-13182774D01*
X8139824Y-13182774D02*
X8158872Y-13173250D01*
X8158872Y-13173250D02*
X8187443Y-13173250D01*
X8187443Y-13173250D02*
X8206491Y-13182774D01*
X8206491Y-13182774D02*
X8216015Y-13201822D01*
X8216015Y-13201822D02*
X8216015Y-13306584D01*
X8606491Y-13097060D02*
X8435063Y-13354203D01*
X8863634Y-13106584D02*
X8882682Y-13106584D01*
X8882682Y-13106584D02*
X8901729Y-13116108D01*
X8901729Y-13116108D02*
X8911253Y-13125631D01*
X8911253Y-13125631D02*
X8920777Y-13144679D01*
X8920777Y-13144679D02*
X8930301Y-13182774D01*
X8930301Y-13182774D02*
X8930301Y-13230393D01*
X8930301Y-13230393D02*
X8920777Y-13268488D01*
X8920777Y-13268488D02*
X8911253Y-13287536D01*
X8911253Y-13287536D02*
X8901729Y-13297060D01*
X8901729Y-13297060D02*
X8882682Y-13306584D01*
X8882682Y-13306584D02*
X8863634Y-13306584D01*
X8863634Y-13306584D02*
X8844587Y-13297060D01*
X8844587Y-13297060D02*
X8835063Y-13287536D01*
X8835063Y-13287536D02*
X8825539Y-13268488D01*
X8825539Y-13268488D02*
X8816015Y-13230393D01*
X8816015Y-13230393D02*
X8816015Y-13182774D01*
X8816015Y-13182774D02*
X8825539Y-13144679D01*
X8825539Y-13144679D02*
X8835063Y-13125631D01*
X8835063Y-13125631D02*
X8844587Y-13116108D01*
X8844587Y-13116108D02*
X8863634Y-13106584D01*
X9016015Y-13287536D02*
X9025539Y-13297060D01*
X9025539Y-13297060D02*
X9016015Y-13306584D01*
X9016015Y-13306584D02*
X9006491Y-13297060D01*
X9006491Y-13297060D02*
X9016015Y-13287536D01*
X9016015Y-13287536D02*
X9016015Y-13306584D01*
X9149348Y-13106584D02*
X9168396Y-13106584D01*
X9168396Y-13106584D02*
X9187444Y-13116108D01*
X9187444Y-13116108D02*
X9196968Y-13125631D01*
X9196968Y-13125631D02*
X9206491Y-13144679D01*
X9206491Y-13144679D02*
X9216015Y-13182774D01*
X9216015Y-13182774D02*
X9216015Y-13230393D01*
X9216015Y-13230393D02*
X9206491Y-13268488D01*
X9206491Y-13268488D02*
X9196968Y-13287536D01*
X9196968Y-13287536D02*
X9187444Y-13297060D01*
X9187444Y-13297060D02*
X9168396Y-13306584D01*
X9168396Y-13306584D02*
X9149348Y-13306584D01*
X9149348Y-13306584D02*
X9130301Y-13297060D01*
X9130301Y-13297060D02*
X9120777Y-13287536D01*
X9120777Y-13287536D02*
X9111253Y-13268488D01*
X9111253Y-13268488D02*
X9101729Y-13230393D01*
X9101729Y-13230393D02*
X9101729Y-13182774D01*
X9101729Y-13182774D02*
X9111253Y-13144679D01*
X9111253Y-13144679D02*
X9120777Y-13125631D01*
X9120777Y-13125631D02*
X9130301Y-13116108D01*
X9130301Y-13116108D02*
X9149348Y-13106584D01*
X9282682Y-13106584D02*
X9406491Y-13106584D01*
X9406491Y-13106584D02*
X9339825Y-13182774D01*
X9339825Y-13182774D02*
X9368396Y-13182774D01*
X9368396Y-13182774D02*
X9387444Y-13192298D01*
X9387444Y-13192298D02*
X9396968Y-13201822D01*
X9396968Y-13201822D02*
X9406491Y-13220869D01*
X9406491Y-13220869D02*
X9406491Y-13268488D01*
X9406491Y-13268488D02*
X9396968Y-13287536D01*
X9396968Y-13287536D02*
X9387444Y-13297060D01*
X9387444Y-13297060D02*
X9368396Y-13306584D01*
X9368396Y-13306584D02*
X9311253Y-13306584D01*
X9311253Y-13306584D02*
X9292206Y-13297060D01*
X9292206Y-13297060D02*
X9282682Y-13287536D01*
X9530301Y-13106584D02*
X9549349Y-13106584D01*
X9549349Y-13106584D02*
X9568396Y-13116108D01*
X9568396Y-13116108D02*
X9577920Y-13125631D01*
X9577920Y-13125631D02*
X9587444Y-13144679D01*
X9587444Y-13144679D02*
X9596968Y-13182774D01*
X9596968Y-13182774D02*
X9596968Y-13230393D01*
X9596968Y-13230393D02*
X9587444Y-13268488D01*
X9587444Y-13268488D02*
X9577920Y-13287536D01*
X9577920Y-13287536D02*
X9568396Y-13297060D01*
X9568396Y-13297060D02*
X9549349Y-13306584D01*
X9549349Y-13306584D02*
X9530301Y-13306584D01*
X9530301Y-13306584D02*
X9511253Y-13297060D01*
X9511253Y-13297060D02*
X9501729Y-13287536D01*
X9501729Y-13287536D02*
X9492206Y-13268488D01*
X9492206Y-13268488D02*
X9482682Y-13230393D01*
X9482682Y-13230393D02*
X9482682Y-13182774D01*
X9482682Y-13182774D02*
X9492206Y-13144679D01*
X9492206Y-13144679D02*
X9501729Y-13125631D01*
X9501729Y-13125631D02*
X9511253Y-13116108D01*
X9511253Y-13116108D02*
X9530301Y-13106584D01*
X9720777Y-13106584D02*
X9739825Y-13106584D01*
X9739825Y-13106584D02*
X9758872Y-13116108D01*
X9758872Y-13116108D02*
X9768396Y-13125631D01*
X9768396Y-13125631D02*
X9777920Y-13144679D01*
X9777920Y-13144679D02*
X9787444Y-13182774D01*
X9787444Y-13182774D02*
X9787444Y-13230393D01*
X9787444Y-13230393D02*
X9777920Y-13268488D01*
X9777920Y-13268488D02*
X9768396Y-13287536D01*
X9768396Y-13287536D02*
X9758872Y-13297060D01*
X9758872Y-13297060D02*
X9739825Y-13306584D01*
X9739825Y-13306584D02*
X9720777Y-13306584D01*
X9720777Y-13306584D02*
X9701729Y-13297060D01*
X9701729Y-13297060D02*
X9692206Y-13287536D01*
X9692206Y-13287536D02*
X9682682Y-13268488D01*
X9682682Y-13268488D02*
X9673158Y-13230393D01*
X9673158Y-13230393D02*
X9673158Y-13182774D01*
X9673158Y-13182774D02*
X9682682Y-13144679D01*
X9682682Y-13144679D02*
X9692206Y-13125631D01*
X9692206Y-13125631D02*
X9701729Y-13116108D01*
X9701729Y-13116108D02*
X9720777Y-13106584D01*
X9863634Y-13106584D02*
X9863634Y-13144679D01*
X9939825Y-13106584D02*
X9939825Y-13144679D01*
X10235063Y-13382774D02*
X10225539Y-13373250D01*
X10225539Y-13373250D02*
X10206491Y-13344679D01*
X10206491Y-13344679D02*
X10196968Y-13325631D01*
X10196968Y-13325631D02*
X10187444Y-13297060D01*
X10187444Y-13297060D02*
X10177920Y-13249441D01*
X10177920Y-13249441D02*
X10177920Y-13211346D01*
X10177920Y-13211346D02*
X10187444Y-13163727D01*
X10187444Y-13163727D02*
X10196968Y-13135155D01*
X10196968Y-13135155D02*
X10206491Y-13116108D01*
X10206491Y-13116108D02*
X10225539Y-13087536D01*
X10225539Y-13087536D02*
X10235063Y-13078012D01*
X10292206Y-13106584D02*
X10425539Y-13106584D01*
X10425539Y-13106584D02*
X10339825Y-13306584D01*
X10654111Y-13306584D02*
X10654111Y-13106584D01*
X10739825Y-13306584D02*
X10739825Y-13201822D01*
X10739825Y-13201822D02*
X10730301Y-13182774D01*
X10730301Y-13182774D02*
X10711253Y-13173250D01*
X10711253Y-13173250D02*
X10682682Y-13173250D01*
X10682682Y-13173250D02*
X10663634Y-13182774D01*
X10663634Y-13182774D02*
X10654111Y-13192298D01*
X10863634Y-13306584D02*
X10844587Y-13297060D01*
X10844587Y-13297060D02*
X10835063Y-13287536D01*
X10835063Y-13287536D02*
X10825539Y-13268488D01*
X10825539Y-13268488D02*
X10825539Y-13211346D01*
X10825539Y-13211346D02*
X10835063Y-13192298D01*
X10835063Y-13192298D02*
X10844587Y-13182774D01*
X10844587Y-13182774D02*
X10863634Y-13173250D01*
X10863634Y-13173250D02*
X10892206Y-13173250D01*
X10892206Y-13173250D02*
X10911253Y-13182774D01*
X10911253Y-13182774D02*
X10920777Y-13192298D01*
X10920777Y-13192298D02*
X10930301Y-13211346D01*
X10930301Y-13211346D02*
X10930301Y-13268488D01*
X10930301Y-13268488D02*
X10920777Y-13287536D01*
X10920777Y-13287536D02*
X10911253Y-13297060D01*
X10911253Y-13297060D02*
X10892206Y-13306584D01*
X10892206Y-13306584D02*
X10863634Y-13306584D01*
X11044587Y-13306584D02*
X11025539Y-13297060D01*
X11025539Y-13297060D02*
X11016015Y-13278012D01*
X11016015Y-13278012D02*
X11016015Y-13106584D01*
X11196968Y-13297060D02*
X11177920Y-13306584D01*
X11177920Y-13306584D02*
X11139825Y-13306584D01*
X11139825Y-13306584D02*
X11120777Y-13297060D01*
X11120777Y-13297060D02*
X11111253Y-13278012D01*
X11111253Y-13278012D02*
X11111253Y-13201822D01*
X11111253Y-13201822D02*
X11120777Y-13182774D01*
X11120777Y-13182774D02*
X11139825Y-13173250D01*
X11139825Y-13173250D02*
X11177920Y-13173250D01*
X11177920Y-13173250D02*
X11196968Y-13182774D01*
X11196968Y-13182774D02*
X11206491Y-13201822D01*
X11206491Y-13201822D02*
X11206491Y-13220869D01*
X11206491Y-13220869D02*
X11111253Y-13239917D01*
X11282682Y-13297060D02*
X11301730Y-13306584D01*
X11301730Y-13306584D02*
X11339825Y-13306584D01*
X11339825Y-13306584D02*
X11358872Y-13297060D01*
X11358872Y-13297060D02*
X11368396Y-13278012D01*
X11368396Y-13278012D02*
X11368396Y-13268488D01*
X11368396Y-13268488D02*
X11358872Y-13249441D01*
X11358872Y-13249441D02*
X11339825Y-13239917D01*
X11339825Y-13239917D02*
X11311253Y-13239917D01*
X11311253Y-13239917D02*
X11292206Y-13230393D01*
X11292206Y-13230393D02*
X11282682Y-13211346D01*
X11282682Y-13211346D02*
X11282682Y-13201822D01*
X11282682Y-13201822D02*
X11292206Y-13182774D01*
X11292206Y-13182774D02*
X11311253Y-13173250D01*
X11311253Y-13173250D02*
X11339825Y-13173250D01*
X11339825Y-13173250D02*
X11358872Y-13182774D01*
X11435063Y-13382774D02*
X11444587Y-13373250D01*
X11444587Y-13373250D02*
X11463634Y-13344679D01*
X11463634Y-13344679D02*
X11473158Y-13325631D01*
X11473158Y-13325631D02*
X11482682Y-13297060D01*
X11482682Y-13297060D02*
X11492206Y-13249441D01*
X11492206Y-13249441D02*
X11492206Y-13211346D01*
X11492206Y-13211346D02*
X11482682Y-13163727D01*
X11482682Y-13163727D02*
X11473158Y-13135155D01*
X11473158Y-13135155D02*
X11463634Y-13116108D01*
X11463634Y-13116108D02*
X11444587Y-13087536D01*
X11444587Y-13087536D02*
X11435063Y-13078012D01*
D12*
X6648284Y-13507384D02*
X6648284Y-13450815D01*
X6591715Y-13450815D01*
X6591715Y-13507384D01*
X6648284Y-13507384D01*
D11*
X6958872Y-13370584D02*
X6977920Y-13370584D01*
X6977920Y-13370584D02*
X6996967Y-13380108D01*
X6996967Y-13380108D02*
X7006491Y-13389631D01*
X7006491Y-13389631D02*
X7016015Y-13408679D01*
X7016015Y-13408679D02*
X7025539Y-13446774D01*
X7025539Y-13446774D02*
X7025539Y-13494393D01*
X7025539Y-13494393D02*
X7016015Y-13532488D01*
X7016015Y-13532488D02*
X7006491Y-13551536D01*
X7006491Y-13551536D02*
X6996967Y-13561060D01*
X6996967Y-13561060D02*
X6977920Y-13570584D01*
X6977920Y-13570584D02*
X6958872Y-13570584D01*
X6958872Y-13570584D02*
X6939824Y-13561060D01*
X6939824Y-13561060D02*
X6930301Y-13551536D01*
X6930301Y-13551536D02*
X6920777Y-13532488D01*
X6920777Y-13532488D02*
X6911253Y-13494393D01*
X6911253Y-13494393D02*
X6911253Y-13446774D01*
X6911253Y-13446774D02*
X6920777Y-13408679D01*
X6920777Y-13408679D02*
X6930301Y-13389631D01*
X6930301Y-13389631D02*
X6939824Y-13380108D01*
X6939824Y-13380108D02*
X6958872Y-13370584D01*
X7111253Y-13551536D02*
X7120777Y-13561060D01*
X7120777Y-13561060D02*
X7111253Y-13570584D01*
X7111253Y-13570584D02*
X7101729Y-13561060D01*
X7101729Y-13561060D02*
X7111253Y-13551536D01*
X7111253Y-13551536D02*
X7111253Y-13570584D01*
X7235062Y-13456298D02*
X7216015Y-13446774D01*
X7216015Y-13446774D02*
X7206491Y-13437250D01*
X7206491Y-13437250D02*
X7196967Y-13418203D01*
X7196967Y-13418203D02*
X7196967Y-13408679D01*
X7196967Y-13408679D02*
X7206491Y-13389631D01*
X7206491Y-13389631D02*
X7216015Y-13380108D01*
X7216015Y-13380108D02*
X7235062Y-13370584D01*
X7235062Y-13370584D02*
X7273158Y-13370584D01*
X7273158Y-13370584D02*
X7292205Y-13380108D01*
X7292205Y-13380108D02*
X7301729Y-13389631D01*
X7301729Y-13389631D02*
X7311253Y-13408679D01*
X7311253Y-13408679D02*
X7311253Y-13418203D01*
X7311253Y-13418203D02*
X7301729Y-13437250D01*
X7301729Y-13437250D02*
X7292205Y-13446774D01*
X7292205Y-13446774D02*
X7273158Y-13456298D01*
X7273158Y-13456298D02*
X7235062Y-13456298D01*
X7235062Y-13456298D02*
X7216015Y-13465822D01*
X7216015Y-13465822D02*
X7206491Y-13475346D01*
X7206491Y-13475346D02*
X7196967Y-13494393D01*
X7196967Y-13494393D02*
X7196967Y-13532488D01*
X7196967Y-13532488D02*
X7206491Y-13551536D01*
X7206491Y-13551536D02*
X7216015Y-13561060D01*
X7216015Y-13561060D02*
X7235062Y-13570584D01*
X7235062Y-13570584D02*
X7273158Y-13570584D01*
X7273158Y-13570584D02*
X7292205Y-13561060D01*
X7292205Y-13561060D02*
X7301729Y-13551536D01*
X7301729Y-13551536D02*
X7311253Y-13532488D01*
X7311253Y-13532488D02*
X7311253Y-13494393D01*
X7311253Y-13494393D02*
X7301729Y-13475346D01*
X7301729Y-13475346D02*
X7292205Y-13465822D01*
X7292205Y-13465822D02*
X7273158Y-13456298D01*
X7435062Y-13370584D02*
X7454110Y-13370584D01*
X7454110Y-13370584D02*
X7473158Y-13380108D01*
X7473158Y-13380108D02*
X7482682Y-13389631D01*
X7482682Y-13389631D02*
X7492205Y-13408679D01*
X7492205Y-13408679D02*
X7501729Y-13446774D01*
X7501729Y-13446774D02*
X7501729Y-13494393D01*
X7501729Y-13494393D02*
X7492205Y-13532488D01*
X7492205Y-13532488D02*
X7482682Y-13551536D01*
X7482682Y-13551536D02*
X7473158Y-13561060D01*
X7473158Y-13561060D02*
X7454110Y-13570584D01*
X7454110Y-13570584D02*
X7435062Y-13570584D01*
X7435062Y-13570584D02*
X7416015Y-13561060D01*
X7416015Y-13561060D02*
X7406491Y-13551536D01*
X7406491Y-13551536D02*
X7396967Y-13532488D01*
X7396967Y-13532488D02*
X7387443Y-13494393D01*
X7387443Y-13494393D02*
X7387443Y-13446774D01*
X7387443Y-13446774D02*
X7396967Y-13408679D01*
X7396967Y-13408679D02*
X7406491Y-13389631D01*
X7406491Y-13389631D02*
X7416015Y-13380108D01*
X7416015Y-13380108D02*
X7435062Y-13370584D01*
X7625539Y-13370584D02*
X7644586Y-13370584D01*
X7644586Y-13370584D02*
X7663634Y-13380108D01*
X7663634Y-13380108D02*
X7673158Y-13389631D01*
X7673158Y-13389631D02*
X7682682Y-13408679D01*
X7682682Y-13408679D02*
X7692205Y-13446774D01*
X7692205Y-13446774D02*
X7692205Y-13494393D01*
X7692205Y-13494393D02*
X7682682Y-13532488D01*
X7682682Y-13532488D02*
X7673158Y-13551536D01*
X7673158Y-13551536D02*
X7663634Y-13561060D01*
X7663634Y-13561060D02*
X7644586Y-13570584D01*
X7644586Y-13570584D02*
X7625539Y-13570584D01*
X7625539Y-13570584D02*
X7606491Y-13561060D01*
X7606491Y-13561060D02*
X7596967Y-13551536D01*
X7596967Y-13551536D02*
X7587443Y-13532488D01*
X7587443Y-13532488D02*
X7577920Y-13494393D01*
X7577920Y-13494393D02*
X7577920Y-13446774D01*
X7577920Y-13446774D02*
X7587443Y-13408679D01*
X7587443Y-13408679D02*
X7596967Y-13389631D01*
X7596967Y-13389631D02*
X7606491Y-13380108D01*
X7606491Y-13380108D02*
X7625539Y-13370584D01*
X7777920Y-13570584D02*
X7777920Y-13437250D01*
X7777920Y-13456298D02*
X7787443Y-13446774D01*
X7787443Y-13446774D02*
X7806491Y-13437250D01*
X7806491Y-13437250D02*
X7835063Y-13437250D01*
X7835063Y-13437250D02*
X7854110Y-13446774D01*
X7854110Y-13446774D02*
X7863634Y-13465822D01*
X7863634Y-13465822D02*
X7863634Y-13570584D01*
X7863634Y-13465822D02*
X7873158Y-13446774D01*
X7873158Y-13446774D02*
X7892205Y-13437250D01*
X7892205Y-13437250D02*
X7920777Y-13437250D01*
X7920777Y-13437250D02*
X7939824Y-13446774D01*
X7939824Y-13446774D02*
X7949348Y-13465822D01*
X7949348Y-13465822D02*
X7949348Y-13570584D01*
X8044586Y-13570584D02*
X8044586Y-13437250D01*
X8044586Y-13456298D02*
X8054110Y-13446774D01*
X8054110Y-13446774D02*
X8073158Y-13437250D01*
X8073158Y-13437250D02*
X8101729Y-13437250D01*
X8101729Y-13437250D02*
X8120777Y-13446774D01*
X8120777Y-13446774D02*
X8130301Y-13465822D01*
X8130301Y-13465822D02*
X8130301Y-13570584D01*
X8130301Y-13465822D02*
X8139824Y-13446774D01*
X8139824Y-13446774D02*
X8158872Y-13437250D01*
X8158872Y-13437250D02*
X8187443Y-13437250D01*
X8187443Y-13437250D02*
X8206491Y-13446774D01*
X8206491Y-13446774D02*
X8216015Y-13465822D01*
X8216015Y-13465822D02*
X8216015Y-13570584D01*
X8606491Y-13361060D02*
X8435063Y-13618203D01*
X8863634Y-13370584D02*
X8882682Y-13370584D01*
X8882682Y-13370584D02*
X8901729Y-13380108D01*
X8901729Y-13380108D02*
X8911253Y-13389631D01*
X8911253Y-13389631D02*
X8920777Y-13408679D01*
X8920777Y-13408679D02*
X8930301Y-13446774D01*
X8930301Y-13446774D02*
X8930301Y-13494393D01*
X8930301Y-13494393D02*
X8920777Y-13532488D01*
X8920777Y-13532488D02*
X8911253Y-13551536D01*
X8911253Y-13551536D02*
X8901729Y-13561060D01*
X8901729Y-13561060D02*
X8882682Y-13570584D01*
X8882682Y-13570584D02*
X8863634Y-13570584D01*
X8863634Y-13570584D02*
X8844587Y-13561060D01*
X8844587Y-13561060D02*
X8835063Y-13551536D01*
X8835063Y-13551536D02*
X8825539Y-13532488D01*
X8825539Y-13532488D02*
X8816015Y-13494393D01*
X8816015Y-13494393D02*
X8816015Y-13446774D01*
X8816015Y-13446774D02*
X8825539Y-13408679D01*
X8825539Y-13408679D02*
X8835063Y-13389631D01*
X8835063Y-13389631D02*
X8844587Y-13380108D01*
X8844587Y-13380108D02*
X8863634Y-13370584D01*
X9016015Y-13551536D02*
X9025539Y-13561060D01*
X9025539Y-13561060D02*
X9016015Y-13570584D01*
X9016015Y-13570584D02*
X9006491Y-13561060D01*
X9006491Y-13561060D02*
X9016015Y-13551536D01*
X9016015Y-13551536D02*
X9016015Y-13570584D01*
X9149348Y-13370584D02*
X9168396Y-13370584D01*
X9168396Y-13370584D02*
X9187444Y-13380108D01*
X9187444Y-13380108D02*
X9196968Y-13389631D01*
X9196968Y-13389631D02*
X9206491Y-13408679D01*
X9206491Y-13408679D02*
X9216015Y-13446774D01*
X9216015Y-13446774D02*
X9216015Y-13494393D01*
X9216015Y-13494393D02*
X9206491Y-13532488D01*
X9206491Y-13532488D02*
X9196968Y-13551536D01*
X9196968Y-13551536D02*
X9187444Y-13561060D01*
X9187444Y-13561060D02*
X9168396Y-13570584D01*
X9168396Y-13570584D02*
X9149348Y-13570584D01*
X9149348Y-13570584D02*
X9130301Y-13561060D01*
X9130301Y-13561060D02*
X9120777Y-13551536D01*
X9120777Y-13551536D02*
X9111253Y-13532488D01*
X9111253Y-13532488D02*
X9101729Y-13494393D01*
X9101729Y-13494393D02*
X9101729Y-13446774D01*
X9101729Y-13446774D02*
X9111253Y-13408679D01*
X9111253Y-13408679D02*
X9120777Y-13389631D01*
X9120777Y-13389631D02*
X9130301Y-13380108D01*
X9130301Y-13380108D02*
X9149348Y-13370584D01*
X9282682Y-13370584D02*
X9406491Y-13370584D01*
X9406491Y-13370584D02*
X9339825Y-13446774D01*
X9339825Y-13446774D02*
X9368396Y-13446774D01*
X9368396Y-13446774D02*
X9387444Y-13456298D01*
X9387444Y-13456298D02*
X9396968Y-13465822D01*
X9396968Y-13465822D02*
X9406491Y-13484869D01*
X9406491Y-13484869D02*
X9406491Y-13532488D01*
X9406491Y-13532488D02*
X9396968Y-13551536D01*
X9396968Y-13551536D02*
X9387444Y-13561060D01*
X9387444Y-13561060D02*
X9368396Y-13570584D01*
X9368396Y-13570584D02*
X9311253Y-13570584D01*
X9311253Y-13570584D02*
X9292206Y-13561060D01*
X9292206Y-13561060D02*
X9282682Y-13551536D01*
X9596968Y-13570584D02*
X9482682Y-13570584D01*
X9539825Y-13570584D02*
X9539825Y-13370584D01*
X9539825Y-13370584D02*
X9520777Y-13399155D01*
X9520777Y-13399155D02*
X9501729Y-13418203D01*
X9501729Y-13418203D02*
X9482682Y-13427727D01*
X9777920Y-13370584D02*
X9682682Y-13370584D01*
X9682682Y-13370584D02*
X9673158Y-13465822D01*
X9673158Y-13465822D02*
X9682682Y-13456298D01*
X9682682Y-13456298D02*
X9701729Y-13446774D01*
X9701729Y-13446774D02*
X9749349Y-13446774D01*
X9749349Y-13446774D02*
X9768396Y-13456298D01*
X9768396Y-13456298D02*
X9777920Y-13465822D01*
X9777920Y-13465822D02*
X9787444Y-13484869D01*
X9787444Y-13484869D02*
X9787444Y-13532488D01*
X9787444Y-13532488D02*
X9777920Y-13551536D01*
X9777920Y-13551536D02*
X9768396Y-13561060D01*
X9768396Y-13561060D02*
X9749349Y-13570584D01*
X9749349Y-13570584D02*
X9701729Y-13570584D01*
X9701729Y-13570584D02*
X9682682Y-13561060D01*
X9682682Y-13561060D02*
X9673158Y-13551536D01*
X9863634Y-13370584D02*
X9863634Y-13408679D01*
X9939825Y-13370584D02*
X9939825Y-13408679D01*
X10235063Y-13646774D02*
X10225539Y-13637250D01*
X10225539Y-13637250D02*
X10206491Y-13608679D01*
X10206491Y-13608679D02*
X10196968Y-13589631D01*
X10196968Y-13589631D02*
X10187444Y-13561060D01*
X10187444Y-13561060D02*
X10177920Y-13513441D01*
X10177920Y-13513441D02*
X10177920Y-13475346D01*
X10177920Y-13475346D02*
X10187444Y-13427727D01*
X10187444Y-13427727D02*
X10196968Y-13399155D01*
X10196968Y-13399155D02*
X10206491Y-13380108D01*
X10206491Y-13380108D02*
X10225539Y-13351536D01*
X10225539Y-13351536D02*
X10235063Y-13342012D01*
X10349349Y-13370584D02*
X10368396Y-13370584D01*
X10368396Y-13370584D02*
X10387444Y-13380108D01*
X10387444Y-13380108D02*
X10396968Y-13389631D01*
X10396968Y-13389631D02*
X10406491Y-13408679D01*
X10406491Y-13408679D02*
X10416015Y-13446774D01*
X10416015Y-13446774D02*
X10416015Y-13494393D01*
X10416015Y-13494393D02*
X10406491Y-13532488D01*
X10406491Y-13532488D02*
X10396968Y-13551536D01*
X10396968Y-13551536D02*
X10387444Y-13561060D01*
X10387444Y-13561060D02*
X10368396Y-13570584D01*
X10368396Y-13570584D02*
X10349349Y-13570584D01*
X10349349Y-13570584D02*
X10330301Y-13561060D01*
X10330301Y-13561060D02*
X10320777Y-13551536D01*
X10320777Y-13551536D02*
X10311253Y-13532488D01*
X10311253Y-13532488D02*
X10301730Y-13494393D01*
X10301730Y-13494393D02*
X10301730Y-13446774D01*
X10301730Y-13446774D02*
X10311253Y-13408679D01*
X10311253Y-13408679D02*
X10320777Y-13389631D01*
X10320777Y-13389631D02*
X10330301Y-13380108D01*
X10330301Y-13380108D02*
X10349349Y-13370584D01*
X10654111Y-13570584D02*
X10654111Y-13370584D01*
X10739825Y-13570584D02*
X10739825Y-13465822D01*
X10739825Y-13465822D02*
X10730301Y-13446774D01*
X10730301Y-13446774D02*
X10711253Y-13437250D01*
X10711253Y-13437250D02*
X10682682Y-13437250D01*
X10682682Y-13437250D02*
X10663634Y-13446774D01*
X10663634Y-13446774D02*
X10654111Y-13456298D01*
X10863634Y-13570584D02*
X10844587Y-13561060D01*
X10844587Y-13561060D02*
X10835063Y-13551536D01*
X10835063Y-13551536D02*
X10825539Y-13532488D01*
X10825539Y-13532488D02*
X10825539Y-13475346D01*
X10825539Y-13475346D02*
X10835063Y-13456298D01*
X10835063Y-13456298D02*
X10844587Y-13446774D01*
X10844587Y-13446774D02*
X10863634Y-13437250D01*
X10863634Y-13437250D02*
X10892206Y-13437250D01*
X10892206Y-13437250D02*
X10911253Y-13446774D01*
X10911253Y-13446774D02*
X10920777Y-13456298D01*
X10920777Y-13456298D02*
X10930301Y-13475346D01*
X10930301Y-13475346D02*
X10930301Y-13532488D01*
X10930301Y-13532488D02*
X10920777Y-13551536D01*
X10920777Y-13551536D02*
X10911253Y-13561060D01*
X10911253Y-13561060D02*
X10892206Y-13570584D01*
X10892206Y-13570584D02*
X10863634Y-13570584D01*
X11044587Y-13570584D02*
X11025539Y-13561060D01*
X11025539Y-13561060D02*
X11016015Y-13542012D01*
X11016015Y-13542012D02*
X11016015Y-13370584D01*
X11196968Y-13561060D02*
X11177920Y-13570584D01*
X11177920Y-13570584D02*
X11139825Y-13570584D01*
X11139825Y-13570584D02*
X11120777Y-13561060D01*
X11120777Y-13561060D02*
X11111253Y-13542012D01*
X11111253Y-13542012D02*
X11111253Y-13465822D01*
X11111253Y-13465822D02*
X11120777Y-13446774D01*
X11120777Y-13446774D02*
X11139825Y-13437250D01*
X11139825Y-13437250D02*
X11177920Y-13437250D01*
X11177920Y-13437250D02*
X11196968Y-13446774D01*
X11196968Y-13446774D02*
X11206491Y-13465822D01*
X11206491Y-13465822D02*
X11206491Y-13484869D01*
X11206491Y-13484869D02*
X11111253Y-13503917D01*
X11282682Y-13561060D02*
X11301730Y-13570584D01*
X11301730Y-13570584D02*
X11339825Y-13570584D01*
X11339825Y-13570584D02*
X11358872Y-13561060D01*
X11358872Y-13561060D02*
X11368396Y-13542012D01*
X11368396Y-13542012D02*
X11368396Y-13532488D01*
X11368396Y-13532488D02*
X11358872Y-13513441D01*
X11358872Y-13513441D02*
X11339825Y-13503917D01*
X11339825Y-13503917D02*
X11311253Y-13503917D01*
X11311253Y-13503917D02*
X11292206Y-13494393D01*
X11292206Y-13494393D02*
X11282682Y-13475346D01*
X11282682Y-13475346D02*
X11282682Y-13465822D01*
X11282682Y-13465822D02*
X11292206Y-13446774D01*
X11292206Y-13446774D02*
X11311253Y-13437250D01*
X11311253Y-13437250D02*
X11339825Y-13437250D01*
X11339825Y-13437250D02*
X11358872Y-13446774D01*
X11606492Y-13494393D02*
X11758873Y-13494393D01*
X11682682Y-13570584D02*
X11682682Y-13418203D01*
X11987444Y-13370584D02*
X12111253Y-13370584D01*
X12111253Y-13370584D02*
X12044587Y-13446774D01*
X12044587Y-13446774D02*
X12073158Y-13446774D01*
X12073158Y-13446774D02*
X12092206Y-13456298D01*
X12092206Y-13456298D02*
X12101730Y-13465822D01*
X12101730Y-13465822D02*
X12111253Y-13484869D01*
X12111253Y-13484869D02*
X12111253Y-13532488D01*
X12111253Y-13532488D02*
X12101730Y-13551536D01*
X12101730Y-13551536D02*
X12092206Y-13561060D01*
X12092206Y-13561060D02*
X12073158Y-13570584D01*
X12073158Y-13570584D02*
X12016015Y-13570584D01*
X12016015Y-13570584D02*
X11996968Y-13561060D01*
X11996968Y-13561060D02*
X11987444Y-13551536D01*
X12339825Y-13561060D02*
X12358873Y-13570584D01*
X12358873Y-13570584D02*
X12396968Y-13570584D01*
X12396968Y-13570584D02*
X12416015Y-13561060D01*
X12416015Y-13561060D02*
X12425539Y-13542012D01*
X12425539Y-13542012D02*
X12425539Y-13532488D01*
X12425539Y-13532488D02*
X12416015Y-13513441D01*
X12416015Y-13513441D02*
X12396968Y-13503917D01*
X12396968Y-13503917D02*
X12368396Y-13503917D01*
X12368396Y-13503917D02*
X12349349Y-13494393D01*
X12349349Y-13494393D02*
X12339825Y-13475346D01*
X12339825Y-13475346D02*
X12339825Y-13465822D01*
X12339825Y-13465822D02*
X12349349Y-13446774D01*
X12349349Y-13446774D02*
X12368396Y-13437250D01*
X12368396Y-13437250D02*
X12396968Y-13437250D01*
X12396968Y-13437250D02*
X12416015Y-13446774D01*
X12539825Y-13570584D02*
X12520777Y-13561060D01*
X12520777Y-13561060D02*
X12511254Y-13542012D01*
X12511254Y-13542012D02*
X12511254Y-13370584D01*
X12644587Y-13570584D02*
X12625539Y-13561060D01*
X12625539Y-13561060D02*
X12616015Y-13551536D01*
X12616015Y-13551536D02*
X12606492Y-13532488D01*
X12606492Y-13532488D02*
X12606492Y-13475346D01*
X12606492Y-13475346D02*
X12616015Y-13456298D01*
X12616015Y-13456298D02*
X12625539Y-13446774D01*
X12625539Y-13446774D02*
X12644587Y-13437250D01*
X12644587Y-13437250D02*
X12673158Y-13437250D01*
X12673158Y-13437250D02*
X12692206Y-13446774D01*
X12692206Y-13446774D02*
X12701730Y-13456298D01*
X12701730Y-13456298D02*
X12711254Y-13475346D01*
X12711254Y-13475346D02*
X12711254Y-13532488D01*
X12711254Y-13532488D02*
X12701730Y-13551536D01*
X12701730Y-13551536D02*
X12692206Y-13561060D01*
X12692206Y-13561060D02*
X12673158Y-13570584D01*
X12673158Y-13570584D02*
X12644587Y-13570584D01*
X12768396Y-13437250D02*
X12844587Y-13437250D01*
X12796968Y-13370584D02*
X12796968Y-13542012D01*
X12796968Y-13542012D02*
X12806492Y-13561060D01*
X12806492Y-13561060D02*
X12825539Y-13570584D01*
X12825539Y-13570584D02*
X12844587Y-13570584D01*
X12901730Y-13561060D02*
X12920777Y-13570584D01*
X12920777Y-13570584D02*
X12958873Y-13570584D01*
X12958873Y-13570584D02*
X12977920Y-13561060D01*
X12977920Y-13561060D02*
X12987444Y-13542012D01*
X12987444Y-13542012D02*
X12987444Y-13532488D01*
X12987444Y-13532488D02*
X12977920Y-13513441D01*
X12977920Y-13513441D02*
X12958873Y-13503917D01*
X12958873Y-13503917D02*
X12930301Y-13503917D01*
X12930301Y-13503917D02*
X12911254Y-13494393D01*
X12911254Y-13494393D02*
X12901730Y-13475346D01*
X12901730Y-13475346D02*
X12901730Y-13465822D01*
X12901730Y-13465822D02*
X12911254Y-13446774D01*
X12911254Y-13446774D02*
X12930301Y-13437250D01*
X12930301Y-13437250D02*
X12958873Y-13437250D01*
X12958873Y-13437250D02*
X12977920Y-13446774D01*
X13054111Y-13646774D02*
X13063635Y-13637250D01*
X13063635Y-13637250D02*
X13082682Y-13608679D01*
X13082682Y-13608679D02*
X13092206Y-13589631D01*
X13092206Y-13589631D02*
X13101730Y-13561060D01*
X13101730Y-13561060D02*
X13111254Y-13513441D01*
X13111254Y-13513441D02*
X13111254Y-13475346D01*
X13111254Y-13475346D02*
X13101730Y-13427727D01*
X13101730Y-13427727D02*
X13092206Y-13399155D01*
X13092206Y-13399155D02*
X13082682Y-13380108D01*
X13082682Y-13380108D02*
X13063635Y-13351536D01*
X13063635Y-13351536D02*
X13054111Y-13342012D01*
D12*
X6610000Y-13793100D02*
X6660000Y-13743100D01*
X6610000Y-13693100D01*
X6560000Y-13743100D01*
X6610000Y-13793100D01*
D11*
X7025539Y-13834584D02*
X6911253Y-13834584D01*
X6968396Y-13834584D02*
X6968396Y-13634584D01*
X6968396Y-13634584D02*
X6949348Y-13663155D01*
X6949348Y-13663155D02*
X6930301Y-13682203D01*
X6930301Y-13682203D02*
X6911253Y-13691727D01*
X7111253Y-13815536D02*
X7120777Y-13825060D01*
X7120777Y-13825060D02*
X7111253Y-13834584D01*
X7111253Y-13834584D02*
X7101729Y-13825060D01*
X7101729Y-13825060D02*
X7111253Y-13815536D01*
X7111253Y-13815536D02*
X7111253Y-13834584D01*
X7244586Y-13634584D02*
X7263634Y-13634584D01*
X7263634Y-13634584D02*
X7282682Y-13644108D01*
X7282682Y-13644108D02*
X7292205Y-13653631D01*
X7292205Y-13653631D02*
X7301729Y-13672679D01*
X7301729Y-13672679D02*
X7311253Y-13710774D01*
X7311253Y-13710774D02*
X7311253Y-13758393D01*
X7311253Y-13758393D02*
X7301729Y-13796488D01*
X7301729Y-13796488D02*
X7292205Y-13815536D01*
X7292205Y-13815536D02*
X7282682Y-13825060D01*
X7282682Y-13825060D02*
X7263634Y-13834584D01*
X7263634Y-13834584D02*
X7244586Y-13834584D01*
X7244586Y-13834584D02*
X7225539Y-13825060D01*
X7225539Y-13825060D02*
X7216015Y-13815536D01*
X7216015Y-13815536D02*
X7206491Y-13796488D01*
X7206491Y-13796488D02*
X7196967Y-13758393D01*
X7196967Y-13758393D02*
X7196967Y-13710774D01*
X7196967Y-13710774D02*
X7206491Y-13672679D01*
X7206491Y-13672679D02*
X7216015Y-13653631D01*
X7216015Y-13653631D02*
X7225539Y-13644108D01*
X7225539Y-13644108D02*
X7244586Y-13634584D01*
X7435062Y-13634584D02*
X7454110Y-13634584D01*
X7454110Y-13634584D02*
X7473158Y-13644108D01*
X7473158Y-13644108D02*
X7482682Y-13653631D01*
X7482682Y-13653631D02*
X7492205Y-13672679D01*
X7492205Y-13672679D02*
X7501729Y-13710774D01*
X7501729Y-13710774D02*
X7501729Y-13758393D01*
X7501729Y-13758393D02*
X7492205Y-13796488D01*
X7492205Y-13796488D02*
X7482682Y-13815536D01*
X7482682Y-13815536D02*
X7473158Y-13825060D01*
X7473158Y-13825060D02*
X7454110Y-13834584D01*
X7454110Y-13834584D02*
X7435062Y-13834584D01*
X7435062Y-13834584D02*
X7416015Y-13825060D01*
X7416015Y-13825060D02*
X7406491Y-13815536D01*
X7406491Y-13815536D02*
X7396967Y-13796488D01*
X7396967Y-13796488D02*
X7387443Y-13758393D01*
X7387443Y-13758393D02*
X7387443Y-13710774D01*
X7387443Y-13710774D02*
X7396967Y-13672679D01*
X7396967Y-13672679D02*
X7406491Y-13653631D01*
X7406491Y-13653631D02*
X7416015Y-13644108D01*
X7416015Y-13644108D02*
X7435062Y-13634584D01*
X7625539Y-13634584D02*
X7644586Y-13634584D01*
X7644586Y-13634584D02*
X7663634Y-13644108D01*
X7663634Y-13644108D02*
X7673158Y-13653631D01*
X7673158Y-13653631D02*
X7682682Y-13672679D01*
X7682682Y-13672679D02*
X7692205Y-13710774D01*
X7692205Y-13710774D02*
X7692205Y-13758393D01*
X7692205Y-13758393D02*
X7682682Y-13796488D01*
X7682682Y-13796488D02*
X7673158Y-13815536D01*
X7673158Y-13815536D02*
X7663634Y-13825060D01*
X7663634Y-13825060D02*
X7644586Y-13834584D01*
X7644586Y-13834584D02*
X7625539Y-13834584D01*
X7625539Y-13834584D02*
X7606491Y-13825060D01*
X7606491Y-13825060D02*
X7596967Y-13815536D01*
X7596967Y-13815536D02*
X7587443Y-13796488D01*
X7587443Y-13796488D02*
X7577920Y-13758393D01*
X7577920Y-13758393D02*
X7577920Y-13710774D01*
X7577920Y-13710774D02*
X7587443Y-13672679D01*
X7587443Y-13672679D02*
X7596967Y-13653631D01*
X7596967Y-13653631D02*
X7606491Y-13644108D01*
X7606491Y-13644108D02*
X7625539Y-13634584D01*
X7777920Y-13834584D02*
X7777920Y-13701250D01*
X7777920Y-13720298D02*
X7787443Y-13710774D01*
X7787443Y-13710774D02*
X7806491Y-13701250D01*
X7806491Y-13701250D02*
X7835063Y-13701250D01*
X7835063Y-13701250D02*
X7854110Y-13710774D01*
X7854110Y-13710774D02*
X7863634Y-13729822D01*
X7863634Y-13729822D02*
X7863634Y-13834584D01*
X7863634Y-13729822D02*
X7873158Y-13710774D01*
X7873158Y-13710774D02*
X7892205Y-13701250D01*
X7892205Y-13701250D02*
X7920777Y-13701250D01*
X7920777Y-13701250D02*
X7939824Y-13710774D01*
X7939824Y-13710774D02*
X7949348Y-13729822D01*
X7949348Y-13729822D02*
X7949348Y-13834584D01*
X8044586Y-13834584D02*
X8044586Y-13701250D01*
X8044586Y-13720298D02*
X8054110Y-13710774D01*
X8054110Y-13710774D02*
X8073158Y-13701250D01*
X8073158Y-13701250D02*
X8101729Y-13701250D01*
X8101729Y-13701250D02*
X8120777Y-13710774D01*
X8120777Y-13710774D02*
X8130301Y-13729822D01*
X8130301Y-13729822D02*
X8130301Y-13834584D01*
X8130301Y-13729822D02*
X8139824Y-13710774D01*
X8139824Y-13710774D02*
X8158872Y-13701250D01*
X8158872Y-13701250D02*
X8187443Y-13701250D01*
X8187443Y-13701250D02*
X8206491Y-13710774D01*
X8206491Y-13710774D02*
X8216015Y-13729822D01*
X8216015Y-13729822D02*
X8216015Y-13834584D01*
X8606491Y-13625060D02*
X8435063Y-13882203D01*
X8863634Y-13634584D02*
X8882682Y-13634584D01*
X8882682Y-13634584D02*
X8901729Y-13644108D01*
X8901729Y-13644108D02*
X8911253Y-13653631D01*
X8911253Y-13653631D02*
X8920777Y-13672679D01*
X8920777Y-13672679D02*
X8930301Y-13710774D01*
X8930301Y-13710774D02*
X8930301Y-13758393D01*
X8930301Y-13758393D02*
X8920777Y-13796488D01*
X8920777Y-13796488D02*
X8911253Y-13815536D01*
X8911253Y-13815536D02*
X8901729Y-13825060D01*
X8901729Y-13825060D02*
X8882682Y-13834584D01*
X8882682Y-13834584D02*
X8863634Y-13834584D01*
X8863634Y-13834584D02*
X8844587Y-13825060D01*
X8844587Y-13825060D02*
X8835063Y-13815536D01*
X8835063Y-13815536D02*
X8825539Y-13796488D01*
X8825539Y-13796488D02*
X8816015Y-13758393D01*
X8816015Y-13758393D02*
X8816015Y-13710774D01*
X8816015Y-13710774D02*
X8825539Y-13672679D01*
X8825539Y-13672679D02*
X8835063Y-13653631D01*
X8835063Y-13653631D02*
X8844587Y-13644108D01*
X8844587Y-13644108D02*
X8863634Y-13634584D01*
X9016015Y-13815536D02*
X9025539Y-13825060D01*
X9025539Y-13825060D02*
X9016015Y-13834584D01*
X9016015Y-13834584D02*
X9006491Y-13825060D01*
X9006491Y-13825060D02*
X9016015Y-13815536D01*
X9016015Y-13815536D02*
X9016015Y-13834584D01*
X9149348Y-13634584D02*
X9168396Y-13634584D01*
X9168396Y-13634584D02*
X9187444Y-13644108D01*
X9187444Y-13644108D02*
X9196968Y-13653631D01*
X9196968Y-13653631D02*
X9206491Y-13672679D01*
X9206491Y-13672679D02*
X9216015Y-13710774D01*
X9216015Y-13710774D02*
X9216015Y-13758393D01*
X9216015Y-13758393D02*
X9206491Y-13796488D01*
X9206491Y-13796488D02*
X9196968Y-13815536D01*
X9196968Y-13815536D02*
X9187444Y-13825060D01*
X9187444Y-13825060D02*
X9168396Y-13834584D01*
X9168396Y-13834584D02*
X9149348Y-13834584D01*
X9149348Y-13834584D02*
X9130301Y-13825060D01*
X9130301Y-13825060D02*
X9120777Y-13815536D01*
X9120777Y-13815536D02*
X9111253Y-13796488D01*
X9111253Y-13796488D02*
X9101729Y-13758393D01*
X9101729Y-13758393D02*
X9101729Y-13710774D01*
X9101729Y-13710774D02*
X9111253Y-13672679D01*
X9111253Y-13672679D02*
X9120777Y-13653631D01*
X9120777Y-13653631D02*
X9130301Y-13644108D01*
X9130301Y-13644108D02*
X9149348Y-13634584D01*
X9282682Y-13634584D02*
X9406491Y-13634584D01*
X9406491Y-13634584D02*
X9339825Y-13710774D01*
X9339825Y-13710774D02*
X9368396Y-13710774D01*
X9368396Y-13710774D02*
X9387444Y-13720298D01*
X9387444Y-13720298D02*
X9396968Y-13729822D01*
X9396968Y-13729822D02*
X9406491Y-13748869D01*
X9406491Y-13748869D02*
X9406491Y-13796488D01*
X9406491Y-13796488D02*
X9396968Y-13815536D01*
X9396968Y-13815536D02*
X9387444Y-13825060D01*
X9387444Y-13825060D02*
X9368396Y-13834584D01*
X9368396Y-13834584D02*
X9311253Y-13834584D01*
X9311253Y-13834584D02*
X9292206Y-13825060D01*
X9292206Y-13825060D02*
X9282682Y-13815536D01*
X9501729Y-13834584D02*
X9539825Y-13834584D01*
X9539825Y-13834584D02*
X9558872Y-13825060D01*
X9558872Y-13825060D02*
X9568396Y-13815536D01*
X9568396Y-13815536D02*
X9587444Y-13786965D01*
X9587444Y-13786965D02*
X9596968Y-13748869D01*
X9596968Y-13748869D02*
X9596968Y-13672679D01*
X9596968Y-13672679D02*
X9587444Y-13653631D01*
X9587444Y-13653631D02*
X9577920Y-13644108D01*
X9577920Y-13644108D02*
X9558872Y-13634584D01*
X9558872Y-13634584D02*
X9520777Y-13634584D01*
X9520777Y-13634584D02*
X9501729Y-13644108D01*
X9501729Y-13644108D02*
X9492206Y-13653631D01*
X9492206Y-13653631D02*
X9482682Y-13672679D01*
X9482682Y-13672679D02*
X9482682Y-13720298D01*
X9482682Y-13720298D02*
X9492206Y-13739346D01*
X9492206Y-13739346D02*
X9501729Y-13748869D01*
X9501729Y-13748869D02*
X9520777Y-13758393D01*
X9520777Y-13758393D02*
X9558872Y-13758393D01*
X9558872Y-13758393D02*
X9577920Y-13748869D01*
X9577920Y-13748869D02*
X9587444Y-13739346D01*
X9587444Y-13739346D02*
X9596968Y-13720298D01*
X9768396Y-13701250D02*
X9768396Y-13834584D01*
X9720777Y-13625060D02*
X9673158Y-13767917D01*
X9673158Y-13767917D02*
X9796968Y-13767917D01*
X9863634Y-13634584D02*
X9863634Y-13672679D01*
X9939825Y-13634584D02*
X9939825Y-13672679D01*
X10235063Y-13910774D02*
X10225539Y-13901250D01*
X10225539Y-13901250D02*
X10206491Y-13872679D01*
X10206491Y-13872679D02*
X10196968Y-13853631D01*
X10196968Y-13853631D02*
X10187444Y-13825060D01*
X10187444Y-13825060D02*
X10177920Y-13777441D01*
X10177920Y-13777441D02*
X10177920Y-13739346D01*
X10177920Y-13739346D02*
X10187444Y-13691727D01*
X10187444Y-13691727D02*
X10196968Y-13663155D01*
X10196968Y-13663155D02*
X10206491Y-13644108D01*
X10206491Y-13644108D02*
X10225539Y-13615536D01*
X10225539Y-13615536D02*
X10235063Y-13606012D01*
X10406491Y-13634584D02*
X10311253Y-13634584D01*
X10311253Y-13634584D02*
X10301730Y-13729822D01*
X10301730Y-13729822D02*
X10311253Y-13720298D01*
X10311253Y-13720298D02*
X10330301Y-13710774D01*
X10330301Y-13710774D02*
X10377920Y-13710774D01*
X10377920Y-13710774D02*
X10396968Y-13720298D01*
X10396968Y-13720298D02*
X10406491Y-13729822D01*
X10406491Y-13729822D02*
X10416015Y-13748869D01*
X10416015Y-13748869D02*
X10416015Y-13796488D01*
X10416015Y-13796488D02*
X10406491Y-13815536D01*
X10406491Y-13815536D02*
X10396968Y-13825060D01*
X10396968Y-13825060D02*
X10377920Y-13834584D01*
X10377920Y-13834584D02*
X10330301Y-13834584D01*
X10330301Y-13834584D02*
X10311253Y-13825060D01*
X10311253Y-13825060D02*
X10301730Y-13815536D01*
X10596968Y-13634584D02*
X10501730Y-13634584D01*
X10501730Y-13634584D02*
X10492206Y-13729822D01*
X10492206Y-13729822D02*
X10501730Y-13720298D01*
X10501730Y-13720298D02*
X10520777Y-13710774D01*
X10520777Y-13710774D02*
X10568396Y-13710774D01*
X10568396Y-13710774D02*
X10587444Y-13720298D01*
X10587444Y-13720298D02*
X10596968Y-13729822D01*
X10596968Y-13729822D02*
X10606491Y-13748869D01*
X10606491Y-13748869D02*
X10606491Y-13796488D01*
X10606491Y-13796488D02*
X10596968Y-13815536D01*
X10596968Y-13815536D02*
X10587444Y-13825060D01*
X10587444Y-13825060D02*
X10568396Y-13834584D01*
X10568396Y-13834584D02*
X10520777Y-13834584D01*
X10520777Y-13834584D02*
X10501730Y-13825060D01*
X10501730Y-13825060D02*
X10492206Y-13815536D01*
X10844587Y-13834584D02*
X10844587Y-13634584D01*
X10930301Y-13834584D02*
X10930301Y-13729822D01*
X10930301Y-13729822D02*
X10920777Y-13710774D01*
X10920777Y-13710774D02*
X10901730Y-13701250D01*
X10901730Y-13701250D02*
X10873158Y-13701250D01*
X10873158Y-13701250D02*
X10854111Y-13710774D01*
X10854111Y-13710774D02*
X10844587Y-13720298D01*
X11054111Y-13834584D02*
X11035063Y-13825060D01*
X11035063Y-13825060D02*
X11025539Y-13815536D01*
X11025539Y-13815536D02*
X11016015Y-13796488D01*
X11016015Y-13796488D02*
X11016015Y-13739346D01*
X11016015Y-13739346D02*
X11025539Y-13720298D01*
X11025539Y-13720298D02*
X11035063Y-13710774D01*
X11035063Y-13710774D02*
X11054111Y-13701250D01*
X11054111Y-13701250D02*
X11082682Y-13701250D01*
X11082682Y-13701250D02*
X11101730Y-13710774D01*
X11101730Y-13710774D02*
X11111253Y-13720298D01*
X11111253Y-13720298D02*
X11120777Y-13739346D01*
X11120777Y-13739346D02*
X11120777Y-13796488D01*
X11120777Y-13796488D02*
X11111253Y-13815536D01*
X11111253Y-13815536D02*
X11101730Y-13825060D01*
X11101730Y-13825060D02*
X11082682Y-13834584D01*
X11082682Y-13834584D02*
X11054111Y-13834584D01*
X11235063Y-13834584D02*
X11216015Y-13825060D01*
X11216015Y-13825060D02*
X11206491Y-13806012D01*
X11206491Y-13806012D02*
X11206491Y-13634584D01*
X11387444Y-13825060D02*
X11368396Y-13834584D01*
X11368396Y-13834584D02*
X11330301Y-13834584D01*
X11330301Y-13834584D02*
X11311253Y-13825060D01*
X11311253Y-13825060D02*
X11301730Y-13806012D01*
X11301730Y-13806012D02*
X11301730Y-13729822D01*
X11301730Y-13729822D02*
X11311253Y-13710774D01*
X11311253Y-13710774D02*
X11330301Y-13701250D01*
X11330301Y-13701250D02*
X11368396Y-13701250D01*
X11368396Y-13701250D02*
X11387444Y-13710774D01*
X11387444Y-13710774D02*
X11396968Y-13729822D01*
X11396968Y-13729822D02*
X11396968Y-13748869D01*
X11396968Y-13748869D02*
X11301730Y-13767917D01*
X11473158Y-13825060D02*
X11492206Y-13834584D01*
X11492206Y-13834584D02*
X11530301Y-13834584D01*
X11530301Y-13834584D02*
X11549349Y-13825060D01*
X11549349Y-13825060D02*
X11558872Y-13806012D01*
X11558872Y-13806012D02*
X11558872Y-13796488D01*
X11558872Y-13796488D02*
X11549349Y-13777441D01*
X11549349Y-13777441D02*
X11530301Y-13767917D01*
X11530301Y-13767917D02*
X11501730Y-13767917D01*
X11501730Y-13767917D02*
X11482682Y-13758393D01*
X11482682Y-13758393D02*
X11473158Y-13739346D01*
X11473158Y-13739346D02*
X11473158Y-13729822D01*
X11473158Y-13729822D02*
X11482682Y-13710774D01*
X11482682Y-13710774D02*
X11501730Y-13701250D01*
X11501730Y-13701250D02*
X11530301Y-13701250D01*
X11530301Y-13701250D02*
X11549349Y-13710774D01*
X11625539Y-13910774D02*
X11635063Y-13901250D01*
X11635063Y-13901250D02*
X11654111Y-13872679D01*
X11654111Y-13872679D02*
X11663634Y-13853631D01*
X11663634Y-13853631D02*
X11673158Y-13825060D01*
X11673158Y-13825060D02*
X11682682Y-13777441D01*
X11682682Y-13777441D02*
X11682682Y-13739346D01*
X11682682Y-13739346D02*
X11673158Y-13691727D01*
X11673158Y-13691727D02*
X11663634Y-13663155D01*
X11663634Y-13663155D02*
X11654111Y-13644108D01*
X11654111Y-13644108D02*
X11635063Y-13615536D01*
X11635063Y-13615536D02*
X11625539Y-13606012D01*
D13*
X6519995Y-13937098D02*
X6660000Y-14077102D01*
X6660000Y-13937098D02*
X6519995Y-14077102D01*
X6660000Y-14007100D02*
G75*
G03*
X6660000Y-14007100I-70002J0D01*
G01*
D11*
X7025539Y-14098584D02*
X6911253Y-14098584D01*
X6968396Y-14098584D02*
X6968396Y-13898584D01*
X6968396Y-13898584D02*
X6949348Y-13927155D01*
X6949348Y-13927155D02*
X6930301Y-13946203D01*
X6930301Y-13946203D02*
X6911253Y-13955727D01*
X7111253Y-14079536D02*
X7120777Y-14089060D01*
X7120777Y-14089060D02*
X7111253Y-14098584D01*
X7111253Y-14098584D02*
X7101729Y-14089060D01*
X7101729Y-14089060D02*
X7111253Y-14079536D01*
X7111253Y-14079536D02*
X7111253Y-14098584D01*
X7292205Y-13965250D02*
X7292205Y-14098584D01*
X7244586Y-13889060D02*
X7196967Y-14031917D01*
X7196967Y-14031917D02*
X7320777Y-14031917D01*
X7435062Y-13898584D02*
X7454110Y-13898584D01*
X7454110Y-13898584D02*
X7473158Y-13908108D01*
X7473158Y-13908108D02*
X7482682Y-13917631D01*
X7482682Y-13917631D02*
X7492205Y-13936679D01*
X7492205Y-13936679D02*
X7501729Y-13974774D01*
X7501729Y-13974774D02*
X7501729Y-14022393D01*
X7501729Y-14022393D02*
X7492205Y-14060488D01*
X7492205Y-14060488D02*
X7482682Y-14079536D01*
X7482682Y-14079536D02*
X7473158Y-14089060D01*
X7473158Y-14089060D02*
X7454110Y-14098584D01*
X7454110Y-14098584D02*
X7435062Y-14098584D01*
X7435062Y-14098584D02*
X7416015Y-14089060D01*
X7416015Y-14089060D02*
X7406491Y-14079536D01*
X7406491Y-14079536D02*
X7396967Y-14060488D01*
X7396967Y-14060488D02*
X7387443Y-14022393D01*
X7387443Y-14022393D02*
X7387443Y-13974774D01*
X7387443Y-13974774D02*
X7396967Y-13936679D01*
X7396967Y-13936679D02*
X7406491Y-13917631D01*
X7406491Y-13917631D02*
X7416015Y-13908108D01*
X7416015Y-13908108D02*
X7435062Y-13898584D01*
X7625539Y-13898584D02*
X7644586Y-13898584D01*
X7644586Y-13898584D02*
X7663634Y-13908108D01*
X7663634Y-13908108D02*
X7673158Y-13917631D01*
X7673158Y-13917631D02*
X7682682Y-13936679D01*
X7682682Y-13936679D02*
X7692205Y-13974774D01*
X7692205Y-13974774D02*
X7692205Y-14022393D01*
X7692205Y-14022393D02*
X7682682Y-14060488D01*
X7682682Y-14060488D02*
X7673158Y-14079536D01*
X7673158Y-14079536D02*
X7663634Y-14089060D01*
X7663634Y-14089060D02*
X7644586Y-14098584D01*
X7644586Y-14098584D02*
X7625539Y-14098584D01*
X7625539Y-14098584D02*
X7606491Y-14089060D01*
X7606491Y-14089060D02*
X7596967Y-14079536D01*
X7596967Y-14079536D02*
X7587443Y-14060488D01*
X7587443Y-14060488D02*
X7577920Y-14022393D01*
X7577920Y-14022393D02*
X7577920Y-13974774D01*
X7577920Y-13974774D02*
X7587443Y-13936679D01*
X7587443Y-13936679D02*
X7596967Y-13917631D01*
X7596967Y-13917631D02*
X7606491Y-13908108D01*
X7606491Y-13908108D02*
X7625539Y-13898584D01*
X7777920Y-14098584D02*
X7777920Y-13965250D01*
X7777920Y-13984298D02*
X7787443Y-13974774D01*
X7787443Y-13974774D02*
X7806491Y-13965250D01*
X7806491Y-13965250D02*
X7835063Y-13965250D01*
X7835063Y-13965250D02*
X7854110Y-13974774D01*
X7854110Y-13974774D02*
X7863634Y-13993822D01*
X7863634Y-13993822D02*
X7863634Y-14098584D01*
X7863634Y-13993822D02*
X7873158Y-13974774D01*
X7873158Y-13974774D02*
X7892205Y-13965250D01*
X7892205Y-13965250D02*
X7920777Y-13965250D01*
X7920777Y-13965250D02*
X7939824Y-13974774D01*
X7939824Y-13974774D02*
X7949348Y-13993822D01*
X7949348Y-13993822D02*
X7949348Y-14098584D01*
X8044586Y-14098584D02*
X8044586Y-13965250D01*
X8044586Y-13984298D02*
X8054110Y-13974774D01*
X8054110Y-13974774D02*
X8073158Y-13965250D01*
X8073158Y-13965250D02*
X8101729Y-13965250D01*
X8101729Y-13965250D02*
X8120777Y-13974774D01*
X8120777Y-13974774D02*
X8130301Y-13993822D01*
X8130301Y-13993822D02*
X8130301Y-14098584D01*
X8130301Y-13993822D02*
X8139824Y-13974774D01*
X8139824Y-13974774D02*
X8158872Y-13965250D01*
X8158872Y-13965250D02*
X8187443Y-13965250D01*
X8187443Y-13965250D02*
X8206491Y-13974774D01*
X8206491Y-13974774D02*
X8216015Y-13993822D01*
X8216015Y-13993822D02*
X8216015Y-14098584D01*
X8606491Y-13889060D02*
X8435063Y-14146203D01*
X8863634Y-13898584D02*
X8882682Y-13898584D01*
X8882682Y-13898584D02*
X8901729Y-13908108D01*
X8901729Y-13908108D02*
X8911253Y-13917631D01*
X8911253Y-13917631D02*
X8920777Y-13936679D01*
X8920777Y-13936679D02*
X8930301Y-13974774D01*
X8930301Y-13974774D02*
X8930301Y-14022393D01*
X8930301Y-14022393D02*
X8920777Y-14060488D01*
X8920777Y-14060488D02*
X8911253Y-14079536D01*
X8911253Y-14079536D02*
X8901729Y-14089060D01*
X8901729Y-14089060D02*
X8882682Y-14098584D01*
X8882682Y-14098584D02*
X8863634Y-14098584D01*
X8863634Y-14098584D02*
X8844587Y-14089060D01*
X8844587Y-14089060D02*
X8835063Y-14079536D01*
X8835063Y-14079536D02*
X8825539Y-14060488D01*
X8825539Y-14060488D02*
X8816015Y-14022393D01*
X8816015Y-14022393D02*
X8816015Y-13974774D01*
X8816015Y-13974774D02*
X8825539Y-13936679D01*
X8825539Y-13936679D02*
X8835063Y-13917631D01*
X8835063Y-13917631D02*
X8844587Y-13908108D01*
X8844587Y-13908108D02*
X8863634Y-13898584D01*
X9016015Y-14079536D02*
X9025539Y-14089060D01*
X9025539Y-14089060D02*
X9016015Y-14098584D01*
X9016015Y-14098584D02*
X9006491Y-14089060D01*
X9006491Y-14089060D02*
X9016015Y-14079536D01*
X9016015Y-14079536D02*
X9016015Y-14098584D01*
X9149348Y-13898584D02*
X9168396Y-13898584D01*
X9168396Y-13898584D02*
X9187444Y-13908108D01*
X9187444Y-13908108D02*
X9196968Y-13917631D01*
X9196968Y-13917631D02*
X9206491Y-13936679D01*
X9206491Y-13936679D02*
X9216015Y-13974774D01*
X9216015Y-13974774D02*
X9216015Y-14022393D01*
X9216015Y-14022393D02*
X9206491Y-14060488D01*
X9206491Y-14060488D02*
X9196968Y-14079536D01*
X9196968Y-14079536D02*
X9187444Y-14089060D01*
X9187444Y-14089060D02*
X9168396Y-14098584D01*
X9168396Y-14098584D02*
X9149348Y-14098584D01*
X9149348Y-14098584D02*
X9130301Y-14089060D01*
X9130301Y-14089060D02*
X9120777Y-14079536D01*
X9120777Y-14079536D02*
X9111253Y-14060488D01*
X9111253Y-14060488D02*
X9101729Y-14022393D01*
X9101729Y-14022393D02*
X9101729Y-13974774D01*
X9101729Y-13974774D02*
X9111253Y-13936679D01*
X9111253Y-13936679D02*
X9120777Y-13917631D01*
X9120777Y-13917631D02*
X9130301Y-13908108D01*
X9130301Y-13908108D02*
X9149348Y-13898584D01*
X9396968Y-13898584D02*
X9301729Y-13898584D01*
X9301729Y-13898584D02*
X9292206Y-13993822D01*
X9292206Y-13993822D02*
X9301729Y-13984298D01*
X9301729Y-13984298D02*
X9320777Y-13974774D01*
X9320777Y-13974774D02*
X9368396Y-13974774D01*
X9368396Y-13974774D02*
X9387444Y-13984298D01*
X9387444Y-13984298D02*
X9396968Y-13993822D01*
X9396968Y-13993822D02*
X9406491Y-14012869D01*
X9406491Y-14012869D02*
X9406491Y-14060488D01*
X9406491Y-14060488D02*
X9396968Y-14079536D01*
X9396968Y-14079536D02*
X9387444Y-14089060D01*
X9387444Y-14089060D02*
X9368396Y-14098584D01*
X9368396Y-14098584D02*
X9320777Y-14098584D01*
X9320777Y-14098584D02*
X9301729Y-14089060D01*
X9301729Y-14089060D02*
X9292206Y-14079536D01*
X9587444Y-13898584D02*
X9492206Y-13898584D01*
X9492206Y-13898584D02*
X9482682Y-13993822D01*
X9482682Y-13993822D02*
X9492206Y-13984298D01*
X9492206Y-13984298D02*
X9511253Y-13974774D01*
X9511253Y-13974774D02*
X9558872Y-13974774D01*
X9558872Y-13974774D02*
X9577920Y-13984298D01*
X9577920Y-13984298D02*
X9587444Y-13993822D01*
X9587444Y-13993822D02*
X9596968Y-14012869D01*
X9596968Y-14012869D02*
X9596968Y-14060488D01*
X9596968Y-14060488D02*
X9587444Y-14079536D01*
X9587444Y-14079536D02*
X9577920Y-14089060D01*
X9577920Y-14089060D02*
X9558872Y-14098584D01*
X9558872Y-14098584D02*
X9511253Y-14098584D01*
X9511253Y-14098584D02*
X9492206Y-14089060D01*
X9492206Y-14089060D02*
X9482682Y-14079536D01*
X9787444Y-14098584D02*
X9673158Y-14098584D01*
X9730301Y-14098584D02*
X9730301Y-13898584D01*
X9730301Y-13898584D02*
X9711253Y-13927155D01*
X9711253Y-13927155D02*
X9692206Y-13946203D01*
X9692206Y-13946203D02*
X9673158Y-13955727D01*
X9863634Y-13898584D02*
X9863634Y-13936679D01*
X9939825Y-13898584D02*
X9939825Y-13936679D01*
X10235063Y-14174774D02*
X10225539Y-14165250D01*
X10225539Y-14165250D02*
X10206491Y-14136679D01*
X10206491Y-14136679D02*
X10196968Y-14117631D01*
X10196968Y-14117631D02*
X10187444Y-14089060D01*
X10187444Y-14089060D02*
X10177920Y-14041441D01*
X10177920Y-14041441D02*
X10177920Y-14003346D01*
X10177920Y-14003346D02*
X10187444Y-13955727D01*
X10187444Y-13955727D02*
X10196968Y-13927155D01*
X10196968Y-13927155D02*
X10206491Y-13908108D01*
X10206491Y-13908108D02*
X10225539Y-13879536D01*
X10225539Y-13879536D02*
X10235063Y-13870012D01*
X10396968Y-13965250D02*
X10396968Y-14098584D01*
X10349349Y-13889060D02*
X10301730Y-14031917D01*
X10301730Y-14031917D02*
X10425539Y-14031917D01*
X10654111Y-14098584D02*
X10654111Y-13898584D01*
X10739825Y-14098584D02*
X10739825Y-13993822D01*
X10739825Y-13993822D02*
X10730301Y-13974774D01*
X10730301Y-13974774D02*
X10711253Y-13965250D01*
X10711253Y-13965250D02*
X10682682Y-13965250D01*
X10682682Y-13965250D02*
X10663634Y-13974774D01*
X10663634Y-13974774D02*
X10654111Y-13984298D01*
X10863634Y-14098584D02*
X10844587Y-14089060D01*
X10844587Y-14089060D02*
X10835063Y-14079536D01*
X10835063Y-14079536D02*
X10825539Y-14060488D01*
X10825539Y-14060488D02*
X10825539Y-14003346D01*
X10825539Y-14003346D02*
X10835063Y-13984298D01*
X10835063Y-13984298D02*
X10844587Y-13974774D01*
X10844587Y-13974774D02*
X10863634Y-13965250D01*
X10863634Y-13965250D02*
X10892206Y-13965250D01*
X10892206Y-13965250D02*
X10911253Y-13974774D01*
X10911253Y-13974774D02*
X10920777Y-13984298D01*
X10920777Y-13984298D02*
X10930301Y-14003346D01*
X10930301Y-14003346D02*
X10930301Y-14060488D01*
X10930301Y-14060488D02*
X10920777Y-14079536D01*
X10920777Y-14079536D02*
X10911253Y-14089060D01*
X10911253Y-14089060D02*
X10892206Y-14098584D01*
X10892206Y-14098584D02*
X10863634Y-14098584D01*
X11044587Y-14098584D02*
X11025539Y-14089060D01*
X11025539Y-14089060D02*
X11016015Y-14070012D01*
X11016015Y-14070012D02*
X11016015Y-13898584D01*
X11196968Y-14089060D02*
X11177920Y-14098584D01*
X11177920Y-14098584D02*
X11139825Y-14098584D01*
X11139825Y-14098584D02*
X11120777Y-14089060D01*
X11120777Y-14089060D02*
X11111253Y-14070012D01*
X11111253Y-14070012D02*
X11111253Y-13993822D01*
X11111253Y-13993822D02*
X11120777Y-13974774D01*
X11120777Y-13974774D02*
X11139825Y-13965250D01*
X11139825Y-13965250D02*
X11177920Y-13965250D01*
X11177920Y-13965250D02*
X11196968Y-13974774D01*
X11196968Y-13974774D02*
X11206491Y-13993822D01*
X11206491Y-13993822D02*
X11206491Y-14012869D01*
X11206491Y-14012869D02*
X11111253Y-14031917D01*
X11282682Y-14089060D02*
X11301730Y-14098584D01*
X11301730Y-14098584D02*
X11339825Y-14098584D01*
X11339825Y-14098584D02*
X11358872Y-14089060D01*
X11358872Y-14089060D02*
X11368396Y-14070012D01*
X11368396Y-14070012D02*
X11368396Y-14060488D01*
X11368396Y-14060488D02*
X11358872Y-14041441D01*
X11358872Y-14041441D02*
X11339825Y-14031917D01*
X11339825Y-14031917D02*
X11311253Y-14031917D01*
X11311253Y-14031917D02*
X11292206Y-14022393D01*
X11292206Y-14022393D02*
X11282682Y-14003346D01*
X11282682Y-14003346D02*
X11282682Y-13993822D01*
X11282682Y-13993822D02*
X11292206Y-13974774D01*
X11292206Y-13974774D02*
X11311253Y-13965250D01*
X11311253Y-13965250D02*
X11339825Y-13965250D01*
X11339825Y-13965250D02*
X11358872Y-13974774D01*
X11435063Y-14174774D02*
X11444587Y-14165250D01*
X11444587Y-14165250D02*
X11463634Y-14136679D01*
X11463634Y-14136679D02*
X11473158Y-14117631D01*
X11473158Y-14117631D02*
X11482682Y-14089060D01*
X11482682Y-14089060D02*
X11492206Y-14041441D01*
X11492206Y-14041441D02*
X11492206Y-14003346D01*
X11492206Y-14003346D02*
X11482682Y-13955727D01*
X11482682Y-13955727D02*
X11473158Y-13927155D01*
X11473158Y-13927155D02*
X11463634Y-13908108D01*
X11463634Y-13908108D02*
X11444587Y-13879536D01*
X11444587Y-13879536D02*
X11435063Y-13870012D01*
D14*
X6480000Y-14181100D02*
X6660000Y-14361100D01*
X6660000Y-14181100D02*
X6480000Y-14361100D01*
X6570000Y-14181100D02*
X6570000Y-14361100D01*
X6480000Y-14271100D02*
X6660000Y-14271100D01*
D11*
X7025539Y-14362584D02*
X6911253Y-14362584D01*
X6968396Y-14362584D02*
X6968396Y-14162584D01*
X6968396Y-14162584D02*
X6949348Y-14191155D01*
X6949348Y-14191155D02*
X6930301Y-14210203D01*
X6930301Y-14210203D02*
X6911253Y-14219727D01*
X7111253Y-14343536D02*
X7120777Y-14353060D01*
X7120777Y-14353060D02*
X7111253Y-14362584D01*
X7111253Y-14362584D02*
X7101729Y-14353060D01*
X7101729Y-14353060D02*
X7111253Y-14343536D01*
X7111253Y-14343536D02*
X7111253Y-14362584D01*
X7235062Y-14248298D02*
X7216015Y-14238774D01*
X7216015Y-14238774D02*
X7206491Y-14229250D01*
X7206491Y-14229250D02*
X7196967Y-14210203D01*
X7196967Y-14210203D02*
X7196967Y-14200679D01*
X7196967Y-14200679D02*
X7206491Y-14181631D01*
X7206491Y-14181631D02*
X7216015Y-14172108D01*
X7216015Y-14172108D02*
X7235062Y-14162584D01*
X7235062Y-14162584D02*
X7273158Y-14162584D01*
X7273158Y-14162584D02*
X7292205Y-14172108D01*
X7292205Y-14172108D02*
X7301729Y-14181631D01*
X7301729Y-14181631D02*
X7311253Y-14200679D01*
X7311253Y-14200679D02*
X7311253Y-14210203D01*
X7311253Y-14210203D02*
X7301729Y-14229250D01*
X7301729Y-14229250D02*
X7292205Y-14238774D01*
X7292205Y-14238774D02*
X7273158Y-14248298D01*
X7273158Y-14248298D02*
X7235062Y-14248298D01*
X7235062Y-14248298D02*
X7216015Y-14257822D01*
X7216015Y-14257822D02*
X7206491Y-14267346D01*
X7206491Y-14267346D02*
X7196967Y-14286393D01*
X7196967Y-14286393D02*
X7196967Y-14324488D01*
X7196967Y-14324488D02*
X7206491Y-14343536D01*
X7206491Y-14343536D02*
X7216015Y-14353060D01*
X7216015Y-14353060D02*
X7235062Y-14362584D01*
X7235062Y-14362584D02*
X7273158Y-14362584D01*
X7273158Y-14362584D02*
X7292205Y-14353060D01*
X7292205Y-14353060D02*
X7301729Y-14343536D01*
X7301729Y-14343536D02*
X7311253Y-14324488D01*
X7311253Y-14324488D02*
X7311253Y-14286393D01*
X7311253Y-14286393D02*
X7301729Y-14267346D01*
X7301729Y-14267346D02*
X7292205Y-14257822D01*
X7292205Y-14257822D02*
X7273158Y-14248298D01*
X7435062Y-14162584D02*
X7454110Y-14162584D01*
X7454110Y-14162584D02*
X7473158Y-14172108D01*
X7473158Y-14172108D02*
X7482682Y-14181631D01*
X7482682Y-14181631D02*
X7492205Y-14200679D01*
X7492205Y-14200679D02*
X7501729Y-14238774D01*
X7501729Y-14238774D02*
X7501729Y-14286393D01*
X7501729Y-14286393D02*
X7492205Y-14324488D01*
X7492205Y-14324488D02*
X7482682Y-14343536D01*
X7482682Y-14343536D02*
X7473158Y-14353060D01*
X7473158Y-14353060D02*
X7454110Y-14362584D01*
X7454110Y-14362584D02*
X7435062Y-14362584D01*
X7435062Y-14362584D02*
X7416015Y-14353060D01*
X7416015Y-14353060D02*
X7406491Y-14343536D01*
X7406491Y-14343536D02*
X7396967Y-14324488D01*
X7396967Y-14324488D02*
X7387443Y-14286393D01*
X7387443Y-14286393D02*
X7387443Y-14238774D01*
X7387443Y-14238774D02*
X7396967Y-14200679D01*
X7396967Y-14200679D02*
X7406491Y-14181631D01*
X7406491Y-14181631D02*
X7416015Y-14172108D01*
X7416015Y-14172108D02*
X7435062Y-14162584D01*
X7625539Y-14162584D02*
X7644586Y-14162584D01*
X7644586Y-14162584D02*
X7663634Y-14172108D01*
X7663634Y-14172108D02*
X7673158Y-14181631D01*
X7673158Y-14181631D02*
X7682682Y-14200679D01*
X7682682Y-14200679D02*
X7692205Y-14238774D01*
X7692205Y-14238774D02*
X7692205Y-14286393D01*
X7692205Y-14286393D02*
X7682682Y-14324488D01*
X7682682Y-14324488D02*
X7673158Y-14343536D01*
X7673158Y-14343536D02*
X7663634Y-14353060D01*
X7663634Y-14353060D02*
X7644586Y-14362584D01*
X7644586Y-14362584D02*
X7625539Y-14362584D01*
X7625539Y-14362584D02*
X7606491Y-14353060D01*
X7606491Y-14353060D02*
X7596967Y-14343536D01*
X7596967Y-14343536D02*
X7587443Y-14324488D01*
X7587443Y-14324488D02*
X7577920Y-14286393D01*
X7577920Y-14286393D02*
X7577920Y-14238774D01*
X7577920Y-14238774D02*
X7587443Y-14200679D01*
X7587443Y-14200679D02*
X7596967Y-14181631D01*
X7596967Y-14181631D02*
X7606491Y-14172108D01*
X7606491Y-14172108D02*
X7625539Y-14162584D01*
X7777920Y-14362584D02*
X7777920Y-14229250D01*
X7777920Y-14248298D02*
X7787443Y-14238774D01*
X7787443Y-14238774D02*
X7806491Y-14229250D01*
X7806491Y-14229250D02*
X7835063Y-14229250D01*
X7835063Y-14229250D02*
X7854110Y-14238774D01*
X7854110Y-14238774D02*
X7863634Y-14257822D01*
X7863634Y-14257822D02*
X7863634Y-14362584D01*
X7863634Y-14257822D02*
X7873158Y-14238774D01*
X7873158Y-14238774D02*
X7892205Y-14229250D01*
X7892205Y-14229250D02*
X7920777Y-14229250D01*
X7920777Y-14229250D02*
X7939824Y-14238774D01*
X7939824Y-14238774D02*
X7949348Y-14257822D01*
X7949348Y-14257822D02*
X7949348Y-14362584D01*
X8044586Y-14362584D02*
X8044586Y-14229250D01*
X8044586Y-14248298D02*
X8054110Y-14238774D01*
X8054110Y-14238774D02*
X8073158Y-14229250D01*
X8073158Y-14229250D02*
X8101729Y-14229250D01*
X8101729Y-14229250D02*
X8120777Y-14238774D01*
X8120777Y-14238774D02*
X8130301Y-14257822D01*
X8130301Y-14257822D02*
X8130301Y-14362584D01*
X8130301Y-14257822D02*
X8139824Y-14238774D01*
X8139824Y-14238774D02*
X8158872Y-14229250D01*
X8158872Y-14229250D02*
X8187443Y-14229250D01*
X8187443Y-14229250D02*
X8206491Y-14238774D01*
X8206491Y-14238774D02*
X8216015Y-14257822D01*
X8216015Y-14257822D02*
X8216015Y-14362584D01*
X8606491Y-14153060D02*
X8435063Y-14410203D01*
X8863634Y-14162584D02*
X8882682Y-14162584D01*
X8882682Y-14162584D02*
X8901729Y-14172108D01*
X8901729Y-14172108D02*
X8911253Y-14181631D01*
X8911253Y-14181631D02*
X8920777Y-14200679D01*
X8920777Y-14200679D02*
X8930301Y-14238774D01*
X8930301Y-14238774D02*
X8930301Y-14286393D01*
X8930301Y-14286393D02*
X8920777Y-14324488D01*
X8920777Y-14324488D02*
X8911253Y-14343536D01*
X8911253Y-14343536D02*
X8901729Y-14353060D01*
X8901729Y-14353060D02*
X8882682Y-14362584D01*
X8882682Y-14362584D02*
X8863634Y-14362584D01*
X8863634Y-14362584D02*
X8844587Y-14353060D01*
X8844587Y-14353060D02*
X8835063Y-14343536D01*
X8835063Y-14343536D02*
X8825539Y-14324488D01*
X8825539Y-14324488D02*
X8816015Y-14286393D01*
X8816015Y-14286393D02*
X8816015Y-14238774D01*
X8816015Y-14238774D02*
X8825539Y-14200679D01*
X8825539Y-14200679D02*
X8835063Y-14181631D01*
X8835063Y-14181631D02*
X8844587Y-14172108D01*
X8844587Y-14172108D02*
X8863634Y-14162584D01*
X9016015Y-14343536D02*
X9025539Y-14353060D01*
X9025539Y-14353060D02*
X9016015Y-14362584D01*
X9016015Y-14362584D02*
X9006491Y-14353060D01*
X9006491Y-14353060D02*
X9016015Y-14343536D01*
X9016015Y-14343536D02*
X9016015Y-14362584D01*
X9149348Y-14162584D02*
X9168396Y-14162584D01*
X9168396Y-14162584D02*
X9187444Y-14172108D01*
X9187444Y-14172108D02*
X9196968Y-14181631D01*
X9196968Y-14181631D02*
X9206491Y-14200679D01*
X9206491Y-14200679D02*
X9216015Y-14238774D01*
X9216015Y-14238774D02*
X9216015Y-14286393D01*
X9216015Y-14286393D02*
X9206491Y-14324488D01*
X9206491Y-14324488D02*
X9196968Y-14343536D01*
X9196968Y-14343536D02*
X9187444Y-14353060D01*
X9187444Y-14353060D02*
X9168396Y-14362584D01*
X9168396Y-14362584D02*
X9149348Y-14362584D01*
X9149348Y-14362584D02*
X9130301Y-14353060D01*
X9130301Y-14353060D02*
X9120777Y-14343536D01*
X9120777Y-14343536D02*
X9111253Y-14324488D01*
X9111253Y-14324488D02*
X9101729Y-14286393D01*
X9101729Y-14286393D02*
X9101729Y-14238774D01*
X9101729Y-14238774D02*
X9111253Y-14200679D01*
X9111253Y-14200679D02*
X9120777Y-14181631D01*
X9120777Y-14181631D02*
X9130301Y-14172108D01*
X9130301Y-14172108D02*
X9149348Y-14162584D01*
X9282682Y-14162584D02*
X9416015Y-14162584D01*
X9416015Y-14162584D02*
X9330301Y-14362584D01*
X9530301Y-14162584D02*
X9549349Y-14162584D01*
X9549349Y-14162584D02*
X9568396Y-14172108D01*
X9568396Y-14172108D02*
X9577920Y-14181631D01*
X9577920Y-14181631D02*
X9587444Y-14200679D01*
X9587444Y-14200679D02*
X9596968Y-14238774D01*
X9596968Y-14238774D02*
X9596968Y-14286393D01*
X9596968Y-14286393D02*
X9587444Y-14324488D01*
X9587444Y-14324488D02*
X9577920Y-14343536D01*
X9577920Y-14343536D02*
X9568396Y-14353060D01*
X9568396Y-14353060D02*
X9549349Y-14362584D01*
X9549349Y-14362584D02*
X9530301Y-14362584D01*
X9530301Y-14362584D02*
X9511253Y-14353060D01*
X9511253Y-14353060D02*
X9501729Y-14343536D01*
X9501729Y-14343536D02*
X9492206Y-14324488D01*
X9492206Y-14324488D02*
X9482682Y-14286393D01*
X9482682Y-14286393D02*
X9482682Y-14238774D01*
X9482682Y-14238774D02*
X9492206Y-14200679D01*
X9492206Y-14200679D02*
X9501729Y-14181631D01*
X9501729Y-14181631D02*
X9511253Y-14172108D01*
X9511253Y-14172108D02*
X9530301Y-14162584D01*
X9692206Y-14362584D02*
X9730301Y-14362584D01*
X9730301Y-14362584D02*
X9749349Y-14353060D01*
X9749349Y-14353060D02*
X9758872Y-14343536D01*
X9758872Y-14343536D02*
X9777920Y-14314965D01*
X9777920Y-14314965D02*
X9787444Y-14276869D01*
X9787444Y-14276869D02*
X9787444Y-14200679D01*
X9787444Y-14200679D02*
X9777920Y-14181631D01*
X9777920Y-14181631D02*
X9768396Y-14172108D01*
X9768396Y-14172108D02*
X9749349Y-14162584D01*
X9749349Y-14162584D02*
X9711253Y-14162584D01*
X9711253Y-14162584D02*
X9692206Y-14172108D01*
X9692206Y-14172108D02*
X9682682Y-14181631D01*
X9682682Y-14181631D02*
X9673158Y-14200679D01*
X9673158Y-14200679D02*
X9673158Y-14248298D01*
X9673158Y-14248298D02*
X9682682Y-14267346D01*
X9682682Y-14267346D02*
X9692206Y-14276869D01*
X9692206Y-14276869D02*
X9711253Y-14286393D01*
X9711253Y-14286393D02*
X9749349Y-14286393D01*
X9749349Y-14286393D02*
X9768396Y-14276869D01*
X9768396Y-14276869D02*
X9777920Y-14267346D01*
X9777920Y-14267346D02*
X9787444Y-14248298D01*
X9863634Y-14162584D02*
X9863634Y-14200679D01*
X9939825Y-14162584D02*
X9939825Y-14200679D01*
X10235063Y-14438774D02*
X10225539Y-14429250D01*
X10225539Y-14429250D02*
X10206491Y-14400679D01*
X10206491Y-14400679D02*
X10196968Y-14381631D01*
X10196968Y-14381631D02*
X10187444Y-14353060D01*
X10187444Y-14353060D02*
X10177920Y-14305441D01*
X10177920Y-14305441D02*
X10177920Y-14267346D01*
X10177920Y-14267346D02*
X10187444Y-14219727D01*
X10187444Y-14219727D02*
X10196968Y-14191155D01*
X10196968Y-14191155D02*
X10206491Y-14172108D01*
X10206491Y-14172108D02*
X10225539Y-14143536D01*
X10225539Y-14143536D02*
X10235063Y-14134012D01*
X10349349Y-14162584D02*
X10368396Y-14162584D01*
X10368396Y-14162584D02*
X10387444Y-14172108D01*
X10387444Y-14172108D02*
X10396968Y-14181631D01*
X10396968Y-14181631D02*
X10406491Y-14200679D01*
X10406491Y-14200679D02*
X10416015Y-14238774D01*
X10416015Y-14238774D02*
X10416015Y-14286393D01*
X10416015Y-14286393D02*
X10406491Y-14324488D01*
X10406491Y-14324488D02*
X10396968Y-14343536D01*
X10396968Y-14343536D02*
X10387444Y-14353060D01*
X10387444Y-14353060D02*
X10368396Y-14362584D01*
X10368396Y-14362584D02*
X10349349Y-14362584D01*
X10349349Y-14362584D02*
X10330301Y-14353060D01*
X10330301Y-14353060D02*
X10320777Y-14343536D01*
X10320777Y-14343536D02*
X10311253Y-14324488D01*
X10311253Y-14324488D02*
X10301730Y-14286393D01*
X10301730Y-14286393D02*
X10301730Y-14238774D01*
X10301730Y-14238774D02*
X10311253Y-14200679D01*
X10311253Y-14200679D02*
X10320777Y-14181631D01*
X10320777Y-14181631D02*
X10330301Y-14172108D01*
X10330301Y-14172108D02*
X10349349Y-14162584D01*
X10654111Y-14362584D02*
X10654111Y-14162584D01*
X10739825Y-14362584D02*
X10739825Y-14257822D01*
X10739825Y-14257822D02*
X10730301Y-14238774D01*
X10730301Y-14238774D02*
X10711253Y-14229250D01*
X10711253Y-14229250D02*
X10682682Y-14229250D01*
X10682682Y-14229250D02*
X10663634Y-14238774D01*
X10663634Y-14238774D02*
X10654111Y-14248298D01*
X10863634Y-14362584D02*
X10844587Y-14353060D01*
X10844587Y-14353060D02*
X10835063Y-14343536D01*
X10835063Y-14343536D02*
X10825539Y-14324488D01*
X10825539Y-14324488D02*
X10825539Y-14267346D01*
X10825539Y-14267346D02*
X10835063Y-14248298D01*
X10835063Y-14248298D02*
X10844587Y-14238774D01*
X10844587Y-14238774D02*
X10863634Y-14229250D01*
X10863634Y-14229250D02*
X10892206Y-14229250D01*
X10892206Y-14229250D02*
X10911253Y-14238774D01*
X10911253Y-14238774D02*
X10920777Y-14248298D01*
X10920777Y-14248298D02*
X10930301Y-14267346D01*
X10930301Y-14267346D02*
X10930301Y-14324488D01*
X10930301Y-14324488D02*
X10920777Y-14343536D01*
X10920777Y-14343536D02*
X10911253Y-14353060D01*
X10911253Y-14353060D02*
X10892206Y-14362584D01*
X10892206Y-14362584D02*
X10863634Y-14362584D01*
X11044587Y-14362584D02*
X11025539Y-14353060D01*
X11025539Y-14353060D02*
X11016015Y-14334012D01*
X11016015Y-14334012D02*
X11016015Y-14162584D01*
X11196968Y-14353060D02*
X11177920Y-14362584D01*
X11177920Y-14362584D02*
X11139825Y-14362584D01*
X11139825Y-14362584D02*
X11120777Y-14353060D01*
X11120777Y-14353060D02*
X11111253Y-14334012D01*
X11111253Y-14334012D02*
X11111253Y-14257822D01*
X11111253Y-14257822D02*
X11120777Y-14238774D01*
X11120777Y-14238774D02*
X11139825Y-14229250D01*
X11139825Y-14229250D02*
X11177920Y-14229250D01*
X11177920Y-14229250D02*
X11196968Y-14238774D01*
X11196968Y-14238774D02*
X11206491Y-14257822D01*
X11206491Y-14257822D02*
X11206491Y-14276869D01*
X11206491Y-14276869D02*
X11111253Y-14295917D01*
X11282682Y-14353060D02*
X11301730Y-14362584D01*
X11301730Y-14362584D02*
X11339825Y-14362584D01*
X11339825Y-14362584D02*
X11358872Y-14353060D01*
X11358872Y-14353060D02*
X11368396Y-14334012D01*
X11368396Y-14334012D02*
X11368396Y-14324488D01*
X11368396Y-14324488D02*
X11358872Y-14305441D01*
X11358872Y-14305441D02*
X11339825Y-14295917D01*
X11339825Y-14295917D02*
X11311253Y-14295917D01*
X11311253Y-14295917D02*
X11292206Y-14286393D01*
X11292206Y-14286393D02*
X11282682Y-14267346D01*
X11282682Y-14267346D02*
X11282682Y-14257822D01*
X11282682Y-14257822D02*
X11292206Y-14238774D01*
X11292206Y-14238774D02*
X11311253Y-14229250D01*
X11311253Y-14229250D02*
X11339825Y-14229250D01*
X11339825Y-14229250D02*
X11358872Y-14238774D01*
X11606492Y-14286393D02*
X11758873Y-14286393D01*
X11682682Y-14362584D02*
X11682682Y-14210203D01*
X11996968Y-14181631D02*
X12006492Y-14172108D01*
X12006492Y-14172108D02*
X12025539Y-14162584D01*
X12025539Y-14162584D02*
X12073158Y-14162584D01*
X12073158Y-14162584D02*
X12092206Y-14172108D01*
X12092206Y-14172108D02*
X12101730Y-14181631D01*
X12101730Y-14181631D02*
X12111253Y-14200679D01*
X12111253Y-14200679D02*
X12111253Y-14219727D01*
X12111253Y-14219727D02*
X12101730Y-14248298D01*
X12101730Y-14248298D02*
X11987444Y-14362584D01*
X11987444Y-14362584D02*
X12111253Y-14362584D01*
X12339825Y-14353060D02*
X12358873Y-14362584D01*
X12358873Y-14362584D02*
X12396968Y-14362584D01*
X12396968Y-14362584D02*
X12416015Y-14353060D01*
X12416015Y-14353060D02*
X12425539Y-14334012D01*
X12425539Y-14334012D02*
X12425539Y-14324488D01*
X12425539Y-14324488D02*
X12416015Y-14305441D01*
X12416015Y-14305441D02*
X12396968Y-14295917D01*
X12396968Y-14295917D02*
X12368396Y-14295917D01*
X12368396Y-14295917D02*
X12349349Y-14286393D01*
X12349349Y-14286393D02*
X12339825Y-14267346D01*
X12339825Y-14267346D02*
X12339825Y-14257822D01*
X12339825Y-14257822D02*
X12349349Y-14238774D01*
X12349349Y-14238774D02*
X12368396Y-14229250D01*
X12368396Y-14229250D02*
X12396968Y-14229250D01*
X12396968Y-14229250D02*
X12416015Y-14238774D01*
X12539825Y-14362584D02*
X12520777Y-14353060D01*
X12520777Y-14353060D02*
X12511254Y-14334012D01*
X12511254Y-14334012D02*
X12511254Y-14162584D01*
X12644587Y-14362584D02*
X12625539Y-14353060D01*
X12625539Y-14353060D02*
X12616015Y-14343536D01*
X12616015Y-14343536D02*
X12606492Y-14324488D01*
X12606492Y-14324488D02*
X12606492Y-14267346D01*
X12606492Y-14267346D02*
X12616015Y-14248298D01*
X12616015Y-14248298D02*
X12625539Y-14238774D01*
X12625539Y-14238774D02*
X12644587Y-14229250D01*
X12644587Y-14229250D02*
X12673158Y-14229250D01*
X12673158Y-14229250D02*
X12692206Y-14238774D01*
X12692206Y-14238774D02*
X12701730Y-14248298D01*
X12701730Y-14248298D02*
X12711254Y-14267346D01*
X12711254Y-14267346D02*
X12711254Y-14324488D01*
X12711254Y-14324488D02*
X12701730Y-14343536D01*
X12701730Y-14343536D02*
X12692206Y-14353060D01*
X12692206Y-14353060D02*
X12673158Y-14362584D01*
X12673158Y-14362584D02*
X12644587Y-14362584D01*
X12768396Y-14229250D02*
X12844587Y-14229250D01*
X12796968Y-14162584D02*
X12796968Y-14334012D01*
X12796968Y-14334012D02*
X12806492Y-14353060D01*
X12806492Y-14353060D02*
X12825539Y-14362584D01*
X12825539Y-14362584D02*
X12844587Y-14362584D01*
X12901730Y-14353060D02*
X12920777Y-14362584D01*
X12920777Y-14362584D02*
X12958873Y-14362584D01*
X12958873Y-14362584D02*
X12977920Y-14353060D01*
X12977920Y-14353060D02*
X12987444Y-14334012D01*
X12987444Y-14334012D02*
X12987444Y-14324488D01*
X12987444Y-14324488D02*
X12977920Y-14305441D01*
X12977920Y-14305441D02*
X12958873Y-14295917D01*
X12958873Y-14295917D02*
X12930301Y-14295917D01*
X12930301Y-14295917D02*
X12911254Y-14286393D01*
X12911254Y-14286393D02*
X12901730Y-14267346D01*
X12901730Y-14267346D02*
X12901730Y-14257822D01*
X12901730Y-14257822D02*
X12911254Y-14238774D01*
X12911254Y-14238774D02*
X12930301Y-14229250D01*
X12930301Y-14229250D02*
X12958873Y-14229250D01*
X12958873Y-14229250D02*
X12977920Y-14238774D01*
X13054111Y-14438774D02*
X13063635Y-14429250D01*
X13063635Y-14429250D02*
X13082682Y-14400679D01*
X13082682Y-14400679D02*
X13092206Y-14381631D01*
X13092206Y-14381631D02*
X13101730Y-14353060D01*
X13101730Y-14353060D02*
X13111254Y-14305441D01*
X13111254Y-14305441D02*
X13111254Y-14267346D01*
X13111254Y-14267346D02*
X13101730Y-14219727D01*
X13101730Y-14219727D02*
X13092206Y-14191155D01*
X13092206Y-14191155D02*
X13082682Y-14172108D01*
X13082682Y-14172108D02*
X13063635Y-14143536D01*
X13063635Y-14143536D02*
X13054111Y-14134012D01*
M02*
