%TF.GenerationSoftware,KiCad,Pcbnew,4.0.7*%
%TF.CreationDate,2018-03-17T13:46:32+01:00*%
%TF.ProjectId,Synkino,53796E6B696E6F2E6B696361645F7063,rev?*%
%TF.FileFunction,Soldermask,Bot*%
%FSLAX46Y46*%
G04 Gerber Fmt 4.6, Leading zero omitted, Abs format (unit mm)*
G04 Created by KiCad (PCBNEW 4.0.7) date 2018 March 17, Saturday 13:46:32*
%MOMM*%
%LPD*%
G01*
G04 APERTURE LIST*
%ADD10C,0.100000*%
%ADD11C,1.900000*%
%ADD12C,3.600000*%
%ADD13C,4.200000*%
%ADD14C,2.400000*%
%ADD15R,2.400000X3.000000*%
%ADD16O,2.400000X3.000000*%
%ADD17O,2.100000X3.400000*%
%ADD18O,3.400000X2.400000*%
%ADD19R,3.100000X4.100000*%
%ADD20R,2.100000X2.100000*%
%ADD21O,2.100000X2.100000*%
%ADD22C,1.924000*%
%ADD23O,1.900000X2.900000*%
%ADD24O,2.900000X2.100000*%
%ADD25R,1.900000X1.900000*%
G04 APERTURE END LIST*
D10*
D11*
X154178000Y-98552000D03*
X104140000Y-91186000D03*
X141986000Y-101600000D03*
D12*
X75311000Y-80073500D03*
D13*
X149606000Y-117856000D03*
X139954000Y-117856000D03*
X130302000Y-117856000D03*
X120650000Y-117856000D03*
X110998000Y-117856000D03*
X101346000Y-117856000D03*
X91694000Y-117856000D03*
D12*
X105791000Y-80010000D03*
D14*
X151638000Y-96266000D03*
X151638000Y-100766000D03*
X145138000Y-96266000D03*
X145138000Y-100766000D03*
D12*
X156210000Y-103632000D03*
X75438000Y-103632000D03*
X75438000Y-41910000D03*
D15*
X113538000Y-102870000D03*
D16*
X110998000Y-102870000D03*
D17*
X131786000Y-47625000D03*
X134286000Y-47625000D03*
X126786000Y-47625000D03*
X124286000Y-47625000D03*
D18*
X129286000Y-42625000D03*
D14*
X118110000Y-100766000D03*
X118110000Y-96266000D03*
X124610000Y-100766000D03*
X124610000Y-96266000D03*
X93178000Y-101488000D03*
X93178000Y-86988000D03*
X90678000Y-86988000D03*
X88178000Y-86988000D03*
D19*
X96378000Y-94488000D03*
X84978000Y-94488000D03*
D14*
X88178000Y-101488000D03*
D20*
X75184000Y-85090000D03*
D21*
X75184000Y-87630000D03*
X75184000Y-90170000D03*
X75184000Y-92710000D03*
X75184000Y-95250000D03*
X75184000Y-97790000D03*
D20*
X101092000Y-44450000D03*
D21*
X101092000Y-41910000D03*
X103632000Y-44450000D03*
X103632000Y-41910000D03*
X106172000Y-44450000D03*
X106172000Y-41910000D03*
D20*
X156524000Y-69325000D03*
D21*
X156524000Y-71865000D03*
X156524000Y-74405000D03*
X156524000Y-76945000D03*
X156524000Y-79485000D03*
X156524000Y-82025000D03*
D11*
X156524000Y-85983000D03*
X156524000Y-88483000D03*
X156524000Y-90983000D03*
X156524000Y-93483000D03*
X156524000Y-95983000D03*
X156524000Y-98483000D03*
X74168000Y-49530000D03*
X74168000Y-52070000D03*
X74168000Y-54610000D03*
X74168000Y-57150000D03*
X74168000Y-46990000D03*
D12*
X156210000Y-41910000D03*
D20*
X142494000Y-86868000D03*
D21*
X142494000Y-89408000D03*
D20*
X135128000Y-85852000D03*
D21*
X137668000Y-85852000D03*
X135128000Y-88392000D03*
X137668000Y-88392000D03*
X135128000Y-90932000D03*
X137668000Y-90932000D03*
D22*
X82804000Y-51054000D03*
X85344000Y-51054000D03*
X87884000Y-51054000D03*
X90424000Y-51054000D03*
X92964000Y-51054000D03*
X95504000Y-51054000D03*
X98044000Y-51054000D03*
D20*
X79502000Y-109728000D03*
D21*
X82042000Y-109728000D03*
X84582000Y-109728000D03*
D20*
X89154000Y-109728000D03*
D21*
X91694000Y-109728000D03*
X94234000Y-109728000D03*
D20*
X98806000Y-109728000D03*
D21*
X101346000Y-109728000D03*
X103886000Y-109728000D03*
D20*
X108458000Y-109728000D03*
D21*
X110998000Y-109728000D03*
X113538000Y-109728000D03*
D20*
X118110000Y-109728000D03*
D21*
X120650000Y-109728000D03*
X123190000Y-109728000D03*
D20*
X127762000Y-109728000D03*
D21*
X130302000Y-109728000D03*
X132842000Y-109728000D03*
D20*
X137414000Y-109728000D03*
D21*
X139954000Y-109728000D03*
X142494000Y-109728000D03*
D20*
X147066000Y-109728000D03*
D21*
X149606000Y-109728000D03*
X152146000Y-109728000D03*
D23*
X95322000Y-45426000D03*
X91622000Y-45426000D03*
D24*
X93472000Y-47426000D03*
D18*
X93472000Y-40526000D03*
D23*
X84908000Y-45426000D03*
X81208000Y-45426000D03*
D24*
X83058000Y-47426000D03*
D18*
X83058000Y-40526000D03*
D13*
X82042000Y-117856000D03*
D11*
X81280000Y-101346000D03*
X111760000Y-77470000D03*
X111760000Y-74930000D03*
D25*
X107696000Y-51816000D03*
X109474000Y-51816000D03*
M02*
