G04 #@! TF.GenerationSoftware,KiCad,Pcbnew,7.0.9-39-g1740aeca5e*
G04 #@! TF.CreationDate,2023-11-27T00:53:47+01:00*
G04 #@! TF.ProjectId,Synkino,53796e6b-696e-46f2-9e6b-696361645f70,rev?*
G04 #@! TF.SameCoordinates,Original*
G04 #@! TF.FileFunction,Legend,Bot*
G04 #@! TF.FilePolarity,Positive*
%FSLAX46Y46*%
G04 Gerber Fmt 4.6, Leading zero omitted, Abs format (unit mm)*
G04 Created by KiCad (PCBNEW 7.0.9-39-g1740aeca5e) date 2023-11-27 00:53:47*
%MOMM*%
%LPD*%
G01*
G04 APERTURE LIST*
G04 Aperture macros list*
%AMFreePoly0*
4,1,19,0.500000,-0.750000,0.000000,-0.750000,0.000000,-0.744911,-0.071157,-0.744911,-0.207708,-0.704816,-0.327430,-0.627875,-0.420627,-0.520320,-0.479746,-0.390866,-0.500000,-0.250000,-0.500000,0.250000,-0.479746,0.390866,-0.420627,0.520320,-0.327430,0.627875,-0.207708,0.704816,-0.071157,0.744911,0.000000,0.744911,0.000000,0.750000,0.500000,0.750000,0.500000,-0.750000,0.500000,-0.750000,
$1*%
%AMFreePoly1*
4,1,19,0.000000,0.744911,0.071157,0.744911,0.207708,0.704816,0.327430,0.627875,0.420627,0.520320,0.479746,0.390866,0.500000,0.250000,0.500000,-0.250000,0.479746,-0.390866,0.420627,-0.520320,0.327430,-0.627875,0.207708,-0.704816,0.071157,-0.744911,0.000000,-0.744911,0.000000,-0.750000,-0.500000,-0.750000,-0.500000,0.750000,0.000000,0.750000,0.000000,0.744911,0.000000,0.744911,
$1*%
G04 Aperture macros list end*
%ADD10C,0.150000*%
%ADD11C,0.250000*%
%ADD12C,0.300000*%
%ADD13C,0.200000*%
%ADD14C,0.120000*%
%ADD15O,3.000000X2.000000*%
%ADD16O,1.700000X3.000000*%
%ADD17C,1.800000*%
%ADD18C,2.000000*%
%ADD19R,2.700000X3.700000*%
%ADD20C,1.524000*%
%ADD21R,1.700000X1.700000*%
%ADD22O,1.700000X1.700000*%
%ADD23R,1.500000X1.500000*%
%ADD24C,1.500000*%
%ADD25O,1.500000X2.500000*%
%ADD26O,2.500000X1.700000*%
%ADD27C,2.200000*%
%ADD28C,3.200000*%
%ADD29FreePoly0,90.000000*%
%ADD30FreePoly1,90.000000*%
G04 APERTURE END LIST*
D10*
X138430000Y-44704000D02*
X158242000Y-44704000D01*
X158242000Y-54610000D01*
X138430000Y-54610000D01*
X138430000Y-44704000D01*
G36*
X138430000Y-44704000D02*
G01*
X158242000Y-44704000D01*
X158242000Y-54610000D01*
X138430000Y-54610000D01*
X138430000Y-44704000D01*
G37*
D11*
X147174002Y-105343000D02*
X146974002Y-105409666D01*
X146974002Y-105409666D02*
X146640669Y-105409666D01*
X146640669Y-105409666D02*
X146507335Y-105343000D01*
X146507335Y-105343000D02*
X146440669Y-105276333D01*
X146440669Y-105276333D02*
X146374002Y-105143000D01*
X146374002Y-105143000D02*
X146374002Y-105009666D01*
X146374002Y-105009666D02*
X146440669Y-104876333D01*
X146440669Y-104876333D02*
X146507335Y-104809666D01*
X146507335Y-104809666D02*
X146640669Y-104743000D01*
X146640669Y-104743000D02*
X146907335Y-104676333D01*
X146907335Y-104676333D02*
X147040669Y-104609666D01*
X147040669Y-104609666D02*
X147107335Y-104543000D01*
X147107335Y-104543000D02*
X147174002Y-104409666D01*
X147174002Y-104409666D02*
X147174002Y-104276333D01*
X147174002Y-104276333D02*
X147107335Y-104143000D01*
X147107335Y-104143000D02*
X147040669Y-104076333D01*
X147040669Y-104076333D02*
X146907335Y-104009666D01*
X146907335Y-104009666D02*
X146574002Y-104009666D01*
X146574002Y-104009666D02*
X146374002Y-104076333D01*
X145907336Y-104476333D02*
X145574002Y-105409666D01*
X145240669Y-104476333D02*
X145574002Y-105409666D01*
X145574002Y-105409666D02*
X145707336Y-105743000D01*
X145707336Y-105743000D02*
X145774002Y-105809666D01*
X145774002Y-105809666D02*
X145907336Y-105876333D01*
X144707335Y-104476333D02*
X144707335Y-105409666D01*
X144707335Y-104609666D02*
X144640669Y-104543000D01*
X144640669Y-104543000D02*
X144507335Y-104476333D01*
X144507335Y-104476333D02*
X144307335Y-104476333D01*
X144307335Y-104476333D02*
X144174002Y-104543000D01*
X144174002Y-104543000D02*
X144107335Y-104676333D01*
X144107335Y-104676333D02*
X144107335Y-105409666D01*
X143440668Y-105409666D02*
X143440668Y-104009666D01*
X143307335Y-104876333D02*
X142907335Y-105409666D01*
X142907335Y-104476333D02*
X143440668Y-105009666D01*
X142307335Y-105409666D02*
X142307335Y-104476333D01*
X142307335Y-104009666D02*
X142374002Y-104076333D01*
X142374002Y-104076333D02*
X142307335Y-104143000D01*
X142307335Y-104143000D02*
X142240669Y-104076333D01*
X142240669Y-104076333D02*
X142307335Y-104009666D01*
X142307335Y-104009666D02*
X142307335Y-104143000D01*
X141640668Y-104476333D02*
X141640668Y-105409666D01*
X141640668Y-104609666D02*
X141574002Y-104543000D01*
X141574002Y-104543000D02*
X141440668Y-104476333D01*
X141440668Y-104476333D02*
X141240668Y-104476333D01*
X141240668Y-104476333D02*
X141107335Y-104543000D01*
X141107335Y-104543000D02*
X141040668Y-104676333D01*
X141040668Y-104676333D02*
X141040668Y-105409666D01*
X140174001Y-105409666D02*
X140307335Y-105343000D01*
X140307335Y-105343000D02*
X140374001Y-105276333D01*
X140374001Y-105276333D02*
X140440668Y-105143000D01*
X140440668Y-105143000D02*
X140440668Y-104743000D01*
X140440668Y-104743000D02*
X140374001Y-104609666D01*
X140374001Y-104609666D02*
X140307335Y-104543000D01*
X140307335Y-104543000D02*
X140174001Y-104476333D01*
X140174001Y-104476333D02*
X139974001Y-104476333D01*
X139974001Y-104476333D02*
X139840668Y-104543000D01*
X139840668Y-104543000D02*
X139774001Y-104609666D01*
X139774001Y-104609666D02*
X139707335Y-104743000D01*
X139707335Y-104743000D02*
X139707335Y-105143000D01*
X139707335Y-105143000D02*
X139774001Y-105276333D01*
X139774001Y-105276333D02*
X139840668Y-105343000D01*
X139840668Y-105343000D02*
X139974001Y-105409666D01*
X139974001Y-105409666D02*
X140174001Y-105409666D01*
X138040667Y-105409666D02*
X138040667Y-104009666D01*
X138040667Y-104543000D02*
X137907334Y-104476333D01*
X137907334Y-104476333D02*
X137640667Y-104476333D01*
X137640667Y-104476333D02*
X137507334Y-104543000D01*
X137507334Y-104543000D02*
X137440667Y-104609666D01*
X137440667Y-104609666D02*
X137374001Y-104743000D01*
X137374001Y-104743000D02*
X137374001Y-105143000D01*
X137374001Y-105143000D02*
X137440667Y-105276333D01*
X137440667Y-105276333D02*
X137507334Y-105343000D01*
X137507334Y-105343000D02*
X137640667Y-105409666D01*
X137640667Y-105409666D02*
X137907334Y-105409666D01*
X137907334Y-105409666D02*
X138040667Y-105343000D01*
X136907334Y-104476333D02*
X136574000Y-105409666D01*
X136240667Y-104476333D02*
X136574000Y-105409666D01*
X136574000Y-105409666D02*
X136707334Y-105743000D01*
X136707334Y-105743000D02*
X136774000Y-105809666D01*
X136774000Y-105809666D02*
X136907334Y-105876333D01*
X134840666Y-104476333D02*
X134307333Y-104476333D01*
X134640666Y-105409666D02*
X134640666Y-104209666D01*
X134640666Y-104209666D02*
X134574000Y-104076333D01*
X134574000Y-104076333D02*
X134440666Y-104009666D01*
X134440666Y-104009666D02*
X134307333Y-104009666D01*
X133840666Y-105409666D02*
X133840666Y-104476333D01*
X133840666Y-104009666D02*
X133907333Y-104076333D01*
X133907333Y-104076333D02*
X133840666Y-104143000D01*
X133840666Y-104143000D02*
X133774000Y-104076333D01*
X133774000Y-104076333D02*
X133840666Y-104009666D01*
X133840666Y-104009666D02*
X133840666Y-104143000D01*
X132973999Y-105409666D02*
X133107333Y-105343000D01*
X133107333Y-105343000D02*
X133173999Y-105209666D01*
X133173999Y-105209666D02*
X133173999Y-104009666D01*
X132440666Y-105409666D02*
X132440666Y-104476333D01*
X132440666Y-104609666D02*
X132374000Y-104543000D01*
X132374000Y-104543000D02*
X132240666Y-104476333D01*
X132240666Y-104476333D02*
X132040666Y-104476333D01*
X132040666Y-104476333D02*
X131907333Y-104543000D01*
X131907333Y-104543000D02*
X131840666Y-104676333D01*
X131840666Y-104676333D02*
X131840666Y-105409666D01*
X131840666Y-104676333D02*
X131774000Y-104543000D01*
X131774000Y-104543000D02*
X131640666Y-104476333D01*
X131640666Y-104476333D02*
X131440666Y-104476333D01*
X131440666Y-104476333D02*
X131307333Y-104543000D01*
X131307333Y-104543000D02*
X131240666Y-104676333D01*
X131240666Y-104676333D02*
X131240666Y-105409666D01*
X130573999Y-105409666D02*
X130573999Y-104009666D01*
X130440666Y-104876333D02*
X130040666Y-105409666D01*
X130040666Y-104476333D02*
X130573999Y-105009666D01*
X129240666Y-105409666D02*
X129374000Y-105343000D01*
X129374000Y-105343000D02*
X129440666Y-105276333D01*
X129440666Y-105276333D02*
X129507333Y-105143000D01*
X129507333Y-105143000D02*
X129507333Y-104743000D01*
X129507333Y-104743000D02*
X129440666Y-104609666D01*
X129440666Y-104609666D02*
X129374000Y-104543000D01*
X129374000Y-104543000D02*
X129240666Y-104476333D01*
X129240666Y-104476333D02*
X129040666Y-104476333D01*
X129040666Y-104476333D02*
X128907333Y-104543000D01*
X128907333Y-104543000D02*
X128840666Y-104609666D01*
X128840666Y-104609666D02*
X128774000Y-104743000D01*
X128774000Y-104743000D02*
X128774000Y-105143000D01*
X128774000Y-105143000D02*
X128840666Y-105276333D01*
X128840666Y-105276333D02*
X128907333Y-105343000D01*
X128907333Y-105343000D02*
X129040666Y-105409666D01*
X129040666Y-105409666D02*
X129240666Y-105409666D01*
X128173999Y-105409666D02*
X128173999Y-104476333D01*
X128173999Y-104743000D02*
X128107333Y-104609666D01*
X128107333Y-104609666D02*
X128040666Y-104543000D01*
X128040666Y-104543000D02*
X127907333Y-104476333D01*
X127907333Y-104476333D02*
X127773999Y-104476333D01*
X127307332Y-104476333D02*
X127307332Y-105409666D01*
X127307332Y-104609666D02*
X127240666Y-104543000D01*
X127240666Y-104543000D02*
X127107332Y-104476333D01*
X127107332Y-104476333D02*
X126907332Y-104476333D01*
X126907332Y-104476333D02*
X126773999Y-104543000D01*
X126773999Y-104543000D02*
X126707332Y-104676333D01*
X126707332Y-104676333D02*
X126707332Y-105409666D01*
X126040665Y-105276333D02*
X125973999Y-105343000D01*
X125973999Y-105343000D02*
X126040665Y-105409666D01*
X126040665Y-105409666D02*
X126107332Y-105343000D01*
X126107332Y-105343000D02*
X126040665Y-105276333D01*
X126040665Y-105276333D02*
X126040665Y-105409666D01*
X125173998Y-105409666D02*
X125307332Y-105343000D01*
X125307332Y-105343000D02*
X125373998Y-105276333D01*
X125373998Y-105276333D02*
X125440665Y-105143000D01*
X125440665Y-105143000D02*
X125440665Y-104743000D01*
X125440665Y-104743000D02*
X125373998Y-104609666D01*
X125373998Y-104609666D02*
X125307332Y-104543000D01*
X125307332Y-104543000D02*
X125173998Y-104476333D01*
X125173998Y-104476333D02*
X124973998Y-104476333D01*
X124973998Y-104476333D02*
X124840665Y-104543000D01*
X124840665Y-104543000D02*
X124773998Y-104609666D01*
X124773998Y-104609666D02*
X124707332Y-104743000D01*
X124707332Y-104743000D02*
X124707332Y-105143000D01*
X124707332Y-105143000D02*
X124773998Y-105276333D01*
X124773998Y-105276333D02*
X124840665Y-105343000D01*
X124840665Y-105343000D02*
X124973998Y-105409666D01*
X124973998Y-105409666D02*
X125173998Y-105409666D01*
X124107331Y-105409666D02*
X124107331Y-104476333D01*
X124107331Y-104743000D02*
X124040665Y-104609666D01*
X124040665Y-104609666D02*
X123973998Y-104543000D01*
X123973998Y-104543000D02*
X123840665Y-104476333D01*
X123840665Y-104476333D02*
X123707331Y-104476333D01*
X122640664Y-104476333D02*
X122640664Y-105609666D01*
X122640664Y-105609666D02*
X122707331Y-105743000D01*
X122707331Y-105743000D02*
X122773998Y-105809666D01*
X122773998Y-105809666D02*
X122907331Y-105876333D01*
X122907331Y-105876333D02*
X123107331Y-105876333D01*
X123107331Y-105876333D02*
X123240664Y-105809666D01*
X122640664Y-105343000D02*
X122773998Y-105409666D01*
X122773998Y-105409666D02*
X123040664Y-105409666D01*
X123040664Y-105409666D02*
X123173998Y-105343000D01*
X123173998Y-105343000D02*
X123240664Y-105276333D01*
X123240664Y-105276333D02*
X123307331Y-105143000D01*
X123307331Y-105143000D02*
X123307331Y-104743000D01*
X123307331Y-104743000D02*
X123240664Y-104609666D01*
X123240664Y-104609666D02*
X123173998Y-104543000D01*
X123173998Y-104543000D02*
X123040664Y-104476333D01*
X123040664Y-104476333D02*
X122773998Y-104476333D01*
X122773998Y-104476333D02*
X122640664Y-104543000D01*
D12*
X106616571Y-104119900D02*
X107759429Y-104119900D01*
X107188000Y-104691328D02*
X107188000Y-103548471D01*
X106131999Y-100397328D02*
X106417713Y-100397328D01*
X106417713Y-100397328D02*
X106560570Y-100468757D01*
X106560570Y-100468757D02*
X106631999Y-100540185D01*
X106631999Y-100540185D02*
X106774856Y-100754471D01*
X106774856Y-100754471D02*
X106846284Y-101040185D01*
X106846284Y-101040185D02*
X106846284Y-101611614D01*
X106846284Y-101611614D02*
X106774856Y-101754471D01*
X106774856Y-101754471D02*
X106703427Y-101825900D01*
X106703427Y-101825900D02*
X106560570Y-101897328D01*
X106560570Y-101897328D02*
X106274856Y-101897328D01*
X106274856Y-101897328D02*
X106131999Y-101825900D01*
X106131999Y-101825900D02*
X106060570Y-101754471D01*
X106060570Y-101754471D02*
X105989141Y-101611614D01*
X105989141Y-101611614D02*
X105989141Y-101254471D01*
X105989141Y-101254471D02*
X106060570Y-101111614D01*
X106060570Y-101111614D02*
X106131999Y-101040185D01*
X106131999Y-101040185D02*
X106274856Y-100968757D01*
X106274856Y-100968757D02*
X106560570Y-100968757D01*
X106560570Y-100968757D02*
X106703427Y-101040185D01*
X106703427Y-101040185D02*
X106774856Y-101111614D01*
X106774856Y-101111614D02*
X106846284Y-101254471D01*
X105346285Y-101754471D02*
X105274856Y-101825900D01*
X105274856Y-101825900D02*
X105346285Y-101897328D01*
X105346285Y-101897328D02*
X105417713Y-101825900D01*
X105417713Y-101825900D02*
X105346285Y-101754471D01*
X105346285Y-101754471D02*
X105346285Y-101897328D01*
X104631999Y-101754471D02*
X104560570Y-101825900D01*
X104560570Y-101825900D02*
X104631999Y-101897328D01*
X104631999Y-101897328D02*
X104703427Y-101825900D01*
X104703427Y-101825900D02*
X104631999Y-101754471D01*
X104631999Y-101754471D02*
X104631999Y-101897328D01*
X103131998Y-101897328D02*
X103989141Y-101897328D01*
X103560570Y-101897328D02*
X103560570Y-100397328D01*
X103560570Y-100397328D02*
X103703427Y-100611614D01*
X103703427Y-100611614D02*
X103846284Y-100754471D01*
X103846284Y-100754471D02*
X103989141Y-100825900D01*
X102560570Y-100540185D02*
X102489142Y-100468757D01*
X102489142Y-100468757D02*
X102346285Y-100397328D01*
X102346285Y-100397328D02*
X101989142Y-100397328D01*
X101989142Y-100397328D02*
X101846285Y-100468757D01*
X101846285Y-100468757D02*
X101774856Y-100540185D01*
X101774856Y-100540185D02*
X101703427Y-100683042D01*
X101703427Y-100683042D02*
X101703427Y-100825900D01*
X101703427Y-100825900D02*
X101774856Y-101040185D01*
X101774856Y-101040185D02*
X102631999Y-101897328D01*
X102631999Y-101897328D02*
X101703427Y-101897328D01*
X101274856Y-100397328D02*
X100774856Y-101897328D01*
X100774856Y-101897328D02*
X100274856Y-100397328D01*
X68989100Y-79492856D02*
X68917671Y-79278571D01*
X68917671Y-79278571D02*
X68917671Y-78921428D01*
X68917671Y-78921428D02*
X68989100Y-78778571D01*
X68989100Y-78778571D02*
X69060528Y-78707142D01*
X69060528Y-78707142D02*
X69203385Y-78635713D01*
X69203385Y-78635713D02*
X69346242Y-78635713D01*
X69346242Y-78635713D02*
X69489100Y-78707142D01*
X69489100Y-78707142D02*
X69560528Y-78778571D01*
X69560528Y-78778571D02*
X69631957Y-78921428D01*
X69631957Y-78921428D02*
X69703385Y-79207142D01*
X69703385Y-79207142D02*
X69774814Y-79349999D01*
X69774814Y-79349999D02*
X69846242Y-79421428D01*
X69846242Y-79421428D02*
X69989100Y-79492856D01*
X69989100Y-79492856D02*
X70131957Y-79492856D01*
X70131957Y-79492856D02*
X70274814Y-79421428D01*
X70274814Y-79421428D02*
X70346242Y-79349999D01*
X70346242Y-79349999D02*
X70417671Y-79207142D01*
X70417671Y-79207142D02*
X70417671Y-78849999D01*
X70417671Y-78849999D02*
X70346242Y-78635713D01*
X69917671Y-78135714D02*
X68917671Y-77778571D01*
X69917671Y-77421428D02*
X68917671Y-77778571D01*
X68917671Y-77778571D02*
X68560528Y-77921428D01*
X68560528Y-77921428D02*
X68489100Y-77992857D01*
X68489100Y-77992857D02*
X68417671Y-78135714D01*
X69917671Y-76850000D02*
X68917671Y-76850000D01*
X69774814Y-76850000D02*
X69846242Y-76778571D01*
X69846242Y-76778571D02*
X69917671Y-76635714D01*
X69917671Y-76635714D02*
X69917671Y-76421428D01*
X69917671Y-76421428D02*
X69846242Y-76278571D01*
X69846242Y-76278571D02*
X69703385Y-76207143D01*
X69703385Y-76207143D02*
X68917671Y-76207143D01*
X68917671Y-75492857D02*
X70417671Y-75492857D01*
X69489100Y-75350000D02*
X68917671Y-74921428D01*
X69917671Y-74921428D02*
X69346242Y-75492857D01*
X68917671Y-74278571D02*
X69917671Y-74278571D01*
X70417671Y-74278571D02*
X70346242Y-74349999D01*
X70346242Y-74349999D02*
X70274814Y-74278571D01*
X70274814Y-74278571D02*
X70346242Y-74207142D01*
X70346242Y-74207142D02*
X70417671Y-74278571D01*
X70417671Y-74278571D02*
X70274814Y-74278571D01*
X69917671Y-73564285D02*
X68917671Y-73564285D01*
X69774814Y-73564285D02*
X69846242Y-73492856D01*
X69846242Y-73492856D02*
X69917671Y-73349999D01*
X69917671Y-73349999D02*
X69917671Y-73135713D01*
X69917671Y-73135713D02*
X69846242Y-72992856D01*
X69846242Y-72992856D02*
X69703385Y-72921428D01*
X69703385Y-72921428D02*
X68917671Y-72921428D01*
X68917671Y-71992856D02*
X68989100Y-72135713D01*
X68989100Y-72135713D02*
X69060528Y-72207142D01*
X69060528Y-72207142D02*
X69203385Y-72278570D01*
X69203385Y-72278570D02*
X69631957Y-72278570D01*
X69631957Y-72278570D02*
X69774814Y-72207142D01*
X69774814Y-72207142D02*
X69846242Y-72135713D01*
X69846242Y-72135713D02*
X69917671Y-71992856D01*
X69917671Y-71992856D02*
X69917671Y-71778570D01*
X69917671Y-71778570D02*
X69846242Y-71635713D01*
X69846242Y-71635713D02*
X69774814Y-71564285D01*
X69774814Y-71564285D02*
X69631957Y-71492856D01*
X69631957Y-71492856D02*
X69203385Y-71492856D01*
X69203385Y-71492856D02*
X69060528Y-71564285D01*
X69060528Y-71564285D02*
X68989100Y-71635713D01*
X68989100Y-71635713D02*
X68917671Y-71778570D01*
X68917671Y-71778570D02*
X68917671Y-71992856D01*
X69631957Y-69278570D02*
X69346242Y-69278570D01*
X69346242Y-69207142D02*
X69631957Y-69207142D01*
X69703385Y-69135713D02*
X69274814Y-69135713D01*
X69346242Y-69064285D02*
X69631957Y-69064285D01*
X69631957Y-68992856D02*
X69346242Y-68992856D01*
X69417671Y-69278570D02*
X69274814Y-69135713D01*
X69274814Y-69135713D02*
X69417671Y-68992856D01*
X69560528Y-69278570D02*
X69703385Y-69135713D01*
X69703385Y-69135713D02*
X69560528Y-68992856D01*
X69631957Y-69278570D02*
X69703385Y-69135713D01*
X69703385Y-69135713D02*
X69631957Y-68992856D01*
X69631957Y-68992856D02*
X69489100Y-68921427D01*
X69489100Y-68921427D02*
X69346242Y-68992856D01*
X69346242Y-68992856D02*
X69274814Y-69135713D01*
X69274814Y-69135713D02*
X69346242Y-69278570D01*
X69346242Y-69278570D02*
X69489100Y-69349999D01*
X69489100Y-69349999D02*
X69631957Y-69278570D01*
X68917671Y-65849999D02*
X69631957Y-66349999D01*
X68917671Y-66707142D02*
X70417671Y-66707142D01*
X70417671Y-66707142D02*
X70417671Y-66135713D01*
X70417671Y-66135713D02*
X70346242Y-65992856D01*
X70346242Y-65992856D02*
X70274814Y-65921427D01*
X70274814Y-65921427D02*
X70131957Y-65849999D01*
X70131957Y-65849999D02*
X69917671Y-65849999D01*
X69917671Y-65849999D02*
X69774814Y-65921427D01*
X69774814Y-65921427D02*
X69703385Y-65992856D01*
X69703385Y-65992856D02*
X69631957Y-66135713D01*
X69631957Y-66135713D02*
X69631957Y-66707142D01*
X68989100Y-64635713D02*
X68917671Y-64778570D01*
X68917671Y-64778570D02*
X68917671Y-65064285D01*
X68917671Y-65064285D02*
X68989100Y-65207142D01*
X68989100Y-65207142D02*
X69131957Y-65278570D01*
X69131957Y-65278570D02*
X69703385Y-65278570D01*
X69703385Y-65278570D02*
X69846242Y-65207142D01*
X69846242Y-65207142D02*
X69917671Y-65064285D01*
X69917671Y-65064285D02*
X69917671Y-64778570D01*
X69917671Y-64778570D02*
X69846242Y-64635713D01*
X69846242Y-64635713D02*
X69703385Y-64564285D01*
X69703385Y-64564285D02*
X69560528Y-64564285D01*
X69560528Y-64564285D02*
X69417671Y-65278570D01*
X69917671Y-64064285D02*
X68917671Y-63707142D01*
X68917671Y-63707142D02*
X69917671Y-63349999D01*
X69060528Y-62778571D02*
X68989100Y-62707142D01*
X68989100Y-62707142D02*
X68917671Y-62778571D01*
X68917671Y-62778571D02*
X68989100Y-62849999D01*
X68989100Y-62849999D02*
X69060528Y-62778571D01*
X69060528Y-62778571D02*
X68917671Y-62778571D01*
X69703385Y-60921428D02*
X69703385Y-60421428D01*
X68917671Y-60207142D02*
X68917671Y-60921428D01*
X68917671Y-60921428D02*
X70417671Y-60921428D01*
X70417671Y-60921428D02*
X70417671Y-60207142D01*
D10*
X110389200Y-76660524D02*
X110436819Y-76803381D01*
X110436819Y-76803381D02*
X110436819Y-77041476D01*
X110436819Y-77041476D02*
X110389200Y-77136714D01*
X110389200Y-77136714D02*
X110341580Y-77184333D01*
X110341580Y-77184333D02*
X110246342Y-77231952D01*
X110246342Y-77231952D02*
X110151104Y-77231952D01*
X110151104Y-77231952D02*
X110055866Y-77184333D01*
X110055866Y-77184333D02*
X110008247Y-77136714D01*
X110008247Y-77136714D02*
X109960628Y-77041476D01*
X109960628Y-77041476D02*
X109913009Y-76851000D01*
X109913009Y-76851000D02*
X109865390Y-76755762D01*
X109865390Y-76755762D02*
X109817771Y-76708143D01*
X109817771Y-76708143D02*
X109722533Y-76660524D01*
X109722533Y-76660524D02*
X109627295Y-76660524D01*
X109627295Y-76660524D02*
X109532057Y-76708143D01*
X109532057Y-76708143D02*
X109484438Y-76755762D01*
X109484438Y-76755762D02*
X109436819Y-76851000D01*
X109436819Y-76851000D02*
X109436819Y-77089095D01*
X109436819Y-77089095D02*
X109484438Y-77231952D01*
X110341580Y-78231952D02*
X110389200Y-78184333D01*
X110389200Y-78184333D02*
X110436819Y-78041476D01*
X110436819Y-78041476D02*
X110436819Y-77946238D01*
X110436819Y-77946238D02*
X110389200Y-77803381D01*
X110389200Y-77803381D02*
X110293961Y-77708143D01*
X110293961Y-77708143D02*
X110198723Y-77660524D01*
X110198723Y-77660524D02*
X110008247Y-77612905D01*
X110008247Y-77612905D02*
X109865390Y-77612905D01*
X109865390Y-77612905D02*
X109674914Y-77660524D01*
X109674914Y-77660524D02*
X109579676Y-77708143D01*
X109579676Y-77708143D02*
X109484438Y-77803381D01*
X109484438Y-77803381D02*
X109436819Y-77946238D01*
X109436819Y-77946238D02*
X109436819Y-78041476D01*
X109436819Y-78041476D02*
X109484438Y-78184333D01*
X109484438Y-78184333D02*
X109532057Y-78231952D01*
X110436819Y-79136714D02*
X110436819Y-78660524D01*
X110436819Y-78660524D02*
X109436819Y-78660524D01*
X158681009Y-74938190D02*
X158681009Y-74604857D01*
X159204819Y-74604857D02*
X158204819Y-74604857D01*
X158204819Y-74604857D02*
X158204819Y-75081047D01*
X158204819Y-75319143D02*
X158204819Y-75890571D01*
X159204819Y-75604857D02*
X158204819Y-75604857D01*
X159204819Y-76223905D02*
X158204819Y-76223905D01*
X158204819Y-76223905D02*
X158204819Y-76462000D01*
X158204819Y-76462000D02*
X158252438Y-76604857D01*
X158252438Y-76604857D02*
X158347676Y-76700095D01*
X158347676Y-76700095D02*
X158442914Y-76747714D01*
X158442914Y-76747714D02*
X158633390Y-76795333D01*
X158633390Y-76795333D02*
X158776247Y-76795333D01*
X158776247Y-76795333D02*
X158966723Y-76747714D01*
X158966723Y-76747714D02*
X159061961Y-76700095D01*
X159061961Y-76700095D02*
X159157200Y-76604857D01*
X159157200Y-76604857D02*
X159204819Y-76462000D01*
X159204819Y-76462000D02*
X159204819Y-76223905D01*
X159204819Y-77223905D02*
X158204819Y-77223905D01*
X158823866Y-77700095D02*
X158823866Y-78462000D01*
X158919104Y-78890571D02*
X158919104Y-79366761D01*
X159204819Y-78795333D02*
X158204819Y-79128666D01*
X158204819Y-79128666D02*
X159204819Y-79461999D01*
X67886990Y-93281237D02*
X67886990Y-93614570D01*
X67363180Y-93614570D02*
X68363180Y-93614570D01*
X68363180Y-93614570D02*
X68363180Y-93138380D01*
X68363180Y-92900284D02*
X68363180Y-92328856D01*
X67363180Y-92614570D02*
X68363180Y-92614570D01*
X67363180Y-91995522D02*
X68363180Y-91995522D01*
X68363180Y-91995522D02*
X68363180Y-91757427D01*
X68363180Y-91757427D02*
X68315561Y-91614570D01*
X68315561Y-91614570D02*
X68220323Y-91519332D01*
X68220323Y-91519332D02*
X68125085Y-91471713D01*
X68125085Y-91471713D02*
X67934609Y-91424094D01*
X67934609Y-91424094D02*
X67791752Y-91424094D01*
X67791752Y-91424094D02*
X67601276Y-91471713D01*
X67601276Y-91471713D02*
X67506038Y-91519332D01*
X67506038Y-91519332D02*
X67410800Y-91614570D01*
X67410800Y-91614570D02*
X67363180Y-91757427D01*
X67363180Y-91757427D02*
X67363180Y-91995522D01*
X67363180Y-90995522D02*
X68363180Y-90995522D01*
X67744133Y-90519332D02*
X67744133Y-89757428D01*
X67458419Y-88709809D02*
X67410800Y-88757428D01*
X67410800Y-88757428D02*
X67363180Y-88900285D01*
X67363180Y-88900285D02*
X67363180Y-88995523D01*
X67363180Y-88995523D02*
X67410800Y-89138380D01*
X67410800Y-89138380D02*
X67506038Y-89233618D01*
X67506038Y-89233618D02*
X67601276Y-89281237D01*
X67601276Y-89281237D02*
X67791752Y-89328856D01*
X67791752Y-89328856D02*
X67934609Y-89328856D01*
X67934609Y-89328856D02*
X68125085Y-89281237D01*
X68125085Y-89281237D02*
X68220323Y-89233618D01*
X68220323Y-89233618D02*
X68315561Y-89138380D01*
X68315561Y-89138380D02*
X68363180Y-88995523D01*
X68363180Y-88995523D02*
X68363180Y-88900285D01*
X68363180Y-88900285D02*
X68315561Y-88757428D01*
X68315561Y-88757428D02*
X68267942Y-88709809D01*
X140080951Y-111706866D02*
X139319047Y-111706866D01*
X139699999Y-112087819D02*
X139699999Y-111325914D01*
X135000951Y-111706866D02*
X134239047Y-111706866D01*
X137540951Y-111756914D02*
X137159999Y-111471200D01*
X137159999Y-111471200D02*
X136779047Y-111756914D01*
X144652951Y-111706866D02*
X143891047Y-111706866D01*
X147192951Y-111756914D02*
X146811999Y-111471200D01*
X146811999Y-111471200D02*
X146431047Y-111756914D01*
X149732951Y-111706866D02*
X148971047Y-111706866D01*
X149351999Y-112087819D02*
X149351999Y-111325914D01*
X125348951Y-111706866D02*
X124587047Y-111706866D01*
X127888951Y-111756914D02*
X127507999Y-111471200D01*
X127507999Y-111471200D02*
X127127047Y-111756914D01*
X130428951Y-111706866D02*
X129667047Y-111706866D01*
X130047999Y-112087819D02*
X130047999Y-111325914D01*
X115696951Y-111706866D02*
X114935047Y-111706866D01*
X118236951Y-111756914D02*
X117855999Y-111471200D01*
X117855999Y-111471200D02*
X117475047Y-111756914D01*
X120776951Y-111706866D02*
X120015047Y-111706866D01*
X120395999Y-112087819D02*
X120395999Y-111325914D01*
X106044951Y-111706866D02*
X105283047Y-111706866D01*
X108584951Y-111756914D02*
X108203999Y-111471200D01*
X108203999Y-111471200D02*
X107823047Y-111756914D01*
X111124951Y-111706866D02*
X110363047Y-111706866D01*
X110743999Y-112087819D02*
X110743999Y-111325914D01*
X96392951Y-111706866D02*
X95631047Y-111706866D01*
X98932951Y-111756914D02*
X98551999Y-111471200D01*
X98551999Y-111471200D02*
X98171047Y-111756914D01*
X101472951Y-111706866D02*
X100711047Y-111706866D01*
X101091999Y-112087819D02*
X101091999Y-111325914D01*
X86740951Y-111706866D02*
X85979047Y-111706866D01*
X89280951Y-111756914D02*
X88899999Y-111471200D01*
X88899999Y-111471200D02*
X88519047Y-111756914D01*
X91820951Y-111706866D02*
X91059047Y-111706866D01*
X91439999Y-112087819D02*
X91439999Y-111325914D01*
X77088951Y-111706866D02*
X76327047Y-111706866D01*
X79628951Y-111756914D02*
X79247999Y-111471200D01*
X79247999Y-111471200D02*
X78867047Y-111756914D01*
X82168951Y-111706866D02*
X81407047Y-111706866D01*
X81787999Y-112087819D02*
X81787999Y-111325914D01*
X83819951Y-40586866D02*
X83058047Y-40586866D01*
X81478380Y-45793819D02*
X81478380Y-44793819D01*
X81002190Y-45127152D02*
X81002190Y-45793819D01*
X81002190Y-45222390D02*
X80954571Y-45174771D01*
X80954571Y-45174771D02*
X80859333Y-45127152D01*
X80859333Y-45127152D02*
X80716476Y-45127152D01*
X80716476Y-45127152D02*
X80621238Y-45174771D01*
X80621238Y-45174771D02*
X80573619Y-45270009D01*
X80573619Y-45270009D02*
X80573619Y-45793819D01*
X81406951Y-49095866D02*
X80645047Y-49095866D01*
X81025999Y-49476819D02*
X81025999Y-48714914D01*
X91892380Y-45793819D02*
X91892380Y-44793819D01*
X91416190Y-45127152D02*
X91416190Y-45793819D01*
X91416190Y-45222390D02*
X91368571Y-45174771D01*
X91368571Y-45174771D02*
X91273333Y-45127152D01*
X91273333Y-45127152D02*
X91130476Y-45127152D01*
X91130476Y-45127152D02*
X91035238Y-45174771D01*
X91035238Y-45174771D02*
X90987619Y-45270009D01*
X90987619Y-45270009D02*
X90987619Y-45793819D01*
X91947951Y-49095866D02*
X91186047Y-49095866D01*
X91566999Y-49476819D02*
X91566999Y-48714914D01*
X89407951Y-40586866D02*
X88646047Y-40586866D01*
D13*
X77366600Y-39727618D02*
X77414219Y-39870475D01*
X77414219Y-39870475D02*
X77414219Y-40108570D01*
X77414219Y-40108570D02*
X77366600Y-40203808D01*
X77366600Y-40203808D02*
X77318980Y-40251427D01*
X77318980Y-40251427D02*
X77223742Y-40299046D01*
X77223742Y-40299046D02*
X77128504Y-40299046D01*
X77128504Y-40299046D02*
X77033266Y-40251427D01*
X77033266Y-40251427D02*
X76985647Y-40203808D01*
X76985647Y-40203808D02*
X76938028Y-40108570D01*
X76938028Y-40108570D02*
X76890409Y-39918094D01*
X76890409Y-39918094D02*
X76842790Y-39822856D01*
X76842790Y-39822856D02*
X76795171Y-39775237D01*
X76795171Y-39775237D02*
X76699933Y-39727618D01*
X76699933Y-39727618D02*
X76604695Y-39727618D01*
X76604695Y-39727618D02*
X76509457Y-39775237D01*
X76509457Y-39775237D02*
X76461838Y-39822856D01*
X76461838Y-39822856D02*
X76414219Y-39918094D01*
X76414219Y-39918094D02*
X76414219Y-40156189D01*
X76414219Y-40156189D02*
X76461838Y-40299046D01*
X76747552Y-40584761D02*
X76747552Y-40965713D01*
X76414219Y-40727618D02*
X77271361Y-40727618D01*
X77271361Y-40727618D02*
X77366600Y-40775237D01*
X77366600Y-40775237D02*
X77414219Y-40870475D01*
X77414219Y-40870475D02*
X77414219Y-40965713D01*
X77414219Y-41727618D02*
X76890409Y-41727618D01*
X76890409Y-41727618D02*
X76795171Y-41679999D01*
X76795171Y-41679999D02*
X76747552Y-41584761D01*
X76747552Y-41584761D02*
X76747552Y-41394285D01*
X76747552Y-41394285D02*
X76795171Y-41299047D01*
X77366600Y-41727618D02*
X77414219Y-41632380D01*
X77414219Y-41632380D02*
X77414219Y-41394285D01*
X77414219Y-41394285D02*
X77366600Y-41299047D01*
X77366600Y-41299047D02*
X77271361Y-41251428D01*
X77271361Y-41251428D02*
X77176123Y-41251428D01*
X77176123Y-41251428D02*
X77080885Y-41299047D01*
X77080885Y-41299047D02*
X77033266Y-41394285D01*
X77033266Y-41394285D02*
X77033266Y-41632380D01*
X77033266Y-41632380D02*
X76985647Y-41727618D01*
X77414219Y-42203809D02*
X76747552Y-42203809D01*
X76938028Y-42203809D02*
X76842790Y-42251428D01*
X76842790Y-42251428D02*
X76795171Y-42299047D01*
X76795171Y-42299047D02*
X76747552Y-42394285D01*
X76747552Y-42394285D02*
X76747552Y-42489523D01*
X76747552Y-42680000D02*
X76747552Y-43060952D01*
X76414219Y-42822857D02*
X77271361Y-42822857D01*
X77271361Y-42822857D02*
X77366600Y-42870476D01*
X77366600Y-42870476D02*
X77414219Y-42965714D01*
X77414219Y-42965714D02*
X77414219Y-43060952D01*
X77414219Y-43394286D02*
X76747552Y-43394286D01*
X76842790Y-43394286D02*
X76795171Y-43441905D01*
X76795171Y-43441905D02*
X76747552Y-43537143D01*
X76747552Y-43537143D02*
X76747552Y-43680000D01*
X76747552Y-43680000D02*
X76795171Y-43775238D01*
X76795171Y-43775238D02*
X76890409Y-43822857D01*
X76890409Y-43822857D02*
X77414219Y-43822857D01*
X76890409Y-43822857D02*
X76795171Y-43870476D01*
X76795171Y-43870476D02*
X76747552Y-43965714D01*
X76747552Y-43965714D02*
X76747552Y-44108571D01*
X76747552Y-44108571D02*
X76795171Y-44203810D01*
X76795171Y-44203810D02*
X76890409Y-44251429D01*
X76890409Y-44251429D02*
X77414219Y-44251429D01*
X77414219Y-45156190D02*
X76890409Y-45156190D01*
X76890409Y-45156190D02*
X76795171Y-45108571D01*
X76795171Y-45108571D02*
X76747552Y-45013333D01*
X76747552Y-45013333D02*
X76747552Y-44822857D01*
X76747552Y-44822857D02*
X76795171Y-44727619D01*
X77366600Y-45156190D02*
X77414219Y-45060952D01*
X77414219Y-45060952D02*
X77414219Y-44822857D01*
X77414219Y-44822857D02*
X77366600Y-44727619D01*
X77366600Y-44727619D02*
X77271361Y-44680000D01*
X77271361Y-44680000D02*
X77176123Y-44680000D01*
X77176123Y-44680000D02*
X77080885Y-44727619D01*
X77080885Y-44727619D02*
X77033266Y-44822857D01*
X77033266Y-44822857D02*
X77033266Y-45060952D01*
X77033266Y-45060952D02*
X76985647Y-45156190D01*
X77414219Y-45632381D02*
X76747552Y-45632381D01*
X76938028Y-45632381D02*
X76842790Y-45680000D01*
X76842790Y-45680000D02*
X76795171Y-45727619D01*
X76795171Y-45727619D02*
X76747552Y-45822857D01*
X76747552Y-45822857D02*
X76747552Y-45918095D01*
X77414219Y-46251429D02*
X76414219Y-46251429D01*
X77033266Y-46346667D02*
X77414219Y-46632381D01*
X76747552Y-46632381D02*
X77128504Y-46251429D01*
X95956219Y-40513333D02*
X94956219Y-40513333D01*
X95956219Y-40989523D02*
X95289552Y-40989523D01*
X95384790Y-40989523D02*
X95337171Y-41037142D01*
X95337171Y-41037142D02*
X95289552Y-41132380D01*
X95289552Y-41132380D02*
X95289552Y-41275237D01*
X95289552Y-41275237D02*
X95337171Y-41370475D01*
X95337171Y-41370475D02*
X95432409Y-41418094D01*
X95432409Y-41418094D02*
X95956219Y-41418094D01*
X95432409Y-41418094D02*
X95337171Y-41465713D01*
X95337171Y-41465713D02*
X95289552Y-41560951D01*
X95289552Y-41560951D02*
X95289552Y-41703808D01*
X95289552Y-41703808D02*
X95337171Y-41799047D01*
X95337171Y-41799047D02*
X95432409Y-41846666D01*
X95432409Y-41846666D02*
X95956219Y-41846666D01*
X95289552Y-42322856D02*
X96289552Y-42322856D01*
X95337171Y-42322856D02*
X95289552Y-42418094D01*
X95289552Y-42418094D02*
X95289552Y-42608570D01*
X95289552Y-42608570D02*
X95337171Y-42703808D01*
X95337171Y-42703808D02*
X95384790Y-42751427D01*
X95384790Y-42751427D02*
X95480028Y-42799046D01*
X95480028Y-42799046D02*
X95765742Y-42799046D01*
X95765742Y-42799046D02*
X95860980Y-42751427D01*
X95860980Y-42751427D02*
X95908600Y-42703808D01*
X95908600Y-42703808D02*
X95956219Y-42608570D01*
X95956219Y-42608570D02*
X95956219Y-42418094D01*
X95956219Y-42418094D02*
X95908600Y-42322856D01*
X95289552Y-43656189D02*
X95956219Y-43656189D01*
X95289552Y-43227618D02*
X95813361Y-43227618D01*
X95813361Y-43227618D02*
X95908600Y-43275237D01*
X95908600Y-43275237D02*
X95956219Y-43370475D01*
X95956219Y-43370475D02*
X95956219Y-43513332D01*
X95956219Y-43513332D02*
X95908600Y-43608570D01*
X95908600Y-43608570D02*
X95860980Y-43656189D01*
X95956219Y-44275237D02*
X95908600Y-44179999D01*
X95908600Y-44179999D02*
X95813361Y-44132380D01*
X95813361Y-44132380D02*
X94956219Y-44132380D01*
X95908600Y-44608571D02*
X95956219Y-44703809D01*
X95956219Y-44703809D02*
X95956219Y-44894285D01*
X95956219Y-44894285D02*
X95908600Y-44989523D01*
X95908600Y-44989523D02*
X95813361Y-45037142D01*
X95813361Y-45037142D02*
X95765742Y-45037142D01*
X95765742Y-45037142D02*
X95670504Y-44989523D01*
X95670504Y-44989523D02*
X95622885Y-44894285D01*
X95622885Y-44894285D02*
X95622885Y-44751428D01*
X95622885Y-44751428D02*
X95575266Y-44656190D01*
X95575266Y-44656190D02*
X95480028Y-44608571D01*
X95480028Y-44608571D02*
X95432409Y-44608571D01*
X95432409Y-44608571D02*
X95337171Y-44656190D01*
X95337171Y-44656190D02*
X95289552Y-44751428D01*
X95289552Y-44751428D02*
X95289552Y-44894285D01*
X95289552Y-44894285D02*
X95337171Y-44989523D01*
X95908600Y-45846666D02*
X95956219Y-45751428D01*
X95956219Y-45751428D02*
X95956219Y-45560952D01*
X95956219Y-45560952D02*
X95908600Y-45465714D01*
X95908600Y-45465714D02*
X95813361Y-45418095D01*
X95813361Y-45418095D02*
X95432409Y-45418095D01*
X95432409Y-45418095D02*
X95337171Y-45465714D01*
X95337171Y-45465714D02*
X95289552Y-45560952D01*
X95289552Y-45560952D02*
X95289552Y-45751428D01*
X95289552Y-45751428D02*
X95337171Y-45846666D01*
X95337171Y-45846666D02*
X95432409Y-45894285D01*
X95432409Y-45894285D02*
X95527647Y-45894285D01*
X95527647Y-45894285D02*
X95622885Y-45418095D01*
X86423476Y-39330219D02*
X86899666Y-39330219D01*
X86899666Y-39330219D02*
X86947285Y-39806409D01*
X86947285Y-39806409D02*
X86899666Y-39758790D01*
X86899666Y-39758790D02*
X86804428Y-39711171D01*
X86804428Y-39711171D02*
X86566333Y-39711171D01*
X86566333Y-39711171D02*
X86471095Y-39758790D01*
X86471095Y-39758790D02*
X86423476Y-39806409D01*
X86423476Y-39806409D02*
X86375857Y-39901647D01*
X86375857Y-39901647D02*
X86375857Y-40139742D01*
X86375857Y-40139742D02*
X86423476Y-40234980D01*
X86423476Y-40234980D02*
X86471095Y-40282600D01*
X86471095Y-40282600D02*
X86566333Y-40330219D01*
X86566333Y-40330219D02*
X86804428Y-40330219D01*
X86804428Y-40330219D02*
X86899666Y-40282600D01*
X86899666Y-40282600D02*
X86947285Y-40234980D01*
X86090142Y-39330219D02*
X85756809Y-40330219D01*
X85756809Y-40330219D02*
X85423476Y-39330219D01*
X87471094Y-43775219D02*
X86852047Y-43775219D01*
X86852047Y-43775219D02*
X87185380Y-44156171D01*
X87185380Y-44156171D02*
X87042523Y-44156171D01*
X87042523Y-44156171D02*
X86947285Y-44203790D01*
X86947285Y-44203790D02*
X86899666Y-44251409D01*
X86899666Y-44251409D02*
X86852047Y-44346647D01*
X86852047Y-44346647D02*
X86852047Y-44584742D01*
X86852047Y-44584742D02*
X86899666Y-44679980D01*
X86899666Y-44679980D02*
X86947285Y-44727600D01*
X86947285Y-44727600D02*
X87042523Y-44775219D01*
X87042523Y-44775219D02*
X87328237Y-44775219D01*
X87328237Y-44775219D02*
X87423475Y-44727600D01*
X87423475Y-44727600D02*
X87471094Y-44679980D01*
X86566332Y-43775219D02*
X86232999Y-44775219D01*
X86232999Y-44775219D02*
X85899666Y-43775219D01*
X85661570Y-43775219D02*
X85042523Y-43775219D01*
X85042523Y-43775219D02*
X85375856Y-44156171D01*
X85375856Y-44156171D02*
X85232999Y-44156171D01*
X85232999Y-44156171D02*
X85137761Y-44203790D01*
X85137761Y-44203790D02*
X85090142Y-44251409D01*
X85090142Y-44251409D02*
X85042523Y-44346647D01*
X85042523Y-44346647D02*
X85042523Y-44584742D01*
X85042523Y-44584742D02*
X85090142Y-44679980D01*
X85090142Y-44679980D02*
X85137761Y-44727600D01*
X85137761Y-44727600D02*
X85232999Y-44775219D01*
X85232999Y-44775219D02*
X85518713Y-44775219D01*
X85518713Y-44775219D02*
X85613951Y-44727600D01*
X85613951Y-44727600D02*
X85661570Y-44679980D01*
D12*
X99377571Y-104119900D02*
X100520429Y-104119900D01*
D10*
X110389200Y-73207714D02*
X110436819Y-73350571D01*
X110436819Y-73350571D02*
X110436819Y-73588666D01*
X110436819Y-73588666D02*
X110389200Y-73683904D01*
X110389200Y-73683904D02*
X110341580Y-73731523D01*
X110341580Y-73731523D02*
X110246342Y-73779142D01*
X110246342Y-73779142D02*
X110151104Y-73779142D01*
X110151104Y-73779142D02*
X110055866Y-73731523D01*
X110055866Y-73731523D02*
X110008247Y-73683904D01*
X110008247Y-73683904D02*
X109960628Y-73588666D01*
X109960628Y-73588666D02*
X109913009Y-73398190D01*
X109913009Y-73398190D02*
X109865390Y-73302952D01*
X109865390Y-73302952D02*
X109817771Y-73255333D01*
X109817771Y-73255333D02*
X109722533Y-73207714D01*
X109722533Y-73207714D02*
X109627295Y-73207714D01*
X109627295Y-73207714D02*
X109532057Y-73255333D01*
X109532057Y-73255333D02*
X109484438Y-73302952D01*
X109484438Y-73302952D02*
X109436819Y-73398190D01*
X109436819Y-73398190D02*
X109436819Y-73636285D01*
X109436819Y-73636285D02*
X109484438Y-73779142D01*
X110436819Y-74207714D02*
X109436819Y-74207714D01*
X109436819Y-74207714D02*
X109436819Y-74445809D01*
X109436819Y-74445809D02*
X109484438Y-74588666D01*
X109484438Y-74588666D02*
X109579676Y-74683904D01*
X109579676Y-74683904D02*
X109674914Y-74731523D01*
X109674914Y-74731523D02*
X109865390Y-74779142D01*
X109865390Y-74779142D02*
X110008247Y-74779142D01*
X110008247Y-74779142D02*
X110198723Y-74731523D01*
X110198723Y-74731523D02*
X110293961Y-74683904D01*
X110293961Y-74683904D02*
X110389200Y-74588666D01*
X110389200Y-74588666D02*
X110436819Y-74445809D01*
X110436819Y-74445809D02*
X110436819Y-74207714D01*
X110151104Y-75160095D02*
X110151104Y-75636285D01*
X110436819Y-75064857D02*
X109436819Y-75398190D01*
X109436819Y-75398190D02*
X110436819Y-75731523D01*
X122438438Y-67310095D02*
X122390819Y-67214857D01*
X122390819Y-67214857D02*
X122390819Y-67072000D01*
X122390819Y-67072000D02*
X122438438Y-66929143D01*
X122438438Y-66929143D02*
X122533676Y-66833905D01*
X122533676Y-66833905D02*
X122628914Y-66786286D01*
X122628914Y-66786286D02*
X122819390Y-66738667D01*
X122819390Y-66738667D02*
X122962247Y-66738667D01*
X122962247Y-66738667D02*
X123152723Y-66786286D01*
X123152723Y-66786286D02*
X123247961Y-66833905D01*
X123247961Y-66833905D02*
X123343200Y-66929143D01*
X123343200Y-66929143D02*
X123390819Y-67072000D01*
X123390819Y-67072000D02*
X123390819Y-67167238D01*
X123390819Y-67167238D02*
X123343200Y-67310095D01*
X123343200Y-67310095D02*
X123295580Y-67357714D01*
X123295580Y-67357714D02*
X122962247Y-67357714D01*
X122962247Y-67357714D02*
X122962247Y-67167238D01*
X123390819Y-67786286D02*
X122390819Y-67786286D01*
X122390819Y-67786286D02*
X123390819Y-68357714D01*
X123390819Y-68357714D02*
X122390819Y-68357714D01*
X123390819Y-68833905D02*
X122390819Y-68833905D01*
X122390819Y-68833905D02*
X122390819Y-69072000D01*
X122390819Y-69072000D02*
X122438438Y-69214857D01*
X122438438Y-69214857D02*
X122533676Y-69310095D01*
X122533676Y-69310095D02*
X122628914Y-69357714D01*
X122628914Y-69357714D02*
X122819390Y-69405333D01*
X122819390Y-69405333D02*
X122962247Y-69405333D01*
X122962247Y-69405333D02*
X123152723Y-69357714D01*
X123152723Y-69357714D02*
X123247961Y-69310095D01*
X123247961Y-69310095D02*
X123343200Y-69214857D01*
X123343200Y-69214857D02*
X123390819Y-69072000D01*
X123390819Y-69072000D02*
X123390819Y-68833905D01*
D14*
X106227000Y-102810000D02*
X106227000Y-105470000D01*
X103627000Y-102810000D02*
X106227000Y-102810000D01*
X103627000Y-102810000D02*
X103627000Y-105470000D01*
X102357000Y-102810000D02*
X101027000Y-102810000D01*
X101027000Y-102810000D02*
X101027000Y-104140000D01*
X103627000Y-105470000D02*
X106227000Y-105470000D01*
X124414000Y-69218000D02*
X125014000Y-69218000D01*
X125714000Y-68518000D02*
X125714000Y-67118000D01*
X123714000Y-67118000D02*
X123714000Y-68518000D01*
X125014000Y-66418000D02*
X124414000Y-66418000D01*
X123714000Y-68518000D02*
G75*
G03*
X124414000Y-69218000I699999J-1D01*
G01*
X125014000Y-69218000D02*
G75*
G03*
X125714000Y-68518000I1J699999D01*
G01*
X124414000Y-66418000D02*
G75*
G03*
X123714000Y-67118000I0J-700000D01*
G01*
X125714000Y-67118000D02*
G75*
G03*
X125014000Y-66418000I-700000J0D01*
G01*
%LPC*%
D15*
X129286000Y-42625000D03*
D16*
X124286000Y-47625000D03*
X134286000Y-47625000D03*
D17*
X133858000Y-98988000D03*
X133858000Y-89988000D03*
D18*
X140108000Y-97028000D03*
X127608000Y-97028000D03*
X140108000Y-91948000D03*
X127608000Y-91948000D03*
X93178000Y-101488000D03*
X88178000Y-101488000D03*
X93178000Y-86988000D03*
X88178000Y-86988000D03*
X90678000Y-86988000D03*
D19*
X96378000Y-94488000D03*
X84978000Y-94488000D03*
D20*
X82804000Y-51054000D03*
X85344000Y-51054000D03*
X87884000Y-51054000D03*
X90424000Y-51054000D03*
X92964000Y-51054000D03*
X95504000Y-51054000D03*
X98044000Y-51054000D03*
D21*
X70358000Y-97790000D03*
D22*
X70358000Y-95250000D03*
X70358000Y-92710000D03*
X70358000Y-90170000D03*
X70358000Y-87630000D03*
X70358000Y-85090000D03*
D21*
X101092000Y-44450000D03*
D22*
X101092000Y-41910000D03*
X103632000Y-44450000D03*
X103632000Y-41910000D03*
X106172000Y-44450000D03*
X106172000Y-41910000D03*
D21*
X156524000Y-69325000D03*
D22*
X156524000Y-71865000D03*
X156524000Y-74405000D03*
X156524000Y-76945000D03*
X156524000Y-79485000D03*
X156524000Y-82025000D03*
D23*
X156524000Y-85983000D03*
X156524000Y-88483000D03*
X156524000Y-90983000D03*
X156524000Y-93483000D03*
X156524000Y-95983000D03*
X156524000Y-98483000D03*
D24*
X70358000Y-49530000D03*
X70358000Y-52070000D03*
X70358000Y-54610000D03*
X70358000Y-57150000D03*
D21*
X110744000Y-93218000D03*
D22*
X110744000Y-90678000D03*
X113284000Y-93218000D03*
X113284000Y-90678000D03*
X115824000Y-93218000D03*
X115824000Y-90678000D03*
D21*
X76708000Y-109728000D03*
D22*
X79248000Y-109728000D03*
X81788000Y-109728000D03*
D21*
X86360000Y-109728000D03*
D22*
X88900000Y-109728000D03*
X91440000Y-109728000D03*
D21*
X96012000Y-109728000D03*
D22*
X98552000Y-109728000D03*
X101092000Y-109728000D03*
D21*
X105664000Y-109728000D03*
D22*
X108204000Y-109728000D03*
X110744000Y-109728000D03*
D21*
X115316000Y-109728000D03*
D22*
X117856000Y-109728000D03*
X120396000Y-109728000D03*
D21*
X124968000Y-109728000D03*
D22*
X127508000Y-109728000D03*
X130048000Y-109728000D03*
D21*
X134620000Y-109728000D03*
D22*
X137160000Y-109728000D03*
X139700000Y-109728000D03*
D21*
X144272000Y-109728000D03*
D22*
X146812000Y-109728000D03*
X149352000Y-109728000D03*
D15*
X91440000Y-40526000D03*
D25*
X93290000Y-45426000D03*
X89590000Y-45426000D03*
D26*
X91440000Y-47426000D03*
D15*
X81026000Y-40526000D03*
D25*
X82876000Y-45426000D03*
X79176000Y-45426000D03*
D26*
X81026000Y-47426000D03*
D23*
X70358000Y-46990000D03*
X111760000Y-77470000D03*
X111760000Y-74930000D03*
X153924000Y-98552000D03*
X86106000Y-41656000D03*
X86233000Y-46101000D03*
D27*
X146812000Y-117856000D03*
X137160000Y-117856000D03*
X108204000Y-117856000D03*
D28*
X156210000Y-103632000D03*
D27*
X127508000Y-117856000D03*
D28*
X156210000Y-41910000D03*
X105791000Y-81010000D03*
X75311000Y-81073500D03*
X110998000Y-103632000D03*
D27*
X98552000Y-117856000D03*
D28*
X70485000Y-103632000D03*
D27*
X117856000Y-117856000D03*
X88900000Y-117856000D03*
D28*
X70485000Y-41910000D03*
D27*
X79248000Y-117856000D03*
D21*
X102357000Y-104140000D03*
D22*
X104897000Y-104140000D03*
D29*
X124714000Y-68468000D03*
D30*
X124714000Y-67168000D03*
%LPD*%
M02*
