%TF.GenerationSoftware,KiCad,Pcbnew,4.0.7*%
%TF.CreationDate,2018-03-17T18:56:23+01:00*%
%TF.ProjectId,Synkino,53796E6B696E6F2E6B696361645F7063,rev?*%
%TF.FileFunction,Copper,L2,Bot,Signal*%
%FSLAX46Y46*%
G04 Gerber Fmt 4.6, Leading zero omitted, Abs format (unit mm)*
G04 Created by KiCad (PCBNEW 4.0.7) date 2018 March 17, Saturday 18:56:23*
%MOMM*%
%LPD*%
G01*
G04 APERTURE LIST*
%ADD10C,0.100000*%
%ADD11C,1.500000*%
%ADD12C,3.800000*%
%ADD13C,2.000000*%
%ADD14O,1.700000X3.000000*%
%ADD15O,3.000000X2.000000*%
%ADD16R,2.700000X3.700000*%
%ADD17R,1.700000X1.700000*%
%ADD18O,1.700000X1.700000*%
%ADD19C,1.524000*%
%ADD20O,1.500000X2.500000*%
%ADD21O,2.500000X1.700000*%
%ADD22R,1.500000X1.500000*%
%ADD23O,3.048000X1.727200*%
%ADD24C,0.600000*%
%ADD25C,0.250000*%
%ADD26C,0.254000*%
G04 APERTURE END LIST*
D10*
D11*
X154178000Y-98552000D03*
X125222000Y-104902000D03*
X141986000Y-101600000D03*
D12*
X149606000Y-117856000D03*
X139954000Y-117856000D03*
X130302000Y-117856000D03*
X120650000Y-117856000D03*
X110998000Y-117856000D03*
X101346000Y-117856000D03*
X91694000Y-117856000D03*
D13*
X151638000Y-96266000D03*
X151638000Y-100766000D03*
X145138000Y-96266000D03*
X145138000Y-100766000D03*
D14*
X131786000Y-47625000D03*
X134286000Y-47625000D03*
X126786000Y-47625000D03*
X124286000Y-47625000D03*
D15*
X129286000Y-42625000D03*
D13*
X93178000Y-101488000D03*
X93178000Y-86988000D03*
X90678000Y-86988000D03*
X88178000Y-86988000D03*
D16*
X96378000Y-94488000D03*
X84978000Y-94488000D03*
D13*
X88178000Y-101488000D03*
D17*
X75184000Y-85090000D03*
D18*
X75184000Y-87630000D03*
X75184000Y-90170000D03*
X75184000Y-92710000D03*
X75184000Y-95250000D03*
X75184000Y-97790000D03*
D17*
X101092000Y-44450000D03*
D18*
X101092000Y-41910000D03*
X103632000Y-44450000D03*
X103632000Y-41910000D03*
X106172000Y-44450000D03*
X106172000Y-41910000D03*
D17*
X156524000Y-69325000D03*
D18*
X156524000Y-71865000D03*
X156524000Y-74405000D03*
X156524000Y-76945000D03*
X156524000Y-79485000D03*
X156524000Y-82025000D03*
D11*
X156524000Y-85983000D03*
X156524000Y-88483000D03*
X156524000Y-90983000D03*
X156524000Y-93483000D03*
X156524000Y-95983000D03*
X156524000Y-98483000D03*
X74168000Y-49530000D03*
X74168000Y-52070000D03*
X74168000Y-54610000D03*
X74168000Y-57150000D03*
X74168000Y-46990000D03*
D17*
X142494000Y-86868000D03*
D18*
X142494000Y-89408000D03*
D17*
X135128000Y-85852000D03*
D18*
X137668000Y-85852000D03*
X135128000Y-88392000D03*
X137668000Y-88392000D03*
X135128000Y-90932000D03*
X137668000Y-90932000D03*
D19*
X82804000Y-51054000D03*
X85344000Y-51054000D03*
X87884000Y-51054000D03*
X90424000Y-51054000D03*
X92964000Y-51054000D03*
X95504000Y-51054000D03*
X98044000Y-51054000D03*
D17*
X79502000Y-109728000D03*
D18*
X82042000Y-109728000D03*
X84582000Y-109728000D03*
D17*
X89154000Y-109728000D03*
D18*
X91694000Y-109728000D03*
X94234000Y-109728000D03*
D17*
X98806000Y-109728000D03*
D18*
X101346000Y-109728000D03*
X103886000Y-109728000D03*
D17*
X108458000Y-109728000D03*
D18*
X110998000Y-109728000D03*
X113538000Y-109728000D03*
D17*
X118110000Y-109728000D03*
D18*
X120650000Y-109728000D03*
X123190000Y-109728000D03*
D17*
X127762000Y-109728000D03*
D18*
X130302000Y-109728000D03*
X132842000Y-109728000D03*
D17*
X137414000Y-109728000D03*
D18*
X139954000Y-109728000D03*
X142494000Y-109728000D03*
D17*
X147066000Y-109728000D03*
D18*
X149606000Y-109728000D03*
X152146000Y-109728000D03*
D20*
X95322000Y-45426000D03*
X91622000Y-45426000D03*
D21*
X93472000Y-47426000D03*
D15*
X93472000Y-40526000D03*
D20*
X84908000Y-45426000D03*
X81208000Y-45426000D03*
D21*
X83058000Y-47426000D03*
D15*
X83058000Y-40526000D03*
D12*
X82042000Y-117856000D03*
D11*
X81280000Y-101346000D03*
X111760000Y-77470000D03*
X111760000Y-74930000D03*
D22*
X107696000Y-51816000D03*
X109474000Y-51816000D03*
D23*
X122228000Y-96520000D03*
X122228000Y-101520000D03*
X109728000Y-96520000D03*
X109728000Y-101520000D03*
D17*
X104902000Y-104140000D03*
D18*
X102362000Y-104140000D03*
D24*
X88490004Y-60275003D03*
X83810380Y-62171306D03*
X113284000Y-92202000D03*
X113538000Y-96266000D03*
X133858000Y-102362000D03*
X132842000Y-101346000D03*
X82042000Y-93980000D03*
X81788000Y-85852000D03*
X132334000Y-76708000D03*
X127000000Y-78232000D03*
X74168000Y-66548000D03*
X76962000Y-84074000D03*
X88320998Y-61717770D03*
X86614000Y-102362000D03*
X91440000Y-85090000D03*
X89662000Y-77470000D03*
X79248000Y-61722000D03*
X116690399Y-74147678D03*
X94389998Y-61722000D03*
X141853990Y-58146011D03*
X150114000Y-100076000D03*
X146812000Y-100076000D03*
X154178000Y-47879000D03*
X123698000Y-91567000D03*
X144804000Y-89495000D03*
X144854000Y-87495000D03*
X145676894Y-73881797D03*
X144997039Y-82574992D03*
X146247051Y-82548051D03*
X158024000Y-68075000D03*
X130429000Y-85471000D03*
X154305000Y-51181000D03*
X149666000Y-92568000D03*
X154813000Y-65151000D03*
X133858000Y-71755000D03*
X133858000Y-69977000D03*
X125222000Y-71501000D03*
X123444000Y-71755000D03*
X121260002Y-66929000D03*
X113792000Y-67691000D03*
X123952000Y-84963000D03*
X132588000Y-80645000D03*
X148082000Y-53213000D03*
X130302000Y-99822000D03*
X130302000Y-94996000D03*
X134874000Y-97790000D03*
X136144000Y-99060000D03*
X105410000Y-50546000D03*
X100584000Y-81534000D03*
X112268000Y-101346000D03*
X112268000Y-94488000D03*
X137160000Y-98806000D03*
X135636000Y-97282000D03*
X144502051Y-71524949D03*
X88646000Y-62738000D03*
X83820000Y-62992000D03*
X99958990Y-65598051D03*
X98298000Y-79248000D03*
X120396000Y-88646000D03*
X108458000Y-67056000D03*
X139700000Y-85344000D03*
X136398000Y-93980000D03*
X147066000Y-71247000D03*
X122936000Y-104648000D03*
X115062000Y-94488000D03*
X145774000Y-56075000D03*
X136274000Y-61075000D03*
X124714000Y-76327000D03*
X130048000Y-81407000D03*
X121411555Y-68466022D03*
X127209989Y-68607004D03*
X123190000Y-66675000D03*
X122174000Y-71755000D03*
X125730000Y-69723000D03*
X127254000Y-71755000D03*
X127254000Y-69723000D03*
X148600546Y-60539968D03*
X118364000Y-66675000D03*
X109728000Y-67818000D03*
X133096000Y-91186000D03*
X140224610Y-91425709D03*
X140208000Y-94742000D03*
X116586000Y-89408000D03*
X113030000Y-90170000D03*
X93218000Y-58518002D03*
X97282000Y-60198000D03*
X106680000Y-66294000D03*
X120396000Y-89916000D03*
X99508979Y-70532737D03*
X99060000Y-46736000D03*
X80264000Y-71628000D03*
X81280000Y-48514000D03*
X130539539Y-69363563D03*
X146050000Y-60579000D03*
X143656989Y-61245817D03*
X130556000Y-70231000D03*
X137083989Y-67564000D03*
X136906000Y-61678736D03*
X137033000Y-69977000D03*
X134366000Y-79121000D03*
X134366000Y-80518000D03*
X149098000Y-57325000D03*
X130556000Y-68453000D03*
X144950125Y-78900565D03*
X150368000Y-67056000D03*
X152273000Y-64389000D03*
X152263010Y-73533000D03*
X151892000Y-78105000D03*
X151377166Y-76794474D03*
X151599202Y-69859990D03*
X153924000Y-67310000D03*
X152208714Y-72061511D03*
X152655682Y-78865318D03*
X151118113Y-71110010D03*
X147320000Y-57912000D03*
X142748000Y-57912000D03*
X93379396Y-67433645D03*
X93218000Y-80518000D03*
X94370990Y-80264000D03*
X95250000Y-65278000D03*
X100584000Y-49276000D03*
X139192000Y-92456000D03*
X143024011Y-82389521D03*
X107965451Y-69611451D03*
X106934000Y-68834000D03*
X91502643Y-68165544D03*
X110744000Y-67310000D03*
X90170000Y-67056000D03*
X118364000Y-74676000D03*
X120396000Y-74676000D03*
X137160000Y-74930000D03*
X110967999Y-68425278D03*
X137668000Y-79248000D03*
X97282000Y-63754000D03*
X91694000Y-55626000D03*
X88138000Y-52324000D03*
X91440000Y-52324000D03*
X92710000Y-64262000D03*
X86360000Y-86360000D03*
X92456000Y-67310000D03*
X93218000Y-84836000D03*
X143274000Y-79735000D03*
X143219746Y-77343473D03*
X142240000Y-62611000D03*
X128016000Y-73533000D03*
X121666000Y-74050990D03*
X148590000Y-62239990D03*
X86360000Y-73152000D03*
X85344000Y-72136000D03*
X80264000Y-73152000D03*
X78994000Y-72390000D03*
X148707001Y-83812125D03*
X145622049Y-84285000D03*
X140208000Y-79883000D03*
X118618000Y-70485000D03*
X152814778Y-79660825D03*
X147304000Y-74695000D03*
X152981940Y-80510631D03*
X147194000Y-75695000D03*
X128016000Y-63119000D03*
X120904000Y-62865000D03*
X125476000Y-62865000D03*
X132842000Y-53213000D03*
X127508000Y-52959000D03*
X115316000Y-57277000D03*
X133172011Y-61087000D03*
X132842000Y-62865000D03*
X127254000Y-60579000D03*
X123444000Y-56769000D03*
X116332000Y-52705000D03*
X121597518Y-53477727D03*
X109474000Y-41275000D03*
X110744000Y-50419000D03*
X144083758Y-73732195D03*
X142544000Y-73095000D03*
X143091113Y-74720147D03*
X143100001Y-75612933D03*
X146104137Y-79500967D03*
X153634000Y-74495000D03*
X94996000Y-57150000D03*
X85344000Y-57150000D03*
X83820000Y-115824000D03*
X79248000Y-117856000D03*
X93472000Y-115824000D03*
X88900000Y-117856000D03*
X103124000Y-115824000D03*
X98552000Y-117856000D03*
X112776000Y-115824000D03*
X108204000Y-117856000D03*
X122428000Y-115824000D03*
X117856000Y-117856000D03*
X132080000Y-115824000D03*
X127508000Y-117856000D03*
X141732000Y-115824000D03*
X137160000Y-117856000D03*
X151384000Y-115824000D03*
X146812000Y-117856000D03*
X96637010Y-70080745D03*
X96520000Y-47498000D03*
X81046847Y-54335153D03*
D25*
X88190005Y-60575002D02*
X88490004Y-60275003D01*
X83810380Y-62171306D02*
X86593701Y-62171306D01*
X86593701Y-62171306D02*
X88190005Y-60575002D01*
X113538000Y-96266000D02*
X113538000Y-92456000D01*
X113538000Y-92456000D02*
X113284000Y-92202000D01*
X132842000Y-101346000D02*
X133858000Y-102362000D01*
X81788000Y-85852000D02*
X81788000Y-93726000D01*
X81788000Y-93726000D02*
X82042000Y-93980000D01*
X75184000Y-85090000D02*
X81026000Y-85090000D01*
X81026000Y-85090000D02*
X81788000Y-85852000D01*
X127000000Y-78232000D02*
X130810000Y-78232000D01*
X130810000Y-78232000D02*
X132334000Y-76708000D01*
X88178000Y-101488000D02*
X87488000Y-101488000D01*
X87488000Y-101488000D02*
X86614000Y-102362000D01*
X144997039Y-82574992D02*
X144997039Y-87351961D01*
X144997039Y-87351961D02*
X144854000Y-87495000D01*
X133858000Y-69977000D02*
X133858000Y-71755000D01*
X123444000Y-71755000D02*
X124968000Y-71755000D01*
X124968000Y-71755000D02*
X125222000Y-71501000D01*
X130302000Y-94996000D02*
X130302000Y-99822000D01*
X136144000Y-99060000D02*
X134874000Y-97790000D01*
X100584000Y-56134000D02*
X100584000Y-55372000D01*
X100584000Y-55372000D02*
X105410000Y-50546000D01*
X100584000Y-81534000D02*
X100584000Y-56896000D01*
X100584000Y-56134000D02*
X100584000Y-56896000D01*
X100584000Y-56896000D02*
X100584000Y-56642000D01*
X112268000Y-94488000D02*
X112268000Y-101346000D01*
X135636000Y-97282000D02*
X137160000Y-98806000D01*
X144780000Y-71247000D02*
X144502051Y-71524949D01*
X147066000Y-71247000D02*
X144780000Y-71247000D01*
X83820000Y-62992000D02*
X88392000Y-62992000D01*
X88392000Y-62992000D02*
X88646000Y-62738000D01*
X98298000Y-79248000D02*
X100133989Y-77412011D01*
X100133989Y-77412011D02*
X100133989Y-66197314D01*
X100133989Y-66197314D02*
X99958990Y-66022315D01*
X99958990Y-66022315D02*
X99958990Y-65598051D01*
X108757999Y-67735589D02*
X120396000Y-79373590D01*
X108757999Y-67355999D02*
X108757999Y-67735589D01*
X120396000Y-88221736D02*
X120396000Y-88646000D01*
X108458000Y-67056000D02*
X108757999Y-67355999D01*
X120396000Y-79373590D02*
X120396000Y-88221736D01*
X139700000Y-85344000D02*
X138176000Y-85344000D01*
X138176000Y-85344000D02*
X137668000Y-85852000D01*
X136398000Y-93980000D02*
X136398000Y-87503413D01*
X136398000Y-87503413D02*
X136818001Y-87083412D01*
X136818001Y-87083412D02*
X136818001Y-86701999D01*
X136818001Y-86701999D02*
X137668000Y-85852000D01*
X147828000Y-70485000D02*
X152604000Y-70485000D01*
X152604000Y-70485000D02*
X156524000Y-74405000D01*
X147828000Y-70485000D02*
X147066000Y-71247000D01*
X115062000Y-94488000D02*
X115062000Y-96774000D01*
X115062000Y-96774000D02*
X122936000Y-104648000D01*
X124714000Y-76327000D02*
X124714000Y-77978000D01*
X124714000Y-77978000D02*
X127843001Y-81107001D01*
X127843001Y-81107001D02*
X129748001Y-81107001D01*
X129748001Y-81107001D02*
X130048000Y-81407000D01*
X136274000Y-61075000D02*
X141274000Y-56075000D01*
X141274000Y-56075000D02*
X145774000Y-56075000D01*
X122174000Y-71755000D02*
X122174000Y-69228467D01*
X121411555Y-68041758D02*
X121411555Y-68466022D01*
X122765736Y-66675000D02*
X121411555Y-68029181D01*
X121711554Y-68766021D02*
X121411555Y-68466022D01*
X121411555Y-68029181D02*
X121411555Y-68041758D01*
X123190000Y-66675000D02*
X122765736Y-66675000D01*
X122174000Y-69228467D02*
X121711554Y-68766021D01*
X126909990Y-68307005D02*
X127209989Y-68607004D01*
X123190000Y-66675000D02*
X125277985Y-66675000D01*
X125277985Y-66675000D02*
X126909990Y-68307005D01*
X125730000Y-69723000D02*
X127254000Y-69723000D01*
X127254000Y-69723000D02*
X127254000Y-71755000D01*
X139954000Y-61849000D02*
X143353145Y-61849000D01*
X118364000Y-68987012D02*
X121873999Y-72497011D01*
X129305989Y-72497011D02*
X139954000Y-61849000D01*
X143353145Y-61849000D02*
X143374963Y-61870818D01*
X143374963Y-61870818D02*
X147269696Y-61870818D01*
X147269696Y-61870818D02*
X148300547Y-60839967D01*
X148300547Y-60839967D02*
X148600546Y-60539968D01*
X118364000Y-66675000D02*
X118364000Y-68987012D01*
X121873999Y-72497011D02*
X129305989Y-72497011D01*
X110027999Y-68117999D02*
X110027999Y-68369178D01*
X132796001Y-90886001D02*
X133096000Y-91186000D01*
X132544822Y-90886001D02*
X132796001Y-90886001D01*
X110027999Y-68369178D02*
X132544822Y-90886001D01*
X109728000Y-67818000D02*
X110027999Y-68117999D01*
X133096000Y-91186000D02*
X134874000Y-91186000D01*
X134874000Y-91186000D02*
X135128000Y-90932000D01*
X140208000Y-94742000D02*
X140208000Y-91442319D01*
X140208000Y-91442319D02*
X140224610Y-91425709D01*
X116123999Y-89870001D02*
X116586000Y-89408000D01*
X116586000Y-89408000D02*
X118364000Y-87630000D01*
X118364000Y-87884000D02*
X118364000Y-87630000D01*
X118364000Y-87630000D02*
X118364000Y-77978000D01*
X113030000Y-90170000D02*
X113329999Y-89870001D01*
X113329999Y-89870001D02*
X116123999Y-89870001D01*
X97282000Y-60198000D02*
X94897998Y-60198000D01*
X94897998Y-60198000D02*
X93218000Y-58518002D01*
X118364000Y-77978000D02*
X106680000Y-66294000D01*
X120396000Y-89916000D02*
X118364000Y-87884000D01*
X99208980Y-65423057D02*
X99208980Y-70232738D01*
X99060000Y-46736000D02*
X96956999Y-48839001D01*
X96956999Y-48839001D02*
X96956999Y-51575761D01*
X96956999Y-51575761D02*
X99508979Y-54127741D01*
X99508979Y-54127741D02*
X99508979Y-65123058D01*
X99508979Y-65123058D02*
X99208980Y-65423057D01*
X99208980Y-70232738D02*
X99508979Y-70532737D01*
X80264000Y-49530000D02*
X80264000Y-71628000D01*
X81280000Y-48514000D02*
X80264000Y-49530000D01*
X130887993Y-69112019D02*
X130587994Y-69412018D01*
X146050000Y-60579000D02*
X139421012Y-60579000D01*
X130587994Y-69412018D02*
X130539539Y-69363563D01*
X139421012Y-60579000D02*
X130887993Y-69112019D01*
X143232725Y-61245817D02*
X143656989Y-61245817D01*
X130556000Y-70231000D02*
X139541183Y-61245817D01*
X139541183Y-61245817D02*
X143232725Y-61245817D01*
X137033000Y-69977000D02*
X137033000Y-67614989D01*
X137033000Y-67614989D02*
X137083989Y-67564000D01*
X136906000Y-61678736D02*
X141063735Y-57521001D01*
X141063735Y-57521001D02*
X142032001Y-57521001D01*
X142032001Y-57521001D02*
X142774003Y-56778999D01*
X142774003Y-56778999D02*
X148551999Y-56778999D01*
X148551999Y-56778999D02*
X148798001Y-57025001D01*
X148798001Y-57025001D02*
X149098000Y-57325000D01*
X130556000Y-68028736D02*
X136906000Y-61678736D01*
X134366000Y-80518000D02*
X134366000Y-79121000D01*
X130556000Y-68453000D02*
X130556000Y-68028736D01*
X144650126Y-79200564D02*
X144950125Y-78900565D01*
X144132858Y-79717832D02*
X144650126Y-79200564D01*
X144132858Y-84383142D02*
X144132858Y-79717832D01*
X142621000Y-85895000D02*
X144132858Y-84383142D01*
X142621000Y-86995000D02*
X142621000Y-85895000D01*
X152078999Y-77493737D02*
X152078999Y-74141275D01*
X152078999Y-74141275D02*
X152263010Y-73957264D01*
X152263010Y-73957264D02*
X152263010Y-73533000D01*
X151892000Y-78105000D02*
X151892000Y-77680736D01*
X151892000Y-77680736D02*
X152078999Y-77493737D01*
X152273000Y-64389000D02*
X152273000Y-64813264D01*
X152273000Y-64813264D02*
X150368000Y-66718264D01*
X150368000Y-66718264D02*
X150368000Y-67056000D01*
X150818999Y-73451226D02*
X150818999Y-76236307D01*
X150818999Y-76236307D02*
X151077167Y-76494475D01*
X151077167Y-76494475D02*
X151377166Y-76794474D01*
X152208714Y-72061511D02*
X150818999Y-73451226D01*
X151599202Y-69634798D02*
X151599202Y-69859990D01*
X153924000Y-67310000D02*
X151599202Y-69634798D01*
X152955681Y-71804091D02*
X152955681Y-78565319D01*
X152955681Y-78565319D02*
X152655682Y-78865318D01*
X152261600Y-71110010D02*
X152955681Y-71804091D01*
X151118113Y-71110010D02*
X152261600Y-71110010D01*
X142748000Y-57912000D02*
X147320000Y-57912000D01*
X93218000Y-80518000D02*
X93218000Y-67595041D01*
X93218000Y-67595041D02*
X93379396Y-67433645D01*
X95250000Y-65278000D02*
X94370990Y-66157010D01*
X94370990Y-66157010D02*
X94370990Y-79839736D01*
X94370990Y-79839736D02*
X94370990Y-80264000D01*
X100584000Y-49276000D02*
X98806000Y-51054000D01*
X98806000Y-51054000D02*
X98044000Y-51054000D01*
X142261013Y-84306987D02*
X139192000Y-87376000D01*
X139192000Y-87376000D02*
X139192000Y-88138998D01*
X143024011Y-84306987D02*
X142261013Y-84306987D01*
X143024011Y-82389521D02*
X143024011Y-84306987D01*
X139192000Y-88138998D02*
X139192000Y-92456000D01*
X106934000Y-68834000D02*
X107188000Y-68834000D01*
X107188000Y-68834000D02*
X107965451Y-69611451D01*
X91279544Y-68165544D02*
X91502643Y-68165544D01*
X90170000Y-67056000D02*
X91279544Y-68165544D01*
X118364000Y-74676000D02*
X118364000Y-74251736D01*
X118364000Y-74251736D02*
X111422264Y-67310000D01*
X111422264Y-67310000D02*
X111168264Y-67310000D01*
X111168264Y-67310000D02*
X110744000Y-67310000D01*
X137160000Y-74930000D02*
X136735736Y-74930000D01*
X136481736Y-74676000D02*
X120396000Y-74676000D01*
X136735736Y-74930000D02*
X136481736Y-74676000D01*
X111392263Y-68425278D02*
X110967999Y-68425278D01*
X117315400Y-74521514D02*
X117315400Y-73847677D01*
X111893001Y-68425278D02*
X111392263Y-68425278D01*
X117315400Y-73847677D02*
X111893001Y-68425278D01*
X118544899Y-75751013D02*
X117315400Y-74521514D01*
X133996022Y-75576022D02*
X121057393Y-75576022D01*
X120882402Y-75751013D02*
X118544899Y-75751013D01*
X137668000Y-79248000D02*
X133996022Y-75576022D01*
X121057393Y-75576022D02*
X120882402Y-75751013D01*
X95250000Y-66548000D02*
X97282000Y-64516000D01*
X97282000Y-64516000D02*
X97282000Y-63754000D01*
X94177999Y-88702001D02*
X95250000Y-87630000D01*
X95250000Y-87630000D02*
X95250000Y-66548000D01*
X93178000Y-101488000D02*
X94177999Y-100488001D01*
X94177999Y-100488001D02*
X94177999Y-88702001D01*
X91694000Y-55626000D02*
X92964000Y-54356000D01*
X92964000Y-54356000D02*
X92964000Y-51054000D01*
X91440000Y-52324000D02*
X88138000Y-52324000D01*
X88900000Y-83820000D02*
X88900000Y-67140419D01*
X88900000Y-67140419D02*
X91778419Y-64262000D01*
X91778419Y-64262000D02*
X92710000Y-64262000D01*
X86360000Y-86360000D02*
X88900000Y-83820000D01*
X93218000Y-84836000D02*
X92456000Y-84074000D01*
X92456000Y-84074000D02*
X92456000Y-67310000D01*
X137668000Y-88263590D02*
X137668000Y-88392000D01*
X142399001Y-83532589D02*
X137668000Y-88263590D01*
X142399001Y-80609999D02*
X142399001Y-83532589D01*
X143274000Y-79735000D02*
X142399001Y-80609999D01*
X142919747Y-77643472D02*
X143219746Y-77343473D01*
X141127100Y-79436119D02*
X142919747Y-77643472D01*
X141127100Y-80653898D02*
X141127100Y-79436119D01*
X136303001Y-85477997D02*
X141127100Y-80653898D01*
X136303001Y-86962002D02*
X136303001Y-85477997D01*
X135128000Y-88137003D02*
X136303001Y-86962002D01*
X135128000Y-88392000D02*
X135128000Y-88137003D01*
X129794000Y-73025000D02*
X140208000Y-62611000D01*
X140208000Y-62611000D02*
X142240000Y-62611000D01*
X128524000Y-73025000D02*
X129794000Y-73025000D01*
X128016000Y-73533000D02*
X128524000Y-73025000D01*
X122265263Y-74225989D02*
X122090264Y-74050990D01*
X122090264Y-74050990D02*
X121666000Y-74050990D01*
X136604001Y-74225989D02*
X122265263Y-74225989D01*
X148590000Y-62239990D02*
X136604001Y-74225989D01*
X85344000Y-72136000D02*
X86360000Y-73152000D01*
X78994000Y-72390000D02*
X79502000Y-72390000D01*
X79502000Y-72390000D02*
X80264000Y-73152000D01*
X148407002Y-84112124D02*
X148707001Y-83812125D01*
X145622049Y-84285000D02*
X148234126Y-84285000D01*
X148234126Y-84285000D02*
X148407002Y-84112124D01*
X120870993Y-75126011D02*
X135451011Y-75126011D01*
X118618000Y-70485000D02*
X118618000Y-73823004D01*
X118618000Y-73823004D02*
X120095998Y-75301002D01*
X139908001Y-79583001D02*
X140208000Y-79883000D01*
X135451011Y-75126011D02*
X139908001Y-79583001D01*
X120095998Y-75301002D02*
X120696002Y-75301002D01*
X120696002Y-75301002D02*
X120870993Y-75126011D01*
X147647465Y-74994999D02*
X152313291Y-79660825D01*
X147603999Y-74994999D02*
X147647465Y-74994999D01*
X147304000Y-74695000D02*
X147603999Y-74994999D01*
X152390514Y-79660825D02*
X152814778Y-79660825D01*
X152313291Y-79660825D02*
X152390514Y-79660825D01*
X152557676Y-80510631D02*
X152981940Y-80510631D01*
X152526686Y-80510631D02*
X152557676Y-80510631D01*
X147711055Y-75695000D02*
X152526686Y-80510631D01*
X147194000Y-75695000D02*
X147711055Y-75695000D01*
X149069519Y-78717956D02*
X144383757Y-74032194D01*
X144383757Y-74032194D02*
X144083758Y-73732195D01*
X150097600Y-78717956D02*
X149069519Y-78717956D01*
X155774001Y-84394357D02*
X150097600Y-78717956D01*
X156524000Y-85983000D02*
X155774001Y-85233001D01*
X155774001Y-85233001D02*
X155774001Y-84394357D01*
X156524000Y-88483000D02*
X151972033Y-83931033D01*
X151972033Y-83931033D02*
X151972033Y-81228800D01*
X151972033Y-81228800D02*
X149911200Y-79167967D01*
X149911200Y-79167967D02*
X148616967Y-79167967D01*
X148616967Y-79167967D02*
X142843999Y-73394999D01*
X142843999Y-73394999D02*
X142544000Y-73095000D01*
X156524000Y-90983000D02*
X151522022Y-85981022D01*
X151522022Y-85981022D02*
X151522022Y-81415200D01*
X151522022Y-81415200D02*
X149724800Y-79617978D01*
X149724800Y-79617978D02*
X147988944Y-79617978D01*
X147988944Y-79617978D02*
X143391112Y-75020146D01*
X143391112Y-75020146D02*
X143091113Y-74720147D01*
X147555057Y-80067989D02*
X143400000Y-75912932D01*
X156524000Y-93483000D02*
X149802011Y-86761011D01*
X143400000Y-75912932D02*
X143100001Y-75612933D01*
X149802011Y-80331600D02*
X149538400Y-80067989D01*
X149802011Y-86761011D02*
X149802011Y-80331600D01*
X149538400Y-80067989D02*
X147555057Y-80067989D01*
X149332011Y-88791011D02*
X149332011Y-82728841D01*
X146404136Y-79800966D02*
X146104137Y-79500967D01*
X149332011Y-82728841D02*
X146404136Y-79800966D01*
X156524000Y-95983000D02*
X149332011Y-88791011D01*
X156524000Y-98483000D02*
X157599001Y-97407999D01*
X157599001Y-97407999D02*
X157599001Y-85081459D01*
X157599001Y-85081459D02*
X154487240Y-81969698D01*
X154487240Y-81969698D02*
X154187241Y-81669699D01*
X153634000Y-81116458D02*
X153887242Y-81369700D01*
X153634000Y-74495000D02*
X153634000Y-81116458D01*
X153887242Y-81369700D02*
X154187241Y-81669699D01*
X85344000Y-57150000D02*
X94996000Y-57150000D01*
X83820000Y-115824000D02*
X83820000Y-110490000D01*
X83820000Y-110490000D02*
X84582000Y-109728000D01*
X79248000Y-117856000D02*
X79248000Y-117431736D01*
X79248000Y-117431736D02*
X81048737Y-115630999D01*
X81048737Y-115630999D02*
X83626999Y-115630999D01*
X83626999Y-115630999D02*
X83820000Y-115824000D01*
X93472000Y-115824000D02*
X93472000Y-110490000D01*
X93472000Y-110490000D02*
X94234000Y-109728000D01*
X88900000Y-117856000D02*
X88900000Y-117431736D01*
X88900000Y-117431736D02*
X90700737Y-115630999D01*
X93278999Y-115630999D02*
X93472000Y-115824000D01*
X90700737Y-115630999D02*
X93278999Y-115630999D01*
X103124000Y-115824000D02*
X103124000Y-110490000D01*
X103124000Y-110490000D02*
X103886000Y-109728000D01*
X98552000Y-117856000D02*
X98552000Y-117431736D01*
X98552000Y-117431736D02*
X100352737Y-115630999D01*
X100352737Y-115630999D02*
X102930999Y-115630999D01*
X102930999Y-115630999D02*
X103124000Y-115824000D01*
X112776000Y-115824000D02*
X112776000Y-110490000D01*
X112776000Y-110490000D02*
X113538000Y-109728000D01*
X108204000Y-117856000D02*
X108204000Y-117431736D01*
X108204000Y-117431736D02*
X110004737Y-115630999D01*
X110004737Y-115630999D02*
X112582999Y-115630999D01*
X112582999Y-115630999D02*
X112776000Y-115824000D01*
X122428000Y-115824000D02*
X122428000Y-110490000D01*
X122428000Y-110490000D02*
X123190000Y-109728000D01*
X117856000Y-117856000D02*
X117856000Y-117431736D01*
X117856000Y-117431736D02*
X119656737Y-115630999D01*
X119656737Y-115630999D02*
X122234999Y-115630999D01*
X122234999Y-115630999D02*
X122428000Y-115824000D01*
X132080000Y-115824000D02*
X132080000Y-110490000D01*
X132080000Y-110490000D02*
X132842000Y-109728000D01*
X127508000Y-117856000D02*
X127508000Y-117431736D01*
X127508000Y-117431736D02*
X129308737Y-115630999D01*
X129308737Y-115630999D02*
X131886999Y-115630999D01*
X131886999Y-115630999D02*
X132080000Y-115824000D01*
X141732000Y-115824000D02*
X141732000Y-110490000D01*
X141732000Y-110490000D02*
X142494000Y-109728000D01*
X137160000Y-117856000D02*
X137160000Y-117431736D01*
X137160000Y-117431736D02*
X138960737Y-115630999D01*
X138960737Y-115630999D02*
X141538999Y-115630999D01*
X141538999Y-115630999D02*
X141732000Y-115824000D01*
X151384000Y-115824000D02*
X151384000Y-110490000D01*
X151384000Y-110490000D02*
X152146000Y-109728000D01*
X146812000Y-117856000D02*
X146812000Y-117431736D01*
X146812000Y-117431736D02*
X148612737Y-115630999D01*
X148612737Y-115630999D02*
X151190999Y-115630999D01*
X151190999Y-115630999D02*
X151384000Y-115824000D01*
X97907001Y-58791001D02*
X97907001Y-68810754D01*
X97907001Y-68810754D02*
X96937009Y-69780746D01*
X96937009Y-69780746D02*
X96637010Y-70080745D01*
X96520000Y-47498000D02*
X94416999Y-49601001D01*
X94416999Y-49601001D02*
X94416999Y-55300999D01*
X94416999Y-55300999D02*
X97907001Y-58791001D01*
X81046847Y-54335153D02*
X81346846Y-54035154D01*
X86796999Y-51209763D02*
X86796999Y-47823001D01*
X81346846Y-54035154D02*
X83971608Y-54035154D01*
X83971608Y-54035154D02*
X86796999Y-51209763D01*
X86796999Y-47823001D02*
X89194000Y-45426000D01*
X89194000Y-45426000D02*
X91622000Y-45426000D01*
D26*
G36*
X126544000Y-39370000D02*
X126598046Y-39641705D01*
X126751954Y-39872046D01*
X126982295Y-40025954D01*
X127254000Y-40080000D01*
X131318000Y-40080000D01*
X131589705Y-40025954D01*
X131820046Y-39872046D01*
X131973954Y-39641705D01*
X132028000Y-39370000D01*
X132028000Y-38810000D01*
X136017000Y-38810000D01*
X136017000Y-57732394D01*
X133260197Y-60489197D01*
X133232334Y-60531211D01*
X133223000Y-60579000D01*
X133223000Y-63119000D01*
X128778000Y-63119000D01*
X128728590Y-63129006D01*
X128686965Y-63157447D01*
X128669098Y-63180659D01*
X127182093Y-65659000D01*
X121737907Y-65659000D01*
X120250902Y-63180659D01*
X120216900Y-63143438D01*
X120171097Y-63122378D01*
X120142000Y-63119000D01*
X116205000Y-63119000D01*
X116205000Y-59944000D01*
X116194994Y-59894590D01*
X116167803Y-59854197D01*
X109514606Y-53201000D01*
X109601002Y-53201000D01*
X109601002Y-53042252D01*
X109759750Y-53201000D01*
X110350309Y-53201000D01*
X110583698Y-53104327D01*
X110762327Y-52925699D01*
X110859000Y-52692310D01*
X110859000Y-52101750D01*
X110700250Y-51943000D01*
X109601000Y-51943000D01*
X109601000Y-51963000D01*
X109347000Y-51963000D01*
X109347000Y-51943000D01*
X109327000Y-51943000D01*
X109327000Y-51689000D01*
X109347000Y-51689000D01*
X109347000Y-50589750D01*
X109601000Y-50589750D01*
X109601000Y-51689000D01*
X110700250Y-51689000D01*
X110859000Y-51530250D01*
X110859000Y-50939690D01*
X110762327Y-50706301D01*
X110583698Y-50527673D01*
X110350309Y-50431000D01*
X109759750Y-50431000D01*
X109601000Y-50589750D01*
X109347000Y-50589750D01*
X109188250Y-50431000D01*
X109093000Y-50431000D01*
X109093000Y-46933173D01*
X122801000Y-46933173D01*
X122801000Y-48316827D01*
X122914039Y-48885112D01*
X123235946Y-49366881D01*
X123717715Y-49688788D01*
X124286000Y-49801827D01*
X124854285Y-49688788D01*
X125336054Y-49366881D01*
X125536000Y-49067640D01*
X125735946Y-49366881D01*
X126217715Y-49688788D01*
X126786000Y-49801827D01*
X127354285Y-49688788D01*
X127836054Y-49366881D01*
X128157961Y-48885112D01*
X128264452Y-48349746D01*
X128585515Y-48671371D01*
X129039266Y-48859785D01*
X129530579Y-48860214D01*
X129984657Y-48672592D01*
X130307634Y-48350179D01*
X130414039Y-48885112D01*
X130735946Y-49366881D01*
X131217715Y-49688788D01*
X131786000Y-49801827D01*
X132354285Y-49688788D01*
X132836054Y-49366881D01*
X133036000Y-49067640D01*
X133235946Y-49366881D01*
X133717715Y-49688788D01*
X134286000Y-49801827D01*
X134854285Y-49688788D01*
X135336054Y-49366881D01*
X135657961Y-48885112D01*
X135771000Y-48316827D01*
X135771000Y-46933173D01*
X135657961Y-46364888D01*
X135336054Y-45883119D01*
X134854285Y-45561212D01*
X134286000Y-45448173D01*
X133717715Y-45561212D01*
X133235946Y-45883119D01*
X133036000Y-46182360D01*
X132836054Y-45883119D01*
X132354285Y-45561212D01*
X131786000Y-45448173D01*
X131217715Y-45561212D01*
X130735946Y-45883119D01*
X130414039Y-46364888D01*
X130307548Y-46900254D01*
X129986485Y-46578629D01*
X129532734Y-46390215D01*
X129041421Y-46389786D01*
X128587343Y-46577408D01*
X128264366Y-46899821D01*
X128157961Y-46364888D01*
X127836054Y-45883119D01*
X127354285Y-45561212D01*
X126786000Y-45448173D01*
X126217715Y-45561212D01*
X125735946Y-45883119D01*
X125536000Y-46182360D01*
X125336054Y-45883119D01*
X124854285Y-45561212D01*
X124286000Y-45448173D01*
X123717715Y-45561212D01*
X123235946Y-45883119D01*
X122914039Y-46364888D01*
X122801000Y-46933173D01*
X109093000Y-46933173D01*
X109093000Y-42869579D01*
X123050786Y-42869579D01*
X123238408Y-43323657D01*
X123585515Y-43671371D01*
X124039266Y-43859785D01*
X124530579Y-43860214D01*
X124984657Y-43672592D01*
X125332371Y-43325485D01*
X125465267Y-43005434D01*
X127195876Y-43005434D01*
X127226856Y-43133355D01*
X127540078Y-43691317D01*
X128042980Y-44086942D01*
X128659000Y-44260000D01*
X129159000Y-44260000D01*
X129159000Y-42752000D01*
X129413000Y-42752000D01*
X129413000Y-44260000D01*
X129913000Y-44260000D01*
X130529020Y-44086942D01*
X131031922Y-43691317D01*
X131345144Y-43133355D01*
X131376124Y-43005434D01*
X131312148Y-42869579D01*
X133050786Y-42869579D01*
X133238408Y-43323657D01*
X133585515Y-43671371D01*
X134039266Y-43859785D01*
X134530579Y-43860214D01*
X134984657Y-43672592D01*
X135332371Y-43325485D01*
X135520785Y-42871734D01*
X135521214Y-42380421D01*
X135333592Y-41926343D01*
X134986485Y-41578629D01*
X134532734Y-41390215D01*
X134041421Y-41389786D01*
X133587343Y-41577408D01*
X133239629Y-41924515D01*
X133051215Y-42378266D01*
X133050786Y-42869579D01*
X131312148Y-42869579D01*
X131256777Y-42752000D01*
X129413000Y-42752000D01*
X129159000Y-42752000D01*
X127315223Y-42752000D01*
X127195876Y-43005434D01*
X125465267Y-43005434D01*
X125520785Y-42871734D01*
X125521214Y-42380421D01*
X125465080Y-42244566D01*
X127195876Y-42244566D01*
X127315223Y-42498000D01*
X129159000Y-42498000D01*
X129159000Y-40990000D01*
X129413000Y-40990000D01*
X129413000Y-42498000D01*
X131256777Y-42498000D01*
X131376124Y-42244566D01*
X131345144Y-42116645D01*
X131031922Y-41558683D01*
X130529020Y-41163058D01*
X129913000Y-40990000D01*
X129413000Y-40990000D01*
X129159000Y-40990000D01*
X128659000Y-40990000D01*
X128042980Y-41163058D01*
X127540078Y-41558683D01*
X127226856Y-42116645D01*
X127195876Y-42244566D01*
X125465080Y-42244566D01*
X125333592Y-41926343D01*
X124986485Y-41578629D01*
X124532734Y-41390215D01*
X124041421Y-41389786D01*
X123587343Y-41577408D01*
X123239629Y-41924515D01*
X123051215Y-42378266D01*
X123050786Y-42869579D01*
X109093000Y-42869579D01*
X109093000Y-40369579D01*
X123050786Y-40369579D01*
X123238408Y-40823657D01*
X123585515Y-41171371D01*
X124039266Y-41359785D01*
X124530579Y-41360214D01*
X124984657Y-41172592D01*
X125332371Y-40825485D01*
X125520785Y-40371734D01*
X125520786Y-40369579D01*
X133050786Y-40369579D01*
X133238408Y-40823657D01*
X133585515Y-41171371D01*
X134039266Y-41359785D01*
X134530579Y-41360214D01*
X134984657Y-41172592D01*
X135332371Y-40825485D01*
X135520785Y-40371734D01*
X135521214Y-39880421D01*
X135333592Y-39426343D01*
X134986485Y-39078629D01*
X134532734Y-38890215D01*
X134041421Y-38889786D01*
X133587343Y-39077408D01*
X133239629Y-39424515D01*
X133051215Y-39878266D01*
X133050786Y-40369579D01*
X125520786Y-40369579D01*
X125521214Y-39880421D01*
X125333592Y-39426343D01*
X124986485Y-39078629D01*
X124532734Y-38890215D01*
X124041421Y-38889786D01*
X123587343Y-39077408D01*
X123239629Y-39424515D01*
X123051215Y-39878266D01*
X123050786Y-40369579D01*
X109093000Y-40369579D01*
X109093000Y-38810000D01*
X126544000Y-38810000D01*
X126544000Y-39370000D01*
X126544000Y-39370000D01*
G37*
X126544000Y-39370000D02*
X126598046Y-39641705D01*
X126751954Y-39872046D01*
X126982295Y-40025954D01*
X127254000Y-40080000D01*
X131318000Y-40080000D01*
X131589705Y-40025954D01*
X131820046Y-39872046D01*
X131973954Y-39641705D01*
X132028000Y-39370000D01*
X132028000Y-38810000D01*
X136017000Y-38810000D01*
X136017000Y-57732394D01*
X133260197Y-60489197D01*
X133232334Y-60531211D01*
X133223000Y-60579000D01*
X133223000Y-63119000D01*
X128778000Y-63119000D01*
X128728590Y-63129006D01*
X128686965Y-63157447D01*
X128669098Y-63180659D01*
X127182093Y-65659000D01*
X121737907Y-65659000D01*
X120250902Y-63180659D01*
X120216900Y-63143438D01*
X120171097Y-63122378D01*
X120142000Y-63119000D01*
X116205000Y-63119000D01*
X116205000Y-59944000D01*
X116194994Y-59894590D01*
X116167803Y-59854197D01*
X109514606Y-53201000D01*
X109601002Y-53201000D01*
X109601002Y-53042252D01*
X109759750Y-53201000D01*
X110350309Y-53201000D01*
X110583698Y-53104327D01*
X110762327Y-52925699D01*
X110859000Y-52692310D01*
X110859000Y-52101750D01*
X110700250Y-51943000D01*
X109601000Y-51943000D01*
X109601000Y-51963000D01*
X109347000Y-51963000D01*
X109347000Y-51943000D01*
X109327000Y-51943000D01*
X109327000Y-51689000D01*
X109347000Y-51689000D01*
X109347000Y-50589750D01*
X109601000Y-50589750D01*
X109601000Y-51689000D01*
X110700250Y-51689000D01*
X110859000Y-51530250D01*
X110859000Y-50939690D01*
X110762327Y-50706301D01*
X110583698Y-50527673D01*
X110350309Y-50431000D01*
X109759750Y-50431000D01*
X109601000Y-50589750D01*
X109347000Y-50589750D01*
X109188250Y-50431000D01*
X109093000Y-50431000D01*
X109093000Y-46933173D01*
X122801000Y-46933173D01*
X122801000Y-48316827D01*
X122914039Y-48885112D01*
X123235946Y-49366881D01*
X123717715Y-49688788D01*
X124286000Y-49801827D01*
X124854285Y-49688788D01*
X125336054Y-49366881D01*
X125536000Y-49067640D01*
X125735946Y-49366881D01*
X126217715Y-49688788D01*
X126786000Y-49801827D01*
X127354285Y-49688788D01*
X127836054Y-49366881D01*
X128157961Y-48885112D01*
X128264452Y-48349746D01*
X128585515Y-48671371D01*
X129039266Y-48859785D01*
X129530579Y-48860214D01*
X129984657Y-48672592D01*
X130307634Y-48350179D01*
X130414039Y-48885112D01*
X130735946Y-49366881D01*
X131217715Y-49688788D01*
X131786000Y-49801827D01*
X132354285Y-49688788D01*
X132836054Y-49366881D01*
X133036000Y-49067640D01*
X133235946Y-49366881D01*
X133717715Y-49688788D01*
X134286000Y-49801827D01*
X134854285Y-49688788D01*
X135336054Y-49366881D01*
X135657961Y-48885112D01*
X135771000Y-48316827D01*
X135771000Y-46933173D01*
X135657961Y-46364888D01*
X135336054Y-45883119D01*
X134854285Y-45561212D01*
X134286000Y-45448173D01*
X133717715Y-45561212D01*
X133235946Y-45883119D01*
X133036000Y-46182360D01*
X132836054Y-45883119D01*
X132354285Y-45561212D01*
X131786000Y-45448173D01*
X131217715Y-45561212D01*
X130735946Y-45883119D01*
X130414039Y-46364888D01*
X130307548Y-46900254D01*
X129986485Y-46578629D01*
X129532734Y-46390215D01*
X129041421Y-46389786D01*
X128587343Y-46577408D01*
X128264366Y-46899821D01*
X128157961Y-46364888D01*
X127836054Y-45883119D01*
X127354285Y-45561212D01*
X126786000Y-45448173D01*
X126217715Y-45561212D01*
X125735946Y-45883119D01*
X125536000Y-46182360D01*
X125336054Y-45883119D01*
X124854285Y-45561212D01*
X124286000Y-45448173D01*
X123717715Y-45561212D01*
X123235946Y-45883119D01*
X122914039Y-46364888D01*
X122801000Y-46933173D01*
X109093000Y-46933173D01*
X109093000Y-42869579D01*
X123050786Y-42869579D01*
X123238408Y-43323657D01*
X123585515Y-43671371D01*
X124039266Y-43859785D01*
X124530579Y-43860214D01*
X124984657Y-43672592D01*
X125332371Y-43325485D01*
X125465267Y-43005434D01*
X127195876Y-43005434D01*
X127226856Y-43133355D01*
X127540078Y-43691317D01*
X128042980Y-44086942D01*
X128659000Y-44260000D01*
X129159000Y-44260000D01*
X129159000Y-42752000D01*
X129413000Y-42752000D01*
X129413000Y-44260000D01*
X129913000Y-44260000D01*
X130529020Y-44086942D01*
X131031922Y-43691317D01*
X131345144Y-43133355D01*
X131376124Y-43005434D01*
X131312148Y-42869579D01*
X133050786Y-42869579D01*
X133238408Y-43323657D01*
X133585515Y-43671371D01*
X134039266Y-43859785D01*
X134530579Y-43860214D01*
X134984657Y-43672592D01*
X135332371Y-43325485D01*
X135520785Y-42871734D01*
X135521214Y-42380421D01*
X135333592Y-41926343D01*
X134986485Y-41578629D01*
X134532734Y-41390215D01*
X134041421Y-41389786D01*
X133587343Y-41577408D01*
X133239629Y-41924515D01*
X133051215Y-42378266D01*
X133050786Y-42869579D01*
X131312148Y-42869579D01*
X131256777Y-42752000D01*
X129413000Y-42752000D01*
X129159000Y-42752000D01*
X127315223Y-42752000D01*
X127195876Y-43005434D01*
X125465267Y-43005434D01*
X125520785Y-42871734D01*
X125521214Y-42380421D01*
X125465080Y-42244566D01*
X127195876Y-42244566D01*
X127315223Y-42498000D01*
X129159000Y-42498000D01*
X129159000Y-40990000D01*
X129413000Y-40990000D01*
X129413000Y-42498000D01*
X131256777Y-42498000D01*
X131376124Y-42244566D01*
X131345144Y-42116645D01*
X131031922Y-41558683D01*
X130529020Y-41163058D01*
X129913000Y-40990000D01*
X129413000Y-40990000D01*
X129159000Y-40990000D01*
X128659000Y-40990000D01*
X128042980Y-41163058D01*
X127540078Y-41558683D01*
X127226856Y-42116645D01*
X127195876Y-42244566D01*
X125465080Y-42244566D01*
X125333592Y-41926343D01*
X124986485Y-41578629D01*
X124532734Y-41390215D01*
X124041421Y-41389786D01*
X123587343Y-41577408D01*
X123239629Y-41924515D01*
X123051215Y-42378266D01*
X123050786Y-42869579D01*
X109093000Y-42869579D01*
X109093000Y-40369579D01*
X123050786Y-40369579D01*
X123238408Y-40823657D01*
X123585515Y-41171371D01*
X124039266Y-41359785D01*
X124530579Y-41360214D01*
X124984657Y-41172592D01*
X125332371Y-40825485D01*
X125520785Y-40371734D01*
X125520786Y-40369579D01*
X133050786Y-40369579D01*
X133238408Y-40823657D01*
X133585515Y-41171371D01*
X134039266Y-41359785D01*
X134530579Y-41360214D01*
X134984657Y-41172592D01*
X135332371Y-40825485D01*
X135520785Y-40371734D01*
X135521214Y-39880421D01*
X135333592Y-39426343D01*
X134986485Y-39078629D01*
X134532734Y-38890215D01*
X134041421Y-38889786D01*
X133587343Y-39077408D01*
X133239629Y-39424515D01*
X133051215Y-39878266D01*
X133050786Y-40369579D01*
X125520786Y-40369579D01*
X125521214Y-39880421D01*
X125333592Y-39426343D01*
X124986485Y-39078629D01*
X124532734Y-38890215D01*
X124041421Y-38889786D01*
X123587343Y-39077408D01*
X123239629Y-39424515D01*
X123051215Y-39878266D01*
X123050786Y-40369579D01*
X109093000Y-40369579D01*
X109093000Y-38810000D01*
X126544000Y-38810000D01*
X126544000Y-39370000D01*
G36*
X108077000Y-50431000D02*
X107981750Y-50431000D01*
X107823000Y-50589750D01*
X107823000Y-51689000D01*
X107843000Y-51689000D01*
X107843000Y-51943000D01*
X107823000Y-51943000D01*
X107823000Y-53042250D01*
X107981750Y-53201000D01*
X108077000Y-53201000D01*
X108077000Y-53213000D01*
X108087006Y-53262410D01*
X108114197Y-53302803D01*
X115189000Y-60377606D01*
X115189000Y-64008000D01*
X115199006Y-64057410D01*
X115227447Y-64099035D01*
X115269841Y-64126315D01*
X115316000Y-64135000D01*
X119816093Y-64135000D01*
X121303098Y-66613341D01*
X121337100Y-66650562D01*
X121382903Y-66671622D01*
X121412000Y-66675000D01*
X121843668Y-66675000D01*
X120950521Y-67568147D01*
X120809186Y-67779671D01*
X120809186Y-67779672D01*
X120779617Y-67928323D01*
X120710867Y-67996952D01*
X120584699Y-68300800D01*
X120584412Y-68629801D01*
X120710050Y-68933868D01*
X120942485Y-69166710D01*
X121246333Y-69292878D01*
X121316404Y-69292939D01*
X121522000Y-69498534D01*
X121522000Y-71222945D01*
X119016000Y-68716944D01*
X119016000Y-67192673D01*
X119064688Y-67144070D01*
X119190856Y-66840222D01*
X119191143Y-66511221D01*
X119065505Y-66207154D01*
X118833070Y-65974312D01*
X118529222Y-65848144D01*
X118200221Y-65847857D01*
X117896154Y-65973495D01*
X117663312Y-66205930D01*
X117537144Y-66509778D01*
X117536857Y-66838779D01*
X117662495Y-67142846D01*
X117712000Y-67192438D01*
X117712000Y-68987007D01*
X117711999Y-68987012D01*
X117750065Y-69178376D01*
X117761631Y-69236522D01*
X117864796Y-69390920D01*
X117902966Y-69448046D01*
X118212609Y-69757689D01*
X118150154Y-69783495D01*
X117917312Y-70015930D01*
X117791144Y-70319778D01*
X117790857Y-70648779D01*
X117916495Y-70952846D01*
X117966000Y-71002438D01*
X117966000Y-72931669D01*
X111883298Y-66848966D01*
X111856823Y-66831276D01*
X111671774Y-66707631D01*
X111630377Y-66699396D01*
X111422264Y-66657999D01*
X111422259Y-66658000D01*
X111261673Y-66658000D01*
X111213070Y-66609312D01*
X110909222Y-66483144D01*
X110580221Y-66482857D01*
X110276154Y-66608495D01*
X110043312Y-66840930D01*
X109968038Y-67022210D01*
X109893222Y-66991144D01*
X109564221Y-66990857D01*
X109343926Y-67081881D01*
X109285054Y-66993774D01*
X109285143Y-66892221D01*
X109159505Y-66588154D01*
X108927070Y-66355312D01*
X108623222Y-66229144D01*
X108294221Y-66228857D01*
X107990154Y-66354495D01*
X107826215Y-66518147D01*
X107507083Y-66199015D01*
X107507143Y-66130221D01*
X107381505Y-65826154D01*
X107149070Y-65593312D01*
X106845222Y-65467144D01*
X106516221Y-65466857D01*
X106212154Y-65592495D01*
X105979312Y-65824930D01*
X105853144Y-66128778D01*
X105852857Y-66457779D01*
X105978495Y-66761846D01*
X106210930Y-66994688D01*
X106514778Y-67120856D01*
X106584849Y-67120917D01*
X108332214Y-68868282D01*
X108130673Y-68784595D01*
X108060601Y-68784534D01*
X107649034Y-68372966D01*
X107628827Y-68359464D01*
X107403070Y-68133312D01*
X107099222Y-68007144D01*
X106770221Y-68006857D01*
X106466154Y-68132495D01*
X106233312Y-68364930D01*
X106107144Y-68668778D01*
X106106857Y-68997779D01*
X106232495Y-69301846D01*
X106464930Y-69534688D01*
X106768778Y-69660856D01*
X107093071Y-69661139D01*
X107138368Y-69706435D01*
X107138308Y-69775230D01*
X107263946Y-70079297D01*
X107496381Y-70312139D01*
X107800229Y-70438307D01*
X108129230Y-70438594D01*
X108433297Y-70312956D01*
X108666139Y-70080521D01*
X108792307Y-69776673D01*
X108792594Y-69447672D01*
X108708795Y-69244863D01*
X117712000Y-78248067D01*
X117712000Y-87359933D01*
X116491015Y-88580917D01*
X116422221Y-88580857D01*
X116118154Y-88706495D01*
X115885312Y-88938930D01*
X115769432Y-89218001D01*
X113330004Y-89218001D01*
X113329999Y-89218000D01*
X113080490Y-89267631D01*
X113080488Y-89267632D01*
X113080489Y-89267632D01*
X112967774Y-89342946D01*
X112866221Y-89342857D01*
X112562154Y-89468495D01*
X112329312Y-89700930D01*
X112203144Y-90004778D01*
X112202857Y-90333779D01*
X112328495Y-90637846D01*
X112560930Y-90870688D01*
X112864778Y-90996856D01*
X113193779Y-90997143D01*
X113497846Y-90871505D01*
X113730688Y-90639070D01*
X113779299Y-90522001D01*
X116123994Y-90522001D01*
X116123999Y-90522002D01*
X116332112Y-90480605D01*
X116373509Y-90472370D01*
X116585033Y-90331035D01*
X116680985Y-90235083D01*
X116749779Y-90235143D01*
X117053846Y-90109505D01*
X117286688Y-89877070D01*
X117412856Y-89573222D01*
X117412917Y-89503151D01*
X118237000Y-88679068D01*
X119568917Y-90010985D01*
X119568857Y-90079779D01*
X119694495Y-90383846D01*
X119926930Y-90616688D01*
X120230778Y-90742856D01*
X120559779Y-90743143D01*
X120863846Y-90617505D01*
X121096688Y-90385070D01*
X121222856Y-90081222D01*
X121223143Y-89752221D01*
X121097505Y-89448154D01*
X120930555Y-89280912D01*
X121096688Y-89115070D01*
X121222856Y-88811222D01*
X121223143Y-88482221D01*
X121097505Y-88178154D01*
X121048000Y-88128562D01*
X121048000Y-80311246D01*
X132083786Y-91347032D01*
X132083788Y-91347035D01*
X132295312Y-91488370D01*
X132328881Y-91495047D01*
X132394495Y-91653846D01*
X132626930Y-91886688D01*
X132930778Y-92012856D01*
X133259779Y-92013143D01*
X133563846Y-91887505D01*
X133613438Y-91838000D01*
X134082111Y-91838000D01*
X134127337Y-91905686D01*
X134574068Y-92204182D01*
X135101023Y-92309000D01*
X135154977Y-92309000D01*
X135681932Y-92204182D01*
X135746000Y-92161373D01*
X135746000Y-93462327D01*
X135697312Y-93510930D01*
X135571144Y-93814778D01*
X135570857Y-94143779D01*
X135696495Y-94447846D01*
X135928930Y-94680688D01*
X136232778Y-94806856D01*
X136561779Y-94807143D01*
X136865846Y-94681505D01*
X137098688Y-94449070D01*
X137224856Y-94145222D01*
X137225143Y-93816221D01*
X137099505Y-93512154D01*
X137050000Y-93462562D01*
X137050000Y-92250863D01*
X137311108Y-92373486D01*
X137541000Y-92252819D01*
X137541000Y-91059000D01*
X137521000Y-91059000D01*
X137521000Y-90805000D01*
X137541000Y-90805000D01*
X137541000Y-90785000D01*
X137795000Y-90785000D01*
X137795000Y-90805000D01*
X137815000Y-90805000D01*
X137815000Y-91059000D01*
X137795000Y-91059000D01*
X137795000Y-92252819D01*
X138024892Y-92373486D01*
X138404905Y-92195022D01*
X138365144Y-92290778D01*
X138364857Y-92619779D01*
X138490495Y-92923846D01*
X138722930Y-93156688D01*
X139026778Y-93282856D01*
X139355779Y-93283143D01*
X139556000Y-93200413D01*
X139556000Y-94224327D01*
X139507312Y-94272930D01*
X139381144Y-94576778D01*
X139380857Y-94905779D01*
X139506495Y-95209846D01*
X139738930Y-95442688D01*
X140042778Y-95568856D01*
X140371779Y-95569143D01*
X140675846Y-95443505D01*
X140908688Y-95211070D01*
X141034856Y-94907222D01*
X141035143Y-94578221D01*
X140909505Y-94274154D01*
X140860000Y-94224562D01*
X140860000Y-91959963D01*
X140925298Y-91894779D01*
X141051466Y-91590931D01*
X141051753Y-91261930D01*
X140926115Y-90957863D01*
X140693680Y-90725021D01*
X140389832Y-90598853D01*
X140060831Y-90598566D01*
X139844000Y-90688159D01*
X139844000Y-87646068D01*
X141106676Y-86383392D01*
X141106676Y-87718000D01*
X141143423Y-87913294D01*
X141258842Y-88092660D01*
X141434951Y-88212990D01*
X141644000Y-88255324D01*
X141761215Y-88255324D01*
X141493337Y-88434314D01*
X141194841Y-88881045D01*
X141090023Y-89408000D01*
X141194841Y-89934955D01*
X141493337Y-90381686D01*
X141940068Y-90680182D01*
X142467023Y-90785000D01*
X142520977Y-90785000D01*
X143047932Y-90680182D01*
X143494663Y-90381686D01*
X143793159Y-89934955D01*
X143897977Y-89408000D01*
X143793159Y-88881045D01*
X143494663Y-88434314D01*
X143226785Y-88255324D01*
X143344000Y-88255324D01*
X143539294Y-88218577D01*
X143718660Y-88103158D01*
X143838990Y-87927049D01*
X143881324Y-87718000D01*
X143881324Y-86018000D01*
X143844577Y-85822706D01*
X143754831Y-85683237D01*
X144593892Y-84844176D01*
X144606039Y-84825997D01*
X144735227Y-84632652D01*
X144784858Y-84383142D01*
X144784858Y-79987900D01*
X145045109Y-79727648D01*
X145113904Y-79727708D01*
X145276998Y-79660319D01*
X145276994Y-79664746D01*
X145402632Y-79968813D01*
X145635067Y-80201655D01*
X145938915Y-80327823D01*
X146008986Y-80327884D01*
X148666192Y-82985089D01*
X148543222Y-82984982D01*
X148239155Y-83110620D01*
X148006313Y-83343055D01*
X147885918Y-83633000D01*
X146139722Y-83633000D01*
X146091119Y-83584312D01*
X145787271Y-83458144D01*
X145458270Y-83457857D01*
X145154203Y-83583495D01*
X144921361Y-83815930D01*
X144795193Y-84119778D01*
X144794906Y-84448779D01*
X144920544Y-84752846D01*
X145152979Y-84985688D01*
X145456827Y-85111856D01*
X145785828Y-85112143D01*
X146089895Y-84986505D01*
X146139487Y-84937000D01*
X148234121Y-84937000D01*
X148234126Y-84937001D01*
X148442239Y-84895604D01*
X148483636Y-84887369D01*
X148680011Y-84756156D01*
X148680011Y-88791006D01*
X148680010Y-88791011D01*
X148711799Y-88950819D01*
X148729642Y-89040521D01*
X148808467Y-89158491D01*
X148870977Y-89252045D01*
X155276441Y-95657508D01*
X155247222Y-95727875D01*
X155246779Y-96235897D01*
X155440781Y-96705417D01*
X155799693Y-97064957D01*
X156204804Y-97233173D01*
X155801583Y-97399781D01*
X155442043Y-97758693D01*
X155401832Y-97855532D01*
X155390460Y-97828077D01*
X155149517Y-97760088D01*
X154357605Y-98552000D01*
X155149517Y-99343912D01*
X155390460Y-99275923D01*
X155427227Y-99172614D01*
X155440781Y-99205417D01*
X155799693Y-99564957D01*
X156268875Y-99759778D01*
X156776897Y-99760221D01*
X157246417Y-99566219D01*
X157605957Y-99207307D01*
X157800778Y-98738125D01*
X157801221Y-98230103D01*
X157771323Y-98157745D01*
X158060035Y-97869033D01*
X158112843Y-97790000D01*
X158201370Y-97657509D01*
X158224647Y-97540491D01*
X158251002Y-97407999D01*
X158251001Y-97407994D01*
X158251001Y-85081464D01*
X158251002Y-85081459D01*
X158201371Y-84831950D01*
X158141022Y-84741631D01*
X158060035Y-84620425D01*
X158060032Y-84620423D01*
X156793390Y-83353781D01*
X157077932Y-83297182D01*
X157524663Y-82998686D01*
X157823159Y-82551955D01*
X157927977Y-82025000D01*
X157823159Y-81498045D01*
X157524663Y-81051314D01*
X157081198Y-80755000D01*
X157524663Y-80458686D01*
X157823159Y-80011955D01*
X157927977Y-79485000D01*
X157823159Y-78958045D01*
X157524663Y-78511314D01*
X157081198Y-78215000D01*
X157524663Y-77918686D01*
X157823159Y-77471955D01*
X157927977Y-76945000D01*
X157823159Y-76418045D01*
X157524663Y-75971314D01*
X157081198Y-75675000D01*
X157524663Y-75378686D01*
X157823159Y-74931955D01*
X157927977Y-74405000D01*
X157823159Y-73878045D01*
X157524663Y-73431314D01*
X157149238Y-73180463D01*
X157405358Y-73060183D01*
X157795645Y-72631924D01*
X157965476Y-72221890D01*
X157844155Y-71992000D01*
X156651000Y-71992000D01*
X156651000Y-72012000D01*
X156397000Y-72012000D01*
X156397000Y-71992000D01*
X155203845Y-71992000D01*
X155144852Y-72103784D01*
X153065034Y-70023966D01*
X152988024Y-69972510D01*
X152853510Y-69882631D01*
X152812113Y-69874396D01*
X152604000Y-69832999D01*
X152603995Y-69833000D01*
X152426226Y-69833000D01*
X152426316Y-69729752D01*
X152545318Y-69610750D01*
X155039000Y-69610750D01*
X155039000Y-70301310D01*
X155135673Y-70534699D01*
X155314302Y-70713327D01*
X155523878Y-70800136D01*
X155252355Y-71098076D01*
X155082524Y-71508110D01*
X155203845Y-71738000D01*
X156397000Y-71738000D01*
X156397000Y-69452000D01*
X156651000Y-69452000D01*
X156651000Y-71738000D01*
X157844155Y-71738000D01*
X157965476Y-71508110D01*
X157795645Y-71098076D01*
X157524122Y-70800136D01*
X157733698Y-70713327D01*
X157912327Y-70534699D01*
X158009000Y-70301310D01*
X158009000Y-69610750D01*
X157850250Y-69452000D01*
X156651000Y-69452000D01*
X156397000Y-69452000D01*
X155197750Y-69452000D01*
X155039000Y-69610750D01*
X152545318Y-69610750D01*
X153807378Y-68348690D01*
X155039000Y-68348690D01*
X155039000Y-69039250D01*
X155197750Y-69198000D01*
X156397000Y-69198000D01*
X156397000Y-67998750D01*
X156651000Y-67998750D01*
X156651000Y-69198000D01*
X157850250Y-69198000D01*
X158009000Y-69039250D01*
X158009000Y-68348690D01*
X157912327Y-68115301D01*
X157733698Y-67936673D01*
X157500309Y-67840000D01*
X156809750Y-67840000D01*
X156651000Y-67998750D01*
X156397000Y-67998750D01*
X156238250Y-67840000D01*
X155547691Y-67840000D01*
X155314302Y-67936673D01*
X155135673Y-68115301D01*
X155039000Y-68348690D01*
X153807378Y-68348690D01*
X154018985Y-68137083D01*
X154087779Y-68137143D01*
X154391846Y-68011505D01*
X154624688Y-67779070D01*
X154750856Y-67475222D01*
X154751143Y-67146221D01*
X154625505Y-66842154D01*
X154393070Y-66609312D01*
X154089222Y-66483144D01*
X153760221Y-66482857D01*
X153456154Y-66608495D01*
X153223312Y-66840930D01*
X153097144Y-67144778D01*
X153097083Y-67214849D01*
X151169002Y-69142930D01*
X151131356Y-69158485D01*
X150898514Y-69390920D01*
X150772346Y-69694768D01*
X150772225Y-69833000D01*
X147828005Y-69833000D01*
X147828000Y-69832999D01*
X147578491Y-69882630D01*
X147572282Y-69886779D01*
X147366966Y-70023966D01*
X147366964Y-70023969D01*
X146971015Y-70419917D01*
X146902221Y-70419857D01*
X146598154Y-70545495D01*
X146548562Y-70595000D01*
X144780000Y-70595000D01*
X144530490Y-70644631D01*
X144450761Y-70697904D01*
X144338272Y-70697806D01*
X144034205Y-70823444D01*
X143801363Y-71055879D01*
X143675195Y-71359727D01*
X143674908Y-71688728D01*
X143800546Y-71992795D01*
X144032981Y-72225637D01*
X144336829Y-72351805D01*
X144665830Y-72352092D01*
X144969897Y-72226454D01*
X145202739Y-71994019D01*
X145242194Y-71899000D01*
X146548327Y-71899000D01*
X146596930Y-71947688D01*
X146900778Y-72073856D01*
X147229779Y-72074143D01*
X147533846Y-71948505D01*
X147766688Y-71716070D01*
X147892856Y-71412222D01*
X147892917Y-71342150D01*
X148098067Y-71137000D01*
X150291089Y-71137000D01*
X150290970Y-71273789D01*
X150416608Y-71577856D01*
X150649043Y-71810698D01*
X150952891Y-71936866D01*
X151281892Y-71937153D01*
X151382079Y-71895757D01*
X151381858Y-71896289D01*
X151381797Y-71966361D01*
X150357965Y-72990192D01*
X150216630Y-73201716D01*
X150213561Y-73217143D01*
X150166998Y-73451226D01*
X150166999Y-73451231D01*
X150166999Y-76236302D01*
X150166998Y-76236307D01*
X150200159Y-76403013D01*
X150216630Y-76485817D01*
X150357965Y-76697341D01*
X150550083Y-76889458D01*
X150550023Y-76958253D01*
X150562160Y-76987626D01*
X148131121Y-74556587D01*
X148131143Y-74531221D01*
X148005505Y-74227154D01*
X147773070Y-73994312D01*
X147469222Y-73868144D01*
X147140221Y-73867857D01*
X146836154Y-73993495D01*
X146603312Y-74225930D01*
X146477144Y-74529778D01*
X146476857Y-74858779D01*
X146589065Y-75130344D01*
X146496439Y-75222808D01*
X144910841Y-73637210D01*
X144910901Y-73568416D01*
X144785263Y-73264349D01*
X144552828Y-73031507D01*
X144248980Y-72905339D01*
X143919979Y-72905052D01*
X143615912Y-73030690D01*
X143508741Y-73137673D01*
X143371083Y-73000015D01*
X143371143Y-72931221D01*
X143245505Y-72627154D01*
X143013070Y-72394312D01*
X142709222Y-72268144D01*
X142380221Y-72267857D01*
X142076154Y-72393495D01*
X141843312Y-72625930D01*
X141717144Y-72929778D01*
X141716857Y-73258779D01*
X141842495Y-73562846D01*
X142074930Y-73795688D01*
X142378778Y-73921856D01*
X142448849Y-73921917D01*
X142584387Y-74057455D01*
X142390425Y-74251077D01*
X142264257Y-74554925D01*
X142263970Y-74883926D01*
X142385309Y-75177589D01*
X142273145Y-75447711D01*
X142272858Y-75776712D01*
X142398496Y-76080779D01*
X142630931Y-76313621D01*
X142934779Y-76439789D01*
X143004850Y-76439850D01*
X143081352Y-76516352D01*
X143055967Y-76516330D01*
X142751900Y-76641968D01*
X142519058Y-76874403D01*
X142392890Y-77178251D01*
X142392829Y-77248323D01*
X140666066Y-78975085D01*
X140560065Y-79133728D01*
X140373222Y-79056144D01*
X140303150Y-79056083D01*
X137003932Y-75756864D01*
X137323779Y-75757143D01*
X137627846Y-75631505D01*
X137860688Y-75399070D01*
X137986856Y-75095222D01*
X137987143Y-74766221D01*
X137861505Y-74462154D01*
X137629070Y-74229312D01*
X137553942Y-74198116D01*
X144532278Y-67219779D01*
X149540857Y-67219779D01*
X149666495Y-67523846D01*
X149898930Y-67756688D01*
X150202778Y-67882856D01*
X150531779Y-67883143D01*
X150835846Y-67757505D01*
X151068688Y-67525070D01*
X151194856Y-67221222D01*
X151195143Y-66892221D01*
X151172035Y-66836297D01*
X152734034Y-65274298D01*
X152875370Y-65062773D01*
X152901817Y-64929815D01*
X152973688Y-64858070D01*
X153099856Y-64554222D01*
X153100143Y-64225221D01*
X152974505Y-63921154D01*
X152742070Y-63688312D01*
X152438222Y-63562144D01*
X152109221Y-63561857D01*
X151805154Y-63687495D01*
X151572312Y-63919930D01*
X151446144Y-64223778D01*
X151445857Y-64552779D01*
X151494264Y-64669932D01*
X149906966Y-66257230D01*
X149765631Y-66468754D01*
X149765631Y-66468755D01*
X149760660Y-66493745D01*
X149667312Y-66586930D01*
X149541144Y-66890778D01*
X149540857Y-67219779D01*
X144532278Y-67219779D01*
X148684984Y-63067073D01*
X148753779Y-63067133D01*
X149057846Y-62941495D01*
X149290688Y-62709060D01*
X149416856Y-62405212D01*
X149417143Y-62076211D01*
X149291505Y-61772144D01*
X149059070Y-61539302D01*
X148755222Y-61413134D01*
X148649539Y-61413042D01*
X148695530Y-61367051D01*
X148764325Y-61367111D01*
X149068392Y-61241473D01*
X149301234Y-61009038D01*
X149427402Y-60705190D01*
X149427689Y-60376189D01*
X149302051Y-60072122D01*
X149069616Y-59839280D01*
X148765768Y-59713112D01*
X148436767Y-59712825D01*
X148132700Y-59838463D01*
X147899858Y-60070898D01*
X147773690Y-60374746D01*
X147773629Y-60444818D01*
X146999628Y-61218818D01*
X146579641Y-61218818D01*
X146750688Y-61048070D01*
X146876856Y-60744222D01*
X146877143Y-60415221D01*
X146751505Y-60111154D01*
X146519070Y-59878312D01*
X146215222Y-59752144D01*
X145886221Y-59751857D01*
X145582154Y-59877495D01*
X145532562Y-59927000D01*
X139579803Y-59927000D01*
X141333802Y-58173001D01*
X141961028Y-58173001D01*
X142046495Y-58379846D01*
X142278930Y-58612688D01*
X142582778Y-58738856D01*
X142911779Y-58739143D01*
X143215846Y-58613505D01*
X143265438Y-58564000D01*
X146802327Y-58564000D01*
X146850930Y-58612688D01*
X147154778Y-58738856D01*
X147483779Y-58739143D01*
X147787846Y-58613505D01*
X148020688Y-58381070D01*
X148146856Y-58077222D01*
X148147143Y-57748221D01*
X148021505Y-57444154D01*
X148008373Y-57430999D01*
X148270907Y-57430999D01*
X148270857Y-57488779D01*
X148396495Y-57792846D01*
X148628930Y-58025688D01*
X148932778Y-58151856D01*
X149261779Y-58152143D01*
X149565846Y-58026505D01*
X149798688Y-57794070D01*
X149924856Y-57490222D01*
X149925143Y-57161221D01*
X149799505Y-56857154D01*
X149567070Y-56624312D01*
X149263222Y-56498144D01*
X149193150Y-56498083D01*
X149013033Y-56317965D01*
X148987873Y-56301154D01*
X148801509Y-56176630D01*
X148760112Y-56168395D01*
X148551999Y-56126998D01*
X148551994Y-56126999D01*
X146600955Y-56126999D01*
X146601143Y-55911221D01*
X146475505Y-55607154D01*
X146243070Y-55374312D01*
X145939222Y-55248144D01*
X145610221Y-55247857D01*
X145306154Y-55373495D01*
X145256562Y-55423000D01*
X141274005Y-55423000D01*
X141274000Y-55422999D01*
X141024491Y-55472630D01*
X141024489Y-55472631D01*
X141024490Y-55472631D01*
X140812966Y-55613966D01*
X140812964Y-55613969D01*
X136179015Y-60247917D01*
X136110221Y-60247857D01*
X135806154Y-60373495D01*
X135573312Y-60605930D01*
X135447144Y-60909778D01*
X135446857Y-61238779D01*
X135572495Y-61542846D01*
X135804930Y-61775688D01*
X135862906Y-61799762D01*
X134239000Y-63423668D01*
X134239000Y-60885606D01*
X136995803Y-58128803D01*
X137023666Y-58086789D01*
X137033000Y-58039000D01*
X137033000Y-42331230D01*
X154082632Y-42331230D01*
X154405766Y-43113274D01*
X155003578Y-43712131D01*
X155785057Y-44036630D01*
X156631230Y-44037368D01*
X157413274Y-43714234D01*
X158012131Y-43116422D01*
X158336630Y-42334943D01*
X158337368Y-41488770D01*
X158014234Y-40706726D01*
X157416422Y-40107869D01*
X156634943Y-39783370D01*
X155788770Y-39782632D01*
X155006726Y-40105766D01*
X154407869Y-40703578D01*
X154083370Y-41485057D01*
X154082632Y-42331230D01*
X137033000Y-42331230D01*
X137033000Y-38702000D01*
X156404707Y-38702000D01*
X157589934Y-38937756D01*
X158544454Y-39575546D01*
X159182244Y-40530066D01*
X159418000Y-41715293D01*
X159418000Y-103826707D01*
X159182244Y-105011934D01*
X158544454Y-105966454D01*
X157589934Y-106604244D01*
X156570609Y-106807000D01*
X75077391Y-106807000D01*
X74058066Y-106604244D01*
X73103546Y-105966454D01*
X73041448Y-105873517D01*
X124430088Y-105873517D01*
X124498077Y-106114460D01*
X125017171Y-106299201D01*
X125567448Y-106271230D01*
X125945923Y-106114460D01*
X126013912Y-105873517D01*
X125222000Y-105081605D01*
X124430088Y-105873517D01*
X73041448Y-105873517D01*
X72465756Y-105011934D01*
X72275059Y-104053230D01*
X73310632Y-104053230D01*
X73633766Y-104835274D01*
X74231578Y-105434131D01*
X75013057Y-105758630D01*
X75859230Y-105759368D01*
X76641274Y-105436234D01*
X77240131Y-104838422D01*
X77381946Y-104496892D01*
X100920514Y-104496892D01*
X101166817Y-105021358D01*
X101595076Y-105411645D01*
X102005110Y-105581476D01*
X102235000Y-105460155D01*
X102235000Y-104267000D01*
X101041181Y-104267000D01*
X100920514Y-104496892D01*
X77381946Y-104496892D01*
X77564630Y-104056943D01*
X77564868Y-103783108D01*
X100920514Y-103783108D01*
X101041181Y-104013000D01*
X102235000Y-104013000D01*
X102235000Y-102819845D01*
X102489000Y-102819845D01*
X102489000Y-104013000D01*
X102509000Y-104013000D01*
X102509000Y-104267000D01*
X102489000Y-104267000D01*
X102489000Y-105460155D01*
X102718890Y-105581476D01*
X103128924Y-105411645D01*
X103525935Y-105049836D01*
X103551423Y-105185294D01*
X103666842Y-105364660D01*
X103842951Y-105484990D01*
X104052000Y-105527324D01*
X105752000Y-105527324D01*
X105947294Y-105490577D01*
X106126660Y-105375158D01*
X106246990Y-105199049D01*
X106289324Y-104990000D01*
X106289324Y-103290000D01*
X106252577Y-103094706D01*
X106137158Y-102915340D01*
X105961049Y-102795010D01*
X105752000Y-102752676D01*
X104052000Y-102752676D01*
X103856706Y-102789423D01*
X103677340Y-102904842D01*
X103557010Y-103080951D01*
X103526659Y-103230825D01*
X103128924Y-102868355D01*
X102718890Y-102698524D01*
X102489000Y-102819845D01*
X102235000Y-102819845D01*
X102005110Y-102698524D01*
X101595076Y-102868355D01*
X101166817Y-103258642D01*
X100920514Y-103783108D01*
X77564868Y-103783108D01*
X77565368Y-103210770D01*
X77242234Y-102428726D01*
X77131220Y-102317517D01*
X80488088Y-102317517D01*
X80556077Y-102558460D01*
X81075171Y-102743201D01*
X81625448Y-102715230D01*
X81805784Y-102640532D01*
X87205073Y-102640532D01*
X87303736Y-102907387D01*
X87913461Y-103133908D01*
X88563460Y-103109856D01*
X89052264Y-102907387D01*
X89150927Y-102640532D01*
X88178000Y-101667605D01*
X87205073Y-102640532D01*
X81805784Y-102640532D01*
X82003923Y-102558460D01*
X82071912Y-102317517D01*
X81280000Y-101525605D01*
X80488088Y-102317517D01*
X77131220Y-102317517D01*
X76644422Y-101829869D01*
X75862943Y-101505370D01*
X75016770Y-101504632D01*
X74234726Y-101827766D01*
X73635869Y-102425578D01*
X73311370Y-103207057D01*
X73310632Y-104053230D01*
X72275059Y-104053230D01*
X72230000Y-103826707D01*
X72230000Y-101141171D01*
X79882799Y-101141171D01*
X79910770Y-101691448D01*
X80067540Y-102069923D01*
X80308483Y-102137912D01*
X81100395Y-101346000D01*
X81459605Y-101346000D01*
X82251517Y-102137912D01*
X82492460Y-102069923D01*
X82677201Y-101550829D01*
X82660561Y-101223461D01*
X86532092Y-101223461D01*
X86556144Y-101873460D01*
X86758613Y-102362264D01*
X87025468Y-102460927D01*
X87998395Y-101488000D01*
X88357605Y-101488000D01*
X89330532Y-102460927D01*
X89597387Y-102362264D01*
X89823908Y-101752539D01*
X89799856Y-101102540D01*
X89597387Y-100613736D01*
X89330532Y-100515073D01*
X88357605Y-101488000D01*
X87998395Y-101488000D01*
X87025468Y-100515073D01*
X86758613Y-100613736D01*
X86532092Y-101223461D01*
X82660561Y-101223461D01*
X82649230Y-101000552D01*
X82492460Y-100622077D01*
X82251517Y-100554088D01*
X81459605Y-101346000D01*
X81100395Y-101346000D01*
X80308483Y-100554088D01*
X80067540Y-100622077D01*
X79882799Y-101141171D01*
X72230000Y-101141171D01*
X72230000Y-100374483D01*
X80488088Y-100374483D01*
X81280000Y-101166395D01*
X82071912Y-100374483D01*
X82060903Y-100335468D01*
X87205073Y-100335468D01*
X88178000Y-101308395D01*
X89150927Y-100335468D01*
X89052264Y-100068613D01*
X88442539Y-99842092D01*
X87792540Y-99866144D01*
X87303736Y-100068613D01*
X87205073Y-100335468D01*
X82060903Y-100335468D01*
X82003923Y-100133540D01*
X81484829Y-99948799D01*
X80934552Y-99976770D01*
X80556077Y-100133540D01*
X80488088Y-100374483D01*
X72230000Y-100374483D01*
X72230000Y-87986890D01*
X73742524Y-87986890D01*
X73912355Y-88396924D01*
X74302642Y-88825183D01*
X74558762Y-88945463D01*
X74183337Y-89196314D01*
X73884841Y-89643045D01*
X73780023Y-90170000D01*
X73884841Y-90696955D01*
X74183337Y-91143686D01*
X74626802Y-91440000D01*
X74183337Y-91736314D01*
X73884841Y-92183045D01*
X73780023Y-92710000D01*
X73884841Y-93236955D01*
X74183337Y-93683686D01*
X74626802Y-93980000D01*
X74183337Y-94276314D01*
X73884841Y-94723045D01*
X73780023Y-95250000D01*
X73884841Y-95776955D01*
X74183337Y-96223686D01*
X74626802Y-96520000D01*
X74183337Y-96816314D01*
X73884841Y-97263045D01*
X73780023Y-97790000D01*
X73884841Y-98316955D01*
X74183337Y-98763686D01*
X74630068Y-99062182D01*
X75157023Y-99167000D01*
X75210977Y-99167000D01*
X75737932Y-99062182D01*
X76184663Y-98763686D01*
X76483159Y-98316955D01*
X76587977Y-97790000D01*
X76483159Y-97263045D01*
X76184663Y-96816314D01*
X75741198Y-96520000D01*
X76184663Y-96223686D01*
X76483159Y-95776955D01*
X76587977Y-95250000D01*
X76483159Y-94723045D01*
X76184663Y-94276314D01*
X75741198Y-93980000D01*
X76184663Y-93683686D01*
X76483159Y-93236955D01*
X76587977Y-92710000D01*
X76573656Y-92638000D01*
X83090676Y-92638000D01*
X83090676Y-96338000D01*
X83127423Y-96533294D01*
X83242842Y-96712660D01*
X83418951Y-96832990D01*
X83628000Y-96875324D01*
X86328000Y-96875324D01*
X86523294Y-96838577D01*
X86702660Y-96723158D01*
X86822990Y-96547049D01*
X86865324Y-96338000D01*
X86865324Y-92638000D01*
X86828577Y-92442706D01*
X86713158Y-92263340D01*
X86537049Y-92143010D01*
X86328000Y-92100676D01*
X83628000Y-92100676D01*
X83432706Y-92137423D01*
X83253340Y-92252842D01*
X83133010Y-92428951D01*
X83090676Y-92638000D01*
X76573656Y-92638000D01*
X76483159Y-92183045D01*
X76184663Y-91736314D01*
X75741198Y-91440000D01*
X76184663Y-91143686D01*
X76483159Y-90696955D01*
X76587977Y-90170000D01*
X76483159Y-89643045D01*
X76184663Y-89196314D01*
X75809238Y-88945463D01*
X76065358Y-88825183D01*
X76455645Y-88396924D01*
X76625476Y-87986890D01*
X76504155Y-87757000D01*
X75311000Y-87757000D01*
X75311000Y-87777000D01*
X75057000Y-87777000D01*
X75057000Y-87757000D01*
X73863845Y-87757000D01*
X73742524Y-87986890D01*
X72230000Y-87986890D01*
X72230000Y-85375750D01*
X73699000Y-85375750D01*
X73699000Y-86066310D01*
X73795673Y-86299699D01*
X73974302Y-86478327D01*
X74183878Y-86565136D01*
X73912355Y-86863076D01*
X73742524Y-87273110D01*
X73863845Y-87503000D01*
X75057000Y-87503000D01*
X75057000Y-85217000D01*
X75311000Y-85217000D01*
X75311000Y-87503000D01*
X76504155Y-87503000D01*
X76625476Y-87273110D01*
X76455645Y-86863076D01*
X76184122Y-86565136D01*
X76393698Y-86478327D01*
X76572327Y-86299699D01*
X76669000Y-86066310D01*
X76669000Y-85375750D01*
X76510250Y-85217000D01*
X75311000Y-85217000D01*
X75057000Y-85217000D01*
X73857750Y-85217000D01*
X73699000Y-85375750D01*
X72230000Y-85375750D01*
X72230000Y-84113690D01*
X73699000Y-84113690D01*
X73699000Y-84804250D01*
X73857750Y-84963000D01*
X75057000Y-84963000D01*
X75057000Y-83763750D01*
X75311000Y-83763750D01*
X75311000Y-84963000D01*
X76510250Y-84963000D01*
X76669000Y-84804250D01*
X76669000Y-84113690D01*
X76572327Y-83880301D01*
X76393698Y-83701673D01*
X76160309Y-83605000D01*
X75469750Y-83605000D01*
X75311000Y-83763750D01*
X75057000Y-83763750D01*
X74898250Y-83605000D01*
X74207691Y-83605000D01*
X73974302Y-83701673D01*
X73795673Y-83880301D01*
X73699000Y-84113690D01*
X72230000Y-84113690D01*
X72230000Y-80494730D01*
X73183632Y-80494730D01*
X73506766Y-81276774D01*
X74104578Y-81875631D01*
X74886057Y-82200130D01*
X75732230Y-82200868D01*
X76514274Y-81877734D01*
X77113131Y-81279922D01*
X77437630Y-80498443D01*
X77438368Y-79652270D01*
X77115234Y-78870226D01*
X76517422Y-78271369D01*
X75735943Y-77946870D01*
X74889770Y-77946132D01*
X74107726Y-78269266D01*
X73508869Y-78867078D01*
X73184370Y-79648557D01*
X73183632Y-80494730D01*
X72230000Y-80494730D01*
X72230000Y-72553779D01*
X78166857Y-72553779D01*
X78292495Y-72857846D01*
X78524930Y-73090688D01*
X78828778Y-73216856D01*
X79157779Y-73217143D01*
X79334186Y-73144253D01*
X79436917Y-73246984D01*
X79436857Y-73315779D01*
X79562495Y-73619846D01*
X79794930Y-73852688D01*
X80098778Y-73978856D01*
X80427779Y-73979143D01*
X80731846Y-73853505D01*
X80964688Y-73621070D01*
X81090856Y-73317222D01*
X81091143Y-72988221D01*
X80965505Y-72684154D01*
X80733070Y-72451312D01*
X80585425Y-72390005D01*
X80731846Y-72329505D01*
X80761624Y-72299779D01*
X84516857Y-72299779D01*
X84642495Y-72603846D01*
X84874930Y-72836688D01*
X85178778Y-72962856D01*
X85248849Y-72962917D01*
X85532917Y-73246985D01*
X85532857Y-73315779D01*
X85658495Y-73619846D01*
X85890930Y-73852688D01*
X86194778Y-73978856D01*
X86523779Y-73979143D01*
X86827846Y-73853505D01*
X87060688Y-73621070D01*
X87186856Y-73317222D01*
X87187143Y-72988221D01*
X87061505Y-72684154D01*
X86829070Y-72451312D01*
X86525222Y-72325144D01*
X86455151Y-72325083D01*
X86171083Y-72041015D01*
X86171143Y-71972221D01*
X86045505Y-71668154D01*
X85813070Y-71435312D01*
X85509222Y-71309144D01*
X85180221Y-71308857D01*
X84876154Y-71434495D01*
X84643312Y-71666930D01*
X84517144Y-71970778D01*
X84516857Y-72299779D01*
X80761624Y-72299779D01*
X80964688Y-72097070D01*
X81090856Y-71793222D01*
X81091143Y-71464221D01*
X80965505Y-71160154D01*
X80916000Y-71110562D01*
X80916000Y-62335085D01*
X82983237Y-62335085D01*
X83090010Y-62593496D01*
X82993144Y-62826778D01*
X82992857Y-63155779D01*
X83118495Y-63459846D01*
X83350930Y-63692688D01*
X83654778Y-63818856D01*
X83983779Y-63819143D01*
X84287846Y-63693505D01*
X84337438Y-63644000D01*
X88391995Y-63644000D01*
X88392000Y-63644001D01*
X88600113Y-63602604D01*
X88641510Y-63594369D01*
X88685412Y-63565035D01*
X88809779Y-63565143D01*
X89113846Y-63439505D01*
X89346688Y-63207070D01*
X89472856Y-62903222D01*
X89473143Y-62574221D01*
X89347505Y-62270154D01*
X89115070Y-62037312D01*
X88811222Y-61911144D01*
X88482221Y-61910857D01*
X88178154Y-62036495D01*
X87945312Y-62268930D01*
X87915801Y-62340000D01*
X87347075Y-62340000D01*
X88584988Y-61102086D01*
X88653783Y-61102146D01*
X88957850Y-60976508D01*
X89190692Y-60744073D01*
X89316860Y-60440225D01*
X89317147Y-60111224D01*
X89191509Y-59807157D01*
X88959074Y-59574315D01*
X88655226Y-59448147D01*
X88326225Y-59447860D01*
X88022158Y-59573498D01*
X87789316Y-59805933D01*
X87663148Y-60109781D01*
X87663087Y-60179853D01*
X86323633Y-61519306D01*
X84328053Y-61519306D01*
X84279450Y-61470618D01*
X83975602Y-61344450D01*
X83646601Y-61344163D01*
X83342534Y-61469801D01*
X83109692Y-61702236D01*
X82983524Y-62006084D01*
X82983237Y-62335085D01*
X80916000Y-62335085D01*
X80916000Y-55162039D01*
X81210626Y-55162296D01*
X81514693Y-55036658D01*
X81747535Y-54804223D01*
X81796146Y-54687154D01*
X83971603Y-54687154D01*
X83971608Y-54687155D01*
X84179721Y-54645758D01*
X84221118Y-54637523D01*
X84432642Y-54496188D01*
X84432643Y-54496187D01*
X86967958Y-51960871D01*
X87152887Y-52146124D01*
X87311098Y-52211819D01*
X87310857Y-52487779D01*
X87436495Y-52791846D01*
X87668930Y-53024688D01*
X87972778Y-53150856D01*
X88301779Y-53151143D01*
X88605846Y-53025505D01*
X88655438Y-52976000D01*
X90922327Y-52976000D01*
X90970930Y-53024688D01*
X91274778Y-53150856D01*
X91603779Y-53151143D01*
X91907846Y-53025505D01*
X92140688Y-52793070D01*
X92266856Y-52489222D01*
X92267143Y-52160348D01*
X92312000Y-52178975D01*
X92312000Y-54085933D01*
X91599015Y-54798917D01*
X91530221Y-54798857D01*
X91226154Y-54924495D01*
X90993312Y-55156930D01*
X90867144Y-55460778D01*
X90866857Y-55789779D01*
X90992495Y-56093846D01*
X91224930Y-56326688D01*
X91528778Y-56452856D01*
X91857779Y-56453143D01*
X92161846Y-56327505D01*
X92394688Y-56095070D01*
X92520856Y-55791222D01*
X92520917Y-55721151D01*
X93425031Y-54817036D01*
X93425034Y-54817034D01*
X93566369Y-54605510D01*
X93616000Y-54356000D01*
X93616000Y-52179299D01*
X93693206Y-52147398D01*
X93764999Y-52075730D01*
X93764999Y-55300994D01*
X93764998Y-55300999D01*
X93806395Y-55509112D01*
X93814630Y-55550509D01*
X93896453Y-55672966D01*
X93955965Y-55762033D01*
X94609016Y-56415084D01*
X94528154Y-56448495D01*
X94478562Y-56498000D01*
X85861673Y-56498000D01*
X85813070Y-56449312D01*
X85509222Y-56323144D01*
X85180221Y-56322857D01*
X84876154Y-56448495D01*
X84643312Y-56680930D01*
X84517144Y-56984778D01*
X84516857Y-57313779D01*
X84642495Y-57617846D01*
X84874930Y-57850688D01*
X85178778Y-57976856D01*
X85507779Y-57977143D01*
X85811846Y-57851505D01*
X85861438Y-57802000D01*
X92785239Y-57802000D01*
X92750154Y-57816497D01*
X92517312Y-58048932D01*
X92391144Y-58352780D01*
X92390857Y-58681781D01*
X92516495Y-58985848D01*
X92748930Y-59218690D01*
X93052778Y-59344858D01*
X93122849Y-59344919D01*
X94436964Y-60659034D01*
X94648488Y-60800369D01*
X94689885Y-60808604D01*
X94897998Y-60850001D01*
X94898003Y-60850000D01*
X96764327Y-60850000D01*
X96812930Y-60898688D01*
X97116778Y-61024856D01*
X97255001Y-61024977D01*
X97255001Y-62926976D01*
X97118221Y-62926857D01*
X96814154Y-63052495D01*
X96581312Y-63284930D01*
X96455144Y-63588778D01*
X96454857Y-63917779D01*
X96580495Y-64221846D01*
X96617258Y-64258674D01*
X95984916Y-64891016D01*
X95951505Y-64810154D01*
X95719070Y-64577312D01*
X95415222Y-64451144D01*
X95086221Y-64450857D01*
X94782154Y-64576495D01*
X94549312Y-64808930D01*
X94423144Y-65112778D01*
X94423083Y-65182849D01*
X93909956Y-65695976D01*
X93768621Y-65907500D01*
X93768621Y-65907501D01*
X93718989Y-66157010D01*
X93718990Y-66157015D01*
X93718990Y-66679194D01*
X93544618Y-66606789D01*
X93215617Y-66606502D01*
X93007930Y-66692317D01*
X92925070Y-66609312D01*
X92621222Y-66483144D01*
X92292221Y-66482857D01*
X91988154Y-66608495D01*
X91755312Y-66840930D01*
X91629144Y-67144778D01*
X91628975Y-67338654D01*
X91374499Y-67338432D01*
X90997083Y-66961015D01*
X90997143Y-66892221D01*
X90871505Y-66588154D01*
X90639070Y-66355312D01*
X90616533Y-66345954D01*
X92048486Y-64914000D01*
X92192327Y-64914000D01*
X92240930Y-64962688D01*
X92544778Y-65088856D01*
X92873779Y-65089143D01*
X93177846Y-64963505D01*
X93410688Y-64731070D01*
X93536856Y-64427222D01*
X93537143Y-64098221D01*
X93411505Y-63794154D01*
X93179070Y-63561312D01*
X92875222Y-63435144D01*
X92546221Y-63434857D01*
X92242154Y-63560495D01*
X92192562Y-63610000D01*
X91778419Y-63610000D01*
X91528909Y-63659631D01*
X91317385Y-63800966D01*
X91317383Y-63800969D01*
X88438966Y-66679385D01*
X88297631Y-66890909D01*
X88290947Y-66924510D01*
X88247999Y-67140419D01*
X88248000Y-67140424D01*
X88248000Y-83549933D01*
X86265015Y-85532917D01*
X86196221Y-85532857D01*
X85892154Y-85658495D01*
X85659312Y-85890930D01*
X85533144Y-86194778D01*
X85532857Y-86523779D01*
X85658495Y-86827846D01*
X85890930Y-87060688D01*
X86194778Y-87186856D01*
X86523779Y-87187143D01*
X86650871Y-87134630D01*
X86650735Y-87290407D01*
X86882717Y-87851846D01*
X87311894Y-88281773D01*
X87872928Y-88514735D01*
X88480407Y-88515265D01*
X89041846Y-88283283D01*
X89184846Y-88140532D01*
X89705073Y-88140532D01*
X89803736Y-88407387D01*
X90413461Y-88633908D01*
X91063460Y-88609856D01*
X91552264Y-88407387D01*
X91650927Y-88140532D01*
X90678000Y-87167605D01*
X89705073Y-88140532D01*
X89184846Y-88140532D01*
X89408199Y-87917570D01*
X89525468Y-87960927D01*
X90498395Y-86988000D01*
X89525468Y-86015073D01*
X89407815Y-86058572D01*
X89185101Y-85835468D01*
X89705073Y-85835468D01*
X90678000Y-86808395D01*
X91650927Y-85835468D01*
X91552264Y-85568613D01*
X90942539Y-85342092D01*
X90292540Y-85366144D01*
X89803736Y-85568613D01*
X89705073Y-85835468D01*
X89185101Y-85835468D01*
X89044106Y-85694227D01*
X88483072Y-85461265D01*
X88181066Y-85461002D01*
X89361031Y-84281036D01*
X89361034Y-84281034D01*
X89502369Y-84069510D01*
X89552000Y-83820000D01*
X89552000Y-67607497D01*
X89700930Y-67756688D01*
X90004778Y-67882856D01*
X90074849Y-67882917D01*
X90784109Y-68592176D01*
X90801138Y-68633390D01*
X91033573Y-68866232D01*
X91337421Y-68992400D01*
X91666422Y-68992687D01*
X91804000Y-68935841D01*
X91804000Y-84073995D01*
X91803999Y-84074000D01*
X91843615Y-84273158D01*
X91853631Y-84323510D01*
X91980664Y-84513630D01*
X91994966Y-84535034D01*
X92390917Y-84930984D01*
X92390857Y-84999779D01*
X92516495Y-85303846D01*
X92732239Y-85519968D01*
X92314154Y-85692717D01*
X91947801Y-86058430D01*
X91830532Y-86015073D01*
X90857605Y-86988000D01*
X91830532Y-87960927D01*
X91948185Y-87917428D01*
X92311894Y-88281773D01*
X92872928Y-88514735D01*
X93480407Y-88515265D01*
X93570552Y-88478018D01*
X93525998Y-88702001D01*
X93525999Y-88702006D01*
X93525999Y-99979090D01*
X93483072Y-99961265D01*
X92875593Y-99960735D01*
X92314154Y-100192717D01*
X91884227Y-100621894D01*
X91651265Y-101182928D01*
X91650735Y-101790407D01*
X91882717Y-102351846D01*
X92311894Y-102781773D01*
X92872928Y-103014735D01*
X93480407Y-103015265D01*
X94041846Y-102783283D01*
X94471773Y-102354106D01*
X94704735Y-101793072D01*
X94704973Y-101520000D01*
X107636819Y-101520000D01*
X107742672Y-102052160D01*
X108044116Y-102503303D01*
X108495259Y-102804747D01*
X109027419Y-102910600D01*
X110428581Y-102910600D01*
X110960741Y-102804747D01*
X111411884Y-102503303D01*
X111713328Y-102052160D01*
X111728459Y-101976093D01*
X111798930Y-102046688D01*
X112102778Y-102172856D01*
X112431779Y-102173143D01*
X112735846Y-102047505D01*
X112968688Y-101815070D01*
X113094856Y-101511222D01*
X113095143Y-101182221D01*
X112969505Y-100878154D01*
X112920000Y-100828562D01*
X112920000Y-95005673D01*
X112968688Y-94957070D01*
X113094856Y-94653222D01*
X113094857Y-94651779D01*
X114234857Y-94651779D01*
X114360495Y-94955846D01*
X114410000Y-95005438D01*
X114410000Y-96773995D01*
X114409999Y-96774000D01*
X114430891Y-96879026D01*
X114459631Y-97023510D01*
X114522915Y-97118221D01*
X114600966Y-97235034D01*
X122108917Y-104742984D01*
X122108857Y-104811779D01*
X122234495Y-105115846D01*
X122466930Y-105348688D01*
X122770778Y-105474856D01*
X123099779Y-105475143D01*
X123403846Y-105349505D01*
X123636688Y-105117070D01*
X123762856Y-104813222D01*
X123762957Y-104697171D01*
X123824799Y-104697171D01*
X123852770Y-105247448D01*
X124009540Y-105625923D01*
X124250483Y-105693912D01*
X125042395Y-104902000D01*
X125401605Y-104902000D01*
X126193517Y-105693912D01*
X126434460Y-105625923D01*
X126619201Y-105106829D01*
X126591230Y-104556552D01*
X126434460Y-104178077D01*
X126193517Y-104110088D01*
X125401605Y-104902000D01*
X125042395Y-104902000D01*
X124250483Y-104110088D01*
X124009540Y-104178077D01*
X123824799Y-104697171D01*
X123762957Y-104697171D01*
X123763143Y-104484221D01*
X123637505Y-104180154D01*
X123405070Y-103947312D01*
X123364542Y-103930483D01*
X124430088Y-103930483D01*
X125222000Y-104722395D01*
X125891165Y-104053230D01*
X154082632Y-104053230D01*
X154405766Y-104835274D01*
X155003578Y-105434131D01*
X155785057Y-105758630D01*
X156631230Y-105759368D01*
X157413274Y-105436234D01*
X158012131Y-104838422D01*
X158336630Y-104056943D01*
X158337368Y-103210770D01*
X158014234Y-102428726D01*
X157416422Y-101829869D01*
X156634943Y-101505370D01*
X155788770Y-101504632D01*
X155006726Y-101827766D01*
X154407869Y-102425578D01*
X154083370Y-103207057D01*
X154082632Y-104053230D01*
X125891165Y-104053230D01*
X126013912Y-103930483D01*
X125945923Y-103689540D01*
X125426829Y-103504799D01*
X124876552Y-103532770D01*
X124498077Y-103689540D01*
X124430088Y-103930483D01*
X123364542Y-103930483D01*
X123101222Y-103821144D01*
X123031150Y-103821083D01*
X122120667Y-102910600D01*
X122928581Y-102910600D01*
X123460741Y-102804747D01*
X123809794Y-102571517D01*
X141194088Y-102571517D01*
X141262077Y-102812460D01*
X141781171Y-102997201D01*
X142331448Y-102969230D01*
X142709923Y-102812460D01*
X142777912Y-102571517D01*
X141986000Y-101779605D01*
X141194088Y-102571517D01*
X123809794Y-102571517D01*
X123911884Y-102503303D01*
X124213328Y-102052160D01*
X124319181Y-101520000D01*
X124294352Y-101395171D01*
X140588799Y-101395171D01*
X140616770Y-101945448D01*
X140773540Y-102323923D01*
X141014483Y-102391912D01*
X141806395Y-101600000D01*
X142165605Y-101600000D01*
X142957517Y-102391912D01*
X143198460Y-102323923D01*
X143342735Y-101918532D01*
X144165073Y-101918532D01*
X144263736Y-102185387D01*
X144873461Y-102411908D01*
X145523460Y-102387856D01*
X146012264Y-102185387D01*
X146110927Y-101918532D01*
X150665073Y-101918532D01*
X150763736Y-102185387D01*
X151373461Y-102411908D01*
X152023460Y-102387856D01*
X152512264Y-102185387D01*
X152610927Y-101918532D01*
X151638000Y-100945605D01*
X150665073Y-101918532D01*
X146110927Y-101918532D01*
X145138000Y-100945605D01*
X144165073Y-101918532D01*
X143342735Y-101918532D01*
X143383201Y-101804829D01*
X143355230Y-101254552D01*
X143198460Y-100876077D01*
X142957517Y-100808088D01*
X142165605Y-101600000D01*
X141806395Y-101600000D01*
X141014483Y-100808088D01*
X140773540Y-100876077D01*
X140588799Y-101395171D01*
X124294352Y-101395171D01*
X124213328Y-100987840D01*
X123911884Y-100536697D01*
X123460741Y-100235253D01*
X122928581Y-100129400D01*
X121527419Y-100129400D01*
X120995259Y-100235253D01*
X120544116Y-100536697D01*
X120242672Y-100987840D01*
X120235245Y-101025178D01*
X116089094Y-96879026D01*
X120112642Y-96879026D01*
X120134473Y-96976157D01*
X120418127Y-97489868D01*
X120876778Y-97855925D01*
X121440600Y-98018600D01*
X122101000Y-98018600D01*
X122101000Y-96647000D01*
X122355000Y-96647000D01*
X122355000Y-98018600D01*
X123015400Y-98018600D01*
X123579222Y-97855925D01*
X124037873Y-97489868D01*
X124321527Y-96976157D01*
X124343358Y-96879026D01*
X124222217Y-96647000D01*
X122355000Y-96647000D01*
X122101000Y-96647000D01*
X120233783Y-96647000D01*
X120112642Y-96879026D01*
X116089094Y-96879026D01*
X115714000Y-96503932D01*
X115714000Y-96160974D01*
X120112642Y-96160974D01*
X120233783Y-96393000D01*
X122101000Y-96393000D01*
X122101000Y-95021400D01*
X122355000Y-95021400D01*
X122355000Y-96393000D01*
X124222217Y-96393000D01*
X124343358Y-96160974D01*
X124321527Y-96063843D01*
X124037873Y-95550132D01*
X123579222Y-95184075D01*
X123495014Y-95159779D01*
X129474857Y-95159779D01*
X129600495Y-95463846D01*
X129650000Y-95513438D01*
X129650000Y-99304327D01*
X129601312Y-99352930D01*
X129475144Y-99656778D01*
X129474857Y-99985779D01*
X129600495Y-100289846D01*
X129832930Y-100522688D01*
X130136778Y-100648856D01*
X130465779Y-100649143D01*
X130515779Y-100628483D01*
X141194088Y-100628483D01*
X141986000Y-101420395D01*
X142777912Y-100628483D01*
X142742070Y-100501461D01*
X143492092Y-100501461D01*
X143516144Y-101151460D01*
X143718613Y-101640264D01*
X143985468Y-101738927D01*
X144958395Y-100766000D01*
X145317605Y-100766000D01*
X146290532Y-101738927D01*
X146557387Y-101640264D01*
X146783908Y-101030539D01*
X146764331Y-100501461D01*
X149992092Y-100501461D01*
X150016144Y-101151460D01*
X150218613Y-101640264D01*
X150485468Y-101738927D01*
X151458395Y-100766000D01*
X151817605Y-100766000D01*
X152790532Y-101738927D01*
X153057387Y-101640264D01*
X153283908Y-101030539D01*
X153259856Y-100380540D01*
X153057387Y-99891736D01*
X152790532Y-99793073D01*
X151817605Y-100766000D01*
X151458395Y-100766000D01*
X150485468Y-99793073D01*
X150218613Y-99891736D01*
X149992092Y-100501461D01*
X146764331Y-100501461D01*
X146759856Y-100380540D01*
X146557387Y-99891736D01*
X146290532Y-99793073D01*
X145317605Y-100766000D01*
X144958395Y-100766000D01*
X143985468Y-99793073D01*
X143718613Y-99891736D01*
X143492092Y-100501461D01*
X142742070Y-100501461D01*
X142709923Y-100387540D01*
X142190829Y-100202799D01*
X141640552Y-100230770D01*
X141262077Y-100387540D01*
X141194088Y-100628483D01*
X130515779Y-100628483D01*
X130769846Y-100523505D01*
X131002688Y-100291070D01*
X131128856Y-99987222D01*
X131129143Y-99658221D01*
X131003505Y-99354154D01*
X130954000Y-99304562D01*
X130954000Y-97953779D01*
X134046857Y-97953779D01*
X134172495Y-98257846D01*
X134404930Y-98490688D01*
X134708778Y-98616856D01*
X134778849Y-98616917D01*
X135316917Y-99154984D01*
X135316857Y-99223779D01*
X135442495Y-99527846D01*
X135674930Y-99760688D01*
X135978778Y-99886856D01*
X136307779Y-99887143D01*
X136611846Y-99761505D01*
X136815354Y-99558353D01*
X136994778Y-99632856D01*
X137323779Y-99633143D01*
X137371396Y-99613468D01*
X144165073Y-99613468D01*
X145138000Y-100586395D01*
X146110927Y-99613468D01*
X150665073Y-99613468D01*
X151638000Y-100586395D01*
X152610927Y-99613468D01*
X152577670Y-99523517D01*
X153386088Y-99523517D01*
X153454077Y-99764460D01*
X153973171Y-99949201D01*
X154523448Y-99921230D01*
X154901923Y-99764460D01*
X154969912Y-99523517D01*
X154178000Y-98731605D01*
X153386088Y-99523517D01*
X152577670Y-99523517D01*
X152512264Y-99346613D01*
X151902539Y-99120092D01*
X151252540Y-99144144D01*
X150763736Y-99346613D01*
X150665073Y-99613468D01*
X146110927Y-99613468D01*
X146012264Y-99346613D01*
X145402539Y-99120092D01*
X144752540Y-99144144D01*
X144263736Y-99346613D01*
X144165073Y-99613468D01*
X137371396Y-99613468D01*
X137627846Y-99507505D01*
X137860688Y-99275070D01*
X137986856Y-98971222D01*
X137987143Y-98642221D01*
X137865231Y-98347171D01*
X152780799Y-98347171D01*
X152808770Y-98897448D01*
X152965540Y-99275923D01*
X153206483Y-99343912D01*
X153998395Y-98552000D01*
X153206483Y-97760088D01*
X152965540Y-97828077D01*
X152780799Y-98347171D01*
X137865231Y-98347171D01*
X137861505Y-98338154D01*
X137629070Y-98105312D01*
X137325222Y-97979144D01*
X137255150Y-97979083D01*
X136463083Y-97187015D01*
X136463143Y-97118221D01*
X136337505Y-96814154D01*
X136105070Y-96581312D01*
X136073992Y-96568407D01*
X143610735Y-96568407D01*
X143842717Y-97129846D01*
X144271894Y-97559773D01*
X144832928Y-97792735D01*
X145440407Y-97793265D01*
X146001846Y-97561283D01*
X146431773Y-97132106D01*
X146664735Y-96571072D01*
X146664737Y-96568407D01*
X150110735Y-96568407D01*
X150342717Y-97129846D01*
X150771894Y-97559773D01*
X151332928Y-97792735D01*
X151940407Y-97793265D01*
X152455378Y-97580483D01*
X153386088Y-97580483D01*
X154178000Y-98372395D01*
X154969912Y-97580483D01*
X154901923Y-97339540D01*
X154382829Y-97154799D01*
X153832552Y-97182770D01*
X153454077Y-97339540D01*
X153386088Y-97580483D01*
X152455378Y-97580483D01*
X152501846Y-97561283D01*
X152931773Y-97132106D01*
X153164735Y-96571072D01*
X153165265Y-95963593D01*
X152933283Y-95402154D01*
X152504106Y-94972227D01*
X151943072Y-94739265D01*
X151335593Y-94738735D01*
X150774154Y-94970717D01*
X150344227Y-95399894D01*
X150111265Y-95960928D01*
X150110735Y-96568407D01*
X146664737Y-96568407D01*
X146665265Y-95963593D01*
X146433283Y-95402154D01*
X146004106Y-94972227D01*
X145443072Y-94739265D01*
X144835593Y-94738735D01*
X144274154Y-94970717D01*
X143844227Y-95399894D01*
X143611265Y-95960928D01*
X143610735Y-96568407D01*
X136073992Y-96568407D01*
X135801222Y-96455144D01*
X135472221Y-96454857D01*
X135168154Y-96580495D01*
X134935312Y-96812930D01*
X134872998Y-96962999D01*
X134710221Y-96962857D01*
X134406154Y-97088495D01*
X134173312Y-97320930D01*
X134047144Y-97624778D01*
X134046857Y-97953779D01*
X130954000Y-97953779D01*
X130954000Y-95513673D01*
X131002688Y-95465070D01*
X131128856Y-95161222D01*
X131129143Y-94832221D01*
X131003505Y-94528154D01*
X130771070Y-94295312D01*
X130467222Y-94169144D01*
X130138221Y-94168857D01*
X129834154Y-94294495D01*
X129601312Y-94526930D01*
X129475144Y-94830778D01*
X129474857Y-95159779D01*
X123495014Y-95159779D01*
X123015400Y-95021400D01*
X122355000Y-95021400D01*
X122101000Y-95021400D01*
X121440600Y-95021400D01*
X120876778Y-95184075D01*
X120418127Y-95550132D01*
X120134473Y-96063843D01*
X120112642Y-96160974D01*
X115714000Y-96160974D01*
X115714000Y-95005673D01*
X115762688Y-94957070D01*
X115888856Y-94653222D01*
X115889143Y-94324221D01*
X115763505Y-94020154D01*
X115531070Y-93787312D01*
X115227222Y-93661144D01*
X114898221Y-93660857D01*
X114594154Y-93786495D01*
X114361312Y-94018930D01*
X114235144Y-94322778D01*
X114234857Y-94651779D01*
X113094857Y-94651779D01*
X113095143Y-94324221D01*
X112969505Y-94020154D01*
X112737070Y-93787312D01*
X112433222Y-93661144D01*
X112104221Y-93660857D01*
X111800154Y-93786495D01*
X111567312Y-94018930D01*
X111441144Y-94322778D01*
X111440857Y-94651779D01*
X111566495Y-94955846D01*
X111616000Y-95005438D01*
X111616000Y-95691624D01*
X111537873Y-95550132D01*
X111079222Y-95184075D01*
X110515400Y-95021400D01*
X109855000Y-95021400D01*
X109855000Y-96393000D01*
X109875000Y-96393000D01*
X109875000Y-96647000D01*
X109855000Y-96647000D01*
X109855000Y-98018600D01*
X110515400Y-98018600D01*
X111079222Y-97855925D01*
X111537873Y-97489868D01*
X111616000Y-97348376D01*
X111616000Y-100828327D01*
X111610448Y-100833869D01*
X111411884Y-100536697D01*
X110960741Y-100235253D01*
X110428581Y-100129400D01*
X109027419Y-100129400D01*
X108495259Y-100235253D01*
X108044116Y-100536697D01*
X107742672Y-100987840D01*
X107636819Y-101520000D01*
X94704973Y-101520000D01*
X94705265Y-101185593D01*
X94616735Y-100971333D01*
X94639033Y-100949035D01*
X94687212Y-100876930D01*
X94780368Y-100737511D01*
X94829999Y-100488001D01*
X94829999Y-96879026D01*
X107612642Y-96879026D01*
X107634473Y-96976157D01*
X107918127Y-97489868D01*
X108376778Y-97855925D01*
X108940600Y-98018600D01*
X109601000Y-98018600D01*
X109601000Y-96647000D01*
X107733783Y-96647000D01*
X107612642Y-96879026D01*
X94829999Y-96879026D01*
X94829999Y-96835227D01*
X95028000Y-96875324D01*
X97728000Y-96875324D01*
X97923294Y-96838577D01*
X98102660Y-96723158D01*
X98222990Y-96547049D01*
X98265324Y-96338000D01*
X98265324Y-96160974D01*
X107612642Y-96160974D01*
X107733783Y-96393000D01*
X109601000Y-96393000D01*
X109601000Y-95021400D01*
X108940600Y-95021400D01*
X108376778Y-95184075D01*
X107918127Y-95550132D01*
X107634473Y-96063843D01*
X107612642Y-96160974D01*
X98265324Y-96160974D01*
X98265324Y-92638000D01*
X98228577Y-92442706D01*
X98113158Y-92263340D01*
X97937049Y-92143010D01*
X97728000Y-92100676D01*
X95028000Y-92100676D01*
X94832706Y-92137423D01*
X94829999Y-92139165D01*
X94829999Y-88972069D01*
X95711031Y-88091036D01*
X95711034Y-88091034D01*
X95852369Y-87879510D01*
X95902000Y-87630000D01*
X95902000Y-70467503D01*
X95935505Y-70548591D01*
X96167940Y-70781433D01*
X96471788Y-70907601D01*
X96800789Y-70907888D01*
X97104856Y-70782250D01*
X97337698Y-70549815D01*
X97463866Y-70245967D01*
X97463927Y-70175896D01*
X98368035Y-69271788D01*
X98509371Y-69060263D01*
X98556980Y-68820919D01*
X98556980Y-70232733D01*
X98556979Y-70232738D01*
X98594258Y-70420144D01*
X98606611Y-70482248D01*
X98681925Y-70594963D01*
X98681836Y-70696516D01*
X98807474Y-71000583D01*
X99039909Y-71233425D01*
X99343757Y-71359593D01*
X99481989Y-71359714D01*
X99481989Y-77141944D01*
X98203015Y-78420917D01*
X98134221Y-78420857D01*
X97830154Y-78546495D01*
X97597312Y-78778930D01*
X97471144Y-79082778D01*
X97470857Y-79411779D01*
X97596495Y-79715846D01*
X97828930Y-79948688D01*
X98132778Y-80074856D01*
X98461779Y-80075143D01*
X98765846Y-79949505D01*
X98998688Y-79717070D01*
X99124856Y-79413222D01*
X99124917Y-79343151D01*
X99932000Y-78536067D01*
X99932000Y-81016327D01*
X99883312Y-81064930D01*
X99757144Y-81368778D01*
X99756857Y-81697779D01*
X99882495Y-82001846D01*
X100114930Y-82234688D01*
X100418778Y-82360856D01*
X100747779Y-82361143D01*
X101051846Y-82235505D01*
X101284688Y-82003070D01*
X101410856Y-81699222D01*
X101411143Y-81370221D01*
X101285505Y-81066154D01*
X101236000Y-81016562D01*
X101236000Y-80431230D01*
X103663632Y-80431230D01*
X103986766Y-81213274D01*
X104584578Y-81812131D01*
X105366057Y-82136630D01*
X106212230Y-82137368D01*
X106994274Y-81814234D01*
X107593131Y-81216422D01*
X107917630Y-80434943D01*
X107918368Y-79588770D01*
X107595234Y-78806726D01*
X106997422Y-78207869D01*
X106215943Y-77883370D01*
X105369770Y-77882632D01*
X104587726Y-78205766D01*
X103988869Y-78803578D01*
X103664370Y-79585057D01*
X103663632Y-80431230D01*
X101236000Y-80431230D01*
X101236000Y-75182897D01*
X110482779Y-75182897D01*
X110676781Y-75652417D01*
X111035693Y-76011957D01*
X111489088Y-76200223D01*
X111037583Y-76386781D01*
X110678043Y-76745693D01*
X110483222Y-77214875D01*
X110482779Y-77722897D01*
X110676781Y-78192417D01*
X111035693Y-78551957D01*
X111504875Y-78746778D01*
X112012897Y-78747221D01*
X112482417Y-78553219D01*
X112841957Y-78194307D01*
X113036778Y-77725125D01*
X113037221Y-77217103D01*
X112843219Y-76747583D01*
X112484307Y-76388043D01*
X112030912Y-76199777D01*
X112482417Y-76013219D01*
X112841957Y-75654307D01*
X113036778Y-75185125D01*
X113037221Y-74677103D01*
X112843219Y-74207583D01*
X112484307Y-73848043D01*
X112015125Y-73653222D01*
X111507103Y-73652779D01*
X111037583Y-73846781D01*
X110678043Y-74205693D01*
X110483222Y-74674875D01*
X110482779Y-75182897D01*
X101236000Y-75182897D01*
X101236000Y-55642068D01*
X104776317Y-52101750D01*
X106311000Y-52101750D01*
X106311000Y-52692310D01*
X106407673Y-52925699D01*
X106586302Y-53104327D01*
X106819691Y-53201000D01*
X107410250Y-53201000D01*
X107569000Y-53042250D01*
X107569000Y-51943000D01*
X106469750Y-51943000D01*
X106311000Y-52101750D01*
X104776317Y-52101750D01*
X105504984Y-51373083D01*
X105573779Y-51373143D01*
X105877846Y-51247505D01*
X106110688Y-51015070D01*
X106141988Y-50939690D01*
X106311000Y-50939690D01*
X106311000Y-51530250D01*
X106469750Y-51689000D01*
X107569000Y-51689000D01*
X107569000Y-50589750D01*
X107410250Y-50431000D01*
X106819691Y-50431000D01*
X106586302Y-50527673D01*
X106407673Y-50706301D01*
X106311000Y-50939690D01*
X106141988Y-50939690D01*
X106236856Y-50711222D01*
X106237143Y-50382221D01*
X106111505Y-50078154D01*
X105879070Y-49845312D01*
X105575222Y-49719144D01*
X105246221Y-49718857D01*
X104942154Y-49844495D01*
X104709312Y-50076930D01*
X104583144Y-50380778D01*
X104583083Y-50450850D01*
X100160979Y-54872953D01*
X100160979Y-54127746D01*
X100160980Y-54127741D01*
X100111349Y-53878232D01*
X99979460Y-53680846D01*
X99970013Y-53666707D01*
X99970010Y-53666705D01*
X98544997Y-52241692D01*
X98773206Y-52147398D01*
X99136124Y-51785113D01*
X99241066Y-51532385D01*
X99267034Y-51515034D01*
X100678984Y-50103083D01*
X100747779Y-50103143D01*
X101051846Y-49977505D01*
X101284688Y-49745070D01*
X101410856Y-49441222D01*
X101411143Y-49112221D01*
X101285505Y-48808154D01*
X101053070Y-48575312D01*
X100749222Y-48449144D01*
X100420221Y-48448857D01*
X100116154Y-48574495D01*
X99883312Y-48806930D01*
X99757144Y-49110778D01*
X99757083Y-49180850D01*
X98875497Y-50062435D01*
X98775113Y-49961876D01*
X98301523Y-49765224D01*
X97788727Y-49764777D01*
X97608999Y-49839039D01*
X97608999Y-49109069D01*
X99154984Y-47563083D01*
X99223779Y-47563143D01*
X99527846Y-47437505D01*
X99760688Y-47205070D01*
X99886856Y-46901222D01*
X99887143Y-46572221D01*
X99761505Y-46268154D01*
X99529070Y-46035312D01*
X99225222Y-45909144D01*
X98896221Y-45908857D01*
X98592154Y-46034495D01*
X98359312Y-46266930D01*
X98233144Y-46570778D01*
X98233083Y-46640850D01*
X97346975Y-47526958D01*
X97347143Y-47334221D01*
X97221505Y-47030154D01*
X96989070Y-46797312D01*
X96685222Y-46671144D01*
X96356221Y-46670857D01*
X96352998Y-46672189D01*
X96501794Y-46449500D01*
X96599000Y-45960813D01*
X96599000Y-44891187D01*
X96501794Y-44402500D01*
X96224975Y-43988212D01*
X95810687Y-43711393D01*
X95322000Y-43614187D01*
X94833313Y-43711393D01*
X94419025Y-43988212D01*
X94142206Y-44402500D01*
X94045000Y-44891187D01*
X94045000Y-45960813D01*
X94068957Y-46081252D01*
X93906813Y-46049000D01*
X93037187Y-46049000D01*
X92875043Y-46081252D01*
X92899000Y-45960813D01*
X92899000Y-44891187D01*
X92801794Y-44402500D01*
X92524975Y-43988212D01*
X92110687Y-43711393D01*
X91622000Y-43614187D01*
X91133313Y-43711393D01*
X90719025Y-43988212D01*
X90442206Y-44402500D01*
X90368310Y-44774000D01*
X89194000Y-44774000D01*
X88944490Y-44823631D01*
X88732966Y-44964966D01*
X88732964Y-44964969D01*
X86335965Y-47361967D01*
X86194630Y-47573491D01*
X86194630Y-47573492D01*
X86144998Y-47823001D01*
X86144999Y-47823006D01*
X86144999Y-50031884D01*
X86075113Y-49961876D01*
X85601523Y-49765224D01*
X85088727Y-49764777D01*
X84614794Y-49960602D01*
X84251876Y-50322887D01*
X84139004Y-50594713D01*
X84026397Y-50322857D01*
X83784213Y-50253392D01*
X82983605Y-51054000D01*
X83784213Y-51854608D01*
X84026397Y-51785143D01*
X84130655Y-51492912D01*
X84250602Y-51783206D01*
X84612887Y-52146124D01*
X84843013Y-52241681D01*
X83701540Y-53383154D01*
X81346851Y-53383154D01*
X81346846Y-53383153D01*
X81097337Y-53432784D01*
X81097335Y-53432785D01*
X81097336Y-53432785D01*
X80984621Y-53508099D01*
X80916000Y-53508039D01*
X80916000Y-52034213D01*
X82003392Y-52034213D01*
X82072857Y-52276397D01*
X82596302Y-52463144D01*
X83151368Y-52435362D01*
X83535143Y-52276397D01*
X83604608Y-52034213D01*
X82804000Y-51233605D01*
X82003392Y-52034213D01*
X80916000Y-52034213D01*
X80916000Y-50846302D01*
X81394856Y-50846302D01*
X81422638Y-51401368D01*
X81581603Y-51785143D01*
X81823787Y-51854608D01*
X82624395Y-51054000D01*
X81823787Y-50253392D01*
X81581603Y-50322857D01*
X81394856Y-50846302D01*
X80916000Y-50846302D01*
X80916000Y-50073787D01*
X82003392Y-50073787D01*
X82804000Y-50874395D01*
X83604608Y-50073787D01*
X83535143Y-49831603D01*
X83011698Y-49644856D01*
X82456632Y-49672638D01*
X82072857Y-49831603D01*
X82003392Y-50073787D01*
X80916000Y-50073787D01*
X80916000Y-49800068D01*
X81374985Y-49341083D01*
X81443779Y-49341143D01*
X81747846Y-49215505D01*
X81980688Y-48983070D01*
X82098773Y-48698687D01*
X82623187Y-48803000D01*
X83492813Y-48803000D01*
X84019768Y-48698182D01*
X84466499Y-48399686D01*
X84764995Y-47952955D01*
X84869813Y-47426000D01*
X84829265Y-47222152D01*
X84908000Y-47237813D01*
X85396687Y-47140607D01*
X85810975Y-46863788D01*
X86087794Y-46449500D01*
X86185000Y-45960813D01*
X86185000Y-44891187D01*
X86087794Y-44402500D01*
X85810975Y-43988212D01*
X85396687Y-43711393D01*
X84908000Y-43614187D01*
X84419313Y-43711393D01*
X84005025Y-43988212D01*
X83728206Y-44402500D01*
X83631000Y-44891187D01*
X83631000Y-45960813D01*
X83654957Y-46081252D01*
X83492813Y-46049000D01*
X82623187Y-46049000D01*
X82461043Y-46081252D01*
X82485000Y-45960813D01*
X82485000Y-44891187D01*
X82387794Y-44402500D01*
X82110975Y-43988212D01*
X81696687Y-43711393D01*
X81208000Y-43614187D01*
X80719313Y-43711393D01*
X80305025Y-43988212D01*
X80028206Y-44402500D01*
X79931000Y-44891187D01*
X79931000Y-45960813D01*
X80028206Y-46449500D01*
X80305025Y-46863788D01*
X80719313Y-47140607D01*
X81208000Y-47237813D01*
X81286735Y-47222152D01*
X81246187Y-47426000D01*
X81298106Y-47687016D01*
X81116221Y-47686857D01*
X80812154Y-47812495D01*
X80579312Y-48044930D01*
X80453144Y-48348778D01*
X80453083Y-48418849D01*
X79802966Y-49068966D01*
X79661631Y-49280490D01*
X79661631Y-49280491D01*
X79611999Y-49530000D01*
X79612000Y-49530005D01*
X79612000Y-71110327D01*
X79563312Y-71158930D01*
X79437144Y-71462778D01*
X79436956Y-71678469D01*
X79159222Y-71563144D01*
X78830221Y-71562857D01*
X78526154Y-71688495D01*
X78293312Y-71920930D01*
X78167144Y-72224778D01*
X78166857Y-72553779D01*
X72230000Y-72553779D01*
X72230000Y-47242897D01*
X72890779Y-47242897D01*
X73084781Y-47712417D01*
X73443693Y-48071957D01*
X73897088Y-48260223D01*
X73445583Y-48446781D01*
X73086043Y-48805693D01*
X72891222Y-49274875D01*
X72890779Y-49782897D01*
X73084781Y-50252417D01*
X73443693Y-50611957D01*
X73897088Y-50800223D01*
X73445583Y-50986781D01*
X73086043Y-51345693D01*
X72891222Y-51814875D01*
X72890779Y-52322897D01*
X73084781Y-52792417D01*
X73443693Y-53151957D01*
X73897088Y-53340223D01*
X73445583Y-53526781D01*
X73086043Y-53885693D01*
X72891222Y-54354875D01*
X72890779Y-54862897D01*
X73084781Y-55332417D01*
X73443693Y-55691957D01*
X73897088Y-55880223D01*
X73445583Y-56066781D01*
X73086043Y-56425693D01*
X72891222Y-56894875D01*
X72890779Y-57402897D01*
X73084781Y-57872417D01*
X73443693Y-58231957D01*
X73912875Y-58426778D01*
X74420897Y-58427221D01*
X74890417Y-58233219D01*
X75249957Y-57874307D01*
X75444778Y-57405125D01*
X75445221Y-56897103D01*
X75251219Y-56427583D01*
X74892307Y-56068043D01*
X74438912Y-55879777D01*
X74890417Y-55693219D01*
X75249957Y-55334307D01*
X75444778Y-54865125D01*
X75445221Y-54357103D01*
X75251219Y-53887583D01*
X74892307Y-53528043D01*
X74438912Y-53339777D01*
X74890417Y-53153219D01*
X75249957Y-52794307D01*
X75444778Y-52325125D01*
X75445221Y-51817103D01*
X75251219Y-51347583D01*
X74892307Y-50988043D01*
X74438912Y-50799777D01*
X74890417Y-50613219D01*
X75249957Y-50254307D01*
X75444778Y-49785125D01*
X75445221Y-49277103D01*
X75251219Y-48807583D01*
X74892307Y-48448043D01*
X74438912Y-48259777D01*
X74890417Y-48073219D01*
X75249957Y-47714307D01*
X75444778Y-47245125D01*
X75445221Y-46737103D01*
X75251219Y-46267583D01*
X74892307Y-45908043D01*
X74423125Y-45713222D01*
X73915103Y-45712779D01*
X73445583Y-45906781D01*
X73086043Y-46265693D01*
X72891222Y-46734875D01*
X72890779Y-47242897D01*
X72230000Y-47242897D01*
X72230000Y-42331230D01*
X73310632Y-42331230D01*
X73633766Y-43113274D01*
X74231578Y-43712131D01*
X75013057Y-44036630D01*
X75859230Y-44037368D01*
X76641274Y-43714234D01*
X77240131Y-43116422D01*
X77564630Y-42334943D01*
X77565368Y-41488770D01*
X77324752Y-40906434D01*
X80967876Y-40906434D01*
X80998856Y-41034355D01*
X81312078Y-41592317D01*
X81814980Y-41987942D01*
X82273460Y-42116742D01*
X82103133Y-42286772D01*
X81931196Y-42700842D01*
X81930805Y-43149191D01*
X82102019Y-43563560D01*
X82418772Y-43880867D01*
X82832842Y-44052804D01*
X83281191Y-44053195D01*
X83695560Y-43881981D01*
X84012867Y-43565228D01*
X84184804Y-43151158D01*
X84185195Y-42702809D01*
X84013981Y-42288440D01*
X83842574Y-42116733D01*
X84301020Y-41987942D01*
X84803922Y-41592317D01*
X85117144Y-41034355D01*
X85148124Y-40906434D01*
X91381876Y-40906434D01*
X91412856Y-41034355D01*
X91726078Y-41592317D01*
X92228980Y-41987942D01*
X92687460Y-42116742D01*
X92517133Y-42286772D01*
X92345196Y-42700842D01*
X92344805Y-43149191D01*
X92516019Y-43563560D01*
X92832772Y-43880867D01*
X93246842Y-44052804D01*
X93695191Y-44053195D01*
X94109560Y-43881981D01*
X94392034Y-43600000D01*
X99704676Y-43600000D01*
X99704676Y-45300000D01*
X99741423Y-45495294D01*
X99856842Y-45674660D01*
X100032951Y-45794990D01*
X100242000Y-45837324D01*
X101942000Y-45837324D01*
X102137294Y-45800577D01*
X102316660Y-45685158D01*
X102436990Y-45509049D01*
X102479324Y-45300000D01*
X102479324Y-45182785D01*
X102658314Y-45450663D01*
X103105045Y-45749159D01*
X103632000Y-45853977D01*
X104158955Y-45749159D01*
X104605686Y-45450663D01*
X104902000Y-45007198D01*
X105198314Y-45450663D01*
X105645045Y-45749159D01*
X106172000Y-45853977D01*
X106698955Y-45749159D01*
X107145686Y-45450663D01*
X107444182Y-45003932D01*
X107549000Y-44476977D01*
X107549000Y-44423023D01*
X107444182Y-43896068D01*
X107145686Y-43449337D01*
X106819244Y-43231215D01*
X106938924Y-43181645D01*
X107367183Y-42791358D01*
X107613486Y-42266892D01*
X107492819Y-42037000D01*
X106299000Y-42037000D01*
X106299000Y-42057000D01*
X106045000Y-42057000D01*
X106045000Y-42037000D01*
X106025000Y-42037000D01*
X106025000Y-41783000D01*
X106045000Y-41783000D01*
X106045000Y-40589845D01*
X106299000Y-40589845D01*
X106299000Y-41783000D01*
X107492819Y-41783000D01*
X107613486Y-41553108D01*
X107367183Y-41028642D01*
X106938924Y-40638355D01*
X106528890Y-40468524D01*
X106299000Y-40589845D01*
X106045000Y-40589845D01*
X105815110Y-40468524D01*
X105405076Y-40638355D01*
X104976817Y-41028642D01*
X104856537Y-41284762D01*
X104605686Y-40909337D01*
X104158955Y-40610841D01*
X103632000Y-40506023D01*
X103105045Y-40610841D01*
X102658314Y-40909337D01*
X102362000Y-41352802D01*
X102065686Y-40909337D01*
X101618955Y-40610841D01*
X101092000Y-40506023D01*
X100565045Y-40610841D01*
X100118314Y-40909337D01*
X99819818Y-41356068D01*
X99715000Y-41883023D01*
X99715000Y-41936977D01*
X99819818Y-42463932D01*
X100118314Y-42910663D01*
X100345818Y-43062676D01*
X100242000Y-43062676D01*
X100046706Y-43099423D01*
X99867340Y-43214842D01*
X99747010Y-43390951D01*
X99704676Y-43600000D01*
X94392034Y-43600000D01*
X94426867Y-43565228D01*
X94598804Y-43151158D01*
X94599195Y-42702809D01*
X94427981Y-42288440D01*
X94256574Y-42116733D01*
X94715020Y-41987942D01*
X95217922Y-41592317D01*
X95531144Y-41034355D01*
X95562124Y-40906434D01*
X95442777Y-40653000D01*
X93599000Y-40653000D01*
X93599000Y-40673000D01*
X93345000Y-40673000D01*
X93345000Y-40653000D01*
X91501223Y-40653000D01*
X91381876Y-40906434D01*
X85148124Y-40906434D01*
X85028777Y-40653000D01*
X83185000Y-40653000D01*
X83185000Y-40673000D01*
X82931000Y-40673000D01*
X82931000Y-40653000D01*
X81087223Y-40653000D01*
X80967876Y-40906434D01*
X77324752Y-40906434D01*
X77242234Y-40706726D01*
X76682054Y-40145566D01*
X80967876Y-40145566D01*
X81087223Y-40399000D01*
X82931000Y-40399000D01*
X82931000Y-38891000D01*
X83185000Y-38891000D01*
X83185000Y-40399000D01*
X85028777Y-40399000D01*
X85148124Y-40145566D01*
X91381876Y-40145566D01*
X91501223Y-40399000D01*
X93345000Y-40399000D01*
X93345000Y-38891000D01*
X93599000Y-38891000D01*
X93599000Y-40399000D01*
X95442777Y-40399000D01*
X95562124Y-40145566D01*
X95531144Y-40017645D01*
X95217922Y-39459683D01*
X94715020Y-39064058D01*
X94099000Y-38891000D01*
X93599000Y-38891000D01*
X93345000Y-38891000D01*
X92845000Y-38891000D01*
X92228980Y-39064058D01*
X91726078Y-39459683D01*
X91412856Y-40017645D01*
X91381876Y-40145566D01*
X85148124Y-40145566D01*
X85117144Y-40017645D01*
X84803922Y-39459683D01*
X84301020Y-39064058D01*
X83685000Y-38891000D01*
X83185000Y-38891000D01*
X82931000Y-38891000D01*
X82431000Y-38891000D01*
X81814980Y-39064058D01*
X81312078Y-39459683D01*
X80998856Y-40017645D01*
X80967876Y-40145566D01*
X76682054Y-40145566D01*
X76644422Y-40107869D01*
X75862943Y-39783370D01*
X75016770Y-39782632D01*
X74234726Y-40105766D01*
X73635869Y-40703578D01*
X73311370Y-41485057D01*
X73310632Y-42331230D01*
X72230000Y-42331230D01*
X72230000Y-41715293D01*
X72465756Y-40530066D01*
X73103546Y-39575546D01*
X74058066Y-38937756D01*
X75243293Y-38702000D01*
X108077000Y-38702000D01*
X108077000Y-50431000D01*
X108077000Y-50431000D01*
G37*
X108077000Y-50431000D02*
X107981750Y-50431000D01*
X107823000Y-50589750D01*
X107823000Y-51689000D01*
X107843000Y-51689000D01*
X107843000Y-51943000D01*
X107823000Y-51943000D01*
X107823000Y-53042250D01*
X107981750Y-53201000D01*
X108077000Y-53201000D01*
X108077000Y-53213000D01*
X108087006Y-53262410D01*
X108114197Y-53302803D01*
X115189000Y-60377606D01*
X115189000Y-64008000D01*
X115199006Y-64057410D01*
X115227447Y-64099035D01*
X115269841Y-64126315D01*
X115316000Y-64135000D01*
X119816093Y-64135000D01*
X121303098Y-66613341D01*
X121337100Y-66650562D01*
X121382903Y-66671622D01*
X121412000Y-66675000D01*
X121843668Y-66675000D01*
X120950521Y-67568147D01*
X120809186Y-67779671D01*
X120809186Y-67779672D01*
X120779617Y-67928323D01*
X120710867Y-67996952D01*
X120584699Y-68300800D01*
X120584412Y-68629801D01*
X120710050Y-68933868D01*
X120942485Y-69166710D01*
X121246333Y-69292878D01*
X121316404Y-69292939D01*
X121522000Y-69498534D01*
X121522000Y-71222945D01*
X119016000Y-68716944D01*
X119016000Y-67192673D01*
X119064688Y-67144070D01*
X119190856Y-66840222D01*
X119191143Y-66511221D01*
X119065505Y-66207154D01*
X118833070Y-65974312D01*
X118529222Y-65848144D01*
X118200221Y-65847857D01*
X117896154Y-65973495D01*
X117663312Y-66205930D01*
X117537144Y-66509778D01*
X117536857Y-66838779D01*
X117662495Y-67142846D01*
X117712000Y-67192438D01*
X117712000Y-68987007D01*
X117711999Y-68987012D01*
X117750065Y-69178376D01*
X117761631Y-69236522D01*
X117864796Y-69390920D01*
X117902966Y-69448046D01*
X118212609Y-69757689D01*
X118150154Y-69783495D01*
X117917312Y-70015930D01*
X117791144Y-70319778D01*
X117790857Y-70648779D01*
X117916495Y-70952846D01*
X117966000Y-71002438D01*
X117966000Y-72931669D01*
X111883298Y-66848966D01*
X111856823Y-66831276D01*
X111671774Y-66707631D01*
X111630377Y-66699396D01*
X111422264Y-66657999D01*
X111422259Y-66658000D01*
X111261673Y-66658000D01*
X111213070Y-66609312D01*
X110909222Y-66483144D01*
X110580221Y-66482857D01*
X110276154Y-66608495D01*
X110043312Y-66840930D01*
X109968038Y-67022210D01*
X109893222Y-66991144D01*
X109564221Y-66990857D01*
X109343926Y-67081881D01*
X109285054Y-66993774D01*
X109285143Y-66892221D01*
X109159505Y-66588154D01*
X108927070Y-66355312D01*
X108623222Y-66229144D01*
X108294221Y-66228857D01*
X107990154Y-66354495D01*
X107826215Y-66518147D01*
X107507083Y-66199015D01*
X107507143Y-66130221D01*
X107381505Y-65826154D01*
X107149070Y-65593312D01*
X106845222Y-65467144D01*
X106516221Y-65466857D01*
X106212154Y-65592495D01*
X105979312Y-65824930D01*
X105853144Y-66128778D01*
X105852857Y-66457779D01*
X105978495Y-66761846D01*
X106210930Y-66994688D01*
X106514778Y-67120856D01*
X106584849Y-67120917D01*
X108332214Y-68868282D01*
X108130673Y-68784595D01*
X108060601Y-68784534D01*
X107649034Y-68372966D01*
X107628827Y-68359464D01*
X107403070Y-68133312D01*
X107099222Y-68007144D01*
X106770221Y-68006857D01*
X106466154Y-68132495D01*
X106233312Y-68364930D01*
X106107144Y-68668778D01*
X106106857Y-68997779D01*
X106232495Y-69301846D01*
X106464930Y-69534688D01*
X106768778Y-69660856D01*
X107093071Y-69661139D01*
X107138368Y-69706435D01*
X107138308Y-69775230D01*
X107263946Y-70079297D01*
X107496381Y-70312139D01*
X107800229Y-70438307D01*
X108129230Y-70438594D01*
X108433297Y-70312956D01*
X108666139Y-70080521D01*
X108792307Y-69776673D01*
X108792594Y-69447672D01*
X108708795Y-69244863D01*
X117712000Y-78248067D01*
X117712000Y-87359933D01*
X116491015Y-88580917D01*
X116422221Y-88580857D01*
X116118154Y-88706495D01*
X115885312Y-88938930D01*
X115769432Y-89218001D01*
X113330004Y-89218001D01*
X113329999Y-89218000D01*
X113080490Y-89267631D01*
X113080488Y-89267632D01*
X113080489Y-89267632D01*
X112967774Y-89342946D01*
X112866221Y-89342857D01*
X112562154Y-89468495D01*
X112329312Y-89700930D01*
X112203144Y-90004778D01*
X112202857Y-90333779D01*
X112328495Y-90637846D01*
X112560930Y-90870688D01*
X112864778Y-90996856D01*
X113193779Y-90997143D01*
X113497846Y-90871505D01*
X113730688Y-90639070D01*
X113779299Y-90522001D01*
X116123994Y-90522001D01*
X116123999Y-90522002D01*
X116332112Y-90480605D01*
X116373509Y-90472370D01*
X116585033Y-90331035D01*
X116680985Y-90235083D01*
X116749779Y-90235143D01*
X117053846Y-90109505D01*
X117286688Y-89877070D01*
X117412856Y-89573222D01*
X117412917Y-89503151D01*
X118237000Y-88679068D01*
X119568917Y-90010985D01*
X119568857Y-90079779D01*
X119694495Y-90383846D01*
X119926930Y-90616688D01*
X120230778Y-90742856D01*
X120559779Y-90743143D01*
X120863846Y-90617505D01*
X121096688Y-90385070D01*
X121222856Y-90081222D01*
X121223143Y-89752221D01*
X121097505Y-89448154D01*
X120930555Y-89280912D01*
X121096688Y-89115070D01*
X121222856Y-88811222D01*
X121223143Y-88482221D01*
X121097505Y-88178154D01*
X121048000Y-88128562D01*
X121048000Y-80311246D01*
X132083786Y-91347032D01*
X132083788Y-91347035D01*
X132295312Y-91488370D01*
X132328881Y-91495047D01*
X132394495Y-91653846D01*
X132626930Y-91886688D01*
X132930778Y-92012856D01*
X133259779Y-92013143D01*
X133563846Y-91887505D01*
X133613438Y-91838000D01*
X134082111Y-91838000D01*
X134127337Y-91905686D01*
X134574068Y-92204182D01*
X135101023Y-92309000D01*
X135154977Y-92309000D01*
X135681932Y-92204182D01*
X135746000Y-92161373D01*
X135746000Y-93462327D01*
X135697312Y-93510930D01*
X135571144Y-93814778D01*
X135570857Y-94143779D01*
X135696495Y-94447846D01*
X135928930Y-94680688D01*
X136232778Y-94806856D01*
X136561779Y-94807143D01*
X136865846Y-94681505D01*
X137098688Y-94449070D01*
X137224856Y-94145222D01*
X137225143Y-93816221D01*
X137099505Y-93512154D01*
X137050000Y-93462562D01*
X137050000Y-92250863D01*
X137311108Y-92373486D01*
X137541000Y-92252819D01*
X137541000Y-91059000D01*
X137521000Y-91059000D01*
X137521000Y-90805000D01*
X137541000Y-90805000D01*
X137541000Y-90785000D01*
X137795000Y-90785000D01*
X137795000Y-90805000D01*
X137815000Y-90805000D01*
X137815000Y-91059000D01*
X137795000Y-91059000D01*
X137795000Y-92252819D01*
X138024892Y-92373486D01*
X138404905Y-92195022D01*
X138365144Y-92290778D01*
X138364857Y-92619779D01*
X138490495Y-92923846D01*
X138722930Y-93156688D01*
X139026778Y-93282856D01*
X139355779Y-93283143D01*
X139556000Y-93200413D01*
X139556000Y-94224327D01*
X139507312Y-94272930D01*
X139381144Y-94576778D01*
X139380857Y-94905779D01*
X139506495Y-95209846D01*
X139738930Y-95442688D01*
X140042778Y-95568856D01*
X140371779Y-95569143D01*
X140675846Y-95443505D01*
X140908688Y-95211070D01*
X141034856Y-94907222D01*
X141035143Y-94578221D01*
X140909505Y-94274154D01*
X140860000Y-94224562D01*
X140860000Y-91959963D01*
X140925298Y-91894779D01*
X141051466Y-91590931D01*
X141051753Y-91261930D01*
X140926115Y-90957863D01*
X140693680Y-90725021D01*
X140389832Y-90598853D01*
X140060831Y-90598566D01*
X139844000Y-90688159D01*
X139844000Y-87646068D01*
X141106676Y-86383392D01*
X141106676Y-87718000D01*
X141143423Y-87913294D01*
X141258842Y-88092660D01*
X141434951Y-88212990D01*
X141644000Y-88255324D01*
X141761215Y-88255324D01*
X141493337Y-88434314D01*
X141194841Y-88881045D01*
X141090023Y-89408000D01*
X141194841Y-89934955D01*
X141493337Y-90381686D01*
X141940068Y-90680182D01*
X142467023Y-90785000D01*
X142520977Y-90785000D01*
X143047932Y-90680182D01*
X143494663Y-90381686D01*
X143793159Y-89934955D01*
X143897977Y-89408000D01*
X143793159Y-88881045D01*
X143494663Y-88434314D01*
X143226785Y-88255324D01*
X143344000Y-88255324D01*
X143539294Y-88218577D01*
X143718660Y-88103158D01*
X143838990Y-87927049D01*
X143881324Y-87718000D01*
X143881324Y-86018000D01*
X143844577Y-85822706D01*
X143754831Y-85683237D01*
X144593892Y-84844176D01*
X144606039Y-84825997D01*
X144735227Y-84632652D01*
X144784858Y-84383142D01*
X144784858Y-79987900D01*
X145045109Y-79727648D01*
X145113904Y-79727708D01*
X145276998Y-79660319D01*
X145276994Y-79664746D01*
X145402632Y-79968813D01*
X145635067Y-80201655D01*
X145938915Y-80327823D01*
X146008986Y-80327884D01*
X148666192Y-82985089D01*
X148543222Y-82984982D01*
X148239155Y-83110620D01*
X148006313Y-83343055D01*
X147885918Y-83633000D01*
X146139722Y-83633000D01*
X146091119Y-83584312D01*
X145787271Y-83458144D01*
X145458270Y-83457857D01*
X145154203Y-83583495D01*
X144921361Y-83815930D01*
X144795193Y-84119778D01*
X144794906Y-84448779D01*
X144920544Y-84752846D01*
X145152979Y-84985688D01*
X145456827Y-85111856D01*
X145785828Y-85112143D01*
X146089895Y-84986505D01*
X146139487Y-84937000D01*
X148234121Y-84937000D01*
X148234126Y-84937001D01*
X148442239Y-84895604D01*
X148483636Y-84887369D01*
X148680011Y-84756156D01*
X148680011Y-88791006D01*
X148680010Y-88791011D01*
X148711799Y-88950819D01*
X148729642Y-89040521D01*
X148808467Y-89158491D01*
X148870977Y-89252045D01*
X155276441Y-95657508D01*
X155247222Y-95727875D01*
X155246779Y-96235897D01*
X155440781Y-96705417D01*
X155799693Y-97064957D01*
X156204804Y-97233173D01*
X155801583Y-97399781D01*
X155442043Y-97758693D01*
X155401832Y-97855532D01*
X155390460Y-97828077D01*
X155149517Y-97760088D01*
X154357605Y-98552000D01*
X155149517Y-99343912D01*
X155390460Y-99275923D01*
X155427227Y-99172614D01*
X155440781Y-99205417D01*
X155799693Y-99564957D01*
X156268875Y-99759778D01*
X156776897Y-99760221D01*
X157246417Y-99566219D01*
X157605957Y-99207307D01*
X157800778Y-98738125D01*
X157801221Y-98230103D01*
X157771323Y-98157745D01*
X158060035Y-97869033D01*
X158112843Y-97790000D01*
X158201370Y-97657509D01*
X158224647Y-97540491D01*
X158251002Y-97407999D01*
X158251001Y-97407994D01*
X158251001Y-85081464D01*
X158251002Y-85081459D01*
X158201371Y-84831950D01*
X158141022Y-84741631D01*
X158060035Y-84620425D01*
X158060032Y-84620423D01*
X156793390Y-83353781D01*
X157077932Y-83297182D01*
X157524663Y-82998686D01*
X157823159Y-82551955D01*
X157927977Y-82025000D01*
X157823159Y-81498045D01*
X157524663Y-81051314D01*
X157081198Y-80755000D01*
X157524663Y-80458686D01*
X157823159Y-80011955D01*
X157927977Y-79485000D01*
X157823159Y-78958045D01*
X157524663Y-78511314D01*
X157081198Y-78215000D01*
X157524663Y-77918686D01*
X157823159Y-77471955D01*
X157927977Y-76945000D01*
X157823159Y-76418045D01*
X157524663Y-75971314D01*
X157081198Y-75675000D01*
X157524663Y-75378686D01*
X157823159Y-74931955D01*
X157927977Y-74405000D01*
X157823159Y-73878045D01*
X157524663Y-73431314D01*
X157149238Y-73180463D01*
X157405358Y-73060183D01*
X157795645Y-72631924D01*
X157965476Y-72221890D01*
X157844155Y-71992000D01*
X156651000Y-71992000D01*
X156651000Y-72012000D01*
X156397000Y-72012000D01*
X156397000Y-71992000D01*
X155203845Y-71992000D01*
X155144852Y-72103784D01*
X153065034Y-70023966D01*
X152988024Y-69972510D01*
X152853510Y-69882631D01*
X152812113Y-69874396D01*
X152604000Y-69832999D01*
X152603995Y-69833000D01*
X152426226Y-69833000D01*
X152426316Y-69729752D01*
X152545318Y-69610750D01*
X155039000Y-69610750D01*
X155039000Y-70301310D01*
X155135673Y-70534699D01*
X155314302Y-70713327D01*
X155523878Y-70800136D01*
X155252355Y-71098076D01*
X155082524Y-71508110D01*
X155203845Y-71738000D01*
X156397000Y-71738000D01*
X156397000Y-69452000D01*
X156651000Y-69452000D01*
X156651000Y-71738000D01*
X157844155Y-71738000D01*
X157965476Y-71508110D01*
X157795645Y-71098076D01*
X157524122Y-70800136D01*
X157733698Y-70713327D01*
X157912327Y-70534699D01*
X158009000Y-70301310D01*
X158009000Y-69610750D01*
X157850250Y-69452000D01*
X156651000Y-69452000D01*
X156397000Y-69452000D01*
X155197750Y-69452000D01*
X155039000Y-69610750D01*
X152545318Y-69610750D01*
X153807378Y-68348690D01*
X155039000Y-68348690D01*
X155039000Y-69039250D01*
X155197750Y-69198000D01*
X156397000Y-69198000D01*
X156397000Y-67998750D01*
X156651000Y-67998750D01*
X156651000Y-69198000D01*
X157850250Y-69198000D01*
X158009000Y-69039250D01*
X158009000Y-68348690D01*
X157912327Y-68115301D01*
X157733698Y-67936673D01*
X157500309Y-67840000D01*
X156809750Y-67840000D01*
X156651000Y-67998750D01*
X156397000Y-67998750D01*
X156238250Y-67840000D01*
X155547691Y-67840000D01*
X155314302Y-67936673D01*
X155135673Y-68115301D01*
X155039000Y-68348690D01*
X153807378Y-68348690D01*
X154018985Y-68137083D01*
X154087779Y-68137143D01*
X154391846Y-68011505D01*
X154624688Y-67779070D01*
X154750856Y-67475222D01*
X154751143Y-67146221D01*
X154625505Y-66842154D01*
X154393070Y-66609312D01*
X154089222Y-66483144D01*
X153760221Y-66482857D01*
X153456154Y-66608495D01*
X153223312Y-66840930D01*
X153097144Y-67144778D01*
X153097083Y-67214849D01*
X151169002Y-69142930D01*
X151131356Y-69158485D01*
X150898514Y-69390920D01*
X150772346Y-69694768D01*
X150772225Y-69833000D01*
X147828005Y-69833000D01*
X147828000Y-69832999D01*
X147578491Y-69882630D01*
X147572282Y-69886779D01*
X147366966Y-70023966D01*
X147366964Y-70023969D01*
X146971015Y-70419917D01*
X146902221Y-70419857D01*
X146598154Y-70545495D01*
X146548562Y-70595000D01*
X144780000Y-70595000D01*
X144530490Y-70644631D01*
X144450761Y-70697904D01*
X144338272Y-70697806D01*
X144034205Y-70823444D01*
X143801363Y-71055879D01*
X143675195Y-71359727D01*
X143674908Y-71688728D01*
X143800546Y-71992795D01*
X144032981Y-72225637D01*
X144336829Y-72351805D01*
X144665830Y-72352092D01*
X144969897Y-72226454D01*
X145202739Y-71994019D01*
X145242194Y-71899000D01*
X146548327Y-71899000D01*
X146596930Y-71947688D01*
X146900778Y-72073856D01*
X147229779Y-72074143D01*
X147533846Y-71948505D01*
X147766688Y-71716070D01*
X147892856Y-71412222D01*
X147892917Y-71342150D01*
X148098067Y-71137000D01*
X150291089Y-71137000D01*
X150290970Y-71273789D01*
X150416608Y-71577856D01*
X150649043Y-71810698D01*
X150952891Y-71936866D01*
X151281892Y-71937153D01*
X151382079Y-71895757D01*
X151381858Y-71896289D01*
X151381797Y-71966361D01*
X150357965Y-72990192D01*
X150216630Y-73201716D01*
X150213561Y-73217143D01*
X150166998Y-73451226D01*
X150166999Y-73451231D01*
X150166999Y-76236302D01*
X150166998Y-76236307D01*
X150200159Y-76403013D01*
X150216630Y-76485817D01*
X150357965Y-76697341D01*
X150550083Y-76889458D01*
X150550023Y-76958253D01*
X150562160Y-76987626D01*
X148131121Y-74556587D01*
X148131143Y-74531221D01*
X148005505Y-74227154D01*
X147773070Y-73994312D01*
X147469222Y-73868144D01*
X147140221Y-73867857D01*
X146836154Y-73993495D01*
X146603312Y-74225930D01*
X146477144Y-74529778D01*
X146476857Y-74858779D01*
X146589065Y-75130344D01*
X146496439Y-75222808D01*
X144910841Y-73637210D01*
X144910901Y-73568416D01*
X144785263Y-73264349D01*
X144552828Y-73031507D01*
X144248980Y-72905339D01*
X143919979Y-72905052D01*
X143615912Y-73030690D01*
X143508741Y-73137673D01*
X143371083Y-73000015D01*
X143371143Y-72931221D01*
X143245505Y-72627154D01*
X143013070Y-72394312D01*
X142709222Y-72268144D01*
X142380221Y-72267857D01*
X142076154Y-72393495D01*
X141843312Y-72625930D01*
X141717144Y-72929778D01*
X141716857Y-73258779D01*
X141842495Y-73562846D01*
X142074930Y-73795688D01*
X142378778Y-73921856D01*
X142448849Y-73921917D01*
X142584387Y-74057455D01*
X142390425Y-74251077D01*
X142264257Y-74554925D01*
X142263970Y-74883926D01*
X142385309Y-75177589D01*
X142273145Y-75447711D01*
X142272858Y-75776712D01*
X142398496Y-76080779D01*
X142630931Y-76313621D01*
X142934779Y-76439789D01*
X143004850Y-76439850D01*
X143081352Y-76516352D01*
X143055967Y-76516330D01*
X142751900Y-76641968D01*
X142519058Y-76874403D01*
X142392890Y-77178251D01*
X142392829Y-77248323D01*
X140666066Y-78975085D01*
X140560065Y-79133728D01*
X140373222Y-79056144D01*
X140303150Y-79056083D01*
X137003932Y-75756864D01*
X137323779Y-75757143D01*
X137627846Y-75631505D01*
X137860688Y-75399070D01*
X137986856Y-75095222D01*
X137987143Y-74766221D01*
X137861505Y-74462154D01*
X137629070Y-74229312D01*
X137553942Y-74198116D01*
X144532278Y-67219779D01*
X149540857Y-67219779D01*
X149666495Y-67523846D01*
X149898930Y-67756688D01*
X150202778Y-67882856D01*
X150531779Y-67883143D01*
X150835846Y-67757505D01*
X151068688Y-67525070D01*
X151194856Y-67221222D01*
X151195143Y-66892221D01*
X151172035Y-66836297D01*
X152734034Y-65274298D01*
X152875370Y-65062773D01*
X152901817Y-64929815D01*
X152973688Y-64858070D01*
X153099856Y-64554222D01*
X153100143Y-64225221D01*
X152974505Y-63921154D01*
X152742070Y-63688312D01*
X152438222Y-63562144D01*
X152109221Y-63561857D01*
X151805154Y-63687495D01*
X151572312Y-63919930D01*
X151446144Y-64223778D01*
X151445857Y-64552779D01*
X151494264Y-64669932D01*
X149906966Y-66257230D01*
X149765631Y-66468754D01*
X149765631Y-66468755D01*
X149760660Y-66493745D01*
X149667312Y-66586930D01*
X149541144Y-66890778D01*
X149540857Y-67219779D01*
X144532278Y-67219779D01*
X148684984Y-63067073D01*
X148753779Y-63067133D01*
X149057846Y-62941495D01*
X149290688Y-62709060D01*
X149416856Y-62405212D01*
X149417143Y-62076211D01*
X149291505Y-61772144D01*
X149059070Y-61539302D01*
X148755222Y-61413134D01*
X148649539Y-61413042D01*
X148695530Y-61367051D01*
X148764325Y-61367111D01*
X149068392Y-61241473D01*
X149301234Y-61009038D01*
X149427402Y-60705190D01*
X149427689Y-60376189D01*
X149302051Y-60072122D01*
X149069616Y-59839280D01*
X148765768Y-59713112D01*
X148436767Y-59712825D01*
X148132700Y-59838463D01*
X147899858Y-60070898D01*
X147773690Y-60374746D01*
X147773629Y-60444818D01*
X146999628Y-61218818D01*
X146579641Y-61218818D01*
X146750688Y-61048070D01*
X146876856Y-60744222D01*
X146877143Y-60415221D01*
X146751505Y-60111154D01*
X146519070Y-59878312D01*
X146215222Y-59752144D01*
X145886221Y-59751857D01*
X145582154Y-59877495D01*
X145532562Y-59927000D01*
X139579803Y-59927000D01*
X141333802Y-58173001D01*
X141961028Y-58173001D01*
X142046495Y-58379846D01*
X142278930Y-58612688D01*
X142582778Y-58738856D01*
X142911779Y-58739143D01*
X143215846Y-58613505D01*
X143265438Y-58564000D01*
X146802327Y-58564000D01*
X146850930Y-58612688D01*
X147154778Y-58738856D01*
X147483779Y-58739143D01*
X147787846Y-58613505D01*
X148020688Y-58381070D01*
X148146856Y-58077222D01*
X148147143Y-57748221D01*
X148021505Y-57444154D01*
X148008373Y-57430999D01*
X148270907Y-57430999D01*
X148270857Y-57488779D01*
X148396495Y-57792846D01*
X148628930Y-58025688D01*
X148932778Y-58151856D01*
X149261779Y-58152143D01*
X149565846Y-58026505D01*
X149798688Y-57794070D01*
X149924856Y-57490222D01*
X149925143Y-57161221D01*
X149799505Y-56857154D01*
X149567070Y-56624312D01*
X149263222Y-56498144D01*
X149193150Y-56498083D01*
X149013033Y-56317965D01*
X148987873Y-56301154D01*
X148801509Y-56176630D01*
X148760112Y-56168395D01*
X148551999Y-56126998D01*
X148551994Y-56126999D01*
X146600955Y-56126999D01*
X146601143Y-55911221D01*
X146475505Y-55607154D01*
X146243070Y-55374312D01*
X145939222Y-55248144D01*
X145610221Y-55247857D01*
X145306154Y-55373495D01*
X145256562Y-55423000D01*
X141274005Y-55423000D01*
X141274000Y-55422999D01*
X141024491Y-55472630D01*
X141024489Y-55472631D01*
X141024490Y-55472631D01*
X140812966Y-55613966D01*
X140812964Y-55613969D01*
X136179015Y-60247917D01*
X136110221Y-60247857D01*
X135806154Y-60373495D01*
X135573312Y-60605930D01*
X135447144Y-60909778D01*
X135446857Y-61238779D01*
X135572495Y-61542846D01*
X135804930Y-61775688D01*
X135862906Y-61799762D01*
X134239000Y-63423668D01*
X134239000Y-60885606D01*
X136995803Y-58128803D01*
X137023666Y-58086789D01*
X137033000Y-58039000D01*
X137033000Y-42331230D01*
X154082632Y-42331230D01*
X154405766Y-43113274D01*
X155003578Y-43712131D01*
X155785057Y-44036630D01*
X156631230Y-44037368D01*
X157413274Y-43714234D01*
X158012131Y-43116422D01*
X158336630Y-42334943D01*
X158337368Y-41488770D01*
X158014234Y-40706726D01*
X157416422Y-40107869D01*
X156634943Y-39783370D01*
X155788770Y-39782632D01*
X155006726Y-40105766D01*
X154407869Y-40703578D01*
X154083370Y-41485057D01*
X154082632Y-42331230D01*
X137033000Y-42331230D01*
X137033000Y-38702000D01*
X156404707Y-38702000D01*
X157589934Y-38937756D01*
X158544454Y-39575546D01*
X159182244Y-40530066D01*
X159418000Y-41715293D01*
X159418000Y-103826707D01*
X159182244Y-105011934D01*
X158544454Y-105966454D01*
X157589934Y-106604244D01*
X156570609Y-106807000D01*
X75077391Y-106807000D01*
X74058066Y-106604244D01*
X73103546Y-105966454D01*
X73041448Y-105873517D01*
X124430088Y-105873517D01*
X124498077Y-106114460D01*
X125017171Y-106299201D01*
X125567448Y-106271230D01*
X125945923Y-106114460D01*
X126013912Y-105873517D01*
X125222000Y-105081605D01*
X124430088Y-105873517D01*
X73041448Y-105873517D01*
X72465756Y-105011934D01*
X72275059Y-104053230D01*
X73310632Y-104053230D01*
X73633766Y-104835274D01*
X74231578Y-105434131D01*
X75013057Y-105758630D01*
X75859230Y-105759368D01*
X76641274Y-105436234D01*
X77240131Y-104838422D01*
X77381946Y-104496892D01*
X100920514Y-104496892D01*
X101166817Y-105021358D01*
X101595076Y-105411645D01*
X102005110Y-105581476D01*
X102235000Y-105460155D01*
X102235000Y-104267000D01*
X101041181Y-104267000D01*
X100920514Y-104496892D01*
X77381946Y-104496892D01*
X77564630Y-104056943D01*
X77564868Y-103783108D01*
X100920514Y-103783108D01*
X101041181Y-104013000D01*
X102235000Y-104013000D01*
X102235000Y-102819845D01*
X102489000Y-102819845D01*
X102489000Y-104013000D01*
X102509000Y-104013000D01*
X102509000Y-104267000D01*
X102489000Y-104267000D01*
X102489000Y-105460155D01*
X102718890Y-105581476D01*
X103128924Y-105411645D01*
X103525935Y-105049836D01*
X103551423Y-105185294D01*
X103666842Y-105364660D01*
X103842951Y-105484990D01*
X104052000Y-105527324D01*
X105752000Y-105527324D01*
X105947294Y-105490577D01*
X106126660Y-105375158D01*
X106246990Y-105199049D01*
X106289324Y-104990000D01*
X106289324Y-103290000D01*
X106252577Y-103094706D01*
X106137158Y-102915340D01*
X105961049Y-102795010D01*
X105752000Y-102752676D01*
X104052000Y-102752676D01*
X103856706Y-102789423D01*
X103677340Y-102904842D01*
X103557010Y-103080951D01*
X103526659Y-103230825D01*
X103128924Y-102868355D01*
X102718890Y-102698524D01*
X102489000Y-102819845D01*
X102235000Y-102819845D01*
X102005110Y-102698524D01*
X101595076Y-102868355D01*
X101166817Y-103258642D01*
X100920514Y-103783108D01*
X77564868Y-103783108D01*
X77565368Y-103210770D01*
X77242234Y-102428726D01*
X77131220Y-102317517D01*
X80488088Y-102317517D01*
X80556077Y-102558460D01*
X81075171Y-102743201D01*
X81625448Y-102715230D01*
X81805784Y-102640532D01*
X87205073Y-102640532D01*
X87303736Y-102907387D01*
X87913461Y-103133908D01*
X88563460Y-103109856D01*
X89052264Y-102907387D01*
X89150927Y-102640532D01*
X88178000Y-101667605D01*
X87205073Y-102640532D01*
X81805784Y-102640532D01*
X82003923Y-102558460D01*
X82071912Y-102317517D01*
X81280000Y-101525605D01*
X80488088Y-102317517D01*
X77131220Y-102317517D01*
X76644422Y-101829869D01*
X75862943Y-101505370D01*
X75016770Y-101504632D01*
X74234726Y-101827766D01*
X73635869Y-102425578D01*
X73311370Y-103207057D01*
X73310632Y-104053230D01*
X72275059Y-104053230D01*
X72230000Y-103826707D01*
X72230000Y-101141171D01*
X79882799Y-101141171D01*
X79910770Y-101691448D01*
X80067540Y-102069923D01*
X80308483Y-102137912D01*
X81100395Y-101346000D01*
X81459605Y-101346000D01*
X82251517Y-102137912D01*
X82492460Y-102069923D01*
X82677201Y-101550829D01*
X82660561Y-101223461D01*
X86532092Y-101223461D01*
X86556144Y-101873460D01*
X86758613Y-102362264D01*
X87025468Y-102460927D01*
X87998395Y-101488000D01*
X88357605Y-101488000D01*
X89330532Y-102460927D01*
X89597387Y-102362264D01*
X89823908Y-101752539D01*
X89799856Y-101102540D01*
X89597387Y-100613736D01*
X89330532Y-100515073D01*
X88357605Y-101488000D01*
X87998395Y-101488000D01*
X87025468Y-100515073D01*
X86758613Y-100613736D01*
X86532092Y-101223461D01*
X82660561Y-101223461D01*
X82649230Y-101000552D01*
X82492460Y-100622077D01*
X82251517Y-100554088D01*
X81459605Y-101346000D01*
X81100395Y-101346000D01*
X80308483Y-100554088D01*
X80067540Y-100622077D01*
X79882799Y-101141171D01*
X72230000Y-101141171D01*
X72230000Y-100374483D01*
X80488088Y-100374483D01*
X81280000Y-101166395D01*
X82071912Y-100374483D01*
X82060903Y-100335468D01*
X87205073Y-100335468D01*
X88178000Y-101308395D01*
X89150927Y-100335468D01*
X89052264Y-100068613D01*
X88442539Y-99842092D01*
X87792540Y-99866144D01*
X87303736Y-100068613D01*
X87205073Y-100335468D01*
X82060903Y-100335468D01*
X82003923Y-100133540D01*
X81484829Y-99948799D01*
X80934552Y-99976770D01*
X80556077Y-100133540D01*
X80488088Y-100374483D01*
X72230000Y-100374483D01*
X72230000Y-87986890D01*
X73742524Y-87986890D01*
X73912355Y-88396924D01*
X74302642Y-88825183D01*
X74558762Y-88945463D01*
X74183337Y-89196314D01*
X73884841Y-89643045D01*
X73780023Y-90170000D01*
X73884841Y-90696955D01*
X74183337Y-91143686D01*
X74626802Y-91440000D01*
X74183337Y-91736314D01*
X73884841Y-92183045D01*
X73780023Y-92710000D01*
X73884841Y-93236955D01*
X74183337Y-93683686D01*
X74626802Y-93980000D01*
X74183337Y-94276314D01*
X73884841Y-94723045D01*
X73780023Y-95250000D01*
X73884841Y-95776955D01*
X74183337Y-96223686D01*
X74626802Y-96520000D01*
X74183337Y-96816314D01*
X73884841Y-97263045D01*
X73780023Y-97790000D01*
X73884841Y-98316955D01*
X74183337Y-98763686D01*
X74630068Y-99062182D01*
X75157023Y-99167000D01*
X75210977Y-99167000D01*
X75737932Y-99062182D01*
X76184663Y-98763686D01*
X76483159Y-98316955D01*
X76587977Y-97790000D01*
X76483159Y-97263045D01*
X76184663Y-96816314D01*
X75741198Y-96520000D01*
X76184663Y-96223686D01*
X76483159Y-95776955D01*
X76587977Y-95250000D01*
X76483159Y-94723045D01*
X76184663Y-94276314D01*
X75741198Y-93980000D01*
X76184663Y-93683686D01*
X76483159Y-93236955D01*
X76587977Y-92710000D01*
X76573656Y-92638000D01*
X83090676Y-92638000D01*
X83090676Y-96338000D01*
X83127423Y-96533294D01*
X83242842Y-96712660D01*
X83418951Y-96832990D01*
X83628000Y-96875324D01*
X86328000Y-96875324D01*
X86523294Y-96838577D01*
X86702660Y-96723158D01*
X86822990Y-96547049D01*
X86865324Y-96338000D01*
X86865324Y-92638000D01*
X86828577Y-92442706D01*
X86713158Y-92263340D01*
X86537049Y-92143010D01*
X86328000Y-92100676D01*
X83628000Y-92100676D01*
X83432706Y-92137423D01*
X83253340Y-92252842D01*
X83133010Y-92428951D01*
X83090676Y-92638000D01*
X76573656Y-92638000D01*
X76483159Y-92183045D01*
X76184663Y-91736314D01*
X75741198Y-91440000D01*
X76184663Y-91143686D01*
X76483159Y-90696955D01*
X76587977Y-90170000D01*
X76483159Y-89643045D01*
X76184663Y-89196314D01*
X75809238Y-88945463D01*
X76065358Y-88825183D01*
X76455645Y-88396924D01*
X76625476Y-87986890D01*
X76504155Y-87757000D01*
X75311000Y-87757000D01*
X75311000Y-87777000D01*
X75057000Y-87777000D01*
X75057000Y-87757000D01*
X73863845Y-87757000D01*
X73742524Y-87986890D01*
X72230000Y-87986890D01*
X72230000Y-85375750D01*
X73699000Y-85375750D01*
X73699000Y-86066310D01*
X73795673Y-86299699D01*
X73974302Y-86478327D01*
X74183878Y-86565136D01*
X73912355Y-86863076D01*
X73742524Y-87273110D01*
X73863845Y-87503000D01*
X75057000Y-87503000D01*
X75057000Y-85217000D01*
X75311000Y-85217000D01*
X75311000Y-87503000D01*
X76504155Y-87503000D01*
X76625476Y-87273110D01*
X76455645Y-86863076D01*
X76184122Y-86565136D01*
X76393698Y-86478327D01*
X76572327Y-86299699D01*
X76669000Y-86066310D01*
X76669000Y-85375750D01*
X76510250Y-85217000D01*
X75311000Y-85217000D01*
X75057000Y-85217000D01*
X73857750Y-85217000D01*
X73699000Y-85375750D01*
X72230000Y-85375750D01*
X72230000Y-84113690D01*
X73699000Y-84113690D01*
X73699000Y-84804250D01*
X73857750Y-84963000D01*
X75057000Y-84963000D01*
X75057000Y-83763750D01*
X75311000Y-83763750D01*
X75311000Y-84963000D01*
X76510250Y-84963000D01*
X76669000Y-84804250D01*
X76669000Y-84113690D01*
X76572327Y-83880301D01*
X76393698Y-83701673D01*
X76160309Y-83605000D01*
X75469750Y-83605000D01*
X75311000Y-83763750D01*
X75057000Y-83763750D01*
X74898250Y-83605000D01*
X74207691Y-83605000D01*
X73974302Y-83701673D01*
X73795673Y-83880301D01*
X73699000Y-84113690D01*
X72230000Y-84113690D01*
X72230000Y-80494730D01*
X73183632Y-80494730D01*
X73506766Y-81276774D01*
X74104578Y-81875631D01*
X74886057Y-82200130D01*
X75732230Y-82200868D01*
X76514274Y-81877734D01*
X77113131Y-81279922D01*
X77437630Y-80498443D01*
X77438368Y-79652270D01*
X77115234Y-78870226D01*
X76517422Y-78271369D01*
X75735943Y-77946870D01*
X74889770Y-77946132D01*
X74107726Y-78269266D01*
X73508869Y-78867078D01*
X73184370Y-79648557D01*
X73183632Y-80494730D01*
X72230000Y-80494730D01*
X72230000Y-72553779D01*
X78166857Y-72553779D01*
X78292495Y-72857846D01*
X78524930Y-73090688D01*
X78828778Y-73216856D01*
X79157779Y-73217143D01*
X79334186Y-73144253D01*
X79436917Y-73246984D01*
X79436857Y-73315779D01*
X79562495Y-73619846D01*
X79794930Y-73852688D01*
X80098778Y-73978856D01*
X80427779Y-73979143D01*
X80731846Y-73853505D01*
X80964688Y-73621070D01*
X81090856Y-73317222D01*
X81091143Y-72988221D01*
X80965505Y-72684154D01*
X80733070Y-72451312D01*
X80585425Y-72390005D01*
X80731846Y-72329505D01*
X80761624Y-72299779D01*
X84516857Y-72299779D01*
X84642495Y-72603846D01*
X84874930Y-72836688D01*
X85178778Y-72962856D01*
X85248849Y-72962917D01*
X85532917Y-73246985D01*
X85532857Y-73315779D01*
X85658495Y-73619846D01*
X85890930Y-73852688D01*
X86194778Y-73978856D01*
X86523779Y-73979143D01*
X86827846Y-73853505D01*
X87060688Y-73621070D01*
X87186856Y-73317222D01*
X87187143Y-72988221D01*
X87061505Y-72684154D01*
X86829070Y-72451312D01*
X86525222Y-72325144D01*
X86455151Y-72325083D01*
X86171083Y-72041015D01*
X86171143Y-71972221D01*
X86045505Y-71668154D01*
X85813070Y-71435312D01*
X85509222Y-71309144D01*
X85180221Y-71308857D01*
X84876154Y-71434495D01*
X84643312Y-71666930D01*
X84517144Y-71970778D01*
X84516857Y-72299779D01*
X80761624Y-72299779D01*
X80964688Y-72097070D01*
X81090856Y-71793222D01*
X81091143Y-71464221D01*
X80965505Y-71160154D01*
X80916000Y-71110562D01*
X80916000Y-62335085D01*
X82983237Y-62335085D01*
X83090010Y-62593496D01*
X82993144Y-62826778D01*
X82992857Y-63155779D01*
X83118495Y-63459846D01*
X83350930Y-63692688D01*
X83654778Y-63818856D01*
X83983779Y-63819143D01*
X84287846Y-63693505D01*
X84337438Y-63644000D01*
X88391995Y-63644000D01*
X88392000Y-63644001D01*
X88600113Y-63602604D01*
X88641510Y-63594369D01*
X88685412Y-63565035D01*
X88809779Y-63565143D01*
X89113846Y-63439505D01*
X89346688Y-63207070D01*
X89472856Y-62903222D01*
X89473143Y-62574221D01*
X89347505Y-62270154D01*
X89115070Y-62037312D01*
X88811222Y-61911144D01*
X88482221Y-61910857D01*
X88178154Y-62036495D01*
X87945312Y-62268930D01*
X87915801Y-62340000D01*
X87347075Y-62340000D01*
X88584988Y-61102086D01*
X88653783Y-61102146D01*
X88957850Y-60976508D01*
X89190692Y-60744073D01*
X89316860Y-60440225D01*
X89317147Y-60111224D01*
X89191509Y-59807157D01*
X88959074Y-59574315D01*
X88655226Y-59448147D01*
X88326225Y-59447860D01*
X88022158Y-59573498D01*
X87789316Y-59805933D01*
X87663148Y-60109781D01*
X87663087Y-60179853D01*
X86323633Y-61519306D01*
X84328053Y-61519306D01*
X84279450Y-61470618D01*
X83975602Y-61344450D01*
X83646601Y-61344163D01*
X83342534Y-61469801D01*
X83109692Y-61702236D01*
X82983524Y-62006084D01*
X82983237Y-62335085D01*
X80916000Y-62335085D01*
X80916000Y-55162039D01*
X81210626Y-55162296D01*
X81514693Y-55036658D01*
X81747535Y-54804223D01*
X81796146Y-54687154D01*
X83971603Y-54687154D01*
X83971608Y-54687155D01*
X84179721Y-54645758D01*
X84221118Y-54637523D01*
X84432642Y-54496188D01*
X84432643Y-54496187D01*
X86967958Y-51960871D01*
X87152887Y-52146124D01*
X87311098Y-52211819D01*
X87310857Y-52487779D01*
X87436495Y-52791846D01*
X87668930Y-53024688D01*
X87972778Y-53150856D01*
X88301779Y-53151143D01*
X88605846Y-53025505D01*
X88655438Y-52976000D01*
X90922327Y-52976000D01*
X90970930Y-53024688D01*
X91274778Y-53150856D01*
X91603779Y-53151143D01*
X91907846Y-53025505D01*
X92140688Y-52793070D01*
X92266856Y-52489222D01*
X92267143Y-52160348D01*
X92312000Y-52178975D01*
X92312000Y-54085933D01*
X91599015Y-54798917D01*
X91530221Y-54798857D01*
X91226154Y-54924495D01*
X90993312Y-55156930D01*
X90867144Y-55460778D01*
X90866857Y-55789779D01*
X90992495Y-56093846D01*
X91224930Y-56326688D01*
X91528778Y-56452856D01*
X91857779Y-56453143D01*
X92161846Y-56327505D01*
X92394688Y-56095070D01*
X92520856Y-55791222D01*
X92520917Y-55721151D01*
X93425031Y-54817036D01*
X93425034Y-54817034D01*
X93566369Y-54605510D01*
X93616000Y-54356000D01*
X93616000Y-52179299D01*
X93693206Y-52147398D01*
X93764999Y-52075730D01*
X93764999Y-55300994D01*
X93764998Y-55300999D01*
X93806395Y-55509112D01*
X93814630Y-55550509D01*
X93896453Y-55672966D01*
X93955965Y-55762033D01*
X94609016Y-56415084D01*
X94528154Y-56448495D01*
X94478562Y-56498000D01*
X85861673Y-56498000D01*
X85813070Y-56449312D01*
X85509222Y-56323144D01*
X85180221Y-56322857D01*
X84876154Y-56448495D01*
X84643312Y-56680930D01*
X84517144Y-56984778D01*
X84516857Y-57313779D01*
X84642495Y-57617846D01*
X84874930Y-57850688D01*
X85178778Y-57976856D01*
X85507779Y-57977143D01*
X85811846Y-57851505D01*
X85861438Y-57802000D01*
X92785239Y-57802000D01*
X92750154Y-57816497D01*
X92517312Y-58048932D01*
X92391144Y-58352780D01*
X92390857Y-58681781D01*
X92516495Y-58985848D01*
X92748930Y-59218690D01*
X93052778Y-59344858D01*
X93122849Y-59344919D01*
X94436964Y-60659034D01*
X94648488Y-60800369D01*
X94689885Y-60808604D01*
X94897998Y-60850001D01*
X94898003Y-60850000D01*
X96764327Y-60850000D01*
X96812930Y-60898688D01*
X97116778Y-61024856D01*
X97255001Y-61024977D01*
X97255001Y-62926976D01*
X97118221Y-62926857D01*
X96814154Y-63052495D01*
X96581312Y-63284930D01*
X96455144Y-63588778D01*
X96454857Y-63917779D01*
X96580495Y-64221846D01*
X96617258Y-64258674D01*
X95984916Y-64891016D01*
X95951505Y-64810154D01*
X95719070Y-64577312D01*
X95415222Y-64451144D01*
X95086221Y-64450857D01*
X94782154Y-64576495D01*
X94549312Y-64808930D01*
X94423144Y-65112778D01*
X94423083Y-65182849D01*
X93909956Y-65695976D01*
X93768621Y-65907500D01*
X93768621Y-65907501D01*
X93718989Y-66157010D01*
X93718990Y-66157015D01*
X93718990Y-66679194D01*
X93544618Y-66606789D01*
X93215617Y-66606502D01*
X93007930Y-66692317D01*
X92925070Y-66609312D01*
X92621222Y-66483144D01*
X92292221Y-66482857D01*
X91988154Y-66608495D01*
X91755312Y-66840930D01*
X91629144Y-67144778D01*
X91628975Y-67338654D01*
X91374499Y-67338432D01*
X90997083Y-66961015D01*
X90997143Y-66892221D01*
X90871505Y-66588154D01*
X90639070Y-66355312D01*
X90616533Y-66345954D01*
X92048486Y-64914000D01*
X92192327Y-64914000D01*
X92240930Y-64962688D01*
X92544778Y-65088856D01*
X92873779Y-65089143D01*
X93177846Y-64963505D01*
X93410688Y-64731070D01*
X93536856Y-64427222D01*
X93537143Y-64098221D01*
X93411505Y-63794154D01*
X93179070Y-63561312D01*
X92875222Y-63435144D01*
X92546221Y-63434857D01*
X92242154Y-63560495D01*
X92192562Y-63610000D01*
X91778419Y-63610000D01*
X91528909Y-63659631D01*
X91317385Y-63800966D01*
X91317383Y-63800969D01*
X88438966Y-66679385D01*
X88297631Y-66890909D01*
X88290947Y-66924510D01*
X88247999Y-67140419D01*
X88248000Y-67140424D01*
X88248000Y-83549933D01*
X86265015Y-85532917D01*
X86196221Y-85532857D01*
X85892154Y-85658495D01*
X85659312Y-85890930D01*
X85533144Y-86194778D01*
X85532857Y-86523779D01*
X85658495Y-86827846D01*
X85890930Y-87060688D01*
X86194778Y-87186856D01*
X86523779Y-87187143D01*
X86650871Y-87134630D01*
X86650735Y-87290407D01*
X86882717Y-87851846D01*
X87311894Y-88281773D01*
X87872928Y-88514735D01*
X88480407Y-88515265D01*
X89041846Y-88283283D01*
X89184846Y-88140532D01*
X89705073Y-88140532D01*
X89803736Y-88407387D01*
X90413461Y-88633908D01*
X91063460Y-88609856D01*
X91552264Y-88407387D01*
X91650927Y-88140532D01*
X90678000Y-87167605D01*
X89705073Y-88140532D01*
X89184846Y-88140532D01*
X89408199Y-87917570D01*
X89525468Y-87960927D01*
X90498395Y-86988000D01*
X89525468Y-86015073D01*
X89407815Y-86058572D01*
X89185101Y-85835468D01*
X89705073Y-85835468D01*
X90678000Y-86808395D01*
X91650927Y-85835468D01*
X91552264Y-85568613D01*
X90942539Y-85342092D01*
X90292540Y-85366144D01*
X89803736Y-85568613D01*
X89705073Y-85835468D01*
X89185101Y-85835468D01*
X89044106Y-85694227D01*
X88483072Y-85461265D01*
X88181066Y-85461002D01*
X89361031Y-84281036D01*
X89361034Y-84281034D01*
X89502369Y-84069510D01*
X89552000Y-83820000D01*
X89552000Y-67607497D01*
X89700930Y-67756688D01*
X90004778Y-67882856D01*
X90074849Y-67882917D01*
X90784109Y-68592176D01*
X90801138Y-68633390D01*
X91033573Y-68866232D01*
X91337421Y-68992400D01*
X91666422Y-68992687D01*
X91804000Y-68935841D01*
X91804000Y-84073995D01*
X91803999Y-84074000D01*
X91843615Y-84273158D01*
X91853631Y-84323510D01*
X91980664Y-84513630D01*
X91994966Y-84535034D01*
X92390917Y-84930984D01*
X92390857Y-84999779D01*
X92516495Y-85303846D01*
X92732239Y-85519968D01*
X92314154Y-85692717D01*
X91947801Y-86058430D01*
X91830532Y-86015073D01*
X90857605Y-86988000D01*
X91830532Y-87960927D01*
X91948185Y-87917428D01*
X92311894Y-88281773D01*
X92872928Y-88514735D01*
X93480407Y-88515265D01*
X93570552Y-88478018D01*
X93525998Y-88702001D01*
X93525999Y-88702006D01*
X93525999Y-99979090D01*
X93483072Y-99961265D01*
X92875593Y-99960735D01*
X92314154Y-100192717D01*
X91884227Y-100621894D01*
X91651265Y-101182928D01*
X91650735Y-101790407D01*
X91882717Y-102351846D01*
X92311894Y-102781773D01*
X92872928Y-103014735D01*
X93480407Y-103015265D01*
X94041846Y-102783283D01*
X94471773Y-102354106D01*
X94704735Y-101793072D01*
X94704973Y-101520000D01*
X107636819Y-101520000D01*
X107742672Y-102052160D01*
X108044116Y-102503303D01*
X108495259Y-102804747D01*
X109027419Y-102910600D01*
X110428581Y-102910600D01*
X110960741Y-102804747D01*
X111411884Y-102503303D01*
X111713328Y-102052160D01*
X111728459Y-101976093D01*
X111798930Y-102046688D01*
X112102778Y-102172856D01*
X112431779Y-102173143D01*
X112735846Y-102047505D01*
X112968688Y-101815070D01*
X113094856Y-101511222D01*
X113095143Y-101182221D01*
X112969505Y-100878154D01*
X112920000Y-100828562D01*
X112920000Y-95005673D01*
X112968688Y-94957070D01*
X113094856Y-94653222D01*
X113094857Y-94651779D01*
X114234857Y-94651779D01*
X114360495Y-94955846D01*
X114410000Y-95005438D01*
X114410000Y-96773995D01*
X114409999Y-96774000D01*
X114430891Y-96879026D01*
X114459631Y-97023510D01*
X114522915Y-97118221D01*
X114600966Y-97235034D01*
X122108917Y-104742984D01*
X122108857Y-104811779D01*
X122234495Y-105115846D01*
X122466930Y-105348688D01*
X122770778Y-105474856D01*
X123099779Y-105475143D01*
X123403846Y-105349505D01*
X123636688Y-105117070D01*
X123762856Y-104813222D01*
X123762957Y-104697171D01*
X123824799Y-104697171D01*
X123852770Y-105247448D01*
X124009540Y-105625923D01*
X124250483Y-105693912D01*
X125042395Y-104902000D01*
X125401605Y-104902000D01*
X126193517Y-105693912D01*
X126434460Y-105625923D01*
X126619201Y-105106829D01*
X126591230Y-104556552D01*
X126434460Y-104178077D01*
X126193517Y-104110088D01*
X125401605Y-104902000D01*
X125042395Y-104902000D01*
X124250483Y-104110088D01*
X124009540Y-104178077D01*
X123824799Y-104697171D01*
X123762957Y-104697171D01*
X123763143Y-104484221D01*
X123637505Y-104180154D01*
X123405070Y-103947312D01*
X123364542Y-103930483D01*
X124430088Y-103930483D01*
X125222000Y-104722395D01*
X125891165Y-104053230D01*
X154082632Y-104053230D01*
X154405766Y-104835274D01*
X155003578Y-105434131D01*
X155785057Y-105758630D01*
X156631230Y-105759368D01*
X157413274Y-105436234D01*
X158012131Y-104838422D01*
X158336630Y-104056943D01*
X158337368Y-103210770D01*
X158014234Y-102428726D01*
X157416422Y-101829869D01*
X156634943Y-101505370D01*
X155788770Y-101504632D01*
X155006726Y-101827766D01*
X154407869Y-102425578D01*
X154083370Y-103207057D01*
X154082632Y-104053230D01*
X125891165Y-104053230D01*
X126013912Y-103930483D01*
X125945923Y-103689540D01*
X125426829Y-103504799D01*
X124876552Y-103532770D01*
X124498077Y-103689540D01*
X124430088Y-103930483D01*
X123364542Y-103930483D01*
X123101222Y-103821144D01*
X123031150Y-103821083D01*
X122120667Y-102910600D01*
X122928581Y-102910600D01*
X123460741Y-102804747D01*
X123809794Y-102571517D01*
X141194088Y-102571517D01*
X141262077Y-102812460D01*
X141781171Y-102997201D01*
X142331448Y-102969230D01*
X142709923Y-102812460D01*
X142777912Y-102571517D01*
X141986000Y-101779605D01*
X141194088Y-102571517D01*
X123809794Y-102571517D01*
X123911884Y-102503303D01*
X124213328Y-102052160D01*
X124319181Y-101520000D01*
X124294352Y-101395171D01*
X140588799Y-101395171D01*
X140616770Y-101945448D01*
X140773540Y-102323923D01*
X141014483Y-102391912D01*
X141806395Y-101600000D01*
X142165605Y-101600000D01*
X142957517Y-102391912D01*
X143198460Y-102323923D01*
X143342735Y-101918532D01*
X144165073Y-101918532D01*
X144263736Y-102185387D01*
X144873461Y-102411908D01*
X145523460Y-102387856D01*
X146012264Y-102185387D01*
X146110927Y-101918532D01*
X150665073Y-101918532D01*
X150763736Y-102185387D01*
X151373461Y-102411908D01*
X152023460Y-102387856D01*
X152512264Y-102185387D01*
X152610927Y-101918532D01*
X151638000Y-100945605D01*
X150665073Y-101918532D01*
X146110927Y-101918532D01*
X145138000Y-100945605D01*
X144165073Y-101918532D01*
X143342735Y-101918532D01*
X143383201Y-101804829D01*
X143355230Y-101254552D01*
X143198460Y-100876077D01*
X142957517Y-100808088D01*
X142165605Y-101600000D01*
X141806395Y-101600000D01*
X141014483Y-100808088D01*
X140773540Y-100876077D01*
X140588799Y-101395171D01*
X124294352Y-101395171D01*
X124213328Y-100987840D01*
X123911884Y-100536697D01*
X123460741Y-100235253D01*
X122928581Y-100129400D01*
X121527419Y-100129400D01*
X120995259Y-100235253D01*
X120544116Y-100536697D01*
X120242672Y-100987840D01*
X120235245Y-101025178D01*
X116089094Y-96879026D01*
X120112642Y-96879026D01*
X120134473Y-96976157D01*
X120418127Y-97489868D01*
X120876778Y-97855925D01*
X121440600Y-98018600D01*
X122101000Y-98018600D01*
X122101000Y-96647000D01*
X122355000Y-96647000D01*
X122355000Y-98018600D01*
X123015400Y-98018600D01*
X123579222Y-97855925D01*
X124037873Y-97489868D01*
X124321527Y-96976157D01*
X124343358Y-96879026D01*
X124222217Y-96647000D01*
X122355000Y-96647000D01*
X122101000Y-96647000D01*
X120233783Y-96647000D01*
X120112642Y-96879026D01*
X116089094Y-96879026D01*
X115714000Y-96503932D01*
X115714000Y-96160974D01*
X120112642Y-96160974D01*
X120233783Y-96393000D01*
X122101000Y-96393000D01*
X122101000Y-95021400D01*
X122355000Y-95021400D01*
X122355000Y-96393000D01*
X124222217Y-96393000D01*
X124343358Y-96160974D01*
X124321527Y-96063843D01*
X124037873Y-95550132D01*
X123579222Y-95184075D01*
X123495014Y-95159779D01*
X129474857Y-95159779D01*
X129600495Y-95463846D01*
X129650000Y-95513438D01*
X129650000Y-99304327D01*
X129601312Y-99352930D01*
X129475144Y-99656778D01*
X129474857Y-99985779D01*
X129600495Y-100289846D01*
X129832930Y-100522688D01*
X130136778Y-100648856D01*
X130465779Y-100649143D01*
X130515779Y-100628483D01*
X141194088Y-100628483D01*
X141986000Y-101420395D01*
X142777912Y-100628483D01*
X142742070Y-100501461D01*
X143492092Y-100501461D01*
X143516144Y-101151460D01*
X143718613Y-101640264D01*
X143985468Y-101738927D01*
X144958395Y-100766000D01*
X145317605Y-100766000D01*
X146290532Y-101738927D01*
X146557387Y-101640264D01*
X146783908Y-101030539D01*
X146764331Y-100501461D01*
X149992092Y-100501461D01*
X150016144Y-101151460D01*
X150218613Y-101640264D01*
X150485468Y-101738927D01*
X151458395Y-100766000D01*
X151817605Y-100766000D01*
X152790532Y-101738927D01*
X153057387Y-101640264D01*
X153283908Y-101030539D01*
X153259856Y-100380540D01*
X153057387Y-99891736D01*
X152790532Y-99793073D01*
X151817605Y-100766000D01*
X151458395Y-100766000D01*
X150485468Y-99793073D01*
X150218613Y-99891736D01*
X149992092Y-100501461D01*
X146764331Y-100501461D01*
X146759856Y-100380540D01*
X146557387Y-99891736D01*
X146290532Y-99793073D01*
X145317605Y-100766000D01*
X144958395Y-100766000D01*
X143985468Y-99793073D01*
X143718613Y-99891736D01*
X143492092Y-100501461D01*
X142742070Y-100501461D01*
X142709923Y-100387540D01*
X142190829Y-100202799D01*
X141640552Y-100230770D01*
X141262077Y-100387540D01*
X141194088Y-100628483D01*
X130515779Y-100628483D01*
X130769846Y-100523505D01*
X131002688Y-100291070D01*
X131128856Y-99987222D01*
X131129143Y-99658221D01*
X131003505Y-99354154D01*
X130954000Y-99304562D01*
X130954000Y-97953779D01*
X134046857Y-97953779D01*
X134172495Y-98257846D01*
X134404930Y-98490688D01*
X134708778Y-98616856D01*
X134778849Y-98616917D01*
X135316917Y-99154984D01*
X135316857Y-99223779D01*
X135442495Y-99527846D01*
X135674930Y-99760688D01*
X135978778Y-99886856D01*
X136307779Y-99887143D01*
X136611846Y-99761505D01*
X136815354Y-99558353D01*
X136994778Y-99632856D01*
X137323779Y-99633143D01*
X137371396Y-99613468D01*
X144165073Y-99613468D01*
X145138000Y-100586395D01*
X146110927Y-99613468D01*
X150665073Y-99613468D01*
X151638000Y-100586395D01*
X152610927Y-99613468D01*
X152577670Y-99523517D01*
X153386088Y-99523517D01*
X153454077Y-99764460D01*
X153973171Y-99949201D01*
X154523448Y-99921230D01*
X154901923Y-99764460D01*
X154969912Y-99523517D01*
X154178000Y-98731605D01*
X153386088Y-99523517D01*
X152577670Y-99523517D01*
X152512264Y-99346613D01*
X151902539Y-99120092D01*
X151252540Y-99144144D01*
X150763736Y-99346613D01*
X150665073Y-99613468D01*
X146110927Y-99613468D01*
X146012264Y-99346613D01*
X145402539Y-99120092D01*
X144752540Y-99144144D01*
X144263736Y-99346613D01*
X144165073Y-99613468D01*
X137371396Y-99613468D01*
X137627846Y-99507505D01*
X137860688Y-99275070D01*
X137986856Y-98971222D01*
X137987143Y-98642221D01*
X137865231Y-98347171D01*
X152780799Y-98347171D01*
X152808770Y-98897448D01*
X152965540Y-99275923D01*
X153206483Y-99343912D01*
X153998395Y-98552000D01*
X153206483Y-97760088D01*
X152965540Y-97828077D01*
X152780799Y-98347171D01*
X137865231Y-98347171D01*
X137861505Y-98338154D01*
X137629070Y-98105312D01*
X137325222Y-97979144D01*
X137255150Y-97979083D01*
X136463083Y-97187015D01*
X136463143Y-97118221D01*
X136337505Y-96814154D01*
X136105070Y-96581312D01*
X136073992Y-96568407D01*
X143610735Y-96568407D01*
X143842717Y-97129846D01*
X144271894Y-97559773D01*
X144832928Y-97792735D01*
X145440407Y-97793265D01*
X146001846Y-97561283D01*
X146431773Y-97132106D01*
X146664735Y-96571072D01*
X146664737Y-96568407D01*
X150110735Y-96568407D01*
X150342717Y-97129846D01*
X150771894Y-97559773D01*
X151332928Y-97792735D01*
X151940407Y-97793265D01*
X152455378Y-97580483D01*
X153386088Y-97580483D01*
X154178000Y-98372395D01*
X154969912Y-97580483D01*
X154901923Y-97339540D01*
X154382829Y-97154799D01*
X153832552Y-97182770D01*
X153454077Y-97339540D01*
X153386088Y-97580483D01*
X152455378Y-97580483D01*
X152501846Y-97561283D01*
X152931773Y-97132106D01*
X153164735Y-96571072D01*
X153165265Y-95963593D01*
X152933283Y-95402154D01*
X152504106Y-94972227D01*
X151943072Y-94739265D01*
X151335593Y-94738735D01*
X150774154Y-94970717D01*
X150344227Y-95399894D01*
X150111265Y-95960928D01*
X150110735Y-96568407D01*
X146664737Y-96568407D01*
X146665265Y-95963593D01*
X146433283Y-95402154D01*
X146004106Y-94972227D01*
X145443072Y-94739265D01*
X144835593Y-94738735D01*
X144274154Y-94970717D01*
X143844227Y-95399894D01*
X143611265Y-95960928D01*
X143610735Y-96568407D01*
X136073992Y-96568407D01*
X135801222Y-96455144D01*
X135472221Y-96454857D01*
X135168154Y-96580495D01*
X134935312Y-96812930D01*
X134872998Y-96962999D01*
X134710221Y-96962857D01*
X134406154Y-97088495D01*
X134173312Y-97320930D01*
X134047144Y-97624778D01*
X134046857Y-97953779D01*
X130954000Y-97953779D01*
X130954000Y-95513673D01*
X131002688Y-95465070D01*
X131128856Y-95161222D01*
X131129143Y-94832221D01*
X131003505Y-94528154D01*
X130771070Y-94295312D01*
X130467222Y-94169144D01*
X130138221Y-94168857D01*
X129834154Y-94294495D01*
X129601312Y-94526930D01*
X129475144Y-94830778D01*
X129474857Y-95159779D01*
X123495014Y-95159779D01*
X123015400Y-95021400D01*
X122355000Y-95021400D01*
X122101000Y-95021400D01*
X121440600Y-95021400D01*
X120876778Y-95184075D01*
X120418127Y-95550132D01*
X120134473Y-96063843D01*
X120112642Y-96160974D01*
X115714000Y-96160974D01*
X115714000Y-95005673D01*
X115762688Y-94957070D01*
X115888856Y-94653222D01*
X115889143Y-94324221D01*
X115763505Y-94020154D01*
X115531070Y-93787312D01*
X115227222Y-93661144D01*
X114898221Y-93660857D01*
X114594154Y-93786495D01*
X114361312Y-94018930D01*
X114235144Y-94322778D01*
X114234857Y-94651779D01*
X113094857Y-94651779D01*
X113095143Y-94324221D01*
X112969505Y-94020154D01*
X112737070Y-93787312D01*
X112433222Y-93661144D01*
X112104221Y-93660857D01*
X111800154Y-93786495D01*
X111567312Y-94018930D01*
X111441144Y-94322778D01*
X111440857Y-94651779D01*
X111566495Y-94955846D01*
X111616000Y-95005438D01*
X111616000Y-95691624D01*
X111537873Y-95550132D01*
X111079222Y-95184075D01*
X110515400Y-95021400D01*
X109855000Y-95021400D01*
X109855000Y-96393000D01*
X109875000Y-96393000D01*
X109875000Y-96647000D01*
X109855000Y-96647000D01*
X109855000Y-98018600D01*
X110515400Y-98018600D01*
X111079222Y-97855925D01*
X111537873Y-97489868D01*
X111616000Y-97348376D01*
X111616000Y-100828327D01*
X111610448Y-100833869D01*
X111411884Y-100536697D01*
X110960741Y-100235253D01*
X110428581Y-100129400D01*
X109027419Y-100129400D01*
X108495259Y-100235253D01*
X108044116Y-100536697D01*
X107742672Y-100987840D01*
X107636819Y-101520000D01*
X94704973Y-101520000D01*
X94705265Y-101185593D01*
X94616735Y-100971333D01*
X94639033Y-100949035D01*
X94687212Y-100876930D01*
X94780368Y-100737511D01*
X94829999Y-100488001D01*
X94829999Y-96879026D01*
X107612642Y-96879026D01*
X107634473Y-96976157D01*
X107918127Y-97489868D01*
X108376778Y-97855925D01*
X108940600Y-98018600D01*
X109601000Y-98018600D01*
X109601000Y-96647000D01*
X107733783Y-96647000D01*
X107612642Y-96879026D01*
X94829999Y-96879026D01*
X94829999Y-96835227D01*
X95028000Y-96875324D01*
X97728000Y-96875324D01*
X97923294Y-96838577D01*
X98102660Y-96723158D01*
X98222990Y-96547049D01*
X98265324Y-96338000D01*
X98265324Y-96160974D01*
X107612642Y-96160974D01*
X107733783Y-96393000D01*
X109601000Y-96393000D01*
X109601000Y-95021400D01*
X108940600Y-95021400D01*
X108376778Y-95184075D01*
X107918127Y-95550132D01*
X107634473Y-96063843D01*
X107612642Y-96160974D01*
X98265324Y-96160974D01*
X98265324Y-92638000D01*
X98228577Y-92442706D01*
X98113158Y-92263340D01*
X97937049Y-92143010D01*
X97728000Y-92100676D01*
X95028000Y-92100676D01*
X94832706Y-92137423D01*
X94829999Y-92139165D01*
X94829999Y-88972069D01*
X95711031Y-88091036D01*
X95711034Y-88091034D01*
X95852369Y-87879510D01*
X95902000Y-87630000D01*
X95902000Y-70467503D01*
X95935505Y-70548591D01*
X96167940Y-70781433D01*
X96471788Y-70907601D01*
X96800789Y-70907888D01*
X97104856Y-70782250D01*
X97337698Y-70549815D01*
X97463866Y-70245967D01*
X97463927Y-70175896D01*
X98368035Y-69271788D01*
X98509371Y-69060263D01*
X98556980Y-68820919D01*
X98556980Y-70232733D01*
X98556979Y-70232738D01*
X98594258Y-70420144D01*
X98606611Y-70482248D01*
X98681925Y-70594963D01*
X98681836Y-70696516D01*
X98807474Y-71000583D01*
X99039909Y-71233425D01*
X99343757Y-71359593D01*
X99481989Y-71359714D01*
X99481989Y-77141944D01*
X98203015Y-78420917D01*
X98134221Y-78420857D01*
X97830154Y-78546495D01*
X97597312Y-78778930D01*
X97471144Y-79082778D01*
X97470857Y-79411779D01*
X97596495Y-79715846D01*
X97828930Y-79948688D01*
X98132778Y-80074856D01*
X98461779Y-80075143D01*
X98765846Y-79949505D01*
X98998688Y-79717070D01*
X99124856Y-79413222D01*
X99124917Y-79343151D01*
X99932000Y-78536067D01*
X99932000Y-81016327D01*
X99883312Y-81064930D01*
X99757144Y-81368778D01*
X99756857Y-81697779D01*
X99882495Y-82001846D01*
X100114930Y-82234688D01*
X100418778Y-82360856D01*
X100747779Y-82361143D01*
X101051846Y-82235505D01*
X101284688Y-82003070D01*
X101410856Y-81699222D01*
X101411143Y-81370221D01*
X101285505Y-81066154D01*
X101236000Y-81016562D01*
X101236000Y-80431230D01*
X103663632Y-80431230D01*
X103986766Y-81213274D01*
X104584578Y-81812131D01*
X105366057Y-82136630D01*
X106212230Y-82137368D01*
X106994274Y-81814234D01*
X107593131Y-81216422D01*
X107917630Y-80434943D01*
X107918368Y-79588770D01*
X107595234Y-78806726D01*
X106997422Y-78207869D01*
X106215943Y-77883370D01*
X105369770Y-77882632D01*
X104587726Y-78205766D01*
X103988869Y-78803578D01*
X103664370Y-79585057D01*
X103663632Y-80431230D01*
X101236000Y-80431230D01*
X101236000Y-75182897D01*
X110482779Y-75182897D01*
X110676781Y-75652417D01*
X111035693Y-76011957D01*
X111489088Y-76200223D01*
X111037583Y-76386781D01*
X110678043Y-76745693D01*
X110483222Y-77214875D01*
X110482779Y-77722897D01*
X110676781Y-78192417D01*
X111035693Y-78551957D01*
X111504875Y-78746778D01*
X112012897Y-78747221D01*
X112482417Y-78553219D01*
X112841957Y-78194307D01*
X113036778Y-77725125D01*
X113037221Y-77217103D01*
X112843219Y-76747583D01*
X112484307Y-76388043D01*
X112030912Y-76199777D01*
X112482417Y-76013219D01*
X112841957Y-75654307D01*
X113036778Y-75185125D01*
X113037221Y-74677103D01*
X112843219Y-74207583D01*
X112484307Y-73848043D01*
X112015125Y-73653222D01*
X111507103Y-73652779D01*
X111037583Y-73846781D01*
X110678043Y-74205693D01*
X110483222Y-74674875D01*
X110482779Y-75182897D01*
X101236000Y-75182897D01*
X101236000Y-55642068D01*
X104776317Y-52101750D01*
X106311000Y-52101750D01*
X106311000Y-52692310D01*
X106407673Y-52925699D01*
X106586302Y-53104327D01*
X106819691Y-53201000D01*
X107410250Y-53201000D01*
X107569000Y-53042250D01*
X107569000Y-51943000D01*
X106469750Y-51943000D01*
X106311000Y-52101750D01*
X104776317Y-52101750D01*
X105504984Y-51373083D01*
X105573779Y-51373143D01*
X105877846Y-51247505D01*
X106110688Y-51015070D01*
X106141988Y-50939690D01*
X106311000Y-50939690D01*
X106311000Y-51530250D01*
X106469750Y-51689000D01*
X107569000Y-51689000D01*
X107569000Y-50589750D01*
X107410250Y-50431000D01*
X106819691Y-50431000D01*
X106586302Y-50527673D01*
X106407673Y-50706301D01*
X106311000Y-50939690D01*
X106141988Y-50939690D01*
X106236856Y-50711222D01*
X106237143Y-50382221D01*
X106111505Y-50078154D01*
X105879070Y-49845312D01*
X105575222Y-49719144D01*
X105246221Y-49718857D01*
X104942154Y-49844495D01*
X104709312Y-50076930D01*
X104583144Y-50380778D01*
X104583083Y-50450850D01*
X100160979Y-54872953D01*
X100160979Y-54127746D01*
X100160980Y-54127741D01*
X100111349Y-53878232D01*
X99979460Y-53680846D01*
X99970013Y-53666707D01*
X99970010Y-53666705D01*
X98544997Y-52241692D01*
X98773206Y-52147398D01*
X99136124Y-51785113D01*
X99241066Y-51532385D01*
X99267034Y-51515034D01*
X100678984Y-50103083D01*
X100747779Y-50103143D01*
X101051846Y-49977505D01*
X101284688Y-49745070D01*
X101410856Y-49441222D01*
X101411143Y-49112221D01*
X101285505Y-48808154D01*
X101053070Y-48575312D01*
X100749222Y-48449144D01*
X100420221Y-48448857D01*
X100116154Y-48574495D01*
X99883312Y-48806930D01*
X99757144Y-49110778D01*
X99757083Y-49180850D01*
X98875497Y-50062435D01*
X98775113Y-49961876D01*
X98301523Y-49765224D01*
X97788727Y-49764777D01*
X97608999Y-49839039D01*
X97608999Y-49109069D01*
X99154984Y-47563083D01*
X99223779Y-47563143D01*
X99527846Y-47437505D01*
X99760688Y-47205070D01*
X99886856Y-46901222D01*
X99887143Y-46572221D01*
X99761505Y-46268154D01*
X99529070Y-46035312D01*
X99225222Y-45909144D01*
X98896221Y-45908857D01*
X98592154Y-46034495D01*
X98359312Y-46266930D01*
X98233144Y-46570778D01*
X98233083Y-46640850D01*
X97346975Y-47526958D01*
X97347143Y-47334221D01*
X97221505Y-47030154D01*
X96989070Y-46797312D01*
X96685222Y-46671144D01*
X96356221Y-46670857D01*
X96352998Y-46672189D01*
X96501794Y-46449500D01*
X96599000Y-45960813D01*
X96599000Y-44891187D01*
X96501794Y-44402500D01*
X96224975Y-43988212D01*
X95810687Y-43711393D01*
X95322000Y-43614187D01*
X94833313Y-43711393D01*
X94419025Y-43988212D01*
X94142206Y-44402500D01*
X94045000Y-44891187D01*
X94045000Y-45960813D01*
X94068957Y-46081252D01*
X93906813Y-46049000D01*
X93037187Y-46049000D01*
X92875043Y-46081252D01*
X92899000Y-45960813D01*
X92899000Y-44891187D01*
X92801794Y-44402500D01*
X92524975Y-43988212D01*
X92110687Y-43711393D01*
X91622000Y-43614187D01*
X91133313Y-43711393D01*
X90719025Y-43988212D01*
X90442206Y-44402500D01*
X90368310Y-44774000D01*
X89194000Y-44774000D01*
X88944490Y-44823631D01*
X88732966Y-44964966D01*
X88732964Y-44964969D01*
X86335965Y-47361967D01*
X86194630Y-47573491D01*
X86194630Y-47573492D01*
X86144998Y-47823001D01*
X86144999Y-47823006D01*
X86144999Y-50031884D01*
X86075113Y-49961876D01*
X85601523Y-49765224D01*
X85088727Y-49764777D01*
X84614794Y-49960602D01*
X84251876Y-50322887D01*
X84139004Y-50594713D01*
X84026397Y-50322857D01*
X83784213Y-50253392D01*
X82983605Y-51054000D01*
X83784213Y-51854608D01*
X84026397Y-51785143D01*
X84130655Y-51492912D01*
X84250602Y-51783206D01*
X84612887Y-52146124D01*
X84843013Y-52241681D01*
X83701540Y-53383154D01*
X81346851Y-53383154D01*
X81346846Y-53383153D01*
X81097337Y-53432784D01*
X81097335Y-53432785D01*
X81097336Y-53432785D01*
X80984621Y-53508099D01*
X80916000Y-53508039D01*
X80916000Y-52034213D01*
X82003392Y-52034213D01*
X82072857Y-52276397D01*
X82596302Y-52463144D01*
X83151368Y-52435362D01*
X83535143Y-52276397D01*
X83604608Y-52034213D01*
X82804000Y-51233605D01*
X82003392Y-52034213D01*
X80916000Y-52034213D01*
X80916000Y-50846302D01*
X81394856Y-50846302D01*
X81422638Y-51401368D01*
X81581603Y-51785143D01*
X81823787Y-51854608D01*
X82624395Y-51054000D01*
X81823787Y-50253392D01*
X81581603Y-50322857D01*
X81394856Y-50846302D01*
X80916000Y-50846302D01*
X80916000Y-50073787D01*
X82003392Y-50073787D01*
X82804000Y-50874395D01*
X83604608Y-50073787D01*
X83535143Y-49831603D01*
X83011698Y-49644856D01*
X82456632Y-49672638D01*
X82072857Y-49831603D01*
X82003392Y-50073787D01*
X80916000Y-50073787D01*
X80916000Y-49800068D01*
X81374985Y-49341083D01*
X81443779Y-49341143D01*
X81747846Y-49215505D01*
X81980688Y-48983070D01*
X82098773Y-48698687D01*
X82623187Y-48803000D01*
X83492813Y-48803000D01*
X84019768Y-48698182D01*
X84466499Y-48399686D01*
X84764995Y-47952955D01*
X84869813Y-47426000D01*
X84829265Y-47222152D01*
X84908000Y-47237813D01*
X85396687Y-47140607D01*
X85810975Y-46863788D01*
X86087794Y-46449500D01*
X86185000Y-45960813D01*
X86185000Y-44891187D01*
X86087794Y-44402500D01*
X85810975Y-43988212D01*
X85396687Y-43711393D01*
X84908000Y-43614187D01*
X84419313Y-43711393D01*
X84005025Y-43988212D01*
X83728206Y-44402500D01*
X83631000Y-44891187D01*
X83631000Y-45960813D01*
X83654957Y-46081252D01*
X83492813Y-46049000D01*
X82623187Y-46049000D01*
X82461043Y-46081252D01*
X82485000Y-45960813D01*
X82485000Y-44891187D01*
X82387794Y-44402500D01*
X82110975Y-43988212D01*
X81696687Y-43711393D01*
X81208000Y-43614187D01*
X80719313Y-43711393D01*
X80305025Y-43988212D01*
X80028206Y-44402500D01*
X79931000Y-44891187D01*
X79931000Y-45960813D01*
X80028206Y-46449500D01*
X80305025Y-46863788D01*
X80719313Y-47140607D01*
X81208000Y-47237813D01*
X81286735Y-47222152D01*
X81246187Y-47426000D01*
X81298106Y-47687016D01*
X81116221Y-47686857D01*
X80812154Y-47812495D01*
X80579312Y-48044930D01*
X80453144Y-48348778D01*
X80453083Y-48418849D01*
X79802966Y-49068966D01*
X79661631Y-49280490D01*
X79661631Y-49280491D01*
X79611999Y-49530000D01*
X79612000Y-49530005D01*
X79612000Y-71110327D01*
X79563312Y-71158930D01*
X79437144Y-71462778D01*
X79436956Y-71678469D01*
X79159222Y-71563144D01*
X78830221Y-71562857D01*
X78526154Y-71688495D01*
X78293312Y-71920930D01*
X78167144Y-72224778D01*
X78166857Y-72553779D01*
X72230000Y-72553779D01*
X72230000Y-47242897D01*
X72890779Y-47242897D01*
X73084781Y-47712417D01*
X73443693Y-48071957D01*
X73897088Y-48260223D01*
X73445583Y-48446781D01*
X73086043Y-48805693D01*
X72891222Y-49274875D01*
X72890779Y-49782897D01*
X73084781Y-50252417D01*
X73443693Y-50611957D01*
X73897088Y-50800223D01*
X73445583Y-50986781D01*
X73086043Y-51345693D01*
X72891222Y-51814875D01*
X72890779Y-52322897D01*
X73084781Y-52792417D01*
X73443693Y-53151957D01*
X73897088Y-53340223D01*
X73445583Y-53526781D01*
X73086043Y-53885693D01*
X72891222Y-54354875D01*
X72890779Y-54862897D01*
X73084781Y-55332417D01*
X73443693Y-55691957D01*
X73897088Y-55880223D01*
X73445583Y-56066781D01*
X73086043Y-56425693D01*
X72891222Y-56894875D01*
X72890779Y-57402897D01*
X73084781Y-57872417D01*
X73443693Y-58231957D01*
X73912875Y-58426778D01*
X74420897Y-58427221D01*
X74890417Y-58233219D01*
X75249957Y-57874307D01*
X75444778Y-57405125D01*
X75445221Y-56897103D01*
X75251219Y-56427583D01*
X74892307Y-56068043D01*
X74438912Y-55879777D01*
X74890417Y-55693219D01*
X75249957Y-55334307D01*
X75444778Y-54865125D01*
X75445221Y-54357103D01*
X75251219Y-53887583D01*
X74892307Y-53528043D01*
X74438912Y-53339777D01*
X74890417Y-53153219D01*
X75249957Y-52794307D01*
X75444778Y-52325125D01*
X75445221Y-51817103D01*
X75251219Y-51347583D01*
X74892307Y-50988043D01*
X74438912Y-50799777D01*
X74890417Y-50613219D01*
X75249957Y-50254307D01*
X75444778Y-49785125D01*
X75445221Y-49277103D01*
X75251219Y-48807583D01*
X74892307Y-48448043D01*
X74438912Y-48259777D01*
X74890417Y-48073219D01*
X75249957Y-47714307D01*
X75444778Y-47245125D01*
X75445221Y-46737103D01*
X75251219Y-46267583D01*
X74892307Y-45908043D01*
X74423125Y-45713222D01*
X73915103Y-45712779D01*
X73445583Y-45906781D01*
X73086043Y-46265693D01*
X72891222Y-46734875D01*
X72890779Y-47242897D01*
X72230000Y-47242897D01*
X72230000Y-42331230D01*
X73310632Y-42331230D01*
X73633766Y-43113274D01*
X74231578Y-43712131D01*
X75013057Y-44036630D01*
X75859230Y-44037368D01*
X76641274Y-43714234D01*
X77240131Y-43116422D01*
X77564630Y-42334943D01*
X77565368Y-41488770D01*
X77324752Y-40906434D01*
X80967876Y-40906434D01*
X80998856Y-41034355D01*
X81312078Y-41592317D01*
X81814980Y-41987942D01*
X82273460Y-42116742D01*
X82103133Y-42286772D01*
X81931196Y-42700842D01*
X81930805Y-43149191D01*
X82102019Y-43563560D01*
X82418772Y-43880867D01*
X82832842Y-44052804D01*
X83281191Y-44053195D01*
X83695560Y-43881981D01*
X84012867Y-43565228D01*
X84184804Y-43151158D01*
X84185195Y-42702809D01*
X84013981Y-42288440D01*
X83842574Y-42116733D01*
X84301020Y-41987942D01*
X84803922Y-41592317D01*
X85117144Y-41034355D01*
X85148124Y-40906434D01*
X91381876Y-40906434D01*
X91412856Y-41034355D01*
X91726078Y-41592317D01*
X92228980Y-41987942D01*
X92687460Y-42116742D01*
X92517133Y-42286772D01*
X92345196Y-42700842D01*
X92344805Y-43149191D01*
X92516019Y-43563560D01*
X92832772Y-43880867D01*
X93246842Y-44052804D01*
X93695191Y-44053195D01*
X94109560Y-43881981D01*
X94392034Y-43600000D01*
X99704676Y-43600000D01*
X99704676Y-45300000D01*
X99741423Y-45495294D01*
X99856842Y-45674660D01*
X100032951Y-45794990D01*
X100242000Y-45837324D01*
X101942000Y-45837324D01*
X102137294Y-45800577D01*
X102316660Y-45685158D01*
X102436990Y-45509049D01*
X102479324Y-45300000D01*
X102479324Y-45182785D01*
X102658314Y-45450663D01*
X103105045Y-45749159D01*
X103632000Y-45853977D01*
X104158955Y-45749159D01*
X104605686Y-45450663D01*
X104902000Y-45007198D01*
X105198314Y-45450663D01*
X105645045Y-45749159D01*
X106172000Y-45853977D01*
X106698955Y-45749159D01*
X107145686Y-45450663D01*
X107444182Y-45003932D01*
X107549000Y-44476977D01*
X107549000Y-44423023D01*
X107444182Y-43896068D01*
X107145686Y-43449337D01*
X106819244Y-43231215D01*
X106938924Y-43181645D01*
X107367183Y-42791358D01*
X107613486Y-42266892D01*
X107492819Y-42037000D01*
X106299000Y-42037000D01*
X106299000Y-42057000D01*
X106045000Y-42057000D01*
X106045000Y-42037000D01*
X106025000Y-42037000D01*
X106025000Y-41783000D01*
X106045000Y-41783000D01*
X106045000Y-40589845D01*
X106299000Y-40589845D01*
X106299000Y-41783000D01*
X107492819Y-41783000D01*
X107613486Y-41553108D01*
X107367183Y-41028642D01*
X106938924Y-40638355D01*
X106528890Y-40468524D01*
X106299000Y-40589845D01*
X106045000Y-40589845D01*
X105815110Y-40468524D01*
X105405076Y-40638355D01*
X104976817Y-41028642D01*
X104856537Y-41284762D01*
X104605686Y-40909337D01*
X104158955Y-40610841D01*
X103632000Y-40506023D01*
X103105045Y-40610841D01*
X102658314Y-40909337D01*
X102362000Y-41352802D01*
X102065686Y-40909337D01*
X101618955Y-40610841D01*
X101092000Y-40506023D01*
X100565045Y-40610841D01*
X100118314Y-40909337D01*
X99819818Y-41356068D01*
X99715000Y-41883023D01*
X99715000Y-41936977D01*
X99819818Y-42463932D01*
X100118314Y-42910663D01*
X100345818Y-43062676D01*
X100242000Y-43062676D01*
X100046706Y-43099423D01*
X99867340Y-43214842D01*
X99747010Y-43390951D01*
X99704676Y-43600000D01*
X94392034Y-43600000D01*
X94426867Y-43565228D01*
X94598804Y-43151158D01*
X94599195Y-42702809D01*
X94427981Y-42288440D01*
X94256574Y-42116733D01*
X94715020Y-41987942D01*
X95217922Y-41592317D01*
X95531144Y-41034355D01*
X95562124Y-40906434D01*
X95442777Y-40653000D01*
X93599000Y-40653000D01*
X93599000Y-40673000D01*
X93345000Y-40673000D01*
X93345000Y-40653000D01*
X91501223Y-40653000D01*
X91381876Y-40906434D01*
X85148124Y-40906434D01*
X85028777Y-40653000D01*
X83185000Y-40653000D01*
X83185000Y-40673000D01*
X82931000Y-40673000D01*
X82931000Y-40653000D01*
X81087223Y-40653000D01*
X80967876Y-40906434D01*
X77324752Y-40906434D01*
X77242234Y-40706726D01*
X76682054Y-40145566D01*
X80967876Y-40145566D01*
X81087223Y-40399000D01*
X82931000Y-40399000D01*
X82931000Y-38891000D01*
X83185000Y-38891000D01*
X83185000Y-40399000D01*
X85028777Y-40399000D01*
X85148124Y-40145566D01*
X91381876Y-40145566D01*
X91501223Y-40399000D01*
X93345000Y-40399000D01*
X93345000Y-38891000D01*
X93599000Y-38891000D01*
X93599000Y-40399000D01*
X95442777Y-40399000D01*
X95562124Y-40145566D01*
X95531144Y-40017645D01*
X95217922Y-39459683D01*
X94715020Y-39064058D01*
X94099000Y-38891000D01*
X93599000Y-38891000D01*
X93345000Y-38891000D01*
X92845000Y-38891000D01*
X92228980Y-39064058D01*
X91726078Y-39459683D01*
X91412856Y-40017645D01*
X91381876Y-40145566D01*
X85148124Y-40145566D01*
X85117144Y-40017645D01*
X84803922Y-39459683D01*
X84301020Y-39064058D01*
X83685000Y-38891000D01*
X83185000Y-38891000D01*
X82931000Y-38891000D01*
X82431000Y-38891000D01*
X81814980Y-39064058D01*
X81312078Y-39459683D01*
X80998856Y-40017645D01*
X80967876Y-40145566D01*
X76682054Y-40145566D01*
X76644422Y-40107869D01*
X75862943Y-39783370D01*
X75016770Y-39782632D01*
X74234726Y-40105766D01*
X73635869Y-40703578D01*
X73311370Y-41485057D01*
X73310632Y-42331230D01*
X72230000Y-42331230D01*
X72230000Y-41715293D01*
X72465756Y-40530066D01*
X73103546Y-39575546D01*
X74058066Y-38937756D01*
X75243293Y-38702000D01*
X108077000Y-38702000D01*
X108077000Y-50431000D01*
G36*
X123886857Y-76490779D02*
X124012495Y-76794846D01*
X124062000Y-76844438D01*
X124062000Y-77977995D01*
X124061999Y-77978000D01*
X124089368Y-78115587D01*
X124111631Y-78227510D01*
X124225195Y-78397472D01*
X124252966Y-78439034D01*
X127381965Y-81568032D01*
X127381967Y-81568035D01*
X127523303Y-81662472D01*
X127593492Y-81709371D01*
X127843001Y-81759002D01*
X127843006Y-81759001D01*
X129298629Y-81759001D01*
X129346495Y-81874846D01*
X129578930Y-82107688D01*
X129882778Y-82233856D01*
X130211779Y-82234143D01*
X130515846Y-82108505D01*
X130748688Y-81876070D01*
X130874856Y-81572222D01*
X130875143Y-81243221D01*
X130749505Y-80939154D01*
X130517070Y-80706312D01*
X130213222Y-80580144D01*
X130110389Y-80580054D01*
X129997511Y-80504632D01*
X129932679Y-80491736D01*
X129748001Y-80455000D01*
X129747996Y-80455001D01*
X128113068Y-80455001D01*
X126942847Y-79284779D01*
X133538857Y-79284779D01*
X133664495Y-79588846D01*
X133714000Y-79638438D01*
X133714000Y-80000327D01*
X133665312Y-80048930D01*
X133539144Y-80352778D01*
X133538857Y-80681779D01*
X133664495Y-80985846D01*
X133896930Y-81218688D01*
X134200778Y-81344856D01*
X134529779Y-81345143D01*
X134833846Y-81219505D01*
X135066688Y-80987070D01*
X135192856Y-80683222D01*
X135193143Y-80354221D01*
X135067505Y-80050154D01*
X135018000Y-80000562D01*
X135018000Y-79638673D01*
X135066688Y-79590070D01*
X135192856Y-79286222D01*
X135193143Y-78957221D01*
X135067505Y-78653154D01*
X134835070Y-78420312D01*
X134531222Y-78294144D01*
X134202221Y-78293857D01*
X133898154Y-78419495D01*
X133665312Y-78651930D01*
X133539144Y-78955778D01*
X133538857Y-79284779D01*
X126942847Y-79284779D01*
X125366000Y-77707932D01*
X125366000Y-76844673D01*
X125414688Y-76796070D01*
X125540856Y-76492222D01*
X125541086Y-76228022D01*
X133725954Y-76228022D01*
X136840917Y-79342985D01*
X136840857Y-79411779D01*
X136966495Y-79715846D01*
X137198930Y-79948688D01*
X137502778Y-80074856D01*
X137831779Y-80075143D01*
X138135846Y-79949505D01*
X138368688Y-79717070D01*
X138494856Y-79413222D01*
X138495136Y-79092203D01*
X139380917Y-79977984D01*
X139380857Y-80046779D01*
X139506495Y-80350846D01*
X139738930Y-80583688D01*
X140042778Y-80709856D01*
X140148982Y-80709949D01*
X136284996Y-84573934D01*
X136187049Y-84507010D01*
X135978000Y-84464676D01*
X134278000Y-84464676D01*
X134082706Y-84501423D01*
X133903340Y-84616842D01*
X133783010Y-84792951D01*
X133740676Y-85002000D01*
X133740676Y-86702000D01*
X133777423Y-86897294D01*
X133892842Y-87076660D01*
X134068951Y-87196990D01*
X134278000Y-87239324D01*
X134395215Y-87239324D01*
X134127337Y-87418314D01*
X133828841Y-87865045D01*
X133724023Y-88392000D01*
X133828841Y-88918955D01*
X134127337Y-89365686D01*
X134570802Y-89662000D01*
X134127337Y-89958314D01*
X133828841Y-90405045D01*
X133803190Y-90534000D01*
X133613673Y-90534000D01*
X133565070Y-90485312D01*
X133261222Y-90359144D01*
X133158389Y-90359054D01*
X133045511Y-90283632D01*
X133004114Y-90275397D01*
X132819578Y-90238690D01*
X118983902Y-76403013D01*
X120882397Y-76403013D01*
X120882402Y-76403014D01*
X121090515Y-76361617D01*
X121131912Y-76353382D01*
X121319528Y-76228022D01*
X123887086Y-76228022D01*
X123886857Y-76490779D01*
X123886857Y-76490779D01*
G37*
X123886857Y-76490779D02*
X124012495Y-76794846D01*
X124062000Y-76844438D01*
X124062000Y-77977995D01*
X124061999Y-77978000D01*
X124089368Y-78115587D01*
X124111631Y-78227510D01*
X124225195Y-78397472D01*
X124252966Y-78439034D01*
X127381965Y-81568032D01*
X127381967Y-81568035D01*
X127523303Y-81662472D01*
X127593492Y-81709371D01*
X127843001Y-81759002D01*
X127843006Y-81759001D01*
X129298629Y-81759001D01*
X129346495Y-81874846D01*
X129578930Y-82107688D01*
X129882778Y-82233856D01*
X130211779Y-82234143D01*
X130515846Y-82108505D01*
X130748688Y-81876070D01*
X130874856Y-81572222D01*
X130875143Y-81243221D01*
X130749505Y-80939154D01*
X130517070Y-80706312D01*
X130213222Y-80580144D01*
X130110389Y-80580054D01*
X129997511Y-80504632D01*
X129932679Y-80491736D01*
X129748001Y-80455000D01*
X129747996Y-80455001D01*
X128113068Y-80455001D01*
X126942847Y-79284779D01*
X133538857Y-79284779D01*
X133664495Y-79588846D01*
X133714000Y-79638438D01*
X133714000Y-80000327D01*
X133665312Y-80048930D01*
X133539144Y-80352778D01*
X133538857Y-80681779D01*
X133664495Y-80985846D01*
X133896930Y-81218688D01*
X134200778Y-81344856D01*
X134529779Y-81345143D01*
X134833846Y-81219505D01*
X135066688Y-80987070D01*
X135192856Y-80683222D01*
X135193143Y-80354221D01*
X135067505Y-80050154D01*
X135018000Y-80000562D01*
X135018000Y-79638673D01*
X135066688Y-79590070D01*
X135192856Y-79286222D01*
X135193143Y-78957221D01*
X135067505Y-78653154D01*
X134835070Y-78420312D01*
X134531222Y-78294144D01*
X134202221Y-78293857D01*
X133898154Y-78419495D01*
X133665312Y-78651930D01*
X133539144Y-78955778D01*
X133538857Y-79284779D01*
X126942847Y-79284779D01*
X125366000Y-77707932D01*
X125366000Y-76844673D01*
X125414688Y-76796070D01*
X125540856Y-76492222D01*
X125541086Y-76228022D01*
X133725954Y-76228022D01*
X136840917Y-79342985D01*
X136840857Y-79411779D01*
X136966495Y-79715846D01*
X137198930Y-79948688D01*
X137502778Y-80074856D01*
X137831779Y-80075143D01*
X138135846Y-79949505D01*
X138368688Y-79717070D01*
X138494856Y-79413222D01*
X138495136Y-79092203D01*
X139380917Y-79977984D01*
X139380857Y-80046779D01*
X139506495Y-80350846D01*
X139738930Y-80583688D01*
X140042778Y-80709856D01*
X140148982Y-80709949D01*
X136284996Y-84573934D01*
X136187049Y-84507010D01*
X135978000Y-84464676D01*
X134278000Y-84464676D01*
X134082706Y-84501423D01*
X133903340Y-84616842D01*
X133783010Y-84792951D01*
X133740676Y-85002000D01*
X133740676Y-86702000D01*
X133777423Y-86897294D01*
X133892842Y-87076660D01*
X134068951Y-87196990D01*
X134278000Y-87239324D01*
X134395215Y-87239324D01*
X134127337Y-87418314D01*
X133828841Y-87865045D01*
X133724023Y-88392000D01*
X133828841Y-88918955D01*
X134127337Y-89365686D01*
X134570802Y-89662000D01*
X134127337Y-89958314D01*
X133828841Y-90405045D01*
X133803190Y-90534000D01*
X133613673Y-90534000D01*
X133565070Y-90485312D01*
X133261222Y-90359144D01*
X133158389Y-90359054D01*
X133045511Y-90283632D01*
X133004114Y-90275397D01*
X132819578Y-90238690D01*
X118983902Y-76403013D01*
X120882397Y-76403013D01*
X120882402Y-76403014D01*
X121090515Y-76361617D01*
X121131912Y-76353382D01*
X121319528Y-76228022D01*
X123887086Y-76228022D01*
X123886857Y-76490779D01*
G36*
X136333933Y-73573989D02*
X130123399Y-73573989D01*
X130255034Y-73486034D01*
X136257059Y-67484009D01*
X136256846Y-67727779D01*
X136381000Y-68028254D01*
X136381000Y-69459327D01*
X136332312Y-69507930D01*
X136206144Y-69811778D01*
X136205857Y-70140779D01*
X136331495Y-70444846D01*
X136563930Y-70677688D01*
X136867778Y-70803856D01*
X137196779Y-70804143D01*
X137500846Y-70678505D01*
X137733688Y-70446070D01*
X137859856Y-70142222D01*
X137860143Y-69813221D01*
X137734505Y-69509154D01*
X137685000Y-69459562D01*
X137685000Y-68132573D01*
X137784677Y-68033070D01*
X137910845Y-67729222D01*
X137911132Y-67400221D01*
X137785494Y-67096154D01*
X137553059Y-66863312D01*
X137249211Y-66737144D01*
X137004138Y-66736930D01*
X140478068Y-63263000D01*
X141722327Y-63263000D01*
X141770930Y-63311688D01*
X142074778Y-63437856D01*
X142403779Y-63438143D01*
X142707846Y-63312505D01*
X142940688Y-63080070D01*
X143066856Y-62776222D01*
X143067096Y-62501000D01*
X143265277Y-62501000D01*
X143374963Y-62522818D01*
X147269691Y-62522818D01*
X147269696Y-62522819D01*
X147413761Y-62494162D01*
X136333933Y-73573989D01*
X136333933Y-73573989D01*
G37*
X136333933Y-73573989D02*
X130123399Y-73573989D01*
X130255034Y-73486034D01*
X136257059Y-67484009D01*
X136256846Y-67727779D01*
X136381000Y-68028254D01*
X136381000Y-69459327D01*
X136332312Y-69507930D01*
X136206144Y-69811778D01*
X136205857Y-70140779D01*
X136331495Y-70444846D01*
X136563930Y-70677688D01*
X136867778Y-70803856D01*
X137196779Y-70804143D01*
X137500846Y-70678505D01*
X137733688Y-70446070D01*
X137859856Y-70142222D01*
X137860143Y-69813221D01*
X137734505Y-69509154D01*
X137685000Y-69459562D01*
X137685000Y-68132573D01*
X137784677Y-68033070D01*
X137910845Y-67729222D01*
X137911132Y-67400221D01*
X137785494Y-67096154D01*
X137553059Y-66863312D01*
X137249211Y-66737144D01*
X137004138Y-66736930D01*
X140478068Y-63263000D01*
X141722327Y-63263000D01*
X141770930Y-63311688D01*
X142074778Y-63437856D01*
X142403779Y-63438143D01*
X142707846Y-63312505D01*
X142940688Y-63080070D01*
X143066856Y-62776222D01*
X143067096Y-62501000D01*
X143265277Y-62501000D01*
X143374963Y-62522818D01*
X147269691Y-62522818D01*
X147269696Y-62522819D01*
X147413761Y-62494162D01*
X136333933Y-73573989D01*
G36*
X126382906Y-68701988D02*
X126382846Y-68770783D01*
X126506893Y-69071000D01*
X126247673Y-69071000D01*
X126199070Y-69022312D01*
X125895222Y-68896144D01*
X125566221Y-68895857D01*
X125262154Y-69021495D01*
X125029312Y-69253930D01*
X124903144Y-69557778D01*
X124902857Y-69886779D01*
X125028495Y-70190846D01*
X125260930Y-70423688D01*
X125564778Y-70549856D01*
X125893779Y-70550143D01*
X126197846Y-70424505D01*
X126247438Y-70375000D01*
X126602000Y-70375000D01*
X126602000Y-71237327D01*
X126553312Y-71285930D01*
X126427144Y-71589778D01*
X126426921Y-71845011D01*
X123000922Y-71845011D01*
X123001143Y-71591221D01*
X122875505Y-71287154D01*
X122826000Y-71237562D01*
X122826000Y-69228467D01*
X122776369Y-68978957D01*
X122635034Y-68767433D01*
X122635031Y-68767431D01*
X122238638Y-68371037D01*
X122238698Y-68302243D01*
X122186614Y-68176190D01*
X122909016Y-67453788D01*
X123024778Y-67501856D01*
X123353779Y-67502143D01*
X123657846Y-67376505D01*
X123707438Y-67327000D01*
X125007917Y-67327000D01*
X126382906Y-68701988D01*
X126382906Y-68701988D01*
G37*
X126382906Y-68701988D02*
X126382846Y-68770783D01*
X126506893Y-69071000D01*
X126247673Y-69071000D01*
X126199070Y-69022312D01*
X125895222Y-68896144D01*
X125566221Y-68895857D01*
X125262154Y-69021495D01*
X125029312Y-69253930D01*
X124903144Y-69557778D01*
X124902857Y-69886779D01*
X125028495Y-70190846D01*
X125260930Y-70423688D01*
X125564778Y-70549856D01*
X125893779Y-70550143D01*
X126197846Y-70424505D01*
X126247438Y-70375000D01*
X126602000Y-70375000D01*
X126602000Y-71237327D01*
X126553312Y-71285930D01*
X126427144Y-71589778D01*
X126426921Y-71845011D01*
X123000922Y-71845011D01*
X123001143Y-71591221D01*
X122875505Y-71287154D01*
X122826000Y-71237562D01*
X122826000Y-69228467D01*
X122776369Y-68978957D01*
X122635034Y-68767433D01*
X122635031Y-68767431D01*
X122238638Y-68371037D01*
X122238698Y-68302243D01*
X122186614Y-68176190D01*
X122909016Y-67453788D01*
X123024778Y-67501856D01*
X123353779Y-67502143D01*
X123657846Y-67376505D01*
X123707438Y-67327000D01*
X125007917Y-67327000D01*
X126382906Y-68701988D01*
G36*
X79629000Y-109601000D02*
X79649000Y-109601000D01*
X79649000Y-109855000D01*
X79629000Y-109855000D01*
X79629000Y-111054250D01*
X79787750Y-111213000D01*
X80478310Y-111213000D01*
X80711699Y-111116327D01*
X80890327Y-110937698D01*
X80962597Y-110763223D01*
X80991946Y-110807147D01*
X81473715Y-111129054D01*
X82042000Y-111242093D01*
X82610285Y-111129054D01*
X83060000Y-110828565D01*
X83060000Y-114870999D01*
X81048737Y-114870999D01*
X80757898Y-114928851D01*
X80511336Y-115093598D01*
X78710599Y-116894335D01*
X78545852Y-117140897D01*
X78522301Y-117259296D01*
X78455808Y-117325673D01*
X78434000Y-117378192D01*
X78434000Y-111175021D01*
X78525690Y-111213000D01*
X79216250Y-111213000D01*
X79375000Y-111054250D01*
X79375000Y-109855000D01*
X79355000Y-109855000D01*
X79355000Y-109601000D01*
X79375000Y-109601000D01*
X79375000Y-109581000D01*
X79629000Y-109581000D01*
X79629000Y-109601000D01*
X79629000Y-109601000D01*
G37*
X79629000Y-109601000D02*
X79649000Y-109601000D01*
X79649000Y-109855000D01*
X79629000Y-109855000D01*
X79629000Y-111054250D01*
X79787750Y-111213000D01*
X80478310Y-111213000D01*
X80711699Y-111116327D01*
X80890327Y-110937698D01*
X80962597Y-110763223D01*
X80991946Y-110807147D01*
X81473715Y-111129054D01*
X82042000Y-111242093D01*
X82610285Y-111129054D01*
X83060000Y-110828565D01*
X83060000Y-114870999D01*
X81048737Y-114870999D01*
X80757898Y-114928851D01*
X80511336Y-115093598D01*
X78710599Y-116894335D01*
X78545852Y-117140897D01*
X78522301Y-117259296D01*
X78455808Y-117325673D01*
X78434000Y-117378192D01*
X78434000Y-111175021D01*
X78525690Y-111213000D01*
X79216250Y-111213000D01*
X79375000Y-111054250D01*
X79375000Y-109855000D01*
X79355000Y-109855000D01*
X79355000Y-109601000D01*
X79375000Y-109601000D01*
X79375000Y-109581000D01*
X79629000Y-109581000D01*
X79629000Y-109601000D01*
G36*
X89281000Y-109601000D02*
X89301000Y-109601000D01*
X89301000Y-109855000D01*
X89281000Y-109855000D01*
X89281000Y-111054250D01*
X89439750Y-111213000D01*
X90130310Y-111213000D01*
X90363699Y-111116327D01*
X90542327Y-110937698D01*
X90614597Y-110763223D01*
X90643946Y-110807147D01*
X91125715Y-111129054D01*
X91694000Y-111242093D01*
X92262285Y-111129054D01*
X92712000Y-110828565D01*
X92712000Y-114870999D01*
X90700737Y-114870999D01*
X90409898Y-114928851D01*
X90163336Y-115093598D01*
X88362599Y-116894335D01*
X88197852Y-117140897D01*
X88174301Y-117259296D01*
X88107808Y-117325673D01*
X88086000Y-117378192D01*
X88086000Y-111175021D01*
X88177690Y-111213000D01*
X88868250Y-111213000D01*
X89027000Y-111054250D01*
X89027000Y-109855000D01*
X89007000Y-109855000D01*
X89007000Y-109601000D01*
X89027000Y-109601000D01*
X89027000Y-109581000D01*
X89281000Y-109581000D01*
X89281000Y-109601000D01*
X89281000Y-109601000D01*
G37*
X89281000Y-109601000D02*
X89301000Y-109601000D01*
X89301000Y-109855000D01*
X89281000Y-109855000D01*
X89281000Y-111054250D01*
X89439750Y-111213000D01*
X90130310Y-111213000D01*
X90363699Y-111116327D01*
X90542327Y-110937698D01*
X90614597Y-110763223D01*
X90643946Y-110807147D01*
X91125715Y-111129054D01*
X91694000Y-111242093D01*
X92262285Y-111129054D01*
X92712000Y-110828565D01*
X92712000Y-114870999D01*
X90700737Y-114870999D01*
X90409898Y-114928851D01*
X90163336Y-115093598D01*
X88362599Y-116894335D01*
X88197852Y-117140897D01*
X88174301Y-117259296D01*
X88107808Y-117325673D01*
X88086000Y-117378192D01*
X88086000Y-111175021D01*
X88177690Y-111213000D01*
X88868250Y-111213000D01*
X89027000Y-111054250D01*
X89027000Y-109855000D01*
X89007000Y-109855000D01*
X89007000Y-109601000D01*
X89027000Y-109601000D01*
X89027000Y-109581000D01*
X89281000Y-109581000D01*
X89281000Y-109601000D01*
G36*
X98933000Y-109601000D02*
X98953000Y-109601000D01*
X98953000Y-109855000D01*
X98933000Y-109855000D01*
X98933000Y-111054250D01*
X99091750Y-111213000D01*
X99782310Y-111213000D01*
X100015699Y-111116327D01*
X100194327Y-110937698D01*
X100266597Y-110763223D01*
X100295946Y-110807147D01*
X100777715Y-111129054D01*
X101346000Y-111242093D01*
X101914285Y-111129054D01*
X102364000Y-110828565D01*
X102364000Y-114870999D01*
X100352737Y-114870999D01*
X100061898Y-114928851D01*
X99815336Y-115093598D01*
X98014599Y-116894335D01*
X97849852Y-117140897D01*
X97826301Y-117259296D01*
X97759808Y-117325673D01*
X97738000Y-117378192D01*
X97738000Y-111175021D01*
X97829690Y-111213000D01*
X98520250Y-111213000D01*
X98679000Y-111054250D01*
X98679000Y-109855000D01*
X98659000Y-109855000D01*
X98659000Y-109601000D01*
X98679000Y-109601000D01*
X98679000Y-109581000D01*
X98933000Y-109581000D01*
X98933000Y-109601000D01*
X98933000Y-109601000D01*
G37*
X98933000Y-109601000D02*
X98953000Y-109601000D01*
X98953000Y-109855000D01*
X98933000Y-109855000D01*
X98933000Y-111054250D01*
X99091750Y-111213000D01*
X99782310Y-111213000D01*
X100015699Y-111116327D01*
X100194327Y-110937698D01*
X100266597Y-110763223D01*
X100295946Y-110807147D01*
X100777715Y-111129054D01*
X101346000Y-111242093D01*
X101914285Y-111129054D01*
X102364000Y-110828565D01*
X102364000Y-114870999D01*
X100352737Y-114870999D01*
X100061898Y-114928851D01*
X99815336Y-115093598D01*
X98014599Y-116894335D01*
X97849852Y-117140897D01*
X97826301Y-117259296D01*
X97759808Y-117325673D01*
X97738000Y-117378192D01*
X97738000Y-111175021D01*
X97829690Y-111213000D01*
X98520250Y-111213000D01*
X98679000Y-111054250D01*
X98679000Y-109855000D01*
X98659000Y-109855000D01*
X98659000Y-109601000D01*
X98679000Y-109601000D01*
X98679000Y-109581000D01*
X98933000Y-109581000D01*
X98933000Y-109601000D01*
G36*
X108585000Y-109601000D02*
X108605000Y-109601000D01*
X108605000Y-109855000D01*
X108585000Y-109855000D01*
X108585000Y-111054250D01*
X108743750Y-111213000D01*
X109434310Y-111213000D01*
X109667699Y-111116327D01*
X109846327Y-110937698D01*
X109918597Y-110763223D01*
X109947946Y-110807147D01*
X110429715Y-111129054D01*
X110998000Y-111242093D01*
X111566285Y-111129054D01*
X112016000Y-110828565D01*
X112016000Y-114870999D01*
X110004737Y-114870999D01*
X109713898Y-114928851D01*
X109467336Y-115093598D01*
X107666599Y-116894335D01*
X107501852Y-117140897D01*
X107478301Y-117259296D01*
X107411808Y-117325673D01*
X107390000Y-117378192D01*
X107390000Y-111175021D01*
X107481690Y-111213000D01*
X108172250Y-111213000D01*
X108331000Y-111054250D01*
X108331000Y-109855000D01*
X108311000Y-109855000D01*
X108311000Y-109601000D01*
X108331000Y-109601000D01*
X108331000Y-109581000D01*
X108585000Y-109581000D01*
X108585000Y-109601000D01*
X108585000Y-109601000D01*
G37*
X108585000Y-109601000D02*
X108605000Y-109601000D01*
X108605000Y-109855000D01*
X108585000Y-109855000D01*
X108585000Y-111054250D01*
X108743750Y-111213000D01*
X109434310Y-111213000D01*
X109667699Y-111116327D01*
X109846327Y-110937698D01*
X109918597Y-110763223D01*
X109947946Y-110807147D01*
X110429715Y-111129054D01*
X110998000Y-111242093D01*
X111566285Y-111129054D01*
X112016000Y-110828565D01*
X112016000Y-114870999D01*
X110004737Y-114870999D01*
X109713898Y-114928851D01*
X109467336Y-115093598D01*
X107666599Y-116894335D01*
X107501852Y-117140897D01*
X107478301Y-117259296D01*
X107411808Y-117325673D01*
X107390000Y-117378192D01*
X107390000Y-111175021D01*
X107481690Y-111213000D01*
X108172250Y-111213000D01*
X108331000Y-111054250D01*
X108331000Y-109855000D01*
X108311000Y-109855000D01*
X108311000Y-109601000D01*
X108331000Y-109601000D01*
X108331000Y-109581000D01*
X108585000Y-109581000D01*
X108585000Y-109601000D01*
G36*
X118237000Y-109601000D02*
X118257000Y-109601000D01*
X118257000Y-109855000D01*
X118237000Y-109855000D01*
X118237000Y-111054250D01*
X118395750Y-111213000D01*
X119086310Y-111213000D01*
X119319699Y-111116327D01*
X119498327Y-110937698D01*
X119570597Y-110763223D01*
X119599946Y-110807147D01*
X120081715Y-111129054D01*
X120650000Y-111242093D01*
X121218285Y-111129054D01*
X121668000Y-110828565D01*
X121668000Y-114870999D01*
X119656737Y-114870999D01*
X119365898Y-114928851D01*
X119119336Y-115093598D01*
X117318599Y-116894335D01*
X117153852Y-117140897D01*
X117130301Y-117259296D01*
X117063808Y-117325673D01*
X117042000Y-117378192D01*
X117042000Y-111175021D01*
X117133690Y-111213000D01*
X117824250Y-111213000D01*
X117983000Y-111054250D01*
X117983000Y-109855000D01*
X117963000Y-109855000D01*
X117963000Y-109601000D01*
X117983000Y-109601000D01*
X117983000Y-109581000D01*
X118237000Y-109581000D01*
X118237000Y-109601000D01*
X118237000Y-109601000D01*
G37*
X118237000Y-109601000D02*
X118257000Y-109601000D01*
X118257000Y-109855000D01*
X118237000Y-109855000D01*
X118237000Y-111054250D01*
X118395750Y-111213000D01*
X119086310Y-111213000D01*
X119319699Y-111116327D01*
X119498327Y-110937698D01*
X119570597Y-110763223D01*
X119599946Y-110807147D01*
X120081715Y-111129054D01*
X120650000Y-111242093D01*
X121218285Y-111129054D01*
X121668000Y-110828565D01*
X121668000Y-114870999D01*
X119656737Y-114870999D01*
X119365898Y-114928851D01*
X119119336Y-115093598D01*
X117318599Y-116894335D01*
X117153852Y-117140897D01*
X117130301Y-117259296D01*
X117063808Y-117325673D01*
X117042000Y-117378192D01*
X117042000Y-111175021D01*
X117133690Y-111213000D01*
X117824250Y-111213000D01*
X117983000Y-111054250D01*
X117983000Y-109855000D01*
X117963000Y-109855000D01*
X117963000Y-109601000D01*
X117983000Y-109601000D01*
X117983000Y-109581000D01*
X118237000Y-109581000D01*
X118237000Y-109601000D01*
G36*
X127889000Y-109601000D02*
X127909000Y-109601000D01*
X127909000Y-109855000D01*
X127889000Y-109855000D01*
X127889000Y-111054250D01*
X128047750Y-111213000D01*
X128738310Y-111213000D01*
X128971699Y-111116327D01*
X129150327Y-110937698D01*
X129222597Y-110763223D01*
X129251946Y-110807147D01*
X129733715Y-111129054D01*
X130302000Y-111242093D01*
X130870285Y-111129054D01*
X131320000Y-110828565D01*
X131320000Y-114870999D01*
X129308737Y-114870999D01*
X129017898Y-114928851D01*
X128771336Y-115093598D01*
X126970599Y-116894335D01*
X126805852Y-117140897D01*
X126782301Y-117259296D01*
X126715808Y-117325673D01*
X126694000Y-117378192D01*
X126694000Y-111175021D01*
X126785690Y-111213000D01*
X127476250Y-111213000D01*
X127635000Y-111054250D01*
X127635000Y-109855000D01*
X127615000Y-109855000D01*
X127615000Y-109601000D01*
X127635000Y-109601000D01*
X127635000Y-109581000D01*
X127889000Y-109581000D01*
X127889000Y-109601000D01*
X127889000Y-109601000D01*
G37*
X127889000Y-109601000D02*
X127909000Y-109601000D01*
X127909000Y-109855000D01*
X127889000Y-109855000D01*
X127889000Y-111054250D01*
X128047750Y-111213000D01*
X128738310Y-111213000D01*
X128971699Y-111116327D01*
X129150327Y-110937698D01*
X129222597Y-110763223D01*
X129251946Y-110807147D01*
X129733715Y-111129054D01*
X130302000Y-111242093D01*
X130870285Y-111129054D01*
X131320000Y-110828565D01*
X131320000Y-114870999D01*
X129308737Y-114870999D01*
X129017898Y-114928851D01*
X128771336Y-115093598D01*
X126970599Y-116894335D01*
X126805852Y-117140897D01*
X126782301Y-117259296D01*
X126715808Y-117325673D01*
X126694000Y-117378192D01*
X126694000Y-111175021D01*
X126785690Y-111213000D01*
X127476250Y-111213000D01*
X127635000Y-111054250D01*
X127635000Y-109855000D01*
X127615000Y-109855000D01*
X127615000Y-109601000D01*
X127635000Y-109601000D01*
X127635000Y-109581000D01*
X127889000Y-109581000D01*
X127889000Y-109601000D01*
G36*
X137541000Y-109601000D02*
X137561000Y-109601000D01*
X137561000Y-109855000D01*
X137541000Y-109855000D01*
X137541000Y-111054250D01*
X137699750Y-111213000D01*
X138390310Y-111213000D01*
X138623699Y-111116327D01*
X138802327Y-110937698D01*
X138874597Y-110763223D01*
X138903946Y-110807147D01*
X139385715Y-111129054D01*
X139954000Y-111242093D01*
X140522285Y-111129054D01*
X140972000Y-110828565D01*
X140972000Y-114870999D01*
X138960737Y-114870999D01*
X138669898Y-114928851D01*
X138423336Y-115093598D01*
X136622599Y-116894335D01*
X136457852Y-117140897D01*
X136434301Y-117259296D01*
X136367808Y-117325673D01*
X136346000Y-117378192D01*
X136346000Y-111175021D01*
X136437690Y-111213000D01*
X137128250Y-111213000D01*
X137287000Y-111054250D01*
X137287000Y-109855000D01*
X137267000Y-109855000D01*
X137267000Y-109601000D01*
X137287000Y-109601000D01*
X137287000Y-109581000D01*
X137541000Y-109581000D01*
X137541000Y-109601000D01*
X137541000Y-109601000D01*
G37*
X137541000Y-109601000D02*
X137561000Y-109601000D01*
X137561000Y-109855000D01*
X137541000Y-109855000D01*
X137541000Y-111054250D01*
X137699750Y-111213000D01*
X138390310Y-111213000D01*
X138623699Y-111116327D01*
X138802327Y-110937698D01*
X138874597Y-110763223D01*
X138903946Y-110807147D01*
X139385715Y-111129054D01*
X139954000Y-111242093D01*
X140522285Y-111129054D01*
X140972000Y-110828565D01*
X140972000Y-114870999D01*
X138960737Y-114870999D01*
X138669898Y-114928851D01*
X138423336Y-115093598D01*
X136622599Y-116894335D01*
X136457852Y-117140897D01*
X136434301Y-117259296D01*
X136367808Y-117325673D01*
X136346000Y-117378192D01*
X136346000Y-111175021D01*
X136437690Y-111213000D01*
X137128250Y-111213000D01*
X137287000Y-111054250D01*
X137287000Y-109855000D01*
X137267000Y-109855000D01*
X137267000Y-109601000D01*
X137287000Y-109601000D01*
X137287000Y-109581000D01*
X137541000Y-109581000D01*
X137541000Y-109601000D01*
G36*
X147193000Y-109601000D02*
X147213000Y-109601000D01*
X147213000Y-109855000D01*
X147193000Y-109855000D01*
X147193000Y-111054250D01*
X147351750Y-111213000D01*
X148042310Y-111213000D01*
X148275699Y-111116327D01*
X148454327Y-110937698D01*
X148526597Y-110763223D01*
X148555946Y-110807147D01*
X149037715Y-111129054D01*
X149606000Y-111242093D01*
X150174285Y-111129054D01*
X150624000Y-110828565D01*
X150624000Y-114870999D01*
X148612737Y-114870999D01*
X148321898Y-114928851D01*
X148075336Y-115093598D01*
X146274599Y-116894335D01*
X146109852Y-117140897D01*
X146086301Y-117259296D01*
X146019808Y-117325673D01*
X145998000Y-117378192D01*
X145998000Y-111175021D01*
X146089690Y-111213000D01*
X146780250Y-111213000D01*
X146939000Y-111054250D01*
X146939000Y-109855000D01*
X146919000Y-109855000D01*
X146919000Y-109601000D01*
X146939000Y-109601000D01*
X146939000Y-109581000D01*
X147193000Y-109581000D01*
X147193000Y-109601000D01*
X147193000Y-109601000D01*
G37*
X147193000Y-109601000D02*
X147213000Y-109601000D01*
X147213000Y-109855000D01*
X147193000Y-109855000D01*
X147193000Y-111054250D01*
X147351750Y-111213000D01*
X148042310Y-111213000D01*
X148275699Y-111116327D01*
X148454327Y-110937698D01*
X148526597Y-110763223D01*
X148555946Y-110807147D01*
X149037715Y-111129054D01*
X149606000Y-111242093D01*
X150174285Y-111129054D01*
X150624000Y-110828565D01*
X150624000Y-114870999D01*
X148612737Y-114870999D01*
X148321898Y-114928851D01*
X148075336Y-115093598D01*
X146274599Y-116894335D01*
X146109852Y-117140897D01*
X146086301Y-117259296D01*
X146019808Y-117325673D01*
X145998000Y-117378192D01*
X145998000Y-111175021D01*
X146089690Y-111213000D01*
X146780250Y-111213000D01*
X146939000Y-111054250D01*
X146939000Y-109855000D01*
X146919000Y-109855000D01*
X146919000Y-109601000D01*
X146939000Y-109601000D01*
X146939000Y-109581000D01*
X147193000Y-109581000D01*
X147193000Y-109601000D01*
M02*
