%TF.GenerationSoftware,KiCad,Pcbnew,7.0.9-43-g6331a0ab7a*%
%TF.CreationDate,2023-11-28T23:48:05+01:00*%
%TF.ProjectId,Synkino,53796e6b-696e-46f2-9e6b-696361645f70,rev?*%
%TF.SameCoordinates,Original*%
%TF.FileFunction,Drillmap*%
%TF.FilePolarity,Positive*%
%FSLAX45Y45*%
G04 Gerber Fmt 4.5, Leading zero omitted, Abs format (unit mm)*
G04 Created by KiCad (PCBNEW 7.0.9-43-g6331a0ab7a) date 2023-11-28 23:48:05*
%MOMM*%
%LPD*%
G01*
G04 APERTURE LIST*
%ADD10C,0.150000*%
%ADD11C,0.200000*%
%ADD12C,0.100000*%
%ADD13C,0.120000*%
%ADD14C,0.180000*%
%ADD15C,0.220000*%
%ADD16C,0.320000*%
G04 APERTURE END LIST*
D10*
X16002000Y-4165600D02*
G75*
G03*
X15646400Y-3810000I-355600J0D01*
G01*
X7023100Y-3810000D02*
G75*
G03*
X6667500Y-4165600I0J-355600D01*
G01*
X6667500Y-10388600D02*
G75*
G03*
X7023100Y-10744200I355600J0D01*
G01*
X8458200Y-11988800D02*
G75*
G03*
X8509000Y-12039600I50800J0D01*
G01*
X9423400Y-11988800D02*
G75*
G03*
X9474200Y-12039600I50800J0D01*
G01*
X10388600Y-11988800D02*
G75*
G03*
X10439400Y-12039600I50800J0D01*
G01*
X11353800Y-11988800D02*
G75*
G03*
X11404600Y-12039600I50800J0D01*
G01*
X12319000Y-11988800D02*
G75*
G03*
X12369800Y-12039600I50800J0D01*
G01*
X13284200Y-11988800D02*
G75*
G03*
X13335000Y-12039600I50800J0D01*
G01*
X14249400Y-11988800D02*
G75*
G03*
X14300200Y-12039600I50800J0D01*
G01*
X15062200Y-12039600D02*
G75*
G03*
X15113000Y-11988800I0J50800D01*
G01*
X14097000Y-12039600D02*
G75*
G03*
X14147800Y-11988800I0J50800D01*
G01*
X13131800Y-12039600D02*
G75*
G03*
X13182600Y-11988800I0J50800D01*
G01*
X12166600Y-12039600D02*
G75*
G03*
X12217400Y-11988800I0J50800D01*
G01*
X11201400Y-12039600D02*
G75*
G03*
X11252200Y-11988800I0J50800D01*
G01*
X10236200Y-12039600D02*
G75*
G03*
X10287000Y-11988800I0J50800D01*
G01*
X9271000Y-12039600D02*
G75*
G03*
X9321800Y-11988800I0J50800D01*
G01*
X8305800Y-12039600D02*
G75*
G03*
X8356600Y-11988800I0J50800D01*
G01*
X12725400Y-3810000D02*
X7518400Y-3810000D01*
X9423400Y-10744200D02*
X9423400Y-11988800D01*
X14300200Y-12039600D02*
X15062200Y-12039600D01*
X11404600Y-12039600D02*
X12166600Y-12039600D01*
X9321800Y-10744200D02*
X9423400Y-10744200D01*
X14147800Y-11988800D02*
X14147800Y-10744200D01*
X14147800Y-10744200D02*
X14249400Y-10744200D01*
X8458200Y-10744200D02*
X8458200Y-11988800D01*
X10388600Y-10744200D02*
X10388600Y-11988800D01*
X15113000Y-11988800D02*
X15113000Y-10744200D01*
X7277100Y-10744200D02*
X7493000Y-10744200D01*
X10287000Y-10744200D02*
X10388600Y-10744200D01*
X13131800Y-3810000D02*
X15646400Y-3810000D01*
X12217400Y-10744200D02*
X12319000Y-10744200D01*
X13284200Y-10744200D02*
X13284200Y-11988800D01*
X11353800Y-10744200D02*
X11353800Y-11988800D01*
X7543800Y-12039600D02*
X8305800Y-12039600D01*
X8509000Y-12039600D02*
X9271000Y-12039600D01*
X13131800Y-3937000D02*
X13131800Y-3810000D01*
X9474200Y-12039600D02*
X10236200Y-12039600D01*
X13182600Y-11988800D02*
X13182600Y-10744200D01*
X7493000Y-10744200D02*
X7493000Y-11988800D01*
X9321800Y-11988800D02*
X9321800Y-10744200D01*
X12725400Y-3810000D02*
X12725400Y-3937000D01*
X15392400Y-10744200D02*
X15646400Y-10744200D01*
X6667500Y-4165600D02*
X6667500Y-10388600D01*
X8356600Y-11988800D02*
X8356600Y-10744200D01*
X16002000Y-4165600D02*
X16002000Y-10388600D01*
X7023100Y-10744200D02*
X7277100Y-10744200D01*
X7023100Y-3810000D02*
X7518400Y-3810000D01*
X15113000Y-10744200D02*
X15392400Y-10744200D01*
X12217400Y-11988800D02*
X12217400Y-10744200D01*
X13335000Y-12039600D02*
X14097000Y-12039600D01*
X15646400Y-10744200D02*
G75*
G03*
X16002000Y-10388600I0J355600D01*
G01*
X14249400Y-10744200D02*
X14249400Y-11988800D01*
X7493000Y-11988800D02*
G75*
G03*
X7543800Y-12039600I50800J0D01*
G01*
X13182600Y-10744200D02*
X13284200Y-10744200D01*
X10439400Y-12039600D02*
X11201400Y-12039600D01*
X12725400Y-3937000D02*
X13131800Y-3937000D01*
X11252200Y-11988800D02*
X11252200Y-10744200D01*
X10287000Y-11988800D02*
X10287000Y-10744200D01*
X11252200Y-10744200D02*
X11353800Y-10744200D01*
X12319000Y-10744200D02*
X12319000Y-11988800D01*
X12369800Y-12039600D02*
X13131800Y-12039600D01*
X8356600Y-10744200D02*
X8458200Y-10744200D01*
D11*
D12*
X7524800Y-10744600D02*
X7574800Y-10794600D01*
X7574800Y-10744600D02*
X7524800Y-10794600D01*
X7599800Y-10744600D02*
X7649800Y-10794600D01*
X7649800Y-10744600D02*
X7599800Y-10794600D01*
X7674800Y-10744600D02*
X7724800Y-10794600D01*
X7724800Y-10744600D02*
X7674800Y-10794600D01*
X7749800Y-10744600D02*
X7799800Y-10794600D01*
X7799800Y-10744600D02*
X7749800Y-10794600D01*
X7824800Y-10744600D02*
X7874800Y-10794600D01*
X7874800Y-10744600D02*
X7824800Y-10794600D01*
X7899800Y-10744600D02*
X7949800Y-10794600D01*
X7949800Y-10744600D02*
X7899800Y-10794600D01*
X7974800Y-10744600D02*
X8024800Y-10794600D01*
X8024800Y-10744600D02*
X7974800Y-10794600D01*
X8049800Y-10744600D02*
X8099800Y-10794600D01*
X8099800Y-10744600D02*
X8049800Y-10794600D01*
X8124800Y-10744600D02*
X8174800Y-10794600D01*
X8174800Y-10744600D02*
X8124800Y-10794600D01*
X8199800Y-10744600D02*
X8249800Y-10794600D01*
X8249800Y-10744600D02*
X8199800Y-10794600D01*
X8274800Y-10744600D02*
X8324800Y-10794600D01*
X8324800Y-10744600D02*
X8274800Y-10794600D01*
X8488800Y-10744600D02*
X8538800Y-10794600D01*
X8538800Y-10744600D02*
X8488800Y-10794600D01*
X8563800Y-10744600D02*
X8613800Y-10794600D01*
X8613800Y-10744600D02*
X8563800Y-10794600D01*
X8638800Y-10744600D02*
X8688800Y-10794600D01*
X8688800Y-10744600D02*
X8638800Y-10794600D01*
X8713800Y-10744600D02*
X8763800Y-10794600D01*
X8763800Y-10744600D02*
X8713800Y-10794600D01*
X8788800Y-10744600D02*
X8838800Y-10794600D01*
X8838800Y-10744600D02*
X8788800Y-10794600D01*
X8863800Y-10744600D02*
X8913800Y-10794600D01*
X8913800Y-10744600D02*
X8863800Y-10794600D01*
X8938800Y-10744600D02*
X8988800Y-10794600D01*
X8988800Y-10744600D02*
X8938800Y-10794600D01*
X9013800Y-10744600D02*
X9063800Y-10794600D01*
X9063800Y-10744600D02*
X9013800Y-10794600D01*
X9088800Y-10744600D02*
X9138800Y-10794600D01*
X9138800Y-10744600D02*
X9088800Y-10794600D01*
X9163800Y-10744600D02*
X9213800Y-10794600D01*
X9213800Y-10744600D02*
X9163800Y-10794600D01*
X9238800Y-10744600D02*
X9288800Y-10794600D01*
X9288800Y-10744600D02*
X9238800Y-10794600D01*
X9454000Y-10744600D02*
X9504000Y-10794600D01*
X9504000Y-10744600D02*
X9454000Y-10794600D01*
X9529000Y-10744600D02*
X9579000Y-10794600D01*
X9579000Y-10744600D02*
X9529000Y-10794600D01*
X9604000Y-10744600D02*
X9654000Y-10794600D01*
X9654000Y-10744600D02*
X9604000Y-10794600D01*
X9679000Y-10744600D02*
X9729000Y-10794600D01*
X9729000Y-10744600D02*
X9679000Y-10794600D01*
X9754000Y-10744600D02*
X9804000Y-10794600D01*
X9804000Y-10744600D02*
X9754000Y-10794600D01*
X9829000Y-10744600D02*
X9879000Y-10794600D01*
X9879000Y-10744600D02*
X9829000Y-10794600D01*
X9904000Y-10744600D02*
X9954000Y-10794600D01*
X9954000Y-10744600D02*
X9904000Y-10794600D01*
X9979000Y-10744600D02*
X10029000Y-10794600D01*
X10029000Y-10744600D02*
X9979000Y-10794600D01*
X10054000Y-10744600D02*
X10104000Y-10794600D01*
X10104000Y-10744600D02*
X10054000Y-10794600D01*
X10129000Y-10744600D02*
X10179000Y-10794600D01*
X10179000Y-10744600D02*
X10129000Y-10794600D01*
X10204000Y-10744600D02*
X10254000Y-10794600D01*
X10254000Y-10744600D02*
X10204000Y-10794600D01*
X10419200Y-10744600D02*
X10469200Y-10794600D01*
X10469200Y-10744600D02*
X10419200Y-10794600D01*
X10494200Y-10744600D02*
X10544200Y-10794600D01*
X10544200Y-10744600D02*
X10494200Y-10794600D01*
X10569200Y-10744600D02*
X10619200Y-10794600D01*
X10619200Y-10744600D02*
X10569200Y-10794600D01*
X10644200Y-10744600D02*
X10694200Y-10794600D01*
X10694200Y-10744600D02*
X10644200Y-10794600D01*
X10719200Y-10744600D02*
X10769200Y-10794600D01*
X10769200Y-10744600D02*
X10719200Y-10794600D01*
X10794200Y-10744600D02*
X10844200Y-10794600D01*
X10844200Y-10744600D02*
X10794200Y-10794600D01*
X10869200Y-10744600D02*
X10919200Y-10794600D01*
X10919200Y-10744600D02*
X10869200Y-10794600D01*
X10944200Y-10744600D02*
X10994200Y-10794600D01*
X10994200Y-10744600D02*
X10944200Y-10794600D01*
X11019200Y-10744600D02*
X11069200Y-10794600D01*
X11069200Y-10744600D02*
X11019200Y-10794600D01*
X11094200Y-10744600D02*
X11144200Y-10794600D01*
X11144200Y-10744600D02*
X11094200Y-10794600D01*
X11169200Y-10744600D02*
X11219200Y-10794600D01*
X11219200Y-10744600D02*
X11169200Y-10794600D01*
X11384120Y-10744600D02*
X11434120Y-10794600D01*
X11434120Y-10744600D02*
X11384120Y-10794600D01*
X11459120Y-10744600D02*
X11509120Y-10794600D01*
X11509120Y-10744600D02*
X11459120Y-10794600D01*
X11534120Y-10744600D02*
X11584120Y-10794600D01*
X11584120Y-10744600D02*
X11534120Y-10794600D01*
X11609120Y-10744600D02*
X11659120Y-10794600D01*
X11659120Y-10744600D02*
X11609120Y-10794600D01*
X11684120Y-10744600D02*
X11734120Y-10794600D01*
X11734120Y-10744600D02*
X11684120Y-10794600D01*
X11759120Y-10744600D02*
X11809120Y-10794600D01*
X11809120Y-10744600D02*
X11759120Y-10794600D01*
X11834120Y-10744600D02*
X11884120Y-10794600D01*
X11884120Y-10744600D02*
X11834120Y-10794600D01*
X11909120Y-10744600D02*
X11959120Y-10794600D01*
X11959120Y-10744600D02*
X11909120Y-10794600D01*
X11984120Y-10744600D02*
X12034120Y-10794600D01*
X12034120Y-10744600D02*
X11984120Y-10794600D01*
X12059120Y-10744600D02*
X12109120Y-10794600D01*
X12109120Y-10744600D02*
X12059120Y-10794600D01*
X12134120Y-10744600D02*
X12184120Y-10794600D01*
X12184120Y-10744600D02*
X12134120Y-10794600D01*
X12349320Y-10744600D02*
X12399320Y-10794600D01*
X12399320Y-10744600D02*
X12349320Y-10794600D01*
X12424320Y-10744600D02*
X12474320Y-10794600D01*
X12474320Y-10744600D02*
X12424320Y-10794600D01*
X12499320Y-10744600D02*
X12549320Y-10794600D01*
X12549320Y-10744600D02*
X12499320Y-10794600D01*
X12574320Y-10744600D02*
X12624320Y-10794600D01*
X12624320Y-10744600D02*
X12574320Y-10794600D01*
X12649320Y-10744600D02*
X12699320Y-10794600D01*
X12699320Y-10744600D02*
X12649320Y-10794600D01*
X12724320Y-10744600D02*
X12774320Y-10794600D01*
X12774320Y-10744600D02*
X12724320Y-10794600D01*
X12799320Y-10744600D02*
X12849320Y-10794600D01*
X12849320Y-10744600D02*
X12799320Y-10794600D01*
X12874320Y-10744600D02*
X12924320Y-10794600D01*
X12924320Y-10744600D02*
X12874320Y-10794600D01*
X12949320Y-10744600D02*
X12999320Y-10794600D01*
X12999320Y-10744600D02*
X12949320Y-10794600D01*
X13024320Y-10744600D02*
X13074320Y-10794600D01*
X13074320Y-10744600D02*
X13024320Y-10794600D01*
X13099320Y-10744600D02*
X13149320Y-10794600D01*
X13149320Y-10744600D02*
X13099320Y-10794600D01*
X13315720Y-10744600D02*
X13365720Y-10794600D01*
X13365720Y-10744600D02*
X13315720Y-10794600D01*
X13390720Y-10744600D02*
X13440720Y-10794600D01*
X13440720Y-10744600D02*
X13390720Y-10794600D01*
X13465720Y-10744600D02*
X13515720Y-10794600D01*
X13515720Y-10744600D02*
X13465720Y-10794600D01*
X13540720Y-10744600D02*
X13590720Y-10794600D01*
X13590720Y-10744600D02*
X13540720Y-10794600D01*
X13615720Y-10744600D02*
X13665720Y-10794600D01*
X13665720Y-10744600D02*
X13615720Y-10794600D01*
X13690720Y-10744600D02*
X13740720Y-10794600D01*
X13740720Y-10744600D02*
X13690720Y-10794600D01*
X13765720Y-10744600D02*
X13815720Y-10794600D01*
X13815720Y-10744600D02*
X13765720Y-10794600D01*
X13840720Y-10744600D02*
X13890720Y-10794600D01*
X13890720Y-10744600D02*
X13840720Y-10794600D01*
X13915720Y-10744600D02*
X13965720Y-10794600D01*
X13965720Y-10744600D02*
X13915720Y-10794600D01*
X13990720Y-10744600D02*
X14040720Y-10794600D01*
X14040720Y-10744600D02*
X13990720Y-10794600D01*
X14065720Y-10744600D02*
X14115720Y-10794600D01*
X14115720Y-10744600D02*
X14065720Y-10794600D01*
X14280920Y-10744600D02*
X14330920Y-10794600D01*
X14330920Y-10744600D02*
X14280920Y-10794600D01*
X14355920Y-10744600D02*
X14405920Y-10794600D01*
X14405920Y-10744600D02*
X14355920Y-10794600D01*
X14430920Y-10744600D02*
X14480920Y-10794600D01*
X14480920Y-10744600D02*
X14430920Y-10794600D01*
X14505920Y-10744600D02*
X14555920Y-10794600D01*
X14555920Y-10744600D02*
X14505920Y-10794600D01*
X14580920Y-10744600D02*
X14630920Y-10794600D01*
X14630920Y-10744600D02*
X14580920Y-10794600D01*
X14655920Y-10744600D02*
X14705920Y-10794600D01*
X14705920Y-10744600D02*
X14655920Y-10794600D01*
X14730920Y-10744600D02*
X14780920Y-10794600D01*
X14780920Y-10744600D02*
X14730920Y-10794600D01*
X14805920Y-10744600D02*
X14855920Y-10794600D01*
X14855920Y-10744600D02*
X14805920Y-10794600D01*
X14880920Y-10744600D02*
X14930920Y-10794600D01*
X14930920Y-10744600D02*
X14880920Y-10794600D01*
X14955920Y-10744600D02*
X15005920Y-10794600D01*
X15005920Y-10744600D02*
X14955920Y-10794600D01*
X15030920Y-10744600D02*
X15080920Y-10794600D01*
X15080920Y-10744600D02*
X15030920Y-10794600D01*
D13*
X8162600Y-4292600D02*
G75*
G03*
X8162600Y-4292600I-60000J0D01*
G01*
X9204000Y-4292600D02*
G75*
G03*
X9204000Y-4292600I-60000J0D01*
G01*
X12488600Y-4012500D02*
G75*
G03*
X12488600Y-4012500I-60000J0D01*
G01*
X12488600Y-4262500D02*
G75*
G03*
X12488600Y-4262500I-60000J0D01*
G01*
X12988600Y-4762500D02*
G75*
G03*
X12988600Y-4762500I-60000J0D01*
G01*
X13488600Y-4012500D02*
G75*
G03*
X13488600Y-4012500I-60000J0D01*
G01*
X13488600Y-4262500D02*
G75*
G03*
X13488600Y-4262500I-60000J0D01*
G01*
D14*
X13385800Y-8908800D02*
X13385800Y-9088800D01*
X13295800Y-8998800D02*
X13475800Y-8998800D01*
X13385800Y-9808800D02*
X13385800Y-9988800D01*
X13295800Y-9898800D02*
X13475800Y-9898800D01*
D15*
X8002582Y-11863382D02*
X8002582Y-11707817D01*
X7847017Y-11707817D01*
X7847017Y-11863382D01*
X8002582Y-11863382D01*
X8967783Y-11863382D02*
X8967783Y-11707817D01*
X8812218Y-11707817D01*
X8812218Y-11863382D01*
X8967783Y-11863382D01*
X9932983Y-11863382D02*
X9932983Y-11707817D01*
X9777418Y-11707817D01*
X9777418Y-11863382D01*
X9932983Y-11863382D01*
X10898183Y-11863382D02*
X10898183Y-11707817D01*
X10742618Y-11707817D01*
X10742618Y-11863382D01*
X10898183Y-11863382D01*
X11863382Y-11863382D02*
X11863382Y-11707817D01*
X11707817Y-11707817D01*
X11707817Y-11863382D01*
X11863382Y-11863382D01*
X12828582Y-11863382D02*
X12828582Y-11707817D01*
X12673017Y-11707817D01*
X12673017Y-11863382D01*
X12828582Y-11863382D01*
X13793782Y-11863382D02*
X13793782Y-11707817D01*
X13638217Y-11707817D01*
X13638217Y-11863382D01*
X13793782Y-11863382D01*
X14758982Y-11863382D02*
X14758982Y-11707817D01*
X14603417Y-11707817D01*
X14603417Y-11863382D01*
X14758982Y-11863382D01*
D16*
X7048500Y-4351000D02*
X7208500Y-4191000D01*
X7048500Y-4031000D01*
X6888500Y-4191000D01*
X7048500Y-4351000D01*
X7048500Y-10523200D02*
X7208500Y-10363200D01*
X7048500Y-10203200D01*
X6888500Y-10363200D01*
X7048500Y-10523200D01*
X7531100Y-8267350D02*
X7691100Y-8107350D01*
X7531100Y-7947350D01*
X7371100Y-8107350D01*
X7531100Y-8267350D01*
X10579100Y-8261000D02*
X10739100Y-8101000D01*
X10579100Y-7941000D01*
X10419100Y-8101000D01*
X10579100Y-8261000D01*
X11099800Y-10523200D02*
X11259800Y-10363200D01*
X11099800Y-10203200D01*
X10939800Y-10363200D01*
X11099800Y-10523200D01*
X15621000Y-4351000D02*
X15781000Y-4191000D01*
X15621000Y-4031000D01*
X15461000Y-4191000D01*
X15621000Y-4351000D01*
X15621000Y-10523200D02*
X15781000Y-10363200D01*
X15621000Y-10203200D01*
X15461000Y-10363200D01*
X15621000Y-10523200D01*
D11*
X6920777Y-12358584D02*
X6920777Y-12158584D01*
X6920777Y-12158584D02*
X6968396Y-12158584D01*
X6968396Y-12158584D02*
X6996967Y-12168108D01*
X6996967Y-12168108D02*
X7016015Y-12187155D01*
X7016015Y-12187155D02*
X7025539Y-12206203D01*
X7025539Y-12206203D02*
X7035062Y-12244298D01*
X7035062Y-12244298D02*
X7035062Y-12272869D01*
X7035062Y-12272869D02*
X7025539Y-12310965D01*
X7025539Y-12310965D02*
X7016015Y-12330012D01*
X7016015Y-12330012D02*
X6996967Y-12349060D01*
X6996967Y-12349060D02*
X6968396Y-12358584D01*
X6968396Y-12358584D02*
X6920777Y-12358584D01*
X7120777Y-12358584D02*
X7120777Y-12225250D01*
X7120777Y-12263346D02*
X7130301Y-12244298D01*
X7130301Y-12244298D02*
X7139824Y-12234774D01*
X7139824Y-12234774D02*
X7158872Y-12225250D01*
X7158872Y-12225250D02*
X7177920Y-12225250D01*
X7244586Y-12358584D02*
X7244586Y-12225250D01*
X7244586Y-12158584D02*
X7235062Y-12168108D01*
X7235062Y-12168108D02*
X7244586Y-12177631D01*
X7244586Y-12177631D02*
X7254110Y-12168108D01*
X7254110Y-12168108D02*
X7244586Y-12158584D01*
X7244586Y-12158584D02*
X7244586Y-12177631D01*
X7368396Y-12358584D02*
X7349348Y-12349060D01*
X7349348Y-12349060D02*
X7339824Y-12330012D01*
X7339824Y-12330012D02*
X7339824Y-12158584D01*
X7473158Y-12358584D02*
X7454110Y-12349060D01*
X7454110Y-12349060D02*
X7444586Y-12330012D01*
X7444586Y-12330012D02*
X7444586Y-12158584D01*
X7701729Y-12358584D02*
X7701729Y-12158584D01*
X7701729Y-12158584D02*
X7768396Y-12301441D01*
X7768396Y-12301441D02*
X7835062Y-12158584D01*
X7835062Y-12158584D02*
X7835062Y-12358584D01*
X8016015Y-12358584D02*
X8016015Y-12253822D01*
X8016015Y-12253822D02*
X8006491Y-12234774D01*
X8006491Y-12234774D02*
X7987443Y-12225250D01*
X7987443Y-12225250D02*
X7949348Y-12225250D01*
X7949348Y-12225250D02*
X7930301Y-12234774D01*
X8016015Y-12349060D02*
X7996967Y-12358584D01*
X7996967Y-12358584D02*
X7949348Y-12358584D01*
X7949348Y-12358584D02*
X7930301Y-12349060D01*
X7930301Y-12349060D02*
X7920777Y-12330012D01*
X7920777Y-12330012D02*
X7920777Y-12310965D01*
X7920777Y-12310965D02*
X7930301Y-12291917D01*
X7930301Y-12291917D02*
X7949348Y-12282393D01*
X7949348Y-12282393D02*
X7996967Y-12282393D01*
X7996967Y-12282393D02*
X8016015Y-12272869D01*
X8111253Y-12225250D02*
X8111253Y-12425250D01*
X8111253Y-12234774D02*
X8130301Y-12225250D01*
X8130301Y-12225250D02*
X8168396Y-12225250D01*
X8168396Y-12225250D02*
X8187443Y-12234774D01*
X8187443Y-12234774D02*
X8196967Y-12244298D01*
X8196967Y-12244298D02*
X8206491Y-12263346D01*
X8206491Y-12263346D02*
X8206491Y-12320488D01*
X8206491Y-12320488D02*
X8196967Y-12339536D01*
X8196967Y-12339536D02*
X8187443Y-12349060D01*
X8187443Y-12349060D02*
X8168396Y-12358584D01*
X8168396Y-12358584D02*
X8130301Y-12358584D01*
X8130301Y-12358584D02*
X8111253Y-12349060D01*
X8292205Y-12339536D02*
X8301729Y-12349060D01*
X8301729Y-12349060D02*
X8292205Y-12358584D01*
X8292205Y-12358584D02*
X8282682Y-12349060D01*
X8282682Y-12349060D02*
X8292205Y-12339536D01*
X8292205Y-12339536D02*
X8292205Y-12358584D01*
X8292205Y-12234774D02*
X8301729Y-12244298D01*
X8301729Y-12244298D02*
X8292205Y-12253822D01*
X8292205Y-12253822D02*
X8282682Y-12244298D01*
X8282682Y-12244298D02*
X8292205Y-12234774D01*
X8292205Y-12234774D02*
X8292205Y-12253822D01*
D12*
X6610000Y-12662100D02*
X6660000Y-12712100D01*
X6660000Y-12662100D02*
X6610000Y-12712100D01*
D11*
X6958872Y-12578584D02*
X6977920Y-12578584D01*
X6977920Y-12578584D02*
X6996967Y-12588108D01*
X6996967Y-12588108D02*
X7006491Y-12597631D01*
X7006491Y-12597631D02*
X7016015Y-12616679D01*
X7016015Y-12616679D02*
X7025539Y-12654774D01*
X7025539Y-12654774D02*
X7025539Y-12702393D01*
X7025539Y-12702393D02*
X7016015Y-12740488D01*
X7016015Y-12740488D02*
X7006491Y-12759536D01*
X7006491Y-12759536D02*
X6996967Y-12769060D01*
X6996967Y-12769060D02*
X6977920Y-12778584D01*
X6977920Y-12778584D02*
X6958872Y-12778584D01*
X6958872Y-12778584D02*
X6939824Y-12769060D01*
X6939824Y-12769060D02*
X6930301Y-12759536D01*
X6930301Y-12759536D02*
X6920777Y-12740488D01*
X6920777Y-12740488D02*
X6911253Y-12702393D01*
X6911253Y-12702393D02*
X6911253Y-12654774D01*
X6911253Y-12654774D02*
X6920777Y-12616679D01*
X6920777Y-12616679D02*
X6930301Y-12597631D01*
X6930301Y-12597631D02*
X6939824Y-12588108D01*
X6939824Y-12588108D02*
X6958872Y-12578584D01*
X7111253Y-12759536D02*
X7120777Y-12769060D01*
X7120777Y-12769060D02*
X7111253Y-12778584D01*
X7111253Y-12778584D02*
X7101729Y-12769060D01*
X7101729Y-12769060D02*
X7111253Y-12759536D01*
X7111253Y-12759536D02*
X7111253Y-12778584D01*
X7301729Y-12578584D02*
X7206491Y-12578584D01*
X7206491Y-12578584D02*
X7196967Y-12673822D01*
X7196967Y-12673822D02*
X7206491Y-12664298D01*
X7206491Y-12664298D02*
X7225539Y-12654774D01*
X7225539Y-12654774D02*
X7273158Y-12654774D01*
X7273158Y-12654774D02*
X7292205Y-12664298D01*
X7292205Y-12664298D02*
X7301729Y-12673822D01*
X7301729Y-12673822D02*
X7311253Y-12692869D01*
X7311253Y-12692869D02*
X7311253Y-12740488D01*
X7311253Y-12740488D02*
X7301729Y-12759536D01*
X7301729Y-12759536D02*
X7292205Y-12769060D01*
X7292205Y-12769060D02*
X7273158Y-12778584D01*
X7273158Y-12778584D02*
X7225539Y-12778584D01*
X7225539Y-12778584D02*
X7206491Y-12769060D01*
X7206491Y-12769060D02*
X7196967Y-12759536D01*
X7435062Y-12578584D02*
X7454110Y-12578584D01*
X7454110Y-12578584D02*
X7473158Y-12588108D01*
X7473158Y-12588108D02*
X7482682Y-12597631D01*
X7482682Y-12597631D02*
X7492205Y-12616679D01*
X7492205Y-12616679D02*
X7501729Y-12654774D01*
X7501729Y-12654774D02*
X7501729Y-12702393D01*
X7501729Y-12702393D02*
X7492205Y-12740488D01*
X7492205Y-12740488D02*
X7482682Y-12759536D01*
X7482682Y-12759536D02*
X7473158Y-12769060D01*
X7473158Y-12769060D02*
X7454110Y-12778584D01*
X7454110Y-12778584D02*
X7435062Y-12778584D01*
X7435062Y-12778584D02*
X7416015Y-12769060D01*
X7416015Y-12769060D02*
X7406491Y-12759536D01*
X7406491Y-12759536D02*
X7396967Y-12740488D01*
X7396967Y-12740488D02*
X7387443Y-12702393D01*
X7387443Y-12702393D02*
X7387443Y-12654774D01*
X7387443Y-12654774D02*
X7396967Y-12616679D01*
X7396967Y-12616679D02*
X7406491Y-12597631D01*
X7406491Y-12597631D02*
X7416015Y-12588108D01*
X7416015Y-12588108D02*
X7435062Y-12578584D01*
X7625539Y-12578584D02*
X7644586Y-12578584D01*
X7644586Y-12578584D02*
X7663634Y-12588108D01*
X7663634Y-12588108D02*
X7673158Y-12597631D01*
X7673158Y-12597631D02*
X7682682Y-12616679D01*
X7682682Y-12616679D02*
X7692205Y-12654774D01*
X7692205Y-12654774D02*
X7692205Y-12702393D01*
X7692205Y-12702393D02*
X7682682Y-12740488D01*
X7682682Y-12740488D02*
X7673158Y-12759536D01*
X7673158Y-12759536D02*
X7663634Y-12769060D01*
X7663634Y-12769060D02*
X7644586Y-12778584D01*
X7644586Y-12778584D02*
X7625539Y-12778584D01*
X7625539Y-12778584D02*
X7606491Y-12769060D01*
X7606491Y-12769060D02*
X7596967Y-12759536D01*
X7596967Y-12759536D02*
X7587443Y-12740488D01*
X7587443Y-12740488D02*
X7577920Y-12702393D01*
X7577920Y-12702393D02*
X7577920Y-12654774D01*
X7577920Y-12654774D02*
X7587443Y-12616679D01*
X7587443Y-12616679D02*
X7596967Y-12597631D01*
X7596967Y-12597631D02*
X7606491Y-12588108D01*
X7606491Y-12588108D02*
X7625539Y-12578584D01*
X7777920Y-12778584D02*
X7777920Y-12645250D01*
X7777920Y-12664298D02*
X7787443Y-12654774D01*
X7787443Y-12654774D02*
X7806491Y-12645250D01*
X7806491Y-12645250D02*
X7835063Y-12645250D01*
X7835063Y-12645250D02*
X7854110Y-12654774D01*
X7854110Y-12654774D02*
X7863634Y-12673822D01*
X7863634Y-12673822D02*
X7863634Y-12778584D01*
X7863634Y-12673822D02*
X7873158Y-12654774D01*
X7873158Y-12654774D02*
X7892205Y-12645250D01*
X7892205Y-12645250D02*
X7920777Y-12645250D01*
X7920777Y-12645250D02*
X7939824Y-12654774D01*
X7939824Y-12654774D02*
X7949348Y-12673822D01*
X7949348Y-12673822D02*
X7949348Y-12778584D01*
X8044586Y-12778584D02*
X8044586Y-12645250D01*
X8044586Y-12664298D02*
X8054110Y-12654774D01*
X8054110Y-12654774D02*
X8073158Y-12645250D01*
X8073158Y-12645250D02*
X8101729Y-12645250D01*
X8101729Y-12645250D02*
X8120777Y-12654774D01*
X8120777Y-12654774D02*
X8130301Y-12673822D01*
X8130301Y-12673822D02*
X8130301Y-12778584D01*
X8130301Y-12673822D02*
X8139824Y-12654774D01*
X8139824Y-12654774D02*
X8158872Y-12645250D01*
X8158872Y-12645250D02*
X8187443Y-12645250D01*
X8187443Y-12645250D02*
X8206491Y-12654774D01*
X8206491Y-12654774D02*
X8216015Y-12673822D01*
X8216015Y-12673822D02*
X8216015Y-12778584D01*
X8606491Y-12569060D02*
X8435063Y-12826203D01*
X8863634Y-12578584D02*
X8882682Y-12578584D01*
X8882682Y-12578584D02*
X8901729Y-12588108D01*
X8901729Y-12588108D02*
X8911253Y-12597631D01*
X8911253Y-12597631D02*
X8920777Y-12616679D01*
X8920777Y-12616679D02*
X8930301Y-12654774D01*
X8930301Y-12654774D02*
X8930301Y-12702393D01*
X8930301Y-12702393D02*
X8920777Y-12740488D01*
X8920777Y-12740488D02*
X8911253Y-12759536D01*
X8911253Y-12759536D02*
X8901729Y-12769060D01*
X8901729Y-12769060D02*
X8882682Y-12778584D01*
X8882682Y-12778584D02*
X8863634Y-12778584D01*
X8863634Y-12778584D02*
X8844587Y-12769060D01*
X8844587Y-12769060D02*
X8835063Y-12759536D01*
X8835063Y-12759536D02*
X8825539Y-12740488D01*
X8825539Y-12740488D02*
X8816015Y-12702393D01*
X8816015Y-12702393D02*
X8816015Y-12654774D01*
X8816015Y-12654774D02*
X8825539Y-12616679D01*
X8825539Y-12616679D02*
X8835063Y-12597631D01*
X8835063Y-12597631D02*
X8844587Y-12588108D01*
X8844587Y-12588108D02*
X8863634Y-12578584D01*
X9016015Y-12759536D02*
X9025539Y-12769060D01*
X9025539Y-12769060D02*
X9016015Y-12778584D01*
X9016015Y-12778584D02*
X9006491Y-12769060D01*
X9006491Y-12769060D02*
X9016015Y-12759536D01*
X9016015Y-12759536D02*
X9016015Y-12778584D01*
X9149348Y-12578584D02*
X9168396Y-12578584D01*
X9168396Y-12578584D02*
X9187444Y-12588108D01*
X9187444Y-12588108D02*
X9196968Y-12597631D01*
X9196968Y-12597631D02*
X9206491Y-12616679D01*
X9206491Y-12616679D02*
X9216015Y-12654774D01*
X9216015Y-12654774D02*
X9216015Y-12702393D01*
X9216015Y-12702393D02*
X9206491Y-12740488D01*
X9206491Y-12740488D02*
X9196968Y-12759536D01*
X9196968Y-12759536D02*
X9187444Y-12769060D01*
X9187444Y-12769060D02*
X9168396Y-12778584D01*
X9168396Y-12778584D02*
X9149348Y-12778584D01*
X9149348Y-12778584D02*
X9130301Y-12769060D01*
X9130301Y-12769060D02*
X9120777Y-12759536D01*
X9120777Y-12759536D02*
X9111253Y-12740488D01*
X9111253Y-12740488D02*
X9101729Y-12702393D01*
X9101729Y-12702393D02*
X9101729Y-12654774D01*
X9101729Y-12654774D02*
X9111253Y-12616679D01*
X9111253Y-12616679D02*
X9120777Y-12597631D01*
X9120777Y-12597631D02*
X9130301Y-12588108D01*
X9130301Y-12588108D02*
X9149348Y-12578584D01*
X9406491Y-12778584D02*
X9292206Y-12778584D01*
X9349348Y-12778584D02*
X9349348Y-12578584D01*
X9349348Y-12578584D02*
X9330301Y-12607155D01*
X9330301Y-12607155D02*
X9311253Y-12626203D01*
X9311253Y-12626203D02*
X9292206Y-12635727D01*
X9501729Y-12778584D02*
X9539825Y-12778584D01*
X9539825Y-12778584D02*
X9558872Y-12769060D01*
X9558872Y-12769060D02*
X9568396Y-12759536D01*
X9568396Y-12759536D02*
X9587444Y-12730965D01*
X9587444Y-12730965D02*
X9596968Y-12692869D01*
X9596968Y-12692869D02*
X9596968Y-12616679D01*
X9596968Y-12616679D02*
X9587444Y-12597631D01*
X9587444Y-12597631D02*
X9577920Y-12588108D01*
X9577920Y-12588108D02*
X9558872Y-12578584D01*
X9558872Y-12578584D02*
X9520777Y-12578584D01*
X9520777Y-12578584D02*
X9501729Y-12588108D01*
X9501729Y-12588108D02*
X9492206Y-12597631D01*
X9492206Y-12597631D02*
X9482682Y-12616679D01*
X9482682Y-12616679D02*
X9482682Y-12664298D01*
X9482682Y-12664298D02*
X9492206Y-12683346D01*
X9492206Y-12683346D02*
X9501729Y-12692869D01*
X9501729Y-12692869D02*
X9520777Y-12702393D01*
X9520777Y-12702393D02*
X9558872Y-12702393D01*
X9558872Y-12702393D02*
X9577920Y-12692869D01*
X9577920Y-12692869D02*
X9587444Y-12683346D01*
X9587444Y-12683346D02*
X9596968Y-12664298D01*
X9663634Y-12578584D02*
X9796968Y-12578584D01*
X9796968Y-12578584D02*
X9711253Y-12778584D01*
X9863634Y-12578584D02*
X9863634Y-12616679D01*
X9939825Y-12578584D02*
X9939825Y-12616679D01*
X10235063Y-12854774D02*
X10225539Y-12845250D01*
X10225539Y-12845250D02*
X10206491Y-12816679D01*
X10206491Y-12816679D02*
X10196968Y-12797631D01*
X10196968Y-12797631D02*
X10187444Y-12769060D01*
X10187444Y-12769060D02*
X10177920Y-12721441D01*
X10177920Y-12721441D02*
X10177920Y-12683346D01*
X10177920Y-12683346D02*
X10187444Y-12635727D01*
X10187444Y-12635727D02*
X10196968Y-12607155D01*
X10196968Y-12607155D02*
X10206491Y-12588108D01*
X10206491Y-12588108D02*
X10225539Y-12559536D01*
X10225539Y-12559536D02*
X10235063Y-12550012D01*
X10339825Y-12664298D02*
X10320777Y-12654774D01*
X10320777Y-12654774D02*
X10311253Y-12645250D01*
X10311253Y-12645250D02*
X10301730Y-12626203D01*
X10301730Y-12626203D02*
X10301730Y-12616679D01*
X10301730Y-12616679D02*
X10311253Y-12597631D01*
X10311253Y-12597631D02*
X10320777Y-12588108D01*
X10320777Y-12588108D02*
X10339825Y-12578584D01*
X10339825Y-12578584D02*
X10377920Y-12578584D01*
X10377920Y-12578584D02*
X10396968Y-12588108D01*
X10396968Y-12588108D02*
X10406491Y-12597631D01*
X10406491Y-12597631D02*
X10416015Y-12616679D01*
X10416015Y-12616679D02*
X10416015Y-12626203D01*
X10416015Y-12626203D02*
X10406491Y-12645250D01*
X10406491Y-12645250D02*
X10396968Y-12654774D01*
X10396968Y-12654774D02*
X10377920Y-12664298D01*
X10377920Y-12664298D02*
X10339825Y-12664298D01*
X10339825Y-12664298D02*
X10320777Y-12673822D01*
X10320777Y-12673822D02*
X10311253Y-12683346D01*
X10311253Y-12683346D02*
X10301730Y-12702393D01*
X10301730Y-12702393D02*
X10301730Y-12740488D01*
X10301730Y-12740488D02*
X10311253Y-12759536D01*
X10311253Y-12759536D02*
X10320777Y-12769060D01*
X10320777Y-12769060D02*
X10339825Y-12778584D01*
X10339825Y-12778584D02*
X10377920Y-12778584D01*
X10377920Y-12778584D02*
X10396968Y-12769060D01*
X10396968Y-12769060D02*
X10406491Y-12759536D01*
X10406491Y-12759536D02*
X10416015Y-12740488D01*
X10416015Y-12740488D02*
X10416015Y-12702393D01*
X10416015Y-12702393D02*
X10406491Y-12683346D01*
X10406491Y-12683346D02*
X10396968Y-12673822D01*
X10396968Y-12673822D02*
X10377920Y-12664298D01*
X10530301Y-12664298D02*
X10511253Y-12654774D01*
X10511253Y-12654774D02*
X10501730Y-12645250D01*
X10501730Y-12645250D02*
X10492206Y-12626203D01*
X10492206Y-12626203D02*
X10492206Y-12616679D01*
X10492206Y-12616679D02*
X10501730Y-12597631D01*
X10501730Y-12597631D02*
X10511253Y-12588108D01*
X10511253Y-12588108D02*
X10530301Y-12578584D01*
X10530301Y-12578584D02*
X10568396Y-12578584D01*
X10568396Y-12578584D02*
X10587444Y-12588108D01*
X10587444Y-12588108D02*
X10596968Y-12597631D01*
X10596968Y-12597631D02*
X10606491Y-12616679D01*
X10606491Y-12616679D02*
X10606491Y-12626203D01*
X10606491Y-12626203D02*
X10596968Y-12645250D01*
X10596968Y-12645250D02*
X10587444Y-12654774D01*
X10587444Y-12654774D02*
X10568396Y-12664298D01*
X10568396Y-12664298D02*
X10530301Y-12664298D01*
X10530301Y-12664298D02*
X10511253Y-12673822D01*
X10511253Y-12673822D02*
X10501730Y-12683346D01*
X10501730Y-12683346D02*
X10492206Y-12702393D01*
X10492206Y-12702393D02*
X10492206Y-12740488D01*
X10492206Y-12740488D02*
X10501730Y-12759536D01*
X10501730Y-12759536D02*
X10511253Y-12769060D01*
X10511253Y-12769060D02*
X10530301Y-12778584D01*
X10530301Y-12778584D02*
X10568396Y-12778584D01*
X10568396Y-12778584D02*
X10587444Y-12769060D01*
X10587444Y-12769060D02*
X10596968Y-12759536D01*
X10596968Y-12759536D02*
X10606491Y-12740488D01*
X10606491Y-12740488D02*
X10606491Y-12702393D01*
X10606491Y-12702393D02*
X10596968Y-12683346D01*
X10596968Y-12683346D02*
X10587444Y-12673822D01*
X10587444Y-12673822D02*
X10568396Y-12664298D01*
X10844587Y-12778584D02*
X10844587Y-12578584D01*
X10930301Y-12778584D02*
X10930301Y-12673822D01*
X10930301Y-12673822D02*
X10920777Y-12654774D01*
X10920777Y-12654774D02*
X10901730Y-12645250D01*
X10901730Y-12645250D02*
X10873158Y-12645250D01*
X10873158Y-12645250D02*
X10854111Y-12654774D01*
X10854111Y-12654774D02*
X10844587Y-12664298D01*
X11054111Y-12778584D02*
X11035063Y-12769060D01*
X11035063Y-12769060D02*
X11025539Y-12759536D01*
X11025539Y-12759536D02*
X11016015Y-12740488D01*
X11016015Y-12740488D02*
X11016015Y-12683346D01*
X11016015Y-12683346D02*
X11025539Y-12664298D01*
X11025539Y-12664298D02*
X11035063Y-12654774D01*
X11035063Y-12654774D02*
X11054111Y-12645250D01*
X11054111Y-12645250D02*
X11082682Y-12645250D01*
X11082682Y-12645250D02*
X11101730Y-12654774D01*
X11101730Y-12654774D02*
X11111253Y-12664298D01*
X11111253Y-12664298D02*
X11120777Y-12683346D01*
X11120777Y-12683346D02*
X11120777Y-12740488D01*
X11120777Y-12740488D02*
X11111253Y-12759536D01*
X11111253Y-12759536D02*
X11101730Y-12769060D01*
X11101730Y-12769060D02*
X11082682Y-12778584D01*
X11082682Y-12778584D02*
X11054111Y-12778584D01*
X11235063Y-12778584D02*
X11216015Y-12769060D01*
X11216015Y-12769060D02*
X11206491Y-12750012D01*
X11206491Y-12750012D02*
X11206491Y-12578584D01*
X11387444Y-12769060D02*
X11368396Y-12778584D01*
X11368396Y-12778584D02*
X11330301Y-12778584D01*
X11330301Y-12778584D02*
X11311253Y-12769060D01*
X11311253Y-12769060D02*
X11301730Y-12750012D01*
X11301730Y-12750012D02*
X11301730Y-12673822D01*
X11301730Y-12673822D02*
X11311253Y-12654774D01*
X11311253Y-12654774D02*
X11330301Y-12645250D01*
X11330301Y-12645250D02*
X11368396Y-12645250D01*
X11368396Y-12645250D02*
X11387444Y-12654774D01*
X11387444Y-12654774D02*
X11396968Y-12673822D01*
X11396968Y-12673822D02*
X11396968Y-12692869D01*
X11396968Y-12692869D02*
X11301730Y-12711917D01*
X11473158Y-12769060D02*
X11492206Y-12778584D01*
X11492206Y-12778584D02*
X11530301Y-12778584D01*
X11530301Y-12778584D02*
X11549349Y-12769060D01*
X11549349Y-12769060D02*
X11558872Y-12750012D01*
X11558872Y-12750012D02*
X11558872Y-12740488D01*
X11558872Y-12740488D02*
X11549349Y-12721441D01*
X11549349Y-12721441D02*
X11530301Y-12711917D01*
X11530301Y-12711917D02*
X11501730Y-12711917D01*
X11501730Y-12711917D02*
X11482682Y-12702393D01*
X11482682Y-12702393D02*
X11473158Y-12683346D01*
X11473158Y-12683346D02*
X11473158Y-12673822D01*
X11473158Y-12673822D02*
X11482682Y-12654774D01*
X11482682Y-12654774D02*
X11501730Y-12645250D01*
X11501730Y-12645250D02*
X11530301Y-12645250D01*
X11530301Y-12645250D02*
X11549349Y-12654774D01*
X11625539Y-12854774D02*
X11635063Y-12845250D01*
X11635063Y-12845250D02*
X11654111Y-12816679D01*
X11654111Y-12816679D02*
X11663634Y-12797631D01*
X11663634Y-12797631D02*
X11673158Y-12769060D01*
X11673158Y-12769060D02*
X11682682Y-12721441D01*
X11682682Y-12721441D02*
X11682682Y-12683346D01*
X11682682Y-12683346D02*
X11673158Y-12635727D01*
X11673158Y-12635727D02*
X11663634Y-12607155D01*
X11663634Y-12607155D02*
X11654111Y-12588108D01*
X11654111Y-12588108D02*
X11635063Y-12559536D01*
X11635063Y-12559536D02*
X11625539Y-12550012D01*
X11987444Y-12854774D02*
X11977920Y-12845250D01*
X11977920Y-12845250D02*
X11958872Y-12816679D01*
X11958872Y-12816679D02*
X11949349Y-12797631D01*
X11949349Y-12797631D02*
X11939825Y-12769060D01*
X11939825Y-12769060D02*
X11930301Y-12721441D01*
X11930301Y-12721441D02*
X11930301Y-12683346D01*
X11930301Y-12683346D02*
X11939825Y-12635727D01*
X11939825Y-12635727D02*
X11949349Y-12607155D01*
X11949349Y-12607155D02*
X11958872Y-12588108D01*
X11958872Y-12588108D02*
X11977920Y-12559536D01*
X11977920Y-12559536D02*
X11987444Y-12550012D01*
X12063634Y-12645250D02*
X12063634Y-12778584D01*
X12063634Y-12664298D02*
X12073158Y-12654774D01*
X12073158Y-12654774D02*
X12092206Y-12645250D01*
X12092206Y-12645250D02*
X12120777Y-12645250D01*
X12120777Y-12645250D02*
X12139825Y-12654774D01*
X12139825Y-12654774D02*
X12149349Y-12673822D01*
X12149349Y-12673822D02*
X12149349Y-12778584D01*
X12273158Y-12778584D02*
X12254111Y-12769060D01*
X12254111Y-12769060D02*
X12244587Y-12759536D01*
X12244587Y-12759536D02*
X12235063Y-12740488D01*
X12235063Y-12740488D02*
X12235063Y-12683346D01*
X12235063Y-12683346D02*
X12244587Y-12664298D01*
X12244587Y-12664298D02*
X12254111Y-12654774D01*
X12254111Y-12654774D02*
X12273158Y-12645250D01*
X12273158Y-12645250D02*
X12301730Y-12645250D01*
X12301730Y-12645250D02*
X12320777Y-12654774D01*
X12320777Y-12654774D02*
X12330301Y-12664298D01*
X12330301Y-12664298D02*
X12339825Y-12683346D01*
X12339825Y-12683346D02*
X12339825Y-12740488D01*
X12339825Y-12740488D02*
X12330301Y-12759536D01*
X12330301Y-12759536D02*
X12320777Y-12769060D01*
X12320777Y-12769060D02*
X12301730Y-12778584D01*
X12301730Y-12778584D02*
X12273158Y-12778584D01*
X12396968Y-12645250D02*
X12473158Y-12645250D01*
X12425539Y-12578584D02*
X12425539Y-12750012D01*
X12425539Y-12750012D02*
X12435063Y-12769060D01*
X12435063Y-12769060D02*
X12454111Y-12778584D01*
X12454111Y-12778584D02*
X12473158Y-12778584D01*
X12692206Y-12645250D02*
X12692206Y-12845250D01*
X12692206Y-12654774D02*
X12711253Y-12645250D01*
X12711253Y-12645250D02*
X12749349Y-12645250D01*
X12749349Y-12645250D02*
X12768396Y-12654774D01*
X12768396Y-12654774D02*
X12777920Y-12664298D01*
X12777920Y-12664298D02*
X12787444Y-12683346D01*
X12787444Y-12683346D02*
X12787444Y-12740488D01*
X12787444Y-12740488D02*
X12777920Y-12759536D01*
X12777920Y-12759536D02*
X12768396Y-12769060D01*
X12768396Y-12769060D02*
X12749349Y-12778584D01*
X12749349Y-12778584D02*
X12711253Y-12778584D01*
X12711253Y-12778584D02*
X12692206Y-12769060D01*
X12901730Y-12778584D02*
X12882682Y-12769060D01*
X12882682Y-12769060D02*
X12873158Y-12750012D01*
X12873158Y-12750012D02*
X12873158Y-12578584D01*
X13063634Y-12778584D02*
X13063634Y-12673822D01*
X13063634Y-12673822D02*
X13054111Y-12654774D01*
X13054111Y-12654774D02*
X13035063Y-12645250D01*
X13035063Y-12645250D02*
X12996968Y-12645250D01*
X12996968Y-12645250D02*
X12977920Y-12654774D01*
X13063634Y-12769060D02*
X13044587Y-12778584D01*
X13044587Y-12778584D02*
X12996968Y-12778584D01*
X12996968Y-12778584D02*
X12977920Y-12769060D01*
X12977920Y-12769060D02*
X12968396Y-12750012D01*
X12968396Y-12750012D02*
X12968396Y-12730965D01*
X12968396Y-12730965D02*
X12977920Y-12711917D01*
X12977920Y-12711917D02*
X12996968Y-12702393D01*
X12996968Y-12702393D02*
X13044587Y-12702393D01*
X13044587Y-12702393D02*
X13063634Y-12692869D01*
X13130301Y-12645250D02*
X13206492Y-12645250D01*
X13158873Y-12578584D02*
X13158873Y-12750012D01*
X13158873Y-12750012D02*
X13168396Y-12769060D01*
X13168396Y-12769060D02*
X13187444Y-12778584D01*
X13187444Y-12778584D02*
X13206492Y-12778584D01*
X13349349Y-12769060D02*
X13330301Y-12778584D01*
X13330301Y-12778584D02*
X13292206Y-12778584D01*
X13292206Y-12778584D02*
X13273158Y-12769060D01*
X13273158Y-12769060D02*
X13263634Y-12750012D01*
X13263634Y-12750012D02*
X13263634Y-12673822D01*
X13263634Y-12673822D02*
X13273158Y-12654774D01*
X13273158Y-12654774D02*
X13292206Y-12645250D01*
X13292206Y-12645250D02*
X13330301Y-12645250D01*
X13330301Y-12645250D02*
X13349349Y-12654774D01*
X13349349Y-12654774D02*
X13358873Y-12673822D01*
X13358873Y-12673822D02*
X13358873Y-12692869D01*
X13358873Y-12692869D02*
X13263634Y-12711917D01*
X13530301Y-12778584D02*
X13530301Y-12578584D01*
X13530301Y-12769060D02*
X13511254Y-12778584D01*
X13511254Y-12778584D02*
X13473158Y-12778584D01*
X13473158Y-12778584D02*
X13454111Y-12769060D01*
X13454111Y-12769060D02*
X13444587Y-12759536D01*
X13444587Y-12759536D02*
X13435063Y-12740488D01*
X13435063Y-12740488D02*
X13435063Y-12683346D01*
X13435063Y-12683346D02*
X13444587Y-12664298D01*
X13444587Y-12664298D02*
X13454111Y-12654774D01*
X13454111Y-12654774D02*
X13473158Y-12645250D01*
X13473158Y-12645250D02*
X13511254Y-12645250D01*
X13511254Y-12645250D02*
X13530301Y-12654774D01*
X13606492Y-12854774D02*
X13616015Y-12845250D01*
X13616015Y-12845250D02*
X13635063Y-12816679D01*
X13635063Y-12816679D02*
X13644587Y-12797631D01*
X13644587Y-12797631D02*
X13654111Y-12769060D01*
X13654111Y-12769060D02*
X13663634Y-12721441D01*
X13663634Y-12721441D02*
X13663634Y-12683346D01*
X13663634Y-12683346D02*
X13654111Y-12635727D01*
X13654111Y-12635727D02*
X13644587Y-12607155D01*
X13644587Y-12607155D02*
X13635063Y-12588108D01*
X13635063Y-12588108D02*
X13616015Y-12559536D01*
X13616015Y-12559536D02*
X13606492Y-12550012D01*
D13*
X6660000Y-12951100D02*
G75*
G03*
X6660000Y-12951100I-60000J0D01*
G01*
D11*
X7025539Y-13042584D02*
X6911253Y-13042584D01*
X6968396Y-13042584D02*
X6968396Y-12842584D01*
X6968396Y-12842584D02*
X6949348Y-12871155D01*
X6949348Y-12871155D02*
X6930301Y-12890203D01*
X6930301Y-12890203D02*
X6911253Y-12899727D01*
X7111253Y-13023536D02*
X7120777Y-13033060D01*
X7120777Y-13033060D02*
X7111253Y-13042584D01*
X7111253Y-13042584D02*
X7101729Y-13033060D01*
X7101729Y-13033060D02*
X7111253Y-13023536D01*
X7111253Y-13023536D02*
X7111253Y-13042584D01*
X7196967Y-12861631D02*
X7206491Y-12852108D01*
X7206491Y-12852108D02*
X7225539Y-12842584D01*
X7225539Y-12842584D02*
X7273158Y-12842584D01*
X7273158Y-12842584D02*
X7292205Y-12852108D01*
X7292205Y-12852108D02*
X7301729Y-12861631D01*
X7301729Y-12861631D02*
X7311253Y-12880679D01*
X7311253Y-12880679D02*
X7311253Y-12899727D01*
X7311253Y-12899727D02*
X7301729Y-12928298D01*
X7301729Y-12928298D02*
X7187443Y-13042584D01*
X7187443Y-13042584D02*
X7311253Y-13042584D01*
X7435062Y-12842584D02*
X7454110Y-12842584D01*
X7454110Y-12842584D02*
X7473158Y-12852108D01*
X7473158Y-12852108D02*
X7482682Y-12861631D01*
X7482682Y-12861631D02*
X7492205Y-12880679D01*
X7492205Y-12880679D02*
X7501729Y-12918774D01*
X7501729Y-12918774D02*
X7501729Y-12966393D01*
X7501729Y-12966393D02*
X7492205Y-13004488D01*
X7492205Y-13004488D02*
X7482682Y-13023536D01*
X7482682Y-13023536D02*
X7473158Y-13033060D01*
X7473158Y-13033060D02*
X7454110Y-13042584D01*
X7454110Y-13042584D02*
X7435062Y-13042584D01*
X7435062Y-13042584D02*
X7416015Y-13033060D01*
X7416015Y-13033060D02*
X7406491Y-13023536D01*
X7406491Y-13023536D02*
X7396967Y-13004488D01*
X7396967Y-13004488D02*
X7387443Y-12966393D01*
X7387443Y-12966393D02*
X7387443Y-12918774D01*
X7387443Y-12918774D02*
X7396967Y-12880679D01*
X7396967Y-12880679D02*
X7406491Y-12861631D01*
X7406491Y-12861631D02*
X7416015Y-12852108D01*
X7416015Y-12852108D02*
X7435062Y-12842584D01*
X7625539Y-12842584D02*
X7644586Y-12842584D01*
X7644586Y-12842584D02*
X7663634Y-12852108D01*
X7663634Y-12852108D02*
X7673158Y-12861631D01*
X7673158Y-12861631D02*
X7682682Y-12880679D01*
X7682682Y-12880679D02*
X7692205Y-12918774D01*
X7692205Y-12918774D02*
X7692205Y-12966393D01*
X7692205Y-12966393D02*
X7682682Y-13004488D01*
X7682682Y-13004488D02*
X7673158Y-13023536D01*
X7673158Y-13023536D02*
X7663634Y-13033060D01*
X7663634Y-13033060D02*
X7644586Y-13042584D01*
X7644586Y-13042584D02*
X7625539Y-13042584D01*
X7625539Y-13042584D02*
X7606491Y-13033060D01*
X7606491Y-13033060D02*
X7596967Y-13023536D01*
X7596967Y-13023536D02*
X7587443Y-13004488D01*
X7587443Y-13004488D02*
X7577920Y-12966393D01*
X7577920Y-12966393D02*
X7577920Y-12918774D01*
X7577920Y-12918774D02*
X7587443Y-12880679D01*
X7587443Y-12880679D02*
X7596967Y-12861631D01*
X7596967Y-12861631D02*
X7606491Y-12852108D01*
X7606491Y-12852108D02*
X7625539Y-12842584D01*
X7777920Y-13042584D02*
X7777920Y-12909250D01*
X7777920Y-12928298D02*
X7787443Y-12918774D01*
X7787443Y-12918774D02*
X7806491Y-12909250D01*
X7806491Y-12909250D02*
X7835063Y-12909250D01*
X7835063Y-12909250D02*
X7854110Y-12918774D01*
X7854110Y-12918774D02*
X7863634Y-12937822D01*
X7863634Y-12937822D02*
X7863634Y-13042584D01*
X7863634Y-12937822D02*
X7873158Y-12918774D01*
X7873158Y-12918774D02*
X7892205Y-12909250D01*
X7892205Y-12909250D02*
X7920777Y-12909250D01*
X7920777Y-12909250D02*
X7939824Y-12918774D01*
X7939824Y-12918774D02*
X7949348Y-12937822D01*
X7949348Y-12937822D02*
X7949348Y-13042584D01*
X8044586Y-13042584D02*
X8044586Y-12909250D01*
X8044586Y-12928298D02*
X8054110Y-12918774D01*
X8054110Y-12918774D02*
X8073158Y-12909250D01*
X8073158Y-12909250D02*
X8101729Y-12909250D01*
X8101729Y-12909250D02*
X8120777Y-12918774D01*
X8120777Y-12918774D02*
X8130301Y-12937822D01*
X8130301Y-12937822D02*
X8130301Y-13042584D01*
X8130301Y-12937822D02*
X8139824Y-12918774D01*
X8139824Y-12918774D02*
X8158872Y-12909250D01*
X8158872Y-12909250D02*
X8187443Y-12909250D01*
X8187443Y-12909250D02*
X8206491Y-12918774D01*
X8206491Y-12918774D02*
X8216015Y-12937822D01*
X8216015Y-12937822D02*
X8216015Y-13042584D01*
X8606491Y-12833060D02*
X8435063Y-13090203D01*
X8863634Y-12842584D02*
X8882682Y-12842584D01*
X8882682Y-12842584D02*
X8901729Y-12852108D01*
X8901729Y-12852108D02*
X8911253Y-12861631D01*
X8911253Y-12861631D02*
X8920777Y-12880679D01*
X8920777Y-12880679D02*
X8930301Y-12918774D01*
X8930301Y-12918774D02*
X8930301Y-12966393D01*
X8930301Y-12966393D02*
X8920777Y-13004488D01*
X8920777Y-13004488D02*
X8911253Y-13023536D01*
X8911253Y-13023536D02*
X8901729Y-13033060D01*
X8901729Y-13033060D02*
X8882682Y-13042584D01*
X8882682Y-13042584D02*
X8863634Y-13042584D01*
X8863634Y-13042584D02*
X8844587Y-13033060D01*
X8844587Y-13033060D02*
X8835063Y-13023536D01*
X8835063Y-13023536D02*
X8825539Y-13004488D01*
X8825539Y-13004488D02*
X8816015Y-12966393D01*
X8816015Y-12966393D02*
X8816015Y-12918774D01*
X8816015Y-12918774D02*
X8825539Y-12880679D01*
X8825539Y-12880679D02*
X8835063Y-12861631D01*
X8835063Y-12861631D02*
X8844587Y-12852108D01*
X8844587Y-12852108D02*
X8863634Y-12842584D01*
X9016015Y-13023536D02*
X9025539Y-13033060D01*
X9025539Y-13033060D02*
X9016015Y-13042584D01*
X9016015Y-13042584D02*
X9006491Y-13033060D01*
X9006491Y-13033060D02*
X9016015Y-13023536D01*
X9016015Y-13023536D02*
X9016015Y-13042584D01*
X9149348Y-12842584D02*
X9168396Y-12842584D01*
X9168396Y-12842584D02*
X9187444Y-12852108D01*
X9187444Y-12852108D02*
X9196968Y-12861631D01*
X9196968Y-12861631D02*
X9206491Y-12880679D01*
X9206491Y-12880679D02*
X9216015Y-12918774D01*
X9216015Y-12918774D02*
X9216015Y-12966393D01*
X9216015Y-12966393D02*
X9206491Y-13004488D01*
X9206491Y-13004488D02*
X9196968Y-13023536D01*
X9196968Y-13023536D02*
X9187444Y-13033060D01*
X9187444Y-13033060D02*
X9168396Y-13042584D01*
X9168396Y-13042584D02*
X9149348Y-13042584D01*
X9149348Y-13042584D02*
X9130301Y-13033060D01*
X9130301Y-13033060D02*
X9120777Y-13023536D01*
X9120777Y-13023536D02*
X9111253Y-13004488D01*
X9111253Y-13004488D02*
X9101729Y-12966393D01*
X9101729Y-12966393D02*
X9101729Y-12918774D01*
X9101729Y-12918774D02*
X9111253Y-12880679D01*
X9111253Y-12880679D02*
X9120777Y-12861631D01*
X9120777Y-12861631D02*
X9130301Y-12852108D01*
X9130301Y-12852108D02*
X9149348Y-12842584D01*
X9387444Y-12909250D02*
X9387444Y-13042584D01*
X9339825Y-12833060D02*
X9292206Y-12975917D01*
X9292206Y-12975917D02*
X9416015Y-12975917D01*
X9473158Y-12842584D02*
X9606491Y-12842584D01*
X9606491Y-12842584D02*
X9520777Y-13042584D01*
X9673158Y-12861631D02*
X9682682Y-12852108D01*
X9682682Y-12852108D02*
X9701729Y-12842584D01*
X9701729Y-12842584D02*
X9749349Y-12842584D01*
X9749349Y-12842584D02*
X9768396Y-12852108D01*
X9768396Y-12852108D02*
X9777920Y-12861631D01*
X9777920Y-12861631D02*
X9787444Y-12880679D01*
X9787444Y-12880679D02*
X9787444Y-12899727D01*
X9787444Y-12899727D02*
X9777920Y-12928298D01*
X9777920Y-12928298D02*
X9663634Y-13042584D01*
X9663634Y-13042584D02*
X9787444Y-13042584D01*
X9863634Y-12842584D02*
X9863634Y-12880679D01*
X9939825Y-12842584D02*
X9939825Y-12880679D01*
X10235063Y-13118774D02*
X10225539Y-13109250D01*
X10225539Y-13109250D02*
X10206491Y-13080679D01*
X10206491Y-13080679D02*
X10196968Y-13061631D01*
X10196968Y-13061631D02*
X10187444Y-13033060D01*
X10187444Y-13033060D02*
X10177920Y-12985441D01*
X10177920Y-12985441D02*
X10177920Y-12947346D01*
X10177920Y-12947346D02*
X10187444Y-12899727D01*
X10187444Y-12899727D02*
X10196968Y-12871155D01*
X10196968Y-12871155D02*
X10206491Y-12852108D01*
X10206491Y-12852108D02*
X10225539Y-12823536D01*
X10225539Y-12823536D02*
X10235063Y-12814012D01*
X10292206Y-12842584D02*
X10425539Y-12842584D01*
X10425539Y-12842584D02*
X10339825Y-13042584D01*
X10654111Y-13042584D02*
X10654111Y-12842584D01*
X10739825Y-13042584D02*
X10739825Y-12937822D01*
X10739825Y-12937822D02*
X10730301Y-12918774D01*
X10730301Y-12918774D02*
X10711253Y-12909250D01*
X10711253Y-12909250D02*
X10682682Y-12909250D01*
X10682682Y-12909250D02*
X10663634Y-12918774D01*
X10663634Y-12918774D02*
X10654111Y-12928298D01*
X10863634Y-13042584D02*
X10844587Y-13033060D01*
X10844587Y-13033060D02*
X10835063Y-13023536D01*
X10835063Y-13023536D02*
X10825539Y-13004488D01*
X10825539Y-13004488D02*
X10825539Y-12947346D01*
X10825539Y-12947346D02*
X10835063Y-12928298D01*
X10835063Y-12928298D02*
X10844587Y-12918774D01*
X10844587Y-12918774D02*
X10863634Y-12909250D01*
X10863634Y-12909250D02*
X10892206Y-12909250D01*
X10892206Y-12909250D02*
X10911253Y-12918774D01*
X10911253Y-12918774D02*
X10920777Y-12928298D01*
X10920777Y-12928298D02*
X10930301Y-12947346D01*
X10930301Y-12947346D02*
X10930301Y-13004488D01*
X10930301Y-13004488D02*
X10920777Y-13023536D01*
X10920777Y-13023536D02*
X10911253Y-13033060D01*
X10911253Y-13033060D02*
X10892206Y-13042584D01*
X10892206Y-13042584D02*
X10863634Y-13042584D01*
X11044587Y-13042584D02*
X11025539Y-13033060D01*
X11025539Y-13033060D02*
X11016015Y-13014012D01*
X11016015Y-13014012D02*
X11016015Y-12842584D01*
X11196968Y-13033060D02*
X11177920Y-13042584D01*
X11177920Y-13042584D02*
X11139825Y-13042584D01*
X11139825Y-13042584D02*
X11120777Y-13033060D01*
X11120777Y-13033060D02*
X11111253Y-13014012D01*
X11111253Y-13014012D02*
X11111253Y-12937822D01*
X11111253Y-12937822D02*
X11120777Y-12918774D01*
X11120777Y-12918774D02*
X11139825Y-12909250D01*
X11139825Y-12909250D02*
X11177920Y-12909250D01*
X11177920Y-12909250D02*
X11196968Y-12918774D01*
X11196968Y-12918774D02*
X11206491Y-12937822D01*
X11206491Y-12937822D02*
X11206491Y-12956869D01*
X11206491Y-12956869D02*
X11111253Y-12975917D01*
X11282682Y-13033060D02*
X11301730Y-13042584D01*
X11301730Y-13042584D02*
X11339825Y-13042584D01*
X11339825Y-13042584D02*
X11358872Y-13033060D01*
X11358872Y-13033060D02*
X11368396Y-13014012D01*
X11368396Y-13014012D02*
X11368396Y-13004488D01*
X11368396Y-13004488D02*
X11358872Y-12985441D01*
X11358872Y-12985441D02*
X11339825Y-12975917D01*
X11339825Y-12975917D02*
X11311253Y-12975917D01*
X11311253Y-12975917D02*
X11292206Y-12966393D01*
X11292206Y-12966393D02*
X11282682Y-12947346D01*
X11282682Y-12947346D02*
X11282682Y-12937822D01*
X11282682Y-12937822D02*
X11292206Y-12918774D01*
X11292206Y-12918774D02*
X11311253Y-12909250D01*
X11311253Y-12909250D02*
X11339825Y-12909250D01*
X11339825Y-12909250D02*
X11358872Y-12918774D01*
X11435063Y-13118774D02*
X11444587Y-13109250D01*
X11444587Y-13109250D02*
X11463634Y-13080679D01*
X11463634Y-13080679D02*
X11473158Y-13061631D01*
X11473158Y-13061631D02*
X11482682Y-13033060D01*
X11482682Y-13033060D02*
X11492206Y-12985441D01*
X11492206Y-12985441D02*
X11492206Y-12947346D01*
X11492206Y-12947346D02*
X11482682Y-12899727D01*
X11482682Y-12899727D02*
X11473158Y-12871155D01*
X11473158Y-12871155D02*
X11463634Y-12852108D01*
X11463634Y-12852108D02*
X11444587Y-12823536D01*
X11444587Y-12823536D02*
X11435063Y-12814012D01*
X11796968Y-13118774D02*
X11787444Y-13109250D01*
X11787444Y-13109250D02*
X11768396Y-13080679D01*
X11768396Y-13080679D02*
X11758872Y-13061631D01*
X11758872Y-13061631D02*
X11749349Y-13033060D01*
X11749349Y-13033060D02*
X11739825Y-12985441D01*
X11739825Y-12985441D02*
X11739825Y-12947346D01*
X11739825Y-12947346D02*
X11749349Y-12899727D01*
X11749349Y-12899727D02*
X11758872Y-12871155D01*
X11758872Y-12871155D02*
X11768396Y-12852108D01*
X11768396Y-12852108D02*
X11787444Y-12823536D01*
X11787444Y-12823536D02*
X11796968Y-12814012D01*
X11873158Y-12909250D02*
X11873158Y-13042584D01*
X11873158Y-12928298D02*
X11882682Y-12918774D01*
X11882682Y-12918774D02*
X11901730Y-12909250D01*
X11901730Y-12909250D02*
X11930301Y-12909250D01*
X11930301Y-12909250D02*
X11949349Y-12918774D01*
X11949349Y-12918774D02*
X11958872Y-12937822D01*
X11958872Y-12937822D02*
X11958872Y-13042584D01*
X12082682Y-13042584D02*
X12063634Y-13033060D01*
X12063634Y-13033060D02*
X12054111Y-13023536D01*
X12054111Y-13023536D02*
X12044587Y-13004488D01*
X12044587Y-13004488D02*
X12044587Y-12947346D01*
X12044587Y-12947346D02*
X12054111Y-12928298D01*
X12054111Y-12928298D02*
X12063634Y-12918774D01*
X12063634Y-12918774D02*
X12082682Y-12909250D01*
X12082682Y-12909250D02*
X12111253Y-12909250D01*
X12111253Y-12909250D02*
X12130301Y-12918774D01*
X12130301Y-12918774D02*
X12139825Y-12928298D01*
X12139825Y-12928298D02*
X12149349Y-12947346D01*
X12149349Y-12947346D02*
X12149349Y-13004488D01*
X12149349Y-13004488D02*
X12139825Y-13023536D01*
X12139825Y-13023536D02*
X12130301Y-13033060D01*
X12130301Y-13033060D02*
X12111253Y-13042584D01*
X12111253Y-13042584D02*
X12082682Y-13042584D01*
X12206492Y-12909250D02*
X12282682Y-12909250D01*
X12235063Y-12842584D02*
X12235063Y-13014012D01*
X12235063Y-13014012D02*
X12244587Y-13033060D01*
X12244587Y-13033060D02*
X12263634Y-13042584D01*
X12263634Y-13042584D02*
X12282682Y-13042584D01*
X12501730Y-12909250D02*
X12501730Y-13109250D01*
X12501730Y-12918774D02*
X12520777Y-12909250D01*
X12520777Y-12909250D02*
X12558873Y-12909250D01*
X12558873Y-12909250D02*
X12577920Y-12918774D01*
X12577920Y-12918774D02*
X12587444Y-12928298D01*
X12587444Y-12928298D02*
X12596968Y-12947346D01*
X12596968Y-12947346D02*
X12596968Y-13004488D01*
X12596968Y-13004488D02*
X12587444Y-13023536D01*
X12587444Y-13023536D02*
X12577920Y-13033060D01*
X12577920Y-13033060D02*
X12558873Y-13042584D01*
X12558873Y-13042584D02*
X12520777Y-13042584D01*
X12520777Y-13042584D02*
X12501730Y-13033060D01*
X12711253Y-13042584D02*
X12692206Y-13033060D01*
X12692206Y-13033060D02*
X12682682Y-13014012D01*
X12682682Y-13014012D02*
X12682682Y-12842584D01*
X12873158Y-13042584D02*
X12873158Y-12937822D01*
X12873158Y-12937822D02*
X12863634Y-12918774D01*
X12863634Y-12918774D02*
X12844587Y-12909250D01*
X12844587Y-12909250D02*
X12806492Y-12909250D01*
X12806492Y-12909250D02*
X12787444Y-12918774D01*
X12873158Y-13033060D02*
X12854111Y-13042584D01*
X12854111Y-13042584D02*
X12806492Y-13042584D01*
X12806492Y-13042584D02*
X12787444Y-13033060D01*
X12787444Y-13033060D02*
X12777920Y-13014012D01*
X12777920Y-13014012D02*
X12777920Y-12994965D01*
X12777920Y-12994965D02*
X12787444Y-12975917D01*
X12787444Y-12975917D02*
X12806492Y-12966393D01*
X12806492Y-12966393D02*
X12854111Y-12966393D01*
X12854111Y-12966393D02*
X12873158Y-12956869D01*
X12939825Y-12909250D02*
X13016015Y-12909250D01*
X12968396Y-12842584D02*
X12968396Y-13014012D01*
X12968396Y-13014012D02*
X12977920Y-13033060D01*
X12977920Y-13033060D02*
X12996968Y-13042584D01*
X12996968Y-13042584D02*
X13016015Y-13042584D01*
X13158873Y-13033060D02*
X13139825Y-13042584D01*
X13139825Y-13042584D02*
X13101730Y-13042584D01*
X13101730Y-13042584D02*
X13082682Y-13033060D01*
X13082682Y-13033060D02*
X13073158Y-13014012D01*
X13073158Y-13014012D02*
X13073158Y-12937822D01*
X13073158Y-12937822D02*
X13082682Y-12918774D01*
X13082682Y-12918774D02*
X13101730Y-12909250D01*
X13101730Y-12909250D02*
X13139825Y-12909250D01*
X13139825Y-12909250D02*
X13158873Y-12918774D01*
X13158873Y-12918774D02*
X13168396Y-12937822D01*
X13168396Y-12937822D02*
X13168396Y-12956869D01*
X13168396Y-12956869D02*
X13073158Y-12975917D01*
X13339825Y-13042584D02*
X13339825Y-12842584D01*
X13339825Y-13033060D02*
X13320777Y-13042584D01*
X13320777Y-13042584D02*
X13282682Y-13042584D01*
X13282682Y-13042584D02*
X13263634Y-13033060D01*
X13263634Y-13033060D02*
X13254111Y-13023536D01*
X13254111Y-13023536D02*
X13244587Y-13004488D01*
X13244587Y-13004488D02*
X13244587Y-12947346D01*
X13244587Y-12947346D02*
X13254111Y-12928298D01*
X13254111Y-12928298D02*
X13263634Y-12918774D01*
X13263634Y-12918774D02*
X13282682Y-12909250D01*
X13282682Y-12909250D02*
X13320777Y-12909250D01*
X13320777Y-12909250D02*
X13339825Y-12918774D01*
X13416015Y-13118774D02*
X13425539Y-13109250D01*
X13425539Y-13109250D02*
X13444587Y-13080679D01*
X13444587Y-13080679D02*
X13454111Y-13061631D01*
X13454111Y-13061631D02*
X13463634Y-13033060D01*
X13463634Y-13033060D02*
X13473158Y-12985441D01*
X13473158Y-12985441D02*
X13473158Y-12947346D01*
X13473158Y-12947346D02*
X13463634Y-12899727D01*
X13463634Y-12899727D02*
X13454111Y-12871155D01*
X13454111Y-12871155D02*
X13444587Y-12852108D01*
X13444587Y-12852108D02*
X13425539Y-12823536D01*
X13425539Y-12823536D02*
X13416015Y-12814012D01*
D14*
X6570000Y-13125100D02*
X6570000Y-13305100D01*
X6480000Y-13215100D02*
X6660000Y-13215100D01*
D11*
X7025539Y-13306584D02*
X6911253Y-13306584D01*
X6968396Y-13306584D02*
X6968396Y-13106584D01*
X6968396Y-13106584D02*
X6949348Y-13135155D01*
X6949348Y-13135155D02*
X6930301Y-13154203D01*
X6930301Y-13154203D02*
X6911253Y-13163727D01*
X7111253Y-13287536D02*
X7120777Y-13297060D01*
X7120777Y-13297060D02*
X7111253Y-13306584D01*
X7111253Y-13306584D02*
X7101729Y-13297060D01*
X7101729Y-13297060D02*
X7111253Y-13287536D01*
X7111253Y-13287536D02*
X7111253Y-13306584D01*
X7235062Y-13192298D02*
X7216015Y-13182774D01*
X7216015Y-13182774D02*
X7206491Y-13173250D01*
X7206491Y-13173250D02*
X7196967Y-13154203D01*
X7196967Y-13154203D02*
X7196967Y-13144679D01*
X7196967Y-13144679D02*
X7206491Y-13125631D01*
X7206491Y-13125631D02*
X7216015Y-13116108D01*
X7216015Y-13116108D02*
X7235062Y-13106584D01*
X7235062Y-13106584D02*
X7273158Y-13106584D01*
X7273158Y-13106584D02*
X7292205Y-13116108D01*
X7292205Y-13116108D02*
X7301729Y-13125631D01*
X7301729Y-13125631D02*
X7311253Y-13144679D01*
X7311253Y-13144679D02*
X7311253Y-13154203D01*
X7311253Y-13154203D02*
X7301729Y-13173250D01*
X7301729Y-13173250D02*
X7292205Y-13182774D01*
X7292205Y-13182774D02*
X7273158Y-13192298D01*
X7273158Y-13192298D02*
X7235062Y-13192298D01*
X7235062Y-13192298D02*
X7216015Y-13201822D01*
X7216015Y-13201822D02*
X7206491Y-13211346D01*
X7206491Y-13211346D02*
X7196967Y-13230393D01*
X7196967Y-13230393D02*
X7196967Y-13268488D01*
X7196967Y-13268488D02*
X7206491Y-13287536D01*
X7206491Y-13287536D02*
X7216015Y-13297060D01*
X7216015Y-13297060D02*
X7235062Y-13306584D01*
X7235062Y-13306584D02*
X7273158Y-13306584D01*
X7273158Y-13306584D02*
X7292205Y-13297060D01*
X7292205Y-13297060D02*
X7301729Y-13287536D01*
X7301729Y-13287536D02*
X7311253Y-13268488D01*
X7311253Y-13268488D02*
X7311253Y-13230393D01*
X7311253Y-13230393D02*
X7301729Y-13211346D01*
X7301729Y-13211346D02*
X7292205Y-13201822D01*
X7292205Y-13201822D02*
X7273158Y-13192298D01*
X7435062Y-13106584D02*
X7454110Y-13106584D01*
X7454110Y-13106584D02*
X7473158Y-13116108D01*
X7473158Y-13116108D02*
X7482682Y-13125631D01*
X7482682Y-13125631D02*
X7492205Y-13144679D01*
X7492205Y-13144679D02*
X7501729Y-13182774D01*
X7501729Y-13182774D02*
X7501729Y-13230393D01*
X7501729Y-13230393D02*
X7492205Y-13268488D01*
X7492205Y-13268488D02*
X7482682Y-13287536D01*
X7482682Y-13287536D02*
X7473158Y-13297060D01*
X7473158Y-13297060D02*
X7454110Y-13306584D01*
X7454110Y-13306584D02*
X7435062Y-13306584D01*
X7435062Y-13306584D02*
X7416015Y-13297060D01*
X7416015Y-13297060D02*
X7406491Y-13287536D01*
X7406491Y-13287536D02*
X7396967Y-13268488D01*
X7396967Y-13268488D02*
X7387443Y-13230393D01*
X7387443Y-13230393D02*
X7387443Y-13182774D01*
X7387443Y-13182774D02*
X7396967Y-13144679D01*
X7396967Y-13144679D02*
X7406491Y-13125631D01*
X7406491Y-13125631D02*
X7416015Y-13116108D01*
X7416015Y-13116108D02*
X7435062Y-13106584D01*
X7625539Y-13106584D02*
X7644586Y-13106584D01*
X7644586Y-13106584D02*
X7663634Y-13116108D01*
X7663634Y-13116108D02*
X7673158Y-13125631D01*
X7673158Y-13125631D02*
X7682682Y-13144679D01*
X7682682Y-13144679D02*
X7692205Y-13182774D01*
X7692205Y-13182774D02*
X7692205Y-13230393D01*
X7692205Y-13230393D02*
X7682682Y-13268488D01*
X7682682Y-13268488D02*
X7673158Y-13287536D01*
X7673158Y-13287536D02*
X7663634Y-13297060D01*
X7663634Y-13297060D02*
X7644586Y-13306584D01*
X7644586Y-13306584D02*
X7625539Y-13306584D01*
X7625539Y-13306584D02*
X7606491Y-13297060D01*
X7606491Y-13297060D02*
X7596967Y-13287536D01*
X7596967Y-13287536D02*
X7587443Y-13268488D01*
X7587443Y-13268488D02*
X7577920Y-13230393D01*
X7577920Y-13230393D02*
X7577920Y-13182774D01*
X7577920Y-13182774D02*
X7587443Y-13144679D01*
X7587443Y-13144679D02*
X7596967Y-13125631D01*
X7596967Y-13125631D02*
X7606491Y-13116108D01*
X7606491Y-13116108D02*
X7625539Y-13106584D01*
X7777920Y-13306584D02*
X7777920Y-13173250D01*
X7777920Y-13192298D02*
X7787443Y-13182774D01*
X7787443Y-13182774D02*
X7806491Y-13173250D01*
X7806491Y-13173250D02*
X7835063Y-13173250D01*
X7835063Y-13173250D02*
X7854110Y-13182774D01*
X7854110Y-13182774D02*
X7863634Y-13201822D01*
X7863634Y-13201822D02*
X7863634Y-13306584D01*
X7863634Y-13201822D02*
X7873158Y-13182774D01*
X7873158Y-13182774D02*
X7892205Y-13173250D01*
X7892205Y-13173250D02*
X7920777Y-13173250D01*
X7920777Y-13173250D02*
X7939824Y-13182774D01*
X7939824Y-13182774D02*
X7949348Y-13201822D01*
X7949348Y-13201822D02*
X7949348Y-13306584D01*
X8044586Y-13306584D02*
X8044586Y-13173250D01*
X8044586Y-13192298D02*
X8054110Y-13182774D01*
X8054110Y-13182774D02*
X8073158Y-13173250D01*
X8073158Y-13173250D02*
X8101729Y-13173250D01*
X8101729Y-13173250D02*
X8120777Y-13182774D01*
X8120777Y-13182774D02*
X8130301Y-13201822D01*
X8130301Y-13201822D02*
X8130301Y-13306584D01*
X8130301Y-13201822D02*
X8139824Y-13182774D01*
X8139824Y-13182774D02*
X8158872Y-13173250D01*
X8158872Y-13173250D02*
X8187443Y-13173250D01*
X8187443Y-13173250D02*
X8206491Y-13182774D01*
X8206491Y-13182774D02*
X8216015Y-13201822D01*
X8216015Y-13201822D02*
X8216015Y-13306584D01*
X8606491Y-13097060D02*
X8435063Y-13354203D01*
X8863634Y-13106584D02*
X8882682Y-13106584D01*
X8882682Y-13106584D02*
X8901729Y-13116108D01*
X8901729Y-13116108D02*
X8911253Y-13125631D01*
X8911253Y-13125631D02*
X8920777Y-13144679D01*
X8920777Y-13144679D02*
X8930301Y-13182774D01*
X8930301Y-13182774D02*
X8930301Y-13230393D01*
X8930301Y-13230393D02*
X8920777Y-13268488D01*
X8920777Y-13268488D02*
X8911253Y-13287536D01*
X8911253Y-13287536D02*
X8901729Y-13297060D01*
X8901729Y-13297060D02*
X8882682Y-13306584D01*
X8882682Y-13306584D02*
X8863634Y-13306584D01*
X8863634Y-13306584D02*
X8844587Y-13297060D01*
X8844587Y-13297060D02*
X8835063Y-13287536D01*
X8835063Y-13287536D02*
X8825539Y-13268488D01*
X8825539Y-13268488D02*
X8816015Y-13230393D01*
X8816015Y-13230393D02*
X8816015Y-13182774D01*
X8816015Y-13182774D02*
X8825539Y-13144679D01*
X8825539Y-13144679D02*
X8835063Y-13125631D01*
X8835063Y-13125631D02*
X8844587Y-13116108D01*
X8844587Y-13116108D02*
X8863634Y-13106584D01*
X9016015Y-13287536D02*
X9025539Y-13297060D01*
X9025539Y-13297060D02*
X9016015Y-13306584D01*
X9016015Y-13306584D02*
X9006491Y-13297060D01*
X9006491Y-13297060D02*
X9016015Y-13287536D01*
X9016015Y-13287536D02*
X9016015Y-13306584D01*
X9149348Y-13106584D02*
X9168396Y-13106584D01*
X9168396Y-13106584D02*
X9187444Y-13116108D01*
X9187444Y-13116108D02*
X9196968Y-13125631D01*
X9196968Y-13125631D02*
X9206491Y-13144679D01*
X9206491Y-13144679D02*
X9216015Y-13182774D01*
X9216015Y-13182774D02*
X9216015Y-13230393D01*
X9216015Y-13230393D02*
X9206491Y-13268488D01*
X9206491Y-13268488D02*
X9196968Y-13287536D01*
X9196968Y-13287536D02*
X9187444Y-13297060D01*
X9187444Y-13297060D02*
X9168396Y-13306584D01*
X9168396Y-13306584D02*
X9149348Y-13306584D01*
X9149348Y-13306584D02*
X9130301Y-13297060D01*
X9130301Y-13297060D02*
X9120777Y-13287536D01*
X9120777Y-13287536D02*
X9111253Y-13268488D01*
X9111253Y-13268488D02*
X9101729Y-13230393D01*
X9101729Y-13230393D02*
X9101729Y-13182774D01*
X9101729Y-13182774D02*
X9111253Y-13144679D01*
X9111253Y-13144679D02*
X9120777Y-13125631D01*
X9120777Y-13125631D02*
X9130301Y-13116108D01*
X9130301Y-13116108D02*
X9149348Y-13106584D01*
X9282682Y-13106584D02*
X9416015Y-13106584D01*
X9416015Y-13106584D02*
X9330301Y-13306584D01*
X9530301Y-13106584D02*
X9549349Y-13106584D01*
X9549349Y-13106584D02*
X9568396Y-13116108D01*
X9568396Y-13116108D02*
X9577920Y-13125631D01*
X9577920Y-13125631D02*
X9587444Y-13144679D01*
X9587444Y-13144679D02*
X9596968Y-13182774D01*
X9596968Y-13182774D02*
X9596968Y-13230393D01*
X9596968Y-13230393D02*
X9587444Y-13268488D01*
X9587444Y-13268488D02*
X9577920Y-13287536D01*
X9577920Y-13287536D02*
X9568396Y-13297060D01*
X9568396Y-13297060D02*
X9549349Y-13306584D01*
X9549349Y-13306584D02*
X9530301Y-13306584D01*
X9530301Y-13306584D02*
X9511253Y-13297060D01*
X9511253Y-13297060D02*
X9501729Y-13287536D01*
X9501729Y-13287536D02*
X9492206Y-13268488D01*
X9492206Y-13268488D02*
X9482682Y-13230393D01*
X9482682Y-13230393D02*
X9482682Y-13182774D01*
X9482682Y-13182774D02*
X9492206Y-13144679D01*
X9492206Y-13144679D02*
X9501729Y-13125631D01*
X9501729Y-13125631D02*
X9511253Y-13116108D01*
X9511253Y-13116108D02*
X9530301Y-13106584D01*
X9692206Y-13306584D02*
X9730301Y-13306584D01*
X9730301Y-13306584D02*
X9749349Y-13297060D01*
X9749349Y-13297060D02*
X9758872Y-13287536D01*
X9758872Y-13287536D02*
X9777920Y-13258965D01*
X9777920Y-13258965D02*
X9787444Y-13220869D01*
X9787444Y-13220869D02*
X9787444Y-13144679D01*
X9787444Y-13144679D02*
X9777920Y-13125631D01*
X9777920Y-13125631D02*
X9768396Y-13116108D01*
X9768396Y-13116108D02*
X9749349Y-13106584D01*
X9749349Y-13106584D02*
X9711253Y-13106584D01*
X9711253Y-13106584D02*
X9692206Y-13116108D01*
X9692206Y-13116108D02*
X9682682Y-13125631D01*
X9682682Y-13125631D02*
X9673158Y-13144679D01*
X9673158Y-13144679D02*
X9673158Y-13192298D01*
X9673158Y-13192298D02*
X9682682Y-13211346D01*
X9682682Y-13211346D02*
X9692206Y-13220869D01*
X9692206Y-13220869D02*
X9711253Y-13230393D01*
X9711253Y-13230393D02*
X9749349Y-13230393D01*
X9749349Y-13230393D02*
X9768396Y-13220869D01*
X9768396Y-13220869D02*
X9777920Y-13211346D01*
X9777920Y-13211346D02*
X9787444Y-13192298D01*
X9863634Y-13106584D02*
X9863634Y-13144679D01*
X9939825Y-13106584D02*
X9939825Y-13144679D01*
X10235063Y-13382774D02*
X10225539Y-13373250D01*
X10225539Y-13373250D02*
X10206491Y-13344679D01*
X10206491Y-13344679D02*
X10196968Y-13325631D01*
X10196968Y-13325631D02*
X10187444Y-13297060D01*
X10187444Y-13297060D02*
X10177920Y-13249441D01*
X10177920Y-13249441D02*
X10177920Y-13211346D01*
X10177920Y-13211346D02*
X10187444Y-13163727D01*
X10187444Y-13163727D02*
X10196968Y-13135155D01*
X10196968Y-13135155D02*
X10206491Y-13116108D01*
X10206491Y-13116108D02*
X10225539Y-13087536D01*
X10225539Y-13087536D02*
X10235063Y-13078012D01*
X10301730Y-13125631D02*
X10311253Y-13116108D01*
X10311253Y-13116108D02*
X10330301Y-13106584D01*
X10330301Y-13106584D02*
X10377920Y-13106584D01*
X10377920Y-13106584D02*
X10396968Y-13116108D01*
X10396968Y-13116108D02*
X10406491Y-13125631D01*
X10406491Y-13125631D02*
X10416015Y-13144679D01*
X10416015Y-13144679D02*
X10416015Y-13163727D01*
X10416015Y-13163727D02*
X10406491Y-13192298D01*
X10406491Y-13192298D02*
X10292206Y-13306584D01*
X10292206Y-13306584D02*
X10416015Y-13306584D01*
X10654111Y-13306584D02*
X10654111Y-13106584D01*
X10739825Y-13306584D02*
X10739825Y-13201822D01*
X10739825Y-13201822D02*
X10730301Y-13182774D01*
X10730301Y-13182774D02*
X10711253Y-13173250D01*
X10711253Y-13173250D02*
X10682682Y-13173250D01*
X10682682Y-13173250D02*
X10663634Y-13182774D01*
X10663634Y-13182774D02*
X10654111Y-13192298D01*
X10863634Y-13306584D02*
X10844587Y-13297060D01*
X10844587Y-13297060D02*
X10835063Y-13287536D01*
X10835063Y-13287536D02*
X10825539Y-13268488D01*
X10825539Y-13268488D02*
X10825539Y-13211346D01*
X10825539Y-13211346D02*
X10835063Y-13192298D01*
X10835063Y-13192298D02*
X10844587Y-13182774D01*
X10844587Y-13182774D02*
X10863634Y-13173250D01*
X10863634Y-13173250D02*
X10892206Y-13173250D01*
X10892206Y-13173250D02*
X10911253Y-13182774D01*
X10911253Y-13182774D02*
X10920777Y-13192298D01*
X10920777Y-13192298D02*
X10930301Y-13211346D01*
X10930301Y-13211346D02*
X10930301Y-13268488D01*
X10930301Y-13268488D02*
X10920777Y-13287536D01*
X10920777Y-13287536D02*
X10911253Y-13297060D01*
X10911253Y-13297060D02*
X10892206Y-13306584D01*
X10892206Y-13306584D02*
X10863634Y-13306584D01*
X11044587Y-13306584D02*
X11025539Y-13297060D01*
X11025539Y-13297060D02*
X11016015Y-13278012D01*
X11016015Y-13278012D02*
X11016015Y-13106584D01*
X11196968Y-13297060D02*
X11177920Y-13306584D01*
X11177920Y-13306584D02*
X11139825Y-13306584D01*
X11139825Y-13306584D02*
X11120777Y-13297060D01*
X11120777Y-13297060D02*
X11111253Y-13278012D01*
X11111253Y-13278012D02*
X11111253Y-13201822D01*
X11111253Y-13201822D02*
X11120777Y-13182774D01*
X11120777Y-13182774D02*
X11139825Y-13173250D01*
X11139825Y-13173250D02*
X11177920Y-13173250D01*
X11177920Y-13173250D02*
X11196968Y-13182774D01*
X11196968Y-13182774D02*
X11206491Y-13201822D01*
X11206491Y-13201822D02*
X11206491Y-13220869D01*
X11206491Y-13220869D02*
X11111253Y-13239917D01*
X11282682Y-13297060D02*
X11301730Y-13306584D01*
X11301730Y-13306584D02*
X11339825Y-13306584D01*
X11339825Y-13306584D02*
X11358872Y-13297060D01*
X11358872Y-13297060D02*
X11368396Y-13278012D01*
X11368396Y-13278012D02*
X11368396Y-13268488D01*
X11368396Y-13268488D02*
X11358872Y-13249441D01*
X11358872Y-13249441D02*
X11339825Y-13239917D01*
X11339825Y-13239917D02*
X11311253Y-13239917D01*
X11311253Y-13239917D02*
X11292206Y-13230393D01*
X11292206Y-13230393D02*
X11282682Y-13211346D01*
X11282682Y-13211346D02*
X11282682Y-13201822D01*
X11282682Y-13201822D02*
X11292206Y-13182774D01*
X11292206Y-13182774D02*
X11311253Y-13173250D01*
X11311253Y-13173250D02*
X11339825Y-13173250D01*
X11339825Y-13173250D02*
X11358872Y-13182774D01*
X11435063Y-13382774D02*
X11444587Y-13373250D01*
X11444587Y-13373250D02*
X11463634Y-13344679D01*
X11463634Y-13344679D02*
X11473158Y-13325631D01*
X11473158Y-13325631D02*
X11482682Y-13297060D01*
X11482682Y-13297060D02*
X11492206Y-13249441D01*
X11492206Y-13249441D02*
X11492206Y-13211346D01*
X11492206Y-13211346D02*
X11482682Y-13163727D01*
X11482682Y-13163727D02*
X11473158Y-13135155D01*
X11473158Y-13135155D02*
X11463634Y-13116108D01*
X11463634Y-13116108D02*
X11444587Y-13087536D01*
X11444587Y-13087536D02*
X11435063Y-13078012D01*
X11796968Y-13382774D02*
X11787444Y-13373250D01*
X11787444Y-13373250D02*
X11768396Y-13344679D01*
X11768396Y-13344679D02*
X11758872Y-13325631D01*
X11758872Y-13325631D02*
X11749349Y-13297060D01*
X11749349Y-13297060D02*
X11739825Y-13249441D01*
X11739825Y-13249441D02*
X11739825Y-13211346D01*
X11739825Y-13211346D02*
X11749349Y-13163727D01*
X11749349Y-13163727D02*
X11758872Y-13135155D01*
X11758872Y-13135155D02*
X11768396Y-13116108D01*
X11768396Y-13116108D02*
X11787444Y-13087536D01*
X11787444Y-13087536D02*
X11796968Y-13078012D01*
X11873158Y-13173250D02*
X11873158Y-13306584D01*
X11873158Y-13192298D02*
X11882682Y-13182774D01*
X11882682Y-13182774D02*
X11901730Y-13173250D01*
X11901730Y-13173250D02*
X11930301Y-13173250D01*
X11930301Y-13173250D02*
X11949349Y-13182774D01*
X11949349Y-13182774D02*
X11958872Y-13201822D01*
X11958872Y-13201822D02*
X11958872Y-13306584D01*
X12082682Y-13306584D02*
X12063634Y-13297060D01*
X12063634Y-13297060D02*
X12054111Y-13287536D01*
X12054111Y-13287536D02*
X12044587Y-13268488D01*
X12044587Y-13268488D02*
X12044587Y-13211346D01*
X12044587Y-13211346D02*
X12054111Y-13192298D01*
X12054111Y-13192298D02*
X12063634Y-13182774D01*
X12063634Y-13182774D02*
X12082682Y-13173250D01*
X12082682Y-13173250D02*
X12111253Y-13173250D01*
X12111253Y-13173250D02*
X12130301Y-13182774D01*
X12130301Y-13182774D02*
X12139825Y-13192298D01*
X12139825Y-13192298D02*
X12149349Y-13211346D01*
X12149349Y-13211346D02*
X12149349Y-13268488D01*
X12149349Y-13268488D02*
X12139825Y-13287536D01*
X12139825Y-13287536D02*
X12130301Y-13297060D01*
X12130301Y-13297060D02*
X12111253Y-13306584D01*
X12111253Y-13306584D02*
X12082682Y-13306584D01*
X12206492Y-13173250D02*
X12282682Y-13173250D01*
X12235063Y-13106584D02*
X12235063Y-13278012D01*
X12235063Y-13278012D02*
X12244587Y-13297060D01*
X12244587Y-13297060D02*
X12263634Y-13306584D01*
X12263634Y-13306584D02*
X12282682Y-13306584D01*
X12501730Y-13173250D02*
X12501730Y-13373250D01*
X12501730Y-13182774D02*
X12520777Y-13173250D01*
X12520777Y-13173250D02*
X12558873Y-13173250D01*
X12558873Y-13173250D02*
X12577920Y-13182774D01*
X12577920Y-13182774D02*
X12587444Y-13192298D01*
X12587444Y-13192298D02*
X12596968Y-13211346D01*
X12596968Y-13211346D02*
X12596968Y-13268488D01*
X12596968Y-13268488D02*
X12587444Y-13287536D01*
X12587444Y-13287536D02*
X12577920Y-13297060D01*
X12577920Y-13297060D02*
X12558873Y-13306584D01*
X12558873Y-13306584D02*
X12520777Y-13306584D01*
X12520777Y-13306584D02*
X12501730Y-13297060D01*
X12711253Y-13306584D02*
X12692206Y-13297060D01*
X12692206Y-13297060D02*
X12682682Y-13278012D01*
X12682682Y-13278012D02*
X12682682Y-13106584D01*
X12873158Y-13306584D02*
X12873158Y-13201822D01*
X12873158Y-13201822D02*
X12863634Y-13182774D01*
X12863634Y-13182774D02*
X12844587Y-13173250D01*
X12844587Y-13173250D02*
X12806492Y-13173250D01*
X12806492Y-13173250D02*
X12787444Y-13182774D01*
X12873158Y-13297060D02*
X12854111Y-13306584D01*
X12854111Y-13306584D02*
X12806492Y-13306584D01*
X12806492Y-13306584D02*
X12787444Y-13297060D01*
X12787444Y-13297060D02*
X12777920Y-13278012D01*
X12777920Y-13278012D02*
X12777920Y-13258965D01*
X12777920Y-13258965D02*
X12787444Y-13239917D01*
X12787444Y-13239917D02*
X12806492Y-13230393D01*
X12806492Y-13230393D02*
X12854111Y-13230393D01*
X12854111Y-13230393D02*
X12873158Y-13220869D01*
X12939825Y-13173250D02*
X13016015Y-13173250D01*
X12968396Y-13106584D02*
X12968396Y-13278012D01*
X12968396Y-13278012D02*
X12977920Y-13297060D01*
X12977920Y-13297060D02*
X12996968Y-13306584D01*
X12996968Y-13306584D02*
X13016015Y-13306584D01*
X13158873Y-13297060D02*
X13139825Y-13306584D01*
X13139825Y-13306584D02*
X13101730Y-13306584D01*
X13101730Y-13306584D02*
X13082682Y-13297060D01*
X13082682Y-13297060D02*
X13073158Y-13278012D01*
X13073158Y-13278012D02*
X13073158Y-13201822D01*
X13073158Y-13201822D02*
X13082682Y-13182774D01*
X13082682Y-13182774D02*
X13101730Y-13173250D01*
X13101730Y-13173250D02*
X13139825Y-13173250D01*
X13139825Y-13173250D02*
X13158873Y-13182774D01*
X13158873Y-13182774D02*
X13168396Y-13201822D01*
X13168396Y-13201822D02*
X13168396Y-13220869D01*
X13168396Y-13220869D02*
X13073158Y-13239917D01*
X13339825Y-13306584D02*
X13339825Y-13106584D01*
X13339825Y-13297060D02*
X13320777Y-13306584D01*
X13320777Y-13306584D02*
X13282682Y-13306584D01*
X13282682Y-13306584D02*
X13263634Y-13297060D01*
X13263634Y-13297060D02*
X13254111Y-13287536D01*
X13254111Y-13287536D02*
X13244587Y-13268488D01*
X13244587Y-13268488D02*
X13244587Y-13211346D01*
X13244587Y-13211346D02*
X13254111Y-13192298D01*
X13254111Y-13192298D02*
X13263634Y-13182774D01*
X13263634Y-13182774D02*
X13282682Y-13173250D01*
X13282682Y-13173250D02*
X13320777Y-13173250D01*
X13320777Y-13173250D02*
X13339825Y-13182774D01*
X13416015Y-13382774D02*
X13425539Y-13373250D01*
X13425539Y-13373250D02*
X13444587Y-13344679D01*
X13444587Y-13344679D02*
X13454111Y-13325631D01*
X13454111Y-13325631D02*
X13463634Y-13297060D01*
X13463634Y-13297060D02*
X13473158Y-13249441D01*
X13473158Y-13249441D02*
X13473158Y-13211346D01*
X13473158Y-13211346D02*
X13463634Y-13163727D01*
X13463634Y-13163727D02*
X13454111Y-13135155D01*
X13454111Y-13135155D02*
X13444587Y-13116108D01*
X13444587Y-13116108D02*
X13425539Y-13087536D01*
X13425539Y-13087536D02*
X13416015Y-13078012D01*
X6630711Y-13585811D02*
X6630711Y-13444389D01*
X6489289Y-13444389D01*
X6489289Y-13585811D01*
X6630711Y-13585811D01*
X6911253Y-13425631D02*
X6920777Y-13416108D01*
X6920777Y-13416108D02*
X6939824Y-13406584D01*
X6939824Y-13406584D02*
X6987443Y-13406584D01*
X6987443Y-13406584D02*
X7006491Y-13416108D01*
X7006491Y-13416108D02*
X7016015Y-13425631D01*
X7016015Y-13425631D02*
X7025539Y-13444679D01*
X7025539Y-13444679D02*
X7025539Y-13463727D01*
X7025539Y-13463727D02*
X7016015Y-13492298D01*
X7016015Y-13492298D02*
X6901729Y-13606584D01*
X6901729Y-13606584D02*
X7025539Y-13606584D01*
X7111253Y-13587536D02*
X7120777Y-13597060D01*
X7120777Y-13597060D02*
X7111253Y-13606584D01*
X7111253Y-13606584D02*
X7101729Y-13597060D01*
X7101729Y-13597060D02*
X7111253Y-13587536D01*
X7111253Y-13587536D02*
X7111253Y-13606584D01*
X7196967Y-13425631D02*
X7206491Y-13416108D01*
X7206491Y-13416108D02*
X7225539Y-13406584D01*
X7225539Y-13406584D02*
X7273158Y-13406584D01*
X7273158Y-13406584D02*
X7292205Y-13416108D01*
X7292205Y-13416108D02*
X7301729Y-13425631D01*
X7301729Y-13425631D02*
X7311253Y-13444679D01*
X7311253Y-13444679D02*
X7311253Y-13463727D01*
X7311253Y-13463727D02*
X7301729Y-13492298D01*
X7301729Y-13492298D02*
X7187443Y-13606584D01*
X7187443Y-13606584D02*
X7311253Y-13606584D01*
X7435062Y-13406584D02*
X7454110Y-13406584D01*
X7454110Y-13406584D02*
X7473158Y-13416108D01*
X7473158Y-13416108D02*
X7482682Y-13425631D01*
X7482682Y-13425631D02*
X7492205Y-13444679D01*
X7492205Y-13444679D02*
X7501729Y-13482774D01*
X7501729Y-13482774D02*
X7501729Y-13530393D01*
X7501729Y-13530393D02*
X7492205Y-13568488D01*
X7492205Y-13568488D02*
X7482682Y-13587536D01*
X7482682Y-13587536D02*
X7473158Y-13597060D01*
X7473158Y-13597060D02*
X7454110Y-13606584D01*
X7454110Y-13606584D02*
X7435062Y-13606584D01*
X7435062Y-13606584D02*
X7416015Y-13597060D01*
X7416015Y-13597060D02*
X7406491Y-13587536D01*
X7406491Y-13587536D02*
X7396967Y-13568488D01*
X7396967Y-13568488D02*
X7387443Y-13530393D01*
X7387443Y-13530393D02*
X7387443Y-13482774D01*
X7387443Y-13482774D02*
X7396967Y-13444679D01*
X7396967Y-13444679D02*
X7406491Y-13425631D01*
X7406491Y-13425631D02*
X7416015Y-13416108D01*
X7416015Y-13416108D02*
X7435062Y-13406584D01*
X7625539Y-13406584D02*
X7644586Y-13406584D01*
X7644586Y-13406584D02*
X7663634Y-13416108D01*
X7663634Y-13416108D02*
X7673158Y-13425631D01*
X7673158Y-13425631D02*
X7682682Y-13444679D01*
X7682682Y-13444679D02*
X7692205Y-13482774D01*
X7692205Y-13482774D02*
X7692205Y-13530393D01*
X7692205Y-13530393D02*
X7682682Y-13568488D01*
X7682682Y-13568488D02*
X7673158Y-13587536D01*
X7673158Y-13587536D02*
X7663634Y-13597060D01*
X7663634Y-13597060D02*
X7644586Y-13606584D01*
X7644586Y-13606584D02*
X7625539Y-13606584D01*
X7625539Y-13606584D02*
X7606491Y-13597060D01*
X7606491Y-13597060D02*
X7596967Y-13587536D01*
X7596967Y-13587536D02*
X7587443Y-13568488D01*
X7587443Y-13568488D02*
X7577920Y-13530393D01*
X7577920Y-13530393D02*
X7577920Y-13482774D01*
X7577920Y-13482774D02*
X7587443Y-13444679D01*
X7587443Y-13444679D02*
X7596967Y-13425631D01*
X7596967Y-13425631D02*
X7606491Y-13416108D01*
X7606491Y-13416108D02*
X7625539Y-13406584D01*
X7777920Y-13606584D02*
X7777920Y-13473250D01*
X7777920Y-13492298D02*
X7787443Y-13482774D01*
X7787443Y-13482774D02*
X7806491Y-13473250D01*
X7806491Y-13473250D02*
X7835063Y-13473250D01*
X7835063Y-13473250D02*
X7854110Y-13482774D01*
X7854110Y-13482774D02*
X7863634Y-13501822D01*
X7863634Y-13501822D02*
X7863634Y-13606584D01*
X7863634Y-13501822D02*
X7873158Y-13482774D01*
X7873158Y-13482774D02*
X7892205Y-13473250D01*
X7892205Y-13473250D02*
X7920777Y-13473250D01*
X7920777Y-13473250D02*
X7939824Y-13482774D01*
X7939824Y-13482774D02*
X7949348Y-13501822D01*
X7949348Y-13501822D02*
X7949348Y-13606584D01*
X8044586Y-13606584D02*
X8044586Y-13473250D01*
X8044586Y-13492298D02*
X8054110Y-13482774D01*
X8054110Y-13482774D02*
X8073158Y-13473250D01*
X8073158Y-13473250D02*
X8101729Y-13473250D01*
X8101729Y-13473250D02*
X8120777Y-13482774D01*
X8120777Y-13482774D02*
X8130301Y-13501822D01*
X8130301Y-13501822D02*
X8130301Y-13606584D01*
X8130301Y-13501822D02*
X8139824Y-13482774D01*
X8139824Y-13482774D02*
X8158872Y-13473250D01*
X8158872Y-13473250D02*
X8187443Y-13473250D01*
X8187443Y-13473250D02*
X8206491Y-13482774D01*
X8206491Y-13482774D02*
X8216015Y-13501822D01*
X8216015Y-13501822D02*
X8216015Y-13606584D01*
X8606491Y-13397060D02*
X8435063Y-13654203D01*
X8863634Y-13406584D02*
X8882682Y-13406584D01*
X8882682Y-13406584D02*
X8901729Y-13416108D01*
X8901729Y-13416108D02*
X8911253Y-13425631D01*
X8911253Y-13425631D02*
X8920777Y-13444679D01*
X8920777Y-13444679D02*
X8930301Y-13482774D01*
X8930301Y-13482774D02*
X8930301Y-13530393D01*
X8930301Y-13530393D02*
X8920777Y-13568488D01*
X8920777Y-13568488D02*
X8911253Y-13587536D01*
X8911253Y-13587536D02*
X8901729Y-13597060D01*
X8901729Y-13597060D02*
X8882682Y-13606584D01*
X8882682Y-13606584D02*
X8863634Y-13606584D01*
X8863634Y-13606584D02*
X8844587Y-13597060D01*
X8844587Y-13597060D02*
X8835063Y-13587536D01*
X8835063Y-13587536D02*
X8825539Y-13568488D01*
X8825539Y-13568488D02*
X8816015Y-13530393D01*
X8816015Y-13530393D02*
X8816015Y-13482774D01*
X8816015Y-13482774D02*
X8825539Y-13444679D01*
X8825539Y-13444679D02*
X8835063Y-13425631D01*
X8835063Y-13425631D02*
X8844587Y-13416108D01*
X8844587Y-13416108D02*
X8863634Y-13406584D01*
X9016015Y-13587536D02*
X9025539Y-13597060D01*
X9025539Y-13597060D02*
X9016015Y-13606584D01*
X9016015Y-13606584D02*
X9006491Y-13597060D01*
X9006491Y-13597060D02*
X9016015Y-13587536D01*
X9016015Y-13587536D02*
X9016015Y-13606584D01*
X9149348Y-13406584D02*
X9168396Y-13406584D01*
X9168396Y-13406584D02*
X9187444Y-13416108D01*
X9187444Y-13416108D02*
X9196968Y-13425631D01*
X9196968Y-13425631D02*
X9206491Y-13444679D01*
X9206491Y-13444679D02*
X9216015Y-13482774D01*
X9216015Y-13482774D02*
X9216015Y-13530393D01*
X9216015Y-13530393D02*
X9206491Y-13568488D01*
X9206491Y-13568488D02*
X9196968Y-13587536D01*
X9196968Y-13587536D02*
X9187444Y-13597060D01*
X9187444Y-13597060D02*
X9168396Y-13606584D01*
X9168396Y-13606584D02*
X9149348Y-13606584D01*
X9149348Y-13606584D02*
X9130301Y-13597060D01*
X9130301Y-13597060D02*
X9120777Y-13587536D01*
X9120777Y-13587536D02*
X9111253Y-13568488D01*
X9111253Y-13568488D02*
X9101729Y-13530393D01*
X9101729Y-13530393D02*
X9101729Y-13482774D01*
X9101729Y-13482774D02*
X9111253Y-13444679D01*
X9111253Y-13444679D02*
X9120777Y-13425631D01*
X9120777Y-13425631D02*
X9130301Y-13416108D01*
X9130301Y-13416108D02*
X9149348Y-13406584D01*
X9330301Y-13492298D02*
X9311253Y-13482774D01*
X9311253Y-13482774D02*
X9301729Y-13473250D01*
X9301729Y-13473250D02*
X9292206Y-13454203D01*
X9292206Y-13454203D02*
X9292206Y-13444679D01*
X9292206Y-13444679D02*
X9301729Y-13425631D01*
X9301729Y-13425631D02*
X9311253Y-13416108D01*
X9311253Y-13416108D02*
X9330301Y-13406584D01*
X9330301Y-13406584D02*
X9368396Y-13406584D01*
X9368396Y-13406584D02*
X9387444Y-13416108D01*
X9387444Y-13416108D02*
X9396968Y-13425631D01*
X9396968Y-13425631D02*
X9406491Y-13444679D01*
X9406491Y-13444679D02*
X9406491Y-13454203D01*
X9406491Y-13454203D02*
X9396968Y-13473250D01*
X9396968Y-13473250D02*
X9387444Y-13482774D01*
X9387444Y-13482774D02*
X9368396Y-13492298D01*
X9368396Y-13492298D02*
X9330301Y-13492298D01*
X9330301Y-13492298D02*
X9311253Y-13501822D01*
X9311253Y-13501822D02*
X9301729Y-13511346D01*
X9301729Y-13511346D02*
X9292206Y-13530393D01*
X9292206Y-13530393D02*
X9292206Y-13568488D01*
X9292206Y-13568488D02*
X9301729Y-13587536D01*
X9301729Y-13587536D02*
X9311253Y-13597060D01*
X9311253Y-13597060D02*
X9330301Y-13606584D01*
X9330301Y-13606584D02*
X9368396Y-13606584D01*
X9368396Y-13606584D02*
X9387444Y-13597060D01*
X9387444Y-13597060D02*
X9396968Y-13587536D01*
X9396968Y-13587536D02*
X9406491Y-13568488D01*
X9406491Y-13568488D02*
X9406491Y-13530393D01*
X9406491Y-13530393D02*
X9396968Y-13511346D01*
X9396968Y-13511346D02*
X9387444Y-13501822D01*
X9387444Y-13501822D02*
X9368396Y-13492298D01*
X9577920Y-13406584D02*
X9539825Y-13406584D01*
X9539825Y-13406584D02*
X9520777Y-13416108D01*
X9520777Y-13416108D02*
X9511253Y-13425631D01*
X9511253Y-13425631D02*
X9492206Y-13454203D01*
X9492206Y-13454203D02*
X9482682Y-13492298D01*
X9482682Y-13492298D02*
X9482682Y-13568488D01*
X9482682Y-13568488D02*
X9492206Y-13587536D01*
X9492206Y-13587536D02*
X9501729Y-13597060D01*
X9501729Y-13597060D02*
X9520777Y-13606584D01*
X9520777Y-13606584D02*
X9558872Y-13606584D01*
X9558872Y-13606584D02*
X9577920Y-13597060D01*
X9577920Y-13597060D02*
X9587444Y-13587536D01*
X9587444Y-13587536D02*
X9596968Y-13568488D01*
X9596968Y-13568488D02*
X9596968Y-13520869D01*
X9596968Y-13520869D02*
X9587444Y-13501822D01*
X9587444Y-13501822D02*
X9577920Y-13492298D01*
X9577920Y-13492298D02*
X9558872Y-13482774D01*
X9558872Y-13482774D02*
X9520777Y-13482774D01*
X9520777Y-13482774D02*
X9501729Y-13492298D01*
X9501729Y-13492298D02*
X9492206Y-13501822D01*
X9492206Y-13501822D02*
X9482682Y-13520869D01*
X9768396Y-13406584D02*
X9730301Y-13406584D01*
X9730301Y-13406584D02*
X9711253Y-13416108D01*
X9711253Y-13416108D02*
X9701729Y-13425631D01*
X9701729Y-13425631D02*
X9682682Y-13454203D01*
X9682682Y-13454203D02*
X9673158Y-13492298D01*
X9673158Y-13492298D02*
X9673158Y-13568488D01*
X9673158Y-13568488D02*
X9682682Y-13587536D01*
X9682682Y-13587536D02*
X9692206Y-13597060D01*
X9692206Y-13597060D02*
X9711253Y-13606584D01*
X9711253Y-13606584D02*
X9749349Y-13606584D01*
X9749349Y-13606584D02*
X9768396Y-13597060D01*
X9768396Y-13597060D02*
X9777920Y-13587536D01*
X9777920Y-13587536D02*
X9787444Y-13568488D01*
X9787444Y-13568488D02*
X9787444Y-13520869D01*
X9787444Y-13520869D02*
X9777920Y-13501822D01*
X9777920Y-13501822D02*
X9768396Y-13492298D01*
X9768396Y-13492298D02*
X9749349Y-13482774D01*
X9749349Y-13482774D02*
X9711253Y-13482774D01*
X9711253Y-13482774D02*
X9692206Y-13492298D01*
X9692206Y-13492298D02*
X9682682Y-13501822D01*
X9682682Y-13501822D02*
X9673158Y-13520869D01*
X9863634Y-13406584D02*
X9863634Y-13444679D01*
X9939825Y-13406584D02*
X9939825Y-13444679D01*
X10235063Y-13682774D02*
X10225539Y-13673250D01*
X10225539Y-13673250D02*
X10206491Y-13644679D01*
X10206491Y-13644679D02*
X10196968Y-13625631D01*
X10196968Y-13625631D02*
X10187444Y-13597060D01*
X10187444Y-13597060D02*
X10177920Y-13549441D01*
X10177920Y-13549441D02*
X10177920Y-13511346D01*
X10177920Y-13511346D02*
X10187444Y-13463727D01*
X10187444Y-13463727D02*
X10196968Y-13435155D01*
X10196968Y-13435155D02*
X10206491Y-13416108D01*
X10206491Y-13416108D02*
X10225539Y-13387536D01*
X10225539Y-13387536D02*
X10235063Y-13378012D01*
X10339825Y-13492298D02*
X10320777Y-13482774D01*
X10320777Y-13482774D02*
X10311253Y-13473250D01*
X10311253Y-13473250D02*
X10301730Y-13454203D01*
X10301730Y-13454203D02*
X10301730Y-13444679D01*
X10301730Y-13444679D02*
X10311253Y-13425631D01*
X10311253Y-13425631D02*
X10320777Y-13416108D01*
X10320777Y-13416108D02*
X10339825Y-13406584D01*
X10339825Y-13406584D02*
X10377920Y-13406584D01*
X10377920Y-13406584D02*
X10396968Y-13416108D01*
X10396968Y-13416108D02*
X10406491Y-13425631D01*
X10406491Y-13425631D02*
X10416015Y-13444679D01*
X10416015Y-13444679D02*
X10416015Y-13454203D01*
X10416015Y-13454203D02*
X10406491Y-13473250D01*
X10406491Y-13473250D02*
X10396968Y-13482774D01*
X10396968Y-13482774D02*
X10377920Y-13492298D01*
X10377920Y-13492298D02*
X10339825Y-13492298D01*
X10339825Y-13492298D02*
X10320777Y-13501822D01*
X10320777Y-13501822D02*
X10311253Y-13511346D01*
X10311253Y-13511346D02*
X10301730Y-13530393D01*
X10301730Y-13530393D02*
X10301730Y-13568488D01*
X10301730Y-13568488D02*
X10311253Y-13587536D01*
X10311253Y-13587536D02*
X10320777Y-13597060D01*
X10320777Y-13597060D02*
X10339825Y-13606584D01*
X10339825Y-13606584D02*
X10377920Y-13606584D01*
X10377920Y-13606584D02*
X10396968Y-13597060D01*
X10396968Y-13597060D02*
X10406491Y-13587536D01*
X10406491Y-13587536D02*
X10416015Y-13568488D01*
X10416015Y-13568488D02*
X10416015Y-13530393D01*
X10416015Y-13530393D02*
X10406491Y-13511346D01*
X10406491Y-13511346D02*
X10396968Y-13501822D01*
X10396968Y-13501822D02*
X10377920Y-13492298D01*
X10654111Y-13606584D02*
X10654111Y-13406584D01*
X10739825Y-13606584D02*
X10739825Y-13501822D01*
X10739825Y-13501822D02*
X10730301Y-13482774D01*
X10730301Y-13482774D02*
X10711253Y-13473250D01*
X10711253Y-13473250D02*
X10682682Y-13473250D01*
X10682682Y-13473250D02*
X10663634Y-13482774D01*
X10663634Y-13482774D02*
X10654111Y-13492298D01*
X10863634Y-13606584D02*
X10844587Y-13597060D01*
X10844587Y-13597060D02*
X10835063Y-13587536D01*
X10835063Y-13587536D02*
X10825539Y-13568488D01*
X10825539Y-13568488D02*
X10825539Y-13511346D01*
X10825539Y-13511346D02*
X10835063Y-13492298D01*
X10835063Y-13492298D02*
X10844587Y-13482774D01*
X10844587Y-13482774D02*
X10863634Y-13473250D01*
X10863634Y-13473250D02*
X10892206Y-13473250D01*
X10892206Y-13473250D02*
X10911253Y-13482774D01*
X10911253Y-13482774D02*
X10920777Y-13492298D01*
X10920777Y-13492298D02*
X10930301Y-13511346D01*
X10930301Y-13511346D02*
X10930301Y-13568488D01*
X10930301Y-13568488D02*
X10920777Y-13587536D01*
X10920777Y-13587536D02*
X10911253Y-13597060D01*
X10911253Y-13597060D02*
X10892206Y-13606584D01*
X10892206Y-13606584D02*
X10863634Y-13606584D01*
X11044587Y-13606584D02*
X11025539Y-13597060D01*
X11025539Y-13597060D02*
X11016015Y-13578012D01*
X11016015Y-13578012D02*
X11016015Y-13406584D01*
X11196968Y-13597060D02*
X11177920Y-13606584D01*
X11177920Y-13606584D02*
X11139825Y-13606584D01*
X11139825Y-13606584D02*
X11120777Y-13597060D01*
X11120777Y-13597060D02*
X11111253Y-13578012D01*
X11111253Y-13578012D02*
X11111253Y-13501822D01*
X11111253Y-13501822D02*
X11120777Y-13482774D01*
X11120777Y-13482774D02*
X11139825Y-13473250D01*
X11139825Y-13473250D02*
X11177920Y-13473250D01*
X11177920Y-13473250D02*
X11196968Y-13482774D01*
X11196968Y-13482774D02*
X11206491Y-13501822D01*
X11206491Y-13501822D02*
X11206491Y-13520869D01*
X11206491Y-13520869D02*
X11111253Y-13539917D01*
X11282682Y-13597060D02*
X11301730Y-13606584D01*
X11301730Y-13606584D02*
X11339825Y-13606584D01*
X11339825Y-13606584D02*
X11358872Y-13597060D01*
X11358872Y-13597060D02*
X11368396Y-13578012D01*
X11368396Y-13578012D02*
X11368396Y-13568488D01*
X11368396Y-13568488D02*
X11358872Y-13549441D01*
X11358872Y-13549441D02*
X11339825Y-13539917D01*
X11339825Y-13539917D02*
X11311253Y-13539917D01*
X11311253Y-13539917D02*
X11292206Y-13530393D01*
X11292206Y-13530393D02*
X11282682Y-13511346D01*
X11282682Y-13511346D02*
X11282682Y-13501822D01*
X11282682Y-13501822D02*
X11292206Y-13482774D01*
X11292206Y-13482774D02*
X11311253Y-13473250D01*
X11311253Y-13473250D02*
X11339825Y-13473250D01*
X11339825Y-13473250D02*
X11358872Y-13482774D01*
X11435063Y-13682774D02*
X11444587Y-13673250D01*
X11444587Y-13673250D02*
X11463634Y-13644679D01*
X11463634Y-13644679D02*
X11473158Y-13625631D01*
X11473158Y-13625631D02*
X11482682Y-13597060D01*
X11482682Y-13597060D02*
X11492206Y-13549441D01*
X11492206Y-13549441D02*
X11492206Y-13511346D01*
X11492206Y-13511346D02*
X11482682Y-13463727D01*
X11482682Y-13463727D02*
X11473158Y-13435155D01*
X11473158Y-13435155D02*
X11463634Y-13416108D01*
X11463634Y-13416108D02*
X11444587Y-13387536D01*
X11444587Y-13387536D02*
X11435063Y-13378012D01*
X11796968Y-13682774D02*
X11787444Y-13673250D01*
X11787444Y-13673250D02*
X11768396Y-13644679D01*
X11768396Y-13644679D02*
X11758872Y-13625631D01*
X11758872Y-13625631D02*
X11749349Y-13597060D01*
X11749349Y-13597060D02*
X11739825Y-13549441D01*
X11739825Y-13549441D02*
X11739825Y-13511346D01*
X11739825Y-13511346D02*
X11749349Y-13463727D01*
X11749349Y-13463727D02*
X11758872Y-13435155D01*
X11758872Y-13435155D02*
X11768396Y-13416108D01*
X11768396Y-13416108D02*
X11787444Y-13387536D01*
X11787444Y-13387536D02*
X11796968Y-13378012D01*
X11873158Y-13473250D02*
X11873158Y-13606584D01*
X11873158Y-13492298D02*
X11882682Y-13482774D01*
X11882682Y-13482774D02*
X11901730Y-13473250D01*
X11901730Y-13473250D02*
X11930301Y-13473250D01*
X11930301Y-13473250D02*
X11949349Y-13482774D01*
X11949349Y-13482774D02*
X11958872Y-13501822D01*
X11958872Y-13501822D02*
X11958872Y-13606584D01*
X12082682Y-13606584D02*
X12063634Y-13597060D01*
X12063634Y-13597060D02*
X12054111Y-13587536D01*
X12054111Y-13587536D02*
X12044587Y-13568488D01*
X12044587Y-13568488D02*
X12044587Y-13511346D01*
X12044587Y-13511346D02*
X12054111Y-13492298D01*
X12054111Y-13492298D02*
X12063634Y-13482774D01*
X12063634Y-13482774D02*
X12082682Y-13473250D01*
X12082682Y-13473250D02*
X12111253Y-13473250D01*
X12111253Y-13473250D02*
X12130301Y-13482774D01*
X12130301Y-13482774D02*
X12139825Y-13492298D01*
X12139825Y-13492298D02*
X12149349Y-13511346D01*
X12149349Y-13511346D02*
X12149349Y-13568488D01*
X12149349Y-13568488D02*
X12139825Y-13587536D01*
X12139825Y-13587536D02*
X12130301Y-13597060D01*
X12130301Y-13597060D02*
X12111253Y-13606584D01*
X12111253Y-13606584D02*
X12082682Y-13606584D01*
X12206492Y-13473250D02*
X12282682Y-13473250D01*
X12235063Y-13406584D02*
X12235063Y-13578012D01*
X12235063Y-13578012D02*
X12244587Y-13597060D01*
X12244587Y-13597060D02*
X12263634Y-13606584D01*
X12263634Y-13606584D02*
X12282682Y-13606584D01*
X12501730Y-13473250D02*
X12501730Y-13673250D01*
X12501730Y-13482774D02*
X12520777Y-13473250D01*
X12520777Y-13473250D02*
X12558873Y-13473250D01*
X12558873Y-13473250D02*
X12577920Y-13482774D01*
X12577920Y-13482774D02*
X12587444Y-13492298D01*
X12587444Y-13492298D02*
X12596968Y-13511346D01*
X12596968Y-13511346D02*
X12596968Y-13568488D01*
X12596968Y-13568488D02*
X12587444Y-13587536D01*
X12587444Y-13587536D02*
X12577920Y-13597060D01*
X12577920Y-13597060D02*
X12558873Y-13606584D01*
X12558873Y-13606584D02*
X12520777Y-13606584D01*
X12520777Y-13606584D02*
X12501730Y-13597060D01*
X12711253Y-13606584D02*
X12692206Y-13597060D01*
X12692206Y-13597060D02*
X12682682Y-13578012D01*
X12682682Y-13578012D02*
X12682682Y-13406584D01*
X12873158Y-13606584D02*
X12873158Y-13501822D01*
X12873158Y-13501822D02*
X12863634Y-13482774D01*
X12863634Y-13482774D02*
X12844587Y-13473250D01*
X12844587Y-13473250D02*
X12806492Y-13473250D01*
X12806492Y-13473250D02*
X12787444Y-13482774D01*
X12873158Y-13597060D02*
X12854111Y-13606584D01*
X12854111Y-13606584D02*
X12806492Y-13606584D01*
X12806492Y-13606584D02*
X12787444Y-13597060D01*
X12787444Y-13597060D02*
X12777920Y-13578012D01*
X12777920Y-13578012D02*
X12777920Y-13558965D01*
X12777920Y-13558965D02*
X12787444Y-13539917D01*
X12787444Y-13539917D02*
X12806492Y-13530393D01*
X12806492Y-13530393D02*
X12854111Y-13530393D01*
X12854111Y-13530393D02*
X12873158Y-13520869D01*
X12939825Y-13473250D02*
X13016015Y-13473250D01*
X12968396Y-13406584D02*
X12968396Y-13578012D01*
X12968396Y-13578012D02*
X12977920Y-13597060D01*
X12977920Y-13597060D02*
X12996968Y-13606584D01*
X12996968Y-13606584D02*
X13016015Y-13606584D01*
X13158873Y-13597060D02*
X13139825Y-13606584D01*
X13139825Y-13606584D02*
X13101730Y-13606584D01*
X13101730Y-13606584D02*
X13082682Y-13597060D01*
X13082682Y-13597060D02*
X13073158Y-13578012D01*
X13073158Y-13578012D02*
X13073158Y-13501822D01*
X13073158Y-13501822D02*
X13082682Y-13482774D01*
X13082682Y-13482774D02*
X13101730Y-13473250D01*
X13101730Y-13473250D02*
X13139825Y-13473250D01*
X13139825Y-13473250D02*
X13158873Y-13482774D01*
X13158873Y-13482774D02*
X13168396Y-13501822D01*
X13168396Y-13501822D02*
X13168396Y-13520869D01*
X13168396Y-13520869D02*
X13073158Y-13539917D01*
X13339825Y-13606584D02*
X13339825Y-13406584D01*
X13339825Y-13597060D02*
X13320777Y-13606584D01*
X13320777Y-13606584D02*
X13282682Y-13606584D01*
X13282682Y-13606584D02*
X13263634Y-13597060D01*
X13263634Y-13597060D02*
X13254111Y-13587536D01*
X13254111Y-13587536D02*
X13244587Y-13568488D01*
X13244587Y-13568488D02*
X13244587Y-13511346D01*
X13244587Y-13511346D02*
X13254111Y-13492298D01*
X13254111Y-13492298D02*
X13263634Y-13482774D01*
X13263634Y-13482774D02*
X13282682Y-13473250D01*
X13282682Y-13473250D02*
X13320777Y-13473250D01*
X13320777Y-13473250D02*
X13339825Y-13482774D01*
X13416015Y-13682774D02*
X13425539Y-13673250D01*
X13425539Y-13673250D02*
X13444587Y-13644679D01*
X13444587Y-13644679D02*
X13454111Y-13625631D01*
X13454111Y-13625631D02*
X13463634Y-13597060D01*
X13463634Y-13597060D02*
X13473158Y-13549441D01*
X13473158Y-13549441D02*
X13473158Y-13511346D01*
X13473158Y-13511346D02*
X13463634Y-13463727D01*
X13463634Y-13463727D02*
X13454111Y-13435155D01*
X13454111Y-13435155D02*
X13444587Y-13416108D01*
X13444587Y-13416108D02*
X13425539Y-13387536D01*
X13425539Y-13387536D02*
X13416015Y-13378012D01*
X6560000Y-13935100D02*
X6660000Y-13835100D01*
X6560000Y-13735100D01*
X6460000Y-13835100D01*
X6560000Y-13935100D01*
X6901729Y-13726584D02*
X7025539Y-13726584D01*
X7025539Y-13726584D02*
X6958872Y-13802774D01*
X6958872Y-13802774D02*
X6987443Y-13802774D01*
X6987443Y-13802774D02*
X7006491Y-13812298D01*
X7006491Y-13812298D02*
X7016015Y-13821822D01*
X7016015Y-13821822D02*
X7025539Y-13840869D01*
X7025539Y-13840869D02*
X7025539Y-13888488D01*
X7025539Y-13888488D02*
X7016015Y-13907536D01*
X7016015Y-13907536D02*
X7006491Y-13917060D01*
X7006491Y-13917060D02*
X6987443Y-13926584D01*
X6987443Y-13926584D02*
X6930301Y-13926584D01*
X6930301Y-13926584D02*
X6911253Y-13917060D01*
X6911253Y-13917060D02*
X6901729Y-13907536D01*
X7111253Y-13907536D02*
X7120777Y-13917060D01*
X7120777Y-13917060D02*
X7111253Y-13926584D01*
X7111253Y-13926584D02*
X7101729Y-13917060D01*
X7101729Y-13917060D02*
X7111253Y-13907536D01*
X7111253Y-13907536D02*
X7111253Y-13926584D01*
X7196967Y-13745631D02*
X7206491Y-13736108D01*
X7206491Y-13736108D02*
X7225539Y-13726584D01*
X7225539Y-13726584D02*
X7273158Y-13726584D01*
X7273158Y-13726584D02*
X7292205Y-13736108D01*
X7292205Y-13736108D02*
X7301729Y-13745631D01*
X7301729Y-13745631D02*
X7311253Y-13764679D01*
X7311253Y-13764679D02*
X7311253Y-13783727D01*
X7311253Y-13783727D02*
X7301729Y-13812298D01*
X7301729Y-13812298D02*
X7187443Y-13926584D01*
X7187443Y-13926584D02*
X7311253Y-13926584D01*
X7435062Y-13726584D02*
X7454110Y-13726584D01*
X7454110Y-13726584D02*
X7473158Y-13736108D01*
X7473158Y-13736108D02*
X7482682Y-13745631D01*
X7482682Y-13745631D02*
X7492205Y-13764679D01*
X7492205Y-13764679D02*
X7501729Y-13802774D01*
X7501729Y-13802774D02*
X7501729Y-13850393D01*
X7501729Y-13850393D02*
X7492205Y-13888488D01*
X7492205Y-13888488D02*
X7482682Y-13907536D01*
X7482682Y-13907536D02*
X7473158Y-13917060D01*
X7473158Y-13917060D02*
X7454110Y-13926584D01*
X7454110Y-13926584D02*
X7435062Y-13926584D01*
X7435062Y-13926584D02*
X7416015Y-13917060D01*
X7416015Y-13917060D02*
X7406491Y-13907536D01*
X7406491Y-13907536D02*
X7396967Y-13888488D01*
X7396967Y-13888488D02*
X7387443Y-13850393D01*
X7387443Y-13850393D02*
X7387443Y-13802774D01*
X7387443Y-13802774D02*
X7396967Y-13764679D01*
X7396967Y-13764679D02*
X7406491Y-13745631D01*
X7406491Y-13745631D02*
X7416015Y-13736108D01*
X7416015Y-13736108D02*
X7435062Y-13726584D01*
X7625539Y-13726584D02*
X7644586Y-13726584D01*
X7644586Y-13726584D02*
X7663634Y-13736108D01*
X7663634Y-13736108D02*
X7673158Y-13745631D01*
X7673158Y-13745631D02*
X7682682Y-13764679D01*
X7682682Y-13764679D02*
X7692205Y-13802774D01*
X7692205Y-13802774D02*
X7692205Y-13850393D01*
X7692205Y-13850393D02*
X7682682Y-13888488D01*
X7682682Y-13888488D02*
X7673158Y-13907536D01*
X7673158Y-13907536D02*
X7663634Y-13917060D01*
X7663634Y-13917060D02*
X7644586Y-13926584D01*
X7644586Y-13926584D02*
X7625539Y-13926584D01*
X7625539Y-13926584D02*
X7606491Y-13917060D01*
X7606491Y-13917060D02*
X7596967Y-13907536D01*
X7596967Y-13907536D02*
X7587443Y-13888488D01*
X7587443Y-13888488D02*
X7577920Y-13850393D01*
X7577920Y-13850393D02*
X7577920Y-13802774D01*
X7577920Y-13802774D02*
X7587443Y-13764679D01*
X7587443Y-13764679D02*
X7596967Y-13745631D01*
X7596967Y-13745631D02*
X7606491Y-13736108D01*
X7606491Y-13736108D02*
X7625539Y-13726584D01*
X7777920Y-13926584D02*
X7777920Y-13793250D01*
X7777920Y-13812298D02*
X7787443Y-13802774D01*
X7787443Y-13802774D02*
X7806491Y-13793250D01*
X7806491Y-13793250D02*
X7835063Y-13793250D01*
X7835063Y-13793250D02*
X7854110Y-13802774D01*
X7854110Y-13802774D02*
X7863634Y-13821822D01*
X7863634Y-13821822D02*
X7863634Y-13926584D01*
X7863634Y-13821822D02*
X7873158Y-13802774D01*
X7873158Y-13802774D02*
X7892205Y-13793250D01*
X7892205Y-13793250D02*
X7920777Y-13793250D01*
X7920777Y-13793250D02*
X7939824Y-13802774D01*
X7939824Y-13802774D02*
X7949348Y-13821822D01*
X7949348Y-13821822D02*
X7949348Y-13926584D01*
X8044586Y-13926584D02*
X8044586Y-13793250D01*
X8044586Y-13812298D02*
X8054110Y-13802774D01*
X8054110Y-13802774D02*
X8073158Y-13793250D01*
X8073158Y-13793250D02*
X8101729Y-13793250D01*
X8101729Y-13793250D02*
X8120777Y-13802774D01*
X8120777Y-13802774D02*
X8130301Y-13821822D01*
X8130301Y-13821822D02*
X8130301Y-13926584D01*
X8130301Y-13821822D02*
X8139824Y-13802774D01*
X8139824Y-13802774D02*
X8158872Y-13793250D01*
X8158872Y-13793250D02*
X8187443Y-13793250D01*
X8187443Y-13793250D02*
X8206491Y-13802774D01*
X8206491Y-13802774D02*
X8216015Y-13821822D01*
X8216015Y-13821822D02*
X8216015Y-13926584D01*
X8606491Y-13717060D02*
X8435063Y-13974203D01*
X8863634Y-13726584D02*
X8882682Y-13726584D01*
X8882682Y-13726584D02*
X8901729Y-13736108D01*
X8901729Y-13736108D02*
X8911253Y-13745631D01*
X8911253Y-13745631D02*
X8920777Y-13764679D01*
X8920777Y-13764679D02*
X8930301Y-13802774D01*
X8930301Y-13802774D02*
X8930301Y-13850393D01*
X8930301Y-13850393D02*
X8920777Y-13888488D01*
X8920777Y-13888488D02*
X8911253Y-13907536D01*
X8911253Y-13907536D02*
X8901729Y-13917060D01*
X8901729Y-13917060D02*
X8882682Y-13926584D01*
X8882682Y-13926584D02*
X8863634Y-13926584D01*
X8863634Y-13926584D02*
X8844587Y-13917060D01*
X8844587Y-13917060D02*
X8835063Y-13907536D01*
X8835063Y-13907536D02*
X8825539Y-13888488D01*
X8825539Y-13888488D02*
X8816015Y-13850393D01*
X8816015Y-13850393D02*
X8816015Y-13802774D01*
X8816015Y-13802774D02*
X8825539Y-13764679D01*
X8825539Y-13764679D02*
X8835063Y-13745631D01*
X8835063Y-13745631D02*
X8844587Y-13736108D01*
X8844587Y-13736108D02*
X8863634Y-13726584D01*
X9016015Y-13907536D02*
X9025539Y-13917060D01*
X9025539Y-13917060D02*
X9016015Y-13926584D01*
X9016015Y-13926584D02*
X9006491Y-13917060D01*
X9006491Y-13917060D02*
X9016015Y-13907536D01*
X9016015Y-13907536D02*
X9016015Y-13926584D01*
X9216015Y-13926584D02*
X9101729Y-13926584D01*
X9158872Y-13926584D02*
X9158872Y-13726584D01*
X9158872Y-13726584D02*
X9139825Y-13755155D01*
X9139825Y-13755155D02*
X9120777Y-13774203D01*
X9120777Y-13774203D02*
X9101729Y-13783727D01*
X9292206Y-13745631D02*
X9301729Y-13736108D01*
X9301729Y-13736108D02*
X9320777Y-13726584D01*
X9320777Y-13726584D02*
X9368396Y-13726584D01*
X9368396Y-13726584D02*
X9387444Y-13736108D01*
X9387444Y-13736108D02*
X9396968Y-13745631D01*
X9396968Y-13745631D02*
X9406491Y-13764679D01*
X9406491Y-13764679D02*
X9406491Y-13783727D01*
X9406491Y-13783727D02*
X9396968Y-13812298D01*
X9396968Y-13812298D02*
X9282682Y-13926584D01*
X9282682Y-13926584D02*
X9406491Y-13926584D01*
X9577920Y-13726584D02*
X9539825Y-13726584D01*
X9539825Y-13726584D02*
X9520777Y-13736108D01*
X9520777Y-13736108D02*
X9511253Y-13745631D01*
X9511253Y-13745631D02*
X9492206Y-13774203D01*
X9492206Y-13774203D02*
X9482682Y-13812298D01*
X9482682Y-13812298D02*
X9482682Y-13888488D01*
X9482682Y-13888488D02*
X9492206Y-13907536D01*
X9492206Y-13907536D02*
X9501729Y-13917060D01*
X9501729Y-13917060D02*
X9520777Y-13926584D01*
X9520777Y-13926584D02*
X9558872Y-13926584D01*
X9558872Y-13926584D02*
X9577920Y-13917060D01*
X9577920Y-13917060D02*
X9587444Y-13907536D01*
X9587444Y-13907536D02*
X9596968Y-13888488D01*
X9596968Y-13888488D02*
X9596968Y-13840869D01*
X9596968Y-13840869D02*
X9587444Y-13821822D01*
X9587444Y-13821822D02*
X9577920Y-13812298D01*
X9577920Y-13812298D02*
X9558872Y-13802774D01*
X9558872Y-13802774D02*
X9520777Y-13802774D01*
X9520777Y-13802774D02*
X9501729Y-13812298D01*
X9501729Y-13812298D02*
X9492206Y-13821822D01*
X9492206Y-13821822D02*
X9482682Y-13840869D01*
X9720777Y-13726584D02*
X9739825Y-13726584D01*
X9739825Y-13726584D02*
X9758872Y-13736108D01*
X9758872Y-13736108D02*
X9768396Y-13745631D01*
X9768396Y-13745631D02*
X9777920Y-13764679D01*
X9777920Y-13764679D02*
X9787444Y-13802774D01*
X9787444Y-13802774D02*
X9787444Y-13850393D01*
X9787444Y-13850393D02*
X9777920Y-13888488D01*
X9777920Y-13888488D02*
X9768396Y-13907536D01*
X9768396Y-13907536D02*
X9758872Y-13917060D01*
X9758872Y-13917060D02*
X9739825Y-13926584D01*
X9739825Y-13926584D02*
X9720777Y-13926584D01*
X9720777Y-13926584D02*
X9701729Y-13917060D01*
X9701729Y-13917060D02*
X9692206Y-13907536D01*
X9692206Y-13907536D02*
X9682682Y-13888488D01*
X9682682Y-13888488D02*
X9673158Y-13850393D01*
X9673158Y-13850393D02*
X9673158Y-13802774D01*
X9673158Y-13802774D02*
X9682682Y-13764679D01*
X9682682Y-13764679D02*
X9692206Y-13745631D01*
X9692206Y-13745631D02*
X9701729Y-13736108D01*
X9701729Y-13736108D02*
X9720777Y-13726584D01*
X9863634Y-13726584D02*
X9863634Y-13764679D01*
X9939825Y-13726584D02*
X9939825Y-13764679D01*
X10235063Y-14002774D02*
X10225539Y-13993250D01*
X10225539Y-13993250D02*
X10206491Y-13964679D01*
X10206491Y-13964679D02*
X10196968Y-13945631D01*
X10196968Y-13945631D02*
X10187444Y-13917060D01*
X10187444Y-13917060D02*
X10177920Y-13869441D01*
X10177920Y-13869441D02*
X10177920Y-13831346D01*
X10177920Y-13831346D02*
X10187444Y-13783727D01*
X10187444Y-13783727D02*
X10196968Y-13755155D01*
X10196968Y-13755155D02*
X10206491Y-13736108D01*
X10206491Y-13736108D02*
X10225539Y-13707536D01*
X10225539Y-13707536D02*
X10235063Y-13698012D01*
X10292206Y-13726584D02*
X10425539Y-13726584D01*
X10425539Y-13726584D02*
X10339825Y-13926584D01*
X10654111Y-13926584D02*
X10654111Y-13726584D01*
X10739825Y-13926584D02*
X10739825Y-13821822D01*
X10739825Y-13821822D02*
X10730301Y-13802774D01*
X10730301Y-13802774D02*
X10711253Y-13793250D01*
X10711253Y-13793250D02*
X10682682Y-13793250D01*
X10682682Y-13793250D02*
X10663634Y-13802774D01*
X10663634Y-13802774D02*
X10654111Y-13812298D01*
X10863634Y-13926584D02*
X10844587Y-13917060D01*
X10844587Y-13917060D02*
X10835063Y-13907536D01*
X10835063Y-13907536D02*
X10825539Y-13888488D01*
X10825539Y-13888488D02*
X10825539Y-13831346D01*
X10825539Y-13831346D02*
X10835063Y-13812298D01*
X10835063Y-13812298D02*
X10844587Y-13802774D01*
X10844587Y-13802774D02*
X10863634Y-13793250D01*
X10863634Y-13793250D02*
X10892206Y-13793250D01*
X10892206Y-13793250D02*
X10911253Y-13802774D01*
X10911253Y-13802774D02*
X10920777Y-13812298D01*
X10920777Y-13812298D02*
X10930301Y-13831346D01*
X10930301Y-13831346D02*
X10930301Y-13888488D01*
X10930301Y-13888488D02*
X10920777Y-13907536D01*
X10920777Y-13907536D02*
X10911253Y-13917060D01*
X10911253Y-13917060D02*
X10892206Y-13926584D01*
X10892206Y-13926584D02*
X10863634Y-13926584D01*
X11044587Y-13926584D02*
X11025539Y-13917060D01*
X11025539Y-13917060D02*
X11016015Y-13898012D01*
X11016015Y-13898012D02*
X11016015Y-13726584D01*
X11196968Y-13917060D02*
X11177920Y-13926584D01*
X11177920Y-13926584D02*
X11139825Y-13926584D01*
X11139825Y-13926584D02*
X11120777Y-13917060D01*
X11120777Y-13917060D02*
X11111253Y-13898012D01*
X11111253Y-13898012D02*
X11111253Y-13821822D01*
X11111253Y-13821822D02*
X11120777Y-13802774D01*
X11120777Y-13802774D02*
X11139825Y-13793250D01*
X11139825Y-13793250D02*
X11177920Y-13793250D01*
X11177920Y-13793250D02*
X11196968Y-13802774D01*
X11196968Y-13802774D02*
X11206491Y-13821822D01*
X11206491Y-13821822D02*
X11206491Y-13840869D01*
X11206491Y-13840869D02*
X11111253Y-13859917D01*
X11282682Y-13917060D02*
X11301730Y-13926584D01*
X11301730Y-13926584D02*
X11339825Y-13926584D01*
X11339825Y-13926584D02*
X11358872Y-13917060D01*
X11358872Y-13917060D02*
X11368396Y-13898012D01*
X11368396Y-13898012D02*
X11368396Y-13888488D01*
X11368396Y-13888488D02*
X11358872Y-13869441D01*
X11358872Y-13869441D02*
X11339825Y-13859917D01*
X11339825Y-13859917D02*
X11311253Y-13859917D01*
X11311253Y-13859917D02*
X11292206Y-13850393D01*
X11292206Y-13850393D02*
X11282682Y-13831346D01*
X11282682Y-13831346D02*
X11282682Y-13821822D01*
X11282682Y-13821822D02*
X11292206Y-13802774D01*
X11292206Y-13802774D02*
X11311253Y-13793250D01*
X11311253Y-13793250D02*
X11339825Y-13793250D01*
X11339825Y-13793250D02*
X11358872Y-13802774D01*
X11435063Y-14002774D02*
X11444587Y-13993250D01*
X11444587Y-13993250D02*
X11463634Y-13964679D01*
X11463634Y-13964679D02*
X11473158Y-13945631D01*
X11473158Y-13945631D02*
X11482682Y-13917060D01*
X11482682Y-13917060D02*
X11492206Y-13869441D01*
X11492206Y-13869441D02*
X11492206Y-13831346D01*
X11492206Y-13831346D02*
X11482682Y-13783727D01*
X11482682Y-13783727D02*
X11473158Y-13755155D01*
X11473158Y-13755155D02*
X11463634Y-13736108D01*
X11463634Y-13736108D02*
X11444587Y-13707536D01*
X11444587Y-13707536D02*
X11435063Y-13698012D01*
X11796968Y-14002774D02*
X11787444Y-13993250D01*
X11787444Y-13993250D02*
X11768396Y-13964679D01*
X11768396Y-13964679D02*
X11758872Y-13945631D01*
X11758872Y-13945631D02*
X11749349Y-13917060D01*
X11749349Y-13917060D02*
X11739825Y-13869441D01*
X11739825Y-13869441D02*
X11739825Y-13831346D01*
X11739825Y-13831346D02*
X11749349Y-13783727D01*
X11749349Y-13783727D02*
X11758872Y-13755155D01*
X11758872Y-13755155D02*
X11768396Y-13736108D01*
X11768396Y-13736108D02*
X11787444Y-13707536D01*
X11787444Y-13707536D02*
X11796968Y-13698012D01*
X11873158Y-13793250D02*
X11873158Y-13926584D01*
X11873158Y-13812298D02*
X11882682Y-13802774D01*
X11882682Y-13802774D02*
X11901730Y-13793250D01*
X11901730Y-13793250D02*
X11930301Y-13793250D01*
X11930301Y-13793250D02*
X11949349Y-13802774D01*
X11949349Y-13802774D02*
X11958872Y-13821822D01*
X11958872Y-13821822D02*
X11958872Y-13926584D01*
X12082682Y-13926584D02*
X12063634Y-13917060D01*
X12063634Y-13917060D02*
X12054111Y-13907536D01*
X12054111Y-13907536D02*
X12044587Y-13888488D01*
X12044587Y-13888488D02*
X12044587Y-13831346D01*
X12044587Y-13831346D02*
X12054111Y-13812298D01*
X12054111Y-13812298D02*
X12063634Y-13802774D01*
X12063634Y-13802774D02*
X12082682Y-13793250D01*
X12082682Y-13793250D02*
X12111253Y-13793250D01*
X12111253Y-13793250D02*
X12130301Y-13802774D01*
X12130301Y-13802774D02*
X12139825Y-13812298D01*
X12139825Y-13812298D02*
X12149349Y-13831346D01*
X12149349Y-13831346D02*
X12149349Y-13888488D01*
X12149349Y-13888488D02*
X12139825Y-13907536D01*
X12139825Y-13907536D02*
X12130301Y-13917060D01*
X12130301Y-13917060D02*
X12111253Y-13926584D01*
X12111253Y-13926584D02*
X12082682Y-13926584D01*
X12206492Y-13793250D02*
X12282682Y-13793250D01*
X12235063Y-13726584D02*
X12235063Y-13898012D01*
X12235063Y-13898012D02*
X12244587Y-13917060D01*
X12244587Y-13917060D02*
X12263634Y-13926584D01*
X12263634Y-13926584D02*
X12282682Y-13926584D01*
X12501730Y-13793250D02*
X12501730Y-13993250D01*
X12501730Y-13802774D02*
X12520777Y-13793250D01*
X12520777Y-13793250D02*
X12558873Y-13793250D01*
X12558873Y-13793250D02*
X12577920Y-13802774D01*
X12577920Y-13802774D02*
X12587444Y-13812298D01*
X12587444Y-13812298D02*
X12596968Y-13831346D01*
X12596968Y-13831346D02*
X12596968Y-13888488D01*
X12596968Y-13888488D02*
X12587444Y-13907536D01*
X12587444Y-13907536D02*
X12577920Y-13917060D01*
X12577920Y-13917060D02*
X12558873Y-13926584D01*
X12558873Y-13926584D02*
X12520777Y-13926584D01*
X12520777Y-13926584D02*
X12501730Y-13917060D01*
X12711253Y-13926584D02*
X12692206Y-13917060D01*
X12692206Y-13917060D02*
X12682682Y-13898012D01*
X12682682Y-13898012D02*
X12682682Y-13726584D01*
X12873158Y-13926584D02*
X12873158Y-13821822D01*
X12873158Y-13821822D02*
X12863634Y-13802774D01*
X12863634Y-13802774D02*
X12844587Y-13793250D01*
X12844587Y-13793250D02*
X12806492Y-13793250D01*
X12806492Y-13793250D02*
X12787444Y-13802774D01*
X12873158Y-13917060D02*
X12854111Y-13926584D01*
X12854111Y-13926584D02*
X12806492Y-13926584D01*
X12806492Y-13926584D02*
X12787444Y-13917060D01*
X12787444Y-13917060D02*
X12777920Y-13898012D01*
X12777920Y-13898012D02*
X12777920Y-13878965D01*
X12777920Y-13878965D02*
X12787444Y-13859917D01*
X12787444Y-13859917D02*
X12806492Y-13850393D01*
X12806492Y-13850393D02*
X12854111Y-13850393D01*
X12854111Y-13850393D02*
X12873158Y-13840869D01*
X12939825Y-13793250D02*
X13016015Y-13793250D01*
X12968396Y-13726584D02*
X12968396Y-13898012D01*
X12968396Y-13898012D02*
X12977920Y-13917060D01*
X12977920Y-13917060D02*
X12996968Y-13926584D01*
X12996968Y-13926584D02*
X13016015Y-13926584D01*
X13158873Y-13917060D02*
X13139825Y-13926584D01*
X13139825Y-13926584D02*
X13101730Y-13926584D01*
X13101730Y-13926584D02*
X13082682Y-13917060D01*
X13082682Y-13917060D02*
X13073158Y-13898012D01*
X13073158Y-13898012D02*
X13073158Y-13821822D01*
X13073158Y-13821822D02*
X13082682Y-13802774D01*
X13082682Y-13802774D02*
X13101730Y-13793250D01*
X13101730Y-13793250D02*
X13139825Y-13793250D01*
X13139825Y-13793250D02*
X13158873Y-13802774D01*
X13158873Y-13802774D02*
X13168396Y-13821822D01*
X13168396Y-13821822D02*
X13168396Y-13840869D01*
X13168396Y-13840869D02*
X13073158Y-13859917D01*
X13339825Y-13926584D02*
X13339825Y-13726584D01*
X13339825Y-13917060D02*
X13320777Y-13926584D01*
X13320777Y-13926584D02*
X13282682Y-13926584D01*
X13282682Y-13926584D02*
X13263634Y-13917060D01*
X13263634Y-13917060D02*
X13254111Y-13907536D01*
X13254111Y-13907536D02*
X13244587Y-13888488D01*
X13244587Y-13888488D02*
X13244587Y-13831346D01*
X13244587Y-13831346D02*
X13254111Y-13812298D01*
X13254111Y-13812298D02*
X13263634Y-13802774D01*
X13263634Y-13802774D02*
X13282682Y-13793250D01*
X13282682Y-13793250D02*
X13320777Y-13793250D01*
X13320777Y-13793250D02*
X13339825Y-13802774D01*
X13416015Y-14002774D02*
X13425539Y-13993250D01*
X13425539Y-13993250D02*
X13444587Y-13964679D01*
X13444587Y-13964679D02*
X13454111Y-13945631D01*
X13454111Y-13945631D02*
X13463634Y-13917060D01*
X13463634Y-13917060D02*
X13473158Y-13869441D01*
X13473158Y-13869441D02*
X13473158Y-13831346D01*
X13473158Y-13831346D02*
X13463634Y-13783727D01*
X13463634Y-13783727D02*
X13454111Y-13755155D01*
X13454111Y-13755155D02*
X13444587Y-13736108D01*
X13444587Y-13736108D02*
X13425539Y-13707536D01*
X13425539Y-13707536D02*
X13416015Y-13698012D01*
M02*
