M48
; DRILL file {KiCad 7.0.9-39-g1740aeca5e} date 
; FORMAT={-:-/ absolute / inch / decimal}
; #@! TF.CreationDate,2023-11-27T00:53:53+01:00
; #@! TF.GenerationSoftware,Kicad,Pcbnew,7.0.9-39-g1740aeca5e
; #@! TF.FileFunction,NonPlated,1,2,NPTH
FMAT,2
INCH
; #@! TA.AperFunction,NonPlated,NPTH,ComponentDrill
T1C0.0197
; #@! TA.AperFunction,NonPlated,NPTH,ComponentDrill
T2C0.0472
; #@! TA.AperFunction,NonPlated,NPTH,ComponentDrill
T3C0.0709
; #@! TA.AperFunction,NonPlated,NPTH,ComponentDrill
T4C0.0866
; #@! TA.AperFunction,NonPlated,NPTH,ComponentDrill
T5C0.1260
%
G90
G05
T1
X2.9724Y-4.24
X3.0019Y-4.24
X3.0314Y-4.24
X3.0609Y-4.24
X3.0905Y-4.24
X3.12Y-4.24
X3.1495Y-4.24
X3.1791Y-4.24
X3.2086Y-4.24
X3.2381Y-4.24
X3.2676Y-4.24
X3.3519Y-4.24
X3.3814Y-4.24
X3.4109Y-4.24
X3.4405Y-4.24
X3.47Y-4.24
X3.4995Y-4.24
X3.5291Y-4.24
X3.5586Y-4.24
X3.5881Y-4.24
X3.6176Y-4.24
X3.6472Y-4.24
X3.7319Y-4.24
X3.7614Y-4.24
X3.7909Y-4.24
X3.8205Y-4.24
X3.85Y-4.24
X3.8795Y-4.24
X3.9091Y-4.24
X3.9386Y-4.24
X3.9681Y-4.24
X3.9976Y-4.24
X4.0272Y-4.24
X4.1119Y-4.24
X4.1414Y-4.24
X4.1709Y-4.24
X4.2005Y-4.24
X4.23Y-4.24
X4.2595Y-4.24
X4.2891Y-4.24
X4.3186Y-4.24
X4.3481Y-4.24
X4.3776Y-4.24
X4.4072Y-4.24
X4.4918Y-4.24
X4.5213Y-4.24
X4.5508Y-4.24
X4.5804Y-4.24
X4.6099Y-4.24
X4.6394Y-4.24
X4.6689Y-4.24
X4.6985Y-4.24
X4.728Y-4.24
X4.7575Y-4.24
X4.7871Y-4.24
X4.8718Y-4.24
X4.9013Y-4.24
X4.9308Y-4.24
X4.9604Y-4.24
X4.9899Y-4.24
X5.0194Y-4.24
X5.0489Y-4.24
X5.0785Y-4.24
X5.108Y-4.24
X5.1375Y-4.24
X5.1671Y-4.24
X5.2523Y-4.24
X5.2818Y-4.24
X5.3113Y-4.24
X5.3408Y-4.24
X5.3704Y-4.24
X5.3999Y-4.24
X5.4294Y-4.24
X5.4589Y-4.24
X5.4885Y-4.24
X5.518Y-4.24
X5.5475Y-4.24
X5.6323Y-4.24
X5.6618Y-4.24
X5.6913Y-4.24
X5.7208Y-4.24
X5.7504Y-4.24
X5.7799Y-4.24
X5.8094Y-4.24
X5.8389Y-4.24
X5.8685Y-4.24
X5.898Y-4.24
X5.9275Y-4.24
T2
X3.19Y-1.69
X3.6Y-1.69
X4.8931Y-1.5797
X4.8931Y-1.6781
X5.09Y-1.875
X5.2869Y-1.5797
X5.2869Y-1.6781
T3
X5.27Y-3.5428
X5.27Y-3.8972
T4
X3.12Y-4.64
X3.5Y-4.64
X3.88Y-4.64
X4.26Y-4.64
X4.64Y-4.64
X5.02Y-4.64
X5.4Y-4.64
X5.78Y-4.64
T5
X2.775Y-1.65
X2.775Y-4.08
X2.965Y-3.1919
X4.165Y-3.1894
X4.37Y-4.08
X6.15Y-1.65
X6.15Y-4.08
T0
M30
