G04 #@! TF.GenerationSoftware,KiCad,Pcbnew,7.0.9-39-g1740aeca5e*
G04 #@! TF.CreationDate,2023-11-27T00:53:47+01:00*
G04 #@! TF.ProjectId,Synkino,53796e6b-696e-46f2-9e6b-696361645f70,rev?*
G04 #@! TF.SameCoordinates,Original*
G04 #@! TF.FileFunction,Soldermask,Bot*
G04 #@! TF.FilePolarity,Negative*
%FSLAX46Y46*%
G04 Gerber Fmt 4.6, Leading zero omitted, Abs format (unit mm)*
G04 Created by KiCad (PCBNEW 7.0.9-39-g1740aeca5e) date 2023-11-27 00:53:47*
%MOMM*%
%LPD*%
G01*
G04 APERTURE LIST*
G04 Aperture macros list*
%AMFreePoly0*
4,1,19,0.500000,-0.750000,0.000000,-0.750000,0.000000,-0.744911,-0.071157,-0.744911,-0.207708,-0.704816,-0.327430,-0.627875,-0.420627,-0.520320,-0.479746,-0.390866,-0.500000,-0.250000,-0.500000,0.250000,-0.479746,0.390866,-0.420627,0.520320,-0.327430,0.627875,-0.207708,0.704816,-0.071157,0.744911,0.000000,0.744911,0.000000,0.750000,0.500000,0.750000,0.500000,-0.750000,0.500000,-0.750000,
$1*%
%AMFreePoly1*
4,1,19,0.000000,0.744911,0.071157,0.744911,0.207708,0.704816,0.327430,0.627875,0.420627,0.520320,0.479746,0.390866,0.500000,0.250000,0.500000,-0.250000,0.479746,-0.390866,0.420627,-0.520320,0.327430,-0.627875,0.207708,-0.704816,0.071157,-0.744911,0.000000,-0.744911,0.000000,-0.750000,-0.500000,-0.750000,-0.500000,0.750000,0.000000,0.750000,0.000000,0.744911,0.000000,0.744911,
$1*%
G04 Aperture macros list end*
%ADD10O,3.000000X2.000000*%
%ADD11O,1.700000X3.000000*%
%ADD12C,1.800000*%
%ADD13C,2.000000*%
%ADD14R,2.700000X3.700000*%
%ADD15C,1.524000*%
%ADD16R,1.700000X1.700000*%
%ADD17O,1.700000X1.700000*%
%ADD18R,1.500000X1.500000*%
%ADD19C,1.500000*%
%ADD20O,1.500000X2.500000*%
%ADD21O,2.500000X1.700000*%
%ADD22C,2.200000*%
%ADD23C,3.200000*%
%ADD24FreePoly0,90.000000*%
%ADD25FreePoly1,90.000000*%
G04 APERTURE END LIST*
D10*
X129286000Y-42625000D03*
D11*
X124286000Y-47625000D03*
X134286000Y-47625000D03*
D12*
X133858000Y-98988000D03*
X133858000Y-89988000D03*
D13*
X140108000Y-97028000D03*
X127608000Y-97028000D03*
X140108000Y-91948000D03*
X127608000Y-91948000D03*
X93178000Y-101488000D03*
X88178000Y-101488000D03*
X93178000Y-86988000D03*
X88178000Y-86988000D03*
X90678000Y-86988000D03*
D14*
X96378000Y-94488000D03*
X84978000Y-94488000D03*
D15*
X82804000Y-51054000D03*
X85344000Y-51054000D03*
X87884000Y-51054000D03*
X90424000Y-51054000D03*
X92964000Y-51054000D03*
X95504000Y-51054000D03*
X98044000Y-51054000D03*
D16*
X70358000Y-97790000D03*
D17*
X70358000Y-95250000D03*
X70358000Y-92710000D03*
X70358000Y-90170000D03*
X70358000Y-87630000D03*
X70358000Y-85090000D03*
D16*
X101092000Y-44450000D03*
D17*
X101092000Y-41910000D03*
X103632000Y-44450000D03*
X103632000Y-41910000D03*
X106172000Y-44450000D03*
X106172000Y-41910000D03*
D16*
X156524000Y-69325000D03*
D17*
X156524000Y-71865000D03*
X156524000Y-74405000D03*
X156524000Y-76945000D03*
X156524000Y-79485000D03*
X156524000Y-82025000D03*
D18*
X156524000Y-85983000D03*
X156524000Y-88483000D03*
X156524000Y-90983000D03*
X156524000Y-93483000D03*
X156524000Y-95983000D03*
X156524000Y-98483000D03*
D19*
X70358000Y-49530000D03*
X70358000Y-52070000D03*
X70358000Y-54610000D03*
X70358000Y-57150000D03*
D16*
X110744000Y-93218000D03*
D17*
X110744000Y-90678000D03*
X113284000Y-93218000D03*
X113284000Y-90678000D03*
X115824000Y-93218000D03*
X115824000Y-90678000D03*
D16*
X76708000Y-109728000D03*
D17*
X79248000Y-109728000D03*
X81788000Y-109728000D03*
D16*
X86360000Y-109728000D03*
D17*
X88900000Y-109728000D03*
X91440000Y-109728000D03*
D16*
X96012000Y-109728000D03*
D17*
X98552000Y-109728000D03*
X101092000Y-109728000D03*
D16*
X105664000Y-109728000D03*
D17*
X108204000Y-109728000D03*
X110744000Y-109728000D03*
D16*
X115316000Y-109728000D03*
D17*
X117856000Y-109728000D03*
X120396000Y-109728000D03*
D16*
X124968000Y-109728000D03*
D17*
X127508000Y-109728000D03*
X130048000Y-109728000D03*
D16*
X134620000Y-109728000D03*
D17*
X137160000Y-109728000D03*
X139700000Y-109728000D03*
D16*
X144272000Y-109728000D03*
D17*
X146812000Y-109728000D03*
X149352000Y-109728000D03*
D10*
X91440000Y-40526000D03*
D20*
X93290000Y-45426000D03*
X89590000Y-45426000D03*
D21*
X91440000Y-47426000D03*
D10*
X81026000Y-40526000D03*
D20*
X82876000Y-45426000D03*
X79176000Y-45426000D03*
D21*
X81026000Y-47426000D03*
D18*
X70358000Y-46990000D03*
X111760000Y-77470000D03*
X111760000Y-74930000D03*
X153924000Y-98552000D03*
X86106000Y-41656000D03*
X86233000Y-46101000D03*
D22*
X146812000Y-117856000D03*
X137160000Y-117856000D03*
X108204000Y-117856000D03*
D23*
X156210000Y-103632000D03*
D22*
X127508000Y-117856000D03*
D23*
X156210000Y-41910000D03*
X105791000Y-81010000D03*
X75311000Y-81073500D03*
X110998000Y-103632000D03*
D22*
X98552000Y-117856000D03*
D23*
X70485000Y-103632000D03*
D22*
X117856000Y-117856000D03*
X88900000Y-117856000D03*
D23*
X70485000Y-41910000D03*
D22*
X79248000Y-117856000D03*
D16*
X102357000Y-104140000D03*
D17*
X104897000Y-104140000D03*
D24*
X124714000Y-68468000D03*
D25*
X124714000Y-67168000D03*
M02*
