%TF.GenerationSoftware,KiCad,Pcbnew,4.0.7*%
%TF.CreationDate,2018-04-13T14:57:56+02:00*%
%TF.ProjectId,Synkino,53796E6B696E6F2E6B696361645F7063,rev?*%
%TF.FileFunction,Profile,NP*%
%FSLAX46Y46*%
G04 Gerber Fmt 4.6, Leading zero omitted, Abs format (unit mm)*
G04 Created by KiCad (PCBNEW 4.0.7) date 2018 April 13, Friday 14:57:56*
%MOMM*%
%LPD*%
G01*
G04 APERTURE LIST*
%ADD10C,0.100000*%
%ADD11C,0.150000*%
G04 APERTURE END LIST*
D10*
D11*
X72771000Y-107442000D02*
X74930000Y-107442000D01*
X151130000Y-107442000D02*
X153924000Y-107442000D01*
X70231000Y-38100000D02*
X75184000Y-38100000D01*
X83058000Y-120396000D02*
G75*
G03X83566000Y-119888000I0J508000D01*
G01*
X92710000Y-120396000D02*
G75*
G03X93218000Y-119888000I0J508000D01*
G01*
X102362000Y-120396000D02*
G75*
G03X102870000Y-119888000I0J508000D01*
G01*
X112014000Y-120396000D02*
G75*
G03X112522000Y-119888000I0J508000D01*
G01*
X121666000Y-120396000D02*
G75*
G03X122174000Y-119888000I0J508000D01*
G01*
X131318000Y-120396000D02*
G75*
G03X131826000Y-119888000I0J508000D01*
G01*
X140970000Y-120396000D02*
G75*
G03X141478000Y-119888000I0J508000D01*
G01*
X150622000Y-120396000D02*
G75*
G03X151130000Y-119888000I0J508000D01*
G01*
X142494000Y-119888000D02*
G75*
G03X143002000Y-120396000I508000J0D01*
G01*
X132842000Y-119888000D02*
G75*
G03X133350000Y-120396000I508000J0D01*
G01*
X123190000Y-119888000D02*
G75*
G03X123698000Y-120396000I508000J0D01*
G01*
X113538000Y-119888000D02*
G75*
G03X114046000Y-120396000I508000J0D01*
G01*
X103886000Y-119888000D02*
G75*
G03X104394000Y-120396000I508000J0D01*
G01*
X94234000Y-119888000D02*
G75*
G03X94742000Y-120396000I508000J0D01*
G01*
X84582000Y-119888000D02*
G75*
G03X85090000Y-120396000I508000J0D01*
G01*
X74930000Y-119888000D02*
G75*
G03X75438000Y-120396000I508000J0D01*
G01*
X75438000Y-120396000D02*
X83058000Y-120396000D01*
X153924000Y-107442000D02*
X156464000Y-107442000D01*
X151130000Y-119888000D02*
X151130000Y-107442000D01*
X143002000Y-120396000D02*
X150622000Y-120396000D01*
X142494000Y-107442000D02*
X142494000Y-119888000D01*
X141478000Y-107442000D02*
X142494000Y-107442000D01*
X141478000Y-119888000D02*
X141478000Y-107442000D01*
X133350000Y-120396000D02*
X140970000Y-120396000D01*
X132842000Y-107442000D02*
X132842000Y-119888000D01*
X131826000Y-107442000D02*
X132842000Y-107442000D01*
X131826000Y-119888000D02*
X131826000Y-107442000D01*
X123698000Y-120396000D02*
X131318000Y-120396000D01*
X123190000Y-107442000D02*
X123190000Y-119888000D01*
X122174000Y-107442000D02*
X123190000Y-107442000D01*
X122174000Y-119888000D02*
X122174000Y-107442000D01*
X114046000Y-120396000D02*
X121666000Y-120396000D01*
X113538000Y-107442000D02*
X113538000Y-119888000D01*
X112522000Y-107442000D02*
X113538000Y-107442000D01*
X112522000Y-119888000D02*
X112522000Y-107442000D01*
X104394000Y-120396000D02*
X112014000Y-120396000D01*
X103886000Y-107442000D02*
X103886000Y-119888000D01*
X102870000Y-107442000D02*
X103886000Y-107442000D01*
X102870000Y-119888000D02*
X102870000Y-107442000D01*
X94742000Y-120396000D02*
X102362000Y-120396000D01*
X94234000Y-107442000D02*
X94234000Y-119888000D01*
X93218000Y-107442000D02*
X94234000Y-107442000D01*
X93218000Y-119888000D02*
X93218000Y-107442000D01*
X85090000Y-120396000D02*
X92710000Y-120396000D01*
X84582000Y-107442000D02*
X84582000Y-119888000D01*
X83566000Y-107442000D02*
X84582000Y-107442000D01*
X83566000Y-107950000D02*
X83566000Y-107442000D01*
X83566000Y-119888000D02*
X83566000Y-107950000D01*
X74930000Y-107442000D02*
X74930000Y-119888000D01*
X70231000Y-107442000D02*
X72771000Y-107442000D01*
X66675000Y-103886000D02*
G75*
G03X70231000Y-107442000I3556000J0D01*
G01*
X70231000Y-38100000D02*
G75*
G03X66675000Y-41656000I0J-3556000D01*
G01*
X160020000Y-41656000D02*
G75*
G03X156464000Y-38100000I-3556000J0D01*
G01*
X156464000Y-107442000D02*
G75*
G03X160020000Y-103886000I0J3556000D01*
G01*
X66675000Y-41656000D02*
X66675000Y-103886000D01*
X160020000Y-41656000D02*
X160020000Y-103886000D01*
X127254000Y-38100000D02*
X75184000Y-38100000D01*
X131318000Y-38100000D02*
X156464000Y-38100000D01*
X131318000Y-39370000D02*
X131318000Y-38100000D01*
X127254000Y-39370000D02*
X131318000Y-39370000D01*
X127254000Y-38100000D02*
X127254000Y-39370000D01*
M02*
