M48
;DRILL file {KiCad 4.0.7} date 2018 March 16, Friday 18:10:10
;FORMAT={-:-/ absolute / inch / decimal}
FMAT,2
INCH,TZ
T1C0.016
T2C0.028
T3C0.030
T4C0.031
T5C0.039
T6C0.043
T7C0.047
T8C0.071
T9C0.087
T10C0.020
T11C0.047
T12C0.126
%
G90
G05
M72
T1
X2.92Y-2.62
X3.03Y-3.31
X3.11Y-2.85
X3.12Y-2.43
X3.12Y-4.64
X3.16Y-2.82
X3.16Y-2.88
X3.1908Y-2.1392
X3.2Y-1.91
X3.22Y-3.38
X3.23Y-3.7
X3.2996Y-2.4477
X3.3Y-2.48
X3.3Y-4.56
X3.36Y-2.25
X3.36Y-2.84
X3.4Y-2.88
X3.4Y-3.4
X3.41Y-4.03
X3.47Y-2.06
X3.4772Y-2.4298
X3.4839Y-2.373
X3.49Y-2.47
X3.5Y-4.64
X3.53Y-3.05
X3.55Y-2.64
X3.6Y-2.06
X3.6Y-3.35
X3.6025Y-2.6837
X3.61Y-2.19
X3.64Y-2.65
X3.65Y-2.53
X3.67Y-2.3039
X3.67Y-3.17
X3.67Y-3.34
X3.6764Y-2.6549
X3.68Y-4.56
X3.7154Y-3.16
X3.7161Y-2.43
X3.74Y-2.25
X3.75Y-2.57
X3.8Y-1.87
X3.8046Y-2.7591
X3.83Y-2.37
X3.83Y-2.51
X3.87Y-3.12
X3.88Y-4.64
X3.9Y-1.84
X3.9177Y-2.7769
X3.9354Y-2.5826
X3.96Y-1.94
X3.96Y-3.21
X4.06Y-4.56
X4.15Y-1.99
X4.2Y-2.61
X4.21Y-2.71
X4.2506Y-2.7406
X4.26Y-4.64
X4.27Y-2.64
X4.31Y-1.625
X4.32Y-2.67
X4.36Y-1.985
X4.36Y-2.65
X4.3688Y-2.6939
X4.44Y-4.56
X4.45Y-3.55
X4.48Y-2.665
X4.54Y-2.255
X4.55Y-3.68
X4.58Y-2.075
X4.59Y-3.52
X4.5941Y-2.9192
X4.64Y-4.64
X4.66Y-2.625
X4.66Y-2.94
X4.67Y-2.775
X4.74Y-2.94
X4.74Y-3.49
X4.74Y-3.54
X4.76Y-2.475
X4.774Y-2.635
X4.78Y-2.6955
X4.7873Y-2.1054
X4.79Y-2.9154
X4.81Y-2.825
X4.82Y-4.56
X4.85Y-2.625
X4.86Y-2.235
X4.86Y-2.825
X4.87Y-3.605
X4.88Y-3.345
X4.91Y-3.005
X4.93Y-2.815
X4.94Y-2.475
X4.95Y-2.745
X5.Y-3.08
X5.0083Y-2.7011
X5.01Y-2.385
X5.01Y-2.745
X5.01Y-2.825
X5.02Y-2.085
X5.02Y-4.64
X5.04Y-2.485
X5.04Y-2.895
X5.12Y-3.205
X5.135Y-3.365
X5.1394Y-2.7308
X5.14Y-2.695
X5.14Y-2.765
X5.17Y-4.07
X5.18Y-3.87
X5.2Y-4.56
X5.21Y-3.02
X5.22Y-3.175
X5.23Y-2.095
X5.23Y-2.475
X5.24Y-3.59
X5.243Y-2.405
X5.27Y-2.755
X5.27Y-2.825
X5.27Y-4.01
X5.29Y-3.115
X5.29Y-3.17
X5.31Y-3.84
X5.31Y-4.05
X5.34Y-3.83
X5.36Y-3.89
X5.3651Y-2.4045
X5.37Y-3.7
X5.39Y-2.4283
X5.395Y-2.755
X5.397Y-2.66
X5.4Y-2.95
X5.4Y-3.89
X5.4Y-4.64
X5.42Y-3.12
X5.48Y-3.64
X5.5Y-3.36
X5.52Y-3.145
X5.52Y-3.73
X5.5207Y-3.5994
X5.58Y-4.56
X5.5848Y-2.2892
X5.6Y-2.465
X5.612Y-2.8778
X5.62Y-2.28
X5.6309Y-3.2437
X5.6335Y-2.9417
X5.6339Y-2.9769
X5.6386Y-3.045
X5.6407Y-3.1392
X5.6558Y-2.4113
X5.6726Y-2.9028
X5.6891Y-2.8159
X5.7009Y-3.5234
X5.7029Y-3.4447
X5.7067Y-3.1063
X5.7085Y-3.251
X5.7332Y-3.3183
X5.7353Y-2.9087
X5.7391Y-2.2077
X5.75Y-2.385
X5.7521Y-3.13
X5.7578Y-3.2499
X5.78Y-3.94
X5.78Y-4.64
X5.79Y-2.805
X5.795Y-2.9801
X5.7994Y-2.9407
X5.8Y-2.28
X5.83Y-2.095
X5.85Y-2.4504
X5.8504Y-2.3835
X5.8546Y-3.2997
X5.87Y-2.2569
X5.8924Y-3.6444
X5.91Y-3.94
X5.92Y-2.64
X5.9495Y-2.7996
X5.9597Y-3.0234
X5.96Y-4.56
X5.9685Y-2.7504
X5.98Y-3.075
X5.9925Y-2.8371
X5.9946Y-2.895
X5.995Y-2.535
X6.0101Y-3.1049
X6.0163Y-3.1363
X6.0229Y-3.1697
X6.0486Y-2.9329
X6.06Y-2.65
X6.07Y-1.885
X6.075Y-2.015
X6.095Y-2.565
X6.2214Y-2.6801
T3
X3.26Y-2.01
X3.36Y-2.01
X3.46Y-2.01
X3.56Y-2.01
X3.66Y-2.01
X3.76Y-2.01
X3.86Y-2.01
T4
X2.92Y-1.85
X2.92Y-1.95
X2.92Y-2.05
X2.92Y-2.15
X2.92Y-2.25
X3.2Y-3.99
X4.1Y-3.59
X4.4Y-2.95
X4.4Y-3.05
X5.59Y-4.
X6.07Y-3.88
X6.1624Y-3.3852
X6.1624Y-3.4836
X6.1624Y-3.582
X6.1624Y-3.6804
X6.1624Y-3.7789
X6.1624Y-3.8773
T5
X2.96Y-3.35
X2.96Y-3.45
X2.96Y-3.55
X2.96Y-3.65
X2.96Y-3.75
X2.96Y-3.85
X3.13Y-4.32
X3.23Y-4.32
X3.33Y-4.32
X3.4716Y-3.4247
X3.4716Y-3.9956
X3.51Y-4.32
X3.57Y-3.4247
X3.61Y-4.32
X3.6684Y-3.4247
X3.6684Y-3.9956
X3.71Y-4.32
X3.89Y-4.32
X3.98Y-1.65
X3.98Y-1.75
X3.99Y-4.32
X4.08Y-1.65
X4.08Y-1.75
X4.09Y-4.32
X4.18Y-1.65
X4.18Y-1.75
X4.27Y-4.32
X4.37Y-4.32
X4.47Y-4.32
X4.65Y-4.32
X4.75Y-4.32
X4.85Y-4.32
X5.03Y-4.32
X5.13Y-4.32
X5.23Y-4.32
X5.32Y-3.38
X5.32Y-3.48
X5.32Y-3.58
X5.41Y-4.32
X5.42Y-3.38
X5.42Y-3.48
X5.42Y-3.58
X5.51Y-4.32
X5.61Y-3.42
X5.61Y-3.52
X5.61Y-4.32
X5.79Y-4.32
X5.89Y-4.32
X5.99Y-4.32
X6.1624Y-2.7293
X6.1624Y-2.8293
X6.1624Y-2.9293
X6.1624Y-3.0293
X6.1624Y-3.1293
X6.1624Y-3.2293
T6
X4.69Y-3.79
X4.69Y-3.9672
X4.9459Y-3.79
X4.9459Y-3.9672
X5.7141Y-3.79
X5.7141Y-3.9672
X5.97Y-3.79
X5.97Y-3.9672
T7
X4.4Y-4.05
X4.5Y-4.05
T9
X3.23Y-4.64
X3.61Y-4.64
X3.99Y-4.64
X4.37Y-4.64
X4.75Y-4.64
X5.13Y-4.64
X5.51Y-4.64
X5.89Y-4.64
T10
X3.0814Y-4.24
X3.1109Y-4.24
X3.1405Y-4.24
X3.17Y-4.24
X3.1995Y-4.24
X3.2291Y-4.24
X3.2586Y-4.24
X3.2881Y-4.24
X3.3176Y-4.24
X3.3472Y-4.24
X3.3767Y-4.24
X3.4633Y-4.24
X3.4928Y-4.24
X3.5224Y-4.24
X3.5519Y-4.24
X3.5814Y-4.24
X3.6109Y-4.24
X3.6405Y-4.24
X3.67Y-4.24
X3.6995Y-4.24
X3.7291Y-4.24
X3.7586Y-4.24
X3.8433Y-4.24
X3.8728Y-4.24
X3.9024Y-4.24
X3.9319Y-4.24
X3.9614Y-4.24
X3.9909Y-4.24
X4.0205Y-4.24
X4.05Y-4.24
X4.0795Y-4.24
X4.1091Y-4.24
X4.1386Y-4.24
X4.2233Y-4.24
X4.2528Y-4.24
X4.2824Y-4.24
X4.3119Y-4.24
X4.3414Y-4.24
X4.3709Y-4.24
X4.4005Y-4.24
X4.43Y-4.24
X4.4595Y-4.24
X4.4891Y-4.24
X4.5186Y-4.24
X4.6033Y-4.24
X4.6328Y-4.24
X4.6624Y-4.24
X4.6919Y-4.24
X4.7214Y-4.24
X4.7509Y-4.24
X4.7805Y-4.24
X4.81Y-4.24
X4.8395Y-4.24
X4.8691Y-4.24
X4.8986Y-4.24
X4.9833Y-4.24
X5.0128Y-4.24
X5.0424Y-4.24
X5.0719Y-4.24
X5.1014Y-4.24
X5.1309Y-4.24
X5.1605Y-4.24
X5.19Y-4.24
X5.2195Y-4.24
X5.2491Y-4.24
X5.2786Y-4.24
X5.3633Y-4.24
X5.3928Y-4.24
X5.4224Y-4.24
X5.4519Y-4.24
X5.4814Y-4.24
X5.5109Y-4.24
X5.5405Y-4.24
X5.57Y-4.24
X5.5995Y-4.24
X5.6291Y-4.24
X5.6586Y-4.24
X5.7433Y-4.24
X5.7728Y-4.24
X5.8024Y-4.24
X5.8319Y-4.24
X5.8614Y-4.24
X5.8909Y-4.24
X5.9205Y-4.24
X5.95Y-4.24
X5.9795Y-4.24
X6.0091Y-4.24
X6.0386Y-4.24
T11
X3.27Y-1.69
X3.68Y-1.69
X4.8931Y-1.5797
X4.8931Y-1.6781
X5.09Y-1.875
X5.2869Y-1.5797
X5.2869Y-1.6781
T12
X2.965Y-3.1525
X2.97Y-1.65
X2.97Y-4.08
X4.165Y-3.15
X6.15Y-1.65
X6.15Y-4.08
T2
X3.1972Y-1.7727G85X3.1972Y-1.8042
G05
X3.2543Y-1.5955G85X3.2857Y-1.5955
G05
X3.2543Y-1.8672G85X3.2857Y-1.8672
G05
X3.3428Y-1.7727G85X3.3428Y-1.8042
G05
X3.6072Y-1.7727G85X3.6072Y-1.8042
G05
X3.6643Y-1.5955G85X3.6957Y-1.5955
G05
X3.6643Y-1.8672G85X3.6957Y-1.8672
G05
X3.7528Y-1.7727G85X3.7528Y-1.8042
G05
T4
X4.8931Y-1.8612G85X4.8931Y-1.8888
G05
X4.9916Y-1.8612G85X4.9916Y-1.8888
G05
X5.0762Y-1.6781G85X5.1038Y-1.6781
G05
X5.1884Y-1.8612G85X5.1884Y-1.8888
G05
X5.2869Y-1.8612G85X5.2869Y-1.8888
G05
T8
X3.3456Y-3.7357G85X3.3456Y-3.7043
G05
X3.7944Y-3.7357G85X3.7944Y-3.7043
G05
T0
M30
