%TF.GenerationSoftware,KiCad,Pcbnew,4.0.7*%
%TF.CreationDate,2018-03-17T21:48:54+01:00*%
%TF.ProjectId,Synkino,53796E6B696E6F2E6B696361645F7063,rev?*%
%TF.FileFunction,Soldermask,Top*%
%FSLAX46Y46*%
G04 Gerber Fmt 4.6, Leading zero omitted, Abs format (unit mm)*
G04 Created by KiCad (PCBNEW 4.0.7) date 2018 March 17, Saturday 21:48:54*
%MOMM*%
%LPD*%
G01*
G04 APERTURE LIST*
%ADD10C,0.100000*%
%ADD11C,1.900000*%
%ADD12C,3.600000*%
%ADD13C,4.200000*%
%ADD14C,2.400000*%
%ADD15R,1.900000X1.650000*%
%ADD16R,1.650000X1.900000*%
%ADD17R,2.000000X3.000000*%
%ADD18R,3.000000X2.000000*%
%ADD19R,1.300000X1.200000*%
%ADD20R,1.700000X1.900000*%
%ADD21O,2.100000X3.400000*%
%ADD22O,3.400000X2.400000*%
%ADD23R,1.100000X1.600000*%
%ADD24R,1.400000X1.600000*%
%ADD25R,1.400000X1.200000*%
%ADD26R,1.400000X3.200000*%
%ADD27R,1.700000X2.300000*%
%ADD28R,1.000000X1.950000*%
%ADD29R,2.300000X1.200000*%
%ADD30R,1.900000X1.700000*%
%ADD31R,3.100000X4.100000*%
%ADD32R,2.000000X0.950000*%
%ADD33R,0.950000X2.000000*%
%ADD34R,1.000000X1.900000*%
%ADD35R,1.500000X1.000000*%
%ADD36R,1.700000X0.650000*%
%ADD37R,0.650000X1.700000*%
%ADD38R,1.960000X0.800000*%
%ADD39R,1.900000X1.600000*%
%ADD40R,2.100000X2.100000*%
%ADD41O,2.100000X2.100000*%
%ADD42R,2.800000X2.800000*%
%ADD43C,1.924000*%
%ADD44O,1.900000X2.900000*%
%ADD45O,2.900000X2.100000*%
%ADD46R,2.900000X1.400000*%
%ADD47R,4.400000X2.400000*%
%ADD48O,3.448000X2.127200*%
G04 APERTURE END LIST*
D10*
D11*
X154178000Y-98552000D03*
X125222000Y-104902000D03*
X141986000Y-101600000D03*
D12*
X75311000Y-80073500D03*
D13*
X149606000Y-117856000D03*
X139954000Y-117856000D03*
X130302000Y-117856000D03*
X120650000Y-117856000D03*
X110998000Y-117856000D03*
X101346000Y-117856000D03*
X91694000Y-117856000D03*
D12*
X105791000Y-80010000D03*
D14*
X151638000Y-96266000D03*
X151638000Y-100766000D03*
X145138000Y-96266000D03*
X145138000Y-100766000D03*
D12*
X156210000Y-103632000D03*
X75438000Y-103632000D03*
X75438000Y-41910000D03*
D15*
X83292000Y-60960000D03*
X80792000Y-60960000D03*
X129190000Y-101461000D03*
X131690000Y-101461000D03*
X134616000Y-104321000D03*
X137116000Y-104321000D03*
D16*
X106934000Y-47772000D03*
X106934000Y-50272000D03*
D15*
X104877000Y-90880000D03*
X102377000Y-90880000D03*
X142326000Y-104321000D03*
X139826000Y-104321000D03*
X106660000Y-59944000D03*
X104160000Y-59944000D03*
X106640000Y-56134000D03*
X104140000Y-56134000D03*
X129196000Y-104311000D03*
X131696000Y-104311000D03*
D16*
X122174000Y-89027000D03*
X122174000Y-91527000D03*
X125476000Y-89015000D03*
X125476000Y-91515000D03*
X125476000Y-82697000D03*
X125476000Y-85197000D03*
D17*
X155956000Y-53997000D03*
X155956000Y-50397000D03*
D16*
X119126000Y-82697000D03*
X119126000Y-85197000D03*
X153416000Y-63139000D03*
X153416000Y-65639000D03*
X129286000Y-84348000D03*
X129286000Y-86848000D03*
X125984000Y-52471000D03*
X125984000Y-54971000D03*
X122174000Y-82717000D03*
X122174000Y-85217000D03*
X128778000Y-52471000D03*
X128778000Y-54971000D03*
D15*
X157206000Y-46609000D03*
X154706000Y-46609000D03*
D16*
X120396000Y-52471000D03*
X120396000Y-54971000D03*
X115062000Y-77958000D03*
X115062000Y-75458000D03*
D17*
X113284000Y-61871000D03*
X113284000Y-58271000D03*
D16*
X117602000Y-54971000D03*
X117602000Y-52471000D03*
X131572000Y-54971000D03*
X131572000Y-52471000D03*
X125984000Y-58567000D03*
X125984000Y-61067000D03*
D15*
X131338000Y-64389000D03*
X133838000Y-64389000D03*
X88118000Y-76454000D03*
X85618000Y-76454000D03*
D16*
X134366000Y-58567000D03*
X134366000Y-61067000D03*
D15*
X77450000Y-67818000D03*
X74950000Y-67818000D03*
D17*
X112268000Y-71015000D03*
X112268000Y-67415000D03*
D16*
X116332000Y-67671000D03*
X116332000Y-65171000D03*
D15*
X129266000Y-76581000D03*
X126766000Y-76581000D03*
D16*
X132334000Y-69957000D03*
X132334000Y-67457000D03*
D18*
X117326000Y-42037000D03*
X120926000Y-42037000D03*
X117326000Y-47625000D03*
X120926000Y-47625000D03*
D16*
X116332000Y-72751000D03*
X116332000Y-70251000D03*
X123190000Y-61067000D03*
X123190000Y-58567000D03*
D15*
X144424000Y-69495000D03*
X141924000Y-69495000D03*
D17*
X115024000Y-81825000D03*
X115024000Y-85425000D03*
D16*
X147380000Y-92655000D03*
X147380000Y-90155000D03*
X151952000Y-92675000D03*
X151952000Y-90175000D03*
X141478000Y-95016000D03*
X141478000Y-97516000D03*
D19*
X109490000Y-89220000D03*
X109490000Y-91120000D03*
X111490000Y-90170000D03*
D20*
X97536000Y-41576000D03*
X97536000Y-44276000D03*
D21*
X131786000Y-47625000D03*
X134286000Y-47625000D03*
X126786000Y-47625000D03*
X124286000Y-47625000D03*
D22*
X129286000Y-42625000D03*
D23*
X142546000Y-54569000D03*
X143646000Y-54569000D03*
X144746000Y-54569000D03*
X145846000Y-54569000D03*
X146946000Y-54569000D03*
X148046000Y-54569000D03*
X149146000Y-54569000D03*
X150246000Y-54569000D03*
X151196000Y-54569000D03*
D24*
X140996000Y-54569000D03*
X152146000Y-50269000D03*
D25*
X152146000Y-44069000D03*
D26*
X152146000Y-39919000D03*
D27*
X138646000Y-39469000D03*
D28*
X135255000Y-100998000D03*
X136525000Y-100998000D03*
X137795000Y-100998000D03*
X139065000Y-100998000D03*
X139065000Y-95598000D03*
X137795000Y-95598000D03*
X136525000Y-95598000D03*
X135255000Y-95598000D03*
D29*
X74700000Y-63312000D03*
X74700000Y-65212000D03*
X77700000Y-64262000D03*
D20*
X156210000Y-60405000D03*
X156210000Y-57705000D03*
D30*
X105002000Y-87630000D03*
X102302000Y-87630000D03*
D20*
X156210000Y-65739000D03*
X156210000Y-63039000D03*
X138684000Y-67103000D03*
X138684000Y-69803000D03*
X137922000Y-57070000D03*
X137922000Y-59770000D03*
D30*
X104982000Y-94234000D03*
X102282000Y-94234000D03*
D20*
X129264000Y-89625000D03*
X129264000Y-92325000D03*
D30*
X84408000Y-80772000D03*
X81708000Y-80772000D03*
D20*
X115062000Y-88820000D03*
X115062000Y-91520000D03*
X118872000Y-88947000D03*
X118872000Y-91647000D03*
D30*
X96186000Y-80772000D03*
X98886000Y-80772000D03*
D20*
X101854000Y-51896000D03*
X101854000Y-49196000D03*
X153416000Y-57705000D03*
X153416000Y-60405000D03*
X123190000Y-52371000D03*
X123190000Y-55071000D03*
D30*
X122000000Y-79883000D03*
X119300000Y-79883000D03*
D20*
X128778000Y-58467000D03*
X128778000Y-61167000D03*
X120396000Y-58467000D03*
X120396000Y-61167000D03*
D30*
X74850000Y-60452000D03*
X77550000Y-60452000D03*
D20*
X132334000Y-72437000D03*
X132334000Y-75137000D03*
X117602000Y-61167000D03*
X117602000Y-58467000D03*
X131572000Y-61167000D03*
X131572000Y-58467000D03*
D30*
X83392000Y-64262000D03*
X80692000Y-64262000D03*
D20*
X114808000Y-52371000D03*
X114808000Y-55071000D03*
X112014000Y-52371000D03*
X112014000Y-55071000D03*
D30*
X83392000Y-67818000D03*
X80692000Y-67818000D03*
D20*
X134366000Y-52371000D03*
X134366000Y-55071000D03*
X135382000Y-67183000D03*
X135382000Y-69883000D03*
X113792000Y-43387000D03*
X113792000Y-40687000D03*
X110998000Y-43387000D03*
X110998000Y-40687000D03*
D30*
X96694000Y-72136000D03*
X99394000Y-72136000D03*
D20*
X78994000Y-119206000D03*
X78994000Y-116506000D03*
X88646000Y-119206000D03*
X88646000Y-116506000D03*
X98298000Y-119206000D03*
X98298000Y-116506000D03*
X104394000Y-116506000D03*
X104394000Y-119206000D03*
D30*
X135730000Y-74549000D03*
X138430000Y-74549000D03*
X135810000Y-77597000D03*
X138510000Y-77597000D03*
X135810000Y-80899000D03*
X138510000Y-80899000D03*
D14*
X93178000Y-101488000D03*
X93178000Y-86988000D03*
X90678000Y-86988000D03*
X88178000Y-86988000D03*
D31*
X96378000Y-94488000D03*
X84978000Y-94488000D03*
D14*
X88178000Y-101488000D03*
D32*
X95690000Y-64268000D03*
X95690000Y-63468000D03*
X95690000Y-62668000D03*
X95690000Y-61868000D03*
X95690000Y-61068000D03*
X95690000Y-60268000D03*
X95690000Y-59468000D03*
X95690000Y-58668000D03*
D33*
X94240000Y-57218000D03*
X93440000Y-57218000D03*
X92640000Y-57218000D03*
X91840000Y-57218000D03*
X91040000Y-57218000D03*
X90240000Y-57218000D03*
X89440000Y-57218000D03*
X88640000Y-57218000D03*
D32*
X87190000Y-58668000D03*
X87190000Y-59468000D03*
X87190000Y-60268000D03*
X87190000Y-61068000D03*
X87190000Y-61868000D03*
X87190000Y-62668000D03*
X87190000Y-63468000D03*
X87190000Y-64268000D03*
D33*
X88640000Y-65718000D03*
X89440000Y-65718000D03*
X90240000Y-65718000D03*
X91040000Y-65718000D03*
X91840000Y-65718000D03*
X92640000Y-65718000D03*
X93440000Y-65718000D03*
X94240000Y-65718000D03*
D34*
X149987000Y-59403000D03*
X148717000Y-59403000D03*
X147447000Y-59403000D03*
X146177000Y-59403000D03*
X144907000Y-59403000D03*
X143637000Y-59403000D03*
X142367000Y-59403000D03*
X141097000Y-59403000D03*
X141097000Y-64803000D03*
X142367000Y-64803000D03*
X143637000Y-64803000D03*
X144907000Y-64803000D03*
X146177000Y-64803000D03*
X147447000Y-64803000D03*
X148717000Y-64803000D03*
X149987000Y-64803000D03*
D35*
X131378000Y-81661000D03*
X131378000Y-80711000D03*
X131378000Y-79761000D03*
X128778000Y-80711000D03*
X128778000Y-81661000D03*
X128778000Y-79761000D03*
D34*
X82804000Y-70452000D03*
X81534000Y-70452000D03*
X80264000Y-70452000D03*
X78994000Y-70452000D03*
X77724000Y-70452000D03*
X76454000Y-70452000D03*
X75184000Y-70452000D03*
X75184000Y-75852000D03*
X76454000Y-75852000D03*
X77724000Y-75852000D03*
X78994000Y-75852000D03*
X80264000Y-75852000D03*
X81534000Y-75852000D03*
X82804000Y-75852000D03*
D36*
X120110000Y-65957000D03*
X120110000Y-66457000D03*
X120110000Y-66957000D03*
X120110000Y-67457000D03*
X120110000Y-67957000D03*
X120110000Y-68457000D03*
X120110000Y-68957000D03*
X120110000Y-69457000D03*
X120110000Y-69957000D03*
X120110000Y-70457000D03*
X120110000Y-70957000D03*
X120110000Y-71457000D03*
D37*
X121710000Y-73057000D03*
X122210000Y-73057000D03*
X122710000Y-73057000D03*
X123210000Y-73057000D03*
X123710000Y-73057000D03*
X124210000Y-73057000D03*
X124710000Y-73057000D03*
X125210000Y-73057000D03*
X125710000Y-73057000D03*
X126210000Y-73057000D03*
X126710000Y-73057000D03*
X127210000Y-73057000D03*
D36*
X128810000Y-71457000D03*
X128810000Y-70957000D03*
X128810000Y-70457000D03*
X128810000Y-69957000D03*
X128810000Y-69457000D03*
X128810000Y-68957000D03*
X128810000Y-68457000D03*
X128810000Y-67957000D03*
X128810000Y-67457000D03*
X128810000Y-66957000D03*
X128810000Y-66457000D03*
X128810000Y-65957000D03*
D37*
X127210000Y-64357000D03*
X126710000Y-64357000D03*
X126210000Y-64357000D03*
X125710000Y-64357000D03*
X125210000Y-64357000D03*
X124710000Y-64357000D03*
X124210000Y-64357000D03*
X123710000Y-64357000D03*
X123210000Y-64357000D03*
X122710000Y-64357000D03*
X122210000Y-64357000D03*
X121710000Y-64357000D03*
D38*
X110918000Y-47153000D03*
X110918000Y-47803000D03*
X110918000Y-48463000D03*
X110918000Y-49113000D03*
X113618000Y-49113000D03*
X113618000Y-48463000D03*
X113618000Y-47803000D03*
X113618000Y-47153000D03*
D39*
X80042000Y-112284000D03*
X84042000Y-112284000D03*
X84042000Y-114284000D03*
X80042000Y-114284000D03*
D33*
X143250000Y-81339000D03*
X144050000Y-81339000D03*
X144850000Y-81339000D03*
X145650000Y-81339000D03*
X146450000Y-81339000D03*
X147250000Y-81339000D03*
X148050000Y-81339000D03*
X148850000Y-81339000D03*
D32*
X150300000Y-79889000D03*
X150300000Y-79089000D03*
X150300000Y-78289000D03*
X150300000Y-77489000D03*
X150300000Y-76689000D03*
X150300000Y-75889000D03*
X150300000Y-75089000D03*
X150300000Y-74289000D03*
D33*
X148850000Y-72839000D03*
X148050000Y-72839000D03*
X147250000Y-72839000D03*
X146450000Y-72839000D03*
X145650000Y-72839000D03*
X144850000Y-72839000D03*
X144050000Y-72839000D03*
X143250000Y-72839000D03*
D32*
X141800000Y-74289000D03*
X141800000Y-75089000D03*
X141800000Y-75889000D03*
X141800000Y-76689000D03*
X141800000Y-77489000D03*
X141800000Y-78289000D03*
X141800000Y-79089000D03*
X141800000Y-79889000D03*
D39*
X99314000Y-112268000D03*
X103314000Y-112268000D03*
X103314000Y-114268000D03*
X99314000Y-114268000D03*
D40*
X75184000Y-85090000D03*
D41*
X75184000Y-87630000D03*
X75184000Y-90170000D03*
X75184000Y-92710000D03*
X75184000Y-95250000D03*
X75184000Y-97790000D03*
D40*
X101092000Y-44450000D03*
D41*
X101092000Y-41910000D03*
X103632000Y-44450000D03*
X103632000Y-41910000D03*
X106172000Y-44450000D03*
X106172000Y-41910000D03*
D40*
X156524000Y-69325000D03*
D41*
X156524000Y-71865000D03*
X156524000Y-74405000D03*
X156524000Y-76945000D03*
X156524000Y-79485000D03*
X156524000Y-82025000D03*
D42*
X100076000Y-60416000D03*
X100076000Y-55916000D03*
X122900000Y-76835000D03*
X118400000Y-76835000D03*
X147392000Y-86741000D03*
X151892000Y-86741000D03*
D11*
X156524000Y-85983000D03*
X156524000Y-88483000D03*
X156524000Y-90983000D03*
X156524000Y-93483000D03*
X156524000Y-95983000D03*
X156524000Y-98483000D03*
X74168000Y-49530000D03*
X74168000Y-52070000D03*
X74168000Y-54610000D03*
X74168000Y-57150000D03*
X74168000Y-46990000D03*
D12*
X156210000Y-41910000D03*
D40*
X142494000Y-86868000D03*
D41*
X142494000Y-89408000D03*
D40*
X135128000Y-85852000D03*
D41*
X137668000Y-85852000D03*
X135128000Y-88392000D03*
X137668000Y-88392000D03*
X135128000Y-90932000D03*
X137668000Y-90932000D03*
D43*
X82804000Y-51054000D03*
X85344000Y-51054000D03*
X87884000Y-51054000D03*
X90424000Y-51054000D03*
X92964000Y-51054000D03*
X95504000Y-51054000D03*
X98044000Y-51054000D03*
D40*
X79502000Y-109728000D03*
D41*
X82042000Y-109728000D03*
X84582000Y-109728000D03*
D40*
X89154000Y-109728000D03*
D41*
X91694000Y-109728000D03*
X94234000Y-109728000D03*
D40*
X98806000Y-109728000D03*
D41*
X101346000Y-109728000D03*
X103886000Y-109728000D03*
D40*
X108458000Y-109728000D03*
D41*
X110998000Y-109728000D03*
X113538000Y-109728000D03*
D40*
X118110000Y-109728000D03*
D41*
X120650000Y-109728000D03*
X123190000Y-109728000D03*
D40*
X127762000Y-109728000D03*
D41*
X130302000Y-109728000D03*
X132842000Y-109728000D03*
D40*
X137414000Y-109728000D03*
D41*
X139954000Y-109728000D03*
X142494000Y-109728000D03*
D40*
X147066000Y-109728000D03*
D41*
X149606000Y-109728000D03*
X152146000Y-109728000D03*
D20*
X85090000Y-116506000D03*
X85090000Y-119206000D03*
X94742000Y-116506000D03*
X94742000Y-119206000D03*
X107950000Y-119206000D03*
X107950000Y-116506000D03*
X114046000Y-116506000D03*
X114046000Y-119206000D03*
X117602000Y-119206000D03*
X117602000Y-116506000D03*
X127254000Y-119206000D03*
X127254000Y-116506000D03*
X123698000Y-116506000D03*
X123698000Y-119206000D03*
X133350000Y-116506000D03*
X133350000Y-119206000D03*
X136906000Y-119206000D03*
X136906000Y-116506000D03*
X143002000Y-116506000D03*
X143002000Y-119206000D03*
X146558000Y-119206000D03*
X146558000Y-116506000D03*
X152654000Y-116426000D03*
X152654000Y-119126000D03*
D39*
X89662000Y-112268000D03*
X93662000Y-112268000D03*
X93662000Y-114268000D03*
X89662000Y-114268000D03*
X108966000Y-112268000D03*
X112966000Y-112268000D03*
X112966000Y-114268000D03*
X108966000Y-114268000D03*
X118618000Y-112268000D03*
X122618000Y-112268000D03*
X122618000Y-114268000D03*
X118618000Y-114268000D03*
X128302000Y-112268000D03*
X132302000Y-112268000D03*
X132302000Y-114268000D03*
X128302000Y-114268000D03*
X137922000Y-112268000D03*
X141922000Y-112268000D03*
X141922000Y-114268000D03*
X137922000Y-114268000D03*
X147574000Y-112268000D03*
X151574000Y-112268000D03*
X151574000Y-114268000D03*
X147574000Y-114268000D03*
D20*
X87122000Y-41576000D03*
X87122000Y-44276000D03*
D44*
X95322000Y-45426000D03*
X91622000Y-45426000D03*
D45*
X93472000Y-47426000D03*
D22*
X93472000Y-40526000D03*
D30*
X86280000Y-70358000D03*
X88980000Y-70358000D03*
D44*
X84908000Y-45426000D03*
X81208000Y-45426000D03*
D45*
X83058000Y-47426000D03*
D22*
X83058000Y-40526000D03*
D13*
X82042000Y-117856000D03*
D11*
X81280000Y-101346000D03*
X111760000Y-77470000D03*
X111760000Y-74930000D03*
D46*
X132420000Y-99036000D03*
X132420000Y-97536000D03*
X132420000Y-96036000D03*
D47*
X128460000Y-97536000D03*
D10*
G36*
X130235000Y-96336000D02*
X131385000Y-96836000D01*
X131385000Y-98236000D01*
X130235000Y-98736000D01*
X130235000Y-96336000D01*
X130235000Y-96336000D01*
G37*
D48*
X122228000Y-96520000D03*
X122228000Y-101520000D03*
X109728000Y-96520000D03*
X109728000Y-101520000D03*
D40*
X104902000Y-104140000D03*
D41*
X102362000Y-104140000D03*
M02*
