G04 #@! TF.GenerationSoftware,KiCad,Pcbnew,7.0.9-39-g1740aeca5e*
G04 #@! TF.CreationDate,2023-11-27T00:53:47+01:00*
G04 #@! TF.ProjectId,Synkino,53796e6b-696e-46f2-9e6b-696361645f70,rev?*
G04 #@! TF.SameCoordinates,Original*
G04 #@! TF.FileFunction,Soldermask,Top*
G04 #@! TF.FilePolarity,Negative*
%FSLAX46Y46*%
G04 Gerber Fmt 4.6, Leading zero omitted, Abs format (unit mm)*
G04 Created by KiCad (PCBNEW 7.0.9-39-g1740aeca5e) date 2023-11-27 00:53:47*
%MOMM*%
%LPD*%
G01*
G04 APERTURE LIST*
G04 Aperture macros list*
%AMRoundRect*
0 Rectangle with rounded corners*
0 $1 Rounding radius*
0 $2 $3 $4 $5 $6 $7 $8 $9 X,Y pos of 4 corners*
0 Add a 4 corners polygon primitive as box body*
4,1,4,$2,$3,$4,$5,$6,$7,$8,$9,$2,$3,0*
0 Add four circle primitives for the rounded corners*
1,1,$1+$1,$2,$3*
1,1,$1+$1,$4,$5*
1,1,$1+$1,$6,$7*
1,1,$1+$1,$8,$9*
0 Add four rect primitives between the rounded corners*
20,1,$1+$1,$2,$3,$4,$5,0*
20,1,$1+$1,$4,$5,$6,$7,0*
20,1,$1+$1,$6,$7,$8,$9,0*
20,1,$1+$1,$8,$9,$2,$3,0*%
%AMFreePoly0*
4,1,9,3.862500,-0.866500,0.737500,-0.866500,0.737500,-0.450000,-0.737500,-0.450000,-0.737500,0.450000,0.737500,0.450000,0.737500,0.866500,3.862500,0.866500,3.862500,-0.866500,3.862500,-0.866500,$1*%
G04 Aperture macros list end*
%ADD10RoundRect,0.250000X0.250000X0.475000X-0.250000X0.475000X-0.250000X-0.475000X0.250000X-0.475000X0*%
%ADD11RoundRect,0.250000X-0.250000X-0.475000X0.250000X-0.475000X0.250000X0.475000X-0.250000X0.475000X0*%
%ADD12RoundRect,0.250000X-0.475000X0.250000X-0.475000X-0.250000X0.475000X-0.250000X0.475000X0.250000X0*%
%ADD13RoundRect,0.250000X0.550000X-1.050000X0.550000X1.050000X-0.550000X1.050000X-0.550000X-1.050000X0*%
%ADD14RoundRect,0.225000X-0.250000X0.225000X-0.250000X-0.225000X0.250000X-0.225000X0.250000X0.225000X0*%
%ADD15RoundRect,0.250000X0.475000X-0.250000X0.475000X0.250000X-0.475000X0.250000X-0.475000X-0.250000X0*%
%ADD16RoundRect,0.250000X-1.050000X-0.550000X1.050000X-0.550000X1.050000X0.550000X-1.050000X0.550000X0*%
%ADD17RoundRect,0.243750X-0.456250X0.243750X-0.456250X-0.243750X0.456250X-0.243750X0.456250X0.243750X0*%
%ADD18O,3.000000X2.000000*%
%ADD19O,1.700000X3.000000*%
%ADD20R,0.700000X1.200000*%
%ADD21R,1.000000X1.200000*%
%ADD22R,1.000000X0.800000*%
%ADD23R,1.000000X2.800000*%
%ADD24R,1.300000X1.900000*%
%ADD25RoundRect,0.150000X0.150000X-0.825000X0.150000X0.825000X-0.150000X0.825000X-0.150000X-0.825000X0*%
%ADD26RoundRect,0.150000X-0.587500X-0.150000X0.587500X-0.150000X0.587500X0.150000X-0.587500X0.150000X0*%
%ADD27RoundRect,0.250000X0.450000X-0.262500X0.450000X0.262500X-0.450000X0.262500X-0.450000X-0.262500X0*%
%ADD28RoundRect,0.250000X0.262500X0.450000X-0.262500X0.450000X-0.262500X-0.450000X0.262500X-0.450000X0*%
%ADD29RoundRect,0.250000X-0.262500X-0.450000X0.262500X-0.450000X0.262500X0.450000X-0.262500X0.450000X0*%
%ADD30RoundRect,0.250000X-0.450000X0.262500X-0.450000X-0.262500X0.450000X-0.262500X0.450000X0.262500X0*%
%ADD31RoundRect,0.200000X0.275000X-0.200000X0.275000X0.200000X-0.275000X0.200000X-0.275000X-0.200000X0*%
%ADD32RoundRect,0.135000X0.185000X-0.135000X0.185000X0.135000X-0.185000X0.135000X-0.185000X-0.135000X0*%
%ADD33C,1.800000*%
%ADD34C,2.000000*%
%ADD35R,2.700000X3.700000*%
%ADD36R,1.700000X1.000000*%
%ADD37R,1.300000X0.900000*%
%ADD38FreePoly0,180.000000*%
%ADD39R,1.600000X0.550000*%
%ADD40R,0.550000X1.600000*%
%ADD41RoundRect,0.150000X-0.150000X0.825000X-0.150000X-0.825000X0.150000X-0.825000X0.150000X0.825000X0*%
%ADD42C,1.524000*%
%ADD43R,1.100000X0.600000*%
%ADD44RoundRect,0.075000X-0.662500X-0.075000X0.662500X-0.075000X0.662500X0.075000X-0.662500X0.075000X0*%
%ADD45RoundRect,0.075000X-0.075000X-0.662500X0.075000X-0.662500X0.075000X0.662500X-0.075000X0.662500X0*%
%ADD46RoundRect,0.100000X-0.712500X-0.100000X0.712500X-0.100000X0.712500X0.100000X-0.712500X0.100000X0*%
%ADD47R,1.200000X0.700000*%
%ADD48R,1.700000X1.700000*%
%ADD49O,1.700000X1.700000*%
%ADD50R,2.400000X2.400000*%
%ADD51R,1.500000X1.500000*%
%ADD52C,1.500000*%
%ADD53O,1.500000X2.500000*%
%ADD54O,2.500000X1.700000*%
%ADD55RoundRect,0.150000X0.150000X-0.587500X0.150000X0.587500X-0.150000X0.587500X-0.150000X-0.587500X0*%
%ADD56R,2.500000X2.500000*%
%ADD57RoundRect,0.150000X-0.825000X-0.150000X0.825000X-0.150000X0.825000X0.150000X-0.825000X0.150000X0*%
%ADD58C,2.200000*%
%ADD59C,3.200000*%
G04 APERTURE END LIST*
D10*
X82992000Y-60960000D03*
X81092000Y-60960000D03*
D11*
X117414000Y-103632000D03*
X119314000Y-103632000D03*
D10*
X137622000Y-86360000D03*
X135722000Y-86360000D03*
X106868000Y-47752000D03*
X104968000Y-47752000D03*
X104577000Y-74243000D03*
X102677000Y-74243000D03*
D12*
X124714000Y-98618000D03*
X124714000Y-100518000D03*
D10*
X106360000Y-59944000D03*
X104460000Y-59944000D03*
X106340000Y-56134000D03*
X104440000Y-56134000D03*
X132014000Y-86360000D03*
X130114000Y-86360000D03*
X124648000Y-103632000D03*
X122748000Y-103632000D03*
D12*
X117856000Y-98618000D03*
X117856000Y-100518000D03*
X125603000Y-80203000D03*
X125603000Y-82103000D03*
D13*
X156718000Y-60982000D03*
X156718000Y-57382000D03*
D14*
X119126000Y-83172000D03*
X119126000Y-84722000D03*
D12*
X150876000Y-63693000D03*
X150876000Y-65593000D03*
X121158000Y-98618000D03*
X121158000Y-100518000D03*
X125984000Y-52771000D03*
X125984000Y-54671000D03*
D14*
X122174000Y-83172000D03*
X122174000Y-84722000D03*
D12*
X128778000Y-52771000D03*
X128778000Y-54671000D03*
X156591000Y-63693000D03*
X156591000Y-65593000D03*
X120396000Y-52771000D03*
X120396000Y-54671000D03*
D15*
X115062000Y-77658000D03*
X115062000Y-75758000D03*
D13*
X113284000Y-61871000D03*
X113284000Y-58271000D03*
D15*
X117602000Y-54671000D03*
X117602000Y-52771000D03*
X131572000Y-54671000D03*
X131572000Y-52771000D03*
D12*
X125984000Y-58867000D03*
X125984000Y-60767000D03*
D11*
X131638000Y-64389000D03*
X133538000Y-64389000D03*
D10*
X87818000Y-76454000D03*
X85918000Y-76454000D03*
D12*
X134366000Y-58867000D03*
X134366000Y-60767000D03*
D10*
X77150000Y-67818000D03*
X75250000Y-67818000D03*
D13*
X112268000Y-71015000D03*
X112268000Y-67415000D03*
D15*
X116332000Y-67371000D03*
X116332000Y-65471000D03*
D10*
X128966000Y-76581000D03*
X127066000Y-76581000D03*
D15*
X132334000Y-69657000D03*
X132334000Y-67757000D03*
D16*
X117326000Y-42037000D03*
X120926000Y-42037000D03*
X117326000Y-47625000D03*
X120926000Y-47625000D03*
D15*
X116332000Y-72451000D03*
X116332000Y-70551000D03*
X123190000Y-60767000D03*
X123190000Y-58867000D03*
D10*
X144124000Y-69342000D03*
X142224000Y-69342000D03*
D13*
X115024000Y-85425000D03*
X115024000Y-81825000D03*
D15*
X147380000Y-92355000D03*
X147380000Y-90455000D03*
X151952000Y-92375000D03*
X151952000Y-90475000D03*
D12*
X143002000Y-90490000D03*
X143002000Y-92390000D03*
D17*
X97536000Y-41988500D03*
X97536000Y-43863500D03*
D18*
X129286000Y-42625000D03*
D19*
X124286000Y-47625000D03*
X134286000Y-47625000D03*
D20*
X142563000Y-54794000D03*
X143663000Y-54794000D03*
X144763000Y-54794000D03*
X145863000Y-54794000D03*
X146963000Y-54794000D03*
X148063000Y-54794000D03*
X149163000Y-54794000D03*
X150263000Y-54794000D03*
X151213000Y-54794000D03*
D21*
X152163000Y-50494000D03*
D22*
X152163000Y-44294000D03*
D23*
X152163000Y-40144000D03*
D24*
X138663000Y-39694000D03*
D21*
X141013000Y-54794000D03*
D25*
X119507000Y-94677000D03*
X120777000Y-94677000D03*
X122047000Y-94677000D03*
X123317000Y-94677000D03*
X123317000Y-89727000D03*
X122047000Y-89727000D03*
X120777000Y-89727000D03*
X119507000Y-89727000D03*
D26*
X75262500Y-63312000D03*
X75262500Y-65212000D03*
X77137500Y-64262000D03*
D27*
X152654000Y-61237500D03*
X152654000Y-59412500D03*
D28*
X104564500Y-70993000D03*
X102739500Y-70993000D03*
D27*
X153670000Y-65555500D03*
X153670000Y-63730500D03*
D28*
X140358500Y-69342000D03*
X138533500Y-69342000D03*
X139342500Y-57277000D03*
X137517500Y-57277000D03*
D29*
X97131500Y-75946000D03*
X98956500Y-75946000D03*
D30*
X143002000Y-85701500D03*
X143002000Y-87526500D03*
D28*
X83970500Y-80772000D03*
X82145500Y-80772000D03*
D31*
X109982000Y-84391000D03*
X109982000Y-82741000D03*
D30*
X125476000Y-85955500D03*
X125476000Y-87780500D03*
D29*
X96623500Y-80772000D03*
X98448500Y-80772000D03*
D27*
X101854000Y-51458500D03*
X101854000Y-49633500D03*
D30*
X150241000Y-59412500D03*
X150241000Y-61237500D03*
X123190000Y-52808500D03*
X123190000Y-54633500D03*
D28*
X121562500Y-79883000D03*
X119737500Y-79883000D03*
D30*
X128778000Y-58904500D03*
X128778000Y-60729500D03*
X120396000Y-58904500D03*
X120396000Y-60729500D03*
D29*
X75287500Y-60452000D03*
X77112500Y-60452000D03*
D30*
X132334000Y-72874500D03*
X132334000Y-74699500D03*
D27*
X117602000Y-60729500D03*
X117602000Y-58904500D03*
X131572000Y-60729500D03*
X131572000Y-58904500D03*
D28*
X82954500Y-64262000D03*
X81129500Y-64262000D03*
D30*
X114808000Y-52808500D03*
X114808000Y-54633500D03*
X112014000Y-52808500D03*
X112014000Y-54633500D03*
D28*
X82954500Y-67818000D03*
X81129500Y-67818000D03*
D30*
X134366000Y-52808500D03*
X134366000Y-54633500D03*
X135382000Y-67620500D03*
X135382000Y-69445500D03*
D27*
X113792000Y-42949500D03*
X113792000Y-41124500D03*
X110998000Y-42949500D03*
X110998000Y-41124500D03*
D29*
X97131500Y-72136000D03*
X98956500Y-72136000D03*
D32*
X75946000Y-116080000D03*
X75946000Y-115060000D03*
X85598000Y-116080000D03*
X85598000Y-115060000D03*
X95250000Y-116080000D03*
X95250000Y-115060000D03*
X101854000Y-116080000D03*
X101854000Y-115060000D03*
D29*
X136167500Y-74549000D03*
X137992500Y-74549000D03*
X136247500Y-77597000D03*
X138072500Y-77597000D03*
X136247500Y-80899000D03*
X138072500Y-80899000D03*
D33*
X133858000Y-98988000D03*
X133858000Y-89988000D03*
D34*
X140108000Y-97028000D03*
X127608000Y-97028000D03*
X140108000Y-91948000D03*
X127608000Y-91948000D03*
X93178000Y-101488000D03*
X88178000Y-101488000D03*
X93178000Y-86988000D03*
X88178000Y-86988000D03*
X90678000Y-86988000D03*
D35*
X96378000Y-94488000D03*
X84978000Y-94488000D03*
D36*
X150366000Y-98878000D03*
X143766000Y-98878000D03*
X150366000Y-95178000D03*
X143766000Y-95178000D03*
D37*
X115234000Y-99290000D03*
D38*
X115146500Y-97790000D03*
D37*
X115234000Y-96290000D03*
D39*
X95690000Y-64268000D03*
X95690000Y-63468000D03*
X95690000Y-62668000D03*
X95690000Y-61868000D03*
X95690000Y-61068000D03*
X95690000Y-60268000D03*
X95690000Y-59468000D03*
X95690000Y-58668000D03*
D40*
X94240000Y-57218000D03*
X93440000Y-57218000D03*
X92640000Y-57218000D03*
X91840000Y-57218000D03*
X91040000Y-57218000D03*
X90240000Y-57218000D03*
X89440000Y-57218000D03*
X88640000Y-57218000D03*
D39*
X87190000Y-58668000D03*
X87190000Y-59468000D03*
X87190000Y-60268000D03*
X87190000Y-61068000D03*
X87190000Y-61868000D03*
X87190000Y-62668000D03*
X87190000Y-63468000D03*
X87190000Y-64268000D03*
D40*
X88640000Y-65718000D03*
X89440000Y-65718000D03*
X90240000Y-65718000D03*
X91040000Y-65718000D03*
X91840000Y-65718000D03*
X92640000Y-65718000D03*
X93440000Y-65718000D03*
X94240000Y-65718000D03*
D41*
X147955000Y-60263000D03*
X146685000Y-60263000D03*
X145415000Y-60263000D03*
X144145000Y-60263000D03*
X142875000Y-60263000D03*
X141605000Y-60263000D03*
X140335000Y-60263000D03*
X139065000Y-60263000D03*
X139065000Y-65213000D03*
X140335000Y-65213000D03*
X141605000Y-65213000D03*
X142875000Y-65213000D03*
X144145000Y-65213000D03*
X145415000Y-65213000D03*
X146685000Y-65213000D03*
X147955000Y-65213000D03*
D42*
X82804000Y-51054000D03*
X85344000Y-51054000D03*
X87884000Y-51054000D03*
X90424000Y-51054000D03*
X92964000Y-51054000D03*
X95504000Y-51054000D03*
X98044000Y-51054000D03*
D43*
X131378000Y-81661000D03*
X131378000Y-80711000D03*
X131378000Y-79761000D03*
X128778000Y-79761000D03*
X128778000Y-80711000D03*
X128778000Y-81661000D03*
D41*
X82804000Y-70677000D03*
X81534000Y-70677000D03*
X80264000Y-70677000D03*
X78994000Y-70677000D03*
X77724000Y-70677000D03*
X76454000Y-70677000D03*
X75184000Y-70677000D03*
X75184000Y-75627000D03*
X76454000Y-75627000D03*
X77724000Y-75627000D03*
X78994000Y-75627000D03*
X80264000Y-75627000D03*
X81534000Y-75627000D03*
X82804000Y-75627000D03*
D44*
X120297500Y-65957000D03*
X120297500Y-66457000D03*
X120297500Y-66957000D03*
X120297500Y-67457000D03*
X120297500Y-67957000D03*
X120297500Y-68457000D03*
X120297500Y-68957000D03*
X120297500Y-69457000D03*
X120297500Y-69957000D03*
X120297500Y-70457000D03*
X120297500Y-70957000D03*
X120297500Y-71457000D03*
D45*
X121710000Y-72869500D03*
X122210000Y-72869500D03*
X122710000Y-72869500D03*
X123210000Y-72869500D03*
X123710000Y-72869500D03*
X124210000Y-72869500D03*
X124710000Y-72869500D03*
X125210000Y-72869500D03*
X125710000Y-72869500D03*
X126210000Y-72869500D03*
X126710000Y-72869500D03*
X127210000Y-72869500D03*
D44*
X128622500Y-71457000D03*
X128622500Y-70957000D03*
X128622500Y-70457000D03*
X128622500Y-69957000D03*
X128622500Y-69457000D03*
X128622500Y-68957000D03*
X128622500Y-68457000D03*
X128622500Y-67957000D03*
X128622500Y-67457000D03*
X128622500Y-66957000D03*
X128622500Y-66457000D03*
X128622500Y-65957000D03*
D45*
X127210000Y-64544500D03*
X126710000Y-64544500D03*
X126210000Y-64544500D03*
X125710000Y-64544500D03*
X125210000Y-64544500D03*
X124710000Y-64544500D03*
X124210000Y-64544500D03*
X123710000Y-64544500D03*
X123210000Y-64544500D03*
X122710000Y-64544500D03*
X122210000Y-64544500D03*
X121710000Y-64544500D03*
D46*
X110155500Y-47031000D03*
X110155500Y-47681000D03*
X110155500Y-48331000D03*
X110155500Y-48981000D03*
X114380500Y-48981000D03*
X114380500Y-48331000D03*
X114380500Y-47681000D03*
X114380500Y-47031000D03*
D47*
X77248000Y-113979200D03*
X81248000Y-113979200D03*
X81248000Y-112055400D03*
X77248000Y-112055400D03*
D40*
X143250000Y-81339000D03*
X144050000Y-81339000D03*
X144850000Y-81339000D03*
X145650000Y-81339000D03*
X146450000Y-81339000D03*
X147250000Y-81339000D03*
X148050000Y-81339000D03*
X148850000Y-81339000D03*
D39*
X150300000Y-79889000D03*
X150300000Y-79089000D03*
X150300000Y-78289000D03*
X150300000Y-77489000D03*
X150300000Y-76689000D03*
X150300000Y-75889000D03*
X150300000Y-75089000D03*
X150300000Y-74289000D03*
D40*
X148850000Y-72839000D03*
X148050000Y-72839000D03*
X147250000Y-72839000D03*
X146450000Y-72839000D03*
X145650000Y-72839000D03*
X144850000Y-72839000D03*
X144050000Y-72839000D03*
X143250000Y-72839000D03*
D39*
X141800000Y-74289000D03*
X141800000Y-75089000D03*
X141800000Y-75889000D03*
X141800000Y-76689000D03*
X141800000Y-77489000D03*
X141800000Y-78289000D03*
X141800000Y-79089000D03*
X141800000Y-79889000D03*
D47*
X96520000Y-113963200D03*
X100520000Y-113963200D03*
X100520000Y-112039400D03*
X96520000Y-112039400D03*
D48*
X70358000Y-97790000D03*
D49*
X70358000Y-95250000D03*
X70358000Y-92710000D03*
X70358000Y-90170000D03*
X70358000Y-87630000D03*
X70358000Y-85090000D03*
D48*
X101092000Y-44450000D03*
D49*
X101092000Y-41910000D03*
X103632000Y-44450000D03*
X103632000Y-41910000D03*
X106172000Y-44450000D03*
X106172000Y-41910000D03*
D48*
X156524000Y-69325000D03*
D49*
X156524000Y-71865000D03*
X156524000Y-74405000D03*
X156524000Y-76945000D03*
X156524000Y-79485000D03*
X156524000Y-82025000D03*
D50*
X100076000Y-61178000D03*
X100076000Y-56678000D03*
X122900000Y-76835000D03*
X118400000Y-76835000D03*
X147392000Y-86741000D03*
X151892000Y-86741000D03*
D51*
X156524000Y-85983000D03*
X156524000Y-88483000D03*
X156524000Y-90983000D03*
X156524000Y-93483000D03*
X156524000Y-95983000D03*
X156524000Y-98483000D03*
D52*
X70358000Y-49530000D03*
X70358000Y-52070000D03*
X70358000Y-54610000D03*
X70358000Y-57150000D03*
D48*
X110744000Y-93218000D03*
D49*
X110744000Y-90678000D03*
X113284000Y-93218000D03*
X113284000Y-90678000D03*
X115824000Y-93218000D03*
X115824000Y-90678000D03*
D48*
X76708000Y-109728000D03*
D49*
X79248000Y-109728000D03*
X81788000Y-109728000D03*
D48*
X86360000Y-109728000D03*
D49*
X88900000Y-109728000D03*
X91440000Y-109728000D03*
D48*
X96012000Y-109728000D03*
D49*
X98552000Y-109728000D03*
X101092000Y-109728000D03*
D48*
X105664000Y-109728000D03*
D49*
X108204000Y-109728000D03*
X110744000Y-109728000D03*
D48*
X115316000Y-109728000D03*
D49*
X117856000Y-109728000D03*
X120396000Y-109728000D03*
D48*
X124968000Y-109728000D03*
D49*
X127508000Y-109728000D03*
X130048000Y-109728000D03*
D48*
X134620000Y-109728000D03*
D49*
X137160000Y-109728000D03*
X139700000Y-109728000D03*
D48*
X144272000Y-109728000D03*
D49*
X146812000Y-109728000D03*
X149352000Y-109728000D03*
D32*
X82550000Y-116080000D03*
X82550000Y-115060000D03*
X92202000Y-116080000D03*
X92202000Y-115060000D03*
X104902000Y-116080000D03*
X104902000Y-115060000D03*
X111506000Y-116080000D03*
X111506000Y-115060000D03*
X114554000Y-116080000D03*
X114554000Y-115060000D03*
X124206000Y-116080000D03*
X124206000Y-115060000D03*
X121158000Y-116080000D03*
X121158000Y-115060000D03*
X130810000Y-116080000D03*
X130810000Y-115060000D03*
X133858000Y-116080000D03*
X133858000Y-115060000D03*
X140462000Y-116080000D03*
X140462000Y-115060000D03*
X143510000Y-116080000D03*
X143510000Y-115060000D03*
X150114000Y-116080000D03*
X150114000Y-115060000D03*
D47*
X86868000Y-113963200D03*
X90868000Y-113963200D03*
X90868000Y-112039400D03*
X86868000Y-112039400D03*
X106172000Y-113963200D03*
X110172000Y-113963200D03*
X110172000Y-112039400D03*
X106172000Y-112039400D03*
X115824000Y-113963200D03*
X119824000Y-113963200D03*
X119824000Y-112039400D03*
X115824000Y-112039400D03*
X125508000Y-113963200D03*
X129508000Y-113963200D03*
X129508000Y-112039400D03*
X125508000Y-112039400D03*
X135128000Y-113963200D03*
X139128000Y-113963200D03*
X139128000Y-112039400D03*
X135128000Y-112039400D03*
X144780000Y-113963200D03*
X148780000Y-113963200D03*
X148780000Y-112039400D03*
X144780000Y-112039400D03*
D17*
X74930000Y-41988500D03*
X74930000Y-43863500D03*
D18*
X91440000Y-40526000D03*
D53*
X93290000Y-45426000D03*
X89590000Y-45426000D03*
D54*
X91440000Y-47426000D03*
D29*
X86717500Y-70358000D03*
X88542500Y-70358000D03*
D18*
X81026000Y-40526000D03*
D53*
X82876000Y-45426000D03*
X79176000Y-45426000D03*
D54*
X81026000Y-47426000D03*
D51*
X70358000Y-46990000D03*
X111760000Y-77470000D03*
X111760000Y-74930000D03*
X153924000Y-98552000D03*
D55*
X100904000Y-95552500D03*
X102804000Y-95552500D03*
X101854000Y-93677500D03*
D27*
X106299000Y-95654500D03*
X106299000Y-93829500D03*
D56*
X74232000Y-93662000D03*
X82232000Y-85762000D03*
X74232000Y-85762000D03*
D29*
X87987500Y-80772000D03*
X89812500Y-80772000D03*
D57*
X75249000Y-97409000D03*
X75249000Y-98679000D03*
X75249000Y-99949000D03*
X75249000Y-101219000D03*
X80199000Y-101219000D03*
X80199000Y-99949000D03*
X80199000Y-98679000D03*
X80199000Y-97409000D03*
D51*
X86106000Y-41656000D03*
D28*
X106322500Y-63627000D03*
X104497500Y-63627000D03*
D51*
X86233000Y-46101000D03*
D58*
X146812000Y-117856000D03*
X137160000Y-117856000D03*
X108204000Y-117856000D03*
D59*
X156210000Y-103632000D03*
D58*
X127508000Y-117856000D03*
D59*
X156210000Y-41910000D03*
D26*
X104980500Y-87442000D03*
X104980500Y-89342000D03*
X106855500Y-88392000D03*
D59*
X105791000Y-81010000D03*
X75311000Y-81073500D03*
X110998000Y-103632000D03*
D58*
X98552000Y-117856000D03*
D59*
X70485000Y-103632000D03*
D58*
X117856000Y-117856000D03*
X88900000Y-117856000D03*
D59*
X70485000Y-41910000D03*
D58*
X79248000Y-117856000D03*
D48*
X102357000Y-104140000D03*
D49*
X104897000Y-104140000D03*
M02*
