G04 #@! TF.GenerationSoftware,KiCad,Pcbnew,8.0.2-1*
G04 #@! TF.CreationDate,2024-06-10T22:55:01+02:00*
G04 #@! TF.ProjectId,panel-eyes,70616e65-6c2d-4657-9965-732e6b696361,rev?*
G04 #@! TF.SameCoordinates,Original*
G04 #@! TF.FileFunction,Legend,Bot*
G04 #@! TF.FilePolarity,Positive*
%FSLAX46Y46*%
G04 Gerber Fmt 4.6, Leading zero omitted, Abs format (unit mm)*
G04 Created by KiCad (PCBNEW 8.0.2-1) date 2024-06-10 22:55:01*
%MOMM*%
%LPD*%
G01*
G04 APERTURE LIST*
%ADD10C,0.250000*%
G04 APERTURE END LIST*
D10*
G04 #@! TO.C,J1*
X40654000Y-73539500D02*
X48754000Y-73539500D01*
X40654000Y-75589500D02*
X40654000Y-69339500D01*
X41534000Y-69339500D02*
X41534000Y-70009500D01*
X41534000Y-70009500D02*
X42804000Y-70009500D01*
X42804000Y-70009500D02*
X42804000Y-69339500D01*
X44074000Y-69339500D02*
X44074000Y-70009500D01*
X44074000Y-70009500D02*
X45344000Y-70009500D01*
X45344000Y-70009500D02*
X45344000Y-69339500D01*
X46614000Y-69339500D02*
X46614000Y-70009500D01*
X46614000Y-70009500D02*
X47884000Y-70009500D01*
X47884000Y-70009500D02*
X47884000Y-69339500D01*
X48754000Y-69339500D02*
X40654000Y-69339500D01*
X48754000Y-75589500D02*
X40654000Y-75589500D01*
X48754000Y-75589500D02*
X48754000Y-69339500D01*
X14000Y-35439500D02*
X8114000Y-35439500D01*
X14000Y-37489500D02*
X14000Y-31239500D01*
X894000Y-31239500D02*
X894000Y-31909500D01*
X894000Y-31909500D02*
X2164000Y-31909500D01*
X2164000Y-31909500D02*
X2164000Y-31239500D01*
X3434000Y-31239500D02*
X3434000Y-31909500D01*
X3434000Y-31909500D02*
X4704000Y-31909500D01*
X4704000Y-31909500D02*
X4704000Y-31239500D01*
X5974000Y-31239500D02*
X5974000Y-31909500D01*
X5974000Y-31909500D02*
X7244000Y-31909500D01*
X7244000Y-31909500D02*
X7244000Y-31239500D01*
X8114000Y-31239500D02*
X14000Y-31239500D01*
X8114000Y-37489500D02*
X14000Y-37489500D01*
X8114000Y-37489500D02*
X8114000Y-31239500D01*
X32526000Y-22739500D02*
X40626000Y-22739500D01*
X32526000Y-24789500D02*
X32526000Y-18539500D01*
X33406000Y-18539500D02*
X33406000Y-19209500D01*
X33406000Y-19209500D02*
X34676000Y-19209500D01*
X34676000Y-19209500D02*
X34676000Y-18539500D01*
X35946000Y-18539500D02*
X35946000Y-19209500D01*
X35946000Y-19209500D02*
X37216000Y-19209500D01*
X37216000Y-19209500D02*
X37216000Y-18539500D01*
X38486000Y-18539500D02*
X38486000Y-19209500D01*
X38486000Y-19209500D02*
X39756000Y-19209500D01*
X39756000Y-19209500D02*
X39756000Y-18539500D01*
X40626000Y-18539500D02*
X32526000Y-18539500D01*
X40626000Y-24789500D02*
X32526000Y-24789500D01*
X40626000Y-24789500D02*
X40626000Y-18539500D01*
X8142000Y-48139500D02*
X16242000Y-48139500D01*
X8142000Y-50189500D02*
X8142000Y-43939500D01*
X9022000Y-43939500D02*
X9022000Y-44609500D01*
X9022000Y-44609500D02*
X10292000Y-44609500D01*
X10292000Y-44609500D02*
X10292000Y-43939500D01*
X11562000Y-43939500D02*
X11562000Y-44609500D01*
X11562000Y-44609500D02*
X12832000Y-44609500D01*
X12832000Y-44609500D02*
X12832000Y-43939500D01*
X14102000Y-43939500D02*
X14102000Y-44609500D01*
X14102000Y-44609500D02*
X15372000Y-44609500D01*
X15372000Y-44609500D02*
X15372000Y-43939500D01*
X16242000Y-43939500D02*
X8142000Y-43939500D01*
X16242000Y-50189500D02*
X8142000Y-50189500D01*
X16242000Y-50189500D02*
X16242000Y-43939500D01*
X56910000Y-60839500D02*
X65010000Y-60839500D01*
X56910000Y-62889500D02*
X56910000Y-56639500D01*
X57790000Y-56639500D02*
X57790000Y-57309500D01*
X57790000Y-57309500D02*
X59060000Y-57309500D01*
X59060000Y-57309500D02*
X59060000Y-56639500D01*
X60330000Y-56639500D02*
X60330000Y-57309500D01*
X60330000Y-57309500D02*
X61600000Y-57309500D01*
X61600000Y-57309500D02*
X61600000Y-56639500D01*
X62870000Y-56639500D02*
X62870000Y-57309500D01*
X62870000Y-57309500D02*
X64140000Y-57309500D01*
X64140000Y-57309500D02*
X64140000Y-56639500D01*
X65010000Y-56639500D02*
X56910000Y-56639500D01*
X65010000Y-62889500D02*
X56910000Y-62889500D01*
X65010000Y-62889500D02*
X65010000Y-56639500D01*
X8142000Y-73539500D02*
X16242000Y-73539500D01*
X8142000Y-75589500D02*
X8142000Y-69339500D01*
X9022000Y-69339500D02*
X9022000Y-70009500D01*
X9022000Y-70009500D02*
X10292000Y-70009500D01*
X10292000Y-70009500D02*
X10292000Y-69339500D01*
X11562000Y-69339500D02*
X11562000Y-70009500D01*
X11562000Y-70009500D02*
X12832000Y-70009500D01*
X12832000Y-70009500D02*
X12832000Y-69339500D01*
X14102000Y-69339500D02*
X14102000Y-70009500D01*
X14102000Y-70009500D02*
X15372000Y-70009500D01*
X15372000Y-70009500D02*
X15372000Y-69339500D01*
X16242000Y-69339500D02*
X8142000Y-69339500D01*
X16242000Y-75589500D02*
X8142000Y-75589500D01*
X16242000Y-75589500D02*
X16242000Y-69339500D01*
X40654000Y-10039500D02*
X48754000Y-10039500D01*
X40654000Y-12089500D02*
X40654000Y-5839500D01*
X41534000Y-5839500D02*
X41534000Y-6509500D01*
X41534000Y-6509500D02*
X42804000Y-6509500D01*
X42804000Y-6509500D02*
X42804000Y-5839500D01*
X44074000Y-5839500D02*
X44074000Y-6509500D01*
X44074000Y-6509500D02*
X45344000Y-6509500D01*
X45344000Y-6509500D02*
X45344000Y-5839500D01*
X46614000Y-5839500D02*
X46614000Y-6509500D01*
X46614000Y-6509500D02*
X47884000Y-6509500D01*
X47884000Y-6509500D02*
X47884000Y-5839500D01*
X48754000Y-5839500D02*
X40654000Y-5839500D01*
X48754000Y-12089500D02*
X40654000Y-12089500D01*
X48754000Y-12089500D02*
X48754000Y-5839500D01*
X16270000Y-22739500D02*
X24370000Y-22739500D01*
X16270000Y-24789500D02*
X16270000Y-18539500D01*
X17150000Y-18539500D02*
X17150000Y-19209500D01*
X17150000Y-19209500D02*
X18420000Y-19209500D01*
X18420000Y-19209500D02*
X18420000Y-18539500D01*
X19690000Y-18539500D02*
X19690000Y-19209500D01*
X19690000Y-19209500D02*
X20960000Y-19209500D01*
X20960000Y-19209500D02*
X20960000Y-18539500D01*
X22230000Y-18539500D02*
X22230000Y-19209500D01*
X22230000Y-19209500D02*
X23500000Y-19209500D01*
X23500000Y-19209500D02*
X23500000Y-18539500D01*
X24370000Y-18539500D02*
X16270000Y-18539500D01*
X24370000Y-24789500D02*
X16270000Y-24789500D01*
X24370000Y-24789500D02*
X24370000Y-18539500D01*
X8142000Y-10039500D02*
X16242000Y-10039500D01*
X8142000Y-12089500D02*
X8142000Y-5839500D01*
X9022000Y-5839500D02*
X9022000Y-6509500D01*
X9022000Y-6509500D02*
X10292000Y-6509500D01*
X10292000Y-6509500D02*
X10292000Y-5839500D01*
X11562000Y-5839500D02*
X11562000Y-6509500D01*
X11562000Y-6509500D02*
X12832000Y-6509500D01*
X12832000Y-6509500D02*
X12832000Y-5839500D01*
X14102000Y-5839500D02*
X14102000Y-6509500D01*
X14102000Y-6509500D02*
X15372000Y-6509500D01*
X15372000Y-6509500D02*
X15372000Y-5839500D01*
X16242000Y-5839500D02*
X8142000Y-5839500D01*
X16242000Y-12089500D02*
X8142000Y-12089500D01*
X16242000Y-12089500D02*
X16242000Y-5839500D01*
X16270000Y-60839500D02*
X24370000Y-60839500D01*
X16270000Y-62889500D02*
X16270000Y-56639500D01*
X17150000Y-56639500D02*
X17150000Y-57309500D01*
X17150000Y-57309500D02*
X18420000Y-57309500D01*
X18420000Y-57309500D02*
X18420000Y-56639500D01*
X19690000Y-56639500D02*
X19690000Y-57309500D01*
X19690000Y-57309500D02*
X20960000Y-57309500D01*
X20960000Y-57309500D02*
X20960000Y-56639500D01*
X22230000Y-56639500D02*
X22230000Y-57309500D01*
X22230000Y-57309500D02*
X23500000Y-57309500D01*
X23500000Y-57309500D02*
X23500000Y-56639500D01*
X24370000Y-56639500D02*
X16270000Y-56639500D01*
X24370000Y-62889500D02*
X16270000Y-62889500D01*
X24370000Y-62889500D02*
X24370000Y-56639500D01*
X32526000Y-60839500D02*
X40626000Y-60839500D01*
X32526000Y-62889500D02*
X32526000Y-56639500D01*
X33406000Y-56639500D02*
X33406000Y-57309500D01*
X33406000Y-57309500D02*
X34676000Y-57309500D01*
X34676000Y-57309500D02*
X34676000Y-56639500D01*
X35946000Y-56639500D02*
X35946000Y-57309500D01*
X35946000Y-57309500D02*
X37216000Y-57309500D01*
X37216000Y-57309500D02*
X37216000Y-56639500D01*
X38486000Y-56639500D02*
X38486000Y-57309500D01*
X38486000Y-57309500D02*
X39756000Y-57309500D01*
X39756000Y-57309500D02*
X39756000Y-56639500D01*
X40626000Y-56639500D02*
X32526000Y-56639500D01*
X40626000Y-62889500D02*
X32526000Y-62889500D01*
X40626000Y-62889500D02*
X40626000Y-56639500D01*
X48782000Y-48139500D02*
X56882000Y-48139500D01*
X48782000Y-50189500D02*
X48782000Y-43939500D01*
X49662000Y-43939500D02*
X49662000Y-44609500D01*
X49662000Y-44609500D02*
X50932000Y-44609500D01*
X50932000Y-44609500D02*
X50932000Y-43939500D01*
X52202000Y-43939500D02*
X52202000Y-44609500D01*
X52202000Y-44609500D02*
X53472000Y-44609500D01*
X53472000Y-44609500D02*
X53472000Y-43939500D01*
X54742000Y-43939500D02*
X54742000Y-44609500D01*
X54742000Y-44609500D02*
X56012000Y-44609500D01*
X56012000Y-44609500D02*
X56012000Y-43939500D01*
X56882000Y-43939500D02*
X48782000Y-43939500D01*
X56882000Y-50189500D02*
X48782000Y-50189500D01*
X56882000Y-50189500D02*
X56882000Y-43939500D01*
X32526000Y-48139500D02*
X40626000Y-48139500D01*
X32526000Y-50189500D02*
X32526000Y-43939500D01*
X33406000Y-43939500D02*
X33406000Y-44609500D01*
X33406000Y-44609500D02*
X34676000Y-44609500D01*
X34676000Y-44609500D02*
X34676000Y-43939500D01*
X35946000Y-43939500D02*
X35946000Y-44609500D01*
X35946000Y-44609500D02*
X37216000Y-44609500D01*
X37216000Y-44609500D02*
X37216000Y-43939500D01*
X38486000Y-43939500D02*
X38486000Y-44609500D01*
X38486000Y-44609500D02*
X39756000Y-44609500D01*
X39756000Y-44609500D02*
X39756000Y-43939500D01*
X40626000Y-43939500D02*
X32526000Y-43939500D01*
X40626000Y-50189500D02*
X32526000Y-50189500D01*
X40626000Y-50189500D02*
X40626000Y-43939500D01*
X48782000Y-60839500D02*
X56882000Y-60839500D01*
X48782000Y-62889500D02*
X48782000Y-56639500D01*
X49662000Y-56639500D02*
X49662000Y-57309500D01*
X49662000Y-57309500D02*
X50932000Y-57309500D01*
X50932000Y-57309500D02*
X50932000Y-56639500D01*
X52202000Y-56639500D02*
X52202000Y-57309500D01*
X52202000Y-57309500D02*
X53472000Y-57309500D01*
X53472000Y-57309500D02*
X53472000Y-56639500D01*
X54742000Y-56639500D02*
X54742000Y-57309500D01*
X54742000Y-57309500D02*
X56012000Y-57309500D01*
X56012000Y-57309500D02*
X56012000Y-56639500D01*
X56882000Y-56639500D02*
X48782000Y-56639500D01*
X56882000Y-62889500D02*
X48782000Y-62889500D01*
X56882000Y-62889500D02*
X56882000Y-56639500D01*
X8142000Y-22739500D02*
X16242000Y-22739500D01*
X8142000Y-24789500D02*
X8142000Y-18539500D01*
X9022000Y-18539500D02*
X9022000Y-19209500D01*
X9022000Y-19209500D02*
X10292000Y-19209500D01*
X10292000Y-19209500D02*
X10292000Y-18539500D01*
X11562000Y-18539500D02*
X11562000Y-19209500D01*
X11562000Y-19209500D02*
X12832000Y-19209500D01*
X12832000Y-19209500D02*
X12832000Y-18539500D01*
X14102000Y-18539500D02*
X14102000Y-19209500D01*
X14102000Y-19209500D02*
X15372000Y-19209500D01*
X15372000Y-19209500D02*
X15372000Y-18539500D01*
X16242000Y-18539500D02*
X8142000Y-18539500D01*
X16242000Y-24789500D02*
X8142000Y-24789500D01*
X16242000Y-24789500D02*
X16242000Y-18539500D01*
X14000Y-10039500D02*
X8114000Y-10039500D01*
X14000Y-12089500D02*
X14000Y-5839500D01*
X894000Y-5839500D02*
X894000Y-6509500D01*
X894000Y-6509500D02*
X2164000Y-6509500D01*
X2164000Y-6509500D02*
X2164000Y-5839500D01*
X3434000Y-5839500D02*
X3434000Y-6509500D01*
X3434000Y-6509500D02*
X4704000Y-6509500D01*
X4704000Y-6509500D02*
X4704000Y-5839500D01*
X5974000Y-5839500D02*
X5974000Y-6509500D01*
X5974000Y-6509500D02*
X7244000Y-6509500D01*
X7244000Y-6509500D02*
X7244000Y-5839500D01*
X8114000Y-5839500D02*
X14000Y-5839500D01*
X8114000Y-12089500D02*
X14000Y-12089500D01*
X8114000Y-12089500D02*
X8114000Y-5839500D01*
X40654000Y-22739500D02*
X48754000Y-22739500D01*
X40654000Y-24789500D02*
X40654000Y-18539500D01*
X41534000Y-18539500D02*
X41534000Y-19209500D01*
X41534000Y-19209500D02*
X42804000Y-19209500D01*
X42804000Y-19209500D02*
X42804000Y-18539500D01*
X44074000Y-18539500D02*
X44074000Y-19209500D01*
X44074000Y-19209500D02*
X45344000Y-19209500D01*
X45344000Y-19209500D02*
X45344000Y-18539500D01*
X46614000Y-18539500D02*
X46614000Y-19209500D01*
X46614000Y-19209500D02*
X47884000Y-19209500D01*
X47884000Y-19209500D02*
X47884000Y-18539500D01*
X48754000Y-18539500D02*
X40654000Y-18539500D01*
X48754000Y-24789500D02*
X40654000Y-24789500D01*
X48754000Y-24789500D02*
X48754000Y-18539500D01*
X56910000Y-35439500D02*
X65010000Y-35439500D01*
X56910000Y-37489500D02*
X56910000Y-31239500D01*
X57790000Y-31239500D02*
X57790000Y-31909500D01*
X57790000Y-31909500D02*
X59060000Y-31909500D01*
X59060000Y-31909500D02*
X59060000Y-31239500D01*
X60330000Y-31239500D02*
X60330000Y-31909500D01*
X60330000Y-31909500D02*
X61600000Y-31909500D01*
X61600000Y-31909500D02*
X61600000Y-31239500D01*
X62870000Y-31239500D02*
X62870000Y-31909500D01*
X62870000Y-31909500D02*
X64140000Y-31909500D01*
X64140000Y-31909500D02*
X64140000Y-31239500D01*
X65010000Y-31239500D02*
X56910000Y-31239500D01*
X65010000Y-37489500D02*
X56910000Y-37489500D01*
X65010000Y-37489500D02*
X65010000Y-31239500D01*
X56910000Y-73539500D02*
X65010000Y-73539500D01*
X56910000Y-75589500D02*
X56910000Y-69339500D01*
X57790000Y-69339500D02*
X57790000Y-70009500D01*
X57790000Y-70009500D02*
X59060000Y-70009500D01*
X59060000Y-70009500D02*
X59060000Y-69339500D01*
X60330000Y-69339500D02*
X60330000Y-70009500D01*
X60330000Y-70009500D02*
X61600000Y-70009500D01*
X61600000Y-70009500D02*
X61600000Y-69339500D01*
X62870000Y-69339500D02*
X62870000Y-70009500D01*
X62870000Y-70009500D02*
X64140000Y-70009500D01*
X64140000Y-70009500D02*
X64140000Y-69339500D01*
X65010000Y-69339500D02*
X56910000Y-69339500D01*
X65010000Y-75589500D02*
X56910000Y-75589500D01*
X65010000Y-75589500D02*
X65010000Y-69339500D01*
X14000Y-60839500D02*
X8114000Y-60839500D01*
X14000Y-62889500D02*
X14000Y-56639500D01*
X894000Y-56639500D02*
X894000Y-57309500D01*
X894000Y-57309500D02*
X2164000Y-57309500D01*
X2164000Y-57309500D02*
X2164000Y-56639500D01*
X3434000Y-56639500D02*
X3434000Y-57309500D01*
X3434000Y-57309500D02*
X4704000Y-57309500D01*
X4704000Y-57309500D02*
X4704000Y-56639500D01*
X5974000Y-56639500D02*
X5974000Y-57309500D01*
X5974000Y-57309500D02*
X7244000Y-57309500D01*
X7244000Y-57309500D02*
X7244000Y-56639500D01*
X8114000Y-56639500D02*
X14000Y-56639500D01*
X8114000Y-62889500D02*
X14000Y-62889500D01*
X8114000Y-62889500D02*
X8114000Y-56639500D01*
X40654000Y-48139500D02*
X48754000Y-48139500D01*
X40654000Y-50189500D02*
X40654000Y-43939500D01*
X41534000Y-43939500D02*
X41534000Y-44609500D01*
X41534000Y-44609500D02*
X42804000Y-44609500D01*
X42804000Y-44609500D02*
X42804000Y-43939500D01*
X44074000Y-43939500D02*
X44074000Y-44609500D01*
X44074000Y-44609500D02*
X45344000Y-44609500D01*
X45344000Y-44609500D02*
X45344000Y-43939500D01*
X46614000Y-43939500D02*
X46614000Y-44609500D01*
X46614000Y-44609500D02*
X47884000Y-44609500D01*
X47884000Y-44609500D02*
X47884000Y-43939500D01*
X48754000Y-43939500D02*
X40654000Y-43939500D01*
X48754000Y-50189500D02*
X40654000Y-50189500D01*
X48754000Y-50189500D02*
X48754000Y-43939500D01*
X32526000Y-73539500D02*
X40626000Y-73539500D01*
X32526000Y-75589500D02*
X32526000Y-69339500D01*
X33406000Y-69339500D02*
X33406000Y-70009500D01*
X33406000Y-70009500D02*
X34676000Y-70009500D01*
X34676000Y-70009500D02*
X34676000Y-69339500D01*
X35946000Y-69339500D02*
X35946000Y-70009500D01*
X35946000Y-70009500D02*
X37216000Y-70009500D01*
X37216000Y-70009500D02*
X37216000Y-69339500D01*
X38486000Y-69339500D02*
X38486000Y-70009500D01*
X38486000Y-70009500D02*
X39756000Y-70009500D01*
X39756000Y-70009500D02*
X39756000Y-69339500D01*
X40626000Y-69339500D02*
X32526000Y-69339500D01*
X40626000Y-75589500D02*
X32526000Y-75589500D01*
X40626000Y-75589500D02*
X40626000Y-69339500D01*
X24398000Y-60839500D02*
X32498000Y-60839500D01*
X24398000Y-62889500D02*
X24398000Y-56639500D01*
X25278000Y-56639500D02*
X25278000Y-57309500D01*
X25278000Y-57309500D02*
X26548000Y-57309500D01*
X26548000Y-57309500D02*
X26548000Y-56639500D01*
X27818000Y-56639500D02*
X27818000Y-57309500D01*
X27818000Y-57309500D02*
X29088000Y-57309500D01*
X29088000Y-57309500D02*
X29088000Y-56639500D01*
X30358000Y-56639500D02*
X30358000Y-57309500D01*
X30358000Y-57309500D02*
X31628000Y-57309500D01*
X31628000Y-57309500D02*
X31628000Y-56639500D01*
X32498000Y-56639500D02*
X24398000Y-56639500D01*
X32498000Y-62889500D02*
X24398000Y-62889500D01*
X32498000Y-62889500D02*
X32498000Y-56639500D01*
X32526000Y-35439500D02*
X40626000Y-35439500D01*
X32526000Y-37489500D02*
X32526000Y-31239500D01*
X33406000Y-31239500D02*
X33406000Y-31909500D01*
X33406000Y-31909500D02*
X34676000Y-31909500D01*
X34676000Y-31909500D02*
X34676000Y-31239500D01*
X35946000Y-31239500D02*
X35946000Y-31909500D01*
X35946000Y-31909500D02*
X37216000Y-31909500D01*
X37216000Y-31909500D02*
X37216000Y-31239500D01*
X38486000Y-31239500D02*
X38486000Y-31909500D01*
X38486000Y-31909500D02*
X39756000Y-31909500D01*
X39756000Y-31909500D02*
X39756000Y-31239500D01*
X40626000Y-31239500D02*
X32526000Y-31239500D01*
X40626000Y-37489500D02*
X32526000Y-37489500D01*
X40626000Y-37489500D02*
X40626000Y-31239500D01*
X24398000Y-73539500D02*
X32498000Y-73539500D01*
X24398000Y-75589500D02*
X24398000Y-69339500D01*
X25278000Y-69339500D02*
X25278000Y-70009500D01*
X25278000Y-70009500D02*
X26548000Y-70009500D01*
X26548000Y-70009500D02*
X26548000Y-69339500D01*
X27818000Y-69339500D02*
X27818000Y-70009500D01*
X27818000Y-70009500D02*
X29088000Y-70009500D01*
X29088000Y-70009500D02*
X29088000Y-69339500D01*
X30358000Y-69339500D02*
X30358000Y-70009500D01*
X30358000Y-70009500D02*
X31628000Y-70009500D01*
X31628000Y-70009500D02*
X31628000Y-69339500D01*
X32498000Y-69339500D02*
X24398000Y-69339500D01*
X32498000Y-75589500D02*
X24398000Y-75589500D01*
X32498000Y-75589500D02*
X32498000Y-69339500D01*
X56910000Y-48139500D02*
X65010000Y-48139500D01*
X56910000Y-50189500D02*
X56910000Y-43939500D01*
X57790000Y-43939500D02*
X57790000Y-44609500D01*
X57790000Y-44609500D02*
X59060000Y-44609500D01*
X59060000Y-44609500D02*
X59060000Y-43939500D01*
X60330000Y-43939500D02*
X60330000Y-44609500D01*
X60330000Y-44609500D02*
X61600000Y-44609500D01*
X61600000Y-44609500D02*
X61600000Y-43939500D01*
X62870000Y-43939500D02*
X62870000Y-44609500D01*
X62870000Y-44609500D02*
X64140000Y-44609500D01*
X64140000Y-44609500D02*
X64140000Y-43939500D01*
X65010000Y-43939500D02*
X56910000Y-43939500D01*
X65010000Y-50189500D02*
X56910000Y-50189500D01*
X65010000Y-50189500D02*
X65010000Y-43939500D01*
X8142000Y-35439500D02*
X16242000Y-35439500D01*
X8142000Y-37489500D02*
X8142000Y-31239500D01*
X9022000Y-31239500D02*
X9022000Y-31909500D01*
X9022000Y-31909500D02*
X10292000Y-31909500D01*
X10292000Y-31909500D02*
X10292000Y-31239500D01*
X11562000Y-31239500D02*
X11562000Y-31909500D01*
X11562000Y-31909500D02*
X12832000Y-31909500D01*
X12832000Y-31909500D02*
X12832000Y-31239500D01*
X14102000Y-31239500D02*
X14102000Y-31909500D01*
X14102000Y-31909500D02*
X15372000Y-31909500D01*
X15372000Y-31909500D02*
X15372000Y-31239500D01*
X16242000Y-31239500D02*
X8142000Y-31239500D01*
X16242000Y-37489500D02*
X8142000Y-37489500D01*
X16242000Y-37489500D02*
X16242000Y-31239500D01*
X24398000Y-35439500D02*
X32498000Y-35439500D01*
X24398000Y-37489500D02*
X24398000Y-31239500D01*
X25278000Y-31239500D02*
X25278000Y-31909500D01*
X25278000Y-31909500D02*
X26548000Y-31909500D01*
X26548000Y-31909500D02*
X26548000Y-31239500D01*
X27818000Y-31239500D02*
X27818000Y-31909500D01*
X27818000Y-31909500D02*
X29088000Y-31909500D01*
X29088000Y-31909500D02*
X29088000Y-31239500D01*
X30358000Y-31239500D02*
X30358000Y-31909500D01*
X30358000Y-31909500D02*
X31628000Y-31909500D01*
X31628000Y-31909500D02*
X31628000Y-31239500D01*
X32498000Y-31239500D02*
X24398000Y-31239500D01*
X32498000Y-37489500D02*
X24398000Y-37489500D01*
X32498000Y-37489500D02*
X32498000Y-31239500D01*
X14000Y-73539500D02*
X8114000Y-73539500D01*
X14000Y-75589500D02*
X14000Y-69339500D01*
X894000Y-69339500D02*
X894000Y-70009500D01*
X894000Y-70009500D02*
X2164000Y-70009500D01*
X2164000Y-70009500D02*
X2164000Y-69339500D01*
X3434000Y-69339500D02*
X3434000Y-70009500D01*
X3434000Y-70009500D02*
X4704000Y-70009500D01*
X4704000Y-70009500D02*
X4704000Y-69339500D01*
X5974000Y-69339500D02*
X5974000Y-70009500D01*
X5974000Y-70009500D02*
X7244000Y-70009500D01*
X7244000Y-70009500D02*
X7244000Y-69339500D01*
X8114000Y-69339500D02*
X14000Y-69339500D01*
X8114000Y-75589500D02*
X14000Y-75589500D01*
X8114000Y-75589500D02*
X8114000Y-69339500D01*
X40654000Y-35439500D02*
X48754000Y-35439500D01*
X40654000Y-37489500D02*
X40654000Y-31239500D01*
X41534000Y-31239500D02*
X41534000Y-31909500D01*
X41534000Y-31909500D02*
X42804000Y-31909500D01*
X42804000Y-31909500D02*
X42804000Y-31239500D01*
X44074000Y-31239500D02*
X44074000Y-31909500D01*
X44074000Y-31909500D02*
X45344000Y-31909500D01*
X45344000Y-31909500D02*
X45344000Y-31239500D01*
X46614000Y-31239500D02*
X46614000Y-31909500D01*
X46614000Y-31909500D02*
X47884000Y-31909500D01*
X47884000Y-31909500D02*
X47884000Y-31239500D01*
X48754000Y-31239500D02*
X40654000Y-31239500D01*
X48754000Y-37489500D02*
X40654000Y-37489500D01*
X48754000Y-37489500D02*
X48754000Y-31239500D01*
X56910000Y-10039500D02*
X65010000Y-10039500D01*
X56910000Y-12089500D02*
X56910000Y-5839500D01*
X57790000Y-5839500D02*
X57790000Y-6509500D01*
X57790000Y-6509500D02*
X59060000Y-6509500D01*
X59060000Y-6509500D02*
X59060000Y-5839500D01*
X60330000Y-5839500D02*
X60330000Y-6509500D01*
X60330000Y-6509500D02*
X61600000Y-6509500D01*
X61600000Y-6509500D02*
X61600000Y-5839500D01*
X62870000Y-5839500D02*
X62870000Y-6509500D01*
X62870000Y-6509500D02*
X64140000Y-6509500D01*
X64140000Y-6509500D02*
X64140000Y-5839500D01*
X65010000Y-5839500D02*
X56910000Y-5839500D01*
X65010000Y-12089500D02*
X56910000Y-12089500D01*
X65010000Y-12089500D02*
X65010000Y-5839500D01*
X14000Y-22739500D02*
X8114000Y-22739500D01*
X14000Y-24789500D02*
X14000Y-18539500D01*
X894000Y-18539500D02*
X894000Y-19209500D01*
X894000Y-19209500D02*
X2164000Y-19209500D01*
X2164000Y-19209500D02*
X2164000Y-18539500D01*
X3434000Y-18539500D02*
X3434000Y-19209500D01*
X3434000Y-19209500D02*
X4704000Y-19209500D01*
X4704000Y-19209500D02*
X4704000Y-18539500D01*
X5974000Y-18539500D02*
X5974000Y-19209500D01*
X5974000Y-19209500D02*
X7244000Y-19209500D01*
X7244000Y-19209500D02*
X7244000Y-18539500D01*
X8114000Y-18539500D02*
X14000Y-18539500D01*
X8114000Y-24789500D02*
X14000Y-24789500D01*
X8114000Y-24789500D02*
X8114000Y-18539500D01*
X24398000Y-10039500D02*
X32498000Y-10039500D01*
X24398000Y-12089500D02*
X24398000Y-5839500D01*
X25278000Y-5839500D02*
X25278000Y-6509500D01*
X25278000Y-6509500D02*
X26548000Y-6509500D01*
X26548000Y-6509500D02*
X26548000Y-5839500D01*
X27818000Y-5839500D02*
X27818000Y-6509500D01*
X27818000Y-6509500D02*
X29088000Y-6509500D01*
X29088000Y-6509500D02*
X29088000Y-5839500D01*
X30358000Y-5839500D02*
X30358000Y-6509500D01*
X30358000Y-6509500D02*
X31628000Y-6509500D01*
X31628000Y-6509500D02*
X31628000Y-5839500D01*
X32498000Y-5839500D02*
X24398000Y-5839500D01*
X32498000Y-12089500D02*
X24398000Y-12089500D01*
X32498000Y-12089500D02*
X32498000Y-5839500D01*
X16270000Y-35439500D02*
X24370000Y-35439500D01*
X16270000Y-37489500D02*
X16270000Y-31239500D01*
X17150000Y-31239500D02*
X17150000Y-31909500D01*
X17150000Y-31909500D02*
X18420000Y-31909500D01*
X18420000Y-31909500D02*
X18420000Y-31239500D01*
X19690000Y-31239500D02*
X19690000Y-31909500D01*
X19690000Y-31909500D02*
X20960000Y-31909500D01*
X20960000Y-31909500D02*
X20960000Y-31239500D01*
X22230000Y-31239500D02*
X22230000Y-31909500D01*
X22230000Y-31909500D02*
X23500000Y-31909500D01*
X23500000Y-31909500D02*
X23500000Y-31239500D01*
X24370000Y-31239500D02*
X16270000Y-31239500D01*
X24370000Y-37489500D02*
X16270000Y-37489500D01*
X24370000Y-37489500D02*
X24370000Y-31239500D01*
X16270000Y-48139500D02*
X24370000Y-48139500D01*
X16270000Y-50189500D02*
X16270000Y-43939500D01*
X17150000Y-43939500D02*
X17150000Y-44609500D01*
X17150000Y-44609500D02*
X18420000Y-44609500D01*
X18420000Y-44609500D02*
X18420000Y-43939500D01*
X19690000Y-43939500D02*
X19690000Y-44609500D01*
X19690000Y-44609500D02*
X20960000Y-44609500D01*
X20960000Y-44609500D02*
X20960000Y-43939500D01*
X22230000Y-43939500D02*
X22230000Y-44609500D01*
X22230000Y-44609500D02*
X23500000Y-44609500D01*
X23500000Y-44609500D02*
X23500000Y-43939500D01*
X24370000Y-43939500D02*
X16270000Y-43939500D01*
X24370000Y-50189500D02*
X16270000Y-50189500D01*
X24370000Y-50189500D02*
X24370000Y-43939500D01*
X40654000Y-60839500D02*
X48754000Y-60839500D01*
X40654000Y-62889500D02*
X40654000Y-56639500D01*
X41534000Y-56639500D02*
X41534000Y-57309500D01*
X41534000Y-57309500D02*
X42804000Y-57309500D01*
X42804000Y-57309500D02*
X42804000Y-56639500D01*
X44074000Y-56639500D02*
X44074000Y-57309500D01*
X44074000Y-57309500D02*
X45344000Y-57309500D01*
X45344000Y-57309500D02*
X45344000Y-56639500D01*
X46614000Y-56639500D02*
X46614000Y-57309500D01*
X46614000Y-57309500D02*
X47884000Y-57309500D01*
X47884000Y-57309500D02*
X47884000Y-56639500D01*
X48754000Y-56639500D02*
X40654000Y-56639500D01*
X48754000Y-62889500D02*
X40654000Y-62889500D01*
X48754000Y-62889500D02*
X48754000Y-56639500D01*
X32526000Y-10039500D02*
X40626000Y-10039500D01*
X32526000Y-12089500D02*
X32526000Y-5839500D01*
X33406000Y-5839500D02*
X33406000Y-6509500D01*
X33406000Y-6509500D02*
X34676000Y-6509500D01*
X34676000Y-6509500D02*
X34676000Y-5839500D01*
X35946000Y-5839500D02*
X35946000Y-6509500D01*
X35946000Y-6509500D02*
X37216000Y-6509500D01*
X37216000Y-6509500D02*
X37216000Y-5839500D01*
X38486000Y-5839500D02*
X38486000Y-6509500D01*
X38486000Y-6509500D02*
X39756000Y-6509500D01*
X39756000Y-6509500D02*
X39756000Y-5839500D01*
X40626000Y-5839500D02*
X32526000Y-5839500D01*
X40626000Y-12089500D02*
X32526000Y-12089500D01*
X40626000Y-12089500D02*
X40626000Y-5839500D01*
X56910000Y-22739500D02*
X65010000Y-22739500D01*
X56910000Y-24789500D02*
X56910000Y-18539500D01*
X57790000Y-18539500D02*
X57790000Y-19209500D01*
X57790000Y-19209500D02*
X59060000Y-19209500D01*
X59060000Y-19209500D02*
X59060000Y-18539500D01*
X60330000Y-18539500D02*
X60330000Y-19209500D01*
X60330000Y-19209500D02*
X61600000Y-19209500D01*
X61600000Y-19209500D02*
X61600000Y-18539500D01*
X62870000Y-18539500D02*
X62870000Y-19209500D01*
X62870000Y-19209500D02*
X64140000Y-19209500D01*
X64140000Y-19209500D02*
X64140000Y-18539500D01*
X65010000Y-18539500D02*
X56910000Y-18539500D01*
X65010000Y-24789500D02*
X56910000Y-24789500D01*
X65010000Y-24789500D02*
X65010000Y-18539500D01*
X14000Y-48139500D02*
X8114000Y-48139500D01*
X14000Y-50189500D02*
X14000Y-43939500D01*
X894000Y-43939500D02*
X894000Y-44609500D01*
X894000Y-44609500D02*
X2164000Y-44609500D01*
X2164000Y-44609500D02*
X2164000Y-43939500D01*
X3434000Y-43939500D02*
X3434000Y-44609500D01*
X3434000Y-44609500D02*
X4704000Y-44609500D01*
X4704000Y-44609500D02*
X4704000Y-43939500D01*
X5974000Y-43939500D02*
X5974000Y-44609500D01*
X5974000Y-44609500D02*
X7244000Y-44609500D01*
X7244000Y-44609500D02*
X7244000Y-43939500D01*
X8114000Y-43939500D02*
X14000Y-43939500D01*
X8114000Y-50189500D02*
X14000Y-50189500D01*
X8114000Y-50189500D02*
X8114000Y-43939500D01*
X48782000Y-22739500D02*
X56882000Y-22739500D01*
X48782000Y-24789500D02*
X48782000Y-18539500D01*
X49662000Y-18539500D02*
X49662000Y-19209500D01*
X49662000Y-19209500D02*
X50932000Y-19209500D01*
X50932000Y-19209500D02*
X50932000Y-18539500D01*
X52202000Y-18539500D02*
X52202000Y-19209500D01*
X52202000Y-19209500D02*
X53472000Y-19209500D01*
X53472000Y-19209500D02*
X53472000Y-18539500D01*
X54742000Y-18539500D02*
X54742000Y-19209500D01*
X54742000Y-19209500D02*
X56012000Y-19209500D01*
X56012000Y-19209500D02*
X56012000Y-18539500D01*
X56882000Y-18539500D02*
X48782000Y-18539500D01*
X56882000Y-24789500D02*
X48782000Y-24789500D01*
X56882000Y-24789500D02*
X56882000Y-18539500D01*
X24398000Y-48139500D02*
X32498000Y-48139500D01*
X24398000Y-50189500D02*
X24398000Y-43939500D01*
X25278000Y-43939500D02*
X25278000Y-44609500D01*
X25278000Y-44609500D02*
X26548000Y-44609500D01*
X26548000Y-44609500D02*
X26548000Y-43939500D01*
X27818000Y-43939500D02*
X27818000Y-44609500D01*
X27818000Y-44609500D02*
X29088000Y-44609500D01*
X29088000Y-44609500D02*
X29088000Y-43939500D01*
X30358000Y-43939500D02*
X30358000Y-44609500D01*
X30358000Y-44609500D02*
X31628000Y-44609500D01*
X31628000Y-44609500D02*
X31628000Y-43939500D01*
X32498000Y-43939500D02*
X24398000Y-43939500D01*
X32498000Y-50189500D02*
X24398000Y-50189500D01*
X32498000Y-50189500D02*
X32498000Y-43939500D01*
X16270000Y-73539500D02*
X24370000Y-73539500D01*
X16270000Y-75589500D02*
X16270000Y-69339500D01*
X17150000Y-69339500D02*
X17150000Y-70009500D01*
X17150000Y-70009500D02*
X18420000Y-70009500D01*
X18420000Y-70009500D02*
X18420000Y-69339500D01*
X19690000Y-69339500D02*
X19690000Y-70009500D01*
X19690000Y-70009500D02*
X20960000Y-70009500D01*
X20960000Y-70009500D02*
X20960000Y-69339500D01*
X22230000Y-69339500D02*
X22230000Y-70009500D01*
X22230000Y-70009500D02*
X23500000Y-70009500D01*
X23500000Y-70009500D02*
X23500000Y-69339500D01*
X24370000Y-69339500D02*
X16270000Y-69339500D01*
X24370000Y-75589500D02*
X16270000Y-75589500D01*
X24370000Y-75589500D02*
X24370000Y-69339500D01*
X8142000Y-60839500D02*
X16242000Y-60839500D01*
X8142000Y-62889500D02*
X8142000Y-56639500D01*
X9022000Y-56639500D02*
X9022000Y-57309500D01*
X9022000Y-57309500D02*
X10292000Y-57309500D01*
X10292000Y-57309500D02*
X10292000Y-56639500D01*
X11562000Y-56639500D02*
X11562000Y-57309500D01*
X11562000Y-57309500D02*
X12832000Y-57309500D01*
X12832000Y-57309500D02*
X12832000Y-56639500D01*
X14102000Y-56639500D02*
X14102000Y-57309500D01*
X14102000Y-57309500D02*
X15372000Y-57309500D01*
X15372000Y-57309500D02*
X15372000Y-56639500D01*
X16242000Y-56639500D02*
X8142000Y-56639500D01*
X16242000Y-62889500D02*
X8142000Y-62889500D01*
X16242000Y-62889500D02*
X16242000Y-56639500D01*
X48782000Y-35439500D02*
X56882000Y-35439500D01*
X48782000Y-37489500D02*
X48782000Y-31239500D01*
X49662000Y-31239500D02*
X49662000Y-31909500D01*
X49662000Y-31909500D02*
X50932000Y-31909500D01*
X50932000Y-31909500D02*
X50932000Y-31239500D01*
X52202000Y-31239500D02*
X52202000Y-31909500D01*
X52202000Y-31909500D02*
X53472000Y-31909500D01*
X53472000Y-31909500D02*
X53472000Y-31239500D01*
X54742000Y-31239500D02*
X54742000Y-31909500D01*
X54742000Y-31909500D02*
X56012000Y-31909500D01*
X56012000Y-31909500D02*
X56012000Y-31239500D01*
X56882000Y-31239500D02*
X48782000Y-31239500D01*
X56882000Y-37489500D02*
X48782000Y-37489500D01*
X56882000Y-37489500D02*
X56882000Y-31239500D01*
X24398000Y-22739500D02*
X32498000Y-22739500D01*
X24398000Y-24789500D02*
X24398000Y-18539500D01*
X25278000Y-18539500D02*
X25278000Y-19209500D01*
X25278000Y-19209500D02*
X26548000Y-19209500D01*
X26548000Y-19209500D02*
X26548000Y-18539500D01*
X27818000Y-18539500D02*
X27818000Y-19209500D01*
X27818000Y-19209500D02*
X29088000Y-19209500D01*
X29088000Y-19209500D02*
X29088000Y-18539500D01*
X30358000Y-18539500D02*
X30358000Y-19209500D01*
X30358000Y-19209500D02*
X31628000Y-19209500D01*
X31628000Y-19209500D02*
X31628000Y-18539500D01*
X32498000Y-18539500D02*
X24398000Y-18539500D01*
X32498000Y-24789500D02*
X24398000Y-24789500D01*
X32498000Y-24789500D02*
X32498000Y-18539500D01*
X16270000Y-10039500D02*
X24370000Y-10039500D01*
X16270000Y-12089500D02*
X16270000Y-5839500D01*
X17150000Y-5839500D02*
X17150000Y-6509500D01*
X17150000Y-6509500D02*
X18420000Y-6509500D01*
X18420000Y-6509500D02*
X18420000Y-5839500D01*
X19690000Y-5839500D02*
X19690000Y-6509500D01*
X19690000Y-6509500D02*
X20960000Y-6509500D01*
X20960000Y-6509500D02*
X20960000Y-5839500D01*
X22230000Y-5839500D02*
X22230000Y-6509500D01*
X22230000Y-6509500D02*
X23500000Y-6509500D01*
X23500000Y-6509500D02*
X23500000Y-5839500D01*
X24370000Y-5839500D02*
X16270000Y-5839500D01*
X24370000Y-12089500D02*
X16270000Y-12089500D01*
X24370000Y-12089500D02*
X24370000Y-5839500D01*
X48782000Y-10039500D02*
X56882000Y-10039500D01*
X48782000Y-12089500D02*
X48782000Y-5839500D01*
X49662000Y-5839500D02*
X49662000Y-6509500D01*
X49662000Y-6509500D02*
X50932000Y-6509500D01*
X50932000Y-6509500D02*
X50932000Y-5839500D01*
X52202000Y-5839500D02*
X52202000Y-6509500D01*
X52202000Y-6509500D02*
X53472000Y-6509500D01*
X53472000Y-6509500D02*
X53472000Y-5839500D01*
X54742000Y-5839500D02*
X54742000Y-6509500D01*
X54742000Y-6509500D02*
X56012000Y-6509500D01*
X56012000Y-6509500D02*
X56012000Y-5839500D01*
X56882000Y-5839500D02*
X48782000Y-5839500D01*
X56882000Y-12089500D02*
X48782000Y-12089500D01*
X56882000Y-12089500D02*
X56882000Y-5839500D01*
X48782000Y-73539500D02*
X56882000Y-73539500D01*
X48782000Y-75589500D02*
X48782000Y-69339500D01*
X49662000Y-69339500D02*
X49662000Y-70009500D01*
X49662000Y-70009500D02*
X50932000Y-70009500D01*
X50932000Y-70009500D02*
X50932000Y-69339500D01*
X52202000Y-69339500D02*
X52202000Y-70009500D01*
X52202000Y-70009500D02*
X53472000Y-70009500D01*
X53472000Y-70009500D02*
X53472000Y-69339500D01*
X54742000Y-69339500D02*
X54742000Y-70009500D01*
X54742000Y-70009500D02*
X56012000Y-70009500D01*
X56012000Y-70009500D02*
X56012000Y-69339500D01*
X56882000Y-69339500D02*
X48782000Y-69339500D01*
X56882000Y-75589500D02*
X48782000Y-75589500D01*
X56882000Y-75589500D02*
X56882000Y-69339500D01*
G04 #@! TD*
M02*
