G04 #@! TF.GenerationSoftware,KiCad,Pcbnew,8.0.2-1*
G04 #@! TF.CreationDate,2024-06-10T22:55:01+02:00*
G04 #@! TF.ProjectId,panel-eyes,70616e65-6c2d-4657-9965-732e6b696361,rev?*
G04 #@! TF.SameCoordinates,Original*
G04 #@! TF.FileFunction,Legend,Top*
G04 #@! TF.FilePolarity,Positive*
%FSLAX46Y46*%
G04 Gerber Fmt 4.6, Leading zero omitted, Abs format (unit mm)*
G04 Created by KiCad (PCBNEW 8.0.2-1) date 2024-06-10 22:55:01*
%MOMM*%
%LPD*%
G01*
G04 APERTURE LIST*
%ADD10C,0.150000*%
%ADD11C,0.300000*%
%ADD12C,0.120000*%
G04 APERTURE END LIST*
D10*
X27826571Y-6951271D02*
X28397999Y-6522700D01*
X28397999Y-6522700D02*
X28969428Y-6951271D01*
X31509428Y-57573800D02*
X30366571Y-57573800D01*
X15253428Y-57573800D02*
X14110571Y-57573800D01*
X58468366Y-58056738D02*
X58468366Y-57066262D01*
X58963604Y-57561500D02*
X57973128Y-57561500D01*
X58468366Y-7256738D02*
X58468366Y-6266262D01*
X58963604Y-6761500D02*
X57973128Y-6761500D01*
X11570571Y-57751271D02*
X12141999Y-57322700D01*
X12141999Y-57322700D02*
X12713428Y-57751271D01*
X31509428Y-19473800D02*
X30366571Y-19473800D01*
X44082571Y-45051271D02*
X44653999Y-44622700D01*
X44653999Y-44622700D02*
X45225428Y-45051271D01*
X44082571Y-6951271D02*
X44653999Y-6522700D01*
X44653999Y-6522700D02*
X45225428Y-6951271D01*
X15253428Y-32173800D02*
X14110571Y-32173800D01*
X42212366Y-45356738D02*
X42212366Y-44366262D01*
X42707604Y-44861500D02*
X41717128Y-44861500D01*
X9700366Y-45356738D02*
X9700366Y-44366262D01*
X10195604Y-44861500D02*
X9205128Y-44861500D01*
X35954571Y-19651271D02*
X36525999Y-19222700D01*
X36525999Y-19222700D02*
X37097428Y-19651271D01*
X27826571Y-32351271D02*
X28397999Y-31922700D01*
X28397999Y-31922700D02*
X28969428Y-32351271D01*
X27826571Y-70451271D02*
X28397999Y-70022700D01*
X28397999Y-70022700D02*
X28969428Y-70451271D01*
X47765428Y-19473800D02*
X46622571Y-19473800D01*
X3442571Y-45051271D02*
X4013999Y-44622700D01*
X4013999Y-44622700D02*
X4585428Y-45051271D01*
X42212366Y-19956738D02*
X42212366Y-18966262D01*
X42707604Y-19461500D02*
X41717128Y-19461500D01*
X34084366Y-58056738D02*
X34084366Y-57066262D01*
X34579604Y-57561500D02*
X33589128Y-57561500D01*
X31509428Y-32173800D02*
X30366571Y-32173800D01*
X23381428Y-32173800D02*
X22238571Y-32173800D01*
X64021428Y-6773800D02*
X62878571Y-6773800D01*
X34084366Y-32656738D02*
X34084366Y-31666262D01*
X34579604Y-32161500D02*
X33589128Y-32161500D01*
X50340366Y-45356738D02*
X50340366Y-44366262D01*
X50835604Y-44861500D02*
X49845128Y-44861500D01*
X31509428Y-44873800D02*
X30366571Y-44873800D01*
X19698571Y-57751271D02*
X20269999Y-57322700D01*
X20269999Y-57322700D02*
X20841428Y-57751271D01*
X23381428Y-6773800D02*
X22238571Y-6773800D01*
X11570571Y-32351271D02*
X12141999Y-31922700D01*
X12141999Y-31922700D02*
X12713428Y-32351271D01*
X39637428Y-44873800D02*
X38494571Y-44873800D01*
X55893428Y-32173800D02*
X54750571Y-32173800D01*
X60338571Y-57751271D02*
X60909999Y-57322700D01*
X60909999Y-57322700D02*
X61481428Y-57751271D01*
X52210571Y-45051271D02*
X52781999Y-44622700D01*
X52781999Y-44622700D02*
X53353428Y-45051271D01*
X19698571Y-19651271D02*
X20269999Y-19222700D01*
X20269999Y-19222700D02*
X20841428Y-19651271D01*
X39637428Y-57573800D02*
X38494571Y-57573800D01*
X17828366Y-7256738D02*
X17828366Y-6266262D01*
X18323604Y-6761500D02*
X17333128Y-6761500D01*
X1572366Y-7256738D02*
X1572366Y-6266262D01*
X2067604Y-6761500D02*
X1077128Y-6761500D01*
X3442571Y-6951271D02*
X4013999Y-6522700D01*
X4013999Y-6522700D02*
X4585428Y-6951271D01*
X39637428Y-6773800D02*
X38494571Y-6773800D01*
X47765428Y-6773800D02*
X46622571Y-6773800D01*
X50340366Y-58056738D02*
X50340366Y-57066262D01*
X50835604Y-57561500D02*
X49845128Y-57561500D01*
X42212366Y-32656738D02*
X42212366Y-31666262D01*
X42707604Y-32161500D02*
X41717128Y-32161500D01*
X23381428Y-57573800D02*
X22238571Y-57573800D01*
X25956366Y-32656738D02*
X25956366Y-31666262D01*
X26451604Y-32161500D02*
X25461128Y-32161500D01*
X11570571Y-19651271D02*
X12141999Y-19222700D01*
X12141999Y-19222700D02*
X12713428Y-19651271D01*
X25956366Y-19956738D02*
X25956366Y-18966262D01*
X26451604Y-19461500D02*
X25461128Y-19461500D01*
X58468366Y-19956738D02*
X58468366Y-18966262D01*
X58963604Y-19461500D02*
X57973128Y-19461500D01*
X42212366Y-70756738D02*
X42212366Y-69766262D01*
X42707604Y-70261500D02*
X41717128Y-70261500D01*
X15253428Y-70273800D02*
X14110571Y-70273800D01*
X23381428Y-19473800D02*
X22238571Y-19473800D01*
X55893428Y-19473800D02*
X54750571Y-19473800D01*
X11570571Y-6951271D02*
X12141999Y-6522700D01*
X12141999Y-6522700D02*
X12713428Y-6951271D01*
X31509428Y-70273800D02*
X30366571Y-70273800D01*
X35954571Y-57751271D02*
X36525999Y-57322700D01*
X36525999Y-57322700D02*
X37097428Y-57751271D01*
X50340366Y-7256738D02*
X50340366Y-6266262D01*
X50835604Y-6761500D02*
X49845128Y-6761500D01*
X25956366Y-7256738D02*
X25956366Y-6266262D01*
X26451604Y-6761500D02*
X25461128Y-6761500D01*
X55893428Y-70273800D02*
X54750571Y-70273800D01*
X27826571Y-57751271D02*
X28397999Y-57322700D01*
X28397999Y-57322700D02*
X28969428Y-57751271D01*
X17828366Y-45356738D02*
X17828366Y-44366262D01*
X18323604Y-44861500D02*
X17333128Y-44861500D01*
X60338571Y-19651271D02*
X60909999Y-19222700D01*
X60909999Y-19222700D02*
X61481428Y-19651271D01*
X58468366Y-70756738D02*
X58468366Y-69766262D01*
X58963604Y-70261500D02*
X57973128Y-70261500D01*
X55893428Y-44873800D02*
X54750571Y-44873800D01*
X50340366Y-19956738D02*
X50340366Y-18966262D01*
X50835604Y-19461500D02*
X49845128Y-19461500D01*
X39637428Y-19473800D02*
X38494571Y-19473800D01*
X52210571Y-70451271D02*
X52781999Y-70022700D01*
X52781999Y-70022700D02*
X53353428Y-70451271D01*
X34084366Y-70756738D02*
X34084366Y-69766262D01*
X34579604Y-70261500D02*
X33589128Y-70261500D01*
X58468366Y-32656738D02*
X58468366Y-31666262D01*
X58963604Y-32161500D02*
X57973128Y-32161500D01*
X47765428Y-32173800D02*
X46622571Y-32173800D01*
X34084366Y-45356738D02*
X34084366Y-44366262D01*
X34579604Y-44861500D02*
X33589128Y-44861500D01*
X7125428Y-57573800D02*
X5982571Y-57573800D01*
X17828366Y-32656738D02*
X17828366Y-31666262D01*
X18323604Y-32161500D02*
X17333128Y-32161500D01*
X27826571Y-45051271D02*
X28397999Y-44622700D01*
X28397999Y-44622700D02*
X28969428Y-45051271D01*
X64021428Y-44873800D02*
X62878571Y-44873800D01*
X31509428Y-6773800D02*
X30366571Y-6773800D01*
X17828366Y-58056738D02*
X17828366Y-57066262D01*
X18323604Y-57561500D02*
X17333128Y-57561500D01*
X44082571Y-57751271D02*
X44653999Y-57322700D01*
X44653999Y-57322700D02*
X45225428Y-57751271D01*
X50340366Y-32656738D02*
X50340366Y-31666262D01*
X50835604Y-32161500D02*
X49845128Y-32161500D01*
X9700366Y-7256738D02*
X9700366Y-6266262D01*
X10195604Y-6761500D02*
X9205128Y-6761500D01*
X7125428Y-44873800D02*
X5982571Y-44873800D01*
X3442571Y-57751271D02*
X4013999Y-57322700D01*
X4013999Y-57322700D02*
X4585428Y-57751271D01*
X39637428Y-70273800D02*
X38494571Y-70273800D01*
X11570571Y-70451271D02*
X12141999Y-70022700D01*
X12141999Y-70022700D02*
X12713428Y-70451271D01*
X19698571Y-70451271D02*
X20269999Y-70022700D01*
X20269999Y-70022700D02*
X20841428Y-70451271D01*
X3442571Y-32351271D02*
X4013999Y-31922700D01*
X4013999Y-31922700D02*
X4585428Y-32351271D01*
X52210571Y-19651271D02*
X52781999Y-19222700D01*
X52781999Y-19222700D02*
X53353428Y-19651271D01*
X35954571Y-32351271D02*
X36525999Y-31922700D01*
X36525999Y-31922700D02*
X37097428Y-32351271D01*
X34084366Y-19956738D02*
X34084366Y-18966262D01*
X34579604Y-19461500D02*
X33589128Y-19461500D01*
X60338571Y-6951271D02*
X60909999Y-6522700D01*
X60909999Y-6522700D02*
X61481428Y-6951271D01*
X9700366Y-19956738D02*
X9700366Y-18966262D01*
X10195604Y-19461500D02*
X9205128Y-19461500D01*
X64021428Y-19473800D02*
X62878571Y-19473800D01*
X60338571Y-70451271D02*
X60909999Y-70022700D01*
X60909999Y-70022700D02*
X61481428Y-70451271D01*
X15253428Y-6773800D02*
X14110571Y-6773800D01*
X15253428Y-44873800D02*
X14110571Y-44873800D01*
X44082571Y-70451271D02*
X44653999Y-70022700D01*
X44653999Y-70022700D02*
X45225428Y-70451271D01*
X35954571Y-6951271D02*
X36525999Y-6522700D01*
X36525999Y-6522700D02*
X37097428Y-6951271D01*
X35954571Y-45051271D02*
X36525999Y-44622700D01*
X36525999Y-44622700D02*
X37097428Y-45051271D01*
X7125428Y-19473800D02*
X5982571Y-19473800D01*
X52210571Y-32351271D02*
X52781999Y-31922700D01*
X52781999Y-31922700D02*
X53353428Y-32351271D01*
X9700366Y-32656738D02*
X9700366Y-31666262D01*
X10195604Y-32161500D02*
X9205128Y-32161500D01*
X64021428Y-57573800D02*
X62878571Y-57573800D01*
X3442571Y-70451271D02*
X4013999Y-70022700D01*
X4013999Y-70022700D02*
X4585428Y-70451271D01*
X1572366Y-32656738D02*
X1572366Y-31666262D01*
X2067604Y-32161500D02*
X1077128Y-32161500D01*
X7125428Y-32173800D02*
X5982571Y-32173800D01*
X17828366Y-19956738D02*
X17828366Y-18966262D01*
X18323604Y-19461500D02*
X17333128Y-19461500D01*
X7125428Y-70273800D02*
X5982571Y-70273800D01*
X1572366Y-19956738D02*
X1572366Y-18966262D01*
X2067604Y-19461500D02*
X1077128Y-19461500D01*
X47765428Y-57573800D02*
X46622571Y-57573800D01*
X35954571Y-70451271D02*
X36525999Y-70022700D01*
X36525999Y-70022700D02*
X37097428Y-70451271D01*
X34084366Y-7256738D02*
X34084366Y-6266262D01*
X34579604Y-6761500D02*
X33589128Y-6761500D01*
X1572366Y-58056738D02*
X1572366Y-57066262D01*
X2067604Y-57561500D02*
X1077128Y-57561500D01*
X55893428Y-57573800D02*
X54750571Y-57573800D01*
X39637428Y-32173800D02*
X38494571Y-32173800D01*
X19698571Y-32351271D02*
X20269999Y-31922700D01*
X20269999Y-31922700D02*
X20841428Y-32351271D01*
X27826571Y-19651271D02*
X28397999Y-19222700D01*
X28397999Y-19222700D02*
X28969428Y-19651271D01*
X25956366Y-58056738D02*
X25956366Y-57066262D01*
X26451604Y-57561500D02*
X25461128Y-57561500D01*
X42212366Y-7256738D02*
X42212366Y-6266262D01*
X42707604Y-6761500D02*
X41717128Y-6761500D01*
X47765428Y-44873800D02*
X46622571Y-44873800D01*
X23381428Y-70273800D02*
X22238571Y-70273800D01*
D11*
X25583428Y-1678328D02*
X25583428Y-2749757D01*
X25583428Y-2749757D02*
X25511999Y-2964042D01*
X25511999Y-2964042D02*
X25369142Y-3106900D01*
X25369142Y-3106900D02*
X25154856Y-3178328D01*
X25154856Y-3178328D02*
X25011999Y-3178328D01*
X27011999Y-3178328D02*
X26297713Y-3178328D01*
X26297713Y-3178328D02*
X26297713Y-1678328D01*
X28369142Y-3035471D02*
X28297714Y-3106900D01*
X28297714Y-3106900D02*
X28083428Y-3178328D01*
X28083428Y-3178328D02*
X27940571Y-3178328D01*
X27940571Y-3178328D02*
X27726285Y-3106900D01*
X27726285Y-3106900D02*
X27583428Y-2964042D01*
X27583428Y-2964042D02*
X27511999Y-2821185D01*
X27511999Y-2821185D02*
X27440571Y-2535471D01*
X27440571Y-2535471D02*
X27440571Y-2321185D01*
X27440571Y-2321185D02*
X27511999Y-2035471D01*
X27511999Y-2035471D02*
X27583428Y-1892614D01*
X27583428Y-1892614D02*
X27726285Y-1749757D01*
X27726285Y-1749757D02*
X27940571Y-1678328D01*
X27940571Y-1678328D02*
X28083428Y-1678328D01*
X28083428Y-1678328D02*
X28297714Y-1749757D01*
X28297714Y-1749757D02*
X28369142Y-1821185D01*
X29440571Y-1678328D02*
X29440571Y-2749757D01*
X29440571Y-2749757D02*
X29369142Y-2964042D01*
X29369142Y-2964042D02*
X29226285Y-3106900D01*
X29226285Y-3106900D02*
X29011999Y-3178328D01*
X29011999Y-3178328D02*
X28869142Y-3178328D01*
X30869142Y-3178328D02*
X30154856Y-3178328D01*
X30154856Y-3178328D02*
X30154856Y-1678328D01*
X32226285Y-3035471D02*
X32154857Y-3106900D01*
X32154857Y-3106900D02*
X31940571Y-3178328D01*
X31940571Y-3178328D02*
X31797714Y-3178328D01*
X31797714Y-3178328D02*
X31583428Y-3106900D01*
X31583428Y-3106900D02*
X31440571Y-2964042D01*
X31440571Y-2964042D02*
X31369142Y-2821185D01*
X31369142Y-2821185D02*
X31297714Y-2535471D01*
X31297714Y-2535471D02*
X31297714Y-2321185D01*
X31297714Y-2321185D02*
X31369142Y-2035471D01*
X31369142Y-2035471D02*
X31440571Y-1892614D01*
X31440571Y-1892614D02*
X31583428Y-1749757D01*
X31583428Y-1749757D02*
X31797714Y-1678328D01*
X31797714Y-1678328D02*
X31940571Y-1678328D01*
X31940571Y-1678328D02*
X32154857Y-1749757D01*
X32154857Y-1749757D02*
X32226285Y-1821185D01*
X33297714Y-1678328D02*
X33297714Y-2749757D01*
X33297714Y-2749757D02*
X33226285Y-2964042D01*
X33226285Y-2964042D02*
X33083428Y-3106900D01*
X33083428Y-3106900D02*
X32869142Y-3178328D01*
X32869142Y-3178328D02*
X32726285Y-3178328D01*
X34726285Y-3178328D02*
X34011999Y-3178328D01*
X34011999Y-3178328D02*
X34011999Y-1678328D01*
X36083428Y-3035471D02*
X36012000Y-3106900D01*
X36012000Y-3106900D02*
X35797714Y-3178328D01*
X35797714Y-3178328D02*
X35654857Y-3178328D01*
X35654857Y-3178328D02*
X35440571Y-3106900D01*
X35440571Y-3106900D02*
X35297714Y-2964042D01*
X35297714Y-2964042D02*
X35226285Y-2821185D01*
X35226285Y-2821185D02*
X35154857Y-2535471D01*
X35154857Y-2535471D02*
X35154857Y-2321185D01*
X35154857Y-2321185D02*
X35226285Y-2035471D01*
X35226285Y-2035471D02*
X35297714Y-1892614D01*
X35297714Y-1892614D02*
X35440571Y-1749757D01*
X35440571Y-1749757D02*
X35654857Y-1678328D01*
X35654857Y-1678328D02*
X35797714Y-1678328D01*
X35797714Y-1678328D02*
X36012000Y-1749757D01*
X36012000Y-1749757D02*
X36083428Y-1821185D01*
X37154857Y-1678328D02*
X37154857Y-2749757D01*
X37154857Y-2749757D02*
X37083428Y-2964042D01*
X37083428Y-2964042D02*
X36940571Y-3106900D01*
X36940571Y-3106900D02*
X36726285Y-3178328D01*
X36726285Y-3178328D02*
X36583428Y-3178328D01*
X38583428Y-3178328D02*
X37869142Y-3178328D01*
X37869142Y-3178328D02*
X37869142Y-1678328D01*
X39940571Y-3035471D02*
X39869143Y-3106900D01*
X39869143Y-3106900D02*
X39654857Y-3178328D01*
X39654857Y-3178328D02*
X39512000Y-3178328D01*
X39512000Y-3178328D02*
X39297714Y-3106900D01*
X39297714Y-3106900D02*
X39154857Y-2964042D01*
X39154857Y-2964042D02*
X39083428Y-2821185D01*
X39083428Y-2821185D02*
X39012000Y-2535471D01*
X39012000Y-2535471D02*
X39012000Y-2321185D01*
X39012000Y-2321185D02*
X39083428Y-2035471D01*
X39083428Y-2035471D02*
X39154857Y-1892614D01*
X39154857Y-1892614D02*
X39297714Y-1749757D01*
X39297714Y-1749757D02*
X39512000Y-1678328D01*
X39512000Y-1678328D02*
X39654857Y-1678328D01*
X39654857Y-1678328D02*
X39869143Y-1749757D01*
X39869143Y-1749757D02*
X39940571Y-1821185D01*
D10*
X58468366Y-45356738D02*
X58468366Y-44366262D01*
X58963604Y-44861500D02*
X57973128Y-44861500D01*
X9700366Y-70756738D02*
X9700366Y-69766262D01*
X10195604Y-70261500D02*
X9205128Y-70261500D01*
X1572366Y-45356738D02*
X1572366Y-44366262D01*
X2067604Y-44861500D02*
X1077128Y-44861500D01*
X19698571Y-45051271D02*
X20269999Y-44622700D01*
X20269999Y-44622700D02*
X20841428Y-45051271D01*
X17828366Y-70756738D02*
X17828366Y-69766262D01*
X18323604Y-70261500D02*
X17333128Y-70261500D01*
X50340366Y-70756738D02*
X50340366Y-69766262D01*
X50835604Y-70261500D02*
X49845128Y-70261500D01*
X23381428Y-44873800D02*
X22238571Y-44873800D01*
X52210571Y-57751271D02*
X52781999Y-57322700D01*
X52781999Y-57322700D02*
X53353428Y-57751271D01*
X25956366Y-45356738D02*
X25956366Y-44366262D01*
X26451604Y-44861500D02*
X25461128Y-44861500D01*
X11570571Y-45051271D02*
X12141999Y-44622700D01*
X12141999Y-44622700D02*
X12713428Y-45051271D01*
X25956366Y-70756738D02*
X25956366Y-69766262D01*
X26451604Y-70261500D02*
X25461128Y-70261500D01*
X44082571Y-19651271D02*
X44653999Y-19222700D01*
X44653999Y-19222700D02*
X45225428Y-19651271D01*
X64021428Y-70273800D02*
X62878571Y-70273800D01*
X60338571Y-45051271D02*
X60909999Y-44622700D01*
X60909999Y-44622700D02*
X61481428Y-45051271D01*
X7125428Y-6773800D02*
X5982571Y-6773800D01*
X9700366Y-58056738D02*
X9700366Y-57066262D01*
X10195604Y-57561500D02*
X9205128Y-57561500D01*
X1572366Y-70756738D02*
X1572366Y-69766262D01*
X2067604Y-70261500D02*
X1077128Y-70261500D01*
X64021428Y-32173800D02*
X62878571Y-32173800D01*
X44082571Y-32351271D02*
X44653999Y-31922700D01*
X44653999Y-31922700D02*
X45225428Y-32351271D01*
X15253428Y-19473800D02*
X14110571Y-19473800D01*
X52210571Y-6951271D02*
X52781999Y-6522700D01*
X52781999Y-6522700D02*
X53353428Y-6951271D01*
X47765428Y-70273800D02*
X46622571Y-70273800D01*
X55893428Y-6773800D02*
X54750571Y-6773800D01*
X60338571Y-32351271D02*
X60909999Y-31922700D01*
X60909999Y-31922700D02*
X61481428Y-32351271D01*
X19698571Y-6951271D02*
X20269999Y-6522700D01*
X20269999Y-6522700D02*
X20841428Y-6951271D01*
X42212366Y-58056738D02*
X42212366Y-57066262D01*
X42707604Y-57561500D02*
X41717128Y-57561500D01*
X3442571Y-19651271D02*
X4013999Y-19222700D01*
X4013999Y-19222700D02*
X4585428Y-19651271D01*
D12*
G04 #@! TO.C,U1*
X13592000Y-12554500D02*
X10792000Y-12554500D01*
X13592000Y-15954500D02*
X10522000Y-15954500D01*
X9962000Y-16144500D02*
X9682000Y-15864500D01*
X9962000Y-15864500D01*
X9962000Y-16144500D01*
G36*
X9962000Y-16144500D02*
G01*
X9682000Y-15864500D01*
X9962000Y-15864500D01*
X9962000Y-16144500D01*
G37*
G04 #@! TO.C,TP2*
X34306000Y-10129500D02*
X36206000Y-10129500D01*
X34306000Y-12029500D02*
X34306000Y-10129500D01*
X36206000Y-10129500D02*
X36206000Y-12029500D01*
X36206000Y-12029500D02*
X34306000Y-12029500D01*
G04 #@! TO.C,R1*
X34510742Y-54499000D02*
X34985258Y-54499000D01*
X34510742Y-55544000D02*
X34985258Y-55544000D01*
G04 #@! TO.C,R2*
X13682742Y-54499000D02*
X14157258Y-54499000D01*
X13682742Y-55544000D02*
X14157258Y-55544000D01*
G04 #@! TO.C,TP1*
X4334000Y-60929500D02*
X6234000Y-60929500D01*
X4334000Y-62829500D02*
X4334000Y-60929500D01*
X6234000Y-60929500D02*
X6234000Y-62829500D01*
X6234000Y-62829500D02*
X4334000Y-62829500D01*
G04 #@! TO.C,U1*
X13592000Y-37954500D02*
X10792000Y-37954500D01*
X13592000Y-41354500D02*
X10522000Y-41354500D01*
X9962000Y-41544500D02*
X9682000Y-41264500D01*
X9962000Y-41264500D01*
X9962000Y-41544500D01*
G36*
X9962000Y-41544500D02*
G01*
X9682000Y-41264500D01*
X9962000Y-41264500D01*
X9962000Y-41544500D01*
G37*
G04 #@! TO.C,TP1*
X12462000Y-48229500D02*
X14362000Y-48229500D01*
X12462000Y-50129500D02*
X12462000Y-48229500D01*
X14362000Y-48229500D02*
X14362000Y-50129500D01*
X14362000Y-50129500D02*
X12462000Y-50129500D01*
G04 #@! TO.C,U1*
X5464000Y-37954500D02*
X2664000Y-37954500D01*
X5464000Y-41354500D02*
X2394000Y-41354500D01*
X1834000Y-41544500D02*
X1554000Y-41264500D01*
X1834000Y-41264500D01*
X1834000Y-41544500D01*
G36*
X1834000Y-41544500D02*
G01*
X1554000Y-41264500D01*
X1834000Y-41264500D01*
X1834000Y-41544500D01*
G37*
G04 #@! TO.C,R1*
X58894742Y-41799000D02*
X59369258Y-41799000D01*
X58894742Y-42844000D02*
X59369258Y-42844000D01*
G04 #@! TO.C,TP2*
X18050000Y-60929500D02*
X19950000Y-60929500D01*
X18050000Y-62829500D02*
X18050000Y-60929500D01*
X19950000Y-60929500D02*
X19950000Y-62829500D01*
X19950000Y-62829500D02*
X18050000Y-62829500D01*
G04 #@! TO.C,TP1*
X61230000Y-60929500D02*
X63130000Y-60929500D01*
X61230000Y-62829500D02*
X61230000Y-60929500D01*
X63130000Y-60929500D02*
X63130000Y-62829500D01*
X63130000Y-62829500D02*
X61230000Y-62829500D01*
G04 #@! TO.C,TP2*
X26178000Y-10129500D02*
X28078000Y-10129500D01*
X26178000Y-12029500D02*
X26178000Y-10129500D01*
X28078000Y-10129500D02*
X28078000Y-12029500D01*
X28078000Y-12029500D02*
X26178000Y-12029500D01*
X1794000Y-48229500D02*
X3694000Y-48229500D01*
X1794000Y-50129500D02*
X1794000Y-48229500D01*
X3694000Y-48229500D02*
X3694000Y-50129500D01*
X3694000Y-50129500D02*
X1794000Y-50129500D01*
G04 #@! TO.C,TP1*
X61230000Y-73629500D02*
X63130000Y-73629500D01*
X61230000Y-75529500D02*
X61230000Y-73629500D01*
X63130000Y-73629500D02*
X63130000Y-75529500D01*
X63130000Y-75529500D02*
X61230000Y-75529500D01*
X53102000Y-60929500D02*
X55002000Y-60929500D01*
X53102000Y-62829500D02*
X53102000Y-60929500D01*
X55002000Y-60929500D02*
X55002000Y-62829500D01*
X55002000Y-62829500D02*
X53102000Y-62829500D01*
G04 #@! TO.C,TP2*
X9922000Y-22829500D02*
X11822000Y-22829500D01*
X9922000Y-24729500D02*
X9922000Y-22829500D01*
X11822000Y-22829500D02*
X11822000Y-24729500D01*
X11822000Y-24729500D02*
X9922000Y-24729500D01*
G04 #@! TO.C,R1*
X34510742Y-41799000D02*
X34985258Y-41799000D01*
X34510742Y-42844000D02*
X34985258Y-42844000D01*
G04 #@! TO.C,R2*
X29938742Y-67199000D02*
X30413258Y-67199000D01*
X29938742Y-68244000D02*
X30413258Y-68244000D01*
G04 #@! TO.C,TP2*
X1794000Y-60929500D02*
X3694000Y-60929500D01*
X1794000Y-62829500D02*
X1794000Y-60929500D01*
X3694000Y-60929500D02*
X3694000Y-62829500D01*
X3694000Y-62829500D02*
X1794000Y-62829500D01*
G04 #@! TO.C,TP1*
X4334000Y-35529500D02*
X6234000Y-35529500D01*
X4334000Y-37429500D02*
X4334000Y-35529500D01*
X6234000Y-35529500D02*
X6234000Y-37429500D01*
X6234000Y-37429500D02*
X4334000Y-37429500D01*
G04 #@! TO.C,R2*
X21810742Y-79899000D02*
X22285258Y-79899000D01*
X21810742Y-80944000D02*
X22285258Y-80944000D01*
G04 #@! TO.C,R1*
X10126742Y-67199000D02*
X10601258Y-67199000D01*
X10126742Y-68244000D02*
X10601258Y-68244000D01*
X10126742Y-16399000D02*
X10601258Y-16399000D01*
X10126742Y-17444000D02*
X10601258Y-17444000D01*
G04 #@! TO.C,TP2*
X9922000Y-10129500D02*
X11822000Y-10129500D01*
X9922000Y-12029500D02*
X9922000Y-10129500D01*
X11822000Y-10129500D02*
X11822000Y-12029500D01*
X11822000Y-12029500D02*
X9922000Y-12029500D01*
G04 #@! TO.C,U1*
X21720000Y-63354500D02*
X18920000Y-63354500D01*
X21720000Y-66754500D02*
X18650000Y-66754500D01*
X18090000Y-66944500D02*
X17810000Y-66664500D01*
X18090000Y-66664500D01*
X18090000Y-66944500D01*
G36*
X18090000Y-66944500D02*
G01*
X17810000Y-66664500D01*
X18090000Y-66664500D01*
X18090000Y-66944500D01*
G37*
G04 #@! TO.C,R1*
X1998742Y-54499000D02*
X2473258Y-54499000D01*
X1998742Y-55544000D02*
X2473258Y-55544000D01*
G04 #@! TO.C,TP2*
X18050000Y-48229500D02*
X19950000Y-48229500D01*
X18050000Y-50129500D02*
X18050000Y-48229500D01*
X19950000Y-48229500D02*
X19950000Y-50129500D01*
X19950000Y-50129500D02*
X18050000Y-50129500D01*
G04 #@! TO.C,R2*
X62450742Y-79899000D02*
X62925258Y-79899000D01*
X62450742Y-80944000D02*
X62925258Y-80944000D01*
G04 #@! TO.C,TP2*
X9922000Y-35529500D02*
X11822000Y-35529500D01*
X9922000Y-37429500D02*
X9922000Y-35529500D01*
X11822000Y-35529500D02*
X11822000Y-37429500D01*
X11822000Y-37429500D02*
X9922000Y-37429500D01*
X58690000Y-10129500D02*
X60590000Y-10129500D01*
X58690000Y-12029500D02*
X58690000Y-10129500D01*
X60590000Y-10129500D02*
X60590000Y-12029500D01*
X60590000Y-12029500D02*
X58690000Y-12029500D01*
G04 #@! TO.C,R1*
X1998742Y-67199000D02*
X2473258Y-67199000D01*
X1998742Y-68244000D02*
X2473258Y-68244000D01*
G04 #@! TO.C,TP2*
X58690000Y-48229500D02*
X60590000Y-48229500D01*
X58690000Y-50129500D02*
X58690000Y-48229500D01*
X60590000Y-48229500D02*
X60590000Y-50129500D01*
X60590000Y-50129500D02*
X58690000Y-50129500D01*
G04 #@! TO.C,U1*
X37976000Y-12554500D02*
X35176000Y-12554500D01*
X37976000Y-15954500D02*
X34906000Y-15954500D01*
X34346000Y-16144500D02*
X34066000Y-15864500D01*
X34346000Y-15864500D01*
X34346000Y-16144500D01*
G36*
X34346000Y-16144500D02*
G01*
X34066000Y-15864500D01*
X34346000Y-15864500D01*
X34346000Y-16144500D01*
G37*
G04 #@! TO.C,R2*
X62450742Y-67199000D02*
X62925258Y-67199000D01*
X62450742Y-68244000D02*
X62925258Y-68244000D01*
X38066742Y-41799000D02*
X38541258Y-41799000D01*
X38066742Y-42844000D02*
X38541258Y-42844000D01*
X62450742Y-54499000D02*
X62925258Y-54499000D01*
X62450742Y-55544000D02*
X62925258Y-55544000D01*
G04 #@! TO.C,U1*
X5464000Y-76054500D02*
X2664000Y-76054500D01*
X5464000Y-79454500D02*
X2394000Y-79454500D01*
X1834000Y-79644500D02*
X1554000Y-79364500D01*
X1834000Y-79364500D01*
X1834000Y-79644500D01*
G36*
X1834000Y-79644500D02*
G01*
X1554000Y-79364500D01*
X1834000Y-79364500D01*
X1834000Y-79644500D01*
G37*
G04 #@! TO.C,R1*
X26382742Y-54499000D02*
X26857258Y-54499000D01*
X26382742Y-55544000D02*
X26857258Y-55544000D01*
G04 #@! TO.C,U1*
X21720000Y-12554500D02*
X18920000Y-12554500D01*
X21720000Y-15954500D02*
X18650000Y-15954500D01*
X18090000Y-16144500D02*
X17810000Y-15864500D01*
X18090000Y-15864500D01*
X18090000Y-16144500D01*
G36*
X18090000Y-16144500D02*
G01*
X17810000Y-15864500D01*
X18090000Y-15864500D01*
X18090000Y-16144500D01*
G37*
G04 #@! TO.C,R2*
X38066742Y-29099000D02*
X38541258Y-29099000D01*
X38066742Y-30144000D02*
X38541258Y-30144000D01*
X46194742Y-67199000D02*
X46669258Y-67199000D01*
X46194742Y-68244000D02*
X46669258Y-68244000D01*
G04 #@! TO.C,U1*
X29848000Y-50654500D02*
X27048000Y-50654500D01*
X29848000Y-54054500D02*
X26778000Y-54054500D01*
X26218000Y-54244500D02*
X25938000Y-53964500D01*
X26218000Y-53964500D01*
X26218000Y-54244500D01*
G36*
X26218000Y-54244500D02*
G01*
X25938000Y-53964500D01*
X26218000Y-53964500D01*
X26218000Y-54244500D01*
G37*
G04 #@! TO.C,R2*
X21810742Y-29099000D02*
X22285258Y-29099000D01*
X21810742Y-30144000D02*
X22285258Y-30144000D01*
X62450742Y-16399000D02*
X62925258Y-16399000D01*
X62450742Y-17444000D02*
X62925258Y-17444000D01*
G04 #@! TO.C,R1*
X58894742Y-29099000D02*
X59369258Y-29099000D01*
X58894742Y-30144000D02*
X59369258Y-30144000D01*
G04 #@! TO.C,TP1*
X20590000Y-35529500D02*
X22490000Y-35529500D01*
X20590000Y-37429500D02*
X20590000Y-35529500D01*
X22490000Y-35529500D02*
X22490000Y-37429500D01*
X22490000Y-37429500D02*
X20590000Y-37429500D01*
G04 #@! TO.C,R1*
X1998742Y-41799000D02*
X2473258Y-41799000D01*
X1998742Y-42844000D02*
X2473258Y-42844000D01*
G04 #@! TO.C,TP2*
X58690000Y-60929500D02*
X60590000Y-60929500D01*
X58690000Y-62829500D02*
X58690000Y-60929500D01*
X60590000Y-60929500D02*
X60590000Y-62829500D01*
X60590000Y-62829500D02*
X58690000Y-62829500D01*
G04 #@! TO.C,TP1*
X20590000Y-10129500D02*
X22490000Y-10129500D01*
X20590000Y-12029500D02*
X20590000Y-10129500D01*
X22490000Y-10129500D02*
X22490000Y-12029500D01*
X22490000Y-12029500D02*
X20590000Y-12029500D01*
X28718000Y-73629500D02*
X30618000Y-73629500D01*
X28718000Y-75529500D02*
X28718000Y-73629500D01*
X30618000Y-73629500D02*
X30618000Y-75529500D01*
X30618000Y-75529500D02*
X28718000Y-75529500D01*
G04 #@! TO.C,R1*
X50766742Y-54499000D02*
X51241258Y-54499000D01*
X50766742Y-55544000D02*
X51241258Y-55544000D01*
G04 #@! TO.C,TP2*
X26178000Y-22829500D02*
X28078000Y-22829500D01*
X26178000Y-24729500D02*
X26178000Y-22829500D01*
X28078000Y-22829500D02*
X28078000Y-24729500D01*
X28078000Y-24729500D02*
X26178000Y-24729500D01*
G04 #@! TO.C,U1*
X21720000Y-76054500D02*
X18920000Y-76054500D01*
X21720000Y-79454500D02*
X18650000Y-79454500D01*
X18090000Y-79644500D02*
X17810000Y-79364500D01*
X18090000Y-79364500D01*
X18090000Y-79644500D01*
G36*
X18090000Y-79644500D02*
G01*
X17810000Y-79364500D01*
X18090000Y-79364500D01*
X18090000Y-79644500D01*
G37*
G04 #@! TO.C,TP1*
X20590000Y-22829500D02*
X22490000Y-22829500D01*
X20590000Y-24729500D02*
X20590000Y-22829500D01*
X22490000Y-22829500D02*
X22490000Y-24729500D01*
X22490000Y-24729500D02*
X20590000Y-24729500D01*
G04 #@! TO.C,R2*
X29938742Y-54499000D02*
X30413258Y-54499000D01*
X29938742Y-55544000D02*
X30413258Y-55544000D01*
G04 #@! TO.C,TP2*
X58690000Y-22829500D02*
X60590000Y-22829500D01*
X58690000Y-24729500D02*
X58690000Y-22829500D01*
X60590000Y-22829500D02*
X60590000Y-24729500D01*
X60590000Y-24729500D02*
X58690000Y-24729500D01*
X42434000Y-22829500D02*
X44334000Y-22829500D01*
X42434000Y-24729500D02*
X42434000Y-22829500D01*
X44334000Y-22829500D02*
X44334000Y-24729500D01*
X44334000Y-24729500D02*
X42434000Y-24729500D01*
G04 #@! TO.C,R1*
X50766742Y-67199000D02*
X51241258Y-67199000D01*
X50766742Y-68244000D02*
X51241258Y-68244000D01*
G04 #@! TO.C,TP1*
X44974000Y-60929500D02*
X46874000Y-60929500D01*
X44974000Y-62829500D02*
X44974000Y-60929500D01*
X46874000Y-60929500D02*
X46874000Y-62829500D01*
X46874000Y-62829500D02*
X44974000Y-62829500D01*
G04 #@! TO.C,TP2*
X1794000Y-73629500D02*
X3694000Y-73629500D01*
X1794000Y-75529500D02*
X1794000Y-73629500D01*
X3694000Y-73629500D02*
X3694000Y-75529500D01*
X3694000Y-75529500D02*
X1794000Y-75529500D01*
G04 #@! TO.C,TP1*
X20590000Y-60929500D02*
X22490000Y-60929500D01*
X20590000Y-62829500D02*
X20590000Y-60929500D01*
X22490000Y-60929500D02*
X22490000Y-62829500D01*
X22490000Y-62829500D02*
X20590000Y-62829500D01*
G04 #@! TO.C,TP2*
X50562000Y-73629500D02*
X52462000Y-73629500D01*
X50562000Y-75529500D02*
X50562000Y-73629500D01*
X52462000Y-73629500D02*
X52462000Y-75529500D01*
X52462000Y-75529500D02*
X50562000Y-75529500D01*
X50562000Y-60929500D02*
X52462000Y-60929500D01*
X50562000Y-62829500D02*
X50562000Y-60929500D01*
X52462000Y-60929500D02*
X52462000Y-62829500D01*
X52462000Y-62829500D02*
X50562000Y-62829500D01*
G04 #@! TO.C,R1*
X26382742Y-79899000D02*
X26857258Y-79899000D01*
X26382742Y-80944000D02*
X26857258Y-80944000D01*
G04 #@! TO.C,U1*
X37976000Y-76054500D02*
X35176000Y-76054500D01*
X37976000Y-79454500D02*
X34906000Y-79454500D01*
X34346000Y-79644500D02*
X34066000Y-79364500D01*
X34346000Y-79364500D01*
X34346000Y-79644500D01*
G36*
X34346000Y-79644500D02*
G01*
X34066000Y-79364500D01*
X34346000Y-79364500D01*
X34346000Y-79644500D01*
G37*
G04 #@! TO.C,TP1*
X44974000Y-10129500D02*
X46874000Y-10129500D01*
X44974000Y-12029500D02*
X44974000Y-10129500D01*
X46874000Y-10129500D02*
X46874000Y-12029500D01*
X46874000Y-12029500D02*
X44974000Y-12029500D01*
G04 #@! TO.C,TP2*
X18050000Y-10129500D02*
X19950000Y-10129500D01*
X18050000Y-12029500D02*
X18050000Y-10129500D01*
X19950000Y-10129500D02*
X19950000Y-12029500D01*
X19950000Y-12029500D02*
X18050000Y-12029500D01*
G04 #@! TO.C,R2*
X5554742Y-67199000D02*
X6029258Y-67199000D01*
X5554742Y-68244000D02*
X6029258Y-68244000D01*
G04 #@! TO.C,R1*
X58894742Y-67199000D02*
X59369258Y-67199000D01*
X58894742Y-68244000D02*
X59369258Y-68244000D01*
G04 #@! TO.C,U1*
X37976000Y-25254500D02*
X35176000Y-25254500D01*
X37976000Y-28654500D02*
X34906000Y-28654500D01*
X34346000Y-28844500D02*
X34066000Y-28564500D01*
X34346000Y-28564500D01*
X34346000Y-28844500D01*
G36*
X34346000Y-28844500D02*
G01*
X34066000Y-28564500D01*
X34346000Y-28564500D01*
X34346000Y-28844500D01*
G37*
X54232000Y-76054500D02*
X51432000Y-76054500D01*
X54232000Y-79454500D02*
X51162000Y-79454500D01*
X50602000Y-79644500D02*
X50322000Y-79364500D01*
X50602000Y-79364500D01*
X50602000Y-79644500D01*
G36*
X50602000Y-79644500D02*
G01*
X50322000Y-79364500D01*
X50602000Y-79364500D01*
X50602000Y-79644500D01*
G37*
G04 #@! TO.C,TP2*
X34306000Y-48229500D02*
X36206000Y-48229500D01*
X34306000Y-50129500D02*
X34306000Y-48229500D01*
X36206000Y-48229500D02*
X36206000Y-50129500D01*
X36206000Y-50129500D02*
X34306000Y-50129500D01*
G04 #@! TO.C,U1*
X54232000Y-37954500D02*
X51432000Y-37954500D01*
X54232000Y-41354500D02*
X51162000Y-41354500D01*
X50602000Y-41544500D02*
X50322000Y-41264500D01*
X50602000Y-41264500D01*
X50602000Y-41544500D01*
G36*
X50602000Y-41544500D02*
G01*
X50322000Y-41264500D01*
X50602000Y-41264500D01*
X50602000Y-41544500D01*
G37*
G04 #@! TO.C,R2*
X46194742Y-54499000D02*
X46669258Y-54499000D01*
X46194742Y-55544000D02*
X46669258Y-55544000D01*
G04 #@! TO.C,U1*
X21720000Y-25254500D02*
X18920000Y-25254500D01*
X21720000Y-28654500D02*
X18650000Y-28654500D01*
X18090000Y-28844500D02*
X17810000Y-28564500D01*
X18090000Y-28564500D01*
X18090000Y-28844500D01*
G36*
X18090000Y-28844500D02*
G01*
X17810000Y-28564500D01*
X18090000Y-28564500D01*
X18090000Y-28844500D01*
G37*
G04 #@! TO.C,R2*
X21810742Y-16399000D02*
X22285258Y-16399000D01*
X21810742Y-17444000D02*
X22285258Y-17444000D01*
G04 #@! TO.C,R1*
X34510742Y-79899000D02*
X34985258Y-79899000D01*
X34510742Y-80944000D02*
X34985258Y-80944000D01*
G04 #@! TO.C,TP1*
X36846000Y-73629500D02*
X38746000Y-73629500D01*
X36846000Y-75529500D02*
X36846000Y-73629500D01*
X38746000Y-73629500D02*
X38746000Y-75529500D01*
X38746000Y-75529500D02*
X36846000Y-75529500D01*
G04 #@! TO.C,U1*
X5464000Y-63354500D02*
X2664000Y-63354500D01*
X5464000Y-66754500D02*
X2394000Y-66754500D01*
X1834000Y-66944500D02*
X1554000Y-66664500D01*
X1834000Y-66664500D01*
X1834000Y-66944500D01*
G36*
X1834000Y-66944500D02*
G01*
X1554000Y-66664500D01*
X1834000Y-66664500D01*
X1834000Y-66944500D01*
G37*
G04 #@! TO.C,R2*
X29938742Y-16399000D02*
X30413258Y-16399000D01*
X29938742Y-17444000D02*
X30413258Y-17444000D01*
X21810742Y-41799000D02*
X22285258Y-41799000D01*
X21810742Y-42844000D02*
X22285258Y-42844000D01*
G04 #@! TO.C,TP1*
X4334000Y-10129500D02*
X6234000Y-10129500D01*
X4334000Y-12029500D02*
X4334000Y-10129500D01*
X6234000Y-10129500D02*
X6234000Y-12029500D01*
X6234000Y-12029500D02*
X4334000Y-12029500D01*
G04 #@! TO.C,TP2*
X26178000Y-60929500D02*
X28078000Y-60929500D01*
X26178000Y-62829500D02*
X26178000Y-60929500D01*
X28078000Y-60929500D02*
X28078000Y-62829500D01*
X28078000Y-62829500D02*
X26178000Y-62829500D01*
G04 #@! TO.C,TP1*
X4334000Y-22829500D02*
X6234000Y-22829500D01*
X4334000Y-24729500D02*
X4334000Y-22829500D01*
X6234000Y-22829500D02*
X6234000Y-24729500D01*
X6234000Y-24729500D02*
X4334000Y-24729500D01*
G04 #@! TO.C,R1*
X50766742Y-79899000D02*
X51241258Y-79899000D01*
X50766742Y-80944000D02*
X51241258Y-80944000D01*
G04 #@! TO.C,U1*
X46104000Y-76054500D02*
X43304000Y-76054500D01*
X46104000Y-79454500D02*
X43034000Y-79454500D01*
X42474000Y-79644500D02*
X42194000Y-79364500D01*
X42474000Y-79364500D01*
X42474000Y-79644500D01*
G36*
X42474000Y-79644500D02*
G01*
X42194000Y-79364500D01*
X42474000Y-79364500D01*
X42474000Y-79644500D01*
G37*
G04 #@! TO.C,R2*
X62450742Y-29099000D02*
X62925258Y-29099000D01*
X62450742Y-30144000D02*
X62925258Y-30144000D01*
G04 #@! TO.C,U1*
X54232000Y-63354500D02*
X51432000Y-63354500D01*
X54232000Y-66754500D02*
X51162000Y-66754500D01*
X50602000Y-66944500D02*
X50322000Y-66664500D01*
X50602000Y-66664500D01*
X50602000Y-66944500D01*
G36*
X50602000Y-66944500D02*
G01*
X50322000Y-66664500D01*
X50602000Y-66664500D01*
X50602000Y-66944500D01*
G37*
G04 #@! TO.C,R2*
X54322742Y-41799000D02*
X54797258Y-41799000D01*
X54322742Y-42844000D02*
X54797258Y-42844000D01*
G04 #@! TO.C,R1*
X10126742Y-29099000D02*
X10601258Y-29099000D01*
X10126742Y-30144000D02*
X10601258Y-30144000D01*
G04 #@! TO.C,TP1*
X4334000Y-48229500D02*
X6234000Y-48229500D01*
X4334000Y-50129500D02*
X4334000Y-48229500D01*
X6234000Y-48229500D02*
X6234000Y-50129500D01*
X6234000Y-50129500D02*
X4334000Y-50129500D01*
G04 #@! TO.C,R1*
X1998742Y-29099000D02*
X2473258Y-29099000D01*
X1998742Y-30144000D02*
X2473258Y-30144000D01*
G04 #@! TO.C,TP2*
X34306000Y-73629500D02*
X36206000Y-73629500D01*
X34306000Y-75529500D02*
X34306000Y-73629500D01*
X36206000Y-73629500D02*
X36206000Y-75529500D01*
X36206000Y-75529500D02*
X34306000Y-75529500D01*
G04 #@! TO.C,TP1*
X12462000Y-60929500D02*
X14362000Y-60929500D01*
X12462000Y-62829500D02*
X12462000Y-60929500D01*
X14362000Y-60929500D02*
X14362000Y-62829500D01*
X14362000Y-62829500D02*
X12462000Y-62829500D01*
G04 #@! TO.C,TP2*
X18050000Y-73629500D02*
X19950000Y-73629500D01*
X18050000Y-75529500D02*
X18050000Y-73629500D01*
X19950000Y-73629500D02*
X19950000Y-75529500D01*
X19950000Y-75529500D02*
X18050000Y-75529500D01*
G04 #@! TO.C,R1*
X26382742Y-29099000D02*
X26857258Y-29099000D01*
X26382742Y-30144000D02*
X26857258Y-30144000D01*
G04 #@! TO.C,U1*
X13592000Y-25254500D02*
X10792000Y-25254500D01*
X13592000Y-28654500D02*
X10522000Y-28654500D01*
X9962000Y-28844500D02*
X9682000Y-28564500D01*
X9962000Y-28564500D01*
X9962000Y-28844500D01*
G36*
X9962000Y-28844500D02*
G01*
X9682000Y-28564500D01*
X9962000Y-28564500D01*
X9962000Y-28844500D01*
G37*
G04 #@! TO.C,TP1*
X44974000Y-48229500D02*
X46874000Y-48229500D01*
X44974000Y-50129500D02*
X44974000Y-48229500D01*
X46874000Y-48229500D02*
X46874000Y-50129500D01*
X46874000Y-50129500D02*
X44974000Y-50129500D01*
X28718000Y-48229500D02*
X30618000Y-48229500D01*
X28718000Y-50129500D02*
X28718000Y-48229500D01*
X30618000Y-48229500D02*
X30618000Y-50129500D01*
X30618000Y-50129500D02*
X28718000Y-50129500D01*
X44974000Y-73629500D02*
X46874000Y-73629500D01*
X44974000Y-75529500D02*
X44974000Y-73629500D01*
X46874000Y-73629500D02*
X46874000Y-75529500D01*
X46874000Y-75529500D02*
X44974000Y-75529500D01*
X36846000Y-22829500D02*
X38746000Y-22829500D01*
X36846000Y-24729500D02*
X36846000Y-22829500D01*
X38746000Y-22829500D02*
X38746000Y-24729500D01*
X38746000Y-24729500D02*
X36846000Y-24729500D01*
X36846000Y-60929500D02*
X38746000Y-60929500D01*
X36846000Y-62829500D02*
X36846000Y-60929500D01*
X38746000Y-60929500D02*
X38746000Y-62829500D01*
X38746000Y-62829500D02*
X36846000Y-62829500D01*
G04 #@! TO.C,R1*
X50766742Y-16399000D02*
X51241258Y-16399000D01*
X50766742Y-17444000D02*
X51241258Y-17444000D01*
G04 #@! TO.C,TP1*
X61230000Y-10129500D02*
X63130000Y-10129500D01*
X61230000Y-12029500D02*
X61230000Y-10129500D01*
X63130000Y-10129500D02*
X63130000Y-12029500D01*
X63130000Y-12029500D02*
X61230000Y-12029500D01*
G04 #@! TO.C,R2*
X46194742Y-29099000D02*
X46669258Y-29099000D01*
X46194742Y-30144000D02*
X46669258Y-30144000D01*
G04 #@! TO.C,U1*
X62360000Y-25254500D02*
X59560000Y-25254500D01*
X62360000Y-28654500D02*
X59290000Y-28654500D01*
X58730000Y-28844500D02*
X58450000Y-28564500D01*
X58730000Y-28564500D01*
X58730000Y-28844500D01*
G36*
X58730000Y-28844500D02*
G01*
X58450000Y-28564500D01*
X58730000Y-28564500D01*
X58730000Y-28844500D01*
G37*
G04 #@! TO.C,R2*
X13682742Y-79899000D02*
X14157258Y-79899000D01*
X13682742Y-80944000D02*
X14157258Y-80944000D01*
X21810742Y-54499000D02*
X22285258Y-54499000D01*
X21810742Y-55544000D02*
X22285258Y-55544000D01*
G04 #@! TO.C,TP1*
X61230000Y-48229500D02*
X63130000Y-48229500D01*
X61230000Y-50129500D02*
X61230000Y-48229500D01*
X63130000Y-48229500D02*
X63130000Y-50129500D01*
X63130000Y-50129500D02*
X61230000Y-50129500D01*
G04 #@! TO.C,R2*
X5554742Y-79899000D02*
X6029258Y-79899000D01*
X5554742Y-80944000D02*
X6029258Y-80944000D01*
G04 #@! TO.C,TP2*
X18050000Y-22829500D02*
X19950000Y-22829500D01*
X18050000Y-24729500D02*
X18050000Y-22829500D01*
X19950000Y-22829500D02*
X19950000Y-24729500D01*
X19950000Y-24729500D02*
X18050000Y-24729500D01*
G04 #@! TO.C,U1*
X46104000Y-50654500D02*
X43304000Y-50654500D01*
X46104000Y-54054500D02*
X43034000Y-54054500D01*
X42474000Y-54244500D02*
X42194000Y-53964500D01*
X42474000Y-53964500D01*
X42474000Y-54244500D01*
G36*
X42474000Y-54244500D02*
G01*
X42194000Y-53964500D01*
X42474000Y-53964500D01*
X42474000Y-54244500D01*
G37*
G04 #@! TO.C,R1*
X42638742Y-79899000D02*
X43113258Y-79899000D01*
X42638742Y-80944000D02*
X43113258Y-80944000D01*
G04 #@! TO.C,U1*
X46104000Y-63354500D02*
X43304000Y-63354500D01*
X46104000Y-66754500D02*
X43034000Y-66754500D01*
X42474000Y-66944500D02*
X42194000Y-66664500D01*
X42474000Y-66664500D01*
X42474000Y-66944500D01*
G36*
X42474000Y-66944500D02*
G01*
X42194000Y-66664500D01*
X42474000Y-66664500D01*
X42474000Y-66944500D01*
G37*
X29848000Y-76054500D02*
X27048000Y-76054500D01*
X29848000Y-79454500D02*
X26778000Y-79454500D01*
X26218000Y-79644500D02*
X25938000Y-79364500D01*
X26218000Y-79364500D01*
X26218000Y-79644500D01*
G36*
X26218000Y-79644500D02*
G01*
X25938000Y-79364500D01*
X26218000Y-79364500D01*
X26218000Y-79644500D01*
G37*
X37976000Y-37954500D02*
X35176000Y-37954500D01*
X37976000Y-41354500D02*
X34906000Y-41354500D01*
X34346000Y-41544500D02*
X34066000Y-41264500D01*
X34346000Y-41264500D01*
X34346000Y-41544500D01*
G36*
X34346000Y-41544500D02*
G01*
X34066000Y-41264500D01*
X34346000Y-41264500D01*
X34346000Y-41544500D01*
G37*
G04 #@! TO.C,R1*
X42638742Y-67199000D02*
X43113258Y-67199000D01*
X42638742Y-68244000D02*
X43113258Y-68244000D01*
X42638742Y-29099000D02*
X43113258Y-29099000D01*
X42638742Y-30144000D02*
X43113258Y-30144000D01*
G04 #@! TO.C,U1*
X37976000Y-50654500D02*
X35176000Y-50654500D01*
X37976000Y-54054500D02*
X34906000Y-54054500D01*
X34346000Y-54244500D02*
X34066000Y-53964500D01*
X34346000Y-53964500D01*
X34346000Y-54244500D01*
G36*
X34346000Y-54244500D02*
G01*
X34066000Y-53964500D01*
X34346000Y-53964500D01*
X34346000Y-54244500D01*
G37*
G04 #@! TO.C,TP2*
X50562000Y-10129500D02*
X52462000Y-10129500D01*
X50562000Y-12029500D02*
X50562000Y-10129500D01*
X52462000Y-10129500D02*
X52462000Y-12029500D01*
X52462000Y-12029500D02*
X50562000Y-12029500D01*
G04 #@! TO.C,TP1*
X53102000Y-73629500D02*
X55002000Y-73629500D01*
X53102000Y-75529500D02*
X53102000Y-73629500D01*
X55002000Y-73629500D02*
X55002000Y-75529500D01*
X55002000Y-75529500D02*
X53102000Y-75529500D01*
G04 #@! TO.C,R2*
X62450742Y-41799000D02*
X62925258Y-41799000D01*
X62450742Y-42844000D02*
X62925258Y-42844000D01*
X38066742Y-79899000D02*
X38541258Y-79899000D01*
X38066742Y-80944000D02*
X38541258Y-80944000D01*
G04 #@! TO.C,R1*
X18254742Y-29099000D02*
X18729258Y-29099000D01*
X18254742Y-30144000D02*
X18729258Y-30144000D01*
G04 #@! TO.C,U1*
X46104000Y-25254500D02*
X43304000Y-25254500D01*
X46104000Y-28654500D02*
X43034000Y-28654500D01*
X42474000Y-28844500D02*
X42194000Y-28564500D01*
X42474000Y-28564500D01*
X42474000Y-28844500D01*
G36*
X42474000Y-28844500D02*
G01*
X42194000Y-28564500D01*
X42474000Y-28564500D01*
X42474000Y-28844500D01*
G37*
G04 #@! TO.C,R1*
X18254742Y-67199000D02*
X18729258Y-67199000D01*
X18254742Y-68244000D02*
X18729258Y-68244000D01*
G04 #@! TO.C,U1*
X62360000Y-12554500D02*
X59560000Y-12554500D01*
X62360000Y-15954500D02*
X59290000Y-15954500D01*
X58730000Y-16144500D02*
X58450000Y-15864500D01*
X58730000Y-15864500D01*
X58730000Y-16144500D01*
G36*
X58730000Y-16144500D02*
G01*
X58450000Y-15864500D01*
X58730000Y-15864500D01*
X58730000Y-16144500D01*
G37*
X5464000Y-12554500D02*
X2664000Y-12554500D01*
X5464000Y-15954500D02*
X2394000Y-15954500D01*
X1834000Y-16144500D02*
X1554000Y-15864500D01*
X1834000Y-15864500D01*
X1834000Y-16144500D01*
G36*
X1834000Y-16144500D02*
G01*
X1554000Y-15864500D01*
X1834000Y-15864500D01*
X1834000Y-16144500D01*
G37*
G04 #@! TO.C,TP2*
X34306000Y-60929500D02*
X36206000Y-60929500D01*
X34306000Y-62829500D02*
X34306000Y-60929500D01*
X36206000Y-60929500D02*
X36206000Y-62829500D01*
X36206000Y-62829500D02*
X34306000Y-62829500D01*
X9922000Y-73629500D02*
X11822000Y-73629500D01*
X9922000Y-75529500D02*
X9922000Y-73629500D01*
X11822000Y-73629500D02*
X11822000Y-75529500D01*
X11822000Y-75529500D02*
X9922000Y-75529500D01*
G04 #@! TO.C,R2*
X54322742Y-67199000D02*
X54797258Y-67199000D01*
X54322742Y-68244000D02*
X54797258Y-68244000D01*
G04 #@! TO.C,R1*
X10126742Y-41799000D02*
X10601258Y-41799000D01*
X10126742Y-42844000D02*
X10601258Y-42844000D01*
X34510742Y-29099000D02*
X34985258Y-29099000D01*
X34510742Y-30144000D02*
X34985258Y-30144000D01*
G04 #@! TO.C,U1*
X13592000Y-76054500D02*
X10792000Y-76054500D01*
X13592000Y-79454500D02*
X10522000Y-79454500D01*
X9962000Y-79644500D02*
X9682000Y-79364500D01*
X9962000Y-79364500D01*
X9962000Y-79644500D01*
G36*
X9962000Y-79644500D02*
G01*
X9682000Y-79364500D01*
X9962000Y-79364500D01*
X9962000Y-79644500D01*
G37*
G04 #@! TO.C,TP1*
X53102000Y-10129500D02*
X55002000Y-10129500D01*
X53102000Y-12029500D02*
X53102000Y-10129500D01*
X55002000Y-10129500D02*
X55002000Y-12029500D01*
X55002000Y-12029500D02*
X53102000Y-12029500D01*
X36846000Y-35529500D02*
X38746000Y-35529500D01*
X36846000Y-37429500D02*
X36846000Y-35529500D01*
X38746000Y-35529500D02*
X38746000Y-37429500D01*
X38746000Y-37429500D02*
X36846000Y-37429500D01*
G04 #@! TO.C,R2*
X54322742Y-79899000D02*
X54797258Y-79899000D01*
X54322742Y-80944000D02*
X54797258Y-80944000D01*
X13682742Y-41799000D02*
X14157258Y-41799000D01*
X13682742Y-42844000D02*
X14157258Y-42844000D01*
G04 #@! TO.C,TP1*
X53102000Y-22829500D02*
X55002000Y-22829500D01*
X53102000Y-24729500D02*
X53102000Y-22829500D01*
X55002000Y-22829500D02*
X55002000Y-24729500D01*
X55002000Y-24729500D02*
X53102000Y-24729500D01*
G04 #@! TO.C,R2*
X29938742Y-41799000D02*
X30413258Y-41799000D01*
X29938742Y-42844000D02*
X30413258Y-42844000D01*
G04 #@! TO.C,TP2*
X1794000Y-10129500D02*
X3694000Y-10129500D01*
X1794000Y-12029500D02*
X1794000Y-10129500D01*
X3694000Y-10129500D02*
X3694000Y-12029500D01*
X3694000Y-12029500D02*
X1794000Y-12029500D01*
G04 #@! TO.C,R1*
X1998742Y-16399000D02*
X2473258Y-16399000D01*
X1998742Y-17444000D02*
X2473258Y-17444000D01*
X34510742Y-67199000D02*
X34985258Y-67199000D01*
X34510742Y-68244000D02*
X34985258Y-68244000D01*
X34510742Y-16399000D02*
X34985258Y-16399000D01*
X34510742Y-17444000D02*
X34985258Y-17444000D01*
X42638742Y-54499000D02*
X43113258Y-54499000D01*
X42638742Y-55544000D02*
X43113258Y-55544000D01*
G04 #@! TO.C,TP1*
X12462000Y-35529500D02*
X14362000Y-35529500D01*
X12462000Y-37429500D02*
X12462000Y-35529500D01*
X14362000Y-35529500D02*
X14362000Y-37429500D01*
X14362000Y-37429500D02*
X12462000Y-37429500D01*
G04 #@! TO.C,R1*
X18254742Y-79899000D02*
X18729258Y-79899000D01*
X18254742Y-80944000D02*
X18729258Y-80944000D01*
G04 #@! TO.C,U1*
X5464000Y-25254500D02*
X2664000Y-25254500D01*
X5464000Y-28654500D02*
X2394000Y-28654500D01*
X1834000Y-28844500D02*
X1554000Y-28564500D01*
X1834000Y-28564500D01*
X1834000Y-28844500D01*
G36*
X1834000Y-28844500D02*
G01*
X1554000Y-28564500D01*
X1834000Y-28564500D01*
X1834000Y-28844500D01*
G37*
G04 #@! TO.C,TP2*
X34306000Y-35529500D02*
X36206000Y-35529500D01*
X34306000Y-37429500D02*
X34306000Y-35529500D01*
X36206000Y-35529500D02*
X36206000Y-37429500D01*
X36206000Y-37429500D02*
X34306000Y-37429500D01*
X26178000Y-73629500D02*
X28078000Y-73629500D01*
X26178000Y-75529500D02*
X26178000Y-73629500D01*
X28078000Y-73629500D02*
X28078000Y-75529500D01*
X28078000Y-75529500D02*
X26178000Y-75529500D01*
G04 #@! TO.C,U1*
X29848000Y-25254500D02*
X27048000Y-25254500D01*
X29848000Y-28654500D02*
X26778000Y-28654500D01*
X26218000Y-28844500D02*
X25938000Y-28564500D01*
X26218000Y-28564500D01*
X26218000Y-28844500D01*
G36*
X26218000Y-28844500D02*
G01*
X25938000Y-28564500D01*
X26218000Y-28564500D01*
X26218000Y-28844500D01*
G37*
G04 #@! TO.C,R2*
X5554742Y-29099000D02*
X6029258Y-29099000D01*
X5554742Y-30144000D02*
X6029258Y-30144000D01*
X54322742Y-29099000D02*
X54797258Y-29099000D01*
X54322742Y-30144000D02*
X54797258Y-30144000D01*
G04 #@! TO.C,TP2*
X50562000Y-22829500D02*
X52462000Y-22829500D01*
X50562000Y-24729500D02*
X50562000Y-22829500D01*
X52462000Y-22829500D02*
X52462000Y-24729500D01*
X52462000Y-24729500D02*
X50562000Y-24729500D01*
G04 #@! TO.C,U1*
X37976000Y-63354500D02*
X35176000Y-63354500D01*
X37976000Y-66754500D02*
X34906000Y-66754500D01*
X34346000Y-66944500D02*
X34066000Y-66664500D01*
X34346000Y-66664500D01*
X34346000Y-66944500D01*
G36*
X34346000Y-66944500D02*
G01*
X34066000Y-66664500D01*
X34346000Y-66664500D01*
X34346000Y-66944500D01*
G37*
G04 #@! TO.C,R2*
X5554742Y-16399000D02*
X6029258Y-16399000D01*
X5554742Y-17444000D02*
X6029258Y-17444000D01*
G04 #@! TO.C,TP1*
X20590000Y-73629500D02*
X22490000Y-73629500D01*
X20590000Y-75529500D02*
X20590000Y-73629500D01*
X22490000Y-73629500D02*
X22490000Y-75529500D01*
X22490000Y-75529500D02*
X20590000Y-75529500D01*
G04 #@! TO.C,R2*
X5554742Y-41799000D02*
X6029258Y-41799000D01*
X5554742Y-42844000D02*
X6029258Y-42844000D01*
G04 #@! TO.C,R1*
X10126742Y-54499000D02*
X10601258Y-54499000D01*
X10126742Y-55544000D02*
X10601258Y-55544000D01*
X26382742Y-41799000D02*
X26857258Y-41799000D01*
X26382742Y-42844000D02*
X26857258Y-42844000D01*
G04 #@! TO.C,U1*
X62360000Y-37954500D02*
X59560000Y-37954500D01*
X62360000Y-41354500D02*
X59290000Y-41354500D01*
X58730000Y-41544500D02*
X58450000Y-41264500D01*
X58730000Y-41264500D01*
X58730000Y-41544500D01*
G36*
X58730000Y-41544500D02*
G01*
X58450000Y-41264500D01*
X58730000Y-41264500D01*
X58730000Y-41544500D01*
G37*
G04 #@! TO.C,R1*
X58894742Y-79899000D02*
X59369258Y-79899000D01*
X58894742Y-80944000D02*
X59369258Y-80944000D01*
X18254742Y-16399000D02*
X18729258Y-16399000D01*
X18254742Y-17444000D02*
X18729258Y-17444000D01*
X26382742Y-67199000D02*
X26857258Y-67199000D01*
X26382742Y-68244000D02*
X26857258Y-68244000D01*
G04 #@! TO.C,TP1*
X53102000Y-48229500D02*
X55002000Y-48229500D01*
X53102000Y-50129500D02*
X53102000Y-48229500D01*
X55002000Y-48229500D02*
X55002000Y-50129500D01*
X55002000Y-50129500D02*
X53102000Y-50129500D01*
G04 #@! TO.C,U1*
X54232000Y-50654500D02*
X51432000Y-50654500D01*
X54232000Y-54054500D02*
X51162000Y-54054500D01*
X50602000Y-54244500D02*
X50322000Y-53964500D01*
X50602000Y-53964500D01*
X50602000Y-54244500D01*
G36*
X50602000Y-54244500D02*
G01*
X50322000Y-53964500D01*
X50602000Y-53964500D01*
X50602000Y-54244500D01*
G37*
X5464000Y-50654500D02*
X2664000Y-50654500D01*
X5464000Y-54054500D02*
X2394000Y-54054500D01*
X1834000Y-54244500D02*
X1554000Y-53964500D01*
X1834000Y-53964500D01*
X1834000Y-54244500D01*
G36*
X1834000Y-54244500D02*
G01*
X1554000Y-53964500D01*
X1834000Y-53964500D01*
X1834000Y-54244500D01*
G37*
G04 #@! TO.C,TP2*
X42434000Y-10129500D02*
X44334000Y-10129500D01*
X42434000Y-12029500D02*
X42434000Y-10129500D01*
X44334000Y-10129500D02*
X44334000Y-12029500D01*
X44334000Y-12029500D02*
X42434000Y-12029500D01*
X42434000Y-60929500D02*
X44334000Y-60929500D01*
X42434000Y-62829500D02*
X42434000Y-60929500D01*
X44334000Y-60929500D02*
X44334000Y-62829500D01*
X44334000Y-62829500D02*
X42434000Y-62829500D01*
G04 #@! TO.C,TP1*
X28718000Y-35529500D02*
X30618000Y-35529500D01*
X28718000Y-37429500D02*
X28718000Y-35529500D01*
X30618000Y-35529500D02*
X30618000Y-37429500D01*
X30618000Y-37429500D02*
X28718000Y-37429500D01*
G04 #@! TO.C,U1*
X13592000Y-50654500D02*
X10792000Y-50654500D01*
X13592000Y-54054500D02*
X10522000Y-54054500D01*
X9962000Y-54244500D02*
X9682000Y-53964500D01*
X9962000Y-53964500D01*
X9962000Y-54244500D01*
G36*
X9962000Y-54244500D02*
G01*
X9682000Y-53964500D01*
X9962000Y-53964500D01*
X9962000Y-54244500D01*
G37*
G04 #@! TO.C,R2*
X54322742Y-54499000D02*
X54797258Y-54499000D01*
X54322742Y-55544000D02*
X54797258Y-55544000D01*
G04 #@! TO.C,TP1*
X36846000Y-10129500D02*
X38746000Y-10129500D01*
X36846000Y-12029500D02*
X36846000Y-10129500D01*
X38746000Y-10129500D02*
X38746000Y-12029500D01*
X38746000Y-12029500D02*
X36846000Y-12029500D01*
G04 #@! TO.C,R2*
X54322742Y-16399000D02*
X54797258Y-16399000D01*
X54322742Y-17444000D02*
X54797258Y-17444000D01*
X29938742Y-29099000D02*
X30413258Y-29099000D01*
X29938742Y-30144000D02*
X30413258Y-30144000D01*
G04 #@! TO.C,R1*
X58894742Y-54499000D02*
X59369258Y-54499000D01*
X58894742Y-55544000D02*
X59369258Y-55544000D01*
G04 #@! TO.C,TP2*
X58690000Y-35529500D02*
X60590000Y-35529500D01*
X58690000Y-37429500D02*
X58690000Y-35529500D01*
X60590000Y-35529500D02*
X60590000Y-37429500D01*
X60590000Y-37429500D02*
X58690000Y-37429500D01*
G04 #@! TO.C,R1*
X42638742Y-16399000D02*
X43113258Y-16399000D01*
X42638742Y-17444000D02*
X43113258Y-17444000D01*
G04 #@! TO.C,TP2*
X18050000Y-35529500D02*
X19950000Y-35529500D01*
X18050000Y-37429500D02*
X18050000Y-35529500D01*
X19950000Y-35529500D02*
X19950000Y-37429500D01*
X19950000Y-37429500D02*
X18050000Y-37429500D01*
G04 #@! TO.C,U1*
X54232000Y-12554500D02*
X51432000Y-12554500D01*
X54232000Y-15954500D02*
X51162000Y-15954500D01*
X50602000Y-16144500D02*
X50322000Y-15864500D01*
X50602000Y-15864500D01*
X50602000Y-16144500D01*
G36*
X50602000Y-16144500D02*
G01*
X50322000Y-15864500D01*
X50602000Y-15864500D01*
X50602000Y-16144500D01*
G37*
G04 #@! TO.C,TP2*
X42434000Y-73629500D02*
X44334000Y-73629500D01*
X42434000Y-75529500D02*
X42434000Y-73629500D01*
X44334000Y-73629500D02*
X44334000Y-75529500D01*
X44334000Y-75529500D02*
X42434000Y-75529500D01*
G04 #@! TO.C,R1*
X18254742Y-54499000D02*
X18729258Y-54499000D01*
X18254742Y-55544000D02*
X18729258Y-55544000D01*
X18254742Y-41799000D02*
X18729258Y-41799000D01*
X18254742Y-42844000D02*
X18729258Y-42844000D01*
G04 #@! TO.C,R2*
X38066742Y-54499000D02*
X38541258Y-54499000D01*
X38066742Y-55544000D02*
X38541258Y-55544000D01*
X38066742Y-16399000D02*
X38541258Y-16399000D01*
X38066742Y-17444000D02*
X38541258Y-17444000D01*
G04 #@! TO.C,TP2*
X1794000Y-22829500D02*
X3694000Y-22829500D01*
X1794000Y-24729500D02*
X1794000Y-22829500D01*
X3694000Y-22829500D02*
X3694000Y-24729500D01*
X3694000Y-24729500D02*
X1794000Y-24729500D01*
G04 #@! TO.C,U1*
X29848000Y-63354500D02*
X27048000Y-63354500D01*
X29848000Y-66754500D02*
X26778000Y-66754500D01*
X26218000Y-66944500D02*
X25938000Y-66664500D01*
X26218000Y-66664500D01*
X26218000Y-66944500D01*
G36*
X26218000Y-66944500D02*
G01*
X25938000Y-66664500D01*
X26218000Y-66664500D01*
X26218000Y-66944500D01*
G37*
G04 #@! TO.C,TP1*
X12462000Y-22829500D02*
X14362000Y-22829500D01*
X12462000Y-24729500D02*
X12462000Y-22829500D01*
X14362000Y-22829500D02*
X14362000Y-24729500D01*
X14362000Y-24729500D02*
X12462000Y-24729500D01*
G04 #@! TO.C,U1*
X62360000Y-50654500D02*
X59560000Y-50654500D01*
X62360000Y-54054500D02*
X59290000Y-54054500D01*
X58730000Y-54244500D02*
X58450000Y-53964500D01*
X58730000Y-53964500D01*
X58730000Y-54244500D01*
G36*
X58730000Y-54244500D02*
G01*
X58450000Y-53964500D01*
X58730000Y-53964500D01*
X58730000Y-54244500D01*
G37*
X21720000Y-37954500D02*
X18920000Y-37954500D01*
X21720000Y-41354500D02*
X18650000Y-41354500D01*
X18090000Y-41544500D02*
X17810000Y-41264500D01*
X18090000Y-41264500D01*
X18090000Y-41544500D01*
G36*
X18090000Y-41544500D02*
G01*
X17810000Y-41264500D01*
X18090000Y-41264500D01*
X18090000Y-41544500D01*
G37*
G04 #@! TO.C,TP1*
X53102000Y-35529500D02*
X55002000Y-35529500D01*
X53102000Y-37429500D02*
X53102000Y-35529500D01*
X55002000Y-35529500D02*
X55002000Y-37429500D01*
X55002000Y-37429500D02*
X53102000Y-37429500D01*
G04 #@! TO.C,R1*
X50766742Y-41799000D02*
X51241258Y-41799000D01*
X50766742Y-42844000D02*
X51241258Y-42844000D01*
X58894742Y-16399000D02*
X59369258Y-16399000D01*
X58894742Y-17444000D02*
X59369258Y-17444000D01*
G04 #@! TO.C,TP2*
X9922000Y-60929500D02*
X11822000Y-60929500D01*
X9922000Y-62829500D02*
X9922000Y-60929500D01*
X11822000Y-60929500D02*
X11822000Y-62829500D01*
X11822000Y-62829500D02*
X9922000Y-62829500D01*
G04 #@! TO.C,U1*
X29848000Y-12554500D02*
X27048000Y-12554500D01*
X29848000Y-15954500D02*
X26778000Y-15954500D01*
X26218000Y-16144500D02*
X25938000Y-15864500D01*
X26218000Y-15864500D01*
X26218000Y-16144500D01*
G36*
X26218000Y-16144500D02*
G01*
X25938000Y-15864500D01*
X26218000Y-15864500D01*
X26218000Y-16144500D01*
G37*
X62360000Y-63354500D02*
X59560000Y-63354500D01*
X62360000Y-66754500D02*
X59290000Y-66754500D01*
X58730000Y-66944500D02*
X58450000Y-66664500D01*
X58730000Y-66664500D01*
X58730000Y-66944500D01*
G36*
X58730000Y-66944500D02*
G01*
X58450000Y-66664500D01*
X58730000Y-66664500D01*
X58730000Y-66944500D01*
G37*
G04 #@! TO.C,TP2*
X50562000Y-48229500D02*
X52462000Y-48229500D01*
X50562000Y-50129500D02*
X50562000Y-48229500D01*
X52462000Y-48229500D02*
X52462000Y-50129500D01*
X52462000Y-50129500D02*
X50562000Y-50129500D01*
G04 #@! TO.C,R2*
X46194742Y-79899000D02*
X46669258Y-79899000D01*
X46194742Y-80944000D02*
X46669258Y-80944000D01*
X13682742Y-29099000D02*
X14157258Y-29099000D01*
X13682742Y-30144000D02*
X14157258Y-30144000D01*
G04 #@! TO.C,TP1*
X44974000Y-35529500D02*
X46874000Y-35529500D01*
X44974000Y-37429500D02*
X44974000Y-35529500D01*
X46874000Y-35529500D02*
X46874000Y-37429500D01*
X46874000Y-37429500D02*
X44974000Y-37429500D01*
G04 #@! TO.C,R2*
X29938742Y-79899000D02*
X30413258Y-79899000D01*
X29938742Y-80944000D02*
X30413258Y-80944000D01*
G04 #@! TO.C,TP1*
X61230000Y-22829500D02*
X63130000Y-22829500D01*
X61230000Y-24729500D02*
X61230000Y-22829500D01*
X63130000Y-22829500D02*
X63130000Y-24729500D01*
X63130000Y-24729500D02*
X61230000Y-24729500D01*
G04 #@! TO.C,R1*
X10126742Y-79899000D02*
X10601258Y-79899000D01*
X10126742Y-80944000D02*
X10601258Y-80944000D01*
G04 #@! TO.C,R2*
X13682742Y-67199000D02*
X14157258Y-67199000D01*
X13682742Y-68244000D02*
X14157258Y-68244000D01*
X5554742Y-54499000D02*
X6029258Y-54499000D01*
X5554742Y-55544000D02*
X6029258Y-55544000D01*
X13682742Y-16399000D02*
X14157258Y-16399000D01*
X13682742Y-17444000D02*
X14157258Y-17444000D01*
G04 #@! TO.C,TP1*
X44974000Y-22829500D02*
X46874000Y-22829500D01*
X44974000Y-24729500D02*
X44974000Y-22829500D01*
X46874000Y-22829500D02*
X46874000Y-24729500D01*
X46874000Y-24729500D02*
X44974000Y-24729500D01*
G04 #@! TO.C,U1*
X54232000Y-25254500D02*
X51432000Y-25254500D01*
X54232000Y-28654500D02*
X51162000Y-28654500D01*
X50602000Y-28844500D02*
X50322000Y-28564500D01*
X50602000Y-28564500D01*
X50602000Y-28844500D01*
G36*
X50602000Y-28844500D02*
G01*
X50322000Y-28564500D01*
X50602000Y-28564500D01*
X50602000Y-28844500D01*
G37*
G04 #@! TO.C,TP1*
X20590000Y-48229500D02*
X22490000Y-48229500D01*
X20590000Y-50129500D02*
X20590000Y-48229500D01*
X22490000Y-48229500D02*
X22490000Y-50129500D01*
X22490000Y-50129500D02*
X20590000Y-50129500D01*
G04 #@! TO.C,R2*
X46194742Y-41799000D02*
X46669258Y-41799000D01*
X46194742Y-42844000D02*
X46669258Y-42844000D01*
G04 #@! TO.C,U1*
X13592000Y-63354500D02*
X10792000Y-63354500D01*
X13592000Y-66754500D02*
X10522000Y-66754500D01*
X9962000Y-66944500D02*
X9682000Y-66664500D01*
X9962000Y-66664500D01*
X9962000Y-66944500D01*
G36*
X9962000Y-66944500D02*
G01*
X9682000Y-66664500D01*
X9962000Y-66664500D01*
X9962000Y-66944500D01*
G37*
G04 #@! TO.C,TP1*
X28718000Y-22829500D02*
X30618000Y-22829500D01*
X28718000Y-24729500D02*
X28718000Y-22829500D01*
X30618000Y-22829500D02*
X30618000Y-24729500D01*
X30618000Y-24729500D02*
X28718000Y-24729500D01*
X36846000Y-48229500D02*
X38746000Y-48229500D01*
X36846000Y-50129500D02*
X36846000Y-48229500D01*
X38746000Y-48229500D02*
X38746000Y-50129500D01*
X38746000Y-50129500D02*
X36846000Y-50129500D01*
G04 #@! TO.C,TP2*
X26178000Y-35529500D02*
X28078000Y-35529500D01*
X26178000Y-37429500D02*
X26178000Y-35529500D01*
X28078000Y-35529500D02*
X28078000Y-37429500D01*
X28078000Y-37429500D02*
X26178000Y-37429500D01*
G04 #@! TO.C,U1*
X21720000Y-50654500D02*
X18920000Y-50654500D01*
X21720000Y-54054500D02*
X18650000Y-54054500D01*
X18090000Y-54244500D02*
X17810000Y-53964500D01*
X18090000Y-53964500D01*
X18090000Y-54244500D01*
G36*
X18090000Y-54244500D02*
G01*
X17810000Y-53964500D01*
X18090000Y-53964500D01*
X18090000Y-54244500D01*
G37*
G04 #@! TO.C,TP2*
X42434000Y-35529500D02*
X44334000Y-35529500D01*
X42434000Y-37429500D02*
X42434000Y-35529500D01*
X44334000Y-35529500D02*
X44334000Y-37429500D01*
X44334000Y-37429500D02*
X42434000Y-37429500D01*
G04 #@! TO.C,TP1*
X12462000Y-10129500D02*
X14362000Y-10129500D01*
X12462000Y-12029500D02*
X12462000Y-10129500D01*
X14362000Y-10129500D02*
X14362000Y-12029500D01*
X14362000Y-12029500D02*
X12462000Y-12029500D01*
X61230000Y-35529500D02*
X63130000Y-35529500D01*
X61230000Y-37429500D02*
X61230000Y-35529500D01*
X63130000Y-35529500D02*
X63130000Y-37429500D01*
X63130000Y-37429500D02*
X61230000Y-37429500D01*
G04 #@! TO.C,R1*
X50766742Y-29099000D02*
X51241258Y-29099000D01*
X50766742Y-30144000D02*
X51241258Y-30144000D01*
G04 #@! TO.C,TP1*
X28718000Y-10129500D02*
X30618000Y-10129500D01*
X28718000Y-12029500D02*
X28718000Y-10129500D01*
X30618000Y-10129500D02*
X30618000Y-12029500D01*
X30618000Y-12029500D02*
X28718000Y-12029500D01*
G04 #@! TO.C,R1*
X42638742Y-41799000D02*
X43113258Y-41799000D01*
X42638742Y-42844000D02*
X43113258Y-42844000D01*
X1998742Y-79899000D02*
X2473258Y-79899000D01*
X1998742Y-80944000D02*
X2473258Y-80944000D01*
G04 #@! TO.C,U1*
X46104000Y-12554500D02*
X43304000Y-12554500D01*
X46104000Y-15954500D02*
X43034000Y-15954500D01*
X42474000Y-16144500D02*
X42194000Y-15864500D01*
X42474000Y-15864500D01*
X42474000Y-16144500D01*
G36*
X42474000Y-16144500D02*
G01*
X42194000Y-15864500D01*
X42474000Y-15864500D01*
X42474000Y-16144500D01*
G37*
G04 #@! TO.C,TP2*
X34306000Y-22829500D02*
X36206000Y-22829500D01*
X34306000Y-24729500D02*
X34306000Y-22829500D01*
X36206000Y-22829500D02*
X36206000Y-24729500D01*
X36206000Y-24729500D02*
X34306000Y-24729500D01*
G04 #@! TO.C,R2*
X38066742Y-67199000D02*
X38541258Y-67199000D01*
X38066742Y-68244000D02*
X38541258Y-68244000D01*
G04 #@! TO.C,U1*
X62360000Y-76054500D02*
X59560000Y-76054500D01*
X62360000Y-79454500D02*
X59290000Y-79454500D01*
X58730000Y-79644500D02*
X58450000Y-79364500D01*
X58730000Y-79364500D01*
X58730000Y-79644500D01*
G36*
X58730000Y-79644500D02*
G01*
X58450000Y-79364500D01*
X58730000Y-79364500D01*
X58730000Y-79644500D01*
G37*
G04 #@! TO.C,R2*
X46194742Y-16399000D02*
X46669258Y-16399000D01*
X46194742Y-17444000D02*
X46669258Y-17444000D01*
G04 #@! TO.C,TP2*
X42434000Y-48229500D02*
X44334000Y-48229500D01*
X42434000Y-50129500D02*
X42434000Y-48229500D01*
X44334000Y-48229500D02*
X44334000Y-50129500D01*
X44334000Y-50129500D02*
X42434000Y-50129500D01*
X26178000Y-48229500D02*
X28078000Y-48229500D01*
X26178000Y-50129500D02*
X26178000Y-48229500D01*
X28078000Y-48229500D02*
X28078000Y-50129500D01*
X28078000Y-50129500D02*
X26178000Y-50129500D01*
X50562000Y-35529500D02*
X52462000Y-35529500D01*
X50562000Y-37429500D02*
X50562000Y-35529500D01*
X52462000Y-35529500D02*
X52462000Y-37429500D01*
X52462000Y-37429500D02*
X50562000Y-37429500D01*
X58690000Y-73629500D02*
X60590000Y-73629500D01*
X58690000Y-75529500D02*
X58690000Y-73629500D01*
X60590000Y-73629500D02*
X60590000Y-75529500D01*
X60590000Y-75529500D02*
X58690000Y-75529500D01*
X9922000Y-48229500D02*
X11822000Y-48229500D01*
X9922000Y-50129500D02*
X9922000Y-48229500D01*
X11822000Y-48229500D02*
X11822000Y-50129500D01*
X11822000Y-50129500D02*
X9922000Y-50129500D01*
G04 #@! TO.C,U1*
X29848000Y-37954500D02*
X27048000Y-37954500D01*
X29848000Y-41354500D02*
X26778000Y-41354500D01*
X26218000Y-41544500D02*
X25938000Y-41264500D01*
X26218000Y-41264500D01*
X26218000Y-41544500D01*
G36*
X26218000Y-41544500D02*
G01*
X25938000Y-41264500D01*
X26218000Y-41264500D01*
X26218000Y-41544500D01*
G37*
G04 #@! TO.C,TP1*
X12462000Y-73629500D02*
X14362000Y-73629500D01*
X12462000Y-75529500D02*
X12462000Y-73629500D01*
X14362000Y-73629500D02*
X14362000Y-75529500D01*
X14362000Y-75529500D02*
X12462000Y-75529500D01*
G04 #@! TO.C,TP2*
X1794000Y-35529500D02*
X3694000Y-35529500D01*
X1794000Y-37429500D02*
X1794000Y-35529500D01*
X3694000Y-35529500D02*
X3694000Y-37429500D01*
X3694000Y-37429500D02*
X1794000Y-37429500D01*
G04 #@! TO.C,R1*
X26382742Y-16399000D02*
X26857258Y-16399000D01*
X26382742Y-17444000D02*
X26857258Y-17444000D01*
G04 #@! TO.C,R2*
X21810742Y-67199000D02*
X22285258Y-67199000D01*
X21810742Y-68244000D02*
X22285258Y-68244000D01*
G04 #@! TO.C,TP1*
X28718000Y-60929500D02*
X30618000Y-60929500D01*
X28718000Y-62829500D02*
X28718000Y-60929500D01*
X30618000Y-60929500D02*
X30618000Y-62829500D01*
X30618000Y-62829500D02*
X28718000Y-62829500D01*
X4334000Y-73629500D02*
X6234000Y-73629500D01*
X4334000Y-75529500D02*
X4334000Y-73629500D01*
X6234000Y-73629500D02*
X6234000Y-75529500D01*
X6234000Y-75529500D02*
X4334000Y-75529500D01*
G04 #@! TO.C,U1*
X46104000Y-37954500D02*
X43304000Y-37954500D01*
X46104000Y-41354500D02*
X43034000Y-41354500D01*
X42474000Y-41544500D02*
X42194000Y-41264500D01*
X42474000Y-41264500D01*
X42474000Y-41544500D01*
G36*
X42474000Y-41544500D02*
G01*
X42194000Y-41264500D01*
X42474000Y-41264500D01*
X42474000Y-41544500D01*
G37*
G04 #@! TD*
M02*
