G04 #@! TF.GenerationSoftware,KiCad,Pcbnew,8.0.2-1*
G04 #@! TF.CreationDate,2024-06-10T22:55:01+02:00*
G04 #@! TF.ProjectId,panel-eyes,70616e65-6c2d-4657-9965-732e6b696361,rev?*
G04 #@! TF.SameCoordinates,Original*
G04 #@! TF.FileFunction,Other,Comment*
%FSLAX46Y46*%
G04 Gerber Fmt 4.6, Leading zero omitted, Abs format (unit mm)*
G04 Created by KiCad (PCBNEW 8.0.2-1) date 2024-06-10 22:55:01*
%MOMM*%
%LPD*%
G01*
G04 APERTURE LIST*
%ADD10C,0.400000*%
G04 APERTURE END LIST*
D10*
X24384000Y3000000D02*
X24384000Y-91199500D01*
X40644000Y3000000D02*
X40644000Y-91199500D01*
X56894000Y3000000D02*
X56894000Y-91199500D01*
X-3000000Y-18699500D02*
X68024000Y-18699500D01*
X-3000000Y-56799500D02*
X68024000Y-56799500D01*
X-3000000Y-31399500D02*
X68024000Y-31399500D01*
X32514000Y3000000D02*
X32514000Y-91199500D01*
X16254000Y3000000D02*
X16254000Y-91199500D01*
X-3000000Y-44099500D02*
X68024000Y-44099500D01*
X-3000000Y-82199500D02*
X68024000Y-82199500D01*
X48764000Y3000000D02*
X48764000Y-91199500D01*
X-3000000Y-5999500D02*
X68024000Y-5999500D01*
X8124000Y3000000D02*
X8124000Y-91199500D01*
X-3000000Y-69499500D02*
X68024000Y-69499500D01*
X71477633Y-55703938D02*
X72144299Y-57703938D01*
X72144299Y-57703938D02*
X72810966Y-55703938D01*
X73477633Y-56942033D02*
X75001443Y-56942033D01*
X77096680Y-57513461D02*
X77001442Y-57608700D01*
X77001442Y-57608700D02*
X76715728Y-57703938D01*
X76715728Y-57703938D02*
X76525252Y-57703938D01*
X76525252Y-57703938D02*
X76239537Y-57608700D01*
X76239537Y-57608700D02*
X76049061Y-57418223D01*
X76049061Y-57418223D02*
X75953823Y-57227747D01*
X75953823Y-57227747D02*
X75858585Y-56846795D01*
X75858585Y-56846795D02*
X75858585Y-56561080D01*
X75858585Y-56561080D02*
X75953823Y-56180128D01*
X75953823Y-56180128D02*
X76049061Y-55989652D01*
X76049061Y-55989652D02*
X76239537Y-55799176D01*
X76239537Y-55799176D02*
X76525252Y-55703938D01*
X76525252Y-55703938D02*
X76715728Y-55703938D01*
X76715728Y-55703938D02*
X77001442Y-55799176D01*
X77001442Y-55799176D02*
X77096680Y-55894414D01*
X77953823Y-55703938D02*
X77953823Y-57322985D01*
X77953823Y-57322985D02*
X78049061Y-57513461D01*
X78049061Y-57513461D02*
X78144299Y-57608700D01*
X78144299Y-57608700D02*
X78334775Y-57703938D01*
X78334775Y-57703938D02*
X78715728Y-57703938D01*
X78715728Y-57703938D02*
X78906204Y-57608700D01*
X78906204Y-57608700D02*
X79001442Y-57513461D01*
X79001442Y-57513461D02*
X79096680Y-57322985D01*
X79096680Y-57322985D02*
X79096680Y-55703938D01*
X79763347Y-55703938D02*
X80906204Y-55703938D01*
X80334775Y-57703938D02*
X80334775Y-55703938D01*
X71477633Y-4903938D02*
X72144299Y-6903938D01*
X72144299Y-6903938D02*
X72810966Y-4903938D01*
X73477633Y-6142033D02*
X75001443Y-6142033D01*
X77096680Y-6713461D02*
X77001442Y-6808700D01*
X77001442Y-6808700D02*
X76715728Y-6903938D01*
X76715728Y-6903938D02*
X76525252Y-6903938D01*
X76525252Y-6903938D02*
X76239537Y-6808700D01*
X76239537Y-6808700D02*
X76049061Y-6618223D01*
X76049061Y-6618223D02*
X75953823Y-6427747D01*
X75953823Y-6427747D02*
X75858585Y-6046795D01*
X75858585Y-6046795D02*
X75858585Y-5761080D01*
X75858585Y-5761080D02*
X75953823Y-5380128D01*
X75953823Y-5380128D02*
X76049061Y-5189652D01*
X76049061Y-5189652D02*
X76239537Y-4999176D01*
X76239537Y-4999176D02*
X76525252Y-4903938D01*
X76525252Y-4903938D02*
X76715728Y-4903938D01*
X76715728Y-4903938D02*
X77001442Y-4999176D01*
X77001442Y-4999176D02*
X77096680Y-5094414D01*
X77953823Y-4903938D02*
X77953823Y-6522985D01*
X77953823Y-6522985D02*
X78049061Y-6713461D01*
X78049061Y-6713461D02*
X78144299Y-6808700D01*
X78144299Y-6808700D02*
X78334775Y-6903938D01*
X78334775Y-6903938D02*
X78715728Y-6903938D01*
X78715728Y-6903938D02*
X78906204Y-6808700D01*
X78906204Y-6808700D02*
X79001442Y-6713461D01*
X79001442Y-6713461D02*
X79096680Y-6522985D01*
X79096680Y-6522985D02*
X79096680Y-4903938D01*
X79763347Y-4903938D02*
X80906204Y-4903938D01*
X80334775Y-6903938D02*
X80334775Y-4903938D01*
X71477633Y-81103938D02*
X72144299Y-83103938D01*
X72144299Y-83103938D02*
X72810966Y-81103938D01*
X73477633Y-82342033D02*
X75001443Y-82342033D01*
X77096680Y-82913461D02*
X77001442Y-83008700D01*
X77001442Y-83008700D02*
X76715728Y-83103938D01*
X76715728Y-83103938D02*
X76525252Y-83103938D01*
X76525252Y-83103938D02*
X76239537Y-83008700D01*
X76239537Y-83008700D02*
X76049061Y-82818223D01*
X76049061Y-82818223D02*
X75953823Y-82627747D01*
X75953823Y-82627747D02*
X75858585Y-82246795D01*
X75858585Y-82246795D02*
X75858585Y-81961080D01*
X75858585Y-81961080D02*
X75953823Y-81580128D01*
X75953823Y-81580128D02*
X76049061Y-81389652D01*
X76049061Y-81389652D02*
X76239537Y-81199176D01*
X76239537Y-81199176D02*
X76525252Y-81103938D01*
X76525252Y-81103938D02*
X76715728Y-81103938D01*
X76715728Y-81103938D02*
X77001442Y-81199176D01*
X77001442Y-81199176D02*
X77096680Y-81294414D01*
X77953823Y-81103938D02*
X77953823Y-82722985D01*
X77953823Y-82722985D02*
X78049061Y-82913461D01*
X78049061Y-82913461D02*
X78144299Y-83008700D01*
X78144299Y-83008700D02*
X78334775Y-83103938D01*
X78334775Y-83103938D02*
X78715728Y-83103938D01*
X78715728Y-83103938D02*
X78906204Y-83008700D01*
X78906204Y-83008700D02*
X79001442Y-82913461D01*
X79001442Y-82913461D02*
X79096680Y-82722985D01*
X79096680Y-82722985D02*
X79096680Y-81103938D01*
X79763347Y-81103938D02*
X80906204Y-81103938D01*
X80334775Y-83103938D02*
X80334775Y-81103938D01*
X71477633Y-68403938D02*
X72144299Y-70403938D01*
X72144299Y-70403938D02*
X72810966Y-68403938D01*
X73477633Y-69642033D02*
X75001443Y-69642033D01*
X77096680Y-70213461D02*
X77001442Y-70308700D01*
X77001442Y-70308700D02*
X76715728Y-70403938D01*
X76715728Y-70403938D02*
X76525252Y-70403938D01*
X76525252Y-70403938D02*
X76239537Y-70308700D01*
X76239537Y-70308700D02*
X76049061Y-70118223D01*
X76049061Y-70118223D02*
X75953823Y-69927747D01*
X75953823Y-69927747D02*
X75858585Y-69546795D01*
X75858585Y-69546795D02*
X75858585Y-69261080D01*
X75858585Y-69261080D02*
X75953823Y-68880128D01*
X75953823Y-68880128D02*
X76049061Y-68689652D01*
X76049061Y-68689652D02*
X76239537Y-68499176D01*
X76239537Y-68499176D02*
X76525252Y-68403938D01*
X76525252Y-68403938D02*
X76715728Y-68403938D01*
X76715728Y-68403938D02*
X77001442Y-68499176D01*
X77001442Y-68499176D02*
X77096680Y-68594414D01*
X77953823Y-68403938D02*
X77953823Y-70022985D01*
X77953823Y-70022985D02*
X78049061Y-70213461D01*
X78049061Y-70213461D02*
X78144299Y-70308700D01*
X78144299Y-70308700D02*
X78334775Y-70403938D01*
X78334775Y-70403938D02*
X78715728Y-70403938D01*
X78715728Y-70403938D02*
X78906204Y-70308700D01*
X78906204Y-70308700D02*
X79001442Y-70213461D01*
X79001442Y-70213461D02*
X79096680Y-70022985D01*
X79096680Y-70022985D02*
X79096680Y-68403938D01*
X79763347Y-68403938D02*
X80906204Y-68403938D01*
X80334775Y-70403938D02*
X80334775Y-68403938D01*
X47668438Y6453634D02*
X49668438Y7120300D01*
X49668438Y7120300D02*
X47668438Y7786967D01*
X48906533Y8453634D02*
X48906533Y9977443D01*
X49477961Y12072681D02*
X49573200Y11977443D01*
X49573200Y11977443D02*
X49668438Y11691729D01*
X49668438Y11691729D02*
X49668438Y11501253D01*
X49668438Y11501253D02*
X49573200Y11215538D01*
X49573200Y11215538D02*
X49382723Y11025062D01*
X49382723Y11025062D02*
X49192247Y10929824D01*
X49192247Y10929824D02*
X48811295Y10834586D01*
X48811295Y10834586D02*
X48525580Y10834586D01*
X48525580Y10834586D02*
X48144628Y10929824D01*
X48144628Y10929824D02*
X47954152Y11025062D01*
X47954152Y11025062D02*
X47763676Y11215538D01*
X47763676Y11215538D02*
X47668438Y11501253D01*
X47668438Y11501253D02*
X47668438Y11691729D01*
X47668438Y11691729D02*
X47763676Y11977443D01*
X47763676Y11977443D02*
X47858914Y12072681D01*
X47668438Y12929824D02*
X49287485Y12929824D01*
X49287485Y12929824D02*
X49477961Y13025062D01*
X49477961Y13025062D02*
X49573200Y13120300D01*
X49573200Y13120300D02*
X49668438Y13310776D01*
X49668438Y13310776D02*
X49668438Y13691729D01*
X49668438Y13691729D02*
X49573200Y13882205D01*
X49573200Y13882205D02*
X49477961Y13977443D01*
X49477961Y13977443D02*
X49287485Y14072681D01*
X49287485Y14072681D02*
X47668438Y14072681D01*
X47668438Y14739348D02*
X47668438Y15882205D01*
X49668438Y15310776D02*
X47668438Y15310776D01*
X31418438Y6453634D02*
X33418438Y7120300D01*
X33418438Y7120300D02*
X31418438Y7786967D01*
X32656533Y8453634D02*
X32656533Y9977443D01*
X33227961Y12072681D02*
X33323200Y11977443D01*
X33323200Y11977443D02*
X33418438Y11691729D01*
X33418438Y11691729D02*
X33418438Y11501253D01*
X33418438Y11501253D02*
X33323200Y11215538D01*
X33323200Y11215538D02*
X33132723Y11025062D01*
X33132723Y11025062D02*
X32942247Y10929824D01*
X32942247Y10929824D02*
X32561295Y10834586D01*
X32561295Y10834586D02*
X32275580Y10834586D01*
X32275580Y10834586D02*
X31894628Y10929824D01*
X31894628Y10929824D02*
X31704152Y11025062D01*
X31704152Y11025062D02*
X31513676Y11215538D01*
X31513676Y11215538D02*
X31418438Y11501253D01*
X31418438Y11501253D02*
X31418438Y11691729D01*
X31418438Y11691729D02*
X31513676Y11977443D01*
X31513676Y11977443D02*
X31608914Y12072681D01*
X31418438Y12929824D02*
X33037485Y12929824D01*
X33037485Y12929824D02*
X33227961Y13025062D01*
X33227961Y13025062D02*
X33323200Y13120300D01*
X33323200Y13120300D02*
X33418438Y13310776D01*
X33418438Y13310776D02*
X33418438Y13691729D01*
X33418438Y13691729D02*
X33323200Y13882205D01*
X33323200Y13882205D02*
X33227961Y13977443D01*
X33227961Y13977443D02*
X33037485Y14072681D01*
X33037485Y14072681D02*
X31418438Y14072681D01*
X31418438Y14739348D02*
X31418438Y15882205D01*
X33418438Y15310776D02*
X31418438Y15310776D01*
X71477633Y-43003938D02*
X72144299Y-45003938D01*
X72144299Y-45003938D02*
X72810966Y-43003938D01*
X73477633Y-44242033D02*
X75001443Y-44242033D01*
X77096680Y-44813461D02*
X77001442Y-44908700D01*
X77001442Y-44908700D02*
X76715728Y-45003938D01*
X76715728Y-45003938D02*
X76525252Y-45003938D01*
X76525252Y-45003938D02*
X76239537Y-44908700D01*
X76239537Y-44908700D02*
X76049061Y-44718223D01*
X76049061Y-44718223D02*
X75953823Y-44527747D01*
X75953823Y-44527747D02*
X75858585Y-44146795D01*
X75858585Y-44146795D02*
X75858585Y-43861080D01*
X75858585Y-43861080D02*
X75953823Y-43480128D01*
X75953823Y-43480128D02*
X76049061Y-43289652D01*
X76049061Y-43289652D02*
X76239537Y-43099176D01*
X76239537Y-43099176D02*
X76525252Y-43003938D01*
X76525252Y-43003938D02*
X76715728Y-43003938D01*
X76715728Y-43003938D02*
X77001442Y-43099176D01*
X77001442Y-43099176D02*
X77096680Y-43194414D01*
X77953823Y-43003938D02*
X77953823Y-44622985D01*
X77953823Y-44622985D02*
X78049061Y-44813461D01*
X78049061Y-44813461D02*
X78144299Y-44908700D01*
X78144299Y-44908700D02*
X78334775Y-45003938D01*
X78334775Y-45003938D02*
X78715728Y-45003938D01*
X78715728Y-45003938D02*
X78906204Y-44908700D01*
X78906204Y-44908700D02*
X79001442Y-44813461D01*
X79001442Y-44813461D02*
X79096680Y-44622985D01*
X79096680Y-44622985D02*
X79096680Y-43003938D01*
X79763347Y-43003938D02*
X80906204Y-43003938D01*
X80334775Y-45003938D02*
X80334775Y-43003938D01*
X23288438Y6453634D02*
X25288438Y7120300D01*
X25288438Y7120300D02*
X23288438Y7786967D01*
X24526533Y8453634D02*
X24526533Y9977443D01*
X25097961Y12072681D02*
X25193200Y11977443D01*
X25193200Y11977443D02*
X25288438Y11691729D01*
X25288438Y11691729D02*
X25288438Y11501253D01*
X25288438Y11501253D02*
X25193200Y11215538D01*
X25193200Y11215538D02*
X25002723Y11025062D01*
X25002723Y11025062D02*
X24812247Y10929824D01*
X24812247Y10929824D02*
X24431295Y10834586D01*
X24431295Y10834586D02*
X24145580Y10834586D01*
X24145580Y10834586D02*
X23764628Y10929824D01*
X23764628Y10929824D02*
X23574152Y11025062D01*
X23574152Y11025062D02*
X23383676Y11215538D01*
X23383676Y11215538D02*
X23288438Y11501253D01*
X23288438Y11501253D02*
X23288438Y11691729D01*
X23288438Y11691729D02*
X23383676Y11977443D01*
X23383676Y11977443D02*
X23478914Y12072681D01*
X23288438Y12929824D02*
X24907485Y12929824D01*
X24907485Y12929824D02*
X25097961Y13025062D01*
X25097961Y13025062D02*
X25193200Y13120300D01*
X25193200Y13120300D02*
X25288438Y13310776D01*
X25288438Y13310776D02*
X25288438Y13691729D01*
X25288438Y13691729D02*
X25193200Y13882205D01*
X25193200Y13882205D02*
X25097961Y13977443D01*
X25097961Y13977443D02*
X24907485Y14072681D01*
X24907485Y14072681D02*
X23288438Y14072681D01*
X23288438Y14739348D02*
X23288438Y15882205D01*
X25288438Y15310776D02*
X23288438Y15310776D01*
X15158438Y6453634D02*
X17158438Y7120300D01*
X17158438Y7120300D02*
X15158438Y7786967D01*
X16396533Y8453634D02*
X16396533Y9977443D01*
X16967961Y12072681D02*
X17063200Y11977443D01*
X17063200Y11977443D02*
X17158438Y11691729D01*
X17158438Y11691729D02*
X17158438Y11501253D01*
X17158438Y11501253D02*
X17063200Y11215538D01*
X17063200Y11215538D02*
X16872723Y11025062D01*
X16872723Y11025062D02*
X16682247Y10929824D01*
X16682247Y10929824D02*
X16301295Y10834586D01*
X16301295Y10834586D02*
X16015580Y10834586D01*
X16015580Y10834586D02*
X15634628Y10929824D01*
X15634628Y10929824D02*
X15444152Y11025062D01*
X15444152Y11025062D02*
X15253676Y11215538D01*
X15253676Y11215538D02*
X15158438Y11501253D01*
X15158438Y11501253D02*
X15158438Y11691729D01*
X15158438Y11691729D02*
X15253676Y11977443D01*
X15253676Y11977443D02*
X15348914Y12072681D01*
X15158438Y12929824D02*
X16777485Y12929824D01*
X16777485Y12929824D02*
X16967961Y13025062D01*
X16967961Y13025062D02*
X17063200Y13120300D01*
X17063200Y13120300D02*
X17158438Y13310776D01*
X17158438Y13310776D02*
X17158438Y13691729D01*
X17158438Y13691729D02*
X17063200Y13882205D01*
X17063200Y13882205D02*
X16967961Y13977443D01*
X16967961Y13977443D02*
X16777485Y14072681D01*
X16777485Y14072681D02*
X15158438Y14072681D01*
X15158438Y14739348D02*
X15158438Y15882205D01*
X17158438Y15310776D02*
X15158438Y15310776D01*
X55798438Y6453634D02*
X57798438Y7120300D01*
X57798438Y7120300D02*
X55798438Y7786967D01*
X57036533Y8453634D02*
X57036533Y9977443D01*
X57607961Y12072681D02*
X57703200Y11977443D01*
X57703200Y11977443D02*
X57798438Y11691729D01*
X57798438Y11691729D02*
X57798438Y11501253D01*
X57798438Y11501253D02*
X57703200Y11215538D01*
X57703200Y11215538D02*
X57512723Y11025062D01*
X57512723Y11025062D02*
X57322247Y10929824D01*
X57322247Y10929824D02*
X56941295Y10834586D01*
X56941295Y10834586D02*
X56655580Y10834586D01*
X56655580Y10834586D02*
X56274628Y10929824D01*
X56274628Y10929824D02*
X56084152Y11025062D01*
X56084152Y11025062D02*
X55893676Y11215538D01*
X55893676Y11215538D02*
X55798438Y11501253D01*
X55798438Y11501253D02*
X55798438Y11691729D01*
X55798438Y11691729D02*
X55893676Y11977443D01*
X55893676Y11977443D02*
X55988914Y12072681D01*
X55798438Y12929824D02*
X57417485Y12929824D01*
X57417485Y12929824D02*
X57607961Y13025062D01*
X57607961Y13025062D02*
X57703200Y13120300D01*
X57703200Y13120300D02*
X57798438Y13310776D01*
X57798438Y13310776D02*
X57798438Y13691729D01*
X57798438Y13691729D02*
X57703200Y13882205D01*
X57703200Y13882205D02*
X57607961Y13977443D01*
X57607961Y13977443D02*
X57417485Y14072681D01*
X57417485Y14072681D02*
X55798438Y14072681D01*
X55798438Y14739348D02*
X55798438Y15882205D01*
X57798438Y15310776D02*
X55798438Y15310776D01*
X7028438Y6453634D02*
X9028438Y7120300D01*
X9028438Y7120300D02*
X7028438Y7786967D01*
X8266533Y8453634D02*
X8266533Y9977443D01*
X8837961Y12072681D02*
X8933200Y11977443D01*
X8933200Y11977443D02*
X9028438Y11691729D01*
X9028438Y11691729D02*
X9028438Y11501253D01*
X9028438Y11501253D02*
X8933200Y11215538D01*
X8933200Y11215538D02*
X8742723Y11025062D01*
X8742723Y11025062D02*
X8552247Y10929824D01*
X8552247Y10929824D02*
X8171295Y10834586D01*
X8171295Y10834586D02*
X7885580Y10834586D01*
X7885580Y10834586D02*
X7504628Y10929824D01*
X7504628Y10929824D02*
X7314152Y11025062D01*
X7314152Y11025062D02*
X7123676Y11215538D01*
X7123676Y11215538D02*
X7028438Y11501253D01*
X7028438Y11501253D02*
X7028438Y11691729D01*
X7028438Y11691729D02*
X7123676Y11977443D01*
X7123676Y11977443D02*
X7218914Y12072681D01*
X7028438Y12929824D02*
X8647485Y12929824D01*
X8647485Y12929824D02*
X8837961Y13025062D01*
X8837961Y13025062D02*
X8933200Y13120300D01*
X8933200Y13120300D02*
X9028438Y13310776D01*
X9028438Y13310776D02*
X9028438Y13691729D01*
X9028438Y13691729D02*
X8933200Y13882205D01*
X8933200Y13882205D02*
X8837961Y13977443D01*
X8837961Y13977443D02*
X8647485Y14072681D01*
X8647485Y14072681D02*
X7028438Y14072681D01*
X7028438Y14739348D02*
X7028438Y15882205D01*
X9028438Y15310776D02*
X7028438Y15310776D01*
X71477633Y-30303938D02*
X72144299Y-32303938D01*
X72144299Y-32303938D02*
X72810966Y-30303938D01*
X73477633Y-31542033D02*
X75001443Y-31542033D01*
X77096680Y-32113461D02*
X77001442Y-32208700D01*
X77001442Y-32208700D02*
X76715728Y-32303938D01*
X76715728Y-32303938D02*
X76525252Y-32303938D01*
X76525252Y-32303938D02*
X76239537Y-32208700D01*
X76239537Y-32208700D02*
X76049061Y-32018223D01*
X76049061Y-32018223D02*
X75953823Y-31827747D01*
X75953823Y-31827747D02*
X75858585Y-31446795D01*
X75858585Y-31446795D02*
X75858585Y-31161080D01*
X75858585Y-31161080D02*
X75953823Y-30780128D01*
X75953823Y-30780128D02*
X76049061Y-30589652D01*
X76049061Y-30589652D02*
X76239537Y-30399176D01*
X76239537Y-30399176D02*
X76525252Y-30303938D01*
X76525252Y-30303938D02*
X76715728Y-30303938D01*
X76715728Y-30303938D02*
X77001442Y-30399176D01*
X77001442Y-30399176D02*
X77096680Y-30494414D01*
X77953823Y-30303938D02*
X77953823Y-31922985D01*
X77953823Y-31922985D02*
X78049061Y-32113461D01*
X78049061Y-32113461D02*
X78144299Y-32208700D01*
X78144299Y-32208700D02*
X78334775Y-32303938D01*
X78334775Y-32303938D02*
X78715728Y-32303938D01*
X78715728Y-32303938D02*
X78906204Y-32208700D01*
X78906204Y-32208700D02*
X79001442Y-32113461D01*
X79001442Y-32113461D02*
X79096680Y-31922985D01*
X79096680Y-31922985D02*
X79096680Y-30303938D01*
X79763347Y-30303938D02*
X80906204Y-30303938D01*
X80334775Y-32303938D02*
X80334775Y-30303938D01*
X39548438Y6453634D02*
X41548438Y7120300D01*
X41548438Y7120300D02*
X39548438Y7786967D01*
X40786533Y8453634D02*
X40786533Y9977443D01*
X41357961Y12072681D02*
X41453200Y11977443D01*
X41453200Y11977443D02*
X41548438Y11691729D01*
X41548438Y11691729D02*
X41548438Y11501253D01*
X41548438Y11501253D02*
X41453200Y11215538D01*
X41453200Y11215538D02*
X41262723Y11025062D01*
X41262723Y11025062D02*
X41072247Y10929824D01*
X41072247Y10929824D02*
X40691295Y10834586D01*
X40691295Y10834586D02*
X40405580Y10834586D01*
X40405580Y10834586D02*
X40024628Y10929824D01*
X40024628Y10929824D02*
X39834152Y11025062D01*
X39834152Y11025062D02*
X39643676Y11215538D01*
X39643676Y11215538D02*
X39548438Y11501253D01*
X39548438Y11501253D02*
X39548438Y11691729D01*
X39548438Y11691729D02*
X39643676Y11977443D01*
X39643676Y11977443D02*
X39738914Y12072681D01*
X39548438Y12929824D02*
X41167485Y12929824D01*
X41167485Y12929824D02*
X41357961Y13025062D01*
X41357961Y13025062D02*
X41453200Y13120300D01*
X41453200Y13120300D02*
X41548438Y13310776D01*
X41548438Y13310776D02*
X41548438Y13691729D01*
X41548438Y13691729D02*
X41453200Y13882205D01*
X41453200Y13882205D02*
X41357961Y13977443D01*
X41357961Y13977443D02*
X41167485Y14072681D01*
X41167485Y14072681D02*
X39548438Y14072681D01*
X39548438Y14739348D02*
X39548438Y15882205D01*
X41548438Y15310776D02*
X39548438Y15310776D01*
X71477633Y-17603938D02*
X72144299Y-19603938D01*
X72144299Y-19603938D02*
X72810966Y-17603938D01*
X73477633Y-18842033D02*
X75001443Y-18842033D01*
X77096680Y-19413461D02*
X77001442Y-19508700D01*
X77001442Y-19508700D02*
X76715728Y-19603938D01*
X76715728Y-19603938D02*
X76525252Y-19603938D01*
X76525252Y-19603938D02*
X76239537Y-19508700D01*
X76239537Y-19508700D02*
X76049061Y-19318223D01*
X76049061Y-19318223D02*
X75953823Y-19127747D01*
X75953823Y-19127747D02*
X75858585Y-18746795D01*
X75858585Y-18746795D02*
X75858585Y-18461080D01*
X75858585Y-18461080D02*
X75953823Y-18080128D01*
X75953823Y-18080128D02*
X76049061Y-17889652D01*
X76049061Y-17889652D02*
X76239537Y-17699176D01*
X76239537Y-17699176D02*
X76525252Y-17603938D01*
X76525252Y-17603938D02*
X76715728Y-17603938D01*
X76715728Y-17603938D02*
X77001442Y-17699176D01*
X77001442Y-17699176D02*
X77096680Y-17794414D01*
X77953823Y-17603938D02*
X77953823Y-19222985D01*
X77953823Y-19222985D02*
X78049061Y-19413461D01*
X78049061Y-19413461D02*
X78144299Y-19508700D01*
X78144299Y-19508700D02*
X78334775Y-19603938D01*
X78334775Y-19603938D02*
X78715728Y-19603938D01*
X78715728Y-19603938D02*
X78906204Y-19508700D01*
X78906204Y-19508700D02*
X79001442Y-19413461D01*
X79001442Y-19413461D02*
X79096680Y-19222985D01*
X79096680Y-19222985D02*
X79096680Y-17603938D01*
X79763347Y-17603938D02*
X80906204Y-17603938D01*
X80334775Y-19603938D02*
X80334775Y-17603938D01*
M02*
