M48
; DRILL file {KiCad 8.0.2-1} date 2024-06-10T22:55:01+0200
; FORMAT={-:-/ absolute / metric / decimal}
; #@! TF.CreationDate,2024-06-10T22:55:01+02:00
; #@! TF.GenerationSoftware,Kicad,Pcbnew,8.0.2-1
; #@! TF.FileFunction,MixedPlating,1,2
FMAT,2
METRIC
; #@! TA.AperFunction,Plated,PTH,ViaDrill
T1C0.300
; #@! TA.AperFunction,Plated,PTH,ComponentDrill
T2C0.700
; #@! TA.AperFunction,Plated,PTH,ComponentDrill
T3C0.800
; #@! TA.AperFunction,NonPlated,NPTH,ComponentDrill
T4C2.000
; #@! TA.AperFunction,NonPlated,NPTH,ComponentDrill
T5C2.100
%
G90
G05
T1
X4.014Y-16.413
X4.014Y-29.113
X4.014Y-41.813
X4.014Y-54.514
X4.014Y-67.213
X4.014Y-79.913
X12.142Y-16.413
X12.142Y-29.113
X12.142Y-41.813
X12.142Y-54.514
X12.142Y-67.213
X12.142Y-79.913
X20.27Y-16.413
X20.27Y-29.113
X20.27Y-41.813
X20.27Y-54.514
X20.27Y-67.213
X20.27Y-79.913
X28.398Y-16.413
X28.398Y-29.113
X28.398Y-41.813
X28.398Y-54.514
X28.398Y-67.213
X28.398Y-79.913
X36.526Y-16.413
X36.526Y-29.113
X36.526Y-41.813
X36.526Y-54.514
X36.526Y-67.213
X36.526Y-79.913
X44.654Y-16.413
X44.654Y-29.113
X44.654Y-41.813
X44.654Y-54.514
X44.654Y-67.213
X44.654Y-79.913
X52.782Y-16.413
X52.782Y-29.113
X52.782Y-41.813
X52.782Y-54.514
X52.782Y-67.213
X52.782Y-79.913
X60.91Y-16.413
X60.91Y-29.113
X60.91Y-41.813
X60.91Y-54.514
X60.91Y-67.213
X60.91Y-79.913
T2
X2.744Y-11.079
X2.744Y-23.779
X2.744Y-36.48
X2.744Y-49.179
X2.744Y-61.88
X2.744Y-74.579
X5.284Y-11.079
X5.284Y-23.779
X5.284Y-36.48
X5.284Y-49.179
X5.284Y-61.88
X5.284Y-74.579
X10.872Y-11.079
X10.872Y-23.779
X10.872Y-36.48
X10.872Y-49.179
X10.872Y-61.88
X10.872Y-74.579
X13.412Y-11.079
X13.412Y-23.779
X13.412Y-36.48
X13.412Y-49.179
X13.412Y-61.88
X13.412Y-74.579
X19.0Y-11.079
X19.0Y-23.779
X19.0Y-36.48
X19.0Y-49.179
X19.0Y-61.88
X19.0Y-74.579
X21.54Y-11.079
X21.54Y-23.779
X21.54Y-36.48
X21.54Y-49.179
X21.54Y-61.88
X21.54Y-74.579
X27.128Y-11.079
X27.128Y-23.779
X27.128Y-36.48
X27.128Y-49.179
X27.128Y-61.88
X27.128Y-74.579
X29.668Y-11.079
X29.668Y-23.779
X29.668Y-36.48
X29.668Y-49.179
X29.668Y-61.88
X29.668Y-74.579
X35.256Y-11.079
X35.256Y-23.779
X35.256Y-36.48
X35.256Y-49.179
X35.256Y-61.88
X35.256Y-74.579
X37.796Y-11.079
X37.796Y-23.779
X37.796Y-36.48
X37.796Y-49.179
X37.796Y-61.88
X37.796Y-74.579
X43.384Y-11.079
X43.384Y-23.779
X43.384Y-36.48
X43.384Y-49.179
X43.384Y-61.88
X43.384Y-74.579
X45.924Y-11.079
X45.924Y-23.779
X45.924Y-36.48
X45.924Y-49.179
X45.924Y-61.88
X45.924Y-74.579
X51.512Y-11.079
X51.512Y-23.779
X51.512Y-36.48
X51.512Y-49.179
X51.512Y-61.88
X51.512Y-74.579
X54.052Y-11.079
X54.052Y-23.779
X54.052Y-36.48
X54.052Y-49.179
X54.052Y-61.88
X54.052Y-74.579
X59.64Y-11.079
X59.64Y-23.779
X59.64Y-36.48
X59.64Y-49.179
X59.64Y-61.88
X59.64Y-74.579
X62.18Y-11.079
X62.18Y-23.779
X62.18Y-36.48
X62.18Y-49.179
X62.18Y-61.88
X62.18Y-74.579
T3
X1.524Y-8.54
X1.524Y-21.239
X1.524Y-33.939
X1.524Y-46.639
X1.524Y-59.339
X1.524Y-72.039
X4.064Y-8.54
X4.064Y-21.239
X4.064Y-33.939
X4.064Y-46.639
X4.064Y-59.339
X4.064Y-72.039
X6.604Y-8.54
X6.604Y-21.239
X6.604Y-33.939
X6.604Y-46.639
X6.604Y-59.339
X6.604Y-72.039
X9.652Y-8.54
X9.652Y-21.239
X9.652Y-33.939
X9.652Y-46.639
X9.652Y-59.339
X9.652Y-72.039
X12.192Y-8.54
X12.192Y-21.239
X12.192Y-33.939
X12.192Y-46.639
X12.192Y-59.339
X12.192Y-72.039
X14.732Y-8.54
X14.732Y-21.239
X14.732Y-33.939
X14.732Y-46.639
X14.732Y-59.339
X14.732Y-72.039
X17.78Y-8.54
X17.78Y-21.239
X17.78Y-33.939
X17.78Y-46.639
X17.78Y-59.339
X17.78Y-72.039
X20.32Y-8.54
X20.32Y-21.239
X20.32Y-33.939
X20.32Y-46.639
X20.32Y-59.339
X20.32Y-72.039
X22.86Y-8.54
X22.86Y-21.239
X22.86Y-33.939
X22.86Y-46.639
X22.86Y-59.339
X22.86Y-72.039
X25.908Y-8.54
X25.908Y-21.239
X25.908Y-33.939
X25.908Y-46.639
X25.908Y-59.339
X25.908Y-72.039
X28.448Y-8.54
X28.448Y-21.239
X28.448Y-33.939
X28.448Y-46.639
X28.448Y-59.339
X28.448Y-72.039
X30.988Y-8.54
X30.988Y-21.239
X30.988Y-33.939
X30.988Y-46.639
X30.988Y-59.339
X30.988Y-72.039
X34.036Y-8.54
X34.036Y-21.239
X34.036Y-33.939
X34.036Y-46.639
X34.036Y-59.339
X34.036Y-72.039
X36.576Y-8.54
X36.576Y-21.239
X36.576Y-33.939
X36.576Y-46.639
X36.576Y-59.339
X36.576Y-72.039
X39.116Y-8.54
X39.116Y-21.239
X39.116Y-33.939
X39.116Y-46.639
X39.116Y-59.339
X39.116Y-72.039
X42.164Y-8.54
X42.164Y-21.239
X42.164Y-33.939
X42.164Y-46.639
X42.164Y-59.339
X42.164Y-72.039
X44.704Y-8.54
X44.704Y-21.239
X44.704Y-33.939
X44.704Y-46.639
X44.704Y-59.339
X44.704Y-72.039
X47.244Y-8.54
X47.244Y-21.239
X47.244Y-33.939
X47.244Y-46.639
X47.244Y-59.339
X47.244Y-72.039
X50.292Y-8.54
X50.292Y-21.239
X50.292Y-33.939
X50.292Y-46.639
X50.292Y-59.339
X50.292Y-72.039
X52.832Y-8.54
X52.832Y-21.239
X52.832Y-33.939
X52.832Y-46.639
X52.832Y-59.339
X52.832Y-72.039
X55.372Y-8.54
X55.372Y-21.239
X55.372Y-33.939
X55.372Y-46.639
X55.372Y-59.339
X55.372Y-72.039
X58.42Y-8.54
X58.42Y-21.239
X58.42Y-33.939
X58.42Y-46.639
X58.42Y-59.339
X58.42Y-72.039
X60.96Y-8.54
X60.96Y-21.239
X60.96Y-33.939
X60.96Y-46.639
X60.96Y-59.339
X60.96Y-72.039
X63.5Y-8.54
X63.5Y-21.239
X63.5Y-33.939
X63.5Y-46.639
X63.5Y-59.339
X63.5Y-72.039
T4
X2.5Y-2.5
X2.5Y-85.7
X62.524Y-2.5
X62.524Y-85.7
T5
X4.014Y-14.381
X4.014Y-27.081
X4.014Y-39.782
X4.014Y-52.481
X4.014Y-65.181
X4.014Y-77.882
X12.142Y-14.381
X12.142Y-27.081
X12.142Y-39.782
X12.142Y-52.481
X12.142Y-65.181
X12.142Y-77.882
X20.27Y-14.381
X20.27Y-27.081
X20.27Y-39.782
X20.27Y-52.481
X20.27Y-65.181
X20.27Y-77.882
X28.398Y-14.381
X28.398Y-27.081
X28.398Y-39.782
X28.398Y-52.481
X28.398Y-65.181
X28.398Y-77.882
X36.526Y-14.381
X36.526Y-27.081
X36.526Y-39.782
X36.526Y-52.481
X36.526Y-65.181
X36.526Y-77.882
X44.654Y-14.381
X44.654Y-27.081
X44.654Y-39.782
X44.654Y-52.481
X44.654Y-65.181
X44.654Y-77.882
X52.782Y-14.381
X52.782Y-27.081
X52.782Y-39.782
X52.782Y-52.481
X52.782Y-65.181
X52.782Y-77.882
X60.91Y-14.381
X60.91Y-27.081
X60.91Y-39.782
X60.91Y-52.481
X60.91Y-65.181
X60.91Y-77.882
M30
