G04 #@! TF.GenerationSoftware,KiCad,Pcbnew,8.0.2-1*
G04 #@! TF.CreationDate,2024-06-10T22:55:01+02:00*
G04 #@! TF.ProjectId,panel-eyes,70616e65-6c2d-4657-9965-732e6b696361,rev?*
G04 #@! TF.SameCoordinates,Original*
G04 #@! TF.FileFunction,Profile,NP*
%FSLAX46Y46*%
G04 Gerber Fmt 4.6, Leading zero omitted, Abs format (unit mm)*
G04 Created by KiCad (PCBNEW 8.0.2-1) date 2024-06-10 22:55:01*
%MOMM*%
%LPD*%
G01*
G04 APERTURE LIST*
G04 #@! TA.AperFunction,Profile*
%ADD10C,0.100000*%
G04 #@! TD*
G04 APERTURE END LIST*
D10*
X0Y-83199500D02*
X0Y-84199500D01*
X65024000Y-5999500D02*
X65024000Y-4999500D01*
X65024000Y-82199500D02*
X65024000Y-69499500D01*
X65024000Y-31399500D02*
X65024000Y-18699500D01*
X65024000Y-4000000D02*
X65024000Y0D01*
X0Y-84199500D02*
X0Y-88199500D01*
X65024000Y-56799500D02*
X65024000Y-44099500D01*
X0Y-56799500D02*
X0Y-69499500D01*
X0Y0D02*
X0Y-4000000D01*
X0Y-82199500D02*
X0Y-83199500D01*
X65024000Y-88199500D02*
X65024000Y-84199500D01*
X0Y-18699500D02*
X0Y-31399500D01*
X65024000Y-4999500D02*
X65024000Y-4000000D01*
X0Y-4999500D02*
X0Y-5999500D01*
X0Y-5999500D02*
X0Y-18699500D01*
X65024000Y-84199500D02*
X65024000Y-83199500D01*
X0Y-31399500D02*
X0Y-44099500D01*
X65024000Y-69499500D02*
X65024000Y-56799500D01*
X0Y-88199500D02*
X65024000Y-88199500D01*
X65024000Y-18699500D02*
X65024000Y-5999500D01*
X65024000Y0D02*
X0Y0D01*
X0Y-44099500D02*
X0Y-56799500D01*
X0Y-69499500D02*
X0Y-82199500D01*
X65024000Y-83199500D02*
X65024000Y-82199500D01*
X65024000Y-44099500D02*
X65024000Y-31399500D01*
X0Y-4000000D02*
X0Y-4999500D01*
M02*
